/* XPM */
static char *_33dfeb31db24afc8648787eef5b5f42uTRM9F4dvD4QlrN6[] = {
/* columns rows colors chars-per-pixel */
"64 64 150 2 ",
"   c None",
".  c #4F2B17",
"X  c #4F2D18",
"o  c #512E19",
"O  c #53331E",
"+  c #563621",
"@  c #5B3A27",
"#  c #573D2B",
"$  c #5A3E2D",
"%  c #57402F",
"&  c #5F402C",
"*  c #5B4434",
"=  c #5C4738",
"-  c #5C493B",
";  c #61422E",
":  c #634633",
">  c #654A35",
",  c #624C3D",
"<  c #684E39",
"1  c #66503F",
"2  c #69503A",
"3  c #5D4E42",
"4  c #5E5145",
"5  c #5F5548",
"6  c #625245",
"7  c #685546",
"8  c #6C5847",
"9  c #62564B",
"0  c #6B5748",
"q  c #645A4E",
"w  c #6A5A4D",
"e  c #715D49",
"r  c #645D52",
"t  c #695E51",
"y  c #745F52",
"u  c #73614F",
"i  c #676156",
"p  c #696156",
"a  c #676358",
"s  c #6B645B",
"d  c #6E685E",
"f  c #736252",
"g  c #73665A",
"h  c #73695E",
"j  c #6F6960",
"k  c #746D63",
"l  c #796F63",
"z  c #777066",
"x  c #7A7166",
"c  c #777269",
"v  c #7B756A",
"b  c #7D796E",
"n  c #7E7A71",
"m  c #80766B",
"M  c #827A6E",
"N  c #807B71",
"B  c #807B72",
"V  c #827E73",
"C  c #827F73",
"Z  c #857D71",
"A  c #867D71",
"S  c #857D72",
"D  c #847D73",
"F  c #867D72",
"G  c #857E73",
"H  c #817D74",
"J  c #817E75",
"K  c #827F74",
"L  c #817C72",
"P  c #838073",
"I  c #848073",
"U  c #838176",
"Y  c #838077",
"T  c #848074",
"R  c #848174",
"E  c #848075",
"W  c #868075",
"Q  c #878075",
"!  c #878175",
"~  c #868274",
"^  c #858176",
"/  c #848277",
"(  c #858277",
")  c #858377",
"_  c #868477",
"`  c #868177",
"'  c #898277",
"]  c #888476",
"[  c #888576",
"{  c #848179",
"}  c #858378",
"|  c #858379",
" . c #868378",
".. c #858478",
"X. c #868478",
"o. c #868578",
"O. c #878578",
"+. c #868579",
"@. c #878579",
"#. c #868479",
"$. c #87857A",
"%. c #87857B",
"&. c #87847A",
"*. c #888578",
"=. c #898479",
"-. c #888579",
";. c #8B8479",
":. c #888679",
">. c #898679",
",. c #898779",
"<. c #8A8678",
"1. c #8A8779",
"2. c #88857B",
"3. c #88867A",
"4. c #89867A",
"5. c #89877A",
"6. c #8A877A",
"7. c #8A877B",
"8. c #8C8479",
"9. c #8D857A",
"0. c #8A867C",
"q. c #8A867D",
"w. c #8C877D",
"e. c #8F877C",
"r. c #8A867C",
"t. c #8A887B",
"y. c #8B887D",
"u. c #8A887E",
"i. c #8A887F",
"p. c #8C897D",
"a. c #8C897E",
"s. c #8C897F",
"d. c #8D897F",
"f. c #8C8A7E",
"g. c #8D8A7F",
"h. c #8D8A7E",
"j. c #91897E",
"k. c #8D8980",
"l. c #8E8A80",
"z. c #8E8A81",
"x. c #8E8B81",
"c. c #8E8B81",
"v. c #908C82",
"b. c #908D84",
"n. c #908E85",
"m. c #938E84",
"M. c #948E85",
"N. c #948F85",
"B. c #938F84",
"V. c #949188",
/* pixels */
"                                                                                                                                ",
"                                                                                                                                ",
"                                                                                                                                ",
"                                                                                                                                ",
"                                                                                                                                ",
"                                                                                                                                ",
"                                                                                                                                ",
"                                                                                                                                ",
"                                                                                                                                ",
"                                                                                                                                ",
"                                                                                                                                ",
"                                                                                                                                ",
"                                                                                                                                ",
"                                          m v v v v x x x x x x x x x x x x x l x v                                             ",
"                                        v M 0.0.0.&.E V V V V V V V V V V V V V J M x                                           ",
"                                      v m &.&.&.&.&.} } } } } } } } &.y.y.&.E E E } M x                                         ",
"                                    y m &.E E E E n b n n n n n n J Y } } J Y E E E } M f                                       ",
"                                    : D &.E E E c 7 7 7 0 w w w w w w w w 0 k Y E E E 6.:                                       ",
"                                    : D } E E x 6 1 6 0 0 0 0 0 0 0 0 6 6 6 , k E E E 6.:                                       ",
"                                    : D &.E &.8 1 f h k k k k k k k k h h g 7 , E E E 0.:                                       ",
"                                    : E &._ &.< w k c c c c c c v x c c c k h : P E E g.:                                       ",
"                                    : E &._ &.< t c c c c v v v v v x x x x l : I _ _ c.:                                       ",
"                                    : E &.&.&.< h v v v c v v b b v v x x x l : E &.&.c.:                                       ",
"                                    : ' &.&.&.< h b b v v b b b b b v v v v k : E &.&.x.:                                       ",
"                                    : 6.6.&.6.2 k b b b b b b b b b v v v v x : E &.&.v.:                                       ",
"                                    : 9.6.&.6.< l n b v v b b b b b b b v v x : 6.6.&.m.<                                       ",
"                                    : 9.g.6.6.e f b b k h c v b N N N n n v g 8 e.6.6.N.<                                       ",
"                                    : e.m.g.6.M u f w 7 6 7 7 w f f f f f f f D c.6.6.N.<                                       ",
"                                    : j.m.g.6.6.M f f u u u u f f f f f f f D g.y.6.6.N.<                                       ",
"                                    ; D V.g.6.6.6.] ] ] ] ] ] ] ] ] ] ] ] 6.g.t.6.6.c.M @                                       ",
"                                    & x 6.m.h.g.g.g.g.g.g.g.g.g.g.g.g.g.g.g.g.g.g.c.N p +                                       ",
"                                    @ h b c.c.x.c.c.g.g.0.0.0.0.g.c.c.c.0.0.0.0.g.E d w +                                       ",
"                                    @ h V b c v c c c k k k k k c v v v k k k k k c k t O                                       ",
"                                    + k v d j k d d d d d d d d d h h d d d d d d d k k O                                       ",
"                                    o k j d d d d a s s s s s s s s s s s s d k d d d c +                                       ",
"                                    o k d s s d t = = = = = = = = = = = = = w k k d d c +                                       ",
"                                    o h s a s q = - 3 6 6 6 6 6 6 6 9 6 6 6 3 t j d a k +                                       ",
"                                    o g s a a * = 5 q r r r r r r r r r r r 9 * s a a j O                                       ",
"                                    o g s a a $ - q r r r r r r r r r r r r q $ a a a d O                                       ",
"                                    o s a a a * 3 q q r q r r r r q q q q r q $ p a a d O                                       ",
"                                    o s a a a * 3 9 9 q q q q q q 9 9 9 q q 9 # p a a d O                                       ",
"                                    o p a i p % 3 5 9 q q q q q 9 9 9 9 9 9 9 # r p a d O                                       ",
"                                    o t i i i # - 5 5 9 q q q q 9 9 9 9 9 9 9 # r p p d O                                       ",
"                                    X t p r r $ - 4 4 9 9 q q 9 9 9 5 5 5 5 4 # r r r d O                                       ",
"                                    X t a r r 9 = 3 3 4 4 6 6 4 4 4 4 3 3 3 - 6 r r r d O                                       ",
"                                    X t a r r r w = * * * * * * * * * * * * 6 r r r r a O                                       ",
"                                    . t a i r r i t w w w t t t t t t t w w r r r r r a O                                       ",
"                                      6 a a a r r r r r r i a a a a s a r r r r r r r 6 0                                       ",
"                                        6 a a r r r r r r r r r r i i r r r r r r r 6 g                                         ",
"                                          6 q 5 5 5 5 5 5 5 5 5 5 5 5 9 9 9 9 9 9 6 f                                           ",
"                                            , , , , , , , , , , , , , , , , , , , f                                             ",
"                                                                                                                                ",
"                                                                                                                                ",
"                                                                                                                                ",
"                                                                                                                                ",
"                                                                                                                                ",
"                                                                                                                                ",
"                                                                                                                                ",
"                                                                                                                                ",
"                                                                                                                                ",
"                                                                                                                                ",
"                                                                                                                                ",
"                                                                                                                                ",
"                                                                                                                                "
};
