/* XPM */
static char * Wall_xpm[] = {
"64 64 388 2",
"  	c None",
". 	c #5F422F",
"+ 	c #614431",
"@ 	c #604331",
"# 	c #614532",
"$ 	c #614533",
"% 	c #624633",
"& 	c #624634",
"* 	c #634836",
"= 	c #634936",
"- 	c #634A38",
"; 	c #644A38",
"> 	c #644B39",
", 	c #624835",
"' 	c #634835",
") 	c #624735",
"! 	c #604330",
"~ 	c #5C3C28",
"{ 	c #8D8B82",
"] 	c #8B8980",
"^ 	c #848277",
"/ 	c #5B3B27",
"( 	c #8C8A81",
"_ 	c #60422E",
": 	c #635A51",
"< 	c #645A52",
"[ 	c #665D54",
"} 	c #675F56",
"| 	c #6B635A",
"1 	c #6A635A",
"2 	c #6A6159",
"3 	c #696057",
"4 	c #696158",
"5 	c #858277",
"6 	c #61422E",
"7 	c #5F574E",
"8 	c #5C3B25",
"9 	c #5C3C25",
"0 	c #5E3F2A",
"a 	c #5F402E",
"b 	c #5F412E",
"c 	c #5E402C",
"d 	c #5E402B",
"e 	c #5E3E29",
"f 	c #5D3C26",
"g 	c #60584F",
"h 	c #61432E",
"i 	c #8E8B82",
"j 	c #858377",
"k 	c #5F564D",
"l 	c #5A371E",
"m 	c #716256",
"n 	c #777066",
"o 	c #6D6258",
"p 	c #706256",
"q 	c #5D3C28",
"r 	c #918F86",
"s 	c #868477",
"t 	c #7B776B",
"u 	c #7A7267",
"v 	c #95938B",
"w 	c #5D3E29",
"x 	c #614430",
"y 	c #868478",
"z 	c #797369",
"A 	c #7A7669",
"B 	c #7A7769",
"C 	c #7A776A",
"D 	c #7A756A",
"E 	c #60422D",
"F 	c #79756A",
"G 	c #7B766C",
"H 	c #7B776C",
"I 	c #7C776C",
"J 	c #7A766A",
"K 	c #7C776B",
"L 	c #7B766B",
"M 	c #311512",
"N 	c #5B371E",
"O 	c #7A756B",
"P 	c #7C786C",
"Q 	c #7D786D",
"R 	c #7C786B",
"S 	c #7B776A",
"T 	c #7B766A",
"U 	c #7B7267",
"V 	c #7A7469",
"W 	c #787467",
"X 	c #787268",
"Y 	c #61432F",
"Z 	c #95938A",
"` 	c #878578",
" .	c #7D796F",
"..	c #7C776D",
"+.	c #7C786E",
"@.	c #7D786E",
"#.	c #7E786F",
"$.	c #7E786E",
"%.	c #7C766E",
"&.	c #7B756A",
"*.	c #7B7469",
"=.	c #797468",
"-.	c #797267",
";.	c #97948C",
">.	c #7D796E",
",.	c #7F796F",
"'.	c #80796F",
").	c #7E796F",
"!.	c #7C766A",
"~.	c #7C756A",
"{.	c #7A7568",
"].	c #7A7368",
"^.	c #797368",
"/.	c #888578",
"(.	c #99978F",
"_.	c #5F402B",
":.	c #98958D",
"<.	c #8B897D",
"[.	c #888679",
"}.	c #898679",
"|.	c #5B381E",
"1.	c #7D776D",
"2.	c #7F7A6F",
"3.	c #6C6259",
"4.	c #7F7A70",
"5.	c #7F7A71",
"6.	c #7F7970",
"7.	c #7E7970",
"8.	c #7B746D",
"9.	c #5B381F",
"0.	c #8F8B83",
"a.	c #888579",
"b.	c #9C9991",
"c.	c #5F3E29",
"d.	c #60402B",
"e.	c #99968E",
"f.	c #8F8C83",
"g.	c #8E8C82",
"h.	c #6C635A",
"i.	c #807A71",
"j.	c #7E7A70",
"k.	c #8D8A81",
"l.	c #89867A",
"m.	c #9D9991",
"n.	c #5F3F29",
"o.	c #5C381F",
"p.	c #5E3D28",
"q.	c #A09C94",
"r.	c #8D8B81",
"s.	c #8A877A",
"t.	c #8A887A",
"u.	c #89877A",
"v.	c #5E3F29",
"w.	c #7F7C70",
"x.	c #8B897C",
"y.	c #8C897C",
"z.	c #8A8779",
"A.	c #8C8A7C",
"B.	c #9A968E",
"C.	c #696153",
"D.	c #543019",
"E.	c #7B786C",
"F.	c #9F9A92",
"G.	c #5A3722",
"H.	c #7A766B",
"I.	c #807C70",
"J.	c #9F9B93",
"K.	c #9D9A92",
"L.	c #9B978F",
"M.	c #9A978F",
"N.	c #96938B",
"O.	c #9E9A92",
"P.	c #696255",
"Q.	c #696152",
"R.	c #542F18",
"S.	c #583622",
"T.	c #777369",
"U.	c #78746A",
"V.	c #95918A",
"W.	c #6D675E",
"X.	c #757169",
"Y.	c #757168",
"Z.	c #6F695F",
"`.	c #6F6960",
" +	c #7B766E",
".+	c #7C786F",
"++	c #7D7970",
"@+	c #7B776F",
"#+	c #6F6860",
"$+	c #6E685F",
"%+	c #6E685E",
"&+	c #807E77",
"*+	c #675F53",
"=+	c #675F52",
"-+	c #512C16",
";+	c #583621",
">+	c #8B8880",
",+	c #6D675D",
"'+	c #6F685E",
")+	c #6F695E",
"!+	c #6F685F",
"~+	c #6E675E",
"{+	c #6E675F",
"]+	c #6D675F",
"^+	c #6D665E",
"/+	c #4F2913",
"(+	c #828078",
"_+	c #6D665D",
":+	c #6E685D",
"<+	c #6F675E",
"[+	c #6C665E",
"}+	c #6C665D",
"|+	c #828079",
"1+	c #6C655C",
"2+	c #6B655D",
"3+	c #6E675D",
"4+	c #726D63",
"5+	c #726C62",
"6+	c #6D665C",
"7+	c #4E2913",
"8+	c #7E7C74",
"9+	c #6A645B",
"0+	c #6A645C",
"a+	c #6B645C",
"b+	c #6B655C",
"c+	c #533422",
"d+	c #523320",
"e+	c #52321F",
"f+	c #51311E",
"g+	c #512F1C",
"h+	c #51301C",
"i+	c #512F1B",
"j+	c #522F1B",
"k+	c #52301B",
"l+	c #726C63",
"m+	c #6D655C",
"n+	c #6C655B",
"o+	c #7C7A71",
"p+	c #7C7972",
"q+	c #69635B",
"r+	c #533421",
"s+	c #594C41",
"t+	c #5B4F44",
"u+	c #645B50",
"v+	c #645B4F",
"w+	c #655B51",
"x+	c #655C52",
"y+	c #665D53",
"z+	c #665D52",
"A+	c #645B51",
"B+	c #533623",
"C+	c #706C63",
"D+	c #726D64",
"E+	c #6C665B",
"F+	c #6B655B",
"G+	c #77746B",
"H+	c #311612",
"I+	c #79776E",
"J+	c #69635A",
"K+	c #6B645A",
"L+	c #5B4E43",
"M+	c #5A4D42",
"N+	c #655B50",
"O+	c #655C51",
"P+	c #665C52",
"Q+	c #655D52",
"R+	c #533420",
"S+	c #6D6860",
"T+	c #6B645B",
"U+	c #747068",
"V+	c #4E2812",
"W+	c #78756C",
"X+	c #5B4E42",
"Y+	c #645A4F",
"Z+	c #655C50",
"`+	c #533320",
" @	c #726F67",
".@	c #767269",
"+@	c #686159",
"@@	c #696259",
"#@	c #6B6358",
"$@	c #61564B",
"%@	c #63594E",
"&@	c #635A4F",
"*@	c #645A50",
"=@	c #655A50",
"-@	c #63574D",
";@	c #63584D",
">@	c #655D51",
",@	c #635A4E",
"'@	c #52331F",
")@	c #6B6359",
"!@	c #6A6359",
"~@	c #6A6459",
"{@	c #736F67",
"]@	c #676158",
"^@	c #676157",
"/@	c #686157",
"(@	c #696257",
"_@	c #523521",
":@	c #5F5448",
"<@	c #62574C",
"[@	c #62574D",
"}@	c #696258",
"|@	c #726F66",
"1@	c #676156",
"2@	c #686156",
"3@	c #50311D",
"4@	c #63584E",
"5@	c #686158",
"6@	c #716E65",
"7@	c #4D2812",
"8@	c #6F6B62",
"9@	c #676155",
"0@	c #676056",
"a@	c #502F1B",
"b@	c #5F5449",
"c@	c #605549",
"d@	c #62574B",
"e@	c #61574D",
"f@	c #51301B",
"g@	c #676057",
"h@	c #686057",
"i@	c #716D65",
"j@	c #563915",
"k@	c #6F6B60",
"l@	c #666053",
"m@	c #676054",
"n@	c #665E55",
"o@	c #5E5346",
"p@	c #5E5446",
"q@	c #605448",
"r@	c #605449",
"s@	c #60554A",
"t@	c #61574C",
"u@	c #512F1A",
"v@	c #666055",
"w@	c #665F56",
"x@	c #787B21",
"y@	c #6F6A60",
"z@	c #665E54",
"A@	c #655E55",
"B@	c #5E5245",
"C@	c #5E5145",
"D@	c #5E5146",
"E@	c #5E5347",
"F@	c #62564B",
"G@	c #5F564A",
"H@	c #615649",
"I@	c #50321D",
"J@	c #655F54",
"K@	c #655F55",
"L@	c #726E66",
"M@	c #696359",
"N@	c #645C53",
"O@	c #645D53",
"P@	c #645E53",
"Q@	c #6F6A5E",
"R@	c #523422",
"S@	c #888930",
"T@	c #5F5347",
"U@	c #5F5447",
"V@	c #5F5348",
"W@	c #573E2E",
"X@	c #696358",
"Y@	c #655F53",
"Z@	c #645E54",
"`@	c #716D64",
" #	c #6A655A",
".#	c #69655A",
"+#	c #635C51",
"@#	c #625C50",
"##	c #5A4016",
"$#	c #726D60",
"%#	c #736D61",
"&#	c #635D51",
"*#	c #645E52",
"=#	c #635D52",
"-#	c #6E6A61",
";#	c #6C6759",
">#	c #5F4C18",
",#	c #604E19",
"'#	c #64531A",
")#	c #5F4C17",
"!#	c #64541A",
"~#	c #65551A",
"{#	c #625019",
"]#	c #66581A",
"                                                                                                                                ",
"                                                                                                                                ",
"                                                                                                                                ",
"                                                                                                                                ",
"                                                                                                                                ",
"                                                                                                                                ",
"                                                                                                                                ",
"                                                                                                                                ",
"                                                                                                                                ",
"                                                                                                                                ",
"                                                                                                                                ",
"                                        . + @ # $ % & * = - ; ; > > > , ' ) ) ) ) $ ! !                                         ",
"                                      ~ { { { { ] ] ^ ^ ^ ^ ^ ^ ^ ^ ^ ^ ^ ^ ^ ^ ^ ^ ^ ] /                                       ",
"                                    ~ { { { { { ] ^ ^ ^ ^ ^ ^ ^ ^ ^ ^ ^ ^ ^ ^ ^ ^ ^ ^ ^ ] ~                                     ",
"                                  ~ { ^ ^ ^ ^ ^ ^ ^ ^ ^ ^ ^ ^ ^ ^ ^ ^ ^ ( ( ( ^ ^ ^ ^ ^ ^ ] ~                                   ",
"                                _ { ^ ^ ^ ^ ^ ^ ^ ^ ^ ^ ^ ^ ^ ^ ^ ^ ] ( ( ( ( ^ ^ ^ ^ ^ ^ ^ { _                                 ",
"                                _ { ^ ^ ^ ^ ^ ^ : < [ [ } | | 1 1 1 | | | 2 3 4 5 ^ ^ ^ ^ ^ { /                                 ",
"                                6 { ^ 5 5 5 5 7 8 9 9 0 0 a b c d e e e e f f f g ^ 5 5 5 ^ { ~                                 ",
"                                h i 5 j j 5 k l m m n n n n n n n n n n o p p p l k 5 5 j 5 { q                                 ",
"                                h r j s s s l p n n n n n n n n t t n n n n n u u l s j j j v w                                 ",
"                                x r s s s y l o z n n n n A B C t t D n u u u u u l s s s s v w                                 ",
"                                E r y y y y l F G H I n n J K K t I L J u u u u u l y y s s v w M M M                           ",
"                                h r y y y y N O H P Q J J K K R R R S T U u V W X N y y y y v e M M M M                         ",
"                                Y Z y y ` ` N G  . ...+.@.@.#.#.$.@.+.%.&.&.*.=.-.N y y y ` v e M M M M M                       ",
"                                h ;.` ` ` ` N  . . . .@.>. .,.,.'.,.).$.!.~.{.].^.N /./.y y (.e M M M M M M M                   ",
"                                _.:.<.[.[.}.|.1.).).2.3.3.,.2.2.4.5.5.6.7.7.#.V 8.9.0.}.a.a.b.c.M M M M M M M                   ",
"                                d.e.f.g.}.}.}.|.Q ).3.3.3.h.h.h.i.5.5.4.j.7.).+.9.k.0.l.l.a.m.n.M M M M M M M                   ",
"                                d.m.f.f.}.}.}.}.|.9.9.9.9.9.9.9.9.9.9.9.o.9.o.o.0.0.0.l.l.l.m.n.M M M M M M M                   ",
"                                p.q.r.f.}.}.s.s.s.s.s.s.s.s.s.s.s.s.s.t.t.t.t.f.f.u.l.l.l.l.m.v.M M M M M M M                   ",
"                                p.w.q.x.y.z.z.s.s.s.s.s.s.s.s.s.s.t.t.t.t.t.A.t.t.t.t.l.l.B.C.D.M M M M M M M                   ",
"                                p.P E.q.y.z.s.s.s.s.s.s.s.s.s.s.s.s.s.t.t.t.t.t.t.t.t.l.F.C.C.D.M M M M M M M                   ",
"                                G.H.H.I.q.J.K.m.b.L.M.L.v N.N.N.N.N.;.;.;.;.;.:.:.:.L.O.P.Q.Q.R.M M M M M M M                   ",
"                                S.T.U.V.W.X.Y.Y.Y.Y.Z.`.Z.`.`.Z.`. +.+++@+#+$+$+$+$+$+%+&+*+=+-+M M M M M M M                   ",
"                                ;+U.>+,+,+Y.Y.%+%+%+%+%+%+%+%+%+%+'+'+'+)+!+~+~+{+{+]+W.^+&+=+/+M M M M M M M                   ",
"                                /+(+,+,+,+,+_+,+_+:+<+'+'+<+<+)+'+)+)+)+)+'+'+%+~+W.,+W.[+}+&+/+M M M M M M M                   ",
"                                /+|+_+}+1+2+_+_+,+3+~+%+%+%+%+%+%+'+'+'+'+'+'+'+%+4+5+6+1+2+|+/+M M M M M M M                   ",
"                                7+8+9+0+a+b+}+_+c+c+d+e+e+f+g+h+h+h+h+h+i+j+i+k+4+l+4+m+1+n+o+/+M M M M M M M                   ",
"                                7+p+q+9+0+1+}+r+s+t+u+v+u+w+x+x+x+x+x+y+z+x+w+A+B+C+D+1+E+F+G+/+M M M M M M H+                  ",
"                                7+I+J+J+K+F+i+L+M+N+v+N+u+N+O+O+O+O+y+y+y+P+x+Q+Q+R+S+b+T+T+U+/+M H+H+M M M H+                  ",
"                                V+W+J+J+K+F+i+X+Y+N+N+u+u+u+Z+O+z+z+z+z+z+Q+Q+Q+Q+`+a+T+9+9+ @/+M H+M M M H+                    ",
"                                V+.@+@@@@@#@c+$@%@Y+&@*@Y+*@=@=@w+w+-@;@;@;@>@>@,@'@)@!@!@~@{@7+M H+M H+H+                      ",
"                                V+Y.]@^@/@(@_@:@:@:@Y+Y+Y+Y+Y+&@<@<@[@[@-@-@-@;@;@'@}@}@(@}@ @7+M H+H+H+H+                      ",
"                                V+|@^@1@^@2@3@:@:@:@Y+Y+Y+Y+Y+Y+<@<@<@<@<@<@<@4@;@'@5@5@/@/@6@7+H+H+M H+                        ",
"                                7@8@9@0@0@0@a@:@b@:@c@Y+Y+Y+Y+Y+<@<@<@<@<@<@<@d@e@f@g@^@/@h@i@V+H+H+H+H+                        ",
"                          j@    7@k@l@m@n@n@a@o@p@:@q@r@s@j@Y+<@<@<@t@b@b@b@j@b@b@u@v@0@w@0@6@V+H+H+H+j@                        ",
"                        j@x@j@j@7@y@J+y+z@A@h+B@C@D@E@F@j@x@j@<@<@G@H@b@b@j@x@j@b@I@J@J@K@w@L@V+H+H+j@x@j@                      ",
"                          j@x@x@j@y@M@N@O@P@Q@R@C@j@j@j@S@j@F@F@T@U@:@b@j@S@j@V@W@X@J@Y@Y@Z@`@V+H+j@x@j@                        ",
"                            j@S@S@j@ #.#+#+#@#@###S@x@j@S@j@$#$#$#%#%#j@j@S@j@%#j@&#*#=#j@j@-#V+j@S@j@                          ",
"                            j@S@S@j@ #.#j@.#j@j@S@j@j@j@S@j@.#j@j@;#j@S@j@S@j@j@x@j@=#j@j@x@j@V+j@S@j@                          ",
"                        j@j@  j@x@j@.#j@x@j@x@S@j@j@j@S@S@j@j@x@S@j@S@j@S@S@j@+#j@S@j@S@j@j@S@j@S@S@j@                          ",
"                      j@x@S@j@>#x@x@j@S@S@j@j@S@S@j@j@x@x@j@j@j@S@S@j@j@x@x@j@j@S@j@S@j@j@j@S@j@x@x@j@                          ",
"                        j@S@S@,#x@x@'#S@S@j@x@)#x@x@j@x@x@j@S@S@)#x@x@j@x@x@j@S@S@)#x@j@7@j@x@j@x@x@)#                          ",
"                          !#x@x@x@x@~#x@x@{#x@)#x@x@)#x@x@)#x@x@)#x@x@)#x@x@)#x@x@]#x@x@)#x@x@)#x@x@]#                          ",
"                                                    )#x@x@)#          )#x@x@)#          ]#x@x@]#                                ",
"                                                                                                                                ",
"                                                                                                                                ",
"                                                                                                                                ",
"                                                                                                                                ",
"                                                                                                                                ",
"                                                                                                                                ",
"                                                                                                                                ",
"                                                                                                                                ",
"                                                                                                                                ",
"                                                                                                                                "};
