/* XPM */
static char *result[] = {
/* columns rows colors chars-per-pixel */
"64 64 141 2 ",
"   c #12C111B6184B",
".  c #196E123F1E78",
"X  c #04F61E902B72",
"o  c #1D1A16D12352",
"O  c #1E6018BD25C8",
"+  c #10C91D85284C",
"@  c #1E2A1C082A8D",
"#  c #23D517002428",
"$  c #22811A0E26AD",
"%  c #22231CB92A9E",
"&  c #34601C6129D3",
"*  c #21391F24330F",
"=  c #169B21252D4E",
"-  c #1A28216A2F32",
";  c #155D22B83016",
":  c #1C8523383354",
">  c #1D3A25A8382B",
",  c #1E022B413B70",
"<  c #13562B3E3C5D",
"1  c #242A21272E43",
"2  c #241A2237332E",
"3  c #293C25B8359A",
"4  c #26D7256D388E",
"5  c #2A0626CA396E",
"6  c #24EC2A483C29",
"7  c #2CB12A203C80",
"8  c #31012459329B",
"9  c #38BC2337336B",
"0  c #396E23023839",
"q  c #314F2C4A3E8D",
"w  c #3D362A6B3EE8",
"e  c #527B1E862DC4",
"r  c #7A071B492B44",
"t  c #4BDD29113D94",
"y  c #54D7283A3D3B",
"u  c #5B2628B33F86",
"i  c #61A7240D35EB",
"p  c #72A725413C6C",
"a  c #2D412CFD406E",
"s  c #30852DB540B7",
"d  c #252B352C453D",
"f  c #2E6B329643EB",
"g  c #23C336F84805",
"h  c #2DD13B0B4A82",
"j  c #331D320943CD",
"k  c #363C36904902",
"l  c #3A0B37AE4A3D",
"z  c #34FA3B074D00",
"x  c #3BED3C374DA2",
"c  c #3DD93E9A5143",
"v  c #4019350946F9",
"b  c #4B4B32BC4552",
"n  c #412D3DC54F50",
"m  c #4EB13AD84B6F",
"M  c #40CF3EF450CE",
"N  c #574B3BD34FD5",
"B  c #7529298141E9",
"V  c #7686349848FB",
"C  c #35B040D752D5",
"Z  c #3CCC42DF5433",
"A  c #3AFE4D125D0D",
"S  c #42334461556B",
"D  c #48DD42795387",
"F  c #439E470557F6",
"G  c #448C48485978",
"H  c #49444BB15EFC",
"J  c #5D5451225F9A",
"K  c #7C2D4DF45878",
"L  c #68C853435EDC",
"P  c #4C734ED16395",
"I  c #4BD250F0664D",
"U  c #5100539D69E0",
"Y  c #56E45A487255",
"T  c #5B3E5F4179A6",
"R  c #774E5A06666B",
"E  c #5D9A60247A1D",
"W  c #8E3C1BD82E4E",
"Q  c #8FC61D7030FB",
"!  c #89111F4F3A76",
"~  c #957A1DA9342B",
"^  c #A4181C213ADA",
"/  c #8B0C236A379B",
"(  c #81F6247D3B18",
")  c #9ECD20333B51",
"_  c #A09C22883F34",
"`  c #D66C1D9E364C",
"'  c #D8811F503D79",
"]  c #E49C1C1F39A9",
"[  c #FFFF15DE3CEE",
"{  c #F82B1AC83FB6",
"}  c #FD1D187D3E83",
"|  c #C3AF21A73A1E",
" . c #D5A4209B3996",
".. c #E0AE21213AD0",
"X. c #82642D1E44AD",
"o. c #9658268741A4",
"O. c #9C4E253D40CE",
"+. c #8C603CBC4C1C",
"@. c #AB00263A42CD",
"#. c #FFFC1D534254",
"$. c #D18D228140B3",
"%. c #DE3B29FD419C",
"&. c #D5BD2A9A48EF",
"*. c #C56C32774F81",
"=. c #E71024CD4495",
"-. c #EF63216A4284",
";. c #F6A621AE429F",
":. c #FCB721FC4561",
">. c #FFFF23C54861",
",. c #FFFF29F94A0D",
"<. c #E75C39EA5592",
"1. c #F7DE33444FDC",
"2. c #FE99360A52C5",
"3. c #84CB4E8C5AF8",
"4. c #9CB75FC56878",
"5. c #B03454336039",
"6. c #A66D66387046",
"7. c #A9D86B197335",
"8. c #BBA16CCA73BF",
"9. c #AE2A77C17C77",
"0. c #D0AA495C5DF0",
"q. c #FDAD41E55AB0",
"w. c #FFFF4B8361A5",
"e. c #FFFF508B64C3",
"r. c #FF5355DF68E7",
"t. c #FFFF59F86B0B",
"y. c #D7F0699E73B4",
"u. c #DA656B5975C3",
"i. c #D15677027CFF",
"p. c #FFFF62577243",
"a. c #FFFD6D41784A",
"s. c #FFFF74D77D9B",
"d. c #B7CC7C6C8012",
"f. c #D2787D6F815D",
"g. c #FFBF79D28137",
"h. c #E81C823E848F",
"j. c #FEB58C618D6A",
"k. c #FF6E936D92DE",
"l. c #FDBC9A2E9688",
"z. c #FFFFA58C9E96",
"x. c None",
/* pixels */
"x.x.x.x.x.x.x.x.x.x.x.x.x.x.x.x.x.x.x.x.x.x.x.x.x.x.x.x.x.x.x.x.x.x.x.x.x.x.x.x.x.x.x.x.x.x.x.x.x.x.x.x.x.x.x.x.x.x.x.x.x.x.x.x.",
"x.x.x.x.x.x.x.x.x.x.x.x.x.x.x.x.x.x.x.x.x.x.x.x.x.x.x.x.x.x.x.x.x.x.x.x.x.x.x.x.x.x.x.x.x.x.x.x.x.x.x.x.x.x.x.x.x.x.x.x.x.x.x.x.",
"x.x.x.x.x.x.x.x.x.x.x.x.x.x.x.x.x.x.x.x.x.x.x.x.x.x.x.x.x.x.x.x.x.x.x.x.x.x.x.x.x.x.x.x.x.x.x.x.x.x.x.x.x.x.x.x.x.x.x.x.x.x.x.x.",
"x.x.x.x.x.x.x.x.x.x.x.x.x.x.x.x.x.x.x.x.x.x.x.x.x.x.x.x.x.x.x.x.x.x.x.x.x.x.x.x.x.x.x.x.x.x.x.x.x.x.x.x.x.x.x.x.x.x.x.x.x.x.x.x.",
"x.x.x.x.x.x.x.x.x.x.x.x.x.x.x.x.x.x.x.x.x.x.x.x.x.x.x.x.x.x.x.x.x.x.x.x.x.x.x.x.x.x.x.x.x.x.x.x.x.x.x.x.x.x.x.x.x.x.x.x.x.x.x.x.",
"x.x.x.x.x.x.x.x.x.x.x.x.x.x.x.x.x.x.x.x.x.x.x.x.x.x.x.x.x.x.x.x.x.x.x.x.x.x.x.x.x.x.x.x.x.x.x.x.x.x.x.x.x.x.x.x.x.x.x.x.x.x.x.x.",
"x.x.x.x.x.x.x.x.x.x.x.x.x.x.x.x.x.x.x.x.x.x.x.x.x.x.x.x.x.x.x.x.x.x.x.x.x.x.x.x.x.x.x.x.x.x.x.x.x.x.x.x.x.x.x.x.x.x.x.x.x.x.x.x.",
"x.x.x.x.x.x.x.x.x.x.x.x.x.x.x.x.x.x.x.x.x.x.x.x.x.x.x.x.x.x.x.x.x.x.x.x.x.x.x.x.x.x.x.x.x.x.x.x.x.x.x.x.x.x.x.x.x.x.x.x.x.x.x.x.",
"x.x.x.x.x.x.x.x.x.x.x.x.x.x.x.x.x.x.x.x.x.x.x.x.x.x.x.x.x.x.x.x.x.x.x.x.x.x.x.x.x.x.x.x.x.x.x.x.x.x.x.x.x.x.x.x.x.x.x.x.x.x.x.x.",
"x.x.x.x.x.x.x.x.x.x.x.x.x.x.x.x.x.x.x.x.x.x.x.x.x.x.x.x.x.x.x.x.x.x.x.x.x.x.x.x.x.x.x.x.x.x.x.x.x.x.x.x.x.x.x.x.x.x.x.x.x.x.x.x.",
"x.x.x.x.x.x.x.x.x.x.x.x.x.x.x.x.x.x.x.x.x.x.x.x.x.x.x.x.x.x.x.x.x.x.x.x.x.x.x.x.x.x.x.x.x.x.x.x.x.x.x.x.x.x.x.x.x.x.x.x.x.x.x.x.",
"x.x.x.x.x.x.x.x.x.x.x.x.x.x.x.x.x.x.x.x.x.x.x.x.x.x.x.x.x.x.x.x.x.x.x.x.x.x.x.x.x.x.x.x.x.x.x.x.x.x.x.x.x.x.x.x.x.x.x.x.x.x.x.x.",
"x.x.x.x.x.x.x.x.x.x.x.x.x.x.x.x.x.x.x.x.x.x.x.x.x.x.x.x.x.x.x.x.x.x.x.x.x.x.x.x.x.x.x.x.x.x.x.x.x.x.x.x.x.x.x.x.x.x.x.x.x.x.x.x.",
"x.x.x.x.x.x.x.x.x.x.x.x.x.x.x.x.x.x.x.x.x.x.x.x.x.x.x.x.x.x.x.x.x.x.x.x.x.x.x.x.x.x.x.x.x.x.x.x.x.x.x.x.x.x.x.x.x.x.x.x.x.x.x.x.",
"x.x.x.x.x.x.x.x.x.x.x.x.x.x.x.x.x.x.x.x.x.x.x.x.x.x.x.x.x.x.x.x.x.x.x.x.x.x.x.x.x.x.x.x.x.x.x.x.x.x.x.x.x.x.x.x.x.x.x.x.x.x.x.x.",
"x.x.x.x.x.x.x.x.x.x.x.x.x.x.x.x.x.x.x.x.x.x.x.x.x.x.x.x.x.x.x.x.x.x.x.x.x.x.x.x.x.x.x.x.x.x.x.x.x.x.x.x.x.x.x.x.x.x.x.x.x.x.x.x.",
"x.x.x.x.x.x.x.x.x.x.x.x.x.x.x.x.x.x.x.x.x.x.x.x.x.x.x.x.x.x.x.x.x.x.x.x.x.x.x.x.x.x.x.x.x.x.x.x.x.x.x.x.x.x.x.x.x.x.x.x.x.x.x.x.",
"x.x.x.x.x.x.x.x.x.x.x.x.x.x.x.x.x.x.x.x.x.x.x.x.x.x.x.x.x.x.x.x.x.x.x.x.x.x.x.x.x.x.x.x.x.x.x.x.x.x.x.x.x.x.x.x.x.x.x.x.x.x.x.x.",
"x.x.x.x.x.x.x.x.x.x.x.x.x.x.x.x.x.x.x.x.x.x.x.x.x.x.x.x.x.x.x.x.x.x.x.x.x.x.x.x.x.x.x.x.x.x.x.x.x.x.x.x.x.x.x.x.x.x.x.x.x.x.x.x.",
"x.x.x.x.x.x.x.x.x.x.x.x.x.x.x.x.x.x.x.x.x.x.x.x.x.x.x.x.x.x.x.x.x.x.x.x.x.x.x.x.x.x.x.x.x.x.x.x.x.x.x.x.x.x.x.x.x.x.x.x.x.x.x.x.",
"x.x.x.x.x.x.x.x.x.x.x.x.x.x.x.x.x.x.x.x.x.x.x.x.x.x.x.x.x.x.x.x.x.x.x.x.x.x.x.x.x.x.x.x.x.x.x.x.x.x.x.x.x.x.x.x.x.x.x.x.x.x.x.x.",
"x.x.x.x.x.x.x.x.x.x.x.x.x.x.x.x.x.x.x.x.x.x.x.x.x.x.x.x.s Z x.x.x.x.6 M x.x.x.x.x.x.x.x.x.x.x.x.x.x.x.x.x.x.x.x.x.x.x.x.x.x.x.x.",
"x.x.x.x.x.x.x.x.x.x.x.x.x.x.x.x.x.x.x.x.x.x.x.x.x.x.x.a a 9.s.2.,.#.t I E x.x.x.x.x.x.x.x.x.x.x.x.x.x.x.x.x.x.x.x.x.x.x.x.x.x.x.",
"x.x.x.x.x.x.x.x.x.x.x.x.x.x.x.x.x.x.x.x.x.x.x.x.x.x.x.7 z u.k.r.x.>.o.g Y x.x.x.x.x.x.x.x.x.x.x.x.x.x.x.x.x.x.x.x.x.x.x.x.x.x.x.",
"x.x.x.x.x.x.x.x.x.x.x.x.x.x.x.x.x.x.x.x.x.x.x.x.x.x.. q A 0.t.x.x.x.x.s U T x.x.x.x.x.x.x.x.x.x.x.x.x.x.x.x.x.x.x.x.x.x.x.x.x.x.",
"x.x.x.x.x.x.x.x.x.x.x.x.x.x.x.x.x.x.x.x.x.x.x.x.x.x.. j A i.2.x.x.x.b f U T x.x.x.x.x.x.x.x.x.x.x.x.x.x.x.x.x.x.x.x.x.x.x.x.x.x.",
"x.x.x.x.x.x.x.x.x.x.x.x.x.x.x.x.x.x.x.x.x.x.x.x.x.x.. 7 S i.g.q.#.>.B h U T x.x.x.x.x.x.x.x.x.x.x.x.x.x.x.x.x.x.x.x.x.x.x.x.x.x.",
"x.x.x.x.x.x.x.x.x.x.x.x.x.x.x.x.x.x.x.x.x.x.x.x.x.x.x.% j U 6.x.x.O.b Z U x.x.x.x.x.x.x.x.x.x.x.x.x.x.x.x.x.x.x.x.x.x.x.x.x.x.x.",
"x.x.x.x.x.x.x.x.x.x.x.x.x.x.x.x.x.x.x.x.x.x.x.x.x.x.x.o 3 k C g < d C P Y x.x.x.x.x.x.x.x.x.x.x.x.x.x.x.x.x.x.x.x.x.x.x.x.x.x.x.",
"x.x.x.x.x.x.x.x.x.x.x.x.x.x.x.x.x.x.x.x.x.x.x.x.x.x.x.x.% 3 l n c D P Y x.x.x.x.x.x.x.x.x.x.x.x.x.x.x.x.x.x.x.x.x.x.x.x.x.x.x.x.",
"x.x.x.x.x.x.x.x.x.x.x.x.x.x.x.x.x.x.x.x.x.x.x.x.x.x.x.x.O O % k S P I j x.x.x.x.x.x.x.x.x.x.x.x.x.x.x.x.x.x.x.x.x.x.x.x.x.x.x.x.",
"x.x.x.x.x.x.x.x.x.x.x.x.x.x.x.x.x.x.x.x.x.x.x.x.#.x.x.x.  @ 2 7 l G l q x.x.x.x.x.x.x.x.x.x.x.x.x.x.x.x.x.x.x.x.x.x.x.x.x.x.x.x.",
"x.x.x.x.x.x.x.x.x.x.x.x.x.x.x.x.x.x.x.x.x.x.x.#.,.1.x.# 3 6 3 6 > q l x q x.{ e.s.[ x.x.x.x.x.x.x.x.x.x.x.x.x.x.x.x.x.x.x.x.x.x.",
"x.x.x.x.x.x.x.x.x.x.x.x.x.x.x.x.x.x.x.x.x.x.x.p.j.j.x.$ 3 1 > X.3.6 q Z 5 x.x.x.x.x.x.x.x.x.x.x.x.x.x.x.x.x.x.x.x.x.x.x.x.x.x.x.",
"x.x.x.x.x.x.x.x.x.x.x.x.x.x.x.x.x.x.x.x.x.x.,.a.l.x.x.1 1 1 9 q.k.D 4 x 7 x.x.x.x.x.x.x.x.x.x.x.x.x.x.x.x.x.x.x.x.x.x.x.x.x.x.x.",
"x.x.x.x.x.x.x.x.x.x.x.x.x.x.x.x.x.x.x.x.x.x.w.x.x.x.3 1 1 , _ t.z.7.6 7 j q x.x.x.x.x.x.x.x.x.x.x.x.x.x.x.x.x.x.x.x.x.x.x.x.x.x.",
"x.x.x.x.x.x.x.x.x.x.x.x.x.x.x.x.x.x.x.x.x.x.x.x.x.x.2 % 1 6  . .r.<.z 5 , 5 x.x.x.x.x.x.x.x.x.x.x.x.x.x.x.x.x.x.x.x.x.x.x.x.x.x.",
"x.x.x.x.x.x.x.x.x.x.x.x.x.x.x.x.x.x.x.x.x.x.x.x.x.x.1 O 1 ; i  .#.X.d 3 / s x.x.x.x.x.x.x.x.x.x.x.x.x.x.x.x.x.x.x.x.x.x.x.x.x.x.",
"x.x.x.x.x.x.x.x.x.x.x.x.x.x.x.x.x.x.x.x.x.x.x.x.x.x.: - 3 1 8 ^ =.7 > V p.v x.x.x.x.x.x.x.x.x.x.x.x.x.x.x.x.x.x.x.x.x.x.x.x.x.x.",
"x.x.x.x.x.x.x.x.x.x.x.x.x.x.x.x.x.x.x.x.x.x.x.x.x.) ( +.8 9 - t t 7 k R d.c h.x.x.x.x.x.x.x.x.x.x.x.x.x.x.x.x.x.x.x.x.x.x.x.x.x.",
"x.x.x.x.x.x.x.x.x.x.x.x.x.x.x.x.x.x.x.x.x.x.x.x.>. .e 5.3 9 1 2 6 j S Z k a 8.k.x.x.x.x.x.x.x.x.x.x.x.x.x.x.x.x.x.x.x.x.x.x.x.x.",
"x.x.x.x.x.x.x.x.x.x.x.x.x.x.x.x.x.x.x.x.x.x.x.:.>.~ X @ 3 1 3 5 7 S Z S M > 4.l.j.x.x.x.x.x.x.x.x.x.x.x.x.x.x.x.x.x.x.x.x.x.x.x.",
"x.x.x.x.x.x.x.x.x.x.x.x.x.x.x.x.x.x.x.x.x.x.;.:.,.~ = 3 3 1 1 1 7 S x x x 5 m j.k.g.x.x.x.x.x.x.x.x.x.x.x.x.x.x.x.x.x.x.x.x.x.x.",
"x.x.x.x.x.x.x.x.x.x.x.x.x.x.x.x.x.x.x.x.x.x. . .-.& 2 3 2 3 3 6 @ x S G k 7 ; 8.r.:.x.x.x.x.x.x.x.x.x.x.x.x.x.x.x.x.x.x.x.x.x.x.",
"x.x.x.x.x.x.x.x.x.x.x.x.x.x.x.x.x.x.x.x.x.x.x. .Q + 3 1 5 3 2 b K z l Z q q , @.#.:.x.x.x.x.x.x.x.x.x.x.x.x.x.x.x.x.x.x.x.x.x.x.",
"x.x.x.x.x.x.x.x.x.x.x.x.x.x.x.x.x.x.x.x.x.x.x...r = 1 3 3 3 > &.k.L C j 7 q q j :.x.x.x.x.x.x.x.x.x.x.x.x.x.x.x.x.x.x.x.x.x.x.x.",
"x.x.x.x.x.x.x.x.x.x.x.x.x.x.x.x.x.x.x.x.x.x.x.W & : 3 3 1 = p >.j.u.Z j 7 q q , @.x.x.x.x.x.x.x.x.x.x.x.x.x.x.x.x.x.x.x.x.x.x.x.",
"x.x.x.x.x.x.x.x.x.x.x.x.x.x.x.x.x.x.x.x.x.x.x.2 1 1 3 3 1 : y  .,.*.h q q 7 q 7 s x.x.x.x.x.x.x.x.x.x.x.x.x.x.x.x.x.x.x.x.x.x.x.",
"x.x.x.x.x.x.x.x.x.x.x.x.x.x.x.x.x.x.x.x.x.x.a 7 2 3 3 3 2 1 6 / ] N k q s 7 s s a x.x.x.x.x.x.x.x.x.x.x.x.x.x.x.x.x.x.x.x.x.x.x.",
"x.x.x.x.x.x.x.x.x.x.x.x.x.x.x.x.x.x.x.x.x.x.7 5 7 3 3 2 3 3 3 5 b 6 s s s s s s 7 7 x.x.x.x.x.x.x.x.x.x.x.x.x.x.x.x.x.x.x.x.x.x.",
"x.x.x.x.x.x.x.x.x.x.x.x.x.x.x.x.x.x.x.x.x.q 3 3 3 3 5 1 3 2 7 3 7 j l s s 7 5 7 5 * 7 x.x.x.x.x.x.x.x.x.x.x.x.x.x.x.x.x.x.x.x.x.",
"x.x.x.x.x.x.x.x.x.x.x.x.x.x.x.x.x.x.x.x.s 7 1 7 3 5 3 5 3 * 7 7 x j s s s s 7 a 2 * 2 7 x.x.x.x.x.x.x.x.x.x.x.x.x.x.x.x.x.x.x.x.",
"x.x.x.x.x.x.x.x.x.x.x.x.x.x.x.x.x.x.x.s 7 2 3 2 2 3 2 3 1 6 q 7 Z 7 q q s a s 5 * * * 2 a x.x.x.x.x.x.x.x.x.x.x.x.x.x.x.x.x.x.x.",
"x.x.x.x.x.x.x.x.x.x.x.x.x.x.x.x.x.7 s 7 2 1 3 3 1 1 1 2 2 2 5 * 7 5 7 k s a s 5 * 2 * * * a a x.x.x.x.x.x.x.x.x.x.x.x.x.x.x.x.x.",
"x.x.x.x.x.x.x.x.x.x.x.x.x.x.x.x.x.a 4 * 2 2 7 3 3 3 1 1 3 : 4 @ . 3 j j k j s * * * * 4 * 2 5 x.x.x.x.x.x.x.x.x.x.x.x.x.x.x.x.x.",
"x.x.x.x.x.x.x.x.x.x.x.x.x.x.x.x.a 4 * 2 2 4 7 2 1 6 1 3 2 3 3 : O % 7 7 a a a * 4 * * * * * 2 a x.x.x.x.x.x.x.x.x.x.x.x.x.x.x.x.",
"x.x.x.x.x.x.x.x.x.x.x.x.x.x.x.x.7 * 2 * 2 7 3 2 2 3 3 2 * 5 4 % o % s s s s 4 * * * 2 2 * * 4 a x.x.x.x.x.x.x.x.x.x.x.x.x.x.x.x.",
"x.x.x.x.x.x.x.x.x.x.x.x.x.x.x.x.x.2 * * 2 4 4 2 1 1 3 2 * 7 * o o O 7 s s 7 2 * 2 * * * 4 * 4 x.x.x.x.x.x.x.x.x.x.x.x.x.x.x.x.x.",
"x.x.x.x.x.x.x.x.x.x.x.x.x.x.x.x.x.x.x.x.x.x.* 2 3 3 % 2 7 a @ o O o 3 s a 5 * * 2 * x.x.x.x.x.x.x.x.x.x.x.x.x.x.x.x.x.x.x.x.x.x.",
"x.x.x.x.x.x.x.x.x.x.x.x.x.x.x.x.x.x.x.x.x.x.x.x.x.x.3 * 4 a * o O o 3 s a 7 x.x.x.x.x.x.x.x.x.x.x.x.x.x.x.x.x.x.x.x.x.x.x.x.x.x.",
"x.x.x.x.x.x.x.x.x.x.x.x.x.x.x.x.x.x.x.x.x.x.x.x.x.x.x.x.x.2 * % O o % x.x.x.x.x.x.x.x.x.x.x.x.x.x.x.x.x.x.x.x.x.x.x.x.x.x.x.x.x.",
"x.x.x.x.x.x.x.x.x.x.x.x.x.x.x.x.x.x.x.x.x.x.x.x.x.x.x.x.x.O * O o O o x.x.x.x.x.x.x.x.x.x.x.x.x.x.x.x.x.x.x.x.x.x.x.x.x.x.x.x.x.",
"x.x.x.x.x.x.x.x.x.x.x.x.x.x.x.x.x.x.x.x.x.x.x.x.x.x.x.x.x.x.x.x.x.x.x.x.x.x.x.x.x.x.x.x.x.x.x.x.x.x.x.x.x.x.x.x.x.x.x.x.x.x.x.x.",
"x.x.x.x.x.x.x.x.x.x.x.x.x.x.x.x.x.x.x.x.x.x.x.x.x.x.x.x.x.x.x.x.x.x.x.x.x.x.x.x.x.x.x.x.x.x.x.x.x.x.x.x.x.x.x.x.x.x.x.x.x.x.x.x."
};
