/* XPM */
static char *result[] = {
/* columns rows colors chars-per-pixel */
"64 64 143 2 ",
"   c #12C111B6184B",
".  c #196E123F1E78",
"X  c #0A031F782C70",
"o  c #1D2116D42354",
"O  c #1E3F18AC25BC",
"+  c #10C91D85284C",
"@  c #1EED1C0D2A26",
"#  c #20AF16C1242A",
"$  c #220F1C8B2A7E",
"%  c #345E1C6229D2",
"&  c #21391F24330F",
"*  c #35A01D9A32AF",
"=  c #169B21252D4E",
"-  c #1BC222122F3B",
";  c #148B229C2FEB",
":  c #1CDC23733394",
">  c #1CF023EC37C4",
",  c #1E082AC33B5E",
"<  c #2444214E2E87",
"1  c #2422223D332B",
"2  c #2939258F357B",
"3  c #26E125463859",
"4  c #2A4326CE395E",
"5  c #25432AB83B7A",
"6  c #2CB72A263C96",
"7  c #34A821153594",
"8  c #3CD320E1345A",
"9  c #396E23023839",
"0  c #30FE2BF53E3D",
"q  c #3F122A203E93",
"w  c #54EF12C12F9D",
"e  c #53BF1DEF3F70",
"r  c #7A071B492B44",
"t  c #4AD829563D85",
"y  c #54D7283A3D3B",
"u  c #5F73295B3DE6",
"i  c #61C9240D35EE",
"p  c #78CC256D3B28",
"a  c #72A725413C6C",
"s  c #2E232D1D4073",
"d  c #30B52D9440B0",
"f  c #38142C214145",
"g  c #265A34F14402",
"h  c #2A70315842AA",
"j  c #2BFE36664902",
"k  c #2E91397148D8",
"l  c #3341321543DF",
"z  c #374536D048F6",
"x  c #391C37894A51",
"c  c #34BC3B354C53",
"v  c #3BE93C794DC4",
"b  c #3E193F025104",
"n  c #79841693468D",
"m  c #776E1A024632",
"M  c #4FA526FA43CE",
"N  c #4A363279442B",
"B  c #40523C404E33",
"V  c #4EB13AD84B6F",
"C  c #5E803096448B",
"Z  c #52FB364350E5",
"A  c #59A137B4518A",
"S  c #574B3BD34FD5",
"D  c #6261382E4EA4",
"F  c #36DA406E51DC",
"G  c #3D3A423A5305",
"H  c #3E4D4BB35C76",
"J  c #4208456B562E",
"K  c #48DD42795387",
"L  c #439E470557F6",
"P  c #42DE4A605AA6",
"I  c #487B4BB75EF1",
"U  c #7C2D4DF45878",
"Y  c #68C853435EDC",
"T  c #4C204EF8643E",
"R  c #4DC8510E6578",
"E  c #519F537D69BB",
"W  c #56C75A47724B",
"Q  c #5B3E5F4179A6",
"!  c #5C69608D7A70",
"~  c #8E3C1BD82E4E",
"^  c #952B0CB93E86",
"/  c #98500BA83EE3",
"(  c #8FC61D7030FB",
")  c #951A1D9A3413",
"_  c #9AC111CE3F3A",
"`  c #9C731C153AB3",
"'  c #A4D313273DA6",
"]  c #AA5C152F3C83",
"[  c #A4181C213ADA",
"{  c #BF851F2D370B",
"}  c #B64A11A63A64",
"|  c #B45D18093BB0",
" . c #B9E21A1D3B08",
".. c #8B0C236A379B",
"X. c #A09C22883F34",
"o. c #AECA21E83D45",
"O. c #C4151CE63980",
"+. c #CB491DD738B2",
"@. c #D6661D9E364B",
"#. c #DAF91F32388E",
"$. c #E4531D4538B2",
"%. c #FFFF17DE3E33",
"&. c #C54121FA3B17",
"*. c #C948216838F2",
"=. c #D25E21B93762",
"-. c #D5A4209B3996",
";. c #D970206F3A7E",
":. c #E0AE21213AD0",
">. c #842209A241F6",
",. c #8F190C7340A8",
"<. c #8AB911FE41DF",
"1. c #85071B5F43BF",
"2. c #A954086E4096",
"3. c #82532D2344B2",
"4. c #9A3823524135",
"5. c #968E2D1343B1",
"6. c #AB00263A42CD",
"7. c #FFFF1DBF4351",
"8. c #D18D228140B3",
"9. c #DE3B29FD419C",
"0. c #D5BD2A9A48EF",
"q. c #C56C32774F81",
"w. c #E71024CD4495",
"e. c #EF64216A4284",
"r. c #F6A621AE429F",
"t. c #FBEE221B452C",
"y. c #FFFF23C84863",
"u. c #FFFF2B3A4942",
"i. c #E76539E95591",
"p. c #84CB4E8C5AF8",
"a. c #9CB95FCC687E",
"s. c #A9D66B187335",
"d. c #BB9D6CB273AB",
"f. c #FFFF49666050",
"g. c #FFFF556F68EA",
"h. c #FFFF58BD69C3",
"j. c #D7F0699E73B4",
"k. c #FF7E79D480D4",
"l. c #E7C082198480",
"z. c #FD9C8DBC8E47",
"x. c #FF5693A79315",
"c. c #FFFFA58C9E96",
"v. c None",
/* pixels */
"v.v.v.v.v.v.v.v.v.v.v.v.v.v.v.v.v.v.v.v.v.v.v.v.v.v.v.v.v.v.v.v.v.v.v.v.v.v.v.v.v.v.v.v.v.v.v.v.v.v.v.v.v.v.v.v.v.v.v.v.v.v.v.v.",
"v.v.v.v.v.v.v.v.v.v.v.v.v.v.v.v.v.v.v.v.v.v.v.v.v.v.v.v.v.v.v.v.v.v.v.v.v.v.v.v.v.v.v.v.v.v.v.v.v.v.v.v.v.v.v.v.v.v.v.v.v.v.v.v.",
"v.v.v.v.v.v.v.v.v.v.v.v.v.v.v.v.v.v.v.v.v.v.v.v.v.v.v.v.v.v.v.v.v.v.v.v.v.v.v.v.v.v.v.v.v.v.v.v.v.v.v.v.v.v.v.v.v.v.v.v.v.v.v.v.",
"v.v.v.v.v.v.v.v.v.v.v.v.v.v.v.v.v.v.v.v.v.v.v.v.v.v.v.v.v.v.v.v.v.v.v.v.v.v.v.v.v.v.v.v.v.v.v.v.v.v.v.v.v.v.v.v.v.v.v.v.v.v.v.v.",
"v.v.v.v.v.v.v.v.v.v.v.v.v.v.v.v.v.v.v.v.v.v.v.v.v.v.v.v.v.v.v.v.v.v.v.v.v.v.v.v.v.v.v.v.v.v.v.v.v.v.v.v.v.v.v.v.v.v.v.v.v.v.v.v.",
"v.v.v.v.v.v.v.v.v.v.v.v.v.v.v.v.v.v.v.v.v.v.v.v.v.v.v.v.v.v.v.v.v.v.v.v.v.v.v.v.v.v.v.v.v.v.v.v.v.v.v.v.v.v.v.v.v.v.v.v.v.v.v.v.",
"v.v.v.v.v.v.v.v.v.v.v.v.v.v.v.v.v.v.v.v.v.v.v.v.v.v.v.v.v.v.v.v.v.v.v.v.v.v.v.v.v.v.v.v.v.v.v.v.v.v.v.v.v.v.v.v.v.v.v.v.v.v.v.v.",
"v.v.v.v.v.v.v.v.v.v.v.v.v.v.v.v.v.v.v.v.v.v.v.v.v.v.v.v.v.v.v.v.v.v.v.v.v.v.v.v.v.v.v.v.v.v.v.v.v.v.v.v.v.v.v.v.v.v.v.v.v.v.v.v.",
"v.v.v.v.v.v.v.v.v.v.v.v.v.v.v.v.v.v.v.v.v.v.v.v.v.v.v.v.v.v.v.v.v.v.v.v.v.v.v.v.v.v.v.v.v.v.v.v.v.v.v.v.v.v.v.v.v.v.v.v.v.v.v.v.",
"v.v.v.v.v.v.v.v.v.v.v.v.v.v.v.v.v.v.v.v.v.v.v.v.v.v.v.v.v.v.v.v.v.v.v.v.v.v.v.v.v.v.v.v.v.v.v.v.v.v.v.v.v.v.v.v.v.v.v.v.v.v.v.v.",
"v.v.v.v.v.v.v.v.v.v.v.v.v.v.v.v.v.v.v.v.v.v.v.v.v.v.v.v.v.v.v.v.v.v.v.v.v.v.v.v.v.v.v.v.v.v.v.v.v.v.v.v.v.v.v.v.v.v.v.v.v.v.v.v.",
"v.v.v.v.v.v.v.v.v.v.v.v.v.v.v.v.v.v.v.v.v.v.v.v.v.v.v.v.v.v.v.v.v.v.v.v.v.v.v.v.v.v.v.v.v.v.v.v.v.v.v.v.v.v.v.v.v.v.v.v.v.v.v.v.",
"v.v.v.v.v.v.v.v.v.v.v.v.v.v.v.v.v.v.v.v.v.v.v.v.v.v.v.v.v.v.v.v.v.v.v.v.v.v.v.v.v.v.v.v.v.v.v.v.v.v.v.v.v.v.v.v.v.v.v.v.v.v.v.v.",
"v.v.v.v.v.v.v.v.v.v.v.v.v.v.v.v.v.v.v.v.v.v.v.v.v.v.v.v.v.v.v.v.v.v.v.v.v.v.v.v.v.v.v.v.v.v.v.v.v.v.v.v.v.v.v.v.v.v.v.v.v.v.v.v.",
"v.v.v.v.v.v.v.v.v.v.v.v.v.v.v.v.v.v.v.v.v.v.v.v.v.v.v.v.v.v.v.v.v.v.v.v.v.v.v.v.v.v.v.v.v.v.v.v.v.v.v.v.v.v.v.v.v.v.v.v.v.v.v.v.",
"v.v.v.v.v.v.v.v.v.v.v.v.v.v.v.v.v.v.v.v.v.v.v.v.v.v.v.v.v.v.v.v.v.v.v.v.v.v.v.v.v.v.v.v.v.v.v.v.v.v.v.v.v.v.v.v.v.v.v.v.v.v.v.v.",
"v.v.v.v.v.v.v.v.v.v.v.v.v.v.v.v.v.v.v.v.v.v.v.v.v.v.v.v.v.v.v.v.v.v.v.v.v.v.v.v.v.v.v.v.v.v.v.v.v.v.v.v.v.v.v.v.v.v.v.v.v.v.v.v.",
"v.v.v.v.v.v.v.v.v.v.v.v.v.v.v.v.v.v.v.v.v.v.v.v.v.v.v.v.v.v.v.v.v.v.v.v.v.v.v.v.v.v.v.v.v.v.v.v.v.v.v.v.v.v.v.v.v.v.v.v.v.v.v.v.",
"v.v.v.v.v.v.v.v.v.v.v.v.v.v.v.v.v.v.v.v.v.v.v.v.v.v.v.v.v.v.v.v.v.v.v.v.v.v.v.v.v.v.v.v.v.v.v.v.v.v.v.v.v.v.v.v.v.v.v.v.v.v.v.v.",
"v.v.v.v.v.v.v.v.v.v.v.v.v.v.v.v.v.v.v.v.v.v.v.v.v.v.v.v.v.v.v.v.v.v.v.v.v.v.v.v.v.v.v.v.v.v.v.v.v.v.v.v.v.v.v.v.v.v.v.v.v.v.v.v.",
"v.v.v.v.v.v.v.v.v.v.v.v.v.v.v.v.v.v.v.v.v.v.v.v.v.v.v.v.v.v.v.v.v.v.v.v.v.v.v.v.v.v.v.v.v.v.v.v.v.v.v.v.v.v.v.v.v.v.v.v.v.v.v.v.",
"v.v.v.v.v.v.v.v.v.v.v.v.v.v.v.v.v.v.v.v.v.v.v.v.v.v.v.v.d G v.v.v.v.6 b v.v.v.v.v.v.v.v.v.v.v.v.v.v.v.v.v.v.v.v.v.v.v.v.v.v.v.v.",
"v.v.v.v.v.v.v.v.v.v.v.v.v.v.v.v.v.v.v.v.v.v.v.v.v.v.v.s l Z _ O.+.*.0 T ! v.v.v.v.v.v.v.v.v.v.v.v.v.v.v.v.v.v.v.v.v.v.v.v.v.v.v.",
"v.v.v.v.v.v.v.v.v.v.v.v.v.v.v.v.v.v.v.v.v.v.v.v.v.v.v.4 G m /  .O.#.p j W v.v.v.v.v.v.v.v.v.v.v.v.v.v.v.v.v.v.v.v.v.v.v.v.v.v.v.",
"v.v.v.v.v.v.v.v.v.v.v.v.v.v.v.v.v.v.v.v.v.v.v.v.v.v.. 0 H 4.^ v.v.#.v.h R ! v.v.v.v.v.v.v.v.v.v.v.v.v.v.v.v.v.v.v.v.v.v.v.v.v.v.",
"v.v.v.v.v.v.v.v.v.v.v.v.v.v.v.v.v.v.v.v.v.v.v.v.v.v.. l H 1.+.v.v.v.v.l R ! v.v.v.v.v.v.v.v.v.v.v.v.v.v.v.v.v.v.v.v.v.v.v.v.v.v.",
"v.v.v.v.v.v.v.v.v.v.v.v.v.v.v.v.v.v.v.v.v.v.v.v.v.v.. 2 P m } ] v.:.i k T ! v.v.v.v.v.v.v.v.v.v.v.v.v.v.v.v.v.v.v.v.v.v.v.v.v.v.",
"v.v.v.v.v.v.v.v.v.v.v.v.v.v.v.v.v.v.v.v.v.v.v.v.v.v.v.$ c A <.&.*.O.C H E v.v.v.v.v.v.v.v.v.v.v.v.v.v.v.v.v.v.v.v.v.v.v.v.v.v.v.",
"v.v.v.v.v.v.v.v.v.v.v.v.v.v.v.v.v.v.v.v.v.v.v.v.v.v.v.o 2 z L z 6 l G T W v.v.v.v.v.v.v.v.v.v.v.v.v.v.v.v.v.v.v.v.v.v.v.v.v.v.v.",
"v.v.v.v.v.v.v.v.v.v.v.v.v.v.v.v.v.v.v.v.v.v.v.v.v.v.v.v.$ 2 z b b J T W v.v.v.v.v.v.v.v.v.v.v.v.v.v.v.v.v.v.v.v.v.v.v.v.v.v.v.v.",
"v.v.v.v.v.v.v.v.v.v.v.v.v.v.v.v.v.v.v.v.v.v.v.v.v.v.v.v.@ O $ z J T T l v.v.v.v.v.v.v.v.v.v.v.v.v.v.v.v.v.v.v.v.v.v.v.v.v.v.v.v.",
"v.v.v.v.v.v.v.v.v.v.v.v.v.v.v.v.v.v.v.v.v.v.v.v.v.v.v.v.  O 1 0 z L v 6 v.v.v.v.v.v.v.v.v.v.v.v.v.v.v.v.v.v.v.v.v.v.v.v.v.v.v.v.",
"v.v.v.v.v.v.v.v.v.v.v.v.v.v.v.v.v.v.v.v.v.v.v.>.^ ^ v.# 2 4 < , > d x v 0 v.>.'  .>.v.v.v.v.v.v.v.v.v.v.v.v.v.v.v.v.v.v.v.v.v.v.",
"v.v.v.v.v.v.v.v.v.v.v.v.v.v.v.v.v.v.v.v.v.v.v.| &.*.v.# < < 5 3.p.5 0 b 4 v.v.' O.v.v.v.v.v.v.v.v.v.v.v.v.v.v.v.v.v.v.v.v.v.v.v.",
"v.v.v.v.v.v.v.v.v.v.v.v.v.v.v.v.v.v.v.v.v.v.>.O.=.v.v.< < < 9 f.x.K 3 v 6 v.v.v.v.v.v.v.v.v.v.v.v.v.v.v.v.v.v.v.v.v.v.v.v.v.v.v.",
"v.v.v.v.v.v.v.v.v.v.v.v.v.v.v.v.v.v.v.v.v.v._ v.v.v.1 2 < , X.h.c.s.5 6 l 6 v.v.v.v.v.v.v.v.v.v.v.v.v.v.v.v.v.v.v.v.v.v.v.v.v.v.",
"v.v.v.v.v.v.v.v.v.v.v.v.v.v.v.v.v.v.v.v.v.v.v.v.v.v.1 O < 5 =.;.h.i.c 0 5 4 v.v.v.v.v.v.v.v.v.v.v.v.v.v.v.v.v.v.v.v.v.v.v.v.v.v.",
"v.v.v.v.v.v.v.v.v.v.v.v.v.v.v.v.v.v.v.v.v.v.v.v.v.v.1 O < = i =.%.3.g 2 M 0 v.v.v.v.v.v.v.v.v.v.v.v.v.v.v.v.v.v.v.v.v.v.v.v.v.v.",
"v.v.v.v.v.v.v.v.v.v.v.v.v.v.v.v.v.v.v.v.v.v.v.v.v.v.1 2 2 < < &.w.6 5 M 2.f v.v.v.v.v.v.v.v.v.v.v.v.v.v.v.v.v.v.v.v.v.v.v.v.v.v.",
"v.v.v.v.v.v.v.v.v.v.v.v.v.v.v.v.v.v.v.v.v.v.v.v.v.o.* 2 2 1 - t M 5 c D 5.B l.v.v.v.v.v.v.v.v.v.v.v.v.v.v.v.v.v.v.v.v.v.v.v.v.v.",
"v.v.v.v.v.v.v.v.v.v.v.v.v.v.v.v.v.v.v.v.v.v.v.v.y.;.w ` 2 * 1 1 5 l J J v h d.x.v.v.v.v.v.v.v.v.v.v.v.v.v.v.v.v.v.v.v.v.v.v.v.v.",
"v.v.v.v.v.v.v.v.v.v.v.v.v.v.v.v.v.v.v.v.v.v.v.t.u.) X 8 2 1 1 4 6 J J G v > a.x.z.v.v.v.v.v.v.v.v.v.v.v.v.v.v.v.v.v.v.v.v.v.v.v.",
"v.v.v.v.v.v.v.v.v.v.v.v.v.v.v.v.v.v.v.v.v.v.r.t.u.) = 1 2 1 < < 6 G v v b 6 V z.x.k.v.v.v.v.v.v.v.v.v.v.v.v.v.v.v.v.v.v.v.v.v.v.",
"v.v.v.v.v.v.v.v.v.v.v.v.v.v.v.v.v.v.v.v.v.v.=.-.:.% < 2 < 2 4 3 @ v J J l 6 : d.g.y.v.v.v.v.v.v.v.v.v.v.v.v.v.v.v.v.v.v.v.v.v.v.",
"v.v.v.v.v.v.v.v.v.v.v.v.v.v.v.v.v.v.v.v.v.v.v.-.( = 2 1 2 4 5 t U c v v 0 0 , X.7.t.v.v.v.v.v.v.v.v.v.v.v.v.v.v.v.v.v.v.v.v.v.v.",
"v.v.v.v.v.v.v.v.v.v.v.v.v.v.v.v.v.v.v.v.v.v.v.:.r = 1 < 2 1 : 0.x.Y F l 6 0 5 q t.v.v.v.v.v.v.v.v.v.v.v.v.v.v.v.v.v.v.v.v.v.v.v.",
"v.v.v.v.v.v.v.v.v.v.v.v.v.v.v.v.v.v.v.v.v.v.v.~ % - 2 1 < - a u.z.j.G l 0 d d g 6.v.v.v.v.v.v.v.v.v.v.v.v.v.v.v.v.v.v.v.v.v.v.v.",
"v.v.v.v.v.v.v.v.v.v.v.v.v.v.v.v.v.v.v.v.v.v.v.1 < < 2 2 1 : y ;.u.q.k d 6 6 d 6 6 v.v.v.v.v.v.v.v.v.v.v.v.v.v.v.v.v.v.v.v.v.v.v.",
"v.v.v.v.v.v.v.v.v.v.v.v.v.v.v.v.v.v.v.v.v.v.d 6 1 2 1 2 < 1 5 ..$.S c d d 6 d d s v.v.v.v.v.v.v.v.v.v.v.v.v.v.v.v.v.v.v.v.v.v.v.",
"v.v.v.v.v.v.v.v.v.v.v.v.v.v.v.v.v.v.v.v.v.v.s 4 4 2 4 1 1 4 3 4 N 5 d d d 6 s f 6 6 v.v.v.v.v.v.v.v.v.v.v.v.v.v.v.v.v.v.v.v.v.v.",
"v.v.v.v.v.v.v.v.v.v.v.v.v.v.v.v.v.v.v.v.v.s 2 2 2 2 6 < 2 1 6 6 6 l l d d s 4 6 4 & 6 v.v.v.v.v.v.v.v.v.v.v.v.v.v.v.v.v.v.v.v.v.",
"v.v.v.v.v.v.v.v.v.v.v.v.v.v.v.v.v.v.v.v.d 6 < 4 2 2 2 4 1 1 6 6 v l d d d d s s 1 & 1 6 v.v.v.v.v.v.v.v.v.v.v.v.v.v.v.v.v.v.v.v.",
"v.v.v.v.v.v.v.v.v.v.v.v.v.v.v.v.v.v.v.d 6 < 2 1 2 2 < 2 2 < 6 6 J 4 0 l d s s 4 & 1 & 1 6 v.v.v.v.v.v.v.v.v.v.v.v.v.v.v.v.v.v.v.",
"v.v.v.v.v.v.v.v.v.v.v.v.v.v.v.v.v.s d 6 1 < 4 4 < < < 2 1 1 2 1 4 4 6 z d s s 4 & & & & & s s v.v.v.v.v.v.v.v.v.v.v.v.v.v.v.v.v.",
"v.v.v.v.v.v.v.v.v.v.v.v.v.v.v.v.v.s 1 & 1 1 6 1 1 2 < 1 2 1 3 @ . 1 l h z l s & & & & 3 & & s v.v.v.v.v.v.v.v.v.v.v.v.v.v.v.v.v.",
"v.v.v.v.v.v.v.v.v.v.v.v.v.v.v.v.s 3 & 1 1 4 6 2 1 5 < 1 1 5 1 : # $ 0 0 s s s & 3 & & & & & & s v.v.v.v.v.v.v.v.v.v.v.v.v.v.v.v.",
"v.v.v.v.v.v.v.v.v.v.v.v.v.v.v.v.6 1 1 1 & 6 1 1 1 2 2 1 & 6 3 $ o $ s d d d 3 & & & 1 3 & & 3 s v.v.v.v.v.v.v.v.v.v.v.v.v.v.v.v.",
"v.v.v.v.v.v.v.v.v.v.v.v.v.v.v.v.v.1 & & 1 3 1 3 < < 2 1 & s & o O O 6 d d 6 & 1 1 & & & & & 3 v.v.v.v.v.v.v.v.v.v.v.v.v.v.v.v.v.",
"v.v.v.v.v.v.v.v.v.v.v.v.v.v.v.v.v.v.v.v.v.v.& 1 1 2 < 1 6 6 @ o O o 2 d s 6 & 1 1 & v.v.v.v.v.v.v.v.v.v.v.v.v.v.v.v.v.v.v.v.v.v.",
"v.v.v.v.v.v.v.v.v.v.v.v.v.v.v.v.v.v.v.v.v.v.v.v.v.v.1 & 3 6 & O O o 2 d s 6 v.v.v.v.v.v.v.v.v.v.v.v.v.v.v.v.v.v.v.v.v.v.v.v.v.v.",
"v.v.v.v.v.v.v.v.v.v.v.v.v.v.v.v.v.v.v.v.v.v.v.v.v.v.v.v.v.1 & O O o $ v.v.v.v.v.v.v.v.v.v.v.v.v.v.v.v.v.v.v.v.v.v.v.v.v.v.v.v.v.",
"v.v.v.v.v.v.v.v.v.v.v.v.v.v.v.v.v.v.v.v.v.v.v.v.v.v.v.v.v.O & O o O o v.v.v.v.v.v.v.v.v.v.v.v.v.v.v.v.v.v.v.v.v.v.v.v.v.v.v.v.v.",
"v.v.v.v.v.v.v.v.v.v.v.v.v.v.v.v.v.v.v.v.v.v.v.v.v.v.v.v.v.v.v.v.v.v.v.v.v.v.v.v.v.v.v.v.v.v.v.v.v.v.v.v.v.v.v.v.v.v.v.v.v.v.v.v.",
"v.v.v.v.v.v.v.v.v.v.v.v.v.v.v.v.v.v.v.v.v.v.v.v.v.v.v.v.v.v.v.v.v.v.v.v.v.v.v.v.v.v.v.v.v.v.v.v.v.v.v.v.v.v.v.v.v.v.v.v.v.v.v.v."
};
