/* XPM */
static char * Grass_xpm[] = {
"64 64 38 1",
" 	c #72751B",
".	c #7F8226",
"+	c #787B21",
"@	c #656C17",
"#	c #563915",
"$	c #6B5631",
"%	c #6E5935",
"&	c #888930",
"*	c #6A552E",
"=	c #B9B4AC",
"-	c #664F27",
";	c #644E25",
">	c #A9854E",
",	c #A8854F",
"'	c #644D24",
")	c #5B4216",
"!	c #72751E",
"~	c #614E19",
"{	c #64551A",
"]	c #64541A",
"^	c #64551B",
"/	c #5F4C17",
"(	c #645619",
"_	c #695E1B",
":	c #5E4818",
"<	c #7F8124",
"[	c #686F16",
"}	c #66571B",
"|	c #63501A",
"1	c #777A20",
"2	c #563815",
"3	c #583C16",
"4	c #593F16",
"5	c #593E16",
"6	c #543414",
"7	c #604D19",
"8	c #635219",
"9	c #65571A",
"                                                                ",
"                                                                ",
"                                                                ",
"                                                                ",
"                                                                ",
"                                        .                       ",
"                                   ..+  ++                      ",
"                                    .++ @+  .                   ",
"                                    @+++@ ++@                   ",
"                                   .+@++  ++@                   ",
"                    #              @++@+  @@                    ",
"                   #+#            $%@+@@                        ",
"                  #&#            *==-                           ",
"           #     #&#            ;=>,='                          ",
"          #+##  #++#             )==)!                          ",
"           #&&# #+#               ))                  #         ",
"            #&+#++~                                 ##+#        ",
"             {++{+~                                #&+#         ",
"             ]++^                                 #&&# #        ",
"                                             #    #&# #+#       ",
"                                            #+## #++##&#        ",
"                                             #&&##++/&&/        ",
"                    ..                        /++/++(++_        ",
"                     .++   ..                 (++(              ",
"                     @++  +.                                    ",
"                      @@ +++                                    ",
"                         ++@                                    ",
"                         @@                                     ",
"                                                                ",
"                                                                ",
"                                                                ",
"                                                                ",
"                            +.                                  ",
"                             ..                                 ",
"                             +++                                ",
"                             @++@++..                           ",
"                              @@+++                             ",
"                                ++@                             ",
"  +.    ++               #      +@                              ",
"   ..  ++               #+#                                     ",
"   @++ ++              #&#                                      ",
"   @++ @@         #    #&#                                      ",
"    @@           #+#  #&&#                .                    +",
"                  #&# #++:               .                  <  +",
"                   #&##++:              ++                   <+[",
"                   #&&#++}              ++@                 [++ ",
"                   |++:                 @@+.                 [+ ",
"                   _1+}                   ++                  [ ",
"                                          @@                    ",
"                                                      2         ",
"                     ..     .                        3+#        ",
"           $%         .++ +.                          #&4       ",
"          *==-     +..@+@++@                       566&&4       ",
"         ;=>,='     .++@@++@                      2+&&4++7      ",
"          )==)!     @++  +@                        44&+8+7      ",
"           ))        @+                              9+]+7      ",
"                                                     9+]        ",
"                                                      [[        ",
"                                                                ",
"                                                                ",
"                                                                ",
"                                                                ",
"                                                                ",
"                                                                "};
