/* XPM */
static char *result[] = {
/* columns rows colors chars-per-pixel */
"32 48 7 1 ",
"  c #181923",
". c #292D41",
"X c #38405D",
"o c #6F687A",
"O c #B59E90",
"+ c #D8D4AA",
"@ c None",
/* pixels */
"@@@@@@@@@@@@@@@@@@@@@@@@@@@@@@@@",
"@@@@@@@@@@@@@@@@@@@@@@@@@@@@@@@@",
"@@@@@@@@@@@@@@@@@@@@@@@@@@@@@@@@",
"@@@@@@@@@@@@@@@@@@@@@@@@@@@@@@@@",
"@@@@@@@@@@@@@@@@@@@@@@@@@@@@@@@@",
"@@@@@@@@@@@@@@@@@@@@@@@@@@@@@@@@",
"@@@@@@@@@@@@@@@@@@@@@@@@@@@@@@@@",
"@@@@@@@@@@@@@@@@@@@@@@@@@@@@@@@@",
"@@@@@@@@@@@@@@@@@@@@@@@@@@@@@@@@",
"@@@@@@@@@@@@@@@@@@@@@@@@@@@@@@@@",
"@@@@@@@@@@@@@@@@@@@@@@@@@@@@@@@@",
"@@@@@@@@@@@@...@@.@@@@@@@@@@@@@@",
"@@@@@@@@@@@.ooo..o.@@@@@@@@@@@@@",
"@@@@@@@@@@.ooo...o.@@@@@@@@@@@@@",
"@@@@@@@@@@.ooooooo...@@@@@@@@@@@",
"@@@@@@@@...ooooooo.oo.@@@@@@@@@@",
"@@@@@@@.ooo.oOOOOooo.@@@@@@@@@@@",
"@@@@@@@@..ooOOOOOOo....@@@@@@@@@",
"@@@@@@@@@@.oO+OO+Oooo.@@@@@@@@@@",
"@@@@@@@@@@.oO+OO+Oo..@@@@@@@@@@@",
"@@@@@@@@@.oooOOOOooo.@@@@@@@@@@@",
"@@@@@@@@.oo.ooooooo.@@@@@@@@@@@@",
"@@@@@@@@@...ooOOOoo.@@@@@@@@@@@@",
"@@@@@@@@@@@@.ooooo.@@@@@@@@@@@@@",
"@@@@@@@@@@@@.ooooo.@@@@@@@@@@@@@",
"@@@@@@@@@@  .ooooo.  @@@@@@@@@@@",
"@@@@@@@@@ XX .ooo. XX @@@@@@@@@@",
"@@@@@@@@ XXX .ooo. XXX @@@@@@@@@",
"@@@@@@@@ XXXX .o. XXXX @@@@@@@@@",
"@@@@@@@@ XX.XX.o.XX.XX @@@@@@@@@",
"@@@@@@@@ XX.XX...XX.XX @@@@@@@@@",
"@@@@@@@@ XX.XXX XXX.XX @@@@@@@@@",
"@@@@@@@@ XX.XXX XXX.XX @@@@@@@@@",
"@@@@@@@@ XX.XXX XXX.XX @@@@@@@@@",
"@@@@@@@@ XX.XXX XXX.XX @@@@@@@@@",
"@@@@@@@@ XX.XXX XXX.XX @@@@@@@@@",
"@@@@@@@@ XX.XXX XXX.XX @@@@@@@@@",
"@@@@@@@@ XX.XXX XXX.XX @@@@@@@@@",
"@@@@@@@@ X.XXXX XXXX.X @@@@@@@@@",
"@@@@@@@@@  XXX   XXX  @@@@@@@@@@",
"@@@@@@@@@@ XXX   XXX @@@@@@@@@@@",
"@@@@@@@@@@ XXX   XXX @@@@@@@@@@@",
"@@@@@@@@@@ XX    XXX @@@@@@@@@@@",
"@@@@@@@@@@  X     XX @@@@@@@@@@@",
"@@@@@@@@@@           @@@@@@@@@@@",
"@@@@@@@@@@@         @@@@@@@@@@@@",
"@@@@@@@@@@@@@@@@@@@@@@@@@@@@@@@@",
"@@@@@@@@@@@@@@@@@@@@@@@@@@@@@@@@"
};
