/* XPM */
static char *result[] = {
/* columns rows colors chars-per-pixel */
"32 48 7 1 ",
"  c #181923",
". c #292D41",
"X c #38405D",
"o c #6F687A",
"O c #B59E90",
"+ c #D8D4AA",
"@ c None",
/* pixels */
"@@@@@@@@@@@@@@@@@@@@@@@@@@@@@@@@",
"@@@@@@@@@@@@@@@@@@@@@@@@@@@@@@@@",
"@@@@@@@@@@@@@@@@@@@@@@@@@@@@@@@@",
"@@@@@@@@@@@@@@@@@@@@@@@@@@@@@@@@",
"@@@@@@@@@@@@@@@@@@@@@@@@@@@@@@@@",
"@@@@@@@@@@@@@@@@@@@@@@@@@@@@@@@@",
"@@@@@@@@@@@@@@@@@@@@@@@@@@@@@@@@",
"@@@@@@@@@@@@@@@@@@@@@@@@@@@@@@@@",
"@@@@@@@@@@@@@@@@@@@@@@@@@@@@@@@@",
"@@@@@@@@@@@@@@@@@@@@@@@@@@@@@@@@",
"@@@@@@@@@@@@@@@@@@@@@@@@@@@@@@@@",
"@@@@@@@@@@@@@@@@@@@@@@@@@@@@@@@@",
"@@@@@@@@@@@@...@@.@@@@@@@@@@@@@@",
"@@@@@@@@@@@.ooo..o.@@@@@@@@@@@@@",
"@@@@@@@@@@.ooo...o.@@@@@@@@@@@@@",
"@@@@@@@@@@.ooooooo...@@@@@@@@@@@",
"@@@@@@@@...ooooooo.oo.@@@@@@@@@@",
"@@@@@@@.ooo.oOOOOooo.@@@@@@@@@@@",
"@@@@@@@@..ooOOOOOOo....@@@@@@@@@",
"@@@@@@@@@@.oO+OO+Oooo.@@@@@@@@@@",
"@@@@@@@@@@.oO+OO+Oo..@@@@@@@@@@@",
"@@@@@@@@@.oooOOOOooo.@@@@@@@@@@@",
"@@@@@@@@.oo.ooooooo.@@@@@@@@@@@@",
"@@@@@@@@@...ooOOOoo.@@@@@@@@@@@@",
"@@@@@@@@@@@@.ooooo.@@@@@@@@@@@@@",
"@@@@@@@@@@@@.ooooo.@@@@@@@@@@@@@",
"@@@@@@@@@@@@.ooooo.@@@@@@@@@@@@@",
"@@@@@@@@@    .ooo.    @@@@@@@@@@",
"@@@@@@@@ XXXX.ooo.XXXX @@@@@@@@@",
"@@@@@@@@ XXXXX.o.XXXXXX @@@@@@@@",
"@@@@@@@@ X.XXX.o.XXX.XX @@@@@@@@",
"@@@@@@@ XX.XXX...XXX.XX @@@@@@@@",
"@@@@@@@ XX.XXXX XXXX.XX @@@@@@@@",
"@@@@@@@ XX.XXXX XXXX.XX @@@@@@@@",
"@@@@@@@ XX.XXXX XXX.XXX @@@@@@@@",
"@@@@@@@ XX.XXXX XX.XXXX @@@@@@@@",
"@@@@@@@@ X.XXXX X.XXXX @@@@@@@@@",
"@@@@@@@@   XXX  X.XXX @@@@@@@@@@",
"@@@@@@@@@@ XXX  XX.. @@@@@@@@@@@",
"@@@@@@@@@@ XXX  XXXX @@@@@@@@@@@",
"@@@@@@@@@@ XX   XXXX @@@@@@@@@@@",
"@@@@@@@@@@ XX    XXX @@@@@@@@@@@",
"@@@@@@@@@@ X     XXX @@@@@@@@@@@",
"@@@@@@@@@@        XX @@@@@@@@@@@",
"@@@@@@@@@@   X  @    @@@@@@@@@@@",
"@@@@@@@@@@@    @@@  @@@@@@@@@@@@",
"@@@@@@@@@@@@@@@@@@@@@@@@@@@@@@@@",
"@@@@@@@@@@@@@@@@@@@@@@@@@@@@@@@@"
};
