/* XPM */
static char *result[] = {
/* columns rows colors chars-per-pixel */
"32 48 7 1 ",
"  c #181923",
". c #292D41",
"X c #38405D",
"o c #6F687A",
"O c #B59E90",
"+ c #D8D4AA",
"@ c None",
/* pixels */
"@@@@@@@@@@@@@@@@@@@@@@@@@@@@@@@@",
"@@@@@@@@@@@@@@@@@@@@@@@@@@@@@@@@",
"@@@@@@@@@@@@@@@@@@@@@@@@@@@@@@@@",
"@@@@@@@@@@@@@@@@@@@@@@@@@@@@@@@@",
"@@@@@@@@@@@@@@@@@@@@@@@@@@@@@@@@",
"@@@@@@@@@@@@@@@@@@@@@@@@@@@@@@@@",
"@@@@@@@@@@@@@@@@@@@@@@@@@@@@@@@@",
"@@@@@@@@@@@@@@@@@@@@@@@@@@@@@@@@",
"@@@@@@@@@@@@@@@@@@@@@@@@@@@@@@@@",
"@@@@@@@@@@@@@@@@@@@@@@@@@@@@@@@@",
"@@@@@@@@@@@@@@@@@@@@@@@@@@@@@@@@",
"@@@@@@@@@@@@@@@@@@@@@@@@@@@@@@@@",
"@@@@@@@@@@@@...@@.@@@@@@@@@@@@@@",
"@@@@@@@@@@@.ooo..o.@@@@@@@@@@@@@",
"@@@@@@@@@@.ooo...o.@@@@@@@@@@@@@",
"@@@@@@@@@@.ooooooo...@@@@@@@@@@@",
"@@@@@@@@...ooooooo.oo.@@@@@@@@@@",
"@@@@@@@.ooo.oOOOOooo.@@@@@@@@@@@",
"@@@@@@@@..ooOOOOOOo....@@@@@@@@@",
"@@@@@@@@@@.oO+OO+Oooo.@@@@@@@@@@",
"@@@@@@@@@@.oO+OO+Oo..@@@@@@@@@@@",
"@@@@@@@@@.oooOOOOooo.@@@@@@@@@@@",
"@@@@@@@@.oo.ooooooo.@@@@@@@@@@@@",
"@@@@@@@@@...ooOOOoo.@@@@@@@@@@@@",
"@@@@@@@@@@@@.ooooo.@@@@@@@@@@@@@",
"@@@@@@@@@@@@.ooooo.@@@@@@@@@@@@@",
"@@@@@@@@@   .ooooo.   @@@@@@@@@@",
"@@@@@@@@ XXXX.ooo.XXXX @@@@@@@@@",
"@@@@@@@ XXXXX.ooo.XX.X @@@@@@@@@",
"@@@@@@@ XXXXXX.o.XXX.X @@@@@@@@@",
"@@@@@@@ XX.XXX.o.XXX.XX @@@@@@@@",
"@@@@@@@ XX.XXX...XXX.XX @@@@@@@@",
"@@@@@@@ XX.XXXX XXXX.XX @@@@@@@@",
"@@@@@@@ XXX.XXX XXXX.XX @@@@@@@@",
"@@@@@@@ XXXX.XX XXXX.XX @@@@@@@@",
"@@@@@@@@ XXXX.X XXXX.X @@@@@@@@@",
"@@@@@@@@@ XXX.X XXXX   @@@@@@@@@",
"@@@@@@@@@@ ..XX XXXX @@@@@@@@@@@",
"@@@@@@@@@@ XXXX  XXX @@@@@@@@@@@",
"@@@@@@@@@@ XXX   XXX @@@@@@@@@@@",
"@@@@@@@@@@ XXX   XXX @@@@@@@@@@@",
"@@@@@@@@@@ XXX    XX @@@@@@@@@@@",
"@@@@@@@@@@ XX      X @@@@@@@@@@@",
"@@@@@@@@@@ X         @@@@@@@@@@@",
"@@@@@@@@@@   @@  X   @@@@@@@@@@@",
"@@@@@@@@@@ @@@@@   @@@@@@@@@@@@@",
"@@@@@@@@@@@@@@@@@@@@@@@@@@@@@@@@",
"@@@@@@@@@@@@@@@@@@@@@@@@@@@@@@@@"
};
