/* XPM */
static char *result[] = {
/* columns rows colors chars-per-pixel */
"32 48 7 1 ",
"  c #181923",
". c #292D41",
"X c #38405D",
"o c #6F687A",
"O c #B59E90",
"+ c #D8D4AA",
"@ c None",
/* pixels */
"@@@@@@@@@@@@@@@@@@@@@@@@@@@@@@@@",
"@@@@@@@@@@@@@@@@@@@@@@@@@@@@@@@@",
"@@@@@@@@@@@@@@@@@@@@@@@@@@@@@@@@",
"@@@@@@@@@@@@@@@@@@@@@@@@@@@@@@@@",
"@@@@@@@@@@@@@@@@@@@@@@@@@@@@@@@@",
"@@@@@@@@@@@@@@@@@@@@@@@@@@@@@@@@",
"@@@@@@@@@@@@@@@@@@@@@@@@@@@@@@@@",
"@@@@@@@@@@@@@@@@@@@@@@@@@@@@@@@@",
"@@@@@@@@@@@@@@@@@@@@@@@@@@@@@@@@",
"@@@@@@@@@@@@@@@@@@@@@@@@@@@@@@@@",
"@@@@@@@@@@@@@@@@@@@@@@@@@@@@@@@@",
"@@@@@@@@@@@@@@@@@@@@@@@@@@@@@@@@",
"@@@@@@@@.....@@..@@@@@@@@@@@@@@@",
"@@@@@@@.oooo...oo.@@@@@@@@@@@@@@",
"@@@@@@@@..oooo.o.@@..@@@@@@@@@@@",
"@@@@@@@@@@.oooooo..o.@@@@@@@@@@@",
"@@@@@@@@@@@OOooooooo.@@@@@@@@@@@",
"@@@@@@@@@@@OOoooooo.@.@@@@@@@@@@",
"@@@@@@@@@@@+OOooo..o..@@@@@@@@@@",
"@@@@@@@@@@@+OOooooooo.@@@@@@@@@@",
"@@@@@@@@@@@OOOoooooo.@@@@@@@@@@@",
"@@@@@@@@@@@oOooooooo.@@@@@@@@@@@",
"@@@@@@@@@@.ooo..oo.oo.@@@@@@@@@@",
"@@@@@@@@@@.oo...o....@@@@@@@@@@@",
"@@@@@@@@@.ooo.....@@@@@@@@@@@@@@",
"@@@@@@@@@.oo...... @@@@@@@@@@@@@",
"@@@@@@@@@.oo....XX @@@@@@@@@@@@@",
"@@@@@@@@@.o..XXXXXX  @@@@@@@@@@@",
"@@@@@@@@@@..XXXXXXX X @@@@@@@@@@",
"@@@@@@@@@@@ XXXXX.X XX @@@@@@@@@",
"@@@@@@@@@@@ XX.XX.X XX @@@@@@@@@",
"@@@@@@@@@@@ XX.XX.XX X @@@@@@@@@",
"@@@@@@@@@@@ X.XXX.XX X @@@@@@@@@",
"@@@@@@@@@@@ X.XXX.XX  @@@@@@@@@@",
"@@@@@@@@@@@ .XXXX.XX @@@@@@@@@@@",
"@@@@@@@@@@ XXXXX.XXX @@@@@@@@@@@",
"@@@@@@@@@ XXXXX..XXXX  @@@@@@@@@",
"@@@@@@@@@ XXX..XXXXXXX @@@@@@@@@",
"@@@@@@@@@ ...XXXXXXXXXX @@@@@@@@",
"@@@@@@@@@    XXXXXXXXXX @@@@@@@@",
"@@@@@@@@@    XXXXXXXXXX @@@@@@@@",
"@@@@@@@@      XXXXXXXXX @@@@@@@@",
"@@@@@@@@      XXXXXXXX @@@@@@@@@",
"@@@@@@@@@@@@   XXXXXXX @@@@@@@@@",
"@@@@@@@@@@@@@@ XXXXXX @@@@@@@@@@",
"@@@@@@@@@@@@@@@      @@@@@@@@@@@",
"@@@@@@@@@@@@@@@@@@@@@@@@@@@@@@@@",
"@@@@@@@@@@@@@@@@@@@@@@@@@@@@@@@@"
};
