/* XPM */
static char *result[] = {
/* columns rows colors chars-per-pixel */
"32 48 7 1 ",
"  c #181923",
". c #292D41",
"X c #38405D",
"o c #6F687A",
"O c #B59E90",
"+ c #D8D4AA",
"@ c None",
/* pixels */
"@@@@@@@@@@@@@@@@@@@@@@@@@@@@@@@@",
"@@@@@@@@@@@@@@@@@@@@@@@@@@@@@@@@",
"@@@@@@@@@@@@@@@@@@@@@@@@@@@@@@@@",
"@@@@@@@@@@@@@@@@@@@@@@@@@@@@@@@@",
"@@@@@@@@@@@@@@@@@@@@@@@@@@@@@@@@",
"@@@@@@@@@@@@@@@@@@@@@@@@@@@@@@@@",
"@@@@@@@@@@@@@@@@@@@@@@@@@@@@@@@@",
"@@@@@@@@@@@@@@@@@@@@@@@@@@@@@@@@",
"@@@@@@@@@@@@@@@@@@@@@@@@@@@@@@@@",
"@@@@@@@@@@@@@@@@@@@@@@@@@@@@@@@@",
"@@@@@@@@@@@@@@@@@@@@@@@@@@@@@@@@",
"@@@@@@@@@@@@@@@..@@.....@@@@@@@@",
"@@@@@@@@@@@@@@.oo...oooo.@@@@@@@",
"@@@@@@@@@@@..@@.o.oooo..@@@@@@@@",
"@@@@@@@@@@@.o..oooooo.@@@@@@@@@@",
"@@@@@@@@@@@.oooooooOO@@@@@@@@@@@",
"@@@@@@@@@@.@.ooooooOO@@@@@@@@@@@",
"@@@@@@@@@@..o..oooOO+@@@@@@@@@@@",
"@@@@@@@@@@.oooooooOO+@@@@@@@@@@@",
"@@@@@@@@@@@.ooooooOOO@@@@@@@@@@@",
"@@@@@@@@@@@.oooooooOo@@@@@@@@@@@",
"@@@@@@@@@@.oo.oo..ooo.@@@@@@@@@@",
"@@@@@@@@@@@....o...oo.@@@@@@@@@@",
"@@@@@@@@@@@@@ .....ooo.@@@@@@@@@",
"@@@@@@@@@@@@@@......oo.@@@@@@@@@",
"@@@@@@@@@@@@@ ......oo.@@@@@@@@@",
"@@@@@@@@@@@   XX.....o.@@@@@@@@@",
"@@@@@@@@@@ X XXXXXX...@@@@@@@@@@",
"@@@@@@@@@@ X XXXXXXX @@@@@@@@@@@",
"@@@@@@@@@ XX XXXX.XX @@@@@@@@@@@",
"@@@@@@@@ XXX XXXX.XX @@@@@@@@@@@",
"@@@@@@@@ XX XXXXXX.X @@@@@@@@@@@",
"@@@@@@@@ XX XX.XXXX. @@@@@@@@@@@",
"@@@@@@@@@ X XX.XXXXXX   @@@@@@@@",
"@@@@@@@@@ X XXX.XXXXXXXX @@@@@@@",
"@@@@@@@@@@  XXXX...XXXXX @@@@@@@",
"@@@@@@@@@@ XXXXXXXX.... @@@@@@@@",
"@@@@@@@@@ XXXXXXXXX    @@@@@@@@@",
"@@@@@@@@@ XXXXXXXXX    @@@@@@@@@",
"@@@@@@@@@ XXXXXXXX     @@@@@@@@@",
"@@@@@@@@@ XXXXXXXX     @@@@@@@@@",
"@@@@@@@@ XXXXXXXX      @@@@@@@@@",
"@@@@@@@@ XXXXXXX        @@@@@@@@",
"@@@@@@@@ XXXXXX         @@@@@@@@",
"@@@@@@@@@  XXX    @@    @@@@@@@@",
"@@@@@@@@@@@      @@@@@@@@@@@@@@@",
"@@@@@@@@@@@@@@@@@@@@@@@@@@@@@@@@",
"@@@@@@@@@@@@@@@@@@@@@@@@@@@@@@@@"
};
