/* XPM */
static char *result[] = {
/* columns rows colors chars-per-pixel */
"32 48 7 1 ",
"  c #181923",
". c #292D41",
"X c #38405D",
"o c #6F687A",
"O c #B59E90",
"+ c #D8D4AA",
"@ c None",
/* pixels */
"@@@@@@@@@@@@@@@@@@@@@@@@@@@@@@@@",
"@@@@@@@@@@@@@@@@@@@@@@@@@@@@@@@@",
"@@@@@@@@@@@@@@@@@@@@@@@@@@@@@@@@",
"@@@@@@@@@@@@@@@@@@@@@@@@@@@@@@@@",
"@@@@@@@@@@@@@@@@@@@@@@@@@@@@@@@@",
"@@@@@@@@@@@@@@@@@@@@@@@@@@@@@@@@",
"@@@@@@@@@@@@@@@@@@@@@@@@@@@@@@@@",
"@@@@@@@@@@@@@@@@@@@@@@@@@@@@@@@@",
"@@@@@@@@@@@@@@@@@@@@@@@@@@@@@@@@",
"@@@@@@@@@@@@@@@@@@@@@@@@@@@@@@@@",
"@@@@@@@@@@@@@@@@@@@@@@@@@@@@@@@@",
"@@@@@@@@@@@@@@@@@@@@@@@@@@@@@@@@",
"@@@@@@@@@@@@@@@@@@@@@@@@@@@@@@@@",
"@@@@@@@@@@@@@@@..@@.....@@@@@@@@",
"@@@@@@@@@@@@@@.oo...oooo.@@@@@@@",
"@@@@@@@@@@@..@@.o.oooo..@@@@@@@@",
"@@@@@@@@@@@.o..oooooo.@@@@@@@@@@",
"@@@@@@@@@@@.oooooooOO@@@@@@@@@@@",
"@@@@@@@@@@.@.ooooooOO@@@@@@@@@@@",
"@@@@@@@@@@..o..oooOO+@@@@@@@@@@@",
"@@@@@@@@@@.oooooooOO+@@@@@@@@@@@",
"@@@@@@@@@@@.ooooooOOO@@@@@@@@@@@",
"@@@@@@@@@@@.oooooooOo@@@@@@@@@@@",
"@@@@@@@@@@.oo.oo..ooo.@@@@@@@@@@",
"@@@@@@@@@@@....o...oo.@@@@@@@@@@",
"@@@@@@@@@@@@@ .....ooo.@@@@@@@@@",
"@@@@@@@@@@@@@ XX....oo.@@@@@@@@@",
"@@@@@@@@@@@@ XXXXXX.oo.@@@@@@@@@",
"@@@@@@@@@@@  XXXXXXX.o.@@@@@@@@@",
"@@@@@@@@@@@  XXXXXXX..@@@@@@@@@@",
"@@@@@@@@@@   X.XX.XX @@@@@@@@@@@",
"@@@@@@@@@@  XX.XX.XX @@@@@@@@@@@",
"@@@@@@@@@@  XX.XX.XX @@@@@@@@@@@",
"@@@@@@@@@@  XX.XXX.X @@@@@@@@@@@",
"@@@@@@@@@@  XX.XXX.X @@@@@@@@@@@",
"@@@@@@@@@@  XX.XXXX. @@@@@@@@@@@",
"@@@@@@@@@@ XXXX.XXX. @@@@@@@@@@@",
"@@@@@@@@@@ XXXXX.XXX.@@@@@@@@@@@",
"@@@@@@@@@@ XXXXX.XXX. @@@@@@@@@@",
"@@@@@@@@@ XXXXXXX.XXX @@@@@@@@@@",
"@@@@@@@@@ XXXXXXXX.XX @@@@@@@@@@",
"@@@@@@@@@ XXXXXXXXX   @@@@@@@@@@",
"@@@@@@@@@ XXXXXXXX   @@@@@@@@@@@",
"@@@@@@@@@ XXXXXXX   @@@@@@@@@@@@",
"@@@@@@@@@  XXX     @@@@@@@@@@@@@",
"@@@@@@@@@@@      @@@@@@@@@@@@@@@",
"@@@@@@@@@@@@@@@@@@@@@@@@@@@@@@@@",
"@@@@@@@@@@@@@@@@@@@@@@@@@@@@@@@@"
};
