/* XPM */
static char *_d1d2e5eef0f4554e3b94c88cc8cbe4alJVv1AkLXpAnqnrQ[] = {
/* columns rows colors chars-per-pixel */
"32 48 6 1 ",
"  c None",
". c #292D41",
"X c #6F687A",
"o c #181923",
"O c #38405D",
"+ c white",
/* pixels */
"                                ",
"                                ",
"                                ",
"                                ",
"                                ",
"                                ",
"                                ",
"                                ",
"                                ",
"                                ",
"                                ",
"                                ",
"                                ",
"             .  ...             ",
"            .X..XXX.            ",
"            .X...XXX.           ",
"          ...XXXXXXX.           ",
"         .XX.XXXXXXX...         ",
"          .XXXXXXXX.XXX.        ",
"        ....XXXXXXXXX..         ",
"         .XXXXXXXXXX.           ",
"          ..XXXXXXXX.           ",
"          .XXXXXXXXXX.          ",
"           .XXXXXXX.XX.         ",
"           .XXXXXXX...          ",
"           .XX.XXX..            ",
"          .XX....X..            ",
"          .........             ",
"           o.......o            ",
"          o...OOO...oo          ",
"         oOOOOOOOOOOOOo         ",
"        oOOOOOOOOOOOOOOo        ",
"        oOOOOOOOOOOO.OOo        ",
"       oOO.OOOOOOOOO.OOo        ",
"       oOO.OOOOOOOOO.OOo        ",
"       oOO.OOOOOOOOO.OOo        ",
"        oO.OOOOOOOOO.OOo        ",
"        oO.OOOOOOOOO.Oo         ",
"         o.OOOOOOOOO.oo         ",
"          oOOOOOOOOOo           ",
"          oOOOOOOOOOo           ",
"          oOOOOOOOOOo           ",
"         oOOOOOOOOOoo           ",
"         oOOOOOOOOOo            ",
"         oOOOOOOOOoo            ",
"         oOOOOOOOooo            ",
"         oOOOOOoo               ",
"          ooooo                 "
};
