/* XPM */
static char * 0_xpm[] = {
"64 64 437 2",
"  	c None",
". 	c #322F41",
"+ 	c #3A4254",
"@ 	c #2C2A3D",
"# 	c #3E3E53",
"$ 	c #302B3E",
"% 	c #2F3345",
"& 	c #643B4E",
"* 	c #D4223D",
"= 	c #F82143",
"- 	c #FE2245",
"; 	c #F62346",
"> 	c #33293C",
", 	c #4C4F67",
"' 	c #5C607A",
") 	c #2D2739",
"! 	c #364254",
"~ 	c #B0283E",
"{ 	c #DD1E38",
"] 	c #EE2241",
"^ 	c #F62243",
"/ 	c #FF2246",
"( 	c #8F2641",
"_ 	c #293648",
": 	c #575870",
"< 	c #19111E",
"[ 	c #322E3E",
"} 	c #3B4B5C",
"| 	c #C32A45",
"1 	c #DC1F39",
"2 	c #283142",
"3 	c #4E5064",
"4 	c #5B5F79",
"5 	c #18111E",
"6 	c #343140",
"7 	c #3B4B5B",
"8 	c #B62840",
"9 	c #FE2042",
"0 	c #343244",
"a 	c #4D5166",
"b 	c #1A131F",
"c 	c #2D2738",
"d 	c #3D4B5C",
"e 	c #A9293F",
"f 	c #F51E3D",
"g 	c #E4213E",
"h 	c #FF2146",
"i 	c #6E2A42",
"j 	c #2E3E4D",
"k 	c #4E4F64",
"l 	c #5B5F7A",
"m 	c #241D2C",
"n 	c #2F384A",
"o 	c #6B3C50",
"p 	c #C6233C",
"q 	c #F62547",
"r 	c #F82345",
"s 	c #EC2143",
"t 	c #6B3148",
"u 	c #364554",
"v 	c #525369",
"w 	c #1D1723",
"x 	c #272233",
"y 	c #36384A",
"z 	c #424757",
"A 	c #323547",
"B 	c #2B2A3D",
"C 	c #313446",
"D 	c #3E4152",
"E 	c #484B5F",
"F 	c #565A72",
"G 	c #211C2A",
"H 	c #292536",
"I 	c #38374A",
"J 	c #3E3F51",
"K 	c #3E3F50",
"L 	c #434556",
"M 	c #4A4D60",
"N 	c #575B73",
"O 	c #1F1C28",
"P 	c #1E1926",
"Q 	c #221C2B",
"R 	c #373749",
"S 	c #434657",
"T 	c #4B4E63",
"U 	c #4D4F66",
"V 	c #343145",
"W 	c #131218",
"X 	c #1E1C28",
"Y 	c #262232",
"Z 	c #2F283C",
"` 	c #3A374A",
" .	c #444859",
"..	c #3A3A4C",
"+.	c #2E2B3E",
"@.	c #CC2037",
"#.	c #1F1623",
"$.	c #282434",
"%.	c #2B293A",
"&.	c #292534",
"*.	c #1E2737",
"=.	c #1F2435",
"-.	c #322E41",
";.	c #373849",
">.	c #3C3D4F",
",.	c #30293C",
"'.	c #DC213C",
").	c #EF2141",
"!.	c #D32039",
"~.	c #DA203B",
"{.	c #221825",
"].	c #272433",
"^.	c #25212E",
"/.	c #1E2736",
"(.	c #802B42",
"_.	c #844E5B",
":.	c #24293C",
"<.	c #312F3F",
"[.	c #2D273A",
"}.	c #CC2038",
"|.	c #E2213D",
"1.	c #F32242",
"2.	c #C82036",
"3.	c #ED2140",
"4.	c #FD2245",
"5.	c #FF2247",
"6.	c #261C2B",
"7.	c #24212E",
"8.	c #202431",
"9.	c #392338",
"0.	c #FF4960",
"a.	c #FF9494",
"b.	c #494253",
"c.	c #262538",
"d.	c #3A3B4B",
"e.	c #29283C",
"f.	c #D22039",
"g.	c #EE2140",
"h.	c #FE2246",
"i.	c #231F2B",
"j.	c #1D2A39",
"k.	c #A31C3B",
"l.	c #FF5569",
"m.	c #FFA59E",
"n.	c #A96B73",
"o.	c #24283D",
"p.	c #2F2B3C",
"q.	c #343445",
"r.	c #2F2B3F",
"s.	c #262330",
"t.	c #1F1E29",
"u.	c #23202D",
"v.	c #292C3E",
"w.	c #D12240",
"x.	c #DD2A41",
"y.	c #FF5869",
"z.	c #E73A55",
"A.	c #353C4D",
"B.	c #2D283A",
"C.	c #2D2839",
"D.	c #28263A",
"E.	c #24222F",
"F.	c #1D1C26",
"G.	c #221E29",
"H.	c #1A222F",
"I.	c #612436",
"J.	c #D61E36",
"K.	c #FF183E",
"L.	c #842F47",
"M.	c #273444",
"N.	c #2D3A4A",
"O.	c #2F2E41",
"P.	c #242233",
"Q.	c #2A2635",
"R.	c #252230",
"S.	c #232534",
"T.	c #C3223A",
"U.	c #E62544",
"V.	c #292A3B",
"W.	c #292638",
"X.	c #3D3848",
"Y.	c #8D364A",
"Z.	c #382E41",
"`.	c #B3213E",
" +	c #1F2130",
".+	c #17232F",
"++	c #242433",
"@+	c #222230",
"#+	c #1E222F",
"$+	c #48283C",
"%+	c #4D2A3F",
"&+	c #292A3C",
"*+	c #2F3D4C",
"=+	c #783A4F",
"-+	c #FF1C3D",
";+	c #503B4D",
">+	c #E38385",
",+	c #FF2347",
"'+	c #D3203D",
")+	c #741C2C",
"!+	c #91233A",
"~+	c #2A2230",
"{+	c #382434",
"]+	c #232331",
"^+	c #222534",
"/+	c #272A3C",
"(+	c #373344",
"_+	c #384657",
":+	c #743E54",
"<+	c #A92D49",
"[+	c #252F42",
"}+	c #BC6E74",
"|+	c #FF9593",
"1+	c #FA2244",
"2+	c #FF2348",
"3+	c #8D1D33",
"4+	c #2A1F2E",
"5+	c #9B213C",
"6+	c #322737",
"7+	c #302331",
"8+	c #232432",
"9+	c #2A2636",
"0+	c #2E2B3B",
"a+	c #3F4253",
"b+	c #3F4052",
"c+	c #3A4152",
"d+	c #313F4F",
"e+	c #1C2438",
"f+	c #9C5F68",
"g+	c #FF9795",
"h+	c #FA8C8D",
"i+	c #F62242",
"j+	c #971E34",
"k+	c #0F232F",
"l+	c #182232",
"m+	c #242432",
"n+	c #222330",
"o+	c #252330",
"p+	c #262332",
"q+	c #2E2A3A",
"r+	c #3E4051",
"s+	c #3E3E50",
"t+	c #3F3D4E",
"u+	c #29293C",
"v+	c #4E3B4B",
"w+	c #FB9090",
"x+	c #FF9191",
"y+	c #FE7980",
"z+	c #D02039",
"A+	c #D5203A",
"B+	c #EE2142",
"C+	c #361C29",
"D+	c #212431",
"E+	c #2C2534",
"F+	c #262432",
"G+	c #282535",
"H+	c #292635",
"I+	c #272738",
"J+	c #1C2030",
"K+	c #3D3D4F",
"L+	c #404354",
"M+	c #434758",
"N+	c #353546",
"O+	c #302A3D",
"P+	c #1B2134",
"Q+	c #BB6A72",
"R+	c #FF5568",
"S+	c #FB2245",
"T+	c #D72039",
"U+	c #8F1D31",
"V+	c #111D28",
"W+	c #2A2433",
"X+	c #262433",
"Y+	c #2A2737",
"Z+	c #292636",
"`+	c #222537",
" @	c #483041",
".@	c #7C4E58",
"+@	c #353D4F",
"@@	c #3C3B4D",
"#@	c #3B3D4E",
"$@	c #302E40",
"%@	c #322B3E",
"&@	c #1D2A3C",
"*@	c #A0223F",
"=@	c #FF1E43",
"-@	c #FA2044",
";@	c #E0213B",
">@	c #7A1B2B",
",@	c #17212D",
"'@	c #282331",
")@	c #252331",
"!@	c #282635",
"~@	c #272333",
"{@	c #202436",
"]@	c #D52A49",
"^@	c #FF9192",
"/@	c #68535E",
"(@	c #374052",
"_@	c #333241",
":@	c #2D293C",
"<@	c #312D40",
"[@	c #2A2C3E",
"}@	c #3F2A3E",
"|@	c #FA2346",
"1@	c #8E1C2E",
"2@	c #331D2B",
"3@	c #202331",
"4@	c #272432",
"5@	c #272230",
"6@	c #182430",
"7@	c #72253C",
"8@	c #FF2548",
"9@	c #FF8E8F",
"0@	c #D76973",
"a@	c #3D4254",
"b@	c #333042",
"c@	c #2F2C3F",
"d@	c #332C3F",
"e@	c #1E2D3F",
"f@	c #AA2643",
"g@	c #1F2133",
"h@	c #222232",
"i@	c #272534",
"j@	c #272331",
"k@	c #1D2332",
"l@	c #55283D",
"m@	c #D7213A",
"n@	c #FF2B49",
"o@	c #C5324F",
"p@	c #2E3A49",
"q@	c #322D40",
"r@	c #2E2B3D",
"s@	c #2D2A3D",
"t@	c #312A3D",
"u@	c #302D41",
"v@	c #2E2A3C",
"w@	c #242130",
"x@	c #272535",
"y@	c #262130",
"z@	c #1F2839",
"A@	c #8B2337",
"B@	c #E41C39",
"C@	c #573C50",
"D@	c #2F3848",
"E@	c #302D40",
"F@	c #2E2C3F",
"G@	c #2A2838",
"H@	c #2A283A",
"I@	c #292637",
"J@	c #2E2738",
"K@	c #4C3447",
"L@	c #252D3B",
"M@	c #343142",
"N@	c #2E2C3D",
"O@	c #312E41",
"P@	c #2D2A3C",
"Q@	c #323043",
"R@	c #2D293D",
"S@	c #2B283C",
"T@	c #302C40",
"U@	c #292737",
"V@	c #242230",
"W@	c #262437",
"X@	c #2A2839",
"Y@	c #2A2D3D",
"Z@	c #322F3E",
"`@	c #353446",
" #	c #322F42",
".#	c #2C293B",
"+#	c #282538",
"@#	c #222034",
"##	c #2C293C",
"$#	c #2B2839",
"%#	c #2A2738",
"&#	c #272533",
"*#	c #212032",
"=#	c #2B293C",
"-#	c #2D2A3B",
";#	c #3C3C4D",
">#	c #323243",
",#	c #323042",
"'#	c #313041",
")#	c #2E2C3E",
"!#	c #242235",
"~#	c #211F33",
"{#	c #242231",
"]#	c #252332",
"^#	c #414455",
"/#	c #2B293B",
"(#	c #232135",
"_#	c #302D3F",
":#	c #252334",
"<#	c #232134",
"[#	c #2A2639",
"}#	c #252130",
"|#	c #2D2A39",
"1#	c #373648",
"2#	c #2B283B",
"3#	c #262438",
"4#	c #262434",
"5#	c #252333",
"6#	c #272539",
"7#	c #1F1B2C",
"8#	c #312F41",
"9#	c #333144",
"0#	c #242236",
"a#	c #272538",
"b#	c #29273A",
"c#	c #2C2A3B",
"d#	c #252234",
"e#	c #252337",
"f#	c #211F32",
"g#	c #1E1825",
"h#	c #211B29",
"i#	c #2F2D40",
"j#	c #302C3F",
"k#	c #252438",
"l#	c #1F1B2B",
"m#	c #2F2C40",
"n#	c #262436",
"o#	c #232132",
"p#	c #232033",
"q#	c #1F1927",
"r#	c #211F34",
"s#	c #222032",
"t#	c #262333",
"u#	c #2C2A3E",
"v#	c #1E1724",
"w#	c #1D1623",
"x#	c #2A2637",
"y#	c #2C293D",
"z#	c #201E31",
"A#	c #1E1826",
"B#	c #232032",
"C#	c #222033",
"D#	c #211E30",
"                                                                                                                                ",
"                                                                                                                                ",
"                                                                                                                                ",
"                                                                                                                                ",
"                                                                                                                                ",
"                                                                                                                                ",
"                                                                                                                                ",
"                                                                                                                                ",
"                                                                                                                                ",
"                                                                                                                                ",
"                                                                                                                                ",
"                                                                                                                                ",
"                                                                                                                                ",
"                                                                                                                                ",
"                                                                                                                                ",
"                                                                                                                                ",
"                                                                                                                                ",
"                                                                                                                                ",
"                                                                                                                                ",
"                                                                                                                                ",
"                                                                                                                                ",
"                                                        . +         @ #                                                         ",
"                                                      $ % & * = - ; > , '                                                       ",
"                                                      ) ! ~ { ] ^ / ( _ :                                                       ",
"                                                    < [ } | 1     /   2 3 4                                                     ",
"                                                    5 6 7 8 9         0 a 4                                                     ",
"                                                    b c d e f g   h i j k l                                                     ",
"                                                      m n o p q r s t u v                                                       ",
"                                                      w x y z A B C D E F                                                       ",
"                                                        G H I J K L M N                                                         ",
"                                                        O P Q R S T U V                                                         ",
"                                                        W X Y Z `  ...+.                                                        ",
"                                                @.    #.$.%.&.*.=.-.;.>.,.    '.).                                              ",
"                                              @.!.~.  {.].^./.(._.:.<.K [.  }.|.1.2.                                            ",
"                                              3.4.5.  6.7.8.9.0.a.b.c.d.e.                                                      ",
"                                            f.g.h.    &.i.j.k.l.m.n.o.p.q.r.                                                    ",
"                                            |.      s.t.u.v.w.x.y.z.A.B.C.D.                                                    ",
"                                                    E.F.G.H.I.J.K.L.M.H N.O.                                                    ",
"                                                    P.Q.].R.S.T.U.V.W.X.Y.Z.                                                    ",
"                                                  `. +.+++@+#+$+%+&+*+=+-+;+>+                                                  ",
"                                                ,+'+)+!+~+{+]+^+/+(+_+:+<+[+}+|+                                                ",
"                                              1+2+3+4+5+6+7+8+9+0+a+b+c+d+e+f+g+h+                                              ",
"                                            i+1+2+j+k+l+m+n+o+p+q+r+>.s+t+u+v+w+x+y+                                            ",
"                                            z+A+B+C+D+E+F+G+H+I+J+K+L+M+N+O+P+Q+R+S+                                            ",
"                                              T+U+V+W+X+Y+Z+`+ @.@+@@@#@$@%@&@*@=@-@                                            ",
"                                              ;@>@,@'@)@!@~@{@]@^@/@(@_@:@<@[@}@|@                                              ",
"                                              1@2@3@4@X+5@6@7@8@9@0@a@b@c@c@d@e@f@                                              ",
"                                              g@h@R.Z+i@j@k@l@m@n@o@p@q@c@r@c@s@t@                                              ",
"                                            u@v@w@x@F+G+)@y@z@A@B@C@D@$ +.r@E@E@F@                                              ",
"                                            c@G@H@G+Z+i@F+I@I+J@K@L@M@N@O@P@E@Q@R@S@                                            ",
"                                          T@!@U@U@i@%.V@!@W@:@X@Y@Z@`@ # #r@.#P@+#@###                                          ",
"                                        E@.#E.$#%#$#!@U@&#*#=#-#;#>#O@,#O@'#)#s@!#~#@#=#                                        ",
"                                    c@E@##{#F+]#]#X+o+!@)@!#s@N@^#$#T@Q@c@P@c@/#(#@#@#@#=#c@                                    ",
"                                  c@_#=#@#)@G@G@V@o+)@p+:#<#[#}#|#$#r.1#Q@)#E@2#@#@#@#@#@#=#c@                                  ",
"                                  E@3#~#@#4#%.].X+i@o+5#4#<#6#7#b ~@E@8#R 9#E@0#@#@#@#@#@#@#=#                                  ",
"                                c@a#~#@#~#b#c#)@F+Z+V@X+d#6#e#f#g#h#i#+.i#j#b#~#@#@#@#@#@#@#(###                                ",
"                                2#@#@#@#(#/#!@F+)@U@i@X+~#2#k#l#w G m#,#O@c@W@~#@#@#@#@#@#~#e#c@                                ",
"                                  (#@#@#0#n#:#X+o+V@!@o#<#@ p#g#g#q#P@c@c@+.@#@#@#@#@#@#@#~#a#                                  ",
"                                            r#s#t#G+o+{#2#u#7#v#P w#x#u@_#b#~#@#@#@#                                            ",
"                                                    )@V@G@y#z#A#g#w x#E@c@S@                                                    ",
"                                                          B#C#q#g#g#G                                                           ",
"                                                          A#D#q#g#g#w                                                           ",
"                                                                                                                                ",
"                                                                                                                                "};
