/* XPM */
static char * 0_xpm[] = {
"64 64 27 1",
" 	c None",
".	c #161C2E",
"+	c #506A69",
"@	c #669D9D",
"#	c #8CC3C4",
"$	c #3C474B",
"%	c #D0DEB5",
"&	c #563915",
"*	c #787B21",
"=	c #888930",
"-	c #49321F",
";	c #73742F",
">	c #5F4C17",
",	c #656826",
"'	c #DAB570",
")	c #866353",
"!	c #504120",
"~	c #B48355",
"{	c #554921",
"]	c #695E1B",
"^	c #504121",
"/	c #604E19",
"(	c #64541A",
"_	c #65551A",
":	c #5D4817",
"<	c #645619",
"[	c #625218",
"                                                                ",
"                                                                ",
"                                                                ",
"                                                                ",
"                                                                ",
"                                                                ",
"                                                                ",
"                                                                ",
"                                                                ",
"                              ..  .....                         ",
"                            ..+++.+@@@...                       ",
"                          ..+@@@@+@@@@##.                       ",
"                         .++.@@@@@@@@@@#+.                      ",
"                       ..@@@@@@@@@@#@@@#+...                    ",
"                       .@#@@@@#@@@@@@##@+...#.                  ",
"               ........#@#@@++####@.@@@@+..@##..                ",
"              .+++@+.+@#@##@@++###..+@@@#+.@##.+.               ",
"              ++@@@+++@#@@@#@@@@@+@@@@@@##+@@#+++..             ",
"             .++@@@.++@#@@++@@@@@@@@.@@##+++@@$++$+.            ",
"             .$+$@@..+@@@..#@@@++#@@@@@##@+++$#...+..           ",
"             .$$$@++@.@@@++##@#+.@@@..@@@@+.+.##+..+..          ",
"            ..$$$$.@#..@++++####@@@@+..@@@@...###++..$          ",
"           .$.$$$++@####..+@@@@@@+@@.###@@+..@####++.$.         ",
"          .$$+$$+++@@@###.++@@@@@.@@###@.++..###@@@+++$.        ",
"          .$$++.+@+@#@@%@.+@@@@@+.+###%@+...+####@@+++$.        ",
"         .$$@@++@#.@@@@@@@#+++@@+.##%%@@+.+.+##@@@@+.+$+        ",
"         $$+@@.+@#...@@@####@@.++.+#@@@@.+@.+@@@@@@$..$+        ",
"        $$.++@.+@#.+++@@@####..++.##+@@@.@@@.@@@@@@$$.$$        ",
"        $$..+@..@.+@.+@.######..####.@@..@@++.@@@@.#$$$$.       ",
"       .$.$$.##+..@@..@.@%%%%@+####@.+.##++++.@@..##@$.$.       ",
"       .$.$++####.@@@..+@@@@@+.+@@@@..###+++..@..###@+$$$       ",
"       .+.$+++####+@+..+@@@@@@.+@@@@####@.+.+@@@@##+++$$..   &  ",
"  &&   .+#$+++@@@@+++..+@@@@@@.+@@####%%@..++@@@@+++++#... &&*& ",
" &*=& -.@##++@@@@@+++..+@@@@@++++.+@@%@@@+..++@@@++++##@+.-=*&  ",
"  &==-.+@##++@@@@@.....+.@@@@.+++.+@@@@@@@..+..@@..#####@+;=& & ",
"   >*,.+@##++@@@@@###+..##+@@###+.++@@@@@.'.#####.###%#@@+;- &*&",
" &&>,,+@@@@@@..+.###++.@######@@@+.+@@@+.'''+####.+@@@@@@+.-&=& ",
"&*=& -+@@@@@@+.##@@@@+.@@##%%@@@@.)))++.)'''+@@@@++@@@@@@@.!==> ",
" &==-..@@@@@@@.@@@@@@++@@@@@@@@@@.)~~.....'~+@@@@+.@@@@@@@.{,*] ",
"  >*,.++#@@@@@@.@@@@@+.+@@@@@@@...~'...).))).@@@@@..+@@##++- &*&",
"  >,,.+@######@.@@@@@+...@.........))~..)~~..+@@@@.#&###@@+.-=& ",
" &*-..@@@#####&.+@@@++.)..))~.))).~~~~..~)~+@&@@@+.&*&##@@+.&=> ",
"  &,.+@@@@+%%&*&#####@))~.~~'')))..~~~.~~~)+&*&##.&=&+@@@@&&*&] ",
"   -.+@@@@@@&=&######@)~~~'''~)))..~...')~.@#&=&#&=&@@@@@&=*&   ",
"   -...@@@@@&=&#####&@.)''.~~~))~)...))'~).+#&=&#&=&@@@@&==& &  ",
" && -,-&&@@@&=&%%%+&=&.')~.~~))~'...))~~~..&++&*&**&@@@.&=& &*& ",
"&*=&^,&*=&@&==&@&@&=&@.~~~.)~.~''...).~~~.&*&@&*&*&*&&@&**&&=&  ",
" &==/*,&==&&**&&=>**&..~~)....'')~..).)~~..&=&&**&*&==&&**>==>  ",
"  (****_>**&**&==>*>   .).....)~)~.).~)~.  :**&**&**>**>**<**]  ",
"        >**>**>**>*>    ..   .~~~) ).~~~.  [**:**:**<**<        ",
"           >**>               .~~)  ~~)~      [**[  [**[        ",
"                              ...     ..                        ",
"                                                                ",
"                                                                ",
"                                                                ",
"                                                                ",
"                                                                ",
"                                                                ",
"                                                                ",
"                                                                ",
"                                                                ",
"                                                                ",
"                                                                ",
"                                                                "};
