/* XPM */
static char * 1_xpm[] = {
"64 64 30 1",
" 	c None",
".	c #161C2E",
"+	c #8B4A4A",
"@	c #8CC3C4",
"#	c #506A69",
"$	c #669D9D",
"%	c #D08C41",
"&	c #B16C4D",
"*	c #FFE325",
"=	c #3C474B",
"-	c #D0DEB5",
";	c #563915",
">	c #787B21",
",	c #888930",
"'	c #49321F",
")	c #73742F",
"!	c #5F4C17",
"~	c #656826",
"{	c #DAB570",
"]	c #FFFFFF",
"^	c #504120",
"/	c #554921",
"(	c #695E1B",
"_	c #504121",
":	c #604E19",
"<	c #64541A",
"[	c #65551A",
"}	c #645619",
"|	c #5D4817",
"1	c #625218",
"                                                                ",
"                                                                ",
"                                                                ",
"                                                                ",
"                                                                ",
"                                                                ",
"                                                                ",
"                                                                ",
"                                ...                             ",
"                              .........                         ",
"                            .............                       ",
"                          ....+++++....@.                       ",
"                         ...+++++++..++@#.                      ",
"                       ..$.+++++++++..+@#...                    ",
"                       .$+++$$++++++$@+$#...@.                  ",
"               ........@$@$$#++++++.$$$$#..$@@..                ",
"              .###$#.#$@$@@$++%%%%%%&$$$@#.$@@.#.               ",
"              ##$$$###$@$$$%%%%%%%%%%%$$@@#$$@###..             ",
"             .##$$$.##$@$%%%%%*****%%%%@@###$$=##=#.            ",
"             .=#=$$..#$$%%%%%********%%%@$###=@...#..           ",
"             .===$##$.$%%%%%*********%%%%$#.#.@@#..#..          ",
"            ..====.$@..%%%%***********%%%$$...@@@##..=          ",
"           .=.===##$@@@%%%%***********%%%%#..$@@@@##.=.         ",
"          .==#==###$$$%%%%%**%%*******%%%%#..@@@$$$###=.        ",
"          .==##.#$#$@$%%$.#%%%%%*%%%%%%%%%%.#@@@@$$###=.        ",
"         .==$$##$@.$$$$$$$@%%%%%*%%%%%%$%%%.#@@$$$$#.#=#        ",
"         ==#$$.#$@...$$$&&&@%%%%*%%%%%%$.#%.#$$$$$$=..=#        ",
"        ==.##$.#$@.###$&&&&%%%&%*%%%%%$$.$$$.$$$$$$==.==        ",
"        ==..#$..$.#$.#$.@@@%%&&%*%%%%%$.&&$##.$$$$.@====.       ",
"       .=.==.@@#..$$..$.$--%%&&%*%%%%%.@@&###.$$..@@$=.=.       ",
"       .=.=##@@@@.$$$..#$$%%%&%%**%%%%@@@###..$..@@@$#===       ",
"       .#.=###@@@@#$#..#$$%%%&%***%&%%%@$.#.#$$$$@@###==..   ;  ",
"  ;;   .#@=###$$$$###..#$%%%&&%***%&&%%-$..##$$$$#####@... ;;>; ",
" ;>,; '.$@@##$$$$$###..#%%%%%%%***%%&%%%$#..##$$$####@@$#.',>;  ",
"  ;,,'.#$@@##$$$$$.....%%%%%%%%****%%&%%%$..#..$$..@@@@@$#),; ; ",
"   !>~.#$@@##$$$$$@@@#%%%%%%%%*****%%%%%%%{.@@@@@.@@@-@$$#)' ;>;",
" ;;!~~#$$$$$$..#.@@@#%%%%%%%%*******%%%%%%%%#@@@@.#$$$$$$#.';,; ",
";>,; '#$$$$$$#.@@$$$%%%&%%%%****]****%%%%%%%%$$$$##$$$$$$$.^,,! ",
" ;,,'..$$$$$$$.$$$$%%%&&%%%*****]*****%%%%%%%%$$$#.$$$$$$$./~>( ",
"  !>~.##@$$$$$$.$$%%%&&%%%******]******%&&%%%%$$$$..#$$@@##' ;>;",
"  !~~.#$@@@@@@$.$$%%%&&%%%***]]]]]*****%%&%%%%%$$$.@;@@@$$#.',; ",
" ;>'..$$$@@@@@;.#$%%%&&%%****]*]]]***%%%%&&%%%%%$#.;>;@@$$#.;,! ",
"  ;~.#$$$$#--;>;@@%%%&%%%****]]]]]]***%*%%%%%%%%@.;,;#$$$$;;>;( ",
"   '.#$$$$$$;,;@@@%%%&%%****]*]]]]]****%%%%%%%%%@;,;$$$$$;,>;   ",
"   '...$$$$$;,;@@@%%%%%%****]*]]]]]****%%%%%%%%;@;,;$$$$;,,; ;  ",
" ;; '~';;$$$;,;---%%%%%%*****]]]]]]]****%%%%%%%>;>>;$$$.;,; ;>; ",
";>,;_~;>,;$;,,;$;$%%%%%%%****]]]]]]]****%%%%%%%>;>;>;;$;>>;;,;  ",
" ;,,:>~;,,;;>>;;,!%%%%%%%****]]]]]]]]***%%%%%%;>>;>;,,;;>>!,,!  ",
"  <>>>>[!>>;>>;,,!>%%%%%%****]]]]]]]]***%%%%%%;>>;>>!>>!>>}>>(  ",
"        !>>!>>!>>!>!%%%%%%***]]]]]]]]***%%%%>>|>>|>>}>>}        ",
"           !>>!      %%%%%***]]]]]]]]**%%%%   1>>1  1>>1        ",
"                       %%%%%%*]]]]]]]%%.                        ",
"                                                                ",
"                                                                ",
"                                                                ",
"                                                                ",
"                                                                ",
"                                                                ",
"                                                                ",
"                                                                ",
"                                                                ",
"                                                                ",
"                                                                ",
"                                                                "};
