/* XPM */
static char * 10_xpm[] = {
"64 64 434 2",
"  	c None",
". 	c #322F41",
"+ 	c #3A4355",
"@ 	c #2C2A3D",
"# 	c #3E3E53",
"$ 	c #302B3E",
"% 	c #2F3345",
"& 	c #633B4E",
"* 	c #E52542",
"= 	c #FF254B",
"- 	c #FF2245",
"; 	c #F62346",
"> 	c #33293C",
", 	c #4C4F67",
"' 	c #5C607A",
") 	c #2D2739",
"! 	c #364254",
"~ 	c #B0283E",
"{ 	c #DB1D37",
"] 	c #EB2140",
"^ 	c #F62243",
"/ 	c #FF2246",
"( 	c #8F2641",
"_ 	c #293648",
": 	c #575870",
"< 	c #19111E",
"[ 	c #322E3E",
"} 	c #3B4B5C",
"| 	c #C32A45",
"1 	c #DC1F39",
"2 	c #283142",
"3 	c #4E5064",
"4 	c #5B5F79",
"5 	c #18111E",
"6 	c #343140",
"7 	c #3B4B5B",
"8 	c #B62840",
"9 	c #FE2042",
"0 	c #343244",
"a 	c #4D5166",
"b 	c #1A131F",
"c 	c #2D2738",
"d 	c #3D4B5C",
"e 	c #A9293F",
"f 	c #F51E3D",
"g 	c #E4213E",
"h 	c #FF2146",
"i 	c #6E2A42",
"j 	c #2E3E4D",
"k 	c #4E4F64",
"l 	c #5B5F7A",
"m 	c #241D2C",
"n 	c #2F384A",
"o 	c #6B3C50",
"p 	c #C6233C",
"q 	c #F62547",
"r 	c #F82345",
"s 	c #EC2143",
"t 	c #6B3148",
"u 	c #364554",
"v 	c #525369",
"w 	c #1D1723",
"x 	c #272233",
"y 	c #36384A",
"z 	c #424757",
"A 	c #323547",
"B 	c #2B2A3D",
"C 	c #313446",
"D 	c #3E4152",
"E 	c #484B5F",
"F 	c #565A72",
"G 	c #211C2A",
"H 	c #292536",
"I 	c #38374A",
"J 	c #3E3F51",
"K 	c #3E3F50",
"L 	c #434556",
"M 	c #4A4D60",
"N 	c #575B73",
"O 	c #1F1C28",
"P 	c #1E1926",
"Q 	c #221C2B",
"R 	c #373749",
"S 	c #434657",
"T 	c #4B4E63",
"U 	c #4D4F66",
"V 	c #343145",
"W 	c #131218",
"X 	c #1E1C28",
"Y 	c #262232",
"Z 	c #2F283C",
"` 	c #3A374A",
" .	c #444859",
"..	c #3A3A4C",
"+.	c #2E2B3E",
"@.	c #CC2037",
"#.	c #CB2037",
"$.	c #C52037",
"%.	c #211623",
"&.	c #282434",
"*.	c #2B293A",
"=.	c #292534",
"-.	c #1E2737",
";.	c #1F2435",
">.	c #322E41",
",.	c #373849",
"'.	c #3C3D4F",
").	c #32293C",
"!.	c #C42037",
"~.	c #E2213D",
"{.	c #F12141",
"].	c #CA2037",
"^.	c #D6203A",
"/.	c #E7213F",
"(.	c #EF2141",
"_.	c #221825",
":.	c #272433",
"<.	c #25212E",
"[.	c #1E2736",
"}.	c #802B42",
"|.	c #844E5B",
"1.	c #24293C",
"2.	c #312F3F",
"3.	c #2B273A",
"4.	c #E0213D",
"5.	c #F52242",
"6.	c #C82036",
"7.	c #251C2B",
"8.	c #24212E",
"9.	c #202431",
"0.	c #392338",
"a.	c #FF4960",
"b.	c #FF9494",
"c.	c #494253",
"d.	c #262538",
"e.	c #3A3B4B",
"f.	c #29283C",
"g.	c #DA213B",
"h.	c #262533",
"i.	c #272534",
"j.	c #231F2B",
"k.	c #1D2A39",
"l.	c #A31C3B",
"m.	c #FF5569",
"n.	c #FFA59E",
"o.	c #A96B73",
"p.	c #24283D",
"q.	c #2F2B3C",
"r.	c #353445",
"s.	c #2E2B3F",
"t.	c #252330",
"u.	c #1F1E29",
"v.	c #23202D",
"w.	c #292C3E",
"x.	c #D12240",
"y.	c #DD2A41",
"z.	c #FF5869",
"A.	c #E73A55",
"B.	c #353C4D",
"C.	c #2D283A",
"D.	c #292939",
"E.	c #28263A",
"F.	c #25222F",
"G.	c #1E1B26",
"H.	c #221E29",
"I.	c #1A222F",
"J.	c #612436",
"K.	c #D61E36",
"L.	c #FF183E",
"M.	c #842F47",
"N.	c #273444",
"O.	c #403546",
"P.	c #322D40",
"Q.	c #1E2232",
"R.	c #252634",
"S.	c #252230",
"T.	c #232534",
"U.	c #C3223A",
"V.	c #E62544",
"W.	c #292A3B",
"X.	c #292638",
"Y.	c #3B3849",
"Z.	c #BE2940",
"`.	c #402C40",
" +	c #AC213D",
".+	c #402131",
"++	c #322331",
"@+	c #232433",
"#+	c #272230",
"$+	c #1E222F",
"%+	c #48283C",
"&+	c #4D2A3F",
"*+	c #292A3C",
"=+	c #2F3D4C",
"-+	c #7B3A4E",
";+	c #EC2240",
">+	c #463D4E",
",+	c #E58284",
"'+	c #FF2347",
")+	c #D3203D",
"!+	c #741C2C",
"~+	c #C9233F",
"{+	c #322231",
"]+	c #3E2434",
"^+	c #222331",
"/+	c #222534",
"(+	c #272A3C",
"_+	c #363344",
":+	c #3E4556",
"<+	c #554457",
"[+	c #5B3B4F",
"}+	c #252F42",
"|+	c #BC6E74",
"1+	c #FF9594",
"2+	c #FA2244",
"3+	c #FF2348",
"4+	c #931D33",
"5+	c #091F2C",
"6+	c #442235",
"7+	c #292736",
"8+	c #242331",
"9+	c #262432",
"0+	c #2A2636",
"a+	c #2E2B3B",
"b+	c #3F4253",
"c+	c #3F4052",
"d+	c #3B4152",
"e+	c #383D4E",
"f+	c #1E2438",
"g+	c #9C5F68",
"h+	c #FF9795",
"i+	c #FA8C8D",
"j+	c #F62242",
"k+	c #961E34",
"l+	c #152230",
"m+	c #222233",
"n+	c #252331",
"o+	c #242330",
"p+	c #262332",
"q+	c #2E2A3A",
"r+	c #3E4051",
"s+	c #3E3E50",
"t+	c #3E3D4E",
"u+	c #29293C",
"v+	c #4E3B4B",
"w+	c #FB9090",
"x+	c #FF9191",
"y+	c #FE7980",
"z+	c #D02039",
"A+	c #D5203A",
"B+	c #EE2142",
"C+	c #361C29",
"D+	c #212431",
"E+	c #2A2534",
"F+	c #272535",
"G+	c #292635",
"H+	c #272738",
"I+	c #1C2030",
"J+	c #3D3D4F",
"K+	c #404354",
"L+	c #434758",
"M+	c #353546",
"N+	c #302A3D",
"O+	c #1B2134",
"P+	c #BB6A72",
"Q+	c #FF5568",
"R+	c #FB2245",
"S+	c #D72039",
"T+	c #8F1D31",
"U+	c #111D28",
"V+	c #2A2433",
"W+	c #262433",
"X+	c #2A2737",
"Y+	c #292636",
"Z+	c #222537",
"`+	c #483041",
" @	c #7C4E58",
".@	c #353D4F",
"+@	c #3C3B4D",
"@@	c #3B3D4E",
"#@	c #302E40",
"$@	c #322B3E",
"%@	c #1D2A3C",
"&@	c #A0223F",
"*@	c #FF1E43",
"=@	c #FA2044",
"-@	c #E0213B",
";@	c #7A1B2B",
">@	c #17212D",
",@	c #282331",
"'@	c #282635",
")@	c #272333",
"!@	c #202436",
"~@	c #D52A49",
"{@	c #FF9192",
"]@	c #68535E",
"^@	c #374052",
"/@	c #333241",
"(@	c #2D293C",
"_@	c #312D40",
":@	c #2A2C3E",
"<@	c #3F2A3E",
"[@	c #FA2346",
"}@	c #8E1C2E",
"|@	c #331D2B",
"1@	c #202331",
"2@	c #272432",
"3@	c #182430",
"4@	c #72253C",
"5@	c #FF2548",
"6@	c #FF8E8F",
"7@	c #D76973",
"8@	c #3D4254",
"9@	c #333042",
"0@	c #2F2C3F",
"a@	c #332C3F",
"b@	c #1E2D3F",
"c@	c #AA2643",
"d@	c #1F2133",
"e@	c #222232",
"f@	c #272331",
"g@	c #1D2332",
"h@	c #55283D",
"i@	c #D7213A",
"j@	c #FF2B49",
"k@	c #C5324F",
"l@	c #2E3A49",
"m@	c #2E2B3D",
"n@	c #2D2A3D",
"o@	c #312A3D",
"p@	c #302D41",
"q@	c #2E2A3C",
"r@	c #242130",
"s@	c #282535",
"t@	c #262130",
"u@	c #1F2839",
"v@	c #8B2337",
"w@	c #E41C39",
"x@	c #573C50",
"y@	c #2F3848",
"z@	c #302D40",
"A@	c #2E2C3F",
"B@	c #2A2838",
"C@	c #2A283A",
"D@	c #292637",
"E@	c #2E2738",
"F@	c #4C3447",
"G@	c #252D3B",
"H@	c #343142",
"I@	c #2E2C3D",
"J@	c #312E41",
"K@	c #2D2A3C",
"L@	c #323043",
"M@	c #2D293D",
"N@	c #2B283C",
"O@	c #302C40",
"P@	c #292737",
"Q@	c #242230",
"R@	c #262437",
"S@	c #2A2839",
"T@	c #2A2D3D",
"U@	c #322F3E",
"V@	c #353446",
"W@	c #322F42",
"X@	c #2C293B",
"Y@	c #282538",
"Z@	c #222034",
"`@	c #2C293C",
" #	c #24222F",
".#	c #2B2839",
"+#	c #2A2738",
"@#	c #272533",
"##	c #212032",
"$#	c #2B293C",
"%#	c #2D2A3B",
"&#	c #3C3C4D",
"*#	c #323243",
"=#	c #323042",
"-#	c #313041",
";#	c #2E2C3E",
">#	c #242235",
",#	c #211F33",
"'#	c #242231",
")#	c #252332",
"!#	c #414455",
"~#	c #2B293B",
"{#	c #232135",
"]#	c #302D3F",
"^#	c #252334",
"/#	c #232134",
"(#	c #2A2639",
"_#	c #252130",
":#	c #2D2A39",
"<#	c #2F2B3F",
"[#	c #373648",
"}#	c #2B283B",
"|#	c #262438",
"1#	c #262434",
"2#	c #252333",
"3#	c #272539",
"4#	c #1F1B2C",
"5#	c #312F41",
"6#	c #333144",
"7#	c #242236",
"8#	c #272538",
"9#	c #29273A",
"0#	c #2C2A3B",
"a#	c #252234",
"b#	c #252337",
"c#	c #211F32",
"d#	c #1E1825",
"e#	c #211B29",
"f#	c #2F2D40",
"g#	c #302C3F",
"h#	c #252438",
"i#	c #1F1B2B",
"j#	c #2F2C40",
"k#	c #262436",
"l#	c #232132",
"m#	c #232033",
"n#	c #1F1927",
"o#	c #211F34",
"p#	c #222032",
"q#	c #262333",
"r#	c #2C2A3E",
"s#	c #1E1724",
"t#	c #1D1623",
"u#	c #2A2637",
"v#	c #2C293D",
"w#	c #201E31",
"x#	c #1E1826",
"y#	c #232032",
"z#	c #222033",
"A#	c #211E30",
"                                                                                                                                ",
"                                                                                                                                ",
"                                                                                                                                ",
"                                                                                                                                ",
"                                                                                                                                ",
"                                                                                                                                ",
"                                                                                                                                ",
"                                                                                                                                ",
"                                                                                                                                ",
"                                                                                                                                ",
"                                                                                                                                ",
"                                                                                                                                ",
"                                                                                                                                ",
"                                                                                                                                ",
"                                                                                                                                ",
"                                                                                                                                ",
"                                                                                                                                ",
"                                                                                                                                ",
"                                                                                                                                ",
"                                                                                                                                ",
"                                                                                                                                ",
"                                                        . +         @ #                                                         ",
"                                                      $ % & * = - ; > , '                                                       ",
"                                                      ) ! ~ { ] ^ / ( _ :                                                       ",
"                                                    < [ } | 1     /   2 3 4                                                     ",
"                                                    5 6 7 8 9         0 a 4                                                     ",
"                                                    b c d e f g   h i j k l                                                     ",
"                                                      m n o p q r s t u v                                                       ",
"                                                      w x y z A B C D E F                                                       ",
"                                                        G H I J K L M N                                                         ",
"                                                        O P Q R S T U V                                                         ",
"                                                        W X Y Z `  ...+.                                                        ",
"                                              @.#.$.  %.&.*.=.-.;.>.,.'.).  !.~.{.].                                            ",
"                                              ^./.(.  _.:.<.[.}.|.1.2.K 3.    4.5.                                              ",
"                                            6.5./     7.8.9.0.a.b.c.d.e.f.                                                      ",
"                                            g.      h.i.j.k.l.m.n.o.p.q.r.s.                                                    ",
"                                                    t.u.v.w.x.y.z.A.B.C.D.E.                                                    ",
"                                                    F.G.H.I.J.K.L.M.N.H O.P.                                                    ",
"                                                    Q.R.:.S.T.U.V.W.X.Y.Z.`.                                                    ",
"                                                   +.+++@+#+$+%+&+*+=+-+;+>+,+                                                  ",
"                                                '+)+!+~+{+]+^+/+(+_+:+<+[+}+|+1+                                                ",
"                                              2+3+4+5+6+7+8+9+0+a+b+c+d+e+f+g+h+i+                                              ",
"                                            j+2+3+k+l+m+9+n+o+p+q+r+'.s+t+u+v+w+x+y+                                            ",
"                                            z+A+B+C+D+E+9+F+G+H+I+J+K+L+M+N+O+P+Q+R+                                            ",
"                                              S+T+U+V+W+X+Y+Z+`+ @.@+@@@#@$@%@&@*@=@                                            ",
"                                              -@;@>@,@n+'@)@!@~@{@]@^@/@(@_@:@<@[@                                              ",
"                                              }@|@1@2@W+#+3@4@5@6@7@8@9@0@0@a@b@c@                                              ",
"                                              d@e@S.Y+i.f@g@h@i@j@k@l@P.0@m@0@n@o@                                              ",
"                                            p@q@r@F+9+s@n+t@u@v@w@x@y@$ +.m@z@z@A@                                              ",
"                                            0@B@C@s@Y+i.9+D@H+E@F@G@H@I@J@K@z@L@M@N@                                            ",
"                                          O@'@P@P@i.*.Q@'@R@(@S@T@U@V@W@W@m@X@K@Y@Z@`@                                          ",
"                                        z@X@ #.#+#.#'@P@@###$#%#&#*#J@=#J@-#;#n@>#,#Z@$#                                        ",
"                                    0@z@`@'#9+)#)#W+t.'@n+>#n@I@!#.#O@L@0@K@0@~#{#Z@Z@Z@$#0@                                    ",
"                                  0@]#$#Z@n+B@B@Q@t.n+p+^#/#(#_#:#.#<#[#L@;#z@}#Z@Z@Z@Z@Z@$#0@                                  ",
"                                  z@|#,#Z@1#*.:.W+i.t.2#1#/#3#4#b )@z@5#R 6#z@7#Z@Z@Z@Z@Z@Z@$#                                  ",
"                                0@8#,#Z@,#9#0#n+9+Y+Q@W+a#3#b#c#d#e#f#+.f#g#9#,#Z@Z@Z@Z@Z@Z@{#`@                                ",
"                                }#Z@Z@Z@{#~#'@9+n+P@i.W+,#}#h#i#w G j#=#J@0@R@,#Z@Z@Z@Z@Z@,#b#0@                                ",
"                                  {#Z@Z@7#k#^#W+t.Q@'@l#/#@ m#d#d#n#K@0@0@+.Z@Z@Z@Z@Z@Z@Z@,#8#                                  ",
"                                            o#p#q#s@t.'#}#r#4#s#P t#u#p@]#9#,#Z@Z@Z@                                            ",
"                                                    n+Q@B@v#w#x#d#w u#z@0@N@                                                    ",
"                                                          y#z#n#d#d#G                                                           ",
"                                                          x#A#n#d#d#w                                                           ",
"                                                                                                                                ",
"                                                                                                                                "};
