/* XPM */
static char * 2_xpm[] = {
"64 64 29 1",
" 	c None",
".	c #161C2E",
"+	c #8B4A4A",
"@	c #669D9D",
"#	c #8CC3C4",
"$	c #506A69",
"%	c #D08C41",
"&	c #FFE325",
"*	c #3C474B",
"=	c #D0DEB5",
"-	c #B16C4D",
";	c #563915",
">	c #787B21",
",	c #888930",
"'	c #49321F",
")	c #73742F",
"!	c #5F4C17",
"~	c #656826",
"{	c #FFFFFF",
"]	c #504120",
"^	c #554921",
"/	c #695E1B",
"(	c #504121",
"_	c #604E19",
":	c #64541A",
"<	c #65551A",
"[	c #645619",
"}	c #5D4817",
"|	c #625218",
"                                                                ",
"                                                                ",
"                                                                ",
"                                                                ",
"                                                                ",
"                                                                ",
"                                                                ",
"                                                                ",
"                                                                ",
"                              ........                          ",
"                            ..++++++...                         ",
"                           ..............                       ",
"                          ...@@@++.@@@.#.                       ",
"                         .....@..+..@@@#$.                      ",
"                       ..@@@.@.......@@#$...                    ",
"                       .@#@@@@#@@@@@@##@$...#.                  ",
"               ........#@#@@$$%%%%%%@@@@$..@##..                ",
"              .$$$@$.$@#@##%%%%%%%%%%%@@#$.@##.$.               ",
"              $$@@@$$$@#@@%%%%&&&&&%%%%%##$@@#$$$..             ",
"             .$$@@@.$$@#@%%&&&&&&&&&&&%%%$$$@@*$$*$.            ",
"             .*$*@@..$@@%%&&&&&&&&&&&&&%%%$$$*#...$..           ",
"             .***@$$@.@%%%&&&&&&&&&&&&&%%%%.$.##$..$..          ",
"            ..****.@#.%%%%%%%%%%&&&&%%%%%%%%..###$$..*          ",
"           .*.***$$@##%%%%%%%%%%%&%%%%%%%%%%.@####$$.*.         ",
"          .**$**$$$@@@###.$%%%%%%%%%%%%%.$$..###@@@$$$*.        ",
"          .**$$.$@$@#@@=@.$@@%--%%%%%%=@$..--####@@$$$*.        ",
"         .**@@$$@#.@@@@@--#$$%----%--%@@$.$--##@@@@$.$*$        ",
"         **$@@.$@#...@@@--##@%%---%--@@@.$@.$@@@@@@*..*$        ",
"        **.$$@.$@#.$$$@@@####.%%-%%%%@@@.@@@.@@@@@@**.**        ",
"        **..$@..@.$@.$@.######%%%%%%%@@..@@$$.@@@@.#****.       ",
"       .*.**.##$..@@..@.@====@%%%%&%%%.##$$$$.@@..##@*.*.       ",
"       .*.*$$####.@@@..$@@@@@%%%%&&%%%%##$$$..@..###@$***       ",
"       .$.*$$$####$@$..$@@@@%%%%%&&%%%%#@.$.$@@@@##$$$**..   ;  ",
"  ;;   .$#*$$$@@@@$$$..$@@@%%%%%%&&&%%%%%..$$@@@@$$$$$#... ;;>; ",
" ;>,; '.@##$$@@@@@$$$..$@%%-%%%%&&&&%%%%%%%%$$@@@$$$$##@$.',>;  ",
"  ;,,'.$@##$$@@@@@.....%%%--%%%&&&&&&%&%%%%%%%.@@..#####@$),; ; ",
"   !>~.$@##$$@@@@@###%%%%%%%%&&&&&&&&%&&%%%%%%%%#.###=#@@$)' ;>;",
" ;;!~~$@@@@@@..$.###%%%-%%%&&&&&&&{&&&&&&%%%%-%%%.$@@@@@@$.';,; ",
";>,; '$@@@@@@$.##@@%%---%%%&&&&&&{{&&&&&&&%%----%%$@@@@@@@.],,! ",
" ;,,'..@@@@@@@.@@@%%----%%&&&&{{&{{&&&&&&&%%%----%%@@@@@@@.^~>/ ",
"  !>~.$$#@@@@@@.@@%%---%%&&&&{{&{{{{&&&&%%%%%%---%%.$@@##$$' ;>;",
"  !~~.$@######@.@%%----%%&&&&{{{{{{{&&&&&%%%-%---%%#;###@@$.',; ",
" ;>'..@@@#####;.$%%----%%&&&{{{{{{{{&&&&&&%%%----%%;>;##@@$.;,! ",
"  ;~.$@@@@$==;>;#%%---%%&&&&{{{{{{{{{&&&&&%%%-%--%%,;$@@@@;;>;/ ",
"   '.$@@@@@@;,;##%%---%%&&&&{&{{{{{{{{&&&&&%%%%--%%;@@@@@;,>;   ",
"   '...@@@@@;,;##%%---%%&&&&{{{{{{{{{{&&&&&%%%%-%%%;@@@@;,,; ;  ",
" ;; '~';;@@@;,;==%%%%-%%&&&&&{{{{{{{{{&&&&&%%%%%%%%;@@@.;,; ;>; ",
";>,;(~;>,;@;,,;@;@%%%%%%&&&&&{{{{{{{{{&&&&&%%%%%%%%>;;@;>>;;,;  ",
" ;,,_>~;,,;;>>;;,!%%%%%%%&&&&&{{{{{{{{&&&&&%%%%%%;>;,,;;>>!,,!  ",
"  :>>>><!>>;>>;,,!>%%%%%%&&&&&{{{{{{{{&&&&&%%%%%>;>>!>>!>>[>>/  ",
"        !>>!>>!>>!>!%%%%%&&&&&{{{{{{{{&&&&&%%%%>>}>>[>>[        ",
"           !>>!       %%%%&&&&&{{{{{{&&&%%%%% |>>|  |>>|        ",
"                        %%%%% ...     ..                        ",
"                                                                ",
"                                                                ",
"                                                                ",
"                                                                ",
"                                                                ",
"                                                                ",
"                                                                ",
"                                                                ",
"                                                                ",
"                                                                ",
"                                                                "};
