/* XPM */
static char *result[] = {
/* columns rows colors chars-per-pixel */
"64 64 140 2 ",
"   c #12C111B6184B",
".  c #196E123F1E78",
"X  c #0D061F862CDD",
"o  c #1D2216D32353",
"O  c #1E1518C025C3",
"+  c #10C91D85284C",
"@  c #1ED91BB52A5C",
"#  c #1F531F702FE7",
"$  c #22561A172653",
"%  c #21CD1CBC2A66",
"&  c #34601C6129D3",
"*  c #21391F24330F",
"=  c #169B21252D4E",
"-  c #1AAD221A2EFB",
";  c #143A22942FE1",
":  c #1CAA237C33D7",
">  c #1C8923DB37BB",
",  c #1E082AC33B5E",
"<  c #242121272E42",
"1  c #242A223A332D",
"2  c #28F125D935BE",
"3  c #26E125463859",
"4  c #2A4726B53970",
"5  c #25462A0C3BC8",
"6  c #2CB02A223C86",
"7  c #33A722D03392",
"8  c #3A90220134D7",
"9  c #396E23023839",
"0  c #315C2BE43E28",
"q  c #3F122A203E93",
"w  c #7A071B492B44",
"e  c #4496221F3313",
"r  c #4B59210E362D",
"t  c #41C52B7B3F73",
"y  c #4B5C29563D91",
"u  c #54D7283A3D3B",
"i  c #61B1240D35EC",
"p  c #68CF275C3E8E",
"a  c #72A725413C6C",
"s  c #2D0E2D02406B",
"d  c #30962DA040A5",
"f  c #2383345243CF",
"g  c #2B1136164826",
"h  c #2E91397148D8",
"j  c #33AE323C4409",
"k  c #371B36A448E6",
"l  c #393337A24A59",
"z  c #353F3B124C56",
"x  c #3BA33C024D80",
"c  c #3DC73EE0512F",
"v  c #4A363279442B",
"b  c #40593D754F13",
"n  c #4EB13AD84B6F",
"m  c #530132D140B7",
"M  c #574B3BD34FD5",
"N  c #67C92A2B418A",
"B  c #358740D8526B",
"V  c #3DBB427053E6",
"C  c #3B0A45FD5828",
"Z  c #3AF84A7D5B4C",
"A  c #41AC44B95596",
"S  c #4C0544B155AA",
"D  c #439E470557F6",
"F  c #448C48485978",
"G  c #48754BB65EF2",
"H  c #57714FC55E1C",
"J  c #7C2D4DF45878",
"K  c #636A50D35E7D",
"L  c #68C853435EDC",
"P  c #4C1C4ED66393",
"I  c #424B510567CF",
"U  c #4E225105657C",
"Y  c #501753A769D9",
"T  c #56C75A567262",
"R  c #5B3E5F4179A6",
"E  c #5EE460077A19",
"W  c #8E3C1BD82E4E",
"Q  c #8FC61D7030FB",
"!  c #94F21D90340D",
"~  c #A4181C213ADA",
"^  c #8B0C236A379B",
"/  c #8E2F258E3CFB",
"(  c #9BFB1FF43AE2",
")  c #A09C22883F34",
"_  c #D66A1D9E364C",
"`  c #E49C1C1F39A9",
"'  c #FFFF116639E1",
"]  c #FE8118A63EB3",
"[  c #C3C521A73A20",
"{  c #D5A4209B3996",
"}  c #DFEB1FCB3E80",
"|  c #E0AE21213AD0",
" . c #835F270F40DC",
".. c #82FD2D1544B6",
"X. c #AB00263A42CD",
"o. c #FFFD1BF14193",
"O. c #D14023874279",
"+. c #DE3B29FD419C",
"@. c #D5BD2A9A48EF",
"#. c #C56C32774F81",
"$. c #E71024CD4495",
"%. c #EF63216A4284",
"&. c #E721288247B3",
"*. c #F6A621AE429F",
"=. c #FD9021FD4572",
"-. c #FFFF23E1484A",
";. c #FEC82D4B4C2B",
":. c #E73339EE5591",
">. c #FFFF3938551C",
",. c #824D461455A7",
"<. c #84CB4E8C5AF8",
"1. c #9CD05FCE687F",
"2. c #A39865F96FC9",
"3. c #A9E16B197336",
"4. c #BB5E6CA973A6",
"5. c #D2A64A8E5F30",
"6. c #FD8E406559A7",
"7. c #D3B15B2B6789",
"8. c #FFFD4B716173",
"9. c #FFFF5187658D",
"0. c #FFFF556F68EA",
"q. c #F7C55E2B6D02",
"w. c #FE255B196B95",
"e. c #D0B5646B7053",
"r. c #D7F0699E73B4",
"t. c #FFFF6F0F7982",
"y. c #F71371037ACE",
"u. c #FCCB739D7C7F",
"i. c #FFFF786A7FDA",
"p. c #FFBF794A807D",
"a. c #DA1C80CF83ED",
"s. c #D637871B8882",
"d. c #E8AE82AA84D6",
"f. c #FFFF825F8702",
"g. c #FFFF87178A18",
"h. c #FECD8C3B8E01",
"j. c #FF5693A69315",
"k. c #FF9B99589628",
"l. c #FFFFA58C9E96",
"z. c None",
/* pixels */
"z.z.z.z.z.z.z.z.z.z.z.z.z.z.z.z.z.z.z.z.z.z.z.z.z.z.z.z.z.z.z.z.z.z.z.z.z.z.z.z.z.z.z.z.z.z.z.z.z.z.z.z.z.z.z.z.z.z.z.z.z.z.z.z.",
"z.z.z.z.z.z.z.z.z.z.z.z.z.z.z.z.z.z.z.z.z.z.z.z.z.z.z.z.z.z.z.z.z.z.z.z.z.z.z.z.z.z.z.z.z.z.z.z.z.z.z.z.z.z.z.z.z.z.z.z.z.z.z.z.",
"z.z.z.z.z.z.z.z.z.z.z.z.z.z.z.z.z.z.z.z.z.z.z.z.z.z.z.z.z.z.z.z.z.z.z.z.z.z.z.z.z.z.z.z.z.z.z.z.z.z.z.z.z.z.z.z.z.z.z.z.z.z.z.z.",
"z.z.z.z.z.z.z.z.z.z.z.z.z.z.z.z.z.z.z.z.z.z.z.z.z.z.z.z.z.z.z.z.z.z.z.z.z.z.z.z.z.z.z.z.z.z.z.z.z.z.z.z.z.z.z.z.z.z.z.z.z.z.z.z.",
"z.z.z.z.z.z.z.z.z.z.z.z.z.z.z.z.z.z.z.z.z.z.z.z.z.z.z.z.z.z.z.z.z.z.z.z.z.z.z.z.z.z.z.z.z.z.z.z.z.z.z.z.z.z.z.z.z.z.z.z.z.z.z.z.",
"z.z.z.z.z.z.z.z.z.z.z.z.z.z.z.z.z.z.z.z.z.z.z.z.z.z.z.z.z.z.z.z.z.z.z.z.z.z.z.z.z.z.z.z.z.z.z.z.z.z.z.z.z.z.z.z.z.z.z.z.z.z.z.z.",
"z.z.z.z.z.z.z.z.z.z.z.z.z.z.z.z.z.z.z.z.z.z.z.z.z.z.z.z.z.z.z.z.z.z.z.z.z.z.z.z.z.z.z.z.z.z.z.z.z.z.z.z.z.z.z.z.z.z.z.z.z.z.z.z.",
"z.z.z.z.z.z.z.z.z.z.z.z.z.z.z.z.z.z.z.z.z.z.z.z.z.z.z.z.z.z.z.z.z.z.z.z.z.z.z.z.z.z.z.z.z.z.z.z.z.z.z.z.z.z.z.z.z.z.z.z.z.z.z.z.",
"z.z.z.z.z.z.z.z.z.z.z.z.z.z.z.z.z.z.z.z.z.z.z.z.z.z.z.z.z.z.z.z.z.z.z.z.z.z.z.z.z.z.z.z.z.z.z.z.z.z.z.z.z.z.z.z.z.z.z.z.z.z.z.z.",
"z.z.z.z.z.z.z.z.z.z.z.z.z.z.z.z.z.z.z.z.z.z.z.z.z.z.z.z.z.z.z.z.z.z.z.z.z.z.z.z.z.z.z.z.z.z.z.z.z.z.z.z.z.z.z.z.z.z.z.z.z.z.z.z.",
"z.z.z.z.z.z.z.z.z.z.z.z.z.z.z.z.z.z.z.z.z.z.z.z.z.z.z.z.z.z.z.z.z.z.z.z.z.z.z.z.z.z.z.z.z.z.z.z.z.z.z.z.z.z.z.z.z.z.z.z.z.z.z.z.",
"z.z.z.z.z.z.z.z.z.z.z.z.z.z.z.z.z.z.z.z.z.z.z.z.z.z.z.z.z.z.z.z.z.z.z.z.z.z.z.z.z.z.z.z.z.z.z.z.z.z.z.z.z.z.z.z.z.z.z.z.z.z.z.z.",
"z.z.z.z.z.z.z.z.z.z.z.z.z.z.z.z.z.z.z.z.z.z.z.z.z.z.z.z.z.z.z.z.z.z.z.z.z.z.z.z.z.z.z.z.z.z.z.z.z.z.z.z.z.z.z.z.z.z.z.z.z.z.z.z.",
"z.z.z.z.z.z.z.z.z.z.z.z.z.z.z.z.z.z.z.z.z.z.z.z.z.z.z.z.z.z.z.z.z.z.z.z.z.z.z.z.z.z.z.z.z.z.z.z.z.z.z.z.z.z.z.z.z.z.z.z.z.z.z.z.",
"z.z.z.z.z.z.z.z.z.z.z.z.z.z.z.z.z.z.z.z.z.z.z.z.z.z.z.z.z.z.z.z.z.z.z.z.z.z.z.z.z.z.z.z.z.z.z.z.z.z.z.z.z.z.z.z.z.z.z.z.z.z.z.z.",
"z.z.z.z.z.z.z.z.z.z.z.z.z.z.z.z.z.z.z.z.z.z.z.z.z.z.z.z.z.z.z.z.z.z.z.z.z.z.z.z.z.z.z.z.z.z.z.z.z.z.z.z.z.z.z.z.z.z.z.z.z.z.z.z.",
"z.z.z.z.z.z.z.z.z.z.z.z.z.z.z.z.z.z.z.z.z.z.z.z.z.z.z.z.z.z.z.z.z.z.z.z.z.z.z.z.z.z.z.z.z.z.z.z.z.z.z.z.z.z.z.z.z.z.z.z.z.z.z.z.",
"z.z.z.z.z.z.z.z.z.z.z.z.z.z.z.z.z.z.z.z.z.z.z.z.z.z.z.z.z.z.z.z.z.z.z.z.z.z.z.z.z.z.z.z.z.z.z.z.z.z.z.z.z.z.z.z.z.z.z.z.z.z.z.z.",
"z.z.z.z.z.z.z.z.z.z.z.z.z.z.z.z.z.z.z.z.z.z.z.z.z.z.z.z.z.z.z.z.z.z.z.z.z.z.z.z.z.z.z.z.z.z.z.z.z.z.z.z.z.z.z.z.z.z.z.z.z.z.z.z.",
"z.z.z.z.z.z.z.z.z.z.z.z.z.z.z.z.z.z.z.z.z.z.z.z.z.z.z.z.z.z.z.z.z.z.z.z.z.z.z.z.z.z.z.z.z.z.z.z.z.z.z.z.z.z.z.z.z.z.z.z.z.z.z.z.",
"z.z.z.z.z.z.z.z.z.z.z.z.z.z.z.z.z.z.z.z.z.z.z.z.z.z.z.z.z.z.z.z.z.z.z.z.z.z.z.z.z.z.z.z.z.z.z.z.z.z.z.z.z.z.z.z.z.z.z.z.z.z.z.z.",
"z.z.z.z.z.z.z.z.z.z.z.z.z.z.z.z.z.z.z.z.z.z.z.z.z.z.z.z.s K y.z.-.O.0 c z.z.z.z.z.z.z.z.z.z.z.z.z.z.z.z.z.z.z.z.z.z.z.z.z.z.z.z.",
"z.z.z.z.z.z.z.z.z.z.z.z.z.z.z.z.z.z.z.z.z.z.z.z.z.z.z.d s s.f.6.;.o.p I R z.z.z.z.z.z.z.z.z.z.z.z.z.z.z.z.z.z.z.z.z.z.z.z.z.z.z.",
"z.z.z.z.z.z.z.z.z.z.z.z.z.z.z.z.z.z.z.z.z.z.z.z.z.z.z.4 B 5.g.u.z.-. .g T z.z.z.z.z.z.z.z.z.z.z.z.z.z.z.z.z.z.z.z.z.z.z.z.z.z.z.",
"z.z.z.z.z.z.z.z.z.z.z.z.z.z.z.z.z.z.z.z.z.z.z.z.z.z.. 0 Z e.>.z.z.z.z.j P R z.z.z.z.z.z.z.z.z.z.z.z.z.z.z.z.z.z.z.z.z.z.z.z.z.z.",
"z.z.z.z.z.z.z.z.z.z.z.z.z.z.z.z.z.z.z.z.z.z.z.z.z.z.. j C a.9.w.z.-. .f U R z.z.z.z.z.z.z.z.z.z.z.z.z.z.z.z.z.z.z.z.z.z.z.z.z.z.",
"z.z.z.z.z.z.z.z.z.z.z.z.z.z.z.z.z.z.z.z.z.z.z.z.z.z.. 6 C 2.g.;.=.=.N z U R z.z.z.z.z.z.z.z.z.z.z.z.z.z.z.z.z.z.z.z.z.z.z.z.z.z.",
"z.z.z.z.z.z.z.z.z.z.z.z.z.z.z.z.z.z.z.z.z.z.z.z.z.z.z.% k C S z.z.0 k A Y z.z.z.z.z.z.z.z.z.z.z.z.z.z.z.z.z.z.z.z.z.z.z.z.z.z.z.",
"z.z.z.z.z.z.z.z.z.z.z.z.z.z.z.z.z.z.z.z.z.z.z.z.z.z.z.o 1 l D k 6 j V P T z.z.z.z.z.z.z.z.z.z.z.z.z.z.z.z.z.z.z.z.z.z.z.z.z.z.z.",
"z.z.z.z.z.z.z.z.z.z.z.z.z.z.z.z.z.z.z.z.z.z.z.z.z.z.z.z.% 2 k c c V P T z.z.z.z.z.z.z.z.z.z.z.z.z.z.z.z.z.z.z.z.z.z.z.z.z.z.z.z.",
"z.z.z.z.z.z.z.z.z.z.z.z.z.z.z.z.z.z.z.z.z.z.z.z.z.z.z.z.% O % k D P U j z.z.z.z.z.z.z.z.z.z.z.z.z.z.z.z.z.z.z.z.z.z.z.z.z.z.z.z.",
"z.z.z.z.z.z.z.z.z.z.z.z.z.z.z.z.z.z.z.z.z.z.z.z.o.z.z.z.  O 1 0 l D x 6 z.z.] 8.t.] z.z.z.z.z.z.z.z.z.z.z.z.z.z.z.z.z.z.z.z.z.z.",
"z.z.z.z.z.z.z.z.z.z.z.z.z.z.z.z.z.z.z.z.z.z.z.;.9.q.z.$ 2 6 2 , > d l x 0 z.z.8.p.z.z.z.z.z.z.z.z.z.z.z.z.z.z.z.z.z.z.z.z.z.z.z.",
"z.z.z.z.z.z.z.z.z.z.z.z.z.z.z.z.z.z.z.z.z.z.' p.k.z.z.$ 2 < : ..<.5 0 V 4 z.z.z.z.z.z.z.z.z.z.z.z.z.z.z.z.z.z.z.z.z.z.z.z.z.z.z.",
"z.z.z.z.z.z.z.z.z.z.z.z.z.z.z.z.z.z.z.z.z.z.>.z.z.z.z.< < < 8 6.j.S 3 l 6 z.z.z.z.z.z.z.z.z.z.z.z.z.z.z.z.z.z.z.z.z.z.z.z.z.z.z.",
"z.z.z.z.z.z.z.z.z.z.z.z.z.z.z.z.z.z.z.z.z.z.z.z.z.z.2 < < , ) w.l.3.5 6 k 6 z.z.z.z.z.z.z.z.z.z.z.z.z.z.z.z.z.z.z.z.z.z.z.z.z.z.",
"z.z.z.z.z.z.z.z.z.z.z.z.z.z.z.z.z.z.z.z.z.z.z.z.z.z.1 % < 5 { +.w.:.z 5 4 4 z.z.z.z.z.z.z.z.z.z.z.z.z.z.z.z.z.z.z.z.z.z.z.z.z.z.",
"z.z.z.z.z.z.z.z.z.z.z.z.z.z.z.z.z.z.z.z.z.z.z.z.z.z.- O < ; i { ] ..f r &.t z.z.z.z.z.z.z.z.z.z.z.z.z.z.z.z.z.z.z.z.z.z.z.z.z.z.",
"z.z.z.z.z.z.z.z.z.z.z.z.z.z.z.z.z.z.z.z.z.z.z.z.z.z.8 7 1 < 1 [ $.6 > ,.h.k z.z.z.z.z.z.z.z.z.z.z.z.z.z.z.z.z.z.z.z.z.z.z.z.z.z.",
"z.z.z.z.z.z.z.z.z.z.z.z.z.z.z.z.z.z.z.z.z.z.z.z.z.( / 7.7 e = y y 5 k H K x d.z.z.z.z.z.z.z.z.z.z.z.z.z.z.z.z.z.z.z.z.z.z.z.z.z.",
"z.z.z.z.z.z.z.z.z.z.z.z.z.z.z.z.z.z.z.z.z.z.z.z.=.| $ m 1 1 < 2 5 j D V z s 4.j.z.z.z.z.z.z.z.z.z.z.z.z.z.z.z.z.z.z.z.z.z.z.z.z.",
"z.z.z.z.z.z.z.z.z.z.z.z.z.z.z.z.z.z.z.z.z.z.z.=.=.Q X < 4 < 2 2 0 A x A b > 1.k.h.z.z.z.z.z.z.z.z.z.z.z.z.z.z.z.z.z.z.z.z.z.z.z.",
"z.z.z.z.z.z.z.z.z.z.z.z.z.z.z.z.z.z.z.z.z.z.*.=.;.( = 2 2 < < < 6 A x V c 5 b h.j.p.z.z.z.z.z.z.z.z.z.z.z.z.z.z.z.z.z.z.z.z.z.z.",
"z.z.z.z.z.z.z.z.z.z.z.z.z.z.z.z.z.z.z.z.z.z.{ { ` & : 2 < 2 4 5 @ x A D j 6 # 4.0.=.z.z.z.z.z.z.z.z.z.z.z.z.z.z.z.z.z.z.z.z.z.z.",
"z.z.z.z.z.z.z.z.z.z.z.z.z.z.z.z.z.z.z.z.z.z.z.{ Q = 2 2 2 4 5 y J z x x 0 0 , X.o.=.z.z.z.z.z.z.z.z.z.z.z.z.z.z.z.z.z.z.z.z.z.z.",
"z.z.z.z.z.z.z.z.z.z.z.z.z.z.z.z.z.z.z.z.z.z.z.| w = < < 2 1 : @.j.L B j 6 0 5 v =.z.z.z.z.z.z.z.z.z.z.z.z.z.z.z.z.z.z.z.z.z.z.z.",
"z.z.z.z.z.z.z.z.z.z.z.z.z.z.z.z.z.z.z.z.z.z.z.W & : < 2 < - a -.h.r.V j 6 d d , X.z.z.z.z.z.z.z.z.z.z.z.z.z.z.z.z.z.z.z.z.z.z.z.",
"z.z.z.z.z.z.z.z.z.z.z.z.z.z.z.z.z.z.z.z.z.z.z.1 1 < 4 < 2 : u { ;.#.h 0 0 6 0 6 s z.z.z.z.z.z.z.z.z.z.z.z.z.z.z.z.z.z.z.z.z.z.z.",
"z.z.z.z.z.z.z.z.z.z.z.z.z.z.z.z.z.z.z.z.z.z.j 6 < 3 1 2 1 < 5 ^ ` M j d s s d d 6 z.z.z.z.z.z.z.z.z.z.z.z.z.z.z.z.z.z.z.z.z.z.z.",
"z.z.z.z.z.z.z.z.z.z.z.z.z.z.z.z.z.z.z.z.z.z.6 4 4 2 2 2 1 2 3 6 n 5 d d d s d d 6 6 z.z.z.z.z.z.z.z.z.z.z.z.z.z.z.z.z.z.z.z.z.z.",
"z.z.z.z.z.z.z.z.z.z.z.z.z.z.z.z.z.z.z.z.z.0 3 4 2 2 4 < 2 3 6 4 6 d k d d 6 9 4 4 * 6 z.z.z.z.z.z.z.z.z.z.z.z.z.z.z.z.z.z.z.z.z.",
"z.z.z.z.z.z.z.z.z.z.z.z.z.z.z.z.z.z.z.z.d 6 < 4 4 4 2 4 1 1 6 6 x j d d d d d s 1 * 1 6 z.z.z.z.z.z.z.z.z.z.z.z.z.z.z.z.z.z.z.z.",
"z.z.z.z.z.z.z.z.z.z.z.z.z.z.z.z.z.z.z.s 6 < < < < 2 < 2 < 5 6 0 V 6 6 j s s s d 1 1 * 1 s z.z.z.z.z.z.z.z.z.z.z.z.z.z.z.z.z.z.z.",
"z.z.z.z.z.z.z.z.z.z.z.z.z.z.z.z.z.s 0 6 1 < 6 6 < < < 2 1 1 4 % 6 4 6 k j s d * * * * * * s s z.z.z.z.z.z.z.z.z.z.z.z.z.z.z.z.z.",
"z.z.z.z.z.z.z.z.z.z.z.z.z.z.z.z.z.d 3 # 1 3 6 1 2 2 < 2 2 1 5 @ . 1 0 j k d s 3 * * * 3 * 1 6 z.z.z.z.z.z.z.z.z.z.z.z.z.z.z.z.z.",
"z.z.z.z.z.z.z.z.z.z.z.z.z.z.z.z.s 3 * 1 * 4 6 1 < 5 < < 1 3 1 : $ % d 6 s s s # 3 * * # * * * s z.z.z.z.z.z.z.z.z.z.z.z.z.z.z.z.",
"z.z.z.z.z.z.z.z.z.z.z.z.z.z.z.z.6 * 1 * 1 6 3 1 1 2 2 1 * 6 3 % o % d d d d 3 * * * 1 1 * * 3 s z.z.z.z.z.z.z.z.z.z.z.z.z.z.z.z.",
"z.z.z.z.z.z.z.z.z.z.z.z.z.z.z.z.z.1 * * 1 3 3 1 < < 2 1 * s * o O O 6 d d 6 * * 1 * * * 3 * 3 z.z.z.z.z.z.z.z.z.z.z.z.z.z.z.z.z.",
"z.z.z.z.z.z.z.z.z.z.z.z.z.z.z.z.z.z.z.z.z.z.* 1 2 2 1 < 6 6 % o O o 2 d s 6 * 1 1 * z.z.z.z.z.z.z.z.z.z.z.z.z.z.z.z.z.z.z.z.z.z.",
"z.z.z.z.z.z.z.z.z.z.z.z.z.z.z.z.z.z.z.z.z.z.z.z.z.z.1 * 3 6 * o O o 2 d s 6 z.z.z.z.z.z.z.z.z.z.z.z.z.z.z.z.z.z.z.z.z.z.z.z.z.z.",
"z.z.z.z.z.z.z.z.z.z.z.z.z.z.z.z.z.z.z.z.z.z.z.z.z.z.z.z.z.1 * O O o % z.z.z.z.z.z.z.z.z.z.z.z.z.z.z.z.z.z.z.z.z.z.z.z.z.z.z.z.z.",
"z.z.z.z.z.z.z.z.z.z.z.z.z.z.z.z.z.z.z.z.z.z.z.z.z.z.z.z.z.O * O o O o z.z.z.z.z.z.z.z.z.z.z.z.z.z.z.z.z.z.z.z.z.z.z.z.z.z.z.z.z.",
"z.z.z.z.z.z.z.z.z.z.z.z.z.z.z.z.z.z.z.z.z.z.z.z.z.z.z.z.z.z.z.z.z.z.z.z.z.z.z.z.z.z.z.z.z.z.z.z.z.z.z.z.z.z.z.z.z.z.z.z.z.z.z.z.",
"z.z.z.z.z.z.z.z.z.z.z.z.z.z.z.z.z.z.z.z.z.z.z.z.z.z.z.z.z.z.z.z.z.z.z.z.z.z.z.z.z.z.z.z.z.z.z.z.z.z.z.z.z.z.z.z.z.z.z.z.z.z.z.z."
};
