/* XPM */
static char *result[] = {
/* columns rows colors chars-per-pixel */
"64 64 140 2 ",
"   c #12C111B6184B",
".  c #196E123F1E78",
"X  c #0CF2177121A9",
"o  c #0E9B1F632CEC",
"O  c #1D2416D32354",
"+  c #1E0118BB25CA",
"@  c #10C91D85284C",
"#  c #1DBA1C352AE1",
"$  c #21C4193325B7",
"%  c #22151CC82A75",
"&  c #34601C6129D3",
"*  c #21391F24330F",
"=  c #169B21252D4E",
"-  c #18C422142EF5",
";  c #13F622A12FE4",
":  c #1CD62347337A",
">  c #1CC123F137CC",
",  c #1E082AC33B5E",
"<  c #24BF21332E76",
"1  c #242D2235332D",
"2  c #28F725C635AD",
"3  c #26E125463859",
"4  c #2A6E26F03976",
"5  c #25622A5E3C42",
"6  c #2CC62A243C89",
"7  c #3CEB266536C6",
"8  c #396E23023839",
"9  c #31C72C123E76",
"0  c #3F122A203E93",
"q  c #7A071B492B44",
"w  c #7E631F36398E",
"e  c #43A021DB32CE",
"r  c #4B5C29563D91",
"t  c #595A231A3653",
"y  c #54D7283A3D3B",
"u  c #61B0240D35EB",
"i  c #624222433AE2",
"p  c #6A2226CB3D19",
"a  c #72A725413C6C",
"s  c #19A4347142A8",
"d  c #2CE82CF0405E",
"f  c #30962DA040A5",
"g  c #26F2332843DC",
"h  c #2B493327448F",
"j  c #2B1136164826",
"k  c #2E91397148D8",
"l  c #338731FF43D3",
"z  c #3CC230D342B0",
"x  c #371B36A448E6",
"c  c #393337A24A59",
"v  c #346F3BC94D36",
"b  c #3BDA3BFD4D5C",
"n  c #3DC73EE0512F",
"m  c #4A363279442B",
"M  c #3FD83DBD4F2E",
"N  c #4EB13AD84B6F",
"B  c #3FF03EC65017",
"V  c #574B3BD34FD5",
"C  c #67C92A2B418A",
"Z  c #7CCC38D84998",
"A  c #358740D8526B",
"S  c #3DF3424753B1",
"D  c #3B0A45FD5828",
"F  c #3AF84A7D5B4C",
"G  c #41B944F855E0",
"H  c #4C0644B155AA",
"J  c #439E470557F6",
"K  c #448C48485978",
"L  c #48754BB65EF2",
"P  c #7C2D4DF45878",
"I  c #655C509A5E8F",
"U  c #68C853435EDC",
"Y  c #73844FE45BA9",
"T  c #4C1C4ED66393",
"R  c #424B510567CF",
"E  c #4E225105657C",
"W  c #501753A769D9",
"Q  c #56CB5A557261",
"!  c #5B3E5F4179A6",
"~  c #5EE460077A19",
"^  c #8E3C1BD82E4E",
"/  c #8FC61D7030FB",
"(  c #94CD1D94340C",
")  c #A4181C213ADA",
"_  c #8B0C236A379B",
"`  c #9351249C3EEB",
"'  c #A1EF21A03DA7",
"]  c #D66A1D9E364C",
"[  c #E49C1C1F39A9",
"{  c #FFFF15BD3CD8",
"}  c #FDF219243EF6",
"|  c #C3C521A73A20",
" . c #D5A4209B3996",
".. c #E15420673CB7",
"X. c #835F270F40DC",
"o. c #80502ADA41C7",
"O. c #86E52F8C47E1",
"+. c #AB00263A42CD",
"@. c #FFFF1C6D41E3",
"#. c #D14023874279",
"$. c #DE3B29FD419C",
"%. c #D5BD2A9A48EF",
"&. c #C56C32774F81",
"*. c #E71024CD4495",
"=. c #EF63216A4284",
"-. c #F6A621AE429F",
";. c #FDF0225945A4",
":. c #FFFF23E2484B",
">. c #FD9F2D3C4BFA",
",. c #E78239DB5589",
"<. c #FFFF37C15437",
"1. c #84CB4E8C5AF8",
"2. c #9CC55FCA687C",
"3. c #BE2758456385",
"4. c #A39865F96FC9",
"5. c #A9CF6B1B7337",
"6. c #BB726CB173AD",
"7. c #D2A64A8E5F30",
"8. c #FD8E406559A7",
"9. c #FFFF4A2D60BA",
"0. c #FFFD50FB652B",
"q. c #FFFF55736935",
"w. c #FEC35AB16B66",
"e. c #D0B5646B7053",
"r. c #D7F0699E73B4",
"t. c #F71371037ACE",
"y. c #FEEE73167C38",
"u. c #FF7E79D480D4",
"i. c #CF5A8735891E",
"p. c #DA1C80CF83ED",
"a. c #D637871B8882",
"s. c #E7E5825E849B",
"d. c #F7CA83EF86BC",
"f. c #FFFF82A386FD",
"g. c #FFFF87178A18",
"h. c #FE678BF88D5B",
"j. c #FF5693A79315",
"k. c #FF779AE69731",
"l. c #FFFFA58C9E96",
"z. c None",
/* pixels */
"z.z.z.z.z.z.z.z.z.z.z.z.z.z.z.z.z.z.z.z.z.z.z.z.z.z.z.z.z.z.z.z.z.z.z.z.z.z.z.z.z.z.z.z.z.z.z.z.z.z.z.z.z.z.z.z.z.z.z.z.z.z.z.z.",
"z.z.z.z.z.z.z.z.z.z.z.z.z.z.z.z.z.z.z.z.z.z.z.z.z.z.z.z.z.z.z.z.z.z.z.z.z.z.z.z.z.z.z.z.z.z.z.z.z.z.z.z.z.z.z.z.z.z.z.z.z.z.z.z.",
"z.z.z.z.z.z.z.z.z.z.z.z.z.z.z.z.z.z.z.z.z.z.z.z.z.z.z.z.z.z.z.z.z.z.z.z.z.z.z.z.z.z.z.z.z.z.z.z.z.z.z.z.z.z.z.z.z.z.z.z.z.z.z.z.",
"z.z.z.z.z.z.z.z.z.z.z.z.z.z.z.z.z.z.z.z.z.z.z.z.z.z.z.z.z.z.z.z.z.z.z.z.z.z.z.z.z.z.z.z.z.z.z.z.z.z.z.z.z.z.z.z.z.z.z.z.z.z.z.z.",
"z.z.z.z.z.z.z.z.z.z.z.z.z.z.z.z.z.z.z.z.z.z.z.z.z.z.z.z.z.z.z.z.z.z.z.z.z.z.z.z.z.z.z.z.z.z.z.z.z.z.z.z.z.z.z.z.z.z.z.z.z.z.z.z.",
"z.z.z.z.z.z.z.z.z.z.z.z.z.z.z.z.z.z.z.z.z.z.z.z.z.z.z.z.z.z.z.z.z.z.z.z.z.z.z.z.z.z.z.z.z.z.z.z.z.z.z.z.z.z.z.z.z.z.z.z.z.z.z.z.",
"z.z.z.z.z.z.z.z.z.z.z.z.z.z.z.z.z.z.z.z.z.z.z.z.z.z.z.z.z.z.z.z.z.z.z.z.z.z.z.z.z.z.z.z.z.z.z.z.z.z.z.z.z.z.z.z.z.z.z.z.z.z.z.z.",
"z.z.z.z.z.z.z.z.z.z.z.z.z.z.z.z.z.z.z.z.z.z.z.z.z.z.z.z.z.z.z.z.z.z.z.z.z.z.z.z.z.z.z.z.z.z.z.z.z.z.z.z.z.z.z.z.z.z.z.z.z.z.z.z.",
"z.z.z.z.z.z.z.z.z.z.z.z.z.z.z.z.z.z.z.z.z.z.z.z.z.z.z.z.z.z.z.z.z.z.z.z.z.z.z.z.z.z.z.z.z.z.z.z.z.z.z.z.z.z.z.z.z.z.z.z.z.z.z.z.",
"z.z.z.z.z.z.z.z.z.z.z.z.z.z.z.z.z.z.z.z.z.z.z.z.z.z.z.z.z.z.z.z.z.z.z.z.z.z.z.z.z.z.z.z.z.z.z.z.z.z.z.z.z.z.z.z.z.z.z.z.z.z.z.z.",
"z.z.z.z.z.z.z.z.z.z.z.z.z.z.z.z.z.z.z.z.z.z.z.z.z.z.z.z.z.z.z.z.z.z.z.z.z.z.z.z.z.z.z.z.z.z.z.z.z.z.z.z.z.z.z.z.z.z.z.z.z.z.z.z.",
"z.z.z.z.z.z.z.z.z.z.z.z.z.z.z.z.z.z.z.z.z.z.z.z.z.z.z.z.z.z.z.z.z.z.z.z.z.z.z.z.z.z.z.z.z.z.z.z.z.z.z.z.z.z.z.z.z.z.z.z.z.z.z.z.",
"z.z.z.z.z.z.z.z.z.z.z.z.z.z.z.z.z.z.z.z.z.z.z.z.z.z.z.z.z.z.z.z.z.z.z.z.z.z.z.z.z.z.z.z.z.z.z.z.z.z.z.z.z.z.z.z.z.z.z.z.z.z.z.z.",
"z.z.z.z.z.z.z.z.z.z.z.z.z.z.z.z.z.z.z.z.z.z.z.z.z.z.z.z.z.z.z.z.z.z.z.z.z.z.z.z.z.z.z.z.z.z.z.z.z.z.z.z.z.z.z.z.z.z.z.z.z.z.z.z.",
"z.z.z.z.z.z.z.z.z.z.z.z.z.z.z.z.z.z.z.z.z.z.z.z.z.z.z.z.z.z.z.z.z.z.z.z.z.z.z.z.z.z.z.z.z.z.z.z.z.z.z.z.z.z.z.z.z.z.z.z.z.z.z.z.",
"z.z.z.z.z.z.z.z.z.z.z.z.z.z.z.z.z.z.z.z.z.z.z.z.z.z.z.z.z.z.z.z.z.z.z.z.z.z.z.z.z.z.z.z.z.z.z.z.z.z.z.z.z.z.z.z.z.z.z.z.z.z.z.z.",
"z.z.z.z.z.z.z.z.z.z.z.z.z.z.z.z.z.z.z.z.z.z.z.z.z.z.z.z.z.z.z.z.z.z.z.z.z.z.z.z.z.z.z.z.z.z.z.z.z.z.z.z.z.z.z.z.z.z.z.z.z.z.z.z.",
"z.z.z.z.z.z.z.z.z.z.z.z.z.z.z.z.z.z.z.z.z.z.z.z.z.z.z.z.z.z.z.z.z.z.z.z.z.z.z.z.z.z.z.z.z.z.z.z.z.z.z.z.z.z.z.z.z.z.z.z.z.z.z.z.",
"z.z.z.z.z.z.z.z.z.z.z.z.z.z.z.z.z.z.z.z.z.z.z.z.z.z.z.z.z.z.z.z.z.z.z.z.z.z.z.z.z.z.z.z.z.z.z.z.z.z.z.z.z.z.z.z.z.z.z.z.z.z.z.z.",
"z.z.z.z.z.z.z.z.z.z.z.z.z.z.z.z.z.z.z.z.z.z.z.z.z.z.z.z.z.z.z.z.z.z.z.z.z.z.z.z.z.z.z.z.z.z.z.z.z.z.z.z.z.z.z.z.z.z.z.z.z.z.z.z.",
"z.z.z.z.z.z.z.z.z.z.z.z.z.z.z.z.z.z.z.z.z.z.z.z.z.z.z.z.z.z.z.z.z.z.z.z.z.z.z.z.z.z.z.z.z.z.z.z.z.z.z.z.z.z.z.z.z.z.z.z.z.z.z.z.",
"z.z.z.z.z.z.z.z.z.z.z.z.z.z.z.z.z.z.z.z.z.z.z.z.z.z.z.z.d I t.z.:.#.9 S z.z.z.z.z.z.z.z.z.z.z.z.z.z.z.z.z.z.z.z.z.z.z.z.z.z.z.z.",
"z.z.z.z.z.z.z.z.z.z.z.z.z.z.z.z.z.z.z.z.z.z.z.z.z.z.z.d d a.f.8.>.;.p R ~ z.z.z.z.z.z.z.z.z.z.z.z.z.z.z.z.z.z.z.z.z.z.z.z.z.z.z.",
"z.z.z.z.z.z.z.z.z.z.z.z.z.z.z.z.z.z.z.z.z.z.z.z.z.z.z.4 A 7.g.y.z.:.X.j Q z.z.z.z.z.z.z.z.z.z.z.z.z.z.z.z.z.z.z.z.z.z.z.z.z.z.z.",
"z.z.z.z.z.z.z.z.z.z.z.z.z.z.z.z.z.z.z.z.z.z.z.z.z.z.. 9 D e.<.z.z.z.z.l E ! z.z.z.z.z.z.z.z.z.z.z.z.z.z.z.z.z.z.z.z.z.z.z.z.z.z.",
"z.z.z.z.z.z.z.z.z.z.z.z.z.z.z.z.z.z.z.z.z.z.z.z.z.z.. l D p.q.w.z.;.X.g W ! z.z.z.z.z.z.z.z.z.z.z.z.z.z.z.z.z.z.z.z.z.z.z.z.z.z.",
"z.z.z.z.z.z.z.z.z.z.z.z.z.z.z.z.z.z.z.z.z.z.z.z.z.z.. 4 D 4.g.>.;.;.C k E ! z.z.z.z.z.z.z.z.z.z.z.z.z.z.z.z.z.z.z.z.z.z.z.z.z.z.",
"z.z.z.z.z.z.z.z.z.z.z.z.z.z.z.z.z.z.z.z.z.z.z.z.z.z.z.< c D H z.z.9 z G W z.z.z.z.z.z.z.z.z.z.z.z.z.z.z.z.z.z.z.z.z.z.z.z.z.z.z.",
"z.z.z.z.z.z.z.z.z.z.z.z.z.z.z.z.z.z.z.z.z.z.z.z.z.z.z.O 1 c G x 5 l S T Q z.z.z.z.z.z.z.z.z.z.z.z.z.z.z.z.z.z.z.z.z.z.z.z.z.z.z.",
"z.z.z.z.z.z.z.z.z.z.z.z.z.z.z.z.z.z.z.z.z.z.z.z.z.z.z.z.% 2 c n n G T Q z.z.z.z.z.z.z.z.z.z.z.z.z.z.z.z.z.z.z.z.z.z.z.z.z.z.z.z.",
"z.z.z.z.z.z.z.z.z.z.z.z.z.z.z.z.z.z.z.z.z.z.z.z.z.z.z.z.% + % x J T T l z.z.z.z.z.z.z.z.z.z.z.z.z.z.z.z.z.z.z.z.z.z.z.z.z.z.z.z.",
"z.z.z.z.z.z.z.z.z.z.z.z.z.z.z.z.z.z.z.z.z.z.z.@.:.>.z.z.  + 1 9 c K b 6 z.z.} 0.y.{ z.z.z.z.z.z.z.z.z.z.z.z.z.z.z.z.z.z.z.z.z.z.",
"z.z.z.z.z.z.z.z.z.z.z.z.z.z.z.z.z.z.z.z.z.z.z.w.f.d.z.$ 2 6 2 : 1 f x b 6 z.z.z.z.z.z.z.z.z.z.z.z.z.z.z.z.z.z.z.z.z.z.z.z.z.z.z.",
"z.z.z.z.z.z.z.z.z.z.z.z.z.z.z.z.z.z.z.z.z.z.:.y.k.z.z.+ 2 < : Z 1.5 9 n 5 z.z.z.z.z.z.z.z.z.z.z.z.z.z.z.z.z.z.z.z.z.z.z.z.z.z.z.",
"z.z.z.z.z.z.z.z.z.z.z.z.z.z.z.z.z.z.z.z.z.z.9.z.z.z.z.< < < 7 8.j.H 3 b 4 z.z.z.z.z.z.z.z.z.z.z.z.z.z.z.z.z.z.z.z.z.z.z.z.z.z.z.",
"z.z.z.z.z.z.z.z.z.z.z.z.z.z.z.z.z.z.z.z.z.z.z.z.z.z.1 1 < , ' w.l.5.5 5 j z z.z.z.z.z.z.z.z.z.z.z.z.z.z.z.z.z.z.z.z.z.z.z.z.z.z.",
"z.z.z.z.z.z.z.z.z.z.z.z.z.z.z.z.z.z.z.z.z.z.z.z.z.z.1 < < 5  ...q.,.v 4 w i z.z.z.z.z.z.z.z.z.z.z.z.z.z.z.z.z.z.z.z.z.z.z.z.z.z.",
"z.z.z.z.z.z.z.z.z.z.z.z.z.z.z.z.z.z.z.z.z.z.z.z.z.z.< X < - u  .{ O.s p q.z z.z.z.z.z.z.z.z.z.z.z.z.z.z.z.z.z.z.z.z.z.z.z.z.z.z.",
"z.z.z.z.z.z.z.z.z.z.z.z.z.z.z.z.z.z.z.z.z.z.z.z.z.z.` Z - 1 2 | *.6 : Y a.h z.z.z.z.z.z.z.z.z.z.z.z.z.z.z.z.z.z.z.z.z.z.z.z.z.z.",
"z.z.z.z.z.z.z.z.z.z.z.z.z.z.z.z.z.z.z.z.z.z.z.z.z.' t 3.7 e ; r m 5 b S v M s.z.z.z.z.z.z.z.z.z.z.z.z.z.z.z.z.z.z.z.z.z.z.z.z.z.",
"z.z.z.z.z.z.z.z.z.z.z.z.z.z.z.z.z.z.z.z.z.z.z.z.;...+ = < 1 1 < 4 l G G B d 6.j.z.z.z.z.z.z.z.z.z.z.z.z.z.z.z.z.z.z.z.z.z.z.z.z.",
"z.z.z.z.z.z.z.z.z.z.z.z.z.z.z.z.z.z.z.z.z.z.z.;.;.( = 2 2 < 1 2 6 G b G n > 2.j.h.z.z.z.z.z.z.z.z.z.z.z.z.z.z.z.z.z.z.z.z.z.z.z.",
"z.z.z.z.z.z.z.z.z.z.z.z.z.z.z.z.z.z.z.z.z.z.-.;.>._ ; 2 2 < 2 1 6 S b n b 5 N h.j.u.z.z.z.z.z.z.z.z.z.z.z.z.z.z.z.z.z.z.z.z.z.z.",
"z.z.z.z.z.z.z.z.z.z.z.z.z.z.z.z.z.z.z.z.z.z. . .=.& < 2 < 2 2 3 # b G J x 6 ; 6.q.;.z.z.z.z.z.z.z.z.z.z.z.z.z.z.z.z.z.z.z.z.z.z.",
"z.z.z.z.z.z.z.z.z.z.z.z.z.z.z.z.z.z.z.z.z.z.z. ./ = 1 < 4 2 3 m P v b b 9 9 , +.@.;.z.z.z.z.z.z.z.z.z.z.z.z.z.z.z.z.z.z.z.z.z.z.",
"z.z.z.z.z.z.z.z.z.z.z.z.z.z.z.z.z.z.z.z.z.z.z...q ; < < 2 1 : %.j.U A l 6 f 5 r ;.z.z.z.z.z.z.z.z.z.z.z.z.z.z.z.z.z.z.z.z.z.z.z.",
"z.z.z.z.z.z.z.z.z.z.z.z.z.z.z.z.z.z.z.z.z.z.z.^ & < 1 2 < - a :.h.r.S l 9 f f s +.z.z.z.z.z.z.z.z.z.z.z.z.z.z.z.z.z.z.z.z.z.z.z.",
"z.z.z.z.z.z.z.z.z.z.z.z.z.z.z.z.z.z.z.z.z.z.z.1 1 1 2 2 < : y  .>.&.k f 6 6 9 6 d z.z.z.z.z.z.z.z.z.z.z.z.z.z.z.z.z.z.z.z.z.z.z.",
"z.z.z.z.z.z.z.z.z.z.z.z.z.z.z.z.z.z.z.z.z.z.f 6 1 1 1 2 1 < 5 _ [ V x f f 6 f f f z.z.z.z.z.z.z.z.z.z.z.z.z.z.z.z.z.z.z.z.z.z.z.",
"z.z.z.z.z.z.z.z.z.z.z.z.z.z.z.z.z.z.z.z.z.z.f 4 4 2 2 2 1 4 3 4 m 5 f f f 6 f f 6 6 z.z.z.z.z.z.z.z.z.z.z.z.z.z.z.z.z.z.z.z.z.z.",
"z.z.z.z.z.z.z.z.z.z.z.z.z.z.z.z.z.z.z.z.z.9 2 2 2 2 6 < 2 1 6 6 6 h x f f 6 6 6 4 * 5 z.z.z.z.z.z.z.z.z.z.z.z.z.z.z.z.z.z.z.z.z.",
"z.z.z.z.z.z.z.z.z.z.z.z.z.z.z.z.z.z.z.z.f 6 < 4 2 6 2 2 1 < 6 6 b l f f f f f 6 1 * 1 6 z.z.z.z.z.z.z.z.z.z.z.z.z.z.z.z.z.z.z.z.",
"z.z.z.z.z.z.z.z.z.z.z.z.z.z.z.z.z.z.z.f 6 1 2 1 2 1 < 2 < 2 6 6 G 6 9 l f d f 6 * 1 * * d z.z.z.z.z.z.z.z.z.z.z.z.z.z.z.z.z.z.z.",
"z.z.z.z.z.z.z.z.z.z.z.z.z.z.z.z.z.9 f 5 1 < 2 2 < < < 2 1 1 4 < 6 2 6 x f d f 4 * * 3 * * d f z.z.z.z.z.z.z.z.z.z.z.z.z.z.z.z.z.",
"z.z.z.z.z.z.z.z.z.z.z.z.z.z.z.z.z.d 3 * 1 1 6 2 2 1 1 1 2 1 3 # . 1 6 l c f d 3 * 3 * * * * 6 z.z.z.z.z.z.z.z.z.z.z.z.z.z.z.z.z.",
"z.z.z.z.z.z.z.z.z.z.z.z.z.z.z.z.d 3 * 1 1 4 6 1 < 5 < 1 1 5 1 : + $ l 6 f d 4 * * * * * * * * 6 z.z.z.z.z.z.z.z.z.z.z.z.z.z.z.z.",
"z.z.z.z.z.z.z.z.z.z.z.z.z.z.z.z.5 * 1 * 3 6 2 1 1 2 2 2 * 4 3 # + % f f f f 3 * * * 1 1 * * 3 d z.z.z.z.z.z.z.z.z.z.z.z.z.z.z.z.",
"z.z.z.z.z.z.z.z.z.z.z.z.z.z.z.z.z.1 * * 3 1 1 1 < < 2 1 * 6 * + + + 6 f f 6 1 * 1 * * * 3 * 5 z.z.z.z.z.z.z.z.z.z.z.z.z.z.z.z.z.",
"z.z.z.z.z.z.z.z.z.z.z.z.z.z.z.z.z.z.z.z.z.z.* 1 1 2 < < 6 d % O + O 2 f d 4 * * 1 * z.z.z.z.z.z.z.z.z.z.z.z.z.z.z.z.z.z.z.z.z.z.",
"z.z.z.z.z.z.z.z.z.z.z.z.z.z.z.z.z.z.z.z.z.z.z.z.z.z.* * 4 d * + + O 2 f f 6 z.z.z.z.z.z.z.z.z.z.z.z.z.z.z.z.z.z.z.z.z.z.z.z.z.z.",
"z.z.z.z.z.z.z.z.z.z.z.z.z.z.z.z.z.z.z.z.z.z.z.z.z.z.z.z.z.1 * + + O % z.z.z.z.z.z.z.z.z.z.z.z.z.z.z.z.z.z.z.z.z.z.z.z.z.z.z.z.z.",
"z.z.z.z.z.z.z.z.z.z.z.z.z.z.z.z.z.z.z.z.z.z.z.z.z.z.z.z.z.+ * + O + O z.z.z.z.z.z.z.z.z.z.z.z.z.z.z.z.z.z.z.z.z.z.z.z.z.z.z.z.z.",
"z.z.z.z.z.z.z.z.z.z.z.z.z.z.z.z.z.z.z.z.z.z.z.z.z.z.z.z.z.z.z.z.z.z.z.z.z.z.z.z.z.z.z.z.z.z.z.z.z.z.z.z.z.z.z.z.z.z.z.z.z.z.z.z.",
"z.z.z.z.z.z.z.z.z.z.z.z.z.z.z.z.z.z.z.z.z.z.z.z.z.z.z.z.z.z.z.z.z.z.z.z.z.z.z.z.z.z.z.z.z.z.z.z.z.z.z.z.z.z.z.z.z.z.z.z.z.z.z.z."
};
