/* XPM */
static char * 4_xpm[] = {
"64 64 53 1",
" 	c None",
".	c #161C2E",
"+	c #B16C4D",
"@	c #506A69",
"#	c #8CC3C4",
"$	c #669D9D",
"%	c #D08C41",
"&	c #9E785D",
"*	c #E9F044",
"=	c #D0DEB5",
"-	c #3C474B",
";	c #CEA554",
">	c #FFFFFF",
",	c #B48355",
"'	c #FFE325",
")	c #563915",
"!	c #DAB570",
"~	c #5B4017",
"{	c #787B21",
"]	c #583C15",
"^	c #543514",
"/	c #563815",
"(	c #543414",
"_	c #49321F",
":	c #73742F",
"<	c #888930",
"[	c #5C4517",
"}	c #4B3620",
"|	c #614E19",
"1	c #5A4016",
"2	c #553615",
"3	c #554822",
"4	c #4B3720",
"5	c #544522",
"6	c #4C3720",
"7	c #5B4316",
"8	c #554922",
"9	c #554721",
"0	c #645319",
"a	c #5C4617",
"b	c #656826",
"c	c #514121",
"d	c #594F22",
"e	c #5A5123",
"f	c #604E19",
"g	c #5F4C17",
"h	c #64541A",
"i	c #66581A",
"j	c #5C4616",
"k	c #5C4516",
"l	c #5D4817",
"m	c #685D1B",
"n	c #625218",
"                                                                ",
"                                                                ",
"                                                                ",
"                                                                ",
"                                                                ",
"                                                                ",
"                             ...                                ",
"                           ....  ..                             ",
"                           .      .                             ",
"                                                                ",
"                               +                                ",
"                         ..+++++++@....                         ",
"                       ..#$+++%%++++$&*..                       ",
"                      ..#+++%%%%%++++..#..                      ",
"                     .@$+++%%%%%%++++@$#$@.                     ",
"                  ....@++++++%%%%+++++$#$@....                  ",
"                 ..$@@@++++.+++++++$.##=$@@@$..                 ",
"                .$.$@@@++$@$$++++$@#$@$$@@@@$.$.                ",
"                .$@&&@.$$$@@$$+++$++++&$$.@@$@$.                ",
"               ..$-$;@###..@$##++@+$.;>&##@$$-$..               ",
"              .@@---.@@=##.@$$+++@$$$;*@#@@.---@@.              ",
"              .@@-&&.@$$+++@$$+++.$$$.+$$$@.---@@.              ",
"            ..-@.#>*@@$$$##@@$$+$.$$.##$$$@@.##.@-.             ",
"            -@@@##$.**&@@#####.@+.@##=$$@..$####@.@-            ",
"           -@@.@$##*>*&@@$====.@+..@$$$$@@@####$@.@@-           ",
"           -@.@@$$=**;.@@$$$$$@#####@$$$@&&&##$$@@.@-           ",
"          ....@@@$$$.;.@$$$$$@.#%#=@@$$$.***$$$$@@.*..          ",
"          .@-@@##.$$.@.@$$$$$@@$%$$$@@;*.;**.$.##@@-@.          ",
"         .-@@@@#####@..#.$$$$&&$%$$.##.##.;@#####@@@@-.         ",
"         @-*&@#######@.##@$$$;*@%#####$##.@#######@-@-@         ",
"         @&>;$#######@.@######.%%@$$$$$$@.@#######$.@-@         ",
"         --..$$$$$$$@@.@$$$$$$$%%@@$$$$@@.@@$$$$$$$..--         ",
"        .-@@$$$$$$$$@@.@$$$$$$%%%%$$$$$$@.@@$$$.*$$$@--.        ",
"        .-.@$#$$$$$$@..,.$,$$%%'%%%..$..,..@$$$.>$#$@.-.   )    ",
"    )   .-.@@####$$$..,!!!,!%%%''%%%,!!!,!.%%&&.*.#@@*&. )~{]   ",
"   ^{/( ..#@&&&@$$%%%%%%%%%%%%'''%%%%%%%%%%%%%%*@@@@@#.._:<[    ",
"    /<:}@$##***.%%%%%%%%%%%%%%''''%%%%%%%%%%%%%%@@@@##$@.:| 1)  ",
"     2:.@$##*>*%%%%%%%%%%%%%%''''''%%%%%''%%%%%%%.####$@.3 1<<) ",
"   )( 4.@$#.**%%++%%''''''''''''''''''%%%'''%%+%%#####$@.56{<7  ",
"  ){<44.$$$$$$%++%%''''''''''''''''''%%''''''%++%%$$$$$$.89{{0  ",
"  )a:bc.$$$$$$%++%'''''''''''''''''''''''''''%%+%%$$$$$$. d){0  ",
" ){)ebb@@#$$)%%++%''''''''''>>>'>''''''''''''%%+%%@$$$#@@ ){)   ",
"  ){{_.@$##){%%++%'''''''''>>>'>>>'''''''''''%%+%%)####$@){)    ",
"   )::.@$$)<)%%%+%''''''''>>>>>>>>''>>'''''''%++%%$=@)$$)<)     ",
"   )::.@$$)<)$%%%%%'''''''>>>>>>>>>>'>'''''''%+%%%$$){)$)<)     ",
" )) _))...)<)$%%%%%'''''''>>>>>>>>>>>>''''''%%%%%%)$$)<)<<)     ",
"){<)){<).)<))$%%%%%'''''''>>>>>>>>>>>>''''''%%%%%%<)$)<){{)     ",
" )<<f)<<))){))<%%%%%''''''>>>>>>>>>>>>'''''%%%%%%g{))){){{g     ",
"  h{{{g{{){)<)<%%%%%%''''''>>>>>>>>>>>'''''%%%%%%i{{g{{g{{i     ",
"      g{{g{)<){)%%%%%%''''''>>>>>>>>>>''''%%%%%%{))<i{{i        ",
"         g{j{{k<<%%%%%%''''%%%      .%%%%%%%%%%{{l<<l           ",
"           m{{g{{g{%%%%%%%%               %%%{n  n{{n           ",
"               {{n                                              ",
"                                                                ",
"                                                                ",
"                                                                ",
"                                                                ",
"                                                                ",
"                                                                ",
"                                                                ",
"                                                                ",
"                                                                ",
"                                                                ",
"                                                                "};
