/* XPM */
static char *_a4a23980dab420fef8e58969436475481vPuBPkO5wUttdM[] = {
/* columns rows colors chars-per-pixel */
"64 64 140 2 ",
"   c None",
".  c #131218",
"X  c #19121E",
"o  c #0D1722",
"O  c #0F1F2D",
"+  c #1D1723",
"@  c #1E1926",
"#  c #111D28",
"$  c #1E1C2B",
"%  c #221926",
"&  c #221D2A",
"*  c #341C2A",
"=  c #211F33",
"-  c #17212D",
";  c #19222F",
":  c #142230",
">  c #1D2333",
",  c #1D2438",
"<  c #1E2B3B",
"1  c #25212E",
"2  c #242233",
"3  c #292635",
"4  c #272538",
"5  c #2A2739",
"6  c #252A3C",
"7  c #2D2A3C",
"8  c #3D2637",
"9  c #392338",
"0  c #322C3E",
"q  c #3F2A3E",
"w  c #7A1B2B",
"e  c #7E1F39",
"r  c #432233",
"t  c #4B293D",
"y  c #592336",
"u  c #55283D",
"i  c #612436",
"p  c #62223B",
"a  c #6A273D",
"s  c #72253C",
"d  c #1A3442",
"f  c #2D2D40",
"g  c #302D40",
"h  c #273344",
"j  c #2B3344",
"k  c #2B3648",
"l  c #2E3949",
"z  c #333244",
"x  c #3D3142",
"c  c #373649",
"v  c #39374A",
"b  c #343C4D",
"n  c #3C3C4D",
"m  c #3E3F51",
"M  c #4A3244",
"N  c #403D4F",
"B  c #4E3B4B",
"V  c #403F50",
"C  c #573C50",
"Z  c #672A41",
"A  c #7C3949",
"S  c #354152",
"D  c #3E4253",
"F  c #3B4658",
"G  c #3B4A5B",
"H  c #414556",
"J  c #4C4455",
"K  c #434758",
"L  c #444859",
"P  c #484B5F",
"I  c #7C4E58",
"U  c #65505E",
"Y  c #68535E",
"T  c #73505B",
"R  c #4C4F63",
"E  c #425167",
"W  c #4E5165",
"Q  c #505369",
"!  c #565A72",
"~  c #5B5F79",
"^  c #5F607A",
"/  c #8E1C2E",
"(  c #8F1D31",
")  c #941D34",
"_  c #A31C3B",
"`  c #8B2337",
"'  c #93243F",
"]  c #A1213D",
"[  c #D61E36",
"{  c #E41C39",
"}  c #FF163D",
"|  c #FD193F",
" . c #C3223A",
".. c #D52039",
"X. c #E0203C",
"o. c #832741",
"O. c #802B42",
"+. c #862F48",
"@. c #AA2643",
"#. c #FF1C42",
"$. c #D02342",
"%. c #DD2A41",
"&. c #D52A49",
"*. c #C5324F",
"=. c #E62544",
"-. c #EE2142",
";. c #F62242",
":. c #FD2245",
">. c #FF2448",
",. c #FD2D4C",
"<. c #E73A55",
"1. c #FF3854",
"2. c #844E5B",
"3. c #9C5F68",
"4. c #BD5863",
"5. c #A3666F",
"6. c #A96B73",
"7. c #BB6C73",
"8. c #D24A5F",
"9. c #FD4059",
"0. c #FF4A60",
"q. c #FF5165",
"w. c #FF5569",
"e. c #FE5A6B",
"r. c #D06470",
"t. c #D76973",
"y. c #F6717A",
"u. c #FE737C",
"i. c #FE7980",
"p. c #CF8789",
"a. c #D98083",
"s. c #D58788",
"d. c #E78284",
"f. c #F78386",
"g. c #FF8286",
"h. c #FF878A",
"j. c #FD8B8D",
"k. c #FE9393",
"l. c #FE9A97",
"z. c #FFA59E",
/* pixels */
"                                                                                                                                ",
"                                                                                                                                ",
"                                                                                                                                ",
"                                                                                                                                ",
"                                                                                                                                ",
"                                                                                                                                ",
"                                                                                                                                ",
"                                                                                                                                ",
"                                                                                                                                ",
"                                                                                                                                ",
"                                                                                                                                ",
"                                                                                                                                ",
"                                                                                                                                ",
"                                                                                                                                ",
"                                                                                                                                ",
"                                                                                                                                ",
"                                                                                                                                ",
"                                                                                                                                ",
"                                                                                                                                ",
"                                                                                                                                ",
"                                                                                                                                ",
"                                                        f U y.  >.$.0 m                                                         ",
"                                                      g f s.g.9.,.>.a E ^                                                       ",
"                                                      5 S 8.h.u.  >.o.k !                                                       ",
"                                                    X 0 G r.1.        z W ~                                                     ",
"                                                    X z F a.q.e.  >.o.h W ~                                                     ",
"                                                    X 5 F 5.h.,.:.>.Z b R ~                                                     ",
"                                                      & c F J     0 c H Q                                                       ",
"                                                      + 2 v H c 5 z D P !                                                       ",
"                                                        & 3 v D m H R !                                                         ",
"                                                        $ @ & c H R R z                                                         ",
"                                              #.>.,.    . $ 2 7 c L n 7     | q.u.}                                             ",
"                                              e.g.f.  % 3 5 3 , , g c n 7                                                       ",
"                                            >.u.l.    % 2 1 , O.2.6 0 m 5                                                       ",
"                                            0.        & 1 2 9 0.k.J 4 n 7                                                       ",
"                                                    2 4 & < _ w.z.6.6 7 k 0                                                     ",
"                                                    2 & 1 7 $.%.e.<.b 5 e p                                                     ",
"                                                    1 o & ; i [ | +.d a w.x                                                     ",
"                                                    ' A > 2 2  .=.5 > T p.j                                                     ",
"                                                  ] y 4.8 r ; t t 6 v H b N d.                                                  ",
"                                                >.X.@ $ 2 2 2 2 6 c H H m f 7.k.                                                ",
"                                              :.>.) O 3 3 2 2 3 5 D D D n , 3.k.j.                                              ",
"                                            ;.:.>.) - 3 2 2 2 2 5 D n m n 5 B k.k.i.                                            ",
"                                            ....-.* 2 3 2 3 3 4 > n H K c 0 > 7.w.:.                                            ",
"                                              ..( # 3 2 5 3 4 M I b n n g 0 < ] #.:.                                            ",
"                                              X.w - 3 2 3 2 4 &.k.Y S z 7 g 7 q :.                                              ",
"                                              / * 2 2 2 2 : s >.j.t.D z 7 7 0 < @.                                              ",
"                                              > 2 2 3 2 2 > u ..,.*.l g 7 7 7 7 0                                               ",
"                                            g 7 2 3 2 3 2 2 < ` { C l 0 7 7 g g 7                                               ",
"                                            7 5 5 3 3 4 2 3 3 5 M 6 z 7 g 7 0 z 7 5                                             ",
"                                          g 3 3 3 2 5 1 3 4 7 5 7 0 c z z 7 5 7 4 = 5                                           ",
"                                        g 5 1 5 5 5 3 3 2 2 5 5 n z g z g z 7 7 2 = 2 5                                         ",
"                                      g 7 2 2 2 2 2 2 3 2 2 7 7 H 5 f z f 7 7 5 2 = = 2 5                                       ",
"                                  7 g 7 2 2 5 5 2 2 2 2 2 2 5 2 5 5 7 c z 7 g 5 2 2 = = 2 5 7                                   ",
"                                  g 4 2 2 2 5 2 2 4 2 2 2 2 4 $ X 2 g g c z g 2 2 2 2 2 2 2 5                                   ",
"                                7 4 = 2 = 5 5 2 2 3 2 2 2 5 2 = @ & g 7 g 0 5 = 2 2 2 2 2 2 2 7                                 ",
"                                5 2 2 2 2 5 3 2 2 3 4 2 = 5 4 $ + & g z g 7 4 = 2 2 2 2 2 = 2 7                                 ",
"                                  2 2 2 2 4 2 2 2 2 3 2 2 7 2 @ @ @ 7 0 7 7 2 2 2 2 2 2 2 = 4                                   ",
"                                            = 2 2 3 2 2 5 7 $ + @ + 3 g g 5 = 2 2 =                                             ",
"                                                    2 2 5 7 = @ @ + 3 g 7 5                                                     ",
"                                                          2 = @ @ + &                                                           ",
"                                                          @ = @ @ @ +                                                           ",
"                                                                                                                                ",
"                                                                                                                                "
};
