/* XPM */
static char *_aa58798cfc9480eb12551b0778106e0rbcYYpjkYpAqrfsZ[] = {
/* columns rows colors chars-per-pixel */
"64 64 137 2 ",
"   c None",
".  c #131218",
"X  c #19121E",
"o  c #0F1C25",
"O  c #0E1F2D",
"+  c #1D1723",
"@  c #1E1826",
"#  c #111D28",
"$  c #1E1C2A",
"%  c #231624",
"&  c #221D2A",
"*  c #341C2A",
"=  c #211F33",
"-  c #17212D",
";  c #19222F",
":  c #142230",
">  c #1C2333",
",  c #1D2438",
"<  c #1E2B3B",
"1  c #24212E",
"2  c #242233",
"3  c #292635",
"4  c #262538",
"5  c #2A2739",
"6  c #252B3D",
"7  c #2D2A3C",
"8  c #3B2333",
"9  c #392338",
"0  c #312C3E",
"q  c #3E293D",
"w  c #7A1B2B",
"e  c #4E2132",
"r  c #4B293D",
"t  c #5B263A",
"y  c #55283D",
"u  c #5A293E",
"i  c #612436",
"p  c #6E2036",
"a  c #6F263B",
"s  c #63283D",
"d  c #7A2137",
"f  c #72253B",
"g  c #173543",
"h  c #2E2D40",
"j  c #302D40",
"k  c #293244",
"l  c #2E3649",
"z  c #2E3949",
"x  c #333244",
"c  c #373749",
"v  c #39374A",
"b  c #343C4D",
"n  c #3C3C4D",
"m  c #3E3F51",
"M  c #4A3244",
"N  c #423E4F",
"B  c #4E3B4B",
"V  c #573548",
"C  c #573C50",
"Z  c #653B4F",
"A  c #364152",
"S  c #3E4253",
"D  c #3F4758",
"F  c #3B4B5C",
"G  c #424556",
"H  c #4B4254",
"J  c #434758",
"K  c #444859",
"L  c #484B5F",
"P  c #744156",
"I  c #7C4E58",
"U  c #68535E",
"Y  c #4C4F63",
"T  c #4E5165",
"R  c #455168",
"E  c #505369",
"W  c #565A72",
"Q  c #5B5F79",
"!  c #5E6079",
"~  c #8E1C2E",
"^  c #8F1D31",
"/  c #941D34",
"(  c #A31C3B",
")  c #8B2337",
"_  c #A3223E",
"`  c #AA233A",
"'  c #B3223C",
"]  c #BE233B",
"[  c #D61E36",
"{  c #DF1F39",
"}  c #E01F37",
"|  c #E21E3C",
" . c #E91F3D",
".. c #FF183E",
"X. c #C72037",
"o. c #C82037",
"O. c #C3223A",
"+. c #CB2038",
"@. c #D42039",
"#. c #DB203B",
"$. c #E3213D",
"%. c #832D44",
"&. c #AA2643",
"*. c #BB2A43",
"=. c #A1324C",
"-. c #FF1E42",
";. c #C52A46",
":. c #D12240",
">. c #DD2A41",
",. c #D52A49",
"<. c #D92949",
"1. c #C5324F",
"2. c #E62544",
"3. c #EC2444",
"4. c #F32242",
"5. c #FB2245",
"6. c #FF2448",
"7. c #FF2B49",
"8. c #E73A55",
"9. c #844E5B",
"0. c #9C5F68",
"q. c #A96B73",
"w. c #BB6C73",
"e. c #FF4960",
"r. c #FF5569",
"t. c #FF5869",
"y. c #D76973",
"u. c #FE7980",
"i. c #E68284",
"p. c #FA8C8D",
"a. c #FF8E8F",
"s. c #FB9090",
"d. c #FF9191",
"f. c #FF9594",
"g. c #FF9795",
"h. c #FF9192",
"j. c #FFA59E",
/* pixels */
"                                                                                                                                ",
"                                                                                                                                ",
"                                                                                                                                ",
"                                                                                                                                ",
"                                                                                                                                ",
"                                                                                                                                ",
"                                                                                                                                ",
"                                                                                                                                ",
"                                                                                                                                ",
"                                                                                                                                ",
"                                                                                                                                ",
"                                                                                                                                ",
"                                                                                                                                ",
"                                                                                                                                ",
"                                                                                                                                ",
"                                                                                                                                ",
"                                                                                                                                ",
"                                                                                                                                ",
"                                                                                                                                ",
"                                                                                                                                ",
"                                                                                                                                ",
"                                                        k Z 3.  @.` 7 m                                                         ",
"                                                      0 k <.-.#.@.@.t R !                                                       ",
"                                                      5 A *.5.4.  { a l W                                                       ",
"                                                    X 0 F ;.}         x T Q                                                     ",
"                                                    X x F <. .$.  [ a k T Q                                                     ",
"                                                    X 5 F =.-.@.+.} u b Y Q                                                     ",
"                                                      & c D H     0 c J E                                                       ",
"                                                      + 2 v J c 5 c S L W                                                       ",
"                                                        & 3 v m m J Y W                                                         ",
"                                                        $ @ & c J Y Y x                                                         ",
"                                              @.#.$.    . $ 2 7 v K v 7     X.$.4.o.                                            ",
"                                              5.6.5.  % 3 5 3 , , j c n 7                                                       ",
"                                            @.$.      + 2 1 , %.9.6 0 m 5                                                       ",
"                                            $.        & 1 2 9 e.f.H 4 n 5                                                       ",
"                                                    2 4 & < ( r.j.q.6 7 c s                                                     ",
"                                                    2 & 1 7 :.>.t.8.b q ] p                                                     ",
"                                                    1 o & ; i [ ..%.g d 3.k                                                     ",
"                                                    d f > 2 2 O.2.5 4 V P k                                                     ",
"                                                  _ e ' 8 8 ; r r 6 n D A N i.                                                  ",
"                                                6.$.$ : 2 2 2 4 6 x J J N h w.f.                                                ",
"                                              5.6./ O 3 3 2 2 3 7 S S S n , 0.f.p.                                              ",
"                                            4.5.6./ - 3 2 2 2 2 7 S n m n 5 B s.d.u.                                            ",
"                                            @.@.3.* 2 3 2 3 3 4 ; n G J c 0 > w.r.5.                                            ",
"                                              @.^ # 3 2 3 3 4 M I b n n j 0 < _ -.5.                                            ",
"                                              $.w - 3 2 3 2 4 ,.d.U A x 7 j 7 q 5.                                              ",
"                                              ~ * 2 2 2 2 : f 6.a.y.S x 7 7 0 < &.                                              ",
"                                              > 2 1 3 2 2 > y @.7.1.z 0 7 7 7 7 0                                               ",
"                                            j 7 2 3 2 3 2 2 < ) | C z 0 7 7 j j 7                                               ",
"                                            7 5 5 3 3 4 2 3 3 5 M 6 x 7 j 7 j x 7 5                                             ",
"                                          j 3 3 3 2 7 1 3 4 7 5 7 0 c j j 7 7 7 4 = 5                                           ",
"                                        j 7 1 5 5 5 3 3 2 2 5 7 n x j x j x 7 7 2 = 2 5                                         ",
"                                      j 7 2 2 2 2 2 2 3 2 2 7 7 J 5 h x 7 7 7 5 2 = = 2 5                                       ",
"                                  7 0 7 2 2 5 5 2 2 2 2 2 2 5 2 7 5 7 c x 7 j 5 2 2 = = 2 5 7                                   ",
"                                  j 4 2 2 2 5 2 2 4 2 2 2 2 4 $ X 2 j j v x j 2 2 2 2 2 2 2 5                                   ",
"                                7 4 = 2 = 5 7 2 2 3 2 2 2 5 2 = @ & j 7 j j 5 = 2 2 2 2 2 2 2 7                                 ",
"                                5 2 2 2 2 5 3 2 2 3 4 2 = 5 4 $ + & h x j 7 4 = 2 2 2 2 2 = 2 7                                 ",
"                                  2 2 2 2 4 2 2 2 2 3 2 2 7 2 @ @ @ 7 7 7 7 2 2 2 2 2 2 2 = 4                                   ",
"                                            = 2 2 3 2 2 5 7 $ + @ + 3 j j 5 = 2 2 =                                             ",
"                                                    2 2 5 7 = @ @ + 3 j 7 5                                                     ",
"                                                          2 = @ @ @ &                                                           ",
"                                                          @ = @ @ @ +                                                           ",
"                                                                                                                                ",
"                                                                                                                                "
};
