/* XPM */
static char * 5_xpm[] = {
"64 64 55 1",
" 	c None",
".	c #161C2E",
"+	c #B16C4D",
"@	c #D08C41",
"#	c #506A69",
"$	c #669D9D",
"%	c #9E785D",
"&	c #E9F044",
"*	c #8CC3C4",
"=	c #D0DEB5",
"-	c #FFFFFF",
";	c #3C474B",
">	c #CEA554",
",	c #FFE325",
"'	c #B48355",
")	c #563915",
"!	c #5B4017",
"~	c #787B21",
"{	c #583C15",
"]	c #543514",
"^	c #563815",
"/	c #543414",
"(	c #49321F",
"_	c #73742F",
":	c #888930",
"<	c #5C4517",
"[	c #4B3620",
"}	c #614E19",
"|	c #5A4016",
"1	c #553615",
"2	c #554822",
"3	c #4B3720",
"4	c #544522",
"5	c #4C3720",
"6	c #5B4316",
"7	c #554922",
"8	c #554721",
"9	c #645319",
"0	c #5C4617",
"a	c #656826",
"b	c #514121",
"c	c #594F22",
"d	c #5A5123",
"e	c #604E19",
"f	c #5F4C17",
"g	c #64541A",
"h	c #66581A",
"i	c #583E15",
"j	c #5C4616",
"k	c #5C4516",
"l	c #594016",
"m	c #5D4817",
"n	c #685D1B",
"o	c #604C18",
"p	c #625218",
"                                                                ",
"                                                                ",
"                                                                ",
"                                                                ",
"                             .                                  ",
"                            ..                                  ",
"                                                                ",
"                                                                ",
"                            +++++                               ",
"                           +++@@+++                             ",
"                          +++@@++++                             ",
"                         ....++++##....                         ",
"                       .++$+++++++$+$%&..                       ",
"                      ..+.**$$++$$$++..*..                      ",
"                     .#$*$$$$$+$$$*$$#$*$#.                     ",
"                  ....#$*$&**$++*****#$*$#....                  ",
"                 ..$###$=*-.$$$+$**++**=$###$..                 ",
"                .$.$####$$#$$$$$$$#*$#$$####$.$.                ",
"                .$#%%#.$+$##$+++++**$%%$$.##$#$.                ",
"               ..$;$>#*+*..+++++++++.>-%**#$$;$..               ",
"              .##;;;.##=**++++++++++$>&#*##.;;;##.              ",
"              .##;%%.#$$$.+#$@+++@$$$.#$$$#.;;;##.              ",
"            ..;#.*-&##$$$**#@@++++$$.**$$$##.**.#;.             ",
"            ;###**$.&&%##****@@@@@@**=$$#..$****#.#;            ",
"           ;##.#$**&-&%##$==@@@@@@@@@$$$###****$#.##;           ",
"           ;#.##$$=&&>.##$@@@@@,,,@@@@$$#%%%**$$##.#;           ",
"          ....###$$$.>.#$@@@,,,,,,@@@@@$.&&&$$$$##.&..          ",
"          .#;##**.$$.#.#$@@@,,,,,,,@@@@&.>&&.$.**##;#.          ",
"         .;####*****#..*@@@@,,,--,,@@@@**.>#*****####;.         ",
"         #;&%#*******#.*@@@,,,---,,@@@@**.#*******#;#;#         ",
"         #%->$*******#.#@@@,,,,,,@,@@@@$#.#*******$.#;#         ",
"         ;;..$$$$$$$##.#$@@@@@@@@@@@@@$##.##$$$$$$$..;;         ",
"        .;##$$$$$$$$##.#@@@@@@@@@@@@@@@$#.##$$$.&$$$#;;.        ",
"        .;.#$*$$$$$$#..@@@@@@@@@@@@@@@@@'..#$$$.-$*$#.;.   )    ",
"    )   .;.##****$$$.@@@@@@@@@,,@@,,@@@@@@..$%%.&.*##&%. )!~{   ",
"   ]~^/ ..*#%%%#$$##@@@@@@,,,,,,,,,,,@@@@@@#.>-&#####*..(_:<    ",
"    ^:_[#$**&&&.$$#@@@+@@@,,,,,,,,,,,,@@@@@@.>&&####**$#._} |)  ",
"     1_.#$**&-&.-.@@@++@@,,,,,,--,,,,,@@@@@@..>$..****$#.2 |::) ",
"   )/ 3.#$*.&&>.&>@@@+@@@,,,,,,--,,,,,@,@@@@@***.*****$#.45~:6  ",
"  )~:33.$$$$$$##$$@@++@@@,,,,-----,,,,,,@@@@@$$$.#$$$$$$.78~~9  ",
"  )0_ab.$$$$$$%.$@@@++++@,,,,,----,,,,,,@@@@@$$$..$$$$$$. c)~9  ",
" )~)daa##*$$)#&.$@@@++@+@,,,------,,,,,@@@@@@$$%%)#$$$*## )~)   ",
"  )~~(.#$**)~)-.$@@@@+@+@,,,-------,,,,@@+@@@$.&)~)****$#)~)    ",
"   )__.#$$):)$$.**@@@++@@,,,-,-----,,,,@@+@@@**)))$=#)$$):)     ",
"   )__.#$$):)$$***@@@++@@,,,-------,,,,@++@@@*))~)$$)~)$):)     ",
" )) ())...):)$#=*)@@@++@@,@,-------,,,,@+@@@@*):):)$$):)::)     ",
")~:))~:).):))$)#):@@@@+@@@@,,------,,,,@+@@@~)~~)):)$):)~~)     ",
" )::e)::)))~)):f)~)@@@@@@@@,,------,,,,@@@@@~)~~)f~)))~)~~f     ",
"  g~~~f~~)~):):)~)~@@@@@@@@,,------,,,@@@@@)~~)~~h~~f~~f~~h     ",
"      f~~f~):)~):i~~@@@@@@@@,,-----,,,@@@@@)~~)~~)):h~~h        ",
"         f~j~~k::l~~@@@@@@@,,,-----,,@@@@@~m~~m~~m::m           ",
"           n~~f~~f~~o@@@@@@@,,----,,,@@@@  p~~p  p~~p           ",
"               ~~p     @@@@@@,,---,,@@@@                        ",
"                                                                ",
"                                                                ",
"                                                                ",
"                                                                ",
"                                                                ",
"                                                                ",
"                                                                ",
"                                                                ",
"                                                                ",
"                                                                ",
"                                                                "};
