/* XPM */
static char * 6_xpm[] = {
"64 64 58 1",
" 	c None",
".	c #B16C4D",
"+	c #161C2E",
"@	c #506A69",
"#	c #669D9D",
"$	c #8CC3C4",
"%	c #9E785D",
"&	c #E9F044",
"*	c #D08C41",
"=	c #FFE325",
"-	c #D0DEB5",
";	c #3C474B",
">	c #CEA554",
",	c #FFFFFF",
"'	c #B48355",
")	c #563915",
"!	c #DAB570",
"~	c #5B4017",
"{	c #787B21",
"]	c #583C15",
"^	c #543514",
"/	c #563815",
"(	c #543414",
"_	c #866353",
":	c #49321F",
"<	c #73742F",
"[	c #888930",
"}	c #5C4517",
"|	c #4B3620",
"1	c #614E19",
"2	c #5A4016",
"3	c #553615",
"4	c #554822",
"5	c #4B3720",
"6	c #544522",
"7	c #4C3720",
"8	c #5B4316",
"9	c #554922",
"0	c #554721",
"a	c #645319",
"b	c #5C4617",
"c	c #656826",
"d	c #514121",
"e	c #594F22",
"f	c #5A5123",
"g	c #604E19",
"h	c #5F4C17",
"i	c #64541A",
"j	c #66581A",
"k	c #583E15",
"l	c #5C4616",
"m	c #5C4516",
"n	c #594016",
"o	c #5D4817",
"p	c #685D1B",
"q	c #604C18",
"r	c #66591A",
"s	c #625218",
"                                                                ",
"                                                                ",
"                                                                ",
"                             ..                                 ",
"                             ...                                ",
"                              .                                 ",
"                              .                                 ",
"                              .                                 ",
"                                                                ",
"                         +++++@#@@@++++                         ",
"                       ++$####@####@#%&++                       ",
"                      ++$+$$#######@#++$++                      ",
"                     +@#$##********##@#$#@+                     ",
"                  ++++@#$***======***@#$#@++++                  ",
"                 ++#@@@#****===*******$-#@@@#++                 ",
"                +#+#@@@************$**##@@@@#+#+                ",
"                +#@%%@+##************%%##+@@#@#+                ",
"               ++#;#>@$****************%$$@##;#++               ",
"              +@@;;;+@*****========*=***$@@+;;;@@+              ",
"              +@@;%%+*****=========*******@+;;;@@+              ",
"            ++;@+$,&*****===========*==****@+$$+@;+             ",
"            ;@@@$$#******===,=,,,===**=****#$$$$@+@;            ",
"           ;@@+@#$$*****===,=,,,,,=====****$$$$#@+@@;           ",
"           ;@+@@##-*****===,,,,,,,=====****%$$##@@+@;           ",
"          ++++@@@##*****===,=,,,,,=====****&####@@+&++          ",
"          +@;@@$$+#*******===,,,,=====****&&+#+$$@@;@+          ",
"         +;@@@@$$$$$******====,,,====*****>@$$$$$@@@@;+         ",
"         @;&%@$$$$$$******============****@$$$$$$$@;@;@         ",
"         @%,>#$$$$$$$*******=======*=****+@$$$$$$$#+@;@         ",
"         ;;++#######@@+******=====*=****@+@@#######++;;         ",
"        +;@@########@@+******====**=***#@+@@###+&###@;;+        ",
"        +;+@#$######@++**..**====******+'++@###+,#$#@+;+   )    ",
"    )   +;+@@$$$$###++'!*..***===******!'!++#%%+&+$@@&%+ )~{]   ",
"   ^{/( ++$@%%%@##@@@@+_*..***===******'_+@@+>,&@@@@@$++:<[}    ",
"    /[<|@#$$&&&+##@@@++'*...*===***.***''++@+>&&@@@@$$#@+<1 2)  ",
"     3<+@#$$&,&+,+@++++**...*===***.****'+++++>#++$$$$#@+4 2[[) ",
"   )( 5+@#$+&&>+&>$$$@+*....**==***.****++@$$$$$+$$$$$#@+67{[8  ",
"  ){[55+######@@#####***...***===**..****+@#####+@######+90{{a  ",
"  )b<cd+######%+####****...*.*===**..*****@#####++######+ e){a  ",
" ){)fcc@@$##)@&+####***...*..*===*=*******@####%%)@###$@@ ){)   ",
"  ){{:+@#$$){),+###*******..**=,=*==*******###+&){)$$$$#@){)    ",
"   )<<+@##)[)##+$$$**********==,=====******)$$$)))#-@)##)[)     ",
"   )<<+@##)[)##$$$)*********===,===********[)$)){)##){)#)[)     ",
" )) :))+++)[)#@-$)[********====,,===*******[)$)[)[)##)[)[[)     ",
"){[)){[)+)[))#)@)[)*******===,,,,====******){){{))[)#)[){{)     ",
" )[[g)[[))){))[h){)[*****===,,,,,====******){){{)h{))){){{h     ",
"  i{{{h{{){)[)[){){{*****===,,,,,====*****)){{){{j{{h{{h{{j     ",
"      h{{h{)[){)[k{{)****===,=,,,====****{{){{){{))[j{{j        ",
"         h{l{{m[[n{{){****====,,,===*****{{o{{o{{o[[o           ",
"           p{{h{{h{{q{r ***===,,,==*****   s{{s  s{{s           ",
"               {{s       ****==,,=***                           ",
"                                                                ",
"                                                                ",
"                                                                ",
"                                                                ",
"                                                                ",
"                                                                ",
"                                                                ",
"                                                                ",
"                                                                ",
"                                                                ",
"                                                                ",
"                                                                ",
"                                                                "};
