/* XPM */
static char *result[] = {
/* columns rows colors chars-per-pixel */
"64 64 139 2 ",
"   c #12C111B6184B",
".  c #196E123F1E78",
"X  c #0D2D1F4D2CA1",
"o  c #1D6E16EF2380",
"O  c #1E3218B625B6",
"+  c #10C91D85284C",
"@  c #1EF91C092A28",
"#  c #221C165D2377",
"$  c #21D71C9C2A4F",
"%  c #34601C6129D3",
"&  c #21391F24330F",
"*  c #2E1F1F913468",
"=  c #169B21252D4E",
"-  c #1B08223F2F1E",
";  c #141022962FEA",
":  c #1CDC23733394",
">  c #1CC123F237CD",
",  c #1D212AEC3BE7",
"<  c #239E21772E6C",
"1  c #2422223F3333",
"2  c #295E25503562",
"3  c #26E125463859",
"4  c #2A6B26D93944",
"5  c #24B22A0E3BDE",
"6  c #2CC32A1F3C90",
"7  c #396E23023839",
"8  c #31252C5B3EA0",
"9  c #3BDF29703D80",
"0  c #41161D103ADC",
"q  c #4ACA1D2E3B77",
"w  c #589716BC3775",
"e  c #7A071B492B44",
"r  c #4210227C3466",
"t  c #458F27EB3B7C",
"y  c #4AFB294E3D8B",
"u  c #52B3283D3CF8",
"i  c #61B9241135EB",
"p  c #64C928D63D90",
"a  c #72A725413C6C",
"s  c #7DB1252D3AFA",
"d  c #2E782D114063",
"f  c #308C2DBC40BB",
"g  c #20623653435B",
"h  c #2CFE33084513",
"j  c #255236C948C8",
"k  c #2A9036984928",
"l  c #2E91397148D8",
"z  c #32C831E34370",
"x  c #373D36D148F6",
"c  c #39CB372C4A2C",
"v  c #34ED3AE54C47",
"b  c #3C583C774DBA",
"n  c #3E0B3E8D5159",
"m  c #7A6918FB4565",
"M  c #496832A944D2",
"N  c #4EB13AD84B6F",
"B  c #40153EF8507C",
"V  c #4D083EA954BA",
"C  c #574B3BD34FD5",
"Z  c #63A32EF54206",
"A  c #65C621E14AA8",
"S  c #6BF0272F4A49",
"D  c #368140D052B3",
"F  c #3D8F41FD52F3",
"G  c #3D0A4B585B0E",
"H  c #423144D055D6",
"J  c #48DE42795387",
"K  c #439E470557F6",
"L  c #41EF4AFA5B10",
"P  c #490F4BAF5EEE",
"I  c #7C2D4DF45878",
"U  c #68C853435EDC",
"Y  c #4C3A4ECF6385",
"T  c #4DAA51186581",
"R  c #495650AD6837",
"E  c #50C6539A69D1",
"W  c #56B65A467248",
"Q  c #5B3E5F4179A6",
"!  c #5D2B601F79FF",
"~  c #8E3C1BD82E4E",
"^  c #8FC61D7030FB",
"/  c #94EA1D963413",
"(  c #9A451A7D3931",
")  c #A32C0BCA3CE8",
"_  c #B8980F123BBA",
"`  c #A52913253D96",
"'  c #AD29162B3CAF",
"]  c #A4181C213ADA",
"[  c #B0D212EC3B97",
"{  c #B7F518FC3B2B",
"}  c #BC411B293A86",
"|  c #8B0C236A379B",
" . c #8245242939E4",
".. c #A3E122EF3DBC",
"X. c #C44A1C9C3922",
"o. c #C9491E2B3909",
"O. c #D6691D9D364C",
"+. c #DD971F773B11",
"@. c #E3DB1E6F378B",
"#. c #E49C1C1F39A9",
"$. c #FFFF17DE3E33",
"%. c #C3C221AB3A1F",
"&. c #CDC020CB3879",
"*. c #D421210638FD",
"=. c #E0AE21213AD0",
"-. c #84B409B841F3",
";. c #8D4909E24089",
":. c #912D0D16405E",
">. c #8A4B1BB84454",
",. c #82ED2CFB44BB",
"<. c #9829229A4179",
"1. c #AB00263A42CD",
"2. c #B0D32FEE43A9",
"3. c #FFFF1DBF4351",
"4. c #D18D228140B3",
"5. c #DE3B29FD419C",
"6. c #D5BD2A9A48EF",
"7. c #C56C32774F81",
"8. c #E71024CD4495",
"9. c #EF63216A4284",
"0. c #F6A621AE429F",
"q. c #FBEE222B4521",
"w. c #FFFF23C74864",
"e. c #FFFF2B3A4942",
"r. c #E76E39E05590",
"t. c #84CB4E8C5AF8",
"y. c #9CC55FCA687C",
"u. c #A9D36B1A7336",
"i. c #BB766CB973B2",
"p. c #FFFF49666050",
"a. c #FFFF556F68EA",
"s. c #FFFF58BD69C3",
"d. c #D7F0699E73B4",
"f. c #FF7E79D480D4",
"g. c #E7D08210845C",
"h. c #FD9C8DBC8E47",
"j. c #FF5693A69315",
"k. c #FFFFA58C9E96",
"l. c None",
/* pixels */
"l.l.l.l.l.l.l.l.l.l.l.l.l.l.l.l.l.l.l.l.l.l.l.l.l.l.l.l.l.l.l.l.l.l.l.l.l.l.l.l.l.l.l.l.l.l.l.l.l.l.l.l.l.l.l.l.l.l.l.l.l.l.l.l.",
"l.l.l.l.l.l.l.l.l.l.l.l.l.l.l.l.l.l.l.l.l.l.l.l.l.l.l.l.l.l.l.l.l.l.l.l.l.l.l.l.l.l.l.l.l.l.l.l.l.l.l.l.l.l.l.l.l.l.l.l.l.l.l.l.",
"l.l.l.l.l.l.l.l.l.l.l.l.l.l.l.l.l.l.l.l.l.l.l.l.l.l.l.l.l.l.l.l.l.l.l.l.l.l.l.l.l.l.l.l.l.l.l.l.l.l.l.l.l.l.l.l.l.l.l.l.l.l.l.l.",
"l.l.l.l.l.l.l.l.l.l.l.l.l.l.l.l.l.l.l.l.l.l.l.l.l.l.l.l.l.l.l.l.l.l.l.l.l.l.l.l.l.l.l.l.l.l.l.l.l.l.l.l.l.l.l.l.l.l.l.l.l.l.l.l.",
"l.l.l.l.l.l.l.l.l.l.l.l.l.l.l.l.l.l.l.l.l.l.l.l.l.l.l.l.l.l.l.l.l.l.l.l.l.l.l.l.l.l.l.l.l.l.l.l.l.l.l.l.l.l.l.l.l.l.l.l.l.l.l.l.",
"l.l.l.l.l.l.l.l.l.l.l.l.l.l.l.l.l.l.l.l.l.l.l.l.l.l.l.l.l.l.l.l.l.l.l.l.l.l.l.l.l.l.l.l.l.l.l.l.l.l.l.l.l.l.l.l.l.l.l.l.l.l.l.l.",
"l.l.l.l.l.l.l.l.l.l.l.l.l.l.l.l.l.l.l.l.l.l.l.l.l.l.l.l.l.l.l.l.l.l.l.l.l.l.l.l.l.l.l.l.l.l.l.l.l.l.l.l.l.l.l.l.l.l.l.l.l.l.l.l.",
"l.l.l.l.l.l.l.l.l.l.l.l.l.l.l.l.l.l.l.l.l.l.l.l.l.l.l.l.l.l.l.l.l.l.l.l.l.l.l.l.l.l.l.l.l.l.l.l.l.l.l.l.l.l.l.l.l.l.l.l.l.l.l.l.",
"l.l.l.l.l.l.l.l.l.l.l.l.l.l.l.l.l.l.l.l.l.l.l.l.l.l.l.l.l.l.l.l.l.l.l.l.l.l.l.l.l.l.l.l.l.l.l.l.l.l.l.l.l.l.l.l.l.l.l.l.l.l.l.l.",
"l.l.l.l.l.l.l.l.l.l.l.l.l.l.l.l.l.l.l.l.l.l.l.l.l.l.l.l.l.l.l.l.l.l.l.l.l.l.l.l.l.l.l.l.l.l.l.l.l.l.l.l.l.l.l.l.l.l.l.l.l.l.l.l.",
"l.l.l.l.l.l.l.l.l.l.l.l.l.l.l.l.l.l.l.l.l.l.l.l.l.l.l.l.l.l.l.l.l.l.l.l.l.l.l.l.l.l.l.l.l.l.l.l.l.l.l.l.l.l.l.l.l.l.l.l.l.l.l.l.",
"l.l.l.l.l.l.l.l.l.l.l.l.l.l.l.l.l.l.l.l.l.l.l.l.l.l.l.l.l.l.l.l.l.l.l.l.l.l.l.l.l.l.l.l.l.l.l.l.l.l.l.l.l.l.l.l.l.l.l.l.l.l.l.l.",
"l.l.l.l.l.l.l.l.l.l.l.l.l.l.l.l.l.l.l.l.l.l.l.l.l.l.l.l.l.l.l.l.l.l.l.l.l.l.l.l.l.l.l.l.l.l.l.l.l.l.l.l.l.l.l.l.l.l.l.l.l.l.l.l.",
"l.l.l.l.l.l.l.l.l.l.l.l.l.l.l.l.l.l.l.l.l.l.l.l.l.l.l.l.l.l.l.l.l.l.l.l.l.l.l.l.l.l.l.l.l.l.l.l.l.l.l.l.l.l.l.l.l.l.l.l.l.l.l.l.",
"l.l.l.l.l.l.l.l.l.l.l.l.l.l.l.l.l.l.l.l.l.l.l.l.l.l.l.l.l.l.l.l.l.l.l.l.l.l.l.l.l.l.l.l.l.l.l.l.l.l.l.l.l.l.l.l.l.l.l.l.l.l.l.l.",
"l.l.l.l.l.l.l.l.l.l.l.l.l.l.l.l.l.l.l.l.l.l.l.l.l.l.l.l.l.l.l.l.l.l.l.l.l.l.l.l.l.l.l.l.l.l.l.l.l.l.l.l.l.l.l.l.l.l.l.l.l.l.l.l.",
"l.l.l.l.l.l.l.l.l.l.l.l.l.l.l.l.l.l.l.l.l.l.l.l.l.l.l.l.l.l.l.l.l.l.l.l.l.l.l.l.l.l.l.l.l.l.l.l.l.l.l.l.l.l.l.l.l.l.l.l.l.l.l.l.",
"l.l.l.l.l.l.l.l.l.l.l.l.l.l.l.l.l.l.l.l.l.l.l.l.l.l.l.l.l.l.l.l.l.l.l.l.l.l.l.l.l.l.l.l.l.l.l.l.l.l.l.l.l.l.l.l.l.l.l.l.l.l.l.l.",
"l.l.l.l.l.l.l.l.l.l.l.l.l.l.l.l.l.l.l.l.l.l.l.l.l.l.l.l.l.l.l.l.l.l.l.l.l.l.l.l.l.l.l.l.l.l.l.l.l.l.l.l.l.l.l.l.l.l.l.l.l.l.l.l.",
"l.l.l.l.l.l.l.l.l.l.l.l.l.l.l.l.l.l.l.l.l.l.l.l.l.l.l.l.l.l.l.l.l.l.l.l.l.l.l.l.l.l.l.l.l.l.l.l.l.l.l.l.l.l.l.l.l.l.l.l.l.l.l.l.",
"l.l.l.l.l.l.l.l.l.l.l.l.l.l.l.l.l.l.l.l.l.l.l.l.l.l.l.l.l.l.l.l.l.l.l.l.l.l.l.l.l.l.l.l.l.l.l.l.l.l.l.l.l.l.l.l.l.l.l.l.l.l.l.l.",
"l.l.l.l.l.l.l.l.l.l.l.l.l.l.l.l.l.l.l.l.l.l.l.l.l.l.l.l.f H l.l.l.l.6 B l.l.l.l.l.l.l.l.l.l.l.l.l.l.l.l.l.l.l.l.l.l.l.l.l.l.l.l.",
"l.l.l.l.l.l.l.l.l.l.l.l.l.l.l.l.l.l.l.l.l.l.l.l.l.l.l.6 z A ) } o.&.t R ! l.l.l.l.l.l.l.l.l.l.l.l.l.l.l.l.l.l.l.l.l.l.l.l.l.l.l.",
"l.l.l.l.l.l.l.l.l.l.l.l.l.l.l.l.l.l.l.l.l.l.l.l.l.l.l.6 D >.;.' l.*.s k W l.l.l.l.l.l.l.l.l.l.l.l.l.l.l.l.l.l.l.l.l.l.l.l.l.l.l.",
"l.l.l.l.l.l.l.l.l.l.l.l.l.l.l.l.l.l.l.l.l.l.l.l.l.l.. 8 G <.' l.l.l.l.z T Q l.l.l.l.l.l.l.l.l.l.l.l.l.l.l.l.l.l.l.l.l.l.l.l.l.l.",
"l.l.l.l.l.l.l.l.l.l.l.l.l.l.l.l.l.l.l.l.l.l.l.l.l.l.. z L m o.l.l.l.y h T Q l.l.l.l.l.l.l.l.l.l.l.l.l.l.l.l.l.l.l.l.l.l.l.l.l.l.",
"l.l.l.l.l.l.l.l.l.l.l.l.l.l.l.l.l.l.l.l.l.l.l.l.l.l.. 4 G m ) { *.=.p D Y Q l.l.l.l.l.l.l.l.l.l.l.l.l.l.l.l.l.l.l.l.l.l.l.l.l.l.",
"l.l.l.l.l.l.l.l.l.l.l.l.l.l.l.l.l.l.l.l.l.l.l.l.l.l.l.$ v C S l.l. .M F E l.l.l.l.l.l.l.l.l.l.l.l.l.l.l.l.l.l.l.l.l.l.l.l.l.l.l.",
"l.l.l.l.l.l.l.l.l.l.l.l.l.l.l.l.l.l.l.l.l.l.l.l.l.l.l.o 2 x G j , h D P W l.l.l.l.l.l.l.l.l.l.l.l.l.l.l.l.l.l.l.l.l.l.l.l.l.l.l.",
"l.l.l.l.l.l.l.l.l.l.l.l.l.l.l.l.l.l.l.l.l.l.l.l.l.l.l.l.$ 2 x B n H Y Q l.l.l.l.l.l.l.l.l.l.l.l.l.l.l.l.l.l.l.l.l.l.l.l.l.l.l.l.",
"l.l.l.l.l.l.l.l.l.l.l.l.l.l.l.l.l.l.l.l.l.l.l.l.l.l.l.l.@ O $ x H Y Y z l.l.l.l.l.l.l.l.l.l.l.l.l.l.l.l.l.l.l.l.l.l.l.l.l.l.l.l.",
"l.l.l.l.l.l.l.l.l.l.l.l.l.l.l.l.l.l.l.l.l.l.l.-.;.l.l.l.  @ 1 8 c L b 6 l.l.-.` X.l.l.l.l.l.l.l.l.l.l.l.l.l.l.l.l.l.l.l.l.l.l.l.",
"l.l.l.l.l.l.l.l.l.l.l.l.l.l.l.l.l.l.l.l.l.l.l.[ X.%.l.# < 6 2 , : f x b 8 l.l.` { -.l.l.l.l.l.l.l.l.l.l.l.l.l.l.l.l.l.l.l.l.l.l.",
"l.l.l.l.l.l.l.l.l.l.l.l.l.l.l.l.l.l.l.l.l.l.l.o.*.l.l.o 2 < ,  .t.5 f n 4 l.l.l.l.l.l.l.l.l.l.l.l.l.l.l.l.l.l.l.l.l.l.l.l.l.l.l.",
"l.l.l.l.l.l.l.l.l.l.l.l.l.l.l.l.l.l.l.l.l.l.:.l.l.l.l.< < < 7 p.j.J 3 b 6 l.l.l.l.l.l.l.l.l.l.l.l.l.l.l.l.l.l.l.l.l.l.l.l.l.l.l.",
"l.l.l.l.l.l.l.l.l.l.l.l.l.l.l.l.l.l.l.l.l.l.' l.l.l.2 < < , ..s.k.u.5 6 z 8 l.l.l.l.l.l.l.l.l.l.l.l.l.l.l.l.l.l.l.l.l.l.l.l.l.l.",
"l.l.l.l.l.l.l.l.l.l.l.l.l.l.l.l.l.l.l.l.l.l.l.l.l.l.2 @ < 5 *.=.s.r.v 4 q 0 l.l.l.l.l.l.l.l.l.l.l.l.l.l.l.l.l.l.l.l.l.l.l.l.l.l.",
"l.l.l.l.l.l.l.l.l.l.l.l.l.l.l.l.l.l.l.l.l.l.l.l.l.l.- O < - i *.$.,.g q [ 9 l.l.l.l.l.l.l.l.l.l.l.l.l.l.l.l.l.l.l.l.l.l.l.l.l.l.",
"l.l.l.l.l.l.l.l.l.l.l.l.l.l.l.l.l.l.l.l.l.l.l.l.l.l.2 2 1 < 1 %.8.6 , Z 2.z l.l.l.l.l.l.l.l.l.l.l.l.l.l.l.l.l.l.l.l.l.l.l.l.l.l.",
"l.l.l.l.l.l.l.l.l.l.l.l.l.l.l.l.l.l.l.l.l.l.l.l.l...w ( 2 2 - y M 5 b H D B g.l.l.l.l.l.l.l.l.l.l.l.l.l.l.l.l.l.l.l.l.l.l.l.l.l.",
"l.l.l.l.l.l.l.l.l.l.l.l.l.l.l.l.l.l.l.l.l.l.l.l.w.*.$ r 2 * 1 < 4 z K H B d i.j.l.l.l.l.l.l.l.l.l.l.l.l.l.l.l.l.l.l.l.l.l.l.l.l.",
"l.l.l.l.l.l.l.l.l.l.l.l.l.l.l.l.l.l.l.l.l.l.l.w.w./ = 1 2 < 1 4 6 B n H b > y.j.h.l.l.l.l.l.l.l.l.l.l.l.l.l.l.l.l.l.l.l.l.l.l.l.",
"l.l.l.l.l.l.l.l.l.l.l.l.l.l.l.l.l.l.l.l.l.l.0.q.e./ - < < < < 1 6 F b b n 6 N h.j.f.l.l.l.l.l.l.l.l.l.l.l.l.l.l.l.l.l.l.l.l.l.l.",
"l.l.l.l.l.l.l.l.l.l.l.l.l.l.l.l.l.l.l.l.l.l.*.*.9.% 1 2 2 2 4 2 @ b H K z 6 & i.a.q.l.l.l.l.l.l.l.l.l.l.l.l.l.l.l.l.l.l.l.l.l.l.",
"l.l.l.l.l.l.l.l.l.l.l.l.l.l.l.l.l.l.l.l.l.l.l.*.^ = 1 2 4 2 5 y I v b b d 6 , <.3.q.l.l.l.l.l.l.l.l.l.l.l.l.l.l.l.l.l.l.l.l.l.l.",
"l.l.l.l.l.l.l.l.l.l.l.l.l.l.l.l.l.l.l.l.l.l.l.=.e = < < 2 2 : 6.j.U n z 6 f 5 M q.l.l.l.l.l.l.l.l.l.l.l.l.l.l.l.l.l.l.l.l.l.l.l.",
"l.l.l.l.l.l.l.l.l.l.l.l.l.l.l.l.l.l.l.l.l.l.l.~ % : 2 1 < - a e.j.d.F z 6 f f , 1.l.l.l.l.l.l.l.l.l.l.l.l.l.l.l.l.l.l.l.l.l.l.l.",
"l.l.l.l.l.l.l.l.l.l.l.l.l.l.l.l.l.l.l.l.l.l.l.1 1 < 2 2 < : u *.e.7.l f f 6 8 6 8 l.l.l.l.l.l.l.l.l.l.l.l.l.l.l.l.l.l.l.l.l.l.l.",
"l.l.l.l.l.l.l.l.l.l.l.l.l.l.l.l.l.l.l.l.l.l.f 6 2 2 1 2 1 < , | #.C z 8 d 6 f f d l.l.l.l.l.l.l.l.l.l.l.l.l.l.l.l.l.l.l.l.l.l.l.",
"l.l.l.l.l.l.l.l.l.l.l.l.l.l.l.l.l.l.l.l.l.l.6 4 4 2 2 2 1 3 4 4 M 5 z 8 f 6 f f 6 6 l.l.l.l.l.l.l.l.l.l.l.l.l.l.l.l.l.l.l.l.l.l.",
"l.l.l.l.l.l.l.l.l.l.l.l.l.l.l.l.l.l.l.l.l.d 2 2 4 1 3 < 2 2 6 4 d z c f f d 6 6 3 & 6 l.l.l.l.l.l.l.l.l.l.l.l.l.l.l.l.l.l.l.l.l.",
"l.l.l.l.l.l.l.l.l.l.l.l.l.l.l.l.l.l.l.l.f 6 1 4 4 6 2 4 2 1 4 6 b z f f f f 6 d 1 & 1 6 l.l.l.l.l.l.l.l.l.l.l.l.l.l.l.l.l.l.l.l.",
"l.l.l.l.l.l.l.l.l.l.l.l.l.l.l.l.l.l.l.d 6 1 < 2 < 2 < 2 < 5 6 6 F 4 8 z d d d 4 1 & & 3 d l.l.l.l.l.l.l.l.l.l.l.l.l.l.l.l.l.l.l.",
"l.l.l.l.l.l.l.l.l.l.l.l.l.l.l.l.l.d f 6 1 < 4 4 < < < 1 1 1 4 1 6 4 6 x f d d 4 & & & & & d d l.l.l.l.l.l.l.l.l.l.l.l.l.l.l.l.l.",
"l.l.l.l.l.l.l.l.l.l.l.l.l.l.l.l.l.d 3 & 1 1 4 2 2 2 < 1 1 1 2 @ . 2 z 8 x f d 3 & 3 & & & & 6 l.l.l.l.l.l.l.l.l.l.l.l.l.l.l.l.l.",
"l.l.l.l.l.l.l.l.l.l.l.l.l.l.l.l.d 1 & 1 1 3 6 1 < 5 < 2 1 4 2 : O $ d 6 d d d & & & & 1 & & & 6 l.l.l.l.l.l.l.l.l.l.l.l.l.l.l.l.",
"l.l.l.l.l.l.l.l.l.l.l.l.l.l.l.l.6 & & & 1 4 4 1 2 2 1 2 & 4 3 $ o $ f f f f 3 & & & 1 1 & & 3 d l.l.l.l.l.l.l.l.l.l.l.l.l.l.l.l.",
"l.l.l.l.l.l.l.l.l.l.l.l.l.l.l.l.l.1 1 & 1 3 1 3 < < 2 1 & d & o O O 6 d f 6 1 & 1 & & & 3 & 5 l.l.l.l.l.l.l.l.l.l.l.l.l.l.l.l.l.",
"l.l.l.l.l.l.l.l.l.l.l.l.l.l.l.l.l.l.l.l.l.l.& 1 2 2 1 < 4 d @ o O o 2 f d 4 & & 1 & l.l.l.l.l.l.l.l.l.l.l.l.l.l.l.l.l.l.l.l.l.l.",
"l.l.l.l.l.l.l.l.l.l.l.l.l.l.l.l.l.l.l.l.l.l.l.l.l.l.1 & 3 d & O O o 2 f d 6 l.l.l.l.l.l.l.l.l.l.l.l.l.l.l.l.l.l.l.l.l.l.l.l.l.l.",
"l.l.l.l.l.l.l.l.l.l.l.l.l.l.l.l.l.l.l.l.l.l.l.l.l.l.l.l.l.1 & O O o $ l.l.l.l.l.l.l.l.l.l.l.l.l.l.l.l.l.l.l.l.l.l.l.l.l.l.l.l.l.",
"l.l.l.l.l.l.l.l.l.l.l.l.l.l.l.l.l.l.l.l.l.l.l.l.l.l.l.l.l.O & O o O o l.l.l.l.l.l.l.l.l.l.l.l.l.l.l.l.l.l.l.l.l.l.l.l.l.l.l.l.l.",
"l.l.l.l.l.l.l.l.l.l.l.l.l.l.l.l.l.l.l.l.l.l.l.l.l.l.l.l.l.l.l.l.l.l.l.l.l.l.l.l.l.l.l.l.l.l.l.l.l.l.l.l.l.l.l.l.l.l.l.l.l.l.l.l.",
"l.l.l.l.l.l.l.l.l.l.l.l.l.l.l.l.l.l.l.l.l.l.l.l.l.l.l.l.l.l.l.l.l.l.l.l.l.l.l.l.l.l.l.l.l.l.l.l.l.l.l.l.l.l.l.l.l.l.l.l.l.l.l.l."
};
