/* XPM */
static char *d4820676cede402197afecc7302d0cd3Tn2hms2vE7HRMCgr[] = {
/* columns rows colors chars-per-pixel */
"64 64 140 2 ",
"   c None",
".  c #131218",
"X  c #19121E",
"o  c #0D1F2C",
"O  c #1D1723",
"+  c #1E1926",
"@  c #111D28",
"#  c #1F1C2A",
"$  c #221623",
"%  c #221C2A",
"&  c #341C2A",
"*  c #211F33",
"=  c #2E1F34",
"-  c #17212D",
";  c #1B222F",
":  c #142230",
">  c #1D2333",
",  c #1D2438",
"<  c #1D2B3C",
"1  c #23212E",
"2  c #242233",
"3  c #292535",
"4  c #272538",
"5  c #2A2739",
"6  c #252A3C",
"7  c #2D2A3C",
"8  c #392338",
"9  c #312C3E",
"0  c #3C293D",
"q  c #411D3B",
"w  c #4A1D3B",
"e  c #581737",
"r  c #7A1B2B",
"t  c #422234",
"y  c #45283B",
"u  c #4B293D",
"i  c #52283D",
"p  c #612436",
"a  c #64293D",
"s  c #72253C",
"d  c #7D253B",
"f  c #2E2D40",
"g  c #302E40",
"h  c #203643",
"j  c #2D3345",
"k  c #253748",
"l  c #2A3649",
"z  c #2E3949",
"x  c #333243",
"c  c #373749",
"v  c #3A374A",
"b  c #353B4C",
"n  c #3C3C4D",
"m  c #3E3E51",
"M  c #7A1945",
"N  c #493245",
"B  c #4E3B4B",
"V  c #403F50",
"C  c #4D3E54",
"Z  c #573C50",
"A  c #632F42",
"S  c #65224A",
"D  c #6C274A",
"F  c #364152",
"G  c #3D4253",
"H  c #3D4B5B",
"J  c #424556",
"K  c #494253",
"L  c #434758",
"P  c #424B5B",
"I  c #494B5F",
"U  c #7C4E58",
"Y  c #68535E",
"T  c #4C4F63",
"R  c #4D5165",
"E  c #495068",
"W  c #505369",
"Q  c #565A72",
"!  c #5B5F79",
"~  c #5D607A",
"^  c #8E1C2E",
"/  c #8F1D31",
"(  c #941D34",
")  c #9A1A39",
"_  c #A30C3D",
"`  c #B80F3B",
"'  c #A5133D",
"]  c #AC163C",
"[  c #A31C3B",
"{  c #B0133B",
"}  c #B7193B",
"|  c #BC1B3A",
" . c #8B2337",
".. c #82243A",
"X. c #A3233D",
"o. c #C41C39",
"O. c #C91E39",
"+. c #D61D36",
"@. c #DD1F3B",
"#. c #E31E37",
"$. c #E41C39",
"%. c #FF183E",
"&. c #C3223A",
"*. c #CD2138",
"=. c #D32139",
"-. c #E0213B",
";. c #840A42",
":. c #8D0A40",
">. c #910D40",
",. c #8A1C44",
"<. c #822D44",
"1. c #982241",
"2. c #AA2643",
"3. c #B03043",
"4. c #FF1E43",
"5. c #D12240",
"6. c #DD2A41",
"7. c #D52A49",
"8. c #C5324F",
"9. c #E62544",
"0. c #EE2142",
"q. c #F62242",
"w. c #FB2245",
"e. c #FF2448",
"r. c #FF2B49",
"t. c #E73A55",
"y. c #844E5B",
"u. c #9C5F68",
"i. c #A96B73",
"p. c #BB6C73",
"a. c #FF4960",
"s. c #FF5569",
"d. c #FF5869",
"f. c #D76973",
"g. c #FE7980",
"h. c #E78284",
"j. c #FD8D8E",
"k. c #FF9594",
"l. c #FE9191",
"z. c #FFA59E",
/* pixels */
"                                                                                                                                ",
"                                                                                                                                ",
"                                                                                                                                ",
"                                                                                                                                ",
"                                                                                                                                ",
"                                                                                                                                ",
"                                                                                                                                ",
"                                                                                                                                ",
"                                                                                                                                ",
"                                                                                                                                ",
"                                                                                                                                ",
"                                                                                                                                ",
"                                                                                                                                ",
"                                                                                                                                ",
"                                                                                                                                ",
"                                                                                                                                ",
"                                                                                                                                ",
"                                                                                                                                ",
"                                                                                                                                ",
"                                                                                                                                ",
"                                                                                                                                ",
"                                                        g G         7 m                                                         ",
"                                                      7 x S _ | O.*.y E ~                                                       ",
"                                                      5 F ,.:.]   @.d l Q                                                       ",
"                                                    X 9 H 1.{         x R !                                                     ",
"                                                    X x P M O.      i j R !                                                     ",
"                                                    X 5 P M _ } =.#.a b T !                                                     ",
"                                                      % c C D     ..N G W                                                       ",
"                                                      O 2 c H k < l F I Q                                                       ",
"                                                        % 3 v V V J T Q                                                         ",
"                                                        # + % c J T T x                                                         ",
"                                              ;.:.      . # 2 7 v L n 7     ;.' o.                                              ",
"                                              ] o.o.  $ 3 5 3 , , g c n 7     ' } ;.                                            ",
"                                              *.=.    O 2 1 , <.y.6 9 m 5                                                       ",
"                                            >.        % 1 2 8 a.k.K 4 n 7                                                       ",
"                                            '       2 4 % < [ s.z.i.6 7 x 9                                                     ",
"                                                    2 % 1 7 5.6.d.t.b 7 w q                                                     ",
"                                                    1 + % ; p +.%.<.h w ` 0                                                     ",
"                                                    = 3 2 2 2 &.9.5 6 A 3.j                                                     ",
"                                                  X.e ) 3 3 ; y u 6 n J F V h.                                                  ",
"                                                e.$.% t 3 3 2 4 6 x J J n f p.k.                                                ",
"                                              w.e.( o 2 4 2 2 3 7 G G G n , u.k.j.                                              ",
"                                            q.w.e.( - 3 2 2 2 2 7 G n m n 7 B l.l.g.                                            ",
"                                            =.=.0.& 2 3 2 3 3 4 ; n J L c 9 > p.s.w.                                            ",
"                                              =./ @ 3 2 3 3 4 N U b n n g 9 < X.4.w.                                            ",
"                                              -.r - 3 2 3 2 4 7.l.Y F x 7 g 7 0 w.                                              ",
"                                              ^ & 2 2 2 2 : s e.j.f.G x 7 7 9 < 2.                                              ",
"                                              > 2 2 3 2 2 > i =.r.8.z 9 7 7 7 7 9                                               ",
"                                            g 7 2 3 2 3 2 2 <  .$.Z z 9 7 7 g g 7                                               ",
"                                            7 5 5 3 3 4 2 3 4 7 N 6 x 7 g 7 g x 7 7                                             ",
"                                          g 3 3 3 2 7 1 3 4 7 5 7 9 c x g 7 7 7 4 * 7                                           ",
"                                        g 7 1 5 5 5 3 3 2 2 5 7 n x g x g x 7 7 2 * 2 7                                         ",
"                                      g 7 2 2 2 2 2 2 3 2 2 7 7 J 5 g x f 7 7 5 2 * * 2 7                                       ",
"                                  7 9 7 2 2 5 5 2 2 2 2 2 2 5 2 7 5 7 c x 7 g 5 * 2 2 * 2 7 7                                   ",
"                                  g 4 2 2 2 5 2 2 4 2 2 2 2 4 # X 2 g g v x g 2 * 2 2 2 2 2 7                                   ",
"                                7 4 * 2 * 5 7 2 2 3 2 2 2 4 2 * + % g 7 g 9 5 * 2 2 2 2 2 * 2 7                                 ",
"                                7 2 2 2 2 5 3 2 2 3 4 2 * 5 4 # O % f x g 7 4 * 2 2 2 2 2 * 2 7                                 ",
"                                  2 2 2 2 4 2 2 2 2 3 2 2 7 2 + + + 7 7 7 7 2 2 2 2 2 2 2 * 4                                   ",
"                                            * 2 2 3 2 2 5 7 # O + O 3 g 9 5 * 2 * *                                             ",
"                                                    2 2 5 7 * + + O 3 g 7 7                                                     ",
"                                                          2 * + + + %                                                           ",
"                                                          + * + + + O                                                           ",
"                                                                                                                                ",
"                                                                                                                                "
};
