/* XPM */
static char * 8_xpm[] = {
"64 64 55 1",
" 	c None",
".	c #161C2E",
"+	c #506A69",
"@	c #669D9D",
"#	c #8CC3C4",
"$	c #9E785D",
"%	c #E9F044",
"&	c #D0DEB5",
"*	c #FFFFFF",
"=	c #3C474B",
"-	c #CEA554",
";	c #B48355",
">	c #563915",
",	c #DAB570",
"'	c #5B4017",
")	c #787B21",
"!	c #583C15",
"~	c #543514",
"{	c #563815",
"]	c #543414",
"^	c #866353",
"/	c #49321F",
"(	c #73742F",
"_	c #888930",
":	c #5C4517",
"<	c #4B3620",
"[	c #614E19",
"}	c #5A4016",
"|	c #553615",
"1	c #554822",
"2	c #4B3720",
"3	c #544522",
"4	c #4C3720",
"5	c #5B4316",
"6	c #554922",
"7	c #554721",
"8	c #645319",
"9	c #5C4617",
"0	c #656826",
"a	c #514121",
"b	c #594F22",
"c	c #5A5123",
"d	c #604E19",
"e	c #5F4C17",
"f	c #64541A",
"g	c #66581A",
"h	c #583E15",
"i	c #5D4817",
"j	c #5C4616",
"k	c #5C4516",
"l	c #594016",
"m	c #625218",
"n	c #685D1B",
"o	c #604C18",
"p	c #66591A",
"                                                                ",
"                                                                ",
"                                                                ",
"                                                                ",
"                                                                ",
"                                                                ",
"                                                                ",
"                                                                ",
"                                                                ",
"                                                                ",
"                         .....+@+++....                         ",
"                       ..#@@@@+@@@@+@$%..                       ",
"                      ..#.##@@@@@@@+@..#..                      ",
"                     .+@#@@@@@@@@@#@@+@#@+.                     ",
"                  ....+@#@%##@@+#####+@#@+....                  ",
"                 ..@+++@&#*.@@@@@##@.##&@+++@..                 ",
"                .@.@++++@@+@@@@@@@+#@+@@++++@.@.                ",
"                .@+$$+.@@@++@@@##@##@$$@@.++@+@.                ",
"               ..@=@-+###..+@###&+@@.-*$##+@@=@..               ",
"              .++===.++&##.+@@@@@+@@@-%+#++.===++.              ",
"              .++=$$.+@@@..+@@@@@.@@@.+@@@+.===++.              ",
"            ..=+.#*%++@@@##++@@@@.@@.##@@@++.##.+=.             ",
"            =+++##@.%%$++#####.++.+##&@@+..@####+.+=            ",
"           =++.+@##%*%$++@&&&&.++..+@@@@+++####@+.++=           ",
"           =+.++@@&%%-.++@@@@@+#####+@@@+$$$##@@++.+=           ",
"          ....+++@@@.-.+@@@@@+.###&++@@@.%%%@@@@++.%..          ",
"          .+=++##.@@.+.+@@@@@++@@@@@++-%.-%%.@.##++=+.          ",
"         .=++++#####+..#.@@@@$$@@@@.##.##.-+#####++++=.         ",
"         +=%$+#######+.##+@@@-%+.#####@##.+#######+=+=+         ",
"         +$*-@#######+.+######.+.+@@@@@@+.+#######@.+=+         ",
"         ==..@@@@@@@++.+@@@@@@@+.++@@@@++.++@@@@@@@..==         ",
"        .=++@@@@@@@@++.+@@@@@@@..+@@@@@@+.++@@@.%@@@+==.        ",
"        .=.+@#@@@@@@+..;.@;@@;;;;;;..@..;..+@@@.*@#@+.=.   >    ",
"    >   .=.++####@@@..;,,,;,,,,,,,,,;,,,;,..@$$.%.#++%$. >')!   ",
"   ~){] ..#+$$$+@@++++.^;;;^;;;;;;;;;;^;^.++.-*%+++++#../(_:    ",
"    {_(<+@##%%%.@@+++..;;;;;;;;;;;;;^;^;;..+.-%%++++##@+.([ }>  ",
"     |(.+@##%*%.*.+....;%..%%..^%..%...%;.....-@..####@+.1 }__> ",
"   >] 2.+@#.%%-.%-###+....................+#####.#####@+.34)_5  ",
"  >)_22.@@@@@@++@@@@@+.^.^^%%%**%%%%%^..^.+@@@@@.+@@@@@@.67))8  ",
"  >9(0a.@@@@@@$.@@@@@+.^^;^.%%***%%%.^.^^.+@@@@@..@@@@@@. b>)8  ",
" >)>c00++#@@>+%.@@@@@++^^;^.%*****%%.%^^^++@@@@$$>+@@@#++ >)>   ",
"  >))/.+@##>)>*.@@@@@+.^^^^.%%%%%%%%.%;^^.>@@@.%>)>####@+>)>    ",
"   >((.+@@>_>@@.#####>@.;;%.%%%%%%%%.%.;.>)>###>>>@&+>@@>_>     ",
"   >((.+@@>_>@@###>#>)>.;,%.%%%-%%%%.%.;.@>_>#>>)>@@>)>@>_>     ",
" >> />>...>_>@+&#>_>_>..;,;.%%%%%--%.;^;..>_>#>_>_>@@>_>__>     ",
">)_>>)_>.>_>>@>+>_>__>+>;,;.%%%---%%.;;;>++>)>))>>_>@>_>))>     ",
" >__d>__>>>)>>_e>)>_>.>)>;^.%%%----%.^^>)>.>)>))>e)>>>)>))e     ",
"  f)))e))>)>_>_>)>))>>_>.^^;%%----%%;^^.>_>>))>))g))e))e))g     ",
"      e))e)>_>)>_h))>_> ...;%%   --.;.^.i))>))>))>>_g))g        ",
"         e)j))k__l))>)i ...;.       . ^ m))i))i))i__i           ",
"           n))e))e))o)p                    m))m  m))m           ",
"               ))m                                              ",
"                                                                ",
"                                                                ",
"                                                                ",
"                                                                ",
"                                                                ",
"                                                                ",
"                                                                ",
"                                                                ",
"                                                                ",
"                                                                ",
"                                                                ",
"                                                                "};
