/* XPM */
static char *result[] = {
/* columns rows colors chars-per-pixel */
"64 64 145 2 ",
"   c #12C111B6184B",
".  c #196E123F1E78",
"X  c #1D1F16D62355",
"o  c #1E5418AC25BC",
"O  c #10C91D85284C",
"+  c #1EEC1C0D2A26",
"@  c #215A161D2394",
"#  c #20D4179E24AC",
"$  c #21DF1C952A80",
"%  c #34601C6129D3",
"&  c #395C18342BD6",
"*  c #21391F24330F",
"=  c #08EB1FF92C22",
"-  c #169B21252D4E",
";  c #1BC522122F3B",
":  c #14AB227E2FFC",
">  c #1D28239E335A",
",  c #1C9823FD37D6",
"<  c #1D212AEC3BE7",
"1  c #245C214B2E8A",
"2  c #24272239332B",
"3  c #28F425D435BB",
"4  c #26E125463859",
"5  c #2A4726B93952",
"6  c #24242A233BB9",
"7  c #2CA42A243C8F",
"8  c #327E20AC3398",
"9  c #3798240D3AEA",
"0  c #396E23023839",
"q  c #30E12C233E4A",
"w  c #3F122A203E93",
"e  c #522617E236A4",
"r  c #7A071B492B44",
"t  c #66881C4C3693",
"y  c #458F27EB3B7C",
"u  c #4AD829563D85",
"i  c #52B3283D3CF8",
"p  c #61C9240D35EE",
"a  c #64C928D63D90",
"s  c #782C25373BB3",
"d  c #2EA52D07405A",
"f  c #30C22DCC40C7",
"g  c #2BF933FF45CD",
"h  c #255236C948C8",
"j  c #2A9036984928",
"k  c #2E91397148D8",
"l  c #240F3580433F",
"z  c #32FF31CC4379",
"x  c #373D36D148F6",
"c  c #39CB372C4A2C",
"v  c #35423AF74C36",
"b  c #3BE93C794DC5",
"n  c #3C973EC85136",
"m  c #7A6918FB4565",
"M  c #496832A944D2",
"N  c #3FEB3C7B4E4F",
"B  c #4EB13AD84B6F",
"V  c #59BF39374B5E",
"C  c #400C3EEB509A",
"Z  c #4D083EA954BA",
"A  c #574B3BD34FD5",
"S  c #64BA299C4193",
"D  c #65C621E14AA8",
"F  c #6BF0272F4A49",
"G  c #37204046525F",
"H  c #3D66423D532E",
"J  c #3D0A4B585B0E",
"K  c #421244395542",
"L  c #48DD42795387",
"P  c #439E470557F6",
"I  c #41EF4AFA5B10",
"U  c #490F4BAF5EEE",
"Y  c #53DE40555195",
"T  c #7C2D4DF45878",
"R  c #68C853435EDC",
"E  c #4C3A4ECF6385",
"W  c #4DAA51186581",
"Q  c #495650AD6837",
"!  c #50C6539A69D1",
"~  c #56B65A467248",
"^  c #5B3E5F4179A6",
"/  c #5D2B601F79FF",
"(  c #8E3C1BD82E4E",
")  c #83030F153F70",
"_  c #8FC61D7030FB",
"`  c #82D41EA03886",
"'  c #95391D8C341B",
"]  c #9CAA10843EBB",
"[  c #A32C0BCA3CE8",
"{  c #A71F13DB3D72",
"}  c #AB7316723C2B",
"|  c #A4181C213ADA",
" . c #B0D212EC3B97",
".. c #BC7E1AF83A89",
"X. c #8B0C236A379B",
"o. c #8245242939E4",
"O. c #A09C22883F34",
"+. c #A89E23143C73",
"@. c #C7571B0C38CE",
"#. c #CB181EDF38BF",
"$. c #D6661D9E364B",
"%. c #D77D1EFD3B9B",
"&. c #DAE01F5837DB",
"*. c #E3DB1E6F378B",
"=. c #E49C1C1F39A9",
"-. c #FFFF17DE3E33",
";. c #C3D221A73A21",
":. c #CC40215338C9",
">. c #D363219C3788",
",. c #D49A2100393D",
"<. c #DC8B204C3DC5",
"1. c #E0AE21213AD0",
"2. c #835A09684211",
"3. c #8E9108424004",
"4. c #91940D48404C",
"5. c #8A4B1BB84454",
"6. c #828F2D0F44BF",
"7. c #9829229A4179",
"8. c #AB00263A42CD",
"9. c #FFFF1DBF4351",
"0. c #D18D228140B3",
"q. c #DE3B29FD419C",
"w. c #D5BD2A9A48EF",
"e. c #C56C32774F81",
"r. c #E71024CD4495",
"t. c #EF63216A4284",
"y. c #F6A621AE429F",
"u. c #FBEE22244526",
"i. c #FFFF23C84863",
"p. c #FFFF2B3A4942",
"a. c #E75639EF558D",
"s. c #84CB4E8C5AF8",
"d. c #9CCD5FC8687A",
"f. c #A9DB6B177336",
"g. c #BB666CBD73B6",
"h. c #FFFF49666050",
"j. c #FFFF556F68EA",
"k. c #FFFF58BD69C3",
"l. c #D7F0699E73B4",
"z. c #FF7E79D480D4",
"x. c #E86481E8843C",
"c. c #FD9C8DBC8E47",
"v. c #FF5693A69315",
"b. c #FFFFA58C9E96",
"n. c None",
/* pixels */
"n.n.n.n.n.n.n.n.n.n.n.n.n.n.n.n.n.n.n.n.n.n.n.n.n.n.n.n.n.n.n.n.n.n.n.n.n.n.n.n.n.n.n.n.n.n.n.n.n.n.n.n.n.n.n.n.n.n.n.n.n.n.n.n.",
"n.n.n.n.n.n.n.n.n.n.n.n.n.n.n.n.n.n.n.n.n.n.n.n.n.n.n.n.n.n.n.n.n.n.n.n.n.n.n.n.n.n.n.n.n.n.n.n.n.n.n.n.n.n.n.n.n.n.n.n.n.n.n.n.",
"n.n.n.n.n.n.n.n.n.n.n.n.n.n.n.n.n.n.n.n.n.n.n.n.n.n.n.n.n.n.n.n.n.n.n.n.n.n.n.n.n.n.n.n.n.n.n.n.n.n.n.n.n.n.n.n.n.n.n.n.n.n.n.n.",
"n.n.n.n.n.n.n.n.n.n.n.n.n.n.n.n.n.n.n.n.n.n.n.n.n.n.n.n.n.n.n.n.n.n.n.n.n.n.n.n.n.n.n.n.n.n.n.n.n.n.n.n.n.n.n.n.n.n.n.n.n.n.n.n.",
"n.n.n.n.n.n.n.n.n.n.n.n.n.n.n.n.n.n.n.n.n.n.n.n.n.n.n.n.n.n.n.n.n.n.n.n.n.n.n.n.n.n.n.n.n.n.n.n.n.n.n.n.n.n.n.n.n.n.n.n.n.n.n.n.",
"n.n.n.n.n.n.n.n.n.n.n.n.n.n.n.n.n.n.n.n.n.n.n.n.n.n.n.n.n.n.n.n.n.n.n.n.n.n.n.n.n.n.n.n.n.n.n.n.n.n.n.n.n.n.n.n.n.n.n.n.n.n.n.n.",
"n.n.n.n.n.n.n.n.n.n.n.n.n.n.n.n.n.n.n.n.n.n.n.n.n.n.n.n.n.n.n.n.n.n.n.n.n.n.n.n.n.n.n.n.n.n.n.n.n.n.n.n.n.n.n.n.n.n.n.n.n.n.n.n.",
"n.n.n.n.n.n.n.n.n.n.n.n.n.n.n.n.n.n.n.n.n.n.n.n.n.n.n.n.n.n.n.n.n.n.n.n.n.n.n.n.n.n.n.n.n.n.n.n.n.n.n.n.n.n.n.n.n.n.n.n.n.n.n.n.",
"n.n.n.n.n.n.n.n.n.n.n.n.n.n.n.n.n.n.n.n.n.n.n.n.n.n.n.n.n.n.n.n.n.n.n.n.n.n.n.n.n.n.n.n.n.n.n.n.n.n.n.n.n.n.n.n.n.n.n.n.n.n.n.n.",
"n.n.n.n.n.n.n.n.n.n.n.n.n.n.n.n.n.n.n.n.n.n.n.n.n.n.n.n.n.n.n.n.n.n.n.n.n.n.n.n.n.n.n.n.n.n.n.n.n.n.n.n.n.n.n.n.n.n.n.n.n.n.n.n.",
"n.n.n.n.n.n.n.n.n.n.n.n.n.n.n.n.n.n.n.n.n.n.n.n.n.n.n.n.n.n.n.n.n.n.n.n.n.n.n.n.n.n.n.n.n.n.n.n.n.n.n.n.n.n.n.n.n.n.n.n.n.n.n.n.",
"n.n.n.n.n.n.n.n.n.n.n.n.n.n.n.n.n.n.n.n.n.n.n.n.n.n.n.n.n.n.n.n.n.n.n.n.n.n.n.n.n.n.n.n.n.n.n.n.n.n.n.n.n.n.n.n.n.n.n.n.n.n.n.n.",
"n.n.n.n.n.n.n.n.n.n.n.n.n.n.n.n.n.n.n.n.n.n.n.n.n.n.n.n.n.n.n.n.n.n.n.n.n.n.n.n.n.n.n.n.n.n.n.n.n.n.n.n.n.n.n.n.n.n.n.n.n.n.n.n.",
"n.n.n.n.n.n.n.n.n.n.n.n.n.n.n.n.n.n.n.n.n.n.n.n.n.n.n.n.n.n.n.n.n.n.n.n.n.n.n.n.n.n.n.n.n.n.n.n.n.n.n.n.n.n.n.n.n.n.n.n.n.n.n.n.",
"n.n.n.n.n.n.n.n.n.n.n.n.n.n.n.n.n.n.n.n.n.n.n.n.n.n.n.n.n.n.n.n.n.n.n.n.n.n.n.n.n.n.n.n.n.n.n.n.n.n.n.n.n.n.n.n.n.n.n.n.n.n.n.n.",
"n.n.n.n.n.n.n.n.n.n.n.n.n.n.n.n.n.n.n.n.n.n.n.n.n.n.n.n.n.n.n.n.n.n.n.n.n.n.n.n.n.n.n.n.n.n.n.n.n.n.n.n.n.n.n.n.n.n.n.n.n.n.n.n.",
"n.n.n.n.n.n.n.n.n.n.n.n.n.n.n.n.n.n.n.n.n.n.n.n.n.n.n.n.n.n.n.n.n.n.n.n.n.n.n.n.n.n.n.n.n.n.n.n.n.n.n.n.n.n.n.n.n.n.n.n.n.n.n.n.",
"n.n.n.n.n.n.n.n.n.n.n.n.n.n.n.n.n.n.n.n.n.n.n.n.n.n.n.n.n.n.n.n.n.n.n.n.n.n.n.n.n.n.n.n.n.n.n.n.n.n.n.n.n.n.n.n.n.n.n.n.n.n.n.n.",
"n.n.n.n.n.n.n.n.n.n.n.n.n.n.n.n.n.n.n.n.n.n.n.n.n.n.n.n.n.n.n.n.n.n.n.n.n.n.n.n.n.n.n.n.n.n.n.n.n.n.n.n.n.n.n.n.n.n.n.n.n.n.n.n.",
"n.n.n.n.n.n.n.n.n.n.n.n.n.n.n.n.n.n.n.n.n.n.n.n.n.n.n.n.n.n.n.n.n.n.n.n.n.n.n.n.n.n.n.n.n.n.n.n.n.n.n.n.n.n.n.n.n.n.n.n.n.n.n.n.",
"n.n.n.n.n.n.n.n.n.n.n.n.n.n.n.n.n.n.n.n.n.n.n.n.n.n.n.n.n.n.n.n.n.n.n.n.n.n.n.n.n.n.n.n.n.n.n.n.n.n.n.n.n.n.n.n.n.n.n.n.n.n.n.n.",
"n.n.n.n.n.n.n.n.n.n.n.n.n.n.n.n.n.n.n.n.n.n.n.n.n.n.n.n.z K n.n.n.n.7 C n.n.n.n.n.n.n.n.n.n.n.n.n.n.n.n.n.n.n.n.n.n.n.n.n.n.n.n.",
"n.n.n.n.n.n.n.n.n.n.n.n.n.n.n.n.n.n.n.n.n.n.n.n.n.n.n.q g D [ ..#.:.y Q ^ n.n.n.n.n.n.n.n.n.n.n.n.n.n.n.n.n.n.n.n.n.n.n.n.n.n.n.",
"n.n.n.n.n.n.n.n.n.n.n.n.n.n.n.n.n.n.n.n.n.n.n.n.n.n.n.5 H 5.3.} n.&.s j ~ n.n.n.n.n.n.n.n.n.n.n.n.n.n.n.n.n.n.n.n.n.n.n.n.n.n.n.",
"n.n.n.n.n.n.n.n.n.n.n.n.n.n.n.n.n.n.n.n.n.n.n.n.n.n.. q J 7. .n.n.n.n.z W ^ n.n.n.n.n.n.n.n.n.n.n.n.n.n.n.n.n.n.n.n.n.n.n.n.n.n.",
"n.n.n.n.n.n.n.n.n.n.n.n.n.n.n.n.n.n.n.n.n.n.n.n.n.n.. z I m @.n.n.n.u g W ^ n.n.n.n.n.n.n.n.n.n.n.n.n.n.n.n.n.n.n.n.n.n.n.n.n.n.",
"n.n.n.n.n.n.n.n.n.n.n.n.n.n.n.n.n.n.n.n.n.n.n.n.n.n.. 5 J m [ ..>.*.a G E ^ n.n.n.n.n.n.n.n.n.n.n.n.n.n.n.n.n.n.n.n.n.n.n.n.n.n.",
"n.n.n.n.n.n.n.n.n.n.n.n.n.n.n.n.n.n.n.n.n.n.n.n.n.n.n.$ x Z F n.n.o.M H ! n.n.n.n.n.n.n.n.n.n.n.n.n.n.n.n.n.n.n.n.n.n.n.n.n.n.n.",
"n.n.n.n.n.n.n.n.n.n.n.n.n.n.n.n.n.n.n.n.n.n.n.n.n.n.n.X 2 c J h < g H U ~ n.n.n.n.n.n.n.n.n.n.n.n.n.n.n.n.n.n.n.n.n.n.n.n.n.n.n.",
"n.n.n.n.n.n.n.n.n.n.n.n.n.n.n.n.n.n.n.n.n.n.n.n.n.n.n.n.$ 3 c N n K E ^ n.n.n.n.n.n.n.n.n.n.n.n.n.n.n.n.n.n.n.n.n.n.n.n.n.n.n.n.",
"n.n.n.n.n.n.n.n.n.n.n.n.n.n.n.n.n.n.n.n.n.n.n.n.n.n.n.n.+ o $ x K E E z n.n.n.n.n.n.n.n.n.n.n.n.n.n.n.n.n.n.n.n.n.n.n.n.n.n.n.n.",
"n.n.n.n.n.n.n.n.n.n.n.n.n.n.n.n.n.n.n.n.n.n.n.n.2.n.n.n.  + 2 q c I b 7 n.n.n.n.n.n.n.n.n.n.n.n.n.n.n.n.n.n.n.n.n.n.n.n.n.n.n.n.",
"n.n.n.n.n.n.n.n.n.n.n.n.n.n.n.n.n.n.n.n.n.n.n.4.{ } n.# 3 7 3 > > f x b q n.2.{ ..2.n.n.n.n.n.n.n.n.n.n.n.n.n.n.n.n.n.n.n.n.n.n.",
"n.n.n.n.n.n.n.n.n.n.n.n.n.n.n.n.n.n.n.n.n.n.n.:.>.n.n.# 3 1 > 6.s.6 q n 5 n.n.n.n.n.n.n.n.n.n.n.n.n.n.n.n.n.n.n.n.n.n.n.n.n.n.n.",
"n.n.n.n.n.n.n.n.n.n.n.n.n.n.n.n.n.n.n.n.n.n.2.n.n.n.n.1 1 ; 0 h.v.L 4 b 7 n.n.n.n.n.n.n.n.n.n.n.n.n.n.n.n.n.n.n.n.n.n.n.n.n.n.n.",
"n.n.n.n.n.n.n.n.n.n.n.n.n.n.n.n.n.n.n.n.n.n.] n.n.n.1 3 1 < | k.b.f.6 q z d n.n.n.n.n.n.n.n.n.n.n.n.n.n.n.n.n.n.n.n.n.n.n.n.n.n.",
"n.n.n.n.n.n.n.n.n.n.n.n.n.n.n.n.n.n.n.n.n.n.n.n.n.n.2 + 1 6 >.q.k.a.v 5 5 5 n.n.n.n.n.n.n.n.n.n.n.n.n.n.n.n.n.n.n.n.n.n.n.n.n.n.",
"n.n.n.n.n.n.n.n.n.n.n.n.n.n.n.n.n.n.n.n.n.n.n.n.n.n.1 + 1 - p >.9.6.l 0 2.q n.n.n.n.n.n.n.n.n.n.n.n.n.n.n.n.n.n.n.n.n.n.n.n.n.n.",
"n.n.n.n.n.n.n.n.n.n.n.n.n.n.n.n.n.n.n.n.n.n.n.n.n.n.; 2 3 1 2 ;.r.5 6 S &.z n.n.n.n.n.n.n.n.n.n.n.n.n.n.n.n.n.n.n.n.n.n.n.n.n.n.",
"n.n.n.n.n.n.n.n.n.n.n.n.n.n.n.n.n.n.n.n.n.n.n.n.n.+.e p 1 3 ; y M 6 v A V H x.n.n.n.n.n.n.n.n.n.n.n.n.n.n.n.n.n.n.n.n.n.n.n.n.n.",
"n.n.n.n.n.n.n.n.n.n.n.n.n.n.n.n.n.n.n.n.n.n.n.n.i.<.& ` 8 8 1 2 5 z K H n d g.v.n.n.n.n.n.n.n.n.n.n.n.n.n.n.n.n.n.n.n.n.n.n.n.n.",
"n.n.n.n.n.n.n.n.n.n.n.n.n.n.n.n.n.n.n.n.n.n.n.u.i.' = > 5 1 3 5 q K n K N , d.v.v.n.n.n.n.n.n.n.n.n.n.n.n.n.n.n.n.n.n.n.n.n.n.n.",
"n.n.n.n.n.n.n.n.n.n.n.n.n.n.n.n.n.n.n.n.n.n.u.u.p.' - 3 1 1 1 1 5 K b n n 7 B c.v.z.n.n.n.n.n.n.n.n.n.n.n.n.n.n.n.n.n.n.n.n.n.n.",
"n.n.n.n.n.n.n.n.n.n.n.n.n.n.n.n.n.n.n.n.n.n.$.,.t.% 1 3 2 3 5 6 ; b K P z 7 * g.j.u.n.n.n.n.n.n.n.n.n.n.n.n.n.n.n.n.n.n.n.n.n.n.",
"n.n.n.n.n.n.n.n.n.n.n.n.n.n.n.n.n.n.n.n.n.n.n.,._ - 1 1 5 5 2 M T v b b d q < 7.9.9.n.n.n.n.n.n.n.n.n.n.n.n.n.n.n.n.n.n.n.n.n.n.",
"n.n.n.n.n.n.n.n.n.n.n.n.n.n.n.n.n.n.n.n.n.n.n.1.r : 3 1 5 2 > w.v.R n z 7 q 6 M u.n.n.n.n.n.n.n.n.n.n.n.n.n.n.n.n.n.n.n.n.n.n.n.",
"n.n.n.n.n.n.n.n.n.n.n.n.n.n.n.n.n.n.n.n.n.n.n.( % > 1 3 1 ; s p.c.l.H z 7 f q < 8.n.n.n.n.n.n.n.n.n.n.n.n.n.n.n.n.n.n.n.n.n.n.n.",
"n.n.n.n.n.n.n.n.n.n.n.n.n.n.n.n.n.n.n.n.n.n.n.2 1 1 5 3 1 > i ,.p.e.k f f 7 f 7 7 n.n.n.n.n.n.n.n.n.n.n.n.n.n.n.n.n.n.n.n.n.n.n.",
"n.n.n.n.n.n.n.n.n.n.n.n.n.n.n.n.n.n.n.n.n.n.z 5 2 3 2 3 2 1 6 X.=.A k q d 7 f f 7 n.n.n.n.n.n.n.n.n.n.n.n.n.n.n.n.n.n.n.n.n.n.n.",
"n.n.n.n.n.n.n.n.n.n.n.n.n.n.n.n.n.n.n.n.n.n.7 5 5 5 3 3 2 5 3 5 M 6 f d f 7 f f 7 7 n.n.n.n.n.n.n.n.n.n.n.n.n.n.n.n.n.n.n.n.n.n.",
"n.n.n.n.n.n.n.n.n.n.n.n.n.n.n.n.n.n.n.n.n.f 3 5 3 3 5 1 5 2 7 5 7 z c f f 7 7 7 5 * 7 n.n.n.n.n.n.n.n.n.n.n.n.n.n.n.n.n.n.n.n.n.",
"n.n.n.n.n.n.n.n.n.n.n.n.n.n.n.n.n.n.n.n.f 5 1 5 5 5 3 5 2 2 7 5 b z f f f f d 7 2 * 2 7 n.n.n.n.n.n.n.n.n.n.n.n.n.n.n.n.n.n.n.n.",
"n.n.n.n.n.n.n.n.n.n.n.n.n.n.n.n.n.n.n.f 7 1 2 2 1 3 1 3 1 6 7 7 K 5 q z f 7 f 7 4 * * 4 d n.n.n.n.n.n.n.n.n.n.n.n.n.n.n.n.n.n.n.",
"n.n.n.n.n.n.n.n.n.n.n.n.n.n.n.n.n.7 f 7 2 1 5 5 1 1 3 1 2 2 5 2 7 5 q x f f f 5 * * * * * d d n.n.n.n.n.n.n.n.n.n.n.n.n.n.n.n.n.",
"n.n.n.n.n.n.n.n.n.n.n.n.n.n.n.n.n.f 4 * 2 3 7 3 3 3 1 1 2 2 6 + . 3 q z c f d 4 * * * * * * d n.n.n.n.n.n.n.n.n.n.n.n.n.n.n.n.n.",
"n.n.n.n.n.n.n.n.n.n.n.n.n.n.n.n.d 4 * > 2 5 5 2 1 6 1 3 2 3 2 2 o $ 7 7 d d 6 * * 4 * * * * * 5 n.n.n.n.n.n.n.n.n.n.n.n.n.n.n.n.",
"n.n.n.n.n.n.n.n.n.n.n.n.n.n.n.n.7 * 2 * 4 5 5 2 1 3 3 2 * 5 4 + X $ f f f f 4 * 2 * * * * * 4 f n.n.n.n.n.n.n.n.n.n.n.n.n.n.n.n.",
"n.n.n.n.n.n.n.n.n.n.n.n.n.n.n.n.n.2 * * 2 4 2 2 1 1 3 2 * d * o o o 7 f d 7 2 * * * * 4 * * 6 n.n.n.n.n.n.n.n.n.n.n.n.n.n.n.n.n.",
"n.n.n.n.n.n.n.n.n.n.n.n.n.n.n.n.n.n.n.n.n.n.* 2 3 3 2 2 7 d + X o X 3 f d 5 * * 2 2 n.n.n.n.n.n.n.n.n.n.n.n.n.n.n.n.n.n.n.n.n.n.",
"n.n.n.n.n.n.n.n.n.n.n.n.n.n.n.n.n.n.n.n.n.n.n.n.n.n.2 * 5 5 * o o X 3 f d 7 n.n.n.n.n.n.n.n.n.n.n.n.n.n.n.n.n.n.n.n.n.n.n.n.n.n.",
"n.n.n.n.n.n.n.n.n.n.n.n.n.n.n.n.n.n.n.n.n.n.n.n.n.n.n.n.n.2 * o o X $ n.n.n.n.n.n.n.n.n.n.n.n.n.n.n.n.n.n.n.n.n.n.n.n.n.n.n.n.n.",
"n.n.n.n.n.n.n.n.n.n.n.n.n.n.n.n.n.n.n.n.n.n.n.n.n.n.n.n.n.o * o X o X n.n.n.n.n.n.n.n.n.n.n.n.n.n.n.n.n.n.n.n.n.n.n.n.n.n.n.n.n.",
"n.n.n.n.n.n.n.n.n.n.n.n.n.n.n.n.n.n.n.n.n.n.n.n.n.n.n.n.n.n.n.n.n.n.n.n.n.n.n.n.n.n.n.n.n.n.n.n.n.n.n.n.n.n.n.n.n.n.n.n.n.n.n.n.",
"n.n.n.n.n.n.n.n.n.n.n.n.n.n.n.n.n.n.n.n.n.n.n.n.n.n.n.n.n.n.n.n.n.n.n.n.n.n.n.n.n.n.n.n.n.n.n.n.n.n.n.n.n.n.n.n.n.n.n.n.n.n.n.n."
};
