/* XPM */
static char *_c3640d186594b5eb645ad032e0fb3224V7wGb64Q4wBY00f[] = {
/* columns rows colors chars-per-pixel */
"64 64 143 2 ",
"   c None",
".  c #131218",
"X  c #19121E",
"o  c #0A1F2C",
"O  c #1D1723",
"+  c #1E1926",
"@  c #111D28",
"#  c #1F1C2A",
"$  c #211724",
"%  c #221C2A",
"&  c #341C2A",
"*  c #211F33",
"=  c #351D32",
"-  c #17212D",
";  c #1C222F",
":  c #142230",
">  c #1D2333",
",  c #1D2438",
"<  c #1E2B3B",
"1  c #24212E",
"2  c #242233",
"3  c #292535",
"4  c #272538",
"5  c #2A2739",
"6  c #252B3B",
"7  c #2D2A3C",
"8  c #342135",
"9  c #3D2134",
"0  c #392338",
"q  c #312C3E",
"w  c #3F2A3E",
"e  c #55132F",
"r  c #531E3F",
"t  c #7A1B2B",
"y  c #4B293D",
"u  c #55283D",
"i  c #5F293E",
"p  c #612436",
"a  c #78253B",
"s  c #72253C",
"d  c #2E2D40",
"f  c #312D40",
"g  c #382C41",
"h  c #263544",
"j  c #2A3142",
"k  c #2C3649",
"l  c #2E3949",
"z  c #333244",
"x  c #373749",
"c  c #39374A",
"v  c #353B4C",
"b  c #3C3C4D",
"n  c #3E3F51",
"m  c #791646",
"M  c #771A46",
"N  c #4F2744",
"B  c #4A3244",
"V  c #403C4E",
"C  c #4E3B4B",
"Z  c #5E3044",
"A  c #533651",
"S  c #593751",
"D  c #573C50",
"F  c #62384E",
"G  c #374052",
"H  c #3D4253",
"J  c #3E4B5C",
"K  c #424556",
"L  c #494253",
"P  c #434758",
"I  c #434A5A",
"U  c #484B5F",
"Y  c #7C4E58",
"T  c #68535E",
"R  c #4C4F64",
"E  c #4D5165",
"W  c #515369",
"Q  c #565A72",
"!  c #5B5F79",
"~  c #5C607A",
"^  c #8E1C2E",
"/  c #950D3E",
"(  c #980C3F",
")  c #8F1D31",
"_  c #951D34",
"`  c #9A123F",
"'  c #9C1C3A",
"]  c #A4133D",
"[  c #A7193B",
"{  c #BF1F37",
"}  c #B6123A",
"|  c #B4183B",
" . c #B91A3B",
".. c #8B2337",
"X. c #A0223F",
"o. c #AE223D",
"O. c #C31D39",
"+. c #CA1E38",
"@. c #D61E36",
"#. c #DA1F38",
"$. c #E31D38",
"%. c #FF183E",
"&. c #C4223B",
"*. c #C82139",
"=. c #D22237",
"-. c #D52039",
";. c #D9203A",
":. c #E0213B",
">. c #840A42",
",. c #8F0C40",
"<. c #8A1242",
"1. c #851B43",
"2. c #A90840",
"3. c #822D44",
"4. c #9A2341",
"5. c #962D43",
"6. c #AA2643",
"7. c #FF1E43",
"8. c #D12240",
"9. c #DD2A41",
"0. c #D52A49",
"q. c #C5324F",
"w. c #E62544",
"e. c #EE2142",
"r. c #F62242",
"t. c #FB2245",
"y. c #FF2448",
"u. c #FF2B49",
"i. c #E63A55",
"p. c #844E5B",
"a. c #9C5F68",
"s. c #A96B73",
"d. c #BB6C73",
"f. c #FF4960",
"g. c #FF5569",
"h. c #FF5869",
"j. c #D76973",
"k. c #FE7980",
"l. c #E78284",
"z. c #FD8D8E",
"x. c #FF9594",
"c. c #FE9191",
"v. c #FFA59E",
/* pixels */
"                                                                                                                                ",
"                                                                                                                                ",
"                                                                                                                                ",
"                                                                                                                                ",
"                                                                                                                                ",
"                                                                                                                                ",
"                                                                                                                                ",
"                                                                                                                                ",
"                                                                                                                                ",
"                                                                                                                                ",
"                                                                                                                                ",
"                                                                                                                                ",
"                                                                                                                                ",
"                                                                                                                                ",
"                                                                                                                                ",
"                                                                                                                                ",
"                                                                                                                                ",
"                                                                                                                                ",
"                                                                                                                                ",
"                                                                                                                                ",
"                                                                                                                                ",
"                                                        f H         7 n                                                         ",
"                                                      7 z A ` O.+.*.q R ~                                                       ",
"                                                      5 H m (  .O.;.a k Q                                                       ",
"                                                    X q J 4.(     #.  j E !                                                     ",
"                                                    X z J 1.+.        z E !                                                     ",
"                                                    X 5 I M } [   $.i v R !                                                     ",
"                                                      % v S <.&.*.{ Z H W                                                       ",
"                                                      O 2 x P z 7 z H U Q                                                       ",
"                                                        % 3 c n n P R Q                                                         ",
"                                                        # + % x P R R z                                                         ",
"                                                        . # 2 7 c P b 7                                                         ",
"                                              >.,./   $ 3 5 3 , , f x b q   >.]  .>.                                            ",
"                                              | O.+.  $ 2 1 , 3.p.6 q H 5     ] O.                                              ",
"                                            >.O.=.    % 1 2 0 f.x.L 4 b 7                                                       ",
"                                            `       3 4 % < [ g.v.s.6 7 z 7                                                     ",
"                                                    2 # 1 7 8.9.h.i.v 7 6 5                                                     ",
"                                                    1 + % ; p @.%.3.h 3 r f                                                     ",
"                                                    2 4 2 2 2 &.w.5 4 N 2.g                                                     ",
"                                                  o.= 2 2 2 ; y y 7 v F 5.H l.                                                  ",
"                                                y.;.e ' 3 8 2 4 4 z P P G d d.x.                                                ",
"                                              t.y._ o 9 3 2 2 3 7 H H H V , a.x.z.                                              ",
"                                            r.t.y._ - 2 2 2 2 2 7 H b n b 7 C c.c.k.                                            ",
"                                            =.;.e.& 2 3 2 4 3 4 ; b K P x q > d.g.t.                                            ",
"                                              ;.) @ 3 2 3 3 4 B Y v b b f q < X.7.t.                                            ",
"                                              :.t - 2 2 3 2 4 0.c.T G z 7 f 7 w t.                                              ",
"                                              ^ & 2 2 2 2 : s y.z.j.H z 7 7 q < 6.                                              ",
"                                              2 2 2 3 2 2 > u ;.u.q.l f 7 7 7 7 q                                               ",
"                                            f 7 2 3 2 3 2 2 < ..$.D l q 7 7 f f 7                                               ",
"                                            7 5 5 3 3 4 2 3 4 7 B 6 z 7 f 7 f z 7 7                                             ",
"                                          f 3 3 3 2 7 1 3 4 7 5 7 q x f f 7 7 7 4 * 7                                           ",
"                                        f 7 1 5 5 5 3 3 2 2 5 7 b z f z f z 7 7 2 * 2 7                                         ",
"                                      f 7 2 2 2 2 2 2 3 2 2 7 7 P 5 f z d 7 7 5 2 * * 2 7                                       ",
"                                  7 q 7 2 2 5 5 2 2 2 2 2 2 5 2 7 5 7 x z 7 f 5 * 2 2 * 2 7 7                                   ",
"                                  f 4 2 2 2 5 2 2 4 2 2 2 2 4 # X 2 f f c z f 2 * 2 2 2 2 2 7                                   ",
"                                7 4 * 2 * 5 7 2 2 3 2 2 2 4 2 * + % f 7 f q 5 * 2 2 2 2 2 * 2 7                                 ",
"                                7 2 2 2 2 5 3 2 2 3 4 2 * 5 4 # O % d z f 7 4 * 2 2 2 2 2 * 2 7                                 ",
"                                  2 2 2 2 4 2 2 2 2 3 2 2 7 2 + + + 7 7 7 7 2 2 2 2 2 2 2 * 4                                   ",
"                                            * 2 2 3 2 2 5 7 # O + O 3 f q 5 * 2 * *                                             ",
"                                                    2 2 5 7 * + + O 3 f 7 7                                                     ",
"                                                          2 * + + + %                                                           ",
"                                                          + * + + + O                                                           ",
"                                                                                                                                ",
"                                                                                                                                "
};
