/* XPM */
static char *_d8d49f69d01440bbbc2f16500c2bcf8F6oNLw33wqTPxyLT[] = {
/* columns rows colors chars-per-pixel */
"64 64 146 2 ",
"   c None",
".  c #131218",
"X  c #19121E",
"o  c #1D1723",
"O  c #1E1926",
"+  c #111D28",
"@  c #1F1C2A",
"#  c #211623",
"$  c #211825",
"%  c #221C2A",
"&  c #341C2A",
"*  c #39182C",
"=  c #211F33",
"-  c #09202C",
";  c #17212D",
":  c #1C222F",
">  c #152230",
",  c #1D2333",
"<  c #1C2438",
"1  c #1D2B3C",
"2  c #24212E",
"3  c #242233",
"4  c #292636",
"5  c #272538",
"6  c #2A2739",
"7  c #242A3B",
"8  c #2C2A3C",
"9  c #322133",
"0  c #37243B",
"q  c #392338",
"w  c #312C3E",
"e  c #3F2A3E",
"r  c #521836",
"t  c #7A1B2B",
"y  c #661C36",
"u  c #45283B",
"i  c #4B293D",
"p  c #52283D",
"a  c #612436",
"s  c #64293D",
"d  c #78253B",
"f  c #2E2D40",
"g  c #312E41",
"h  c #2C3446",
"j  c #253748",
"k  c #2A3649",
"l  c #2E3949",
"z  c #243543",
"x  c #333243",
"c  c #373749",
"v  c #3A374A",
"b  c #353B4C",
"n  c #3C3C4D",
"m  c #3C3F51",
"M  c #7A1945",
"N  c #493245",
"B  c #403C4E",
"V  c #4E3B4B",
"C  c #59394B",
"Z  c #403F50",
"A  c #4D3E54",
"S  c #573C50",
"D  c #642941",
"F  c #65224A",
"G  c #6C274A",
"H  c #374052",
"J  c #3D4253",
"K  c #3D4B5B",
"L  c #424455",
"P  c #494253",
"I  c #434758",
"U  c #424B5B",
"Y  c #494B5F",
"T  c #544051",
"R  c #7C4E58",
"E  c #68535E",
"W  c #4C4F63",
"Q  c #4D5165",
"!  c #495068",
"~  c #505369",
"^  c #565A72",
"/  c #5B5F79",
"(  c #5D607A",
")  c #8E1C2E",
"_  c #830F3F",
"`  c #8F1D31",
"'  c #821F38",
"]  c #951D34",
"[  c #9C103E",
"{  c #A30C3D",
"}  c #A6143D",
"|  c #AB163C",
" . c #A31C3B",
".. c #B0133B",
"X. c #BC1B3A",
"o. c #8B2337",
"O. c #82243A",
"+. c #A0223F",
"@. c #A8233C",
"#. c #C71B39",
"$. c #CA1F39",
"%. c #D61E36",
"&. c #D71F3B",
"*. c #DA1F38",
"=. c #E31E37",
"-. c #E41C39",
";. c #FF183E",
":. c #C3223A",
">. c #CB2139",
",. c #D32137",
"<. c #D42139",
"1. c #DC203E",
"2. c #E0213B",
"3. c #830942",
"4. c #8E0840",
"5. c #910D40",
"6. c #8A1C44",
"7. c #822D44",
"8. c #982241",
"9. c #AA2643",
"0. c #FF1E43",
"q. c #D12240",
"w. c #DD2A41",
"e. c #D52A49",
"r. c #C5324F",
"t. c #E62544",
"y. c #EE2142",
"u. c #F62242",
"i. c #FB2245",
"p. c #FF2448",
"a. c #FF2B49",
"s. c #E63A55",
"d. c #844E5B",
"f. c #9C5F68",
"g. c #A96B73",
"h. c #BB6C73",
"j. c #FF4960",
"k. c #FF5569",
"l. c #FF5869",
"z. c #D76973",
"x. c #FE7980",
"c. c #E78184",
"v. c #FD8D8E",
"b. c #FF9594",
"n. c #FE9191",
"m. c #FFA59E",
/* pixels */
"                                                                                                                                ",
"                                                                                                                                ",
"                                                                                                                                ",
"                                                                                                                                ",
"                                                                                                                                ",
"                                                                                                                                ",
"                                                                                                                                ",
"                                                                                                                                ",
"                                                                                                                                ",
"                                                                                                                                ",
"                                                                                                                                ",
"                                                                                                                                ",
"                                                                                                                                ",
"                                                                                                                                ",
"                                                                                                                                ",
"                                                                                                                                ",
"                                                                                                                                ",
"                                                                                                                                ",
"                                                                                                                                ",
"                                                                                                                                ",
"                                                                                                                                ",
"                                                        g J         8 m                                                         ",
"                                                      8 x F { X.$.>.u ! (                                                       ",
"                                                      6 J 6.4.|   *.d k ^                                                       ",
"                                                    X w K 8...        x Q /                                                     ",
"                                                    X x U M #.      p h Q /                                                     ",
"                                                    X 6 U M { X.,.=.s b W /                                                     ",
"                                                      % c A G     O.N J ~                                                       ",
"                                                      o 3 c K j 1 k J Y ^                                                       ",
"                                                        % 4 v Z Z I W ^                                                         ",
"                                                        @ O % c I W W x                                                         ",
"                                                3.      . @ 3 8 v I n 8                                                         ",
"                                              5.} |   # 4 6 4 < , g c n w   3.} X.3.                                            ",
"                                              $.,.    $ 3 2 , 7.d.7 w J 6                                                       ",
"                                            3.        % 2 3 q j.b.P 5 n 8                                                       ",
"                                            [       3 5 % 1  .k.m.g.7 w x 8                                                     ",
"                                                    3 @ 2 8 q.w.l.s.b 6 8 6                                                     ",
"                                                    2 O % : a %.;.7.z q _ 0                                                     ",
"                                                    , , 3 3 3 :.t.6 7 D &.x                                                     ",
"                                                  @.r y 3 3 : u i 8 c T C J c.                                                  ",
"                                                p.1.* ' 9 9 3 5 7 x I J m f h.b.                                                ",
"                                              i.p.] - , 4 3 3 4 8 J J J B < f.b.v.                                              ",
"                                            u.i.p.] ; 4 3 3 3 3 8 J n m n 8 V n.n.x.                                            ",
"                                            ,.<.y.& 3 4 3 4 4 5 , n L I x w , h.k.i.                                            ",
"                                              <.` + 4 3 4 4 5 N R b n n g w 1 +.0.i.                                            ",
"                                              2.t ; 4 3 4 3 5 e.n.E H x 8 g 8 e i.                                              ",
"                                              ) & 3 3 3 3 > d p.v.z.J x 8 8 w 1 9.                                              ",
"                                              , 3 2 4 3 3 , p <.a.r.l w 8 8 8 8 w                                               ",
"                                            g 8 3 4 3 4 3 3 1 o.-.S l w 8 8 g g 8                                               ",
"                                            8 6 6 4 4 5 3 4 4 6 N 7 x 8 g 8 g x 8 8                                             ",
"                                          g 4 4 4 3 8 2 4 5 8 6 8 w x x g 8 8 8 5 = 8                                           ",
"                                        g 8 2 6 6 6 4 4 3 3 6 8 n x g x g x 8 8 3 = 3 8                                         ",
"                                      g 8 3 3 3 3 3 3 4 3 3 8 8 I 6 g x f 8 8 6 3 = = 3 8                                       ",
"                                  8 w 8 3 3 6 6 3 3 3 3 3 3 6 3 8 6 8 c x 8 g 6 = 3 3 = 3 8 8                                   ",
"                                  g 5 3 3 3 6 3 3 5 3 3 3 3 5 @ X 3 g g v x g 3 = 3 3 3 3 3 8                                   ",
"                                8 5 = 3 = 6 8 3 3 4 3 3 3 5 3 = O % g 8 g w 6 = 3 3 3 3 3 = 3 8                                 ",
"                                8 3 3 3 3 6 4 3 3 4 5 3 = 6 5 @ o % f x g 8 5 = 3 3 3 3 3 = 3 8                                 ",
"                                  3 3 3 3 5 3 3 3 3 4 3 3 8 3 O O O 8 8 8 8 3 3 3 3 3 3 3 = 5                                   ",
"                                            = 3 3 4 3 3 6 8 @ o O o 4 g w 6 = 3 = =                                             ",
"                                                    3 3 6 8 = O O o 4 g 8 8                                                     ",
"                                                          3 = O O O %                                                           ",
"                                                          O = O O O o                                                           ",
"                                                                                                                                ",
"                                                                                                                                "
};
