/* XPM */
static char *_91f94488a6a4f89cb93afb0e1bb2cffKZodjJWdI7jOqmab[] = {
/* columns rows colors chars-per-pixel */
"64 64 141 2 ",
"   c None",
".  c #131218",
"X  c #19121E",
"o  c #0D1F2D",
"O  c #1D1723",
"+  c #1E1926",
"@  c #111D28",
"#  c #1F1C2A",
"$  c #1F1F30",
"%  c #221A26",
"&  c #221D2A",
"*  c #341C2A",
"=  c #211F33",
"-  c #17212D",
";  c #1B222F",
":  c #142230",
">  c #1D2334",
",  c #1C2438",
"<  c #1E2B3B",
"1  c #24212E",
"2  c #242233",
"3  c #292636",
"4  c #272538",
"5  c #2A2739",
"6  c #252A3C",
"7  c #2D2A3C",
"8  c #332333",
"9  c #3A2235",
"0  c #392338",
"q  c #312C3E",
"w  c #3F2A3E",
"e  c #7A1B2B",
"r  c #442233",
"t  c #4B2136",
"y  c #422B3F",
"u  c #4B293D",
"i  c #55283D",
"p  c #612436",
"a  c #68273E",
"s  c #72253C",
"d  c #2D2D40",
"f  c #302D40",
"g  c #233444",
"h  c #2B3648",
"j  c #2E3949",
"k  c #333244",
"l  c #373649",
"z  c #39374A",
"x  c #353B4C",
"c  c #3B3C4D",
"v  c #3E3F51",
"b  c #4A3244",
"n  c #403D4F",
"m  c #4E3B4B",
"M  c #533340",
"N  c #573C50",
"B  c #672A41",
"V  c #354152",
"C  c #3D4254",
"Z  c #3B4658",
"A  c #3B4A5B",
"S  c #414455",
"D  c #4C4455",
"F  c #434758",
"G  c #444859",
"H  c #484B5F",
"J  c #574F5E",
"K  c #7C4E58",
"L  c #63515E",
"P  c #68535E",
"I  c #4C4F63",
"U  c #425167",
"Y  c #4E5165",
"T  c #505369",
"R  c #565A72",
"E  c #5B5F79",
"W  c #5F607A",
"Q  c #8E1C2E",
"!  c #8F1D31",
"~  c #941D34",
"^  c #A31C3B",
"/  c #8B2337",
"(  c #8E253D",
")  c #9B203B",
"_  c #A0223F",
"`  c #D61E36",
"'  c #E41C39",
"]  c #FF113A",
"[  c #FE193E",
"{  c #C3223A",
"}  c #D52039",
"|  c #DF203E",
" . c #E0213B",
".. c #832741",
"X. c #822D44",
"o. c #AA2643",
"O. c #FF1C41",
"+. c #D02342",
"@. c #DD2A41",
"#. c #D52A49",
"$. c #C5324F",
"%. c #E62544",
"&. c #EE2142",
"*. c #E62847",
"=. c #F62242",
"-. c #FD2245",
";. c #FF2448",
":. c #FE2D4C",
">. c #E63A55",
",. c #FF3955",
"<. c #824655",
"1. c #844E5B",
"2. c #9C5F68",
"3. c #A3666F",
"4. c #A96B73",
"5. c #BB6C73",
"6. c #D24A5F",
"7. c #FD4059",
"8. c #D35B67",
"9. c #FF4B61",
"0. c #FF5165",
"q. c #FF5569",
"w. c #F75E6D",
"e. c #FD5B6B",
"r. c #D06470",
"t. c #D76973",
"y. c #FF6F79",
"u. c #F6717A",
"i. c #FF787F",
"p. c #FC737C",
"a. c #FF7980",
"s. c #D98083",
"d. c #D58788",
"f. c #E88284",
"g. c #FF8286",
"h. c #FF878A",
"j. c #FE8C8D",
"k. c #FF9594",
"l. c #FE9191",
"z. c #FF9996",
"x. c #FFA59E",
/* pixels */
"                                                                                                                                ",
"                                                                                                                                ",
"                                                                                                                                ",
"                                                                                                                                ",
"                                                                                                                                ",
"                                                                                                                                ",
"                                                                                                                                ",
"                                                                                                                                ",
"                                                                                                                                ",
"                                                                                                                                ",
"                                                                                                                                ",
"                                                                                                                                ",
"                                                                                                                                ",
"                                                                                                                                ",
"                                                                                                                                ",
"                                                                                                                                ",
"                                                                                                                                ",
"                                                                                                                                ",
"                                                                                                                                ",
"                                                                                                                                ",
"                                                                                                                                ",
"                                                        d L u.  ;.+.q v                                                         ",
"                                                      f d d.g.7.:.;.a U W                                                       ",
"                                                      5 V 6.h.p.  ;...h R                                                       ",
"                                                    X q A r.,.        k Y E                                                     ",
"                                                    X k Z s.0.e.  ;...g Y E                                                     ",
"                                                    X 5 Z 3.h.:.-.;.B x I E                                                     ",
"                                                      & l Z D     q l S T                                                       ",
"                                                      O 2 z S l 7 k C H R                                                       ",
"                                                        & 3 z C v S I R                                                         ",
"                                                        # + & l S I I k                                                         ",
"                                                O.      . # 2 7 l G c 7     [ 9.y.[                                             ",
"                                              :.0.w.  % 3 5 3 , , f l c q     9.a.                                              ",
"                                            ] i.z.    % 2 1 , X.1.6 q v 5                                                       ",
"                                            ,.        & 1 2 0 9.k.D 4 z 7                                                       ",
"                                                    4 4 & < ^ q.x.4.6 q k 7                                                     ",
"                                                    2 & 1 7 +.@.e.>.x 4 5 5                                                     ",
"                                                    ; + & ; p ` [ X.g t *.y                                                     ",
"                                                    9 8 2 2 2 { %.7 , <.j.l                                                     ",
"                                                  ) ( 8.0 r - u u 7 l J L c f.                                                  ",
"                                                ;.| % M 2 2 2 2 6 k S C x d 5.k.                                                ",
"                                              -.;.~ o ; 3 2 2 3 5 C C S n , 2.k.j.                                              ",
"                                            =.-.;.~ - 3 2 2 2 2 5 C c v c 7 m l.l.a.                                            ",
"                                            } } &.* 2 3 2 3 3 4 $ c S F l q > 5.q.-.                                            ",
"                                              } ! @ 3 2 5 3 4 b K x c c f q < _ O.-.                                            ",
"                                               .e - 2 2 3 2 4 #.l.P V k 7 f 7 w -.                                              ",
"                                              Q * 2 2 2 2 : s ;.j.t.C k 7 7 q < o.                                              ",
"                                              2 2 2 3 2 2 > i } :.$.j f 7 7 7 7 q                                               ",
"                                            f 7 2 3 2 3 2 2 < / ' N j q 7 7 f f 7                                               ",
"                                            7 5 5 3 3 4 2 3 3 5 b 6 k 7 f 7 q k 7 7                                             ",
"                                          f 3 3 3 2 5 1 3 4 7 5 7 q l k k 7 5 7 4 = 7                                           ",
"                                        f 5 1 5 5 5 3 3 2 2 5 5 c k f k f k 7 7 2 = 2 7                                         ",
"                                      f 7 2 2 2 2 2 2 3 2 2 7 7 S 5 f k d 7 7 5 2 = = 2 7                                       ",
"                                  7 f 7 2 2 5 5 2 2 2 2 2 2 5 2 5 5 7 l k 7 f 5 = 2 2 = 2 7 7                                   ",
"                                  f 4 2 2 2 5 2 2 4 2 2 2 2 4 # X 2 f f l k f 2 = 2 2 2 2 2 7                                   ",
"                                7 4 = 2 = 5 5 2 2 3 2 2 2 4 2 = + & f 7 f q 5 = 2 2 2 2 2 = 2 7                                 ",
"                                7 2 2 2 2 5 3 2 2 3 4 2 = 5 4 # O & d k f 7 4 = 2 2 2 2 2 = 2 7                                 ",
"                                  2 2 2 2 4 2 2 2 2 3 2 2 7 2 + + + 7 7 7 7 2 2 2 2 2 2 2 = 4                                   ",
"                                            = 2 2 3 2 2 5 7 # O + O 3 f f 5 = 2 = =                                             ",
"                                                    2 2 5 7 = + + O 3 f 7 7                                                     ",
"                                                          2 = + + + &                                                           ",
"                                                          + = + + + O                                                           ",
"                                                                                                                                ",
"                                                                                                                                "
};
