/* XPM */
static char *_429a040342643189108ad4e226d5cc1D35ndUZaRxhs8OrS[] = {
/* columns rows colors chars-per-pixel */
"64 64 141 2 ",
"   c None",
".  c #131218",
"X  c #19121E",
"o  c #051E2B",
"O  c #1D1723",
"+  c #1E1926",
"@  c #111D28",
"#  c #1E1C2A",
"$  c #241724",
"%  c #221A27",
"&  c #221D2A",
"*  c #341C2A",
"=  c #211F33",
"-  c #17212D",
";  c #1A212F",
":  c #152330",
">  c #1C2333",
",  c #1D2638",
"<  c #1E2B3B",
"1  c #132B3C",
"2  c #24212E",
"3  c #242233",
"4  c #292635",
"5  c #272538",
"6  c #2A2739",
"7  c #252A3C",
"8  c #2D2A3C",
"9  c #312432",
"0  c #392333",
"q  c #392338",
"w  c #312C3E",
"e  c #3D2A3F",
"r  c #521E2E",
"t  c #7A1B2B",
"y  c #4C293D",
"u  c #55283D",
"i  c #5B293F",
"p  c #612436",
"a  c #72253C",
"s  c #2D2D40",
"d  c #302E40",
"f  c #253545",
"g  c #2E3244",
"h  c #243748",
"j  c #2E3B4A",
"k  c #333244",
"l  c #363649",
"z  c #3A374A",
"x  c #353B4D",
"c  c #3C3C4D",
"v  c #3E3E51",
"b  c #403547",
"n  c #4B3345",
"m  c #413E4F",
"M  c #4E3B4B",
"N  c #413F50",
"B  c #573C50",
"V  c #752942",
"C  c #763449",
"Z  c #354153",
"A  c #3D4354",
"S  c #3B4D5D",
"D  c #424455",
"F  c #494253",
"G  c #434758",
"H  c #444859",
"J  c #494B5F",
"K  c #5D515F",
"L  c #7C4E58",
"P  c #68535E",
"I  c #4C4F63",
"U  c #4C5166",
"Y  c #515369",
"T  c #575A72",
"R  c #5B5F79",
"E  c #775A66",
"W  c #5D607A",
"Q  c #8E1C2E",
"!  c #8F1D31",
"~  c #891F3A",
"^  c #951E34",
"/  c #A31C3B",
"(  c #8B2337",
")  c #81243B",
"_  c #9E203B",
"`  c #A0223F",
"'  c #D61E36",
"]  c #D81F3D",
"[  c #E41C39",
"{  c #FF163D",
"}  c #F71B3F",
"|  c #FC183E",
" . c #C3223A",
".. c #D52039",
"X. c #E0213B",
"o. c #822D44",
"O. c #962641",
"+. c #9C2541",
"@. c #8C3C4C",
"#. c #AA2643",
"$. c #FF1D42",
"%. c #D12240",
"&. c #DD2A41",
"*. c #D52A49",
"=. c #C5324F",
"-. c #E62544",
";. c #EE2142",
":. c #F62242",
">. c #FC2245",
",. c #FF2448",
"<. c #FF2A4A",
"1. c #E63A55",
"2. c #F73350",
"3. c #FE3652",
"4. c #844E5B",
"5. c #9C5F68",
"6. c #B05460",
"7. c #A66670",
"8. c #A96B73",
"9. c #BB6C73",
"0. c #AD777C",
"q. c #D0495E",
"w. c #FD425A",
"e. c #FF4B61",
"r. c #FF5064",
"t. c #FE5668",
"y. c #FF5A6B",
"u. c #D76973",
"i. c #DA6B75",
"p. c #D1777D",
"a. c #FF6272",
"s. c #FF6D78",
"d. c #FF747D",
"f. c #B77C80",
"g. c #D27D81",
"h. c #FF7981",
"j. c #E78284",
"k. c #FE8C8D",
"l. c #FE9392",
"z. c #FD9A96",
"x. c #FFA59E",
/* pixels */
"                                                                                                                                ",
"                                                                                                                                ",
"                                                                                                                                ",
"                                                                                                                                ",
"                                                                                                                                ",
"                                                                                                                                ",
"                                                                                                                                ",
"                                                                                                                                ",
"                                                                                                                                ",
"                                                                                                                                ",
"                                                                                                                                ",
"                                                                                                                                ",
"                                                                                                                                ",
"                                                                                                                                ",
"                                                                                                                                ",
"                                                                                                                                ",
"                                                                                                                                ",
"                                                                                                                                ",
"                                                                                                                                ",
"                                                                                                                                ",
"                                                                                                                                ",
"                                                        d v         8 v                                                         ",
"                                                      w s 0.d.3.<.>.y U W                                                       ",
"                                                      8 x i.l.t.  ,.O.h T                                                       ",
"                                                    X w S q.y.        k U R                                                     ",
"                                                    X k A g.3.      i g U R                                                     ",
"                                                    X 8 A p.h.w.} ,.V j I R                                                     ",
"                                                      & l K 7.    +.n A Y                                                       ",
"                                                      O 3 l Z h 1 f A J T                                                       ",
"                                                        & 4 z N N G I T                                                         ",
"                                                        # + & l G I I k                                                         ",
"                                                $.      . # 3 8 z H c 8                                                         ",
"                                              $.<.2.  $ 4 6 4 , , d l c w   $.r.d.{                                             ",
"                                              a.k.k.  % 3 2 , o.4.7 w v 6                                                       ",
"                                            <.s.z.    & 2 3 q e.l.F 5 z 8                                                       ",
"                                            e.      4 5 & , / t.x.8.7 8 l 8                                                     ",
"                                                    3 # 2 8 %.&.y.1.x 6 < 5                                                     ",
"                                                    3 % & ; p ' { o.f 4 ( e                                                     ",
"                                                    > ; 3 3 3  .-.6 , C a.b                                                     ",
"                                                  _ ) @.4 0 ; y y 8 l E f.c j.                                                  ",
"                                                ,...r 6.9 0 3 3 5 k G A x s 9.l.                                                ",
"                                              >.,.^ o # 5 3 3 4 8 A A D m , 5.l.k.                                              ",
"                                            :.>.,.^ - 4 3 3 3 3 8 A c v c 8 M l.l.h.                                            ",
"                                            ....;.* 3 4 3 5 4 5 ; c D G l w > 9.t.>.                                            ",
"                                              ..! @ 4 3 4 4 5 n L x c c d w < ` $.>.                                            ",
"                                              X.t - 3 3 4 3 5 *.l.P Z k 8 d 8 e >.                                              ",
"                                              Q * 3 3 3 3 : a ,.k.u.A k 8 8 w < #.                                              ",
"                                              3 3 3 4 3 3 > u ..<.=.j w 8 8 8 8 w                                               ",
"                                            d 8 3 4 3 4 3 3 , ( [ B j w 8 8 d d 8                                               ",
"                                            8 6 6 4 4 5 3 4 5 8 n 7 k 8 d 8 d k 8 8                                             ",
"                                          d 4 4 4 3 8 2 4 5 8 6 8 w l d d 8 8 8 6 = 8                                           ",
"                                        d 8 2 6 6 6 4 4 3 3 6 8 c k d k d k 8 8 3 = 3 8                                         ",
"                                      d 8 3 3 3 3 3 3 4 3 3 8 8 G 6 d k 8 8 8 6 3 = = 3 8                                       ",
"                                  8 w 8 3 3 6 6 3 3 3 3 3 3 6 3 8 6 8 l k 8 d 6 = 3 3 = 3 8 8                                   ",
"                                  d 5 3 3 3 6 3 3 5 3 3 3 3 5 # X 3 d d z k d 3 = 3 3 3 3 3 8                                   ",
"                                8 5 = 3 = 6 8 3 3 4 3 3 3 6 3 = + & d 8 d d 6 = 3 3 3 3 3 = 3 8                                 ",
"                                8 3 3 3 3 6 4 3 3 4 5 3 = 6 5 # O & s k d 8 5 = 3 3 3 3 3 = 3 8                                 ",
"                                  3 3 3 3 5 3 3 3 3 4 3 3 8 3 + + + 8 8 8 8 3 3 3 3 3 3 3 = 5                                   ",
"                                            = 3 3 4 3 3 6 8 # O + O 4 d w 6 = 3 = =                                             ",
"                                                    3 3 6 8 = + + O 4 d 8 8                                                     ",
"                                                          3 = + + + &                                                           ",
"                                                          + = + + + O                                                           ",
"                                                                                                                                ",
"                                                                                                                                "
};
