/* XPM */
static char *_265114cd4d64b4cfdbd5cc02cbbfd59A7sqreJcvWjRpWBy[] = {
/* columns rows colors chars-per-pixel */
"64 64 138 2 ",
"   c None",
".  c #131218",
"X  c #19121E",
"o  c #091F2C",
"O  c #1D1723",
"+  c #1E1926",
"@  c #111D28",
"#  c #1F1C2A",
"$  c #211623",
"%  c #221825",
"&  c #221C2A",
"*  c #341C2A",
"=  c #211F33",
"-  c #17212D",
";  c #1C222F",
":  c #152230",
">  c #1D2333",
",  c #1E2438",
"<  c #132B3C",
"1  c #1E2B3B",
"2  c #24212E",
"3  c #242233",
"4  c #292636",
"5  c #272538",
"6  c #2B2739",
"7  c #252A3C",
"8  c #2C2A3C",
"9  c #322231",
"0  c #3E2434",
"q  c #392338",
"w  c #312C3E",
"e  c #3F2A3E",
"r  c #741C2C",
"t  c #7A1B2B",
"y  c #422133",
"u  c #4B293D",
"i  c #55283D",
"p  c #5B293F",
"a  c #612436",
"s  c #72253C",
"d  c #252F42",
"f  c #2F2C40",
"g  c #302E40",
"h  c #3E2D41",
"j  c #243545",
"k  c #2D3345",
"l  c #273648",
"z  c #2D3B4B",
"x  c #333143",
"c  c #3D3646",
"v  c #363749",
"b  c #3A374A",
"n  c #353A4C",
"m  c #3B3C4E",
"M  c #3E3E51",
"N  c #4B3345",
"B  c #473D4F",
"V  c #4E3B4B",
"C  c #503344",
"Z  c #583B4F",
"A  c #413F50",
"S  c #573C50",
"D  c #752942",
"F  c #364153",
"G  c #3D4253",
"H  c #3B4B5B",
"J  c #424455",
"K  c #494253",
"L  c #434758",
"P  c #444859",
"I  c #494B5F",
"U  c #564355",
"Y  c #7C4E58",
"T  c #68535E",
"R  c #4C4F63",
"E  c #4C5166",
"W  c #515369",
"Q  c #575A72",
"!  c #5B5F79",
"~  c #5D607A",
"^  c #8E1C2E",
"/  c #8F1D31",
"(  c #951D34",
")  c #A31C3B",
"_  c #8B2337",
"`  c #A0223F",
"'  c #AC213D",
"]  c #AD283F",
"[  c #D51E36",
"{  c #E31D3A",
"}  c #ED1E3A",
"|  c #FF183E",
" . c #C52037",
".. c #CA2037",
"X. c #C3223A",
"o. c #C9233F",
"O. c #D5213B",
"+. c #DA213B",
"@. c #E3213D",
"#. c #822D44",
"$. c #8E2F43",
"%. c #962641",
"&. c #9C2541",
"*. c #8E3146",
"=. c #853950",
"-. c #AA2643",
";. c #BC2941",
":. c #FF1E43",
">. c #C22945",
",. c #D12240",
"<. c #DD2A41",
"1. c #D52A49",
"2. c #C5324F",
"3. c #E62544",
"4. c #EF2141",
"5. c #F42242",
"6. c #FC2245",
"7. c #FF2448",
"8. c #FF2B49",
"9. c #E73A55",
"0. c #844E5B",
"q. c #9C5F68",
"w. c #A96B73",
"e. c #BB6C73",
"r. c #FF4960",
"t. c #FF5569",
"y. c #FF5869",
"u. c #D76973",
"i. c #FE7980",
"p. c #E58284",
"a. c #FA8C8D",
"s. c #FF8E8F",
"d. c #FB9090",
"f. c #FF9191",
"g. c #FF9594",
"h. c #FF9795",
"j. c #FF9192",
"k. c #FFA59E",
/* pixels */
"                                                                                                                                ",
"                                                                                                                                ",
"                                                                                                                                ",
"                                                                                                                                ",
"                                                                                                                                ",
"                                                                                                                                ",
"                                                                                                                                ",
"                                                                                                                                ",
"                                                                                                                                ",
"                                                                                                                                ",
"                                                                                                                                ",
"                                                                                                                                ",
"                                                                                                                                ",
"                                                                                                                                ",
"                                                                                                                                ",
"                                                                                                                                ",
"                                                                                                                                ",
"                                                                                                                                ",
"                                                                                                                                ",
"                                                                                                                                ",
"                                                                                                                                ",
"                                                        g G         8 M                                                         ",
"                                                      w k $.{ 5.6.6.u E ~                                                       ",
"                                                      6 F ;.[ @.  7.%.l Q                                                       ",
"                                                    X w H >.}         k E !                                                     ",
"                                                    X x H ] 6.      p k E !                                                     ",
"                                                    X 6 H ] } 4.7.7.D z R !                                                     ",
"                                                      & v U *.    &.N G W                                                       ",
"                                                      O 3 v H j < j G I Q                                                       ",
"                                                        & 4 b A A J R Q                                                         ",
"                                                        # + & v J R R x                                                         ",
"                                                        . # 3 8 b P m 8                                                         ",
"                                              .... .  $ 4 6 4 , , g v m w    .@.5...                                            ",
"                                              O.@.4.  % 3 2 , #.0.7 w M 6     @.5.                                              ",
"                                            ..5.7.    & 2 3 q r.g.K 5 m 8                                                       ",
"                                            O.      3 4 & 1 ) t.k.w.7 8 x 8                                                     ",
"                                                    3 # 2 8 ,.<.y.9.n 8 6 6                                                     ",
"                                                    2 + & ; a [ | #.j 5 c g                                                     ",
"                                                    > 5 3 3 3 X.3.6 5 C O.h                                                     ",
"                                                  ' y 9 3 3 ; u u 8 z =.7.B p.                                                  ",
"                                                7.O.r o.9 0 3 3 7 x G U Z d e.g.                                                ",
"                                              6.7.( o y 4 3 3 4 8 G G G m , q.g.a.                                              ",
"                                            5.6.7.( - 3 3 3 3 3 8 G m M m 8 V d.f.i.                                            ",
"                                            O.O.4.* 3 4 3 5 4 5 > m J L x w > e.t.6.                                            ",
"                                              O./ @ 4 3 4 4 5 N Y n m m g w 1 ` :.6.                                            ",
"                                              @.t - 3 3 4 3 5 1.f.T F x 8 g 8 e 6.                                              ",
"                                              ^ * 3 3 3 3 : s 7.s.u.G x 8 8 w 1 -.                                              ",
"                                              3 3 3 4 3 3 > i O.8.2.z w 8 8 8 8 w                                               ",
"                                            g 8 3 4 3 4 3 3 1 _ { S z w 8 8 g g 8                                               ",
"                                            8 6 6 4 4 5 3 4 4 6 N 7 x 8 g 8 g x 8 8                                             ",
"                                          g 4 4 4 3 8 2 4 5 8 6 8 w x g g 8 8 8 5 = 8                                           ",
"                                        g 8 2 6 6 6 4 4 3 3 6 8 m x g x g x 8 8 3 = 3 8                                         ",
"                                      g 8 3 3 3 3 3 3 4 3 3 8 8 J 6 f x f 8 8 6 3 = = 3 8                                       ",
"                                  8 w 8 3 3 6 6 3 3 3 3 3 3 6 3 8 6 8 v x 8 g 6 = 3 3 = 3 8 8                                   ",
"                                  g 5 = 3 3 6 3 3 5 3 3 3 3 5 # X 3 g g b x g 3 = 3 3 3 3 3 8                                   ",
"                                8 5 = 3 = 6 8 3 3 4 3 3 3 5 3 = + & g 8 g w 6 = 3 3 3 3 3 = 3 8                                 ",
"                                8 3 3 3 3 6 4 3 3 4 5 3 = 6 5 # O & f x g 8 5 = 3 3 3 3 3 = 3 8                                 ",
"                                  3 3 3 3 5 3 3 3 3 4 3 3 8 3 + + + 8 8 8 8 3 3 3 3 3 3 3 = 5                                   ",
"                                            = 3 3 4 3 3 6 8 # O + O 4 g w 6 = 3 = =                                             ",
"                                                    3 3 6 8 = + + O 4 g 8 8                                                     ",
"                                                          3 = + + + &                                                           ",
"                                                          + = + + + O                                                           ",
"                                                                                                                                ",
"                                                                                                                                "
};
