/* XPM */
static char * i0_xpm[] = {
"64 64 380 2",
"  	c None",
". 	c #D9945F",
"+ 	c #D68E61",
"@ 	c #DC955F",
"# 	c #B17E64",
"$ 	c #AD7C64",
"% 	c #CF8F60",
"& 	c #B58063",
"* 	c #D89260",
"= 	c #E7B655",
"- 	c #DC9A5D",
"; 	c #A67965",
"> 	c #A07566",
", 	c #9D7366",
"' 	c #D68864",
") 	c #E9BA53",
"! 	c #F9E048",
"~ 	c #D79061",
"{ 	c #E19A5D",
"] 	c #573F41",
"^ 	c #D4A056",
"/ 	c #F3CB4F",
"( 	c #DEA056",
"_ 	c #D68D63",
": 	c #D8945F",
"< 	c #192233",
"[ 	c #1F3140",
"} 	c #131628",
"| 	c #151D2D",
"1 	c #AB7355",
"2 	c #FDDB56",
"3 	c #FCEB5F",
"4 	c #E3AA4F",
"5 	c #D99461",
"6 	c #D99460",
"7 	c #1B2635",
"8 	c #4A999F",
"9 	c #213B4F",
"0 	c #121626",
"a 	c #172031",
"b 	c #001028",
"c 	c #725145",
"d 	c #FFD060",
"e 	c #FFF967",
"f 	c #FFEE5B",
"g 	c #FEEB3E",
"h 	c #E7B156",
"i 	c #5B4342",
"j 	c #041229",
"k 	c #0F0E2A",
"l 	c #3F7678",
"m 	c #4EA4AA",
"n 	c #4FA3A6",
"o 	c #2F405B",
"p 	c #141427",
"q 	c #151C2E",
"r 	c #192230",
"s 	c #1B1F30",
"t 	c #B98058",
"u 	c #FFD641",
"v 	c #FEF9A5",
"w 	c #FFFAAE",
"x 	c #FDE349",
"y 	c #4A3D3A",
"z 	c #0D162C",
"A 	c #415A40",
"B 	c #1B232F",
"C 	c #181D33",
"D 	c #4FA0A2",
"E 	c #4CA0A4",
"F 	c #4E7F90",
"G 	c #2E3356",
"H 	c #254858",
"I 	c #223449",
"J 	c #171D2D",
"K 	c #0D0F2B",
"L 	c #4D6B45",
"M 	c #416041",
"N 	c #2C2835",
"O 	c #BC8257",
"P 	c #FFE444",
"Q 	c #FCFCD1",
"R 	c #FFF776",
"S 	c #7D5E3D",
"T 	c #010C2A",
"U 	c #84B55A",
"V 	c #64B857",
"W 	c #184035",
"X 	c #366D81",
"Y 	c #427D95",
"Z 	c #3A5976",
"` 	c #2F6776",
" .	c #425179",
"..	c #242943",
"+.	c #131528",
"@.	c #5B9E50",
"#.	c #254F3A",
"$.	c #393238",
"%.	c #E8CC72",
"&.	c #F9ED8A",
"*.	c #EEDA96",
"=.	c #473D39",
"-.	c #070F2A",
";.	c #2E3B37",
">.	c #91D963",
",.	c #3EB352",
"'.	c #335E5D",
").	c #386980",
"!.	c #3F8799",
"~.	c #436989",
"{.	c #353D60",
"].	c #263F53",
"^.	c #306576",
"/.	c #344868",
"(.	c #1E383B",
"_.	c #183131",
":.	c #071026",
"<.	c #998D77",
"[.	c #FEEDB7",
"}.	c #D9C394",
"|.	c #454244",
"1.	c #0C0D2A",
"2.	c #5C7E4A",
"3.	c #5ACB5B",
"4.	c #387B59",
"5.	c #3B707C",
"6.	c #3F8298",
"7.	c #3E738B",
"8.	c #3B7B8D",
"9.	c #3E798F",
"0.	c #466B8C",
"a.	c #475981",
"b.	c #3D466E",
"c.	c #181B2F",
"d.	c #1A1E2E",
"e.	c #B7A179",
"f.	c #796F5C",
"g.	c #98866A",
"h.	c #58544F",
"i.	c #091127",
"j.	c #181E31",
"k.	c #1F2832",
"l.	c #4BB152",
"m.	c #3E7C62",
"n.	c #30535E",
"o.	c #3B8395",
"p.	c #417991",
"q.	c #425F82",
"r.	c #3E476F",
"s.	c #29284D",
"t.	c #2A3150",
"u.	c #263351",
"v.	c #10152D",
"w.	c #16162C",
"x.	c #1C2131",
"y.	c #292A36",
"z.	c #141A2D",
"A.	c #303139",
"B.	c #161C2E",
"C.	c #448184",
"D.	c #336368",
"E.	c #316D4E",
"F.	c #375D5D",
"G.	c #274C5E",
"H.	c #42839A",
"I.	c #354062",
"J.	c #21243F",
"K.	c #1C2638",
"L.	c #205136",
"M.	c #268341",
"N.	c #479147",
"O.	c #4C8449",
"P.	c #122930",
"Q.	c #11112B",
"R.	c #11182C",
"S.	c #73605B",
"T.	c #443D44",
"U.	c #041026",
"V.	c #181B2D",
"W.	c #478A8A",
"X.	c #5AB4AF",
"Y.	c #52A3A2",
"Z.	c #428996",
"`.	c #3F8D9F",
" +	c #356177",
".+	c #181D2E",
"++	c #2B424B",
"@+	c #3B8D5A",
"#+	c #3CC953",
"$+	c #39BF56",
"%+	c #4CC257",
"&+	c #91EA66",
"*+	c #78BE5A",
"=+	c #233034",
"-+	c #12122B",
";+	c #141B2E",
">+	c #8A7266",
",+	c #5B4F4E",
"'+	c #161528",
")+	c #3A6D70",
"!+	c #53AEAF",
"~+	c #418E9D",
"{+	c #408A9A",
"]+	c #3F899A",
"^+	c #1F3949",
"/+	c #1D2935",
"(+	c #395F5E",
"_+	c #44836A",
":+	c #2E7649",
"<+	c #1F4635",
"[+	c #1A4036",
"}+	c #27643F",
"|+	c #56B956",
"1+	c #40AC51",
"2+	c #1C3C35",
"3+	c #55464E",
"4+	c #4A4347",
"5+	c #0A0C28",
"6+	c #15182A",
"7+	c #20263E",
"8+	c #314F64",
"9+	c #386F84",
"0+	c #3E8497",
"a+	c #408499",
"b+	c #26344D",
"c+	c #18222F",
"d+	c #406E67",
"e+	c #42716A",
"f+	c #314A53",
"g+	c #324F55",
"h+	c #1D2537",
"i+	c #110C29",
"j+	c #111D2E",
"k+	c #1D4337",
"l+	c #1E3F36",
"m+	c #1D2631",
"n+	c #394A3C",
"o+	c #141E2F",
"p+	c #2B7644",
"q+	c #131A26",
"r+	c #2E4A62",
"s+	c #407992",
"t+	c #3C7188",
"u+	c #3F7B91",
"v+	c #3E7E93",
"w+	c #406383",
"x+	c #273149",
"y+	c #30524F",
"z+	c #43776B",
"A+	c #45796D",
"B+	c #407366",
"C+	c #1D2B37",
"D+	c #13102B",
"E+	c #100829",
"F+	c #23513B",
"G+	c #92E465",
"H+	c #527046",
"I+	c #1F5E3D",
"J+	c #18202C",
"K+	c #203547",
"L+	c #274757",
"M+	c #377485",
"N+	c #3F8B9C",
"O+	c #3E8A9A",
"P+	c #3F728B",
"Q+	c #3F4B73",
"R+	c #2E3858",
"S+	c #2D454F",
"T+	c #3E6E62",
"U+	c #304755",
"V+	c #191D34",
"W+	c #120429",
"X+	c #23603E",
"Y+	c #4CD55B",
"Z+	c #53BB56",
"`+	c #161B2E",
" @	c #14162A",
".@	c #14283D",
"+@	c #205067",
"@@	c #387F93",
"#@	c #3A879A",
"$@	c #3A748D",
"%@	c #3F4B75",
"&@	c #43527B",
"*@	c #475680",
"=@	c #414D77",
"-@	c #374C64",
";@	c #42527B",
">@	c #344265",
",@	c #14182B",
"'@	c #14142D",
")@	c #24653F",
"!@	c #194F38",
"~@	c #171C2D",
"{@	c #504E4F",
"]@	c #737065",
"^@	c #3B4D56",
"/@	c #354A56",
"(@	c #37404F",
"_@	c #383C54",
":@	c #2E3854",
"<@	c #2A3451",
"[@	c #2D3753",
"}@	c #2B3048",
"|@	c #2F374E",
"1@	c #2F2E4C",
"2@	c #245A3D",
"3@	c #214D39",
"4@	c #120B2A",
"5@	c #15192D",
"6@	c #15122C",
"7@	c #4D3B48",
"8@	c #151B2C",
"9@	c #3C343D",
"0@	c #524343",
"a@	c #5E4F47",
"b@	c #5D4E48",
"c@	c #60544C",
"d@	c #474040",
"e@	c #524442",
"f@	c #5E4E4A",
"g@	c #2B2A34",
"h@	c #6F5D56",
"i@	c #3D393D",
"j@	c #372E3A",
"k@	c #359B4D",
"l@	c #38B351",
"m@	c #192030",
"n@	c #4F474A",
"o@	c #1A1E2F",
"p@	c #172133",
"q@	c #34607D",
"r@	c #31627F",
"s@	c #2B4468",
"t@	c #2B3E63",
"u@	c #29375D",
"v@	c #2D3B60",
"w@	c #3B4563",
"x@	c #252C43",
"y@	c #453E43",
"z@	c #3D3942",
"A@	c #443E45",
"B@	c #11162C",
"C@	c #21503B",
"D@	c #22523B",
"E@	c #1C2A3C",
"F@	c #234152",
"G@	c #2D5767",
"H@	c #2D5465",
"I@	c #39516E",
"J@	c #445078",
"K@	c #424F74",
"L@	c #283556",
"M@	c #3F3E4B",
"N@	c #77625B",
"O@	c #242635",
"P@	c #413C43",
"Q@	c #665754",
"R@	c #14132C",
"S@	c #151A2C",
"T@	c #141528",
"U@	c #131325",
"V@	c #121224",
"W@	c #15192B",
"X@	c #181F32",
"Y@	c #181E30",
"Z@	c #0E1425",
"`@	c #2D2C37",
" #	c #272937",
".#	c #10182B",
"+#	c #35333D",
"@#	c #1B2231",
"##	c #161D2F",
"$#	c #171E30",
"%#	c #151B2D",
"&#	c #171D30",
"*#	c #12192C",
"=#	c #171D2E",
"-#	c #151B2E",
";#	c #171C2E",
"                                                                                                                                ",
"                                                                                                                                ",
"                                                                                                                                ",
"                                                                                                                                ",
"                                                                                                                                ",
"                                                                                                                                ",
"                                                                                                                                ",
"                                                                                                                                ",
"                                                                                                                                ",
"                                                                                                                                ",
"                                                                                                                                ",
"                                                                                                                                ",
"                                                                                                                                ",
"                                                                                                                                ",
"                                                                                                                                ",
"                                                                                                                                ",
"                                                                                                                                ",
"                                                                                                                                ",
"                                    . + @ # $ % &                                                                               ",
"                                    * = -     ; > ,                                                                             ",
"                                  ' ) ! ~ {                                                                                     ",
"                                  ] ^ / ( _ :             < [ }                                                                 ",
"                                  | 1 2 3 4 5 6           7 8 9 0 a                                                             ",
"                                  b c d e f g h i j k   } l m n o p }     q r                                                   ",
"                                    s t u v w x y z A B C D E F G H I J K L M                                                   ",
"                                      N O P Q R S T U V W X Y Z ` Y  ...+.@.#.                                                  ",
"                                        $.%.&.*.=.-.;.>.,.'.).!.~.{.].^./.(._.                                                  ",
"                                        :.<.[.}.|.  1.2.3.4.5.6.7.8.9.0.a.b.c.                                                  ",
"                                        d.e.f.g.h.i.j.k.l.m.n.o.p.q.r.s.t.u.v.w.                                                ",
"                                        x.y.z.A.B.+.C.D.E.F.G.H.I.J.K.L.M.N.O.P.Q.                                              ",
"                                          R.S.T.U.V.W.X.Y.Z.`. +.+++@+#+$+%+&+*+=+-+                                            ",
"                                          ;+>+,+  '+)+!+~+{+]+^+/+(+_+:+<+[+}+|+1+2+                                            ",
"                                          R.3+4+5+6+7+8+9+0+a+b+c+d+e+f+g+h+i+j+k+l+                                            ",
"                                          m+n+o+p+q+r+s+t+u+v+w+x+y+z+A+B+C+      D+                                            ",
"                                        E+F+G+H+I+J+K+L+M+N+O+P+Q+R+S+T+U+V+                                                    ",
"                                        W+X+Y+Z+`+ @.@+@@@#@$@%@&@*@=@-@;@>@,@'@                                                ",
"                                          c+)@!@B.~@{@]@^@/@(@_@:@<@[@}@|@1@2@3@4@                                              ",
"                                          5@6@7@x.8@9@0@a@b@c@d@e@f@g@h@i@j@k@l@                                                ",
"                                            m@n@o@p@q@r@s@t@u@v@w@x@y@z@A@B@C@D@5@                                              ",
"                                                  E@F@G@H@I@J@K@L@M@N@O@P@Q@R@                                                  ",
"                                                  S@T@U@V@W@X@Y@Z@`@ #R..#+#@#                                                  ",
"                                                B.B.##$#$###%#%#&#*#*#=#=#.#-#B.                                                ",
"                                              B.B.B.B.B.B.B.B.B.B.=#;#B.B.=#B.B.                                                ",
"                                                B.B.B.B.B.B.B.B.B.B.B.B.B.B.B.B.                                                ",
"                                                                                                                                ",
"                                                                                                                                ",
"                                                                                                                                ",
"                                                                                                                                ",
"                                                                                                                                ",
"                                                                                                                                ",
"                                                                                                                                ",
"                                                                                                                                ",
"                                                                                                                                ",
"                                                                                                                                ",
"                                                                                                                                ",
"                                                                                                                                ",
"                                                                                                                                ",
"                                                                                                                                ",
"                                                                                                                                ",
"                                                                                                                                ",
"                                                                                                                                ",
"                                                                                                                                ",
"                                                                                                                                ",
"                                                                                                                                "};
