/* XPM */
static char * i1_xpm[] = {
"64 64 386 2",
"  	c None",
". 	c #D79060",
"+ 	c #D8935F",
"@ 	c #D9945F",
"# 	c #A97A65",
"$ 	c #9C7366",
"% 	c #9E7466",
"& 	c #D78E61",
"* 	c #E4AF57",
"= 	c #E6B356",
"- 	c #D68D61",
"; 	c #9F7466",
"> 	c #F7D94A",
", 	c #F0CA4F",
"' 	c #D68C61",
") 	c #DC9A5D",
"! 	c #D89260",
"~ 	c #E0A45A",
"{ 	c #E4B354",
"] 	c #D79162",
"^ 	c #E39564",
"/ 	c #E8B555",
"( 	c #EEC550",
"_ 	c #DFA24F",
": 	c #D7905F",
"< 	c #D69160",
"[ 	c #263F4B",
"} 	c #1C2838",
"| 	c #131527",
"1 	c #D6935E",
"2 	c #8E654D",
"3 	c #DCA657",
"4 	c #FFF341",
"5 	c #FFF78B",
"6 	c #F0CD58",
"7 	c #DF975E",
"8 	c #0C051B",
"9 	c #3A6C6F",
"0 	c #4C9A9E",
"a 	c #162136",
"b 	c #141829",
"c 	c #000D27",
"d 	c #865E4D",
"e 	c #FFDD4B",
"f 	c #FCF68A",
"g 	c #FFF66E",
"h 	c #A27548",
"i 	c #0D142E",
"j 	c #182132",
"k 	c #4F9A97",
"l 	c #4DA3A9",
"m 	c #428795",
"n 	c #1F263E",
"o 	c #111122",
"p 	c #14182A",
"q 	c #19202F",
"r 	c #1A2330",
"s 	c #6B5044",
"t 	c #FFE352",
"u 	c #F9F69C",
"v 	c #FFF158",
"w 	c #735641",
"x 	c #0C1B2D",
"y 	c #364D3D",
"z 	c #0A0421",
"A 	c #39646C",
"B 	c #5EBEB6",
"C 	c #48999F",
"D 	c #447087",
"E 	c #252D49",
"F 	c #275060",
"G 	c #1E2E40",
"H 	c #161B2C",
"I 	c #15192E",
"J 	c #648E4E",
"K 	c #293E37",
"L 	c #0F172E",
"M 	c #956B49",
"N 	c #FFF052",
"O 	c #FEFFE3",
"P 	c #FDCC61",
"Q 	c #634541",
"R 	c #13202E",
"S 	c #8CD361",
"T 	c #348344",
"U 	c #224446",
"V 	c #428C9C",
"W 	c #417E94",
"X 	c #325B71",
"Y 	c #367887",
"Z 	c #44819A",
"` 	c #3C476D",
" .	c #1A1E36",
"..	c #1D232C",
"+.	c #57B555",
"@.	c #13232F",
"#.	c #977757",
"$.	c #FAE69D",
"%.	c #FEF5BC",
"&.	c #B79A6B",
"*.	c #26232E",
"=.	c #0A0F2A",
"-.	c #60814B",
";.	c #84E862",
">.	c #338351",
",.	c #2F4F62",
"'.	c #3B7C90",
").	c #417E95",
"!.	c #426485",
"~.	c #2C3553",
"{.	c #27475A",
"].	c #33687A",
"^.	c #2E3958",
"/.	c #1F4638",
"(.	c #192831",
"_.	c #3E3E42",
":.	c #C9B890",
"<.	c #F5E4AB",
"[.	c #BCA982",
"}.	c #1B2130",
"|.	c #13182D",
"1.	c #161C2E",
"2.	c #7FB057",
"3.	c #56C45C",
"4.	c #35635A",
"5.	c #3A7786",
"6.	c #3F7890",
"7.	c #3E748B",
"8.	c #3A7E90",
"9.	c #418C9E",
"0.	c #456F8E",
"a.	c #495984",
"b.	c #292C4D",
"c.	c #121826",
"d.	c #574F4A",
"e.	c #D2B887",
"f.	c #524E4A",
"g.	c #B7A27C",
"h.	c #262936",
"i.	c #151C2D",
"j.	c #0F112E",
"k.	c #507645",
"l.	c #55B75F",
"m.	c #3A6561",
"n.	c #336573",
"o.	c #3F8E9F",
"p.	c #417790",
"q.	c #436586",
"r.	c #334263",
"s.	c #272749",
"t.	c #2C3554",
"u.	c #1A263F",
"v.	c #0F1029",
"w.	c #252835",
"x.	c #252733",
"y.	c #262835",
"z.	c #2E2F38",
"A.	c #12172B",
"B.	c #192232",
"C.	c #4E9797",
"D.	c #274A4E",
"E.	c #3A7B60",
"F.	c #283C4A",
"G.	c #316A7C",
"H.	c #427490",
"I.	c #2E3253",
"J.	c #21253E",
"K.	c #182230",
"L.	c #266F3C",
"M.	c #2A8742",
"N.	c #53944B",
"O.	c #3C7445",
"P.	c #0D162C",
"Q.	c #0B1429",
"R.	c #2F2E3B",
"S.	c #7A655F",
"T.	c #2D2D3A",
"U.	c #1B2636",
"V.	c #58AFA9",
"W.	c #56ACA8",
"X.	c #4FA0A1",
"Y.	c #418997",
"Z.	c #408B9D",
"`.	c #2C465C",
" +	c #171E2D",
".+	c #365B59",
"++	c #3AA157",
"@+	c #3DCA55",
"#+	c #39BB55",
"$+	c #60CF5C",
"%+	c #9AED67",
"&+	c #61934F",
"*+	c #161A2E",
"=+	c #413C43",
"-+	c #9C7F6E",
";+	c #3E3A41",
">+	c #181F30",
",+	c #4B9591",
"'+	c #58B5B2",
")+	c #4999A1",
"!+	c #46949F",
"~+	c #3B8293",
"{+	c #1A2836",
"]+	c #273D44",
"^+	c #3E6A65",
"/+	c #3F8862",
"(+	c #2A6D43",
"_+	c #1D3D33",
":+	c #1A4B38",
"<+	c #3C8C49",
"[+	c #5BC759",
"}+	c #33954A",
"|+	c #182530",
"1+	c #1B1C32",
"2+	c #6B5758",
"3+	c #33303C",
"4+	c #0E132A",
"5+	c #15192B",
"6+	c #2C3C52",
"7+	c #37616D",
"8+	c #3F7C90",
"9+	c #3C8598",
"0+	c #3F758D",
"a+	c #1A1B34",
"b+	c #294447",
"c+	c #44776D",
"d+	c #3F6866",
"e+	c #314A53",
"f+	c #304C52",
"g+	c #15122D",
"h+	c #12172C",
"i+	c #12202E",
"j+	c #23553B",
"k+	c #1B3233",
"l+	c #0D0F2B",
"m+	c #384B3B",
"n+	c #313A38",
"o+	c #1E503A",
"p+	c #245A3D",
"q+	c #13102A",
"r+	c #37627A",
"s+	c #3B718A",
"t+	c #3D748C",
"u+	c #3E8094",
"v+	c #407A91",
"w+	c #3A5172",
"x+	c #243141",
"y+	c #38635B",
"z+	c #43756A",
"A+	c #467C6E",
"B+	c #355C57",
"C+	c #161E2E",
"D+	c #110729",
"E+	c #0D112B",
"F+	c #498C4B",
"G+	c #98D863",
"H+	c #36573E",
"I+	c #1E4D39",
"J+	c #15152C",
"K+	c #244351",
"L+	c #284959",
"M+	c #3D8596",
"N+	c #3E8799",
"O+	c #3E8898",
"P+	c #416081",
"Q+	c #394167",
"R+	c #2F3C57",
"S+	c #355A58",
"T+	c #407066",
"U+	c #28334B",
"V+	c #151A2C",
"W+	c #16182D",
"X+	c #298446",
"Y+	c #56DE5D",
"Z+	c #366E43",
"`+	c #110D2B",
" @	c #161C2B",
".@	c #13253A",
"+@	c #276279",
"@@	c #398397",
"#@	c #3A889A",
"$@	c #3B6886",
"%@	c #3F4873",
"&@	c #45567E",
"*@	c #46537F",
"=@	c #405273",
"-@	c #3A4E6B",
";@	c #44537E",
">@	c #303D5D",
",@	c #15182C",
"'@	c #14132C",
")@	c #13112B",
"!@	c #204037",
"~@	c #216E3F",
"{@	c #163432",
"]@	c #16172D",
"^@	c #171D2D",
"/@	c #4F4E4F",
"(@	c #726D62",
"_@	c #3B4C55",
":@	c #354A55",
"<@	c #374250",
"[@	c #383D54",
"}@	c #2D3754",
"|@	c #2A3551",
"1@	c #2D3653",
"2@	c #2A2F46",
"3@	c #2F374D",
"4@	c #302F4D",
"5@	c #24593D",
"6@	c #214D39",
"7@	c #120B2A",
"8@	c #0E0F29",
"9@	c #31243A",
"0@	c #362F3D",
"a@	c #181D2E",
"b@	c #3B333C",
"c@	c #524344",
"d@	c #5E4F47",
"e@	c #5D4E48",
"f@	c #60544C",
"g@	c #474040",
"h@	c #524442",
"i@	c #5E4E4A",
"j@	c #2B2B34",
"k@	c #6F5D56",
"l@	c #3F393E",
"m@	c #362E3A",
"n@	c #359B4D",
"o@	c #38B351",
"p@	c #0F192B",
"q@	c #33343D",
"r@	c #39363F",
"s@	c #0A1226",
"t@	c #1A2335",
"u@	c #335E7B",
"v@	c #31627F",
"w@	c #2B4468",
"x@	c #2B3E63",
"y@	c #29375D",
"z@	c #2D3B60",
"A@	c #3B4563",
"B@	c #252C43",
"C@	c #453E43",
"D@	c #3E3942",
"E@	c #3F3A42",
"F@	c #14182E",
"G@	c #22513C",
"H@	c #22523A",
"I@	c #1B2A3C",
"J@	c #234152",
"K@	c #2D5767",
"L@	c #2D5465",
"M@	c #39516E",
"N@	c #445078",
"O@	c #424F74",
"P@	c #293556",
"Q@	c #403F4B",
"R@	c #75615B",
"S@	c #1F2233",
"T@	c #625452",
"U@	c #4E4649",
"V@	c #010022",
"W@	c #141528",
"X@	c #131325",
"Y@	c #121224",
"Z@	c #181F32",
"`@	c #181E30",
" #	c #111627",
".#	c #323039",
"+#	c #202333",
"@#	c #10172B",
"##	c #1D2131",
"$#	c #292A37",
"%#	c #121B2D",
"&#	c #161D2F",
"*#	c #171E30",
"=#	c #151B2D",
"-#	c #161B2D",
";#	c #171D2F",
">#	c #11192C",
",#	c #141A2D",
"'#	c #141B2D",
")#	c #12192C",
"!#	c #171C2E",
"~#	c #171D2E",
"                                                                                                                                ",
"                                                                                                                                ",
"                                                                                                                                ",
"                                                                                                                                ",
"                                                                                                                                ",
"                                                                                                                                ",
"                                                                                                                                ",
"                                                                                                                                ",
"                                                                                                                                ",
"                                                                                                                                ",
"                                                                                                                                ",
"                                                                                                                                ",
"                                                                                                                                ",
"                                                                                                                                ",
"                                                                                                                                ",
"                                                                                                                                ",
"                                                                                                                                ",
"                                    . + @ + # $ %                                                                               ",
"                                  & * = -     ; %                                                                               ",
"                                  & > , ' )                                                                                     ",
"                                  ! ~ { - - ]                                                                                   ",
"                                  @ ! ^ / ( _ : <         [ } |                                                                 ",
"                                    1 2 3 4 5 6 7       8 9 0 a b                                                               ",
"                                      c d e f g h i     j k l m n o p     q r                                                   ",
"                                        s t u v w x y z A B C D E F G H I J K                                                   ",
"                                      L M N O P Q R S T U V W X Y Z `  ...+.@.                                                  ",
"                                        #.$.%.&.*.=.-.;.>.,.'.).!.~.{.].^./.(.                                                  ",
"                                        _.:.<.[.}.|.1.2.3.4.5.6.7.8.9.0.a.b.c.                                                  ",
"                                        d.e.f.g.h.i.j.k.l.m.n.o.p.q.r.s.t.u.v.                                                  ",
"                                        w.x.y.z.A.B.C.D.E.F.G.H.I.J.K.L.M.N.O.P.                                                ",
"                                        Q.R.S.T.  U.V.W.X.Y.Z.`. +.+++@+#+$+%+&+*+                                              ",
"                                          =+-+;+  >+,+'+)+!+~+{+]+^+/+(+_+:+<+[+}+|+                                            ",
"                                          1+2+3+4+5+6+7+8+9+0+a+b+c+d+e+f+g+h+i+j+k+                                            ",
"                                        l+m+n+o+p+q+r+s+t+u+v+w+x+y+z+A+B+C+    D+                                              ",
"                                        E+F+G+H+I+J+K+L+M+N+O+P+Q+R+S+T+U+V+                                                    ",
"                                        W+X+Y+Z+`+ @.@+@@@#@$@%@&@*@=@-@;@>@,@'@                                                ",
"                                        )@!@~@{@]@^@/@(@_@:@<@[@}@|@1@2@3@4@5@6@7@                                              ",
"                                          8@9@0@  a@b@c@d@e@f@g@h@i@j@k@l@m@n@o@                                                ",
"                                          p@q@r@s@t@u@v@w@x@y@z@A@B@C@D@E@F@G@H@I                                               ",
"                                                  I@J@K@L@M@N@O@P@Q@R@S@T@U@V@                                                  ",
"                                                  V+W@X@Y@5+Z@`@ #.#+#@###$#%#                                                  ",
"                                                1.1.&#*#*#&#=#-#;#>#,#;#'#)#!#1.                                                ",
"                                              1.1.1.1.1.1.1.1.1.1.~#1.1.1.!#1.1.                                                ",
"                                                1.1.1.1.1.1.1.1.1.1.1.1.1.1.1.1.                                                ",
"                                                                                                                                ",
"                                                                                                                                ",
"                                                                                                                                ",
"                                                                                                                                ",
"                                                                                                                                ",
"                                                                                                                                ",
"                                                                                                                                ",
"                                                                                                                                ",
"                                                                                                                                ",
"                                                                                                                                ",
"                                                                                                                                ",
"                                                                                                                                ",
"                                                                                                                                ",
"                                                                                                                                ",
"                                                                                                                                ",
"                                                                                                                                ",
"                                                                                                                                ",
"                                                                                                                                ",
"                                                                                                                                ",
"                                                                                                                                "};
