/* XPM */
static char *result[] = {
/* columns rows colors chars-per-pixel */
"64 64 221 2 ",
"   c #009100540052",
".  c #0B16024E022F",
"X  c #0166093804C3",
"o  c #0C030962052E",
"O  c #020705250880",
"+  c #0BFC04270961",
"@  c #032709B50D38",
"#  c #0B7C0B2F0B6E",
"$  c #145700DD0149",
"%  c #1CDF0162023D",
"&  c #140703A10B4B",
"*  c #1943048E0E27",
"=  c #139F0CFD072D",
"-  c #0CEA10BE0E8F",
";  c #143411AA0C28",
":  c #196313A80D79",
">  c #05310CFD1304",
",  c #0A310C9011C1",
"<  c #181408E8147E",
"1  c #0DD31005149C",
"2  c #0AE212961AD5",
"3  c #0A7114E41699",
"4  c #145E13A0144B",
"5  c #17D115EA1342",
"6  c #1C12195814E5",
"7  c #172B188518DE",
"8  c #1B271AAB19EE",
"9  c #1509158E1956",
"0  c #2404015901D6",
"q  c #2C0702260492",
"w  c #2A7D01020E8A",
"e  c #32620376050C",
"r  c #382704C30A8E",
"t  c #29BC07321702",
"y  c #350A0AD11E82",
"u  c #1FE81D0C18E4",
"i  c #2475224B1EC6",
"p  c #0CEB1D522B23",
"a  c #07C0173A227F",
"s  c #1A561CFF2C2D",
"d  c #16C6195725BB",
"f  c #3C180B8A220A",
"g  c #3A000E182817",
"h  c #329A1C903EE2",
"j  c #1C8D200423B8",
"k  c #0D07223B32AA",
"l  c #0992264C3AC1",
"z  c #104B23B632DF",
"x  c #1C3422CB33C8",
"c  c #18F925C63A89",
"v  c #14172A5A3C23",
"b  c #159E28C43AC0",
"n  c #22F922C922DF",
"m  c #2D002CCC2C8F",
"M  c #28032766271F",
"N  c #31972F7B2DC9",
"B  c #2ABF2D5D30B4",
"V  c #239B2E673947",
"C  c #2F7030753267",
"Z  c #32D232A7335C",
"A  c #367C38953A2C",
"S  c #3A373A633AF7",
"D  c #33EF362B3C63",
"F  c #390723513378",
"G  c #49C402850389",
"H  c #478A048D0547",
"J  c #542C05E707DD",
"K  c #5C3404C40561",
"L  c #468C058C1D76",
"P  c #6D4408E50A6F",
"I  c #64B608350A14",
"U  c #7E5E00FB0000",
"Y  c #765D01E10901",
"T  c #6C410000147E",
"R  c #7A96088F1653",
"E  c #6A8014021EE8",
"W  c #45D50C9B2720",
"Q  c #4A250A8D2514",
"!  c #541511DE319B",
"~  c #5D0411A93518",
"^  c #5AC415003B66",
"/  c #585E084D216C",
"(  c #6685045D27D4",
")  c #6C1615053D84",
"_  c #660212DD3843",
"`  c #6FF415F23FA8",
"'  c #755702BC21C3",
"]  c #17AE2F0143EC",
"[  c #05DE344F49AD",
"{  c #188632FA4908",
"}  c #1C7E3AC954CF",
"|  c #184B3BB35692",
" . c #0EE52E8343AE",
".. c #23572BA241D6",
"X. c #240A351F4BF8",
"o. c #2BA032B44BBD",
"O. c #399A3CB24491",
"+. c #35D53A5C472C",
"@. c #29FE3B605643",
"#. c #316137A857B3",
"$. c #79B31A2F462D",
"%. c #660C1A7441FB",
"&. c #5C5220CA49EA",
"*. c #569B290F55CE",
"=. c #6B8327354D82",
"-. c #582E3AA46920",
";. c #68EB3D176C19",
":. c #19CA40C45E39",
">. c #3CF540C34BF0",
",. c #25163FE35D26",
"<. c #1A24474966DB",
"1. c #0B504D346D99",
"2. c #219A47F667D9",
"3. c #22DE49CA6AB5",
"4. c #269A465366CC",
"5. c #335245646723",
"6. c #35044701692D",
"7. c #25404E7770FA",
"8. c #38164D6B7371",
"9. c #27D355607A9A",
"0. c #39E852EC78A2",
"q. c #42774B6763BB",
"w. c #4CD744326F0F",
"e. c #4E60432B724D",
"r. c #530441BA7028",
"t. c #57B84B3F7BD0",
"y. c #4938560C75B1",
"u. c #469B505C6ADC",
"i. c #8870064A08CE",
"p. c #99F4065B09A2",
"a. c #88DE09BF12B4",
"s. c #9583000013FF",
"d. c #A44105F60E7E",
"f. c #AA0A0B531914",
"g. c #A05A100216CA",
"h. c #8ED210632B5B",
"j. c #A7DD1412246C",
"k. c #96B91FD83D56",
"l. c #85D31B054C83",
"z. c #95081DFB5527",
"x. c #85CF272A545D",
"c. c #2C385B538312",
"v. c #2DBB5E9C88F0",
"b. c #27A6581982DE",
"n. c #34655AC282F7",
"m. c #3D195B578409",
"M. c #18C062B18DD5",
"N. c #2D3A60A88BBA",
"B. c #2B1E689B975B",
"V. c #31A26B8E9D03",
"C. c #35FA67689569",
"Z. c #337664168C67",
"A. c #35116F53A3A2",
"S. c #38407563A9D9",
"D. c #3AC47D6CB58E",
"F. c #3A3C7F4CB7E4",
"G. c #4A935B948543",
"H. c #4D715BD68BF1",
"J. c #470158A887F1",
"K. c #5B0A56E58A4A",
"L. c #5C6D527A8A23",
"P. c #6394582B8BF9",
"I. c #482A62718D31",
"U. c #5037608C8F7B",
"Y. c #481869189B38",
"T. c #52216661976D",
"R. c #44A16BFCA29E",
"E. c #4B826E32A3DB",
"W. c #51FE6C5DA152",
"Q. c #5A436BDEA4D7",
"!. c #4BCD71F7A63D",
"~. c #459375ACAB0E",
"^. c #502C7368AB6C",
"/. c #5229714DA6AE",
"(. c #4AA57B1DB4D6",
"). c #47A57B3EB65B",
"_. c #54FE7BACB671",
"`. c #52C677BAB4C5",
"'. c #3B2B828ABBE3",
"]. c #4313839FBEAB",
"[. c #4A5F81D4B9CC",
"{. c #553680BBBC67",
"}. c #3E459784D8FB",
"|. c #3DD1A3F0E6E5",
" X c #3D2DA83FECA2",
".X c #4586864AC382",
"XX c #4D658530C39D",
"oX c #44D48942C651",
"OX c #43E88CCECC07",
"+X c #4E128ADCCB96",
"@X c #488589C6C78D",
"#X c #530B851BC34E",
"$X c #5273887DC6C5",
"%X c #5C4684B4C24D",
"&X c #40F790E2CF7C",
"*X c #43768FCAD0B6",
"=X c #43389245D30C",
"-X c #4C0A91E8D3CC",
";X c #4AD999D2DF0A",
":X c #47A49869DCC8",
">X c #529D929FD60E",
",X c #59D592DBD70B",
"<X c #54FD8F33D3FE",
"1X c #60908D4CD3E9",
"2X c #4DE19D48E3B2",
"3X c #51549DBAE66D",
"4X c #5B6B9821E4A3",
"5X c #4D6BA301EC03",
"6X c #4889A355E9F4",
"7X c #5D4DA421EF0B",
"8X c #5090A158E8E8",
"9X c #51F2A6A3F25B",
"0X c #5AC9A61EF2C8",
"qX c #5285A936F55B",
"wX c #53E3AE17FC24",
"eX c #5E4EA956F709",
"rX c #5AD9B4DEFFFF",
"tX c #5625B269FFFF",
"yX c #613DB447FFFF",
"uX c #643DA5ACF1A6",
"iX c None",
/* pixels */
"iXiXiXiXiXiXiXiXiXiXiXiXiXiXiXiXiXiXiXiXiXiXiXiXiXiXiXiXiXiXiXiXiXiXiXiXiXiXiXiXiXiXiXiXiXiXiXiXiXiXiXiXiXiXiXiXiXiXiXiXiXiXiXiX",
"iXiXiXiXiXiXiXiXiXiXiXiXiXiXiXiXiXiXiXiXiXiXiXiXiXiXiXiXiXiXiXiXiXiXiXiXiXiXiXiXiXiXiXiXiXiXiXiXiXiXiXiXiXiXiXiXiXiXiXiXiXiXiXiX",
"iXiXiXiXiXiXiXiXiXiXiXiXiXiXiXiXiXiXiXiXiXiXiXiXiXiXiXiXiXiXiXiXiXiXiXiXiXiXiXiXiXiXiXiXiXiXiXiXiXiXiXiXiXiXiXiXiXiXiXiXiXiXiXiX",
"iXiXiXiXiXiXiXiXiXiXiXiXiXiXiXiXiXiXiXiXiXiXiXiXiXiXiXiXiXiXiXiXiXiXiXiXiXiXiXiXiXiXiXiXiXiXiXiXiXiXiXiXiXiXiXiXiXiXiXiXiXiXiXiX",
"iXiXiXiXiXiXiXiXiXiXiXiXiXiXiXiXiXiXiXiXiXiXiXiXiXiXiXiXiXiXiXiXiXiXiXiXiXiXiXiXiXiXiXiXiXiXiXiXiXiXiXiXiXiXiXiXiXiXiXiXiXiXiXiX",
"iXiXiXiXiXiXiXiXiXiXiXiXiXiXiXiXiXiXiXiXiXiXiXiXiXiXiXiXiXiXiXiXiXiXiXiXiXiXiXiXiXiXiXiXiXiXiXiXiXiXiXiXiXiXiXiXiXiXiXiXiXiXiXiX",
"iXiXiXiXiXiXiXiXiXiXiXiXiXiXiXiXiXiXiXiXiXiXiXiXiXiXiXiXiXiXiXiXiXiXiXiXiXiXiXiXiXiXiXiXiXiXiXiXiXiXiXiXiXiXiXiXiXiXiXiXiXiXiXiX",
"iXiXiXiXiXiXiXiXiXiXiXiX          iXiXiXiXiXiXiXiXiXiXiXiXiXiXiXiXiXiXiXiXiXiXiXiXiXiXiXiXiXiX          iXiXiXiXiXiXiXiXiXiXiXiX",
"iXiXiXiXiXiXiXiXiXiXiX            iXiXiXiXiXiXiXiXiXiXiXiXiXiXiXiXiXiXiXiXiXiXiXiXiXiXiXiXiXiXX           iXiXiXiXiXiXiXiXiXiXiX",
"iXiXiXiXiXiXiXiXiXiXiX    . . $ % $ iXiXiXiXiXiXiXiXiXiXiXiXiXiXiXiXiXiXiXiXiXiXiXiXiXiXiXiX$ % $ . .     iXiXiXiXiXiXiXiXiXiXiX",
"iXiXiXiXiXiXiXiXiXiX      $ e H J r $ iXiXiXiXiXiXiXiX    iXiXiXiXiXiX    iXiXiXiXiXiXiXiX$ e J H e $       iXiXiXiXiXiXiXiXiXiX",
"iXiXiXiXiXiXiXiXiXiX      0 J i.a.J %     iXiXiXiXiX                        iXiXiXiXiX  X % K i.i.J 0       iXiXiXiXiXiXiXiXiXiX",
"iXiXiXiXiXiXiXiXiXiXiX    e P g.g.P q X   iXiXiXiX                          X iXiXiXiX    q P g.g.P q     iXiXiXiXiXiXiXiXiXiXiX",
"iXiXiXiXiXiXiXiXiXiXiX    q I i.a.P H 0 $   iXiXiXl l k z k z p p p z z z l l iXiXiX  . 0 H P a.a.I q     iXiXiXiXiXiXiXiXiXiXiX",
"iXiXiXiXiXiXiXiXiXiXiXiXiX% r H J K I K G 0   @ [ 1.9.N.b.7.3.3.3.4.7.9.c.9.1.[ @   0 G K I I J H e 0 iXiXiXiXiXiXiXiXiXiXiXiXiX",
"iXiXiXiXiXiXiXiXiXiXiXiXiXiX  . 0 J R a.U H   O [ M.'.&XOX'.D.S.S.D.].OX*X'.M.[ @   H U a.a.H 0 .   iXiXiXiXiXiXiXiXiXiXiXiXiXiX",
"iXiXiXiXiXiXiXiXiXiXiXiXiXiX      H a.f.p.K % O  .N.+X0XqX8X2X}.:X2X3X0X0X-Xv. .O % K p.f.a.r .     iXiXiXiXiXiXiXiXiXiXiXiXiXiX",
"iXiXiXiXiXiXiXiXiXiXiXiXiXiX      w ' s.d.U G r F w.Q.1X4X3X2X6X6X5X3X4X1XQ.w.F r G U d.f.R e       iXiXiXiXiXiXiXiXiXiXiXiXiXiX",
"iXiXiXiXiXiXiXiXiXiXiXiXiXiX    O t / h.a.a.Y P E %.;.L.`.+X2X2X6X2X+X`.L.;.%.E P Y a.s.' / t O     iXiXiXiXiXiXiXiXiXiXiXiXiXiX",
"iXiXiXiXiXiXiXiXiXiXiXiXiXiX    . < W _ k.j.g.d.s.R _ *.L.~.}.|.|.}.^.J.*._ i.i.g.g.h.k.%.W < +     iXiXiXiXiXiXiXiXiXiXiXiXiXiX",
"iXiXiXiXiXiXiXiXiXiXiXiXiXiX    + d h *.=.z.f.d.p.i.T ^ e.R.}. X|.}.Y.-.^ T i.d.d.j.z.$.*.h 2 +     iXiXiXiXiXiXiXiXiXiXiXiXiXiX",
"iXiXiXiXiXiXiXiXiXiXiXiXiXiX    + s o.w.;.x.k.p.i.i.P ~ r.R.OX X|.}.S.-.~ T U i.p.h.x.;.-.@.s @     iXiXiXiXiXiXiXiXiXiXiXiXiXiX",
"iXiXiXiXiXiXiXiXiXiXiXiXiXiX    @ c 6.H.P.;.` R Y T ( &.t.~.=X X|.}.~.t.&.( P Y R $.;.P.H.6.b #     iXiXiXiXiXiXiXiXiXiXiXiXiXiX",
"iXiXiXiXiXiXiXiXiXiXiXiXiXiX    > ] 0./.Q.L.*.^ ( ( ) -.K.(.=X|.|.}.).L.;.%.( ( ^ *.P.Q.!.0.{ >     iXiXiXiXiXiXiXiXiXiXiXiXiXiX",
"iXiXiXiXiXiXiXiXiXiXiXiXiXiX    > { Z.[.{.T.r.*.&.*.;.L.T.).=X}.}.}.).Q.L.;.*.&.*.r.T._.).Z.{ >     iXiXiXiXiXiXiXiXiXiXiXiXiXiX",
"iXiXiXiXiXiXiX.                 , } C.oX+X^.G.e.r.t.P.T.`.XX*X}.}.OXXX`.Q.L.L.-.r.G.^.+X.XV.} 3                 . iXiXiXiXiXiXiX",
"iXiXiXiXiXiXiX        X         2 | V.OX-X#XW.I.G.U.T.^.(.XXOX}.*XOX.X).^.Y.U.H.I.!.#X>XOXV.| >         X         iXiXiXiXiXiXiX",
"iXiXiXiXiXiXiX    O + & & $     > | V.*X;X>X[.E.I.m.I.C.S.'.*X2X:X*X].A.C.m.m.J.!.[.>X;X&XV.| >     . & < +       iXiXiXiXiXiXiX",
"iXiXiXiXiXiXiXiX  + t g y w $   > | B.&X5X8X-X~.n.4.@.2.N.D.:X6X5X:XF.v.4.@.4.n.S.-X8X8X}.B.| > . $ w y g t +   iXiXiXiXiXiXiXiX",
"iXiXiXiXiXiXiXiXiXiX! ^ ! y 0 . > [ B.&X5XqX;XD.7.b 2 k 2.S.;XwXwX2XS.2.z 9 v 7.).;XqX5X}.B.[ @   0 L ! ^ ! iXiXiXiXiXiXiXiXiXiX",
"iXiXiXiXiXiXiXiXiXiXiXx.` L q . @ [ N.oX9XrX5XD.4.3   O { C.:XwXwX:XC.{ O   3 2.D.8XrX9X].N.[ @ . 0 Q ) x.iXiXiXiXiXiXiXiXiXiXiX",
"iXiXiXiXiXiXiXiXiXiXiXiXl.L 0   @ v 9.+XeXyXqX'.:.X     s n.@X7X7X+Xn.p     O :.'.qXrXeXXX9.v @   0 L l.iXiXiXiXiXiXiXiXiXiXiXiX",
"iXiXiXiXiXiXiXiXiXiXiXiXiXr .   @ b 8._.uXrX5XF.<.O     d 8._.1X1X`.8.7     O <.F.9XrXuX_.0.c @   . r iXiXiXiXiXiXiXiXiXiXiXiXiX",
"iXiXiXiXiXiXiXiXiXiXiXiXiXiX    @ x 5.W.1X0X3XF.<.2   X s 8.^.%X%X/.8.x .   a <.F.2X7X1XE.6.x @     iXiXiXiXiXiXiXiXiXiXiXiXiXiX",
"iXiXiXiXiXiXiXiXiXiXiXiXiXiXiX  @ s o.y.!.$X-X.XN.{ p d o.0./._.{./.m.X.d p { v..X>X$XE.0.o.s +   iXiXiXiXiXiXiXiXiXiXiXiXiXiXiX",
"iXiXiXiXiXiXiXiXiXiXiXiXiXiXiXiX> < d ] 5.Y.{.XXD.c.3.3.9.R.(.#X#X(.Y.9.<.2.v.S.$X).Y.5...d 1 , iXiXiXiXiXiXiXiXiXiXiXiXiXiXiXiX",
"iXiXiXiXiXiXiXiXiXiXiXiXiXiXiXiXiXiX  > x 5.Y.%X#X).S.S.D.F..X@X@X.XF.D.A.S.).$X%XE.5.x >   iXiXiXiXiXiXiXiXiXiXiXiXiXiXiXiXiXiX",
"iXiXiXiXiXiXiXiXiXiXiXiXiXiXiXiXiXiX    1 ..y./.#X+X*X=X*X*XOXOXOXOX*X*X=X=X+X#XE.y...,     iXiXiXiXiXiXiXiXiXiXiXiXiXiXiXiXiXiX",
"iXiXiXiXiXiXiXiXiXiXiXiXiXiXiXiXiX    X - s o.8.R.@X>X2X2X-XOX.X.X@X-X2X3X>XXXR.8.o.s 1 X     iXiXiXiXiXiXiXiXiXiXiXiXiXiXiXiXiX",
"iXiXiXiXiXiXiXiXiXiXiXiXiXiXiXiX  . = 6 5 1 d c 5.R.XX,X<X$X(.).).).XX<X,X#XA.6.c 9 5 6 6 = .   iXiXiXiXiXiXiXiXiXiXiXiXiXiXiXiX",
"iXiXiXiXiXiXiXiXiXiXiXiXiXiXiX    - n m n ;   @ b 8.E._._.`.Y.Y.Y.Y.^._.{.!.8.b @   = n B n ;     iXiXiXiXiXiXiXiXiXiXiXiXiXiXiX",
"iXiXiXiXiXiXiXiXiXiXiXiXiXiXO > 4 s B Z i o     7 @.y.T.T.I.G.G.J.J.U.T.T.y.@.d     o i B B j 2 > O iXiXiXiXiXiXiXiXiXiXiXiXiXiX",
"iXiXiXiXiXiXiXiXiXiXiXiXiXO k { { X.V n : o . o j o.q.u.y.u.q.q.q.q.u.y.u.q.+.j o . o : n V X.} ] k O iXiXiXiXiXiXiXiXiXiXiXiXiX",
"iXiXiXiXiXiXiXiXiXiXiX    2 | v.C.3.v - . . : n B A >.>.>.O.O.O.O.O.>.>.>.+.D m n : . . # c 7.N.v.| 2     iXiXiXiXiXiXiXiXiXiXiX",
"iXiXiXiXiXiXiXiXiXiXiX    b v.OX-XB.l     = i Z A C m m m m m m m m m m M N C A A n =     l B.*XOXv.c     iXiXiXiXiXiXiXiXiXiXiX",
"iXiXiXiXiXiXiXiXiXiX  @ k 2.'.qXqXA.l     = N O.A M 6 ; : 6 6 8 u u 6 : ; 6 M A S m =   . l A.qXwXF.3.k @   iXiXiXiXiXiXiXiXiXiX",
"iXiXiXiXiXiXiXiX  @ p { 7.S.3XrX9XV.l   . = N S C 8 .   X o ; ; ; = o X . . 8 C O.N =     l V.9XrX2XS.7.{ p >   iXiXiXiXiXiXiXiX",
"iXiXiXiXiXiXiX    >  .9.D.6XwXwX*Xb.k   . : N A m 4       . O o o X         4 B S N : .   k b.OXwXtX6XD.9.] >     iXiXiXiXiXiXiX",
"iXiXiXiXiXiXiX    3 | A.2XrX9X@XB.| a   . 6 N A m 8 O                     O 8 B A N u .   a | B.oXqXrX3XV.@.2     iXiXiXiXiXiXiX",
"iXiXiXiXiXiXiX    3 @.).0X0X.Xn.{ p @   o 8 N A Z M 4 O                 + 9 n Z A N u o   @ p { c.].0XuX(.,.2     iXiXiXiXiXiXiX",
"iXiXiXiXiXiXiX    2 @.!.,X#Xn.] 2       # u Z A S Z M 8 #             # 8 n A S A N 8 -       2 ] n.#X1X!.,.2     iXiXiXiXiXiXiX",
"iXiXiXiXiXiXiX    2 X.J.T.I.o.,         1 u Z A S S Z n 4 O         o 4 n Z S S A N n ,         1 X.I.W.J.X.,     iXiXiXiXiXiXiX",
"iXiXiXiXiXiXiX    # x @.6.#.s           1 n N S S Z m n 8 4 # # # # 4 8 n m Z S S N n 1           x #.6.#.x ,     iXiXiXiXiXiXiX",
"iXiXiXiXiXiXiX    O 2 s V x 9 iXiX      ; n Z S A M 8 4 8 8 8 n j u 8 8 5 8 M Z S N n 1       iXiX4 s V s 2 O     iXiXiXiXiXiXiX",
"iXiXiXiXiXiXiX    O O # , > iXiXiXiX    # j Z Z M 4 + # 4 n m Z Z m n 4 + # 5 M Z Z u -     iXiXiXiX, , # O       iXiXiXiXiXiXiX",
"iXiXiXiXiXiXiXO           . iXiXiXiX    # 8 M M 8 .     # n Z S S Z n ,     O 8 M M 8 +     iXiXiXiX              iXiXiXiXiXiXiX",
"iXiXiXiXiXiXiXiX          iXiXiXiXiX    O - 4 3 X       o 8 n m N n 7 X       X 3 7 - X     iXiXiXiXiX        O iXiXiXiXiXiXiXiX",
"iXiXiXiXiXiXiXiXiXiXiXiXiXiXiXiXiXiX      X X X X         # 4 8 8 4 #         X X X X X     iXiXiXiXiXiXiXiXiXiXiXiXiXiXiXiXiXiX",
"iXiXiXiXiXiXiXiXiXiXiXiXiXiXiXiXiXiX                                                        iXiXiXiXiXiXiXiXiXiXiXiXiXiXiXiXiXiX",
"iXiXiXiXiXiXiXiXiXiXiXiXiXiXiXiXiXiX    . . + & * * < & .             . & * * * & + . O     iXiXiXiXiXiXiXiXiXiXiXiXiXiXiXiXiXiX",
"iXiXiXiXiXiXiXiXiXiXiXiXiXiXiXiXiXiX    + * t y W W f t * .         . * t f W W y t * .     iXiXiXiXiXiXiXiXiXiXiXiXiXiXiXiXiXiX",
"iXiXiXiXiXiXiXiXiXiXiXiXiXiXiXiXiXiX    $ t Q ~ ) ) ~ W t +         + t W ~ ) %._ W t $     iXiXiXiXiXiXiXiXiXiXiXiXiXiXiXiXiXiX",
"iXiXiXiXiXiXiXiXiXiXiXiXiXiXiXiXiXiX    & f ~ $.l.l.$.! y &         & y ! ) l.l.$.~ g &     iXiXiXiXiXiXiXiXiXiXiXiXiXiXiXiXiXiX",
"iXiXiXiXiXiXiXiXiXiXiXiXiXiXiXiXiXiX    & f _ l.z.z.$.~ f &         * y _ l.z.z.l._ y &     iXiXiXiXiXiXiXiXiXiXiXiXiXiXiXiXiXiX"
};
