/* XPM */
static char *result[] = {
/* columns rows colors chars-per-pixel */
"64 64 229 2 ",
"   c #008900600066",
".  c #0B860219023E",
"X  c #02B1059C0A22",
"o  c #0CB5046209B9",
"O  c #03350A010C74",
"+  c #0B460BAA0BC7",
"@  c #00000B4005D6",
"#  c #139903990317",
"$  c #1BB402B10220",
"%  c #1C2B0A1802C1",
"&  c #14B4021B0A91",
"*  c #11780D600D5B",
"=  c #150B0A9406CE",
"-  c #16BD11570BFE",
";  c #04F30CE7135E",
":  c #09A80C041209",
">  c #07560C2F170B",
",  c #151209C7185F",
"<  c #036F13311ABE",
"1  c #092812421AAA",
"2  c #09D413DD153C",
"3  c #138113821315",
"4  c #12B712FA1C37",
"5  c #1B9A1BC91B14",
"6  c #19CE15881A13",
"7  c #05E610A10C26",
"8  c #22F702A50264",
"9  c #29B502050106",
"0  c #2CA90E960930",
"q  c #27D509620593",
"w  c #3A5901DB03CD",
"e  c #35E8088E06D1",
"r  c #25DD1098070A",
"t  c #35CD114B0AE6",
"y  c #3AF9181C0760",
"u  c #26F706F317C8",
"i  c #355B06891B6E",
"p  c #257615EE171D",
"a  c #35881CF81420",
"s  c #168E21781E7E",
"d  c #22ED212F1F3B",
"f  c #030019AA2372",
"g  c #0A4B1A7C258B",
"h  c #0D641CB62AF0",
"j  c #091D17312170",
"k  c #185514782128",
"l  c #16101A7D269C",
"z  c #384E0ADC21A9",
"x  c #3B0A141C3130",
"c  c #2C1818C623EA",
"v  c #055F20EA2E21",
"b  c #197222AE2868",
"n  c #08CB25F33953",
"m  c #11BE224031F6",
"M  c #1AD9226C3352",
"N  c #13142ABA3D1F",
"B  c #1B032AA33CC1",
"V  c #1C8424BE39DF",
"C  c #2447245C2471",
"Z  c #2BB12C0E2BAE",
"A  c #29BE2735272E",
"S  c #258B284C3916",
"D  c #33C133C533C7",
"F  c #3A963AE13B17",
"G  c #36D8376439C8",
"H  c #2F2230D3313D",
"J  c #4413055F04DB",
"K  c #573C0473057F",
"L  c #43B219F105C9",
"P  c #49D0176F0969",
"I  c #55F91AAA0000",
"U  c #5A28095710FA",
"Y  c #57501BCD1209",
"T  c #4A850E931699",
"R  c #681C047705BE",
"E  c #76E607A708B3",
"W  c #7E52083B17D8",
"Q  c #60CB1E971429",
"!  c #5C8924B10CA8",
"~  c #51A820E20AE4",
"^  c #5DEA20AA0FC3",
"/  c #6C762A000989",
"(  c #6549262607F3",
")  c #7EA831700BFC",
"_  c #7AC8292315B5",
"`  c #714A26910A5D",
"'  c #43060A6424A2",
"]  c #5B65121734A2",
"[  c #4D5C10FB2DDD",
"{  c #6A3415F63A35",
"}  c #7BE0131C3E26",
"|  c #69F309C32B95",
" . c #17522D4A4533",
".. c #1B1334724BD4",
"X. c #167E33794A39",
"o. c #1AD939F35368",
"O. c #1AC337D352F1",
"+. c #05853C955481",
"@. c #22A82E0C4467",
"#. c #33012A1D45EE",
"$. c #2ABF33354B59",
"%. c #247B338A4B0F",
"&. c #32E333904653",
"*. c #293E3A4354F9",
"=. c #36263B6857E0",
"-. c #75DF17DE436E",
";. c #517625B64E2D",
":. c #6A232A675BCA",
">. c #0000424F5876",
",. c #1A3A41885D04",
"<. c #3A3F42FD5D2D",
"1. c #299641545F95",
"2. c #1ADE48B46889",
"3. c #03995515766B",
"4. c #0C864CB66BC2",
"5. c #21AA447063B0",
"6. c #2BBA42C56229",
"7. c #26ED4A816C32",
"8. c #3821467868B3",
"9. c #258F4CA872D5",
"0. c #2CCF4E1C725E",
"q. c #3BC74D7C730E",
"w. c #29DF54EC7AFF",
"e. c #3C8453367B15",
"r. c #358551D77816",
"t. c #48944C437640",
"y. c #42E6557C7D7C",
"u. c #404E525A7706",
"i. c #843D065108A6",
"p. c #962907B80ADA",
"a. c #89F50C9611DE",
"s. c #9EF00CEC1622",
"d. c #AA4E0BEE1552",
"f. c #B6570DC7140B",
"g. c #B03D0BB80D31",
"h. c #8C05353E0EAF",
"j. c #8608327E0A2F",
"k. c #918037110BFA",
"l. c #93FD39360E08",
"z. c #9D403CA60F02",
"x. c #84282BD0182A",
"c. c #89F134CA12FC",
"v. c #95C335DD1619",
"b. c #966C133926D1",
"n. c #8A011605378D",
"m. c #93210E24327F",
"M. c #A6CE12402AEE",
"N. c #C9060E0515A8",
"B. c #A713439A153A",
"V. c #86071A0549A6",
"C. c #9ACD1FF158E0",
"Z. c #2AB75C37855D",
"A. c #36E05AC58550",
"S. c #3E175EF590C6",
"D. c #00006F8898E2",
"F. c #2D2362988EF1",
"G. c #303761C28DD1",
"H. c #2EBF658A9327",
"J. c #33A56C509CA8",
"K. c #3B0467BC96F2",
"L. c #3ABD6E3DA331",
"P. c #365471E8A4E6",
"I. c #39CC7533AA2E",
"U. c #3BF87D32B566",
"Y. c #39677E52B6FA",
"T. c #57B54CBB82B7",
"R. c #42385A8B8552",
"E. c #474B5ACA86B9",
"W. c #4BFE4BC780FD",
"Q. c #452D60E78E2D",
"!. c #4D7561168DFB",
"~. c #4A7F658C9554",
"^. c #4DB46AF09CB9",
"/. c #47F966D196DA",
"(. c #54F667EC99B6",
"). c #4B8E6E19A276",
"_. c #45996E0FA426",
"`. c #52596F10A368",
"'. c #46F07390AA93",
"]. c #5A0675AAAD39",
"[. c #51D67366A98A",
"{. c #4A957EBEBADA",
"}. c #47E67B1EB422",
"|. c #58787C3EB6FB",
" X c #00008B5ABDD9",
".X c #3DD18300BDB0",
"XX c #2C1B83FBBB72",
"oX c #49938301BEDF",
"OX c #55748179BCAD",
"+X c #00009B6FD34A",
"@X c #09AB9344CCAB",
"#X c #3EB38945C61D",
"$X c #3F8A9BF3DE12",
"%X c #011ABE07FFFF",
"&X c #3D6EB0C6FAB2",
"*X c #42F086D0C3A6",
"=X c #42CC891BC6D7",
"-X c #433E8CBFCBCD",
";X c #4C6E8C72CCC3",
":X c #4C6484A2C281",
">X c #52988553C269",
",X c #54768B6CCCC5",
"<X c #5B378916C8C0",
"1X c #45B28F8AD06B",
"2X c #56168F1AD15B",
"3X c #45619182D2B1",
"4X c #4A9E9288D573",
"5X c #4B459632DA33",
"6X c #41FD987CDAF6",
"7X c #4A629952DE1F",
"8X c #44BF9578D877",
"9X c #5760954AD99E",
"0X c #43D29056CFCC",
"qX c #63538C5ECD75",
"wX c #4C769DBBE4BB",
"eX c #47479C2DE213",
"rX c #52989C79E3E1",
"tX c #5BB79DD5E5D2",
"yX c #4C62A247EAF6",
"uX c #45CBA3E9E981",
"iX c #5885A383EDA3",
"pX c #4D1DAA7AF56E",
"aX c #537EA8BEF4B9",
"sX c #61BCA62CF04B",
"dX c #1DD1C9ADFFFF",
"fX c #01E5D849FFFF",
"gX c #239BE6E6FFFF",
"hX c #4717CA46FFFF",
"jX c None",
/* pixels */
"jXjXjXjXjXjXjXjXjXjXjXjXjXjXjXjXjXjXjXjXjXjXjXjXjXjXjXjXjXjXjXjXjXjXjXjXjXjXjXjXjXjXjXjXjXjXjXjXjXjXjXjXjXjXjXjXjXjXjXjXjXjXjXjX",
"jXjXjXjXjXjXjXjXjXjXjXjXjXjXjXjXjXjXjXjXjXjXjXjXjXjXjXjXjXjXjXjXjXjXjXjXjXjXjXjXjXjXjXjXjXjXjXjXjXjXjXjXjXjXjXjXjXjXjXjXjXjXjXjX",
"jXjXjXjXjXjXjXjXjXjXjXjXjXjXjXjXjXjXjXjXjXjXjXjXjXjXjXjXjXjXjXjXjXjXjXjXjXjXjXjXjXjXjXjXjXjXjXjXjXjXjXjXjXjXjXjXjXjXjXjXjXjXjXjX",
"jXjXjXjXjXjXjXjXjXjXjXjXjXjXjXjXjXjXjXjXjXjXjXjXjXjXjXjXjXjXjXjXjXjXjXjXjXjXjXjXjXjXjXjXjXjXjXjXjXjXjXjXjXjXjXjXjXjXjXjXjXjXjXjX",
"jXjXjXjXjXjXjXjXjXjXjXjXjXjXjXjXjXjXjXjXjXjXjXjXjXjXjXjXjXjXjXjXjXjXjXjXjXjXjXjXjXjXjXjXjXjXjXjXjXjXjXjXjXjXjXjXjXjXjXjXjXjXjXjX",
"jXjXjXjXjXjXjXjXjXjXjXjXjXjXjXjXjXjXjXjXjXjXjXjXjXjXjXjXjXjXjXjXjXjXjXjXjXjXjXjXjXjXjXjXjXjXjXjXjXjXjXjXjXjXjXjXjXjXjXjXjXjXjXjX",
"jXjXjXjXjXjXjXjXjXjXjXjXjXjXjXjXjXjXjXjXjXjXjXjXjXjXjXjXjXjXjXjXjXjXjXjXjXjXjXjXjXjXjXjXjXjXjXjXjXjXjXjXjXjXjXjXjXjXjXjXjXjXjXjX",
"jXjXjXjXjXjXjXjXjXjXjXjXjXjXjXjXjXjXjXjXjXjXjXjXjXjXjXjXjXjXjXjXjXjXjXjXjXjXjXjX.                 jXjXjXjXjXjXjXjXjXjXjXjXjXjXjX",
"jXjXjXjXjXjXjXjXjXjXjXjXjXjXjXjXjXjXjXjXjXjXjXjXjXjXjXjXjXjXjXjXjXjXjXjXjXjXjX.                     jXjXjXjXjXjXjXjXjXjXjXjXjXjX",
"jXjXjXjXjXjXjXjXjXjXjXjXjXjXjXjXjXjXjXjXjXjXjXjXjXjXjXjXjXjXjXjXjXjXjXjXjXjXjX      . # $ # .       jXjXjXjXjXjXjXjXjXjXjXjXjXjX",
"jXjXjXjXjXjXjXjXjXjXjXjXjXjXjXjXjXjXjXjXjXjXjXjXjXjXjXjX  jXjXjXjXjXjXjXjXjX        8 J U w 8 .     jXjXjXjXjXjXjXjXjXjXjXjXjXjX",
"jXjXjXjXjXjXjXjXjXjXjXjXjXjXjXjXjXjXjXjXjXjXjXjXjX            o . .               X w E a.R w #     jXjXjXjXjXjXjXjXjXjXjXjXjXjX",
"jXjXjXjXjXjXjXjXjXjXjXjXjXjXjXjXjXjXjXjXjXjXjXjXjX                                $ K p.d.i.J #     jXjXjXjXjXjXjXjXjXjXjXjXjXjX",
"jXjXjXjXjXjXjXjXjXjXjXjXjXjXjXjXjXjXjXjXjXjXjXjX1 h m h ; X           . 8 9 9 9 9 J R E i.E J #   jXjXjXjXjXjXjXjXjXjXjXjXjXjXjX",
"jXjXjXjXjXjXjXjXjXjXjXjXjXjXjXjXjXjXjXO         m 5.7.2.N ;           8 J K E E E R R K J w 9 jXjXjXjXjXjXjXjXjXjXjXjXjXjXjXjXjX",
"jXjXjXjXjXjXjXjXjXjXjXjXjXjXjXjXjXjX; X         ..H.U.L.7.j         o e R p.g.f.d.i.K 9 .   jXjXjXjXjXjXjXjXjXjXjXjXjXjXjXjXjXjX",
"jXjXjXjXjXjXjXjXjXjXjXjXjXjXjXjXjX            g 9..XwX1XA.M X     . q Y a.f.N.N.f.E J * X ; jXjXjXjXjXjXjXjXjXjXjXjXjXjXjXjXjXjX",
"jXjXjXjXjXjXjXjXjXjXjXjXjXjXjXjX          X h ,.J.8XpX4XS.#.8 $ 9 w U W b.M.M.d.i.U x M n n v jXjXjXjXjXjXjXjXjXjXjXjXjXjXjXjXjX",
"jXjXjXjXjXjXjXjXjXjXjXjXjXjXjXX         X m 7.L.#XyXeX{.W.;.' K R E a.b.m.m.| U e p S 8.w.5.N :   jXjXjXjXjXjXjXjXjXjXjXjXjXjXjX",
"jXjXjXjXjXjXjXjXjXjXjXjXjXjXX X         h 0.I.7XpXuX1X'.W.;.| W p.p.s.b.} { z &   : O.E.^.e.@.:     jXjXjXjXjXjXjXjXjXjXjXjXjXjX",
"jXjXjXjXjXjXjXjXjXjXjXjXjXjX        O v 5.L.4XpXpXuX#X_.t.:.n.m.d.d.M.n.{ x &     @ O.^.].E.$.:     jXjXjXjXjXjXjXjXjXjXjXjXjXjX",
"jXjXjXjXjXjXjXjXjXjXjXjXjXjX    X 1 B 9.L.=X5XyXuXuX$X_.T.:.V.m.M.M.n.{ [ ,         ../.].E.$.+     jXjXjXjXjXjXjXjXjXjXjXjXjXjX",
"jXjXjXjXjXjXjXjXjXjXjXjXjXjX    O N w.I.4X4X1X3X$X$X1X[.T.:.{ n.n.V.{ [ u X       X %.Q.`.R.@.:     jXjXjXjXjXjXjXjXjXjXjXjXjXjX",
"jXjXjXjXjXjXjXjXjXjXjXjXjXjX    : O.J.7XaXrX-X*X#X8X1X[.t.;.| | | ] [ u o         l <.Q.^.q. .:     jXjXjXjXjXjXjXjXjXjXjXjXjXjX",
"jXjXjXjXjXjXjXjXjXjXjXjXjXjX    2 o.P.wXaXwX=X*X#X6X3X'.t.x w w i i u o     X < B 6.A.^./.q.S :     jXjXjXjXjXjXjXjXjXjXjXjXjXjX",
"jXjXjXjXjXjXjXjXjXjXjXjXjXjX    ; O.J.5XaXwX=X*X3XeX3XP.6.k . . . . .       f o.Z.L.|.|./.8.V O     jXjXjXjXjXjXjXjXjXjXjXjXjXjX",
"jXjXjXjXjXjXjXjXjXjXjXjXjXjX    ; ..G.-XwX7X=X=X4XwX3XP.,.1                 N w.U.5X9X<X~.6.M :     jXjXjXjXjXjXjXjXjXjXjXjXjXjX",
"jXjXjXjXjXjXjXjXjXjXjXjXjXjX    ;  .G.=XyXwX5X4X7XwX3XI.2.m O X O < O     X X.H.4XaXiX,X~.=.l +     jXjXjXjXjXjXjXjXjXjXjXjXjXjX",
"jXjXjXjXjXjXjXjXjXjXjXjXjXjX    2 X.F.-XpXaXyXwXwXwX3XI.Z.*.B B %...B :   X N G.-XaXsX<X~.=.l O     jXjXjXjXjXjXjXjXjXjXjXjXjXjX",
"jXjXjXjXjXjXjXjXjXjXjXjXjXjX    1 ..H.3XpXpXwXwXeX7X3X}.K.A.u.y.Q.S.8.M X X n w.#XrXtX<X~.=.M +     jXjXjXjXjXjXjXjXjXjXjXjXjXjX",
"jXjXjXjXjXjXjXjXjXjXjXjXjXjX    O X.Z.=XrX7X=X.X#X#X0X*X}.'.`.].OX].y.S X   v 7.U.7XtX<X~.8.M X     jXjXjXjXjXjXjXjXjXjXjXjXjXjX",
"jXjXjXjXjXjXjXjXjXjXjXjXjXjX      B A.{.:XL.w.w.Z.I.-X4X,XOX|.<XqX|.y.S     < 2.Y.rXiXqX`.8.V X       jXjXjXjXjXjXjXjXjXjXjXjXjX",
"jXjXjXjXjXjXjXjXjXjXjXjXjXjX      V r.[./.6.m g ..F.*X7X5X=XOX>XOX].t.k     ; 2.Y.wXsX9X].t.V O         jXjXjXjXjXjXjXjXjXjXjXjX",
"jXjXjXjXjXjXjXjXjXjXjXjXjXjX    X S A.^.A.S .   m Z.=XwXwX3X*XoXOX(.q.C     f 2.Y.rXtX<X`.8.V O         X jXjXjXjXjXjXjXjXjXjXjX",
"jXjXjXjXjXjXjXjXjXjXjXjXjXjX  ; m *.Q.).R.@.: O N Z.=XyXyX6X-X;X<X}.R.%.l 1 X.Z.*X5X;X_.A.=.M - #         jXjXjXjXjXjXjXjXjXjXjX",
"jXjXjXjXjXjXjXjXjXjXjXjXjX1 n o.w.K.'.}.K.0.O.O.2.J.-XuXyXyXyXyXtX2X}.Z.2.2.w.'.:X:XL.9. .c z y y q .       jXjXjXjXjXjXjXjXjXjX",
"jXjXjXjXjXjXjXjXjXjXjX    h 5.J..X-X-X*XU.I.L.J.P.Y.#X6X7XuXyXyXyXeX3X#XI.P.I.OX|.).9.n ; = L ( ( L %     jXjXjXjXjXjXjXjXjXjXjX",
"jXjXjXjXjXjXjXjXjXjXjX    v 0.U.wXyX7X-X=X-X3X3X8X0X-X=X=X=X=X*X*X-X-X#X3X0X;XOX`.e. .>   8 I j.) ! r     jXjXjXjXjXjXjXjXjXjXjX",
"jXjXjXjXjXjXjXjXjXjX      m 7.{.iXaX9X4X;X4XrXrXrX9X;X{.J.S.r.7.7.r.K.oX9XtX2X'.e.$.6 # $ y / k.c.! r     jXjXjXjXjXjXjXjXjXjXjX",
"jXjXjXjXjXjXjXjXjXjX      h 6._.2X9X,X>X:X>X,X2X2X9X>X).q.@.k o o l $.K.>X2XoXA.@.6 % 9 I ( j.l.) ~ r     jXjXjXjXjXjXjXjXjXjXjX",
"jXjXjXjXjXjXjXjXjXjXjX    l *.Q.|.|.|.[.).).).[.OXOX].R.*.4         l 8.^.[.K.O.> . 9 I ) l.z.l./ L %     jXjXjXjXjXjXjXjXjXjXjX",
"jXjXjXjXjXjXjXjXjXjXjX    4 $.y.(.(.E.R.u.y.y.E.!.~.E.8...f @       g *.u.u.*.h     9 ( c.B.B.h./ y %     jXjXjXjXjXjXjXjXjXjXjX",
"jXjXjXjXjXjXjXjXjXjXjXjX  l *.y.E.u.=.$.$.=.<.<.;.1.*...X.>.>.>.>.>.>.,.1.$.l X     e ( l.B.B.l./ L %     jXjXjXjXjXjXjXjXjXjXjX",
"jXjXjXjXjXjXjXjXjXjXjXjXjXjXjXjXjXS j k l S &.G A p 4 n 4.D. X+X+X XD.4.N 4         y ( h.z.B.l./ L %     jXjXjXjXjXjXjXjXjXjXjX",
"jXjXjXjXjXjXjXjXjXjXjXjXjXjXjXjXjXjX    + s Z Z r .   f 3.@X%XfXfX%X@X3.v @       * y ! j.l.z.k./ L %     jXjXjXjXjXjXjXjXjXjXjX",
"jXjXjXjXjXjXjXjXjXjXjXjXjXjXjXjXjXjX      s Z a % .   < 3.@XdXgXgXdX@X3.f         - a ! ) l.l.c.( y %     jXjXjXjXjXjXjXjXjXjXjX",
"jXjXjXjXjXjXjXjXjXjXjXjXjXjXjXjXjXjX    . s H A -     < 4.Y.&XhXhX&XXX2.1         * y ! ) l.h._ ! t =     jXjXjXjXjXjXjXjXjXjXjX",
"jXjXjXjXjXjXjXjXjXjXjXjXjXjXjXjXjXjX    + d D D p .   > ..G.>XtX9XOXK.1.4         = y ( ) l.h._ Y t #     jXjXjXjXjXjXjXjXjXjXjX",
"jXjXjXjXjXjXjXjXjXjXjXjXjXjXjXjXjXjX    3 C G F C +   O M <.W.`.(.T.8.S 4         = y ( x.v.x._ Y t &     jXjXjXjXjXjXjXjXjXjXjX",
"jXjXjXjXjXjXjXjXjXjXjXjXjXjXjXjXjXjX    3 C D F A +     , S &.;.=.#.S k o         = y ( x.v.v.x.Y t #     jXjXjXjXjXjXjXjXjXjXjX",
"jXjXjXjXjXjXjXjXjXjXjXjXjXjXjXjXjXjX    : C D G A +       : 6 k k , : o           # t Y _ v.v.x.Q t =       jXjXjXjXjXjXjXjXjXjX",
"jXjXjXjXjXjXjXjXjXjXjXjXjXjXjXjXjXjX    : C D D A 3                               o t Y Q _ x._ Y t #     jXjXjXjXjXjXjXjXjXjXjX",
"jXjXjXjXjXjXjXjXjXjXjXjXjXjXjXjXjXjX    + p H F H b 3 @     @       . + * * O X     q t P Y Y Y P 0 =     jXjXjXjXjXjXjXjXjXjXjX",
"jXjXjXjXjXjXjXjXjXjXjXjXjXjXjXjXjXjX    + 5 H F F H C p 5 5 - - - 3 5 d A C 5 7     . $ r 0 0 0 q r # jXjXjXjXjXjXjXjXjXjXjXjXjX",
"jXjXjXjXjXjXjXjXjXjXjXjXjXjXjXjXjXjX    + 6 Z F F F D D Z A A A A A Z D G D A 3         . o . . o . jXjXjXjXjXjXjXjXjXjXjXjXjXjX",
"jXjXjXjXjXjXjXjXjXjXjXjXjXjXjXjXjXjX    O 3 C Z D G D G D D Z Z Z Z D F F D A 3 X                   jXjXjXjXjXjXjXjXjXjXjXjXjXjX",
"jXjXjXjXjXjXjXjXjXjXjXjXjXjXjXjXjXjXjX  O + 3 5 C A Z Z C C b s s s b Z Z Z s *                   jXjXjXjXjXjXjXjXjXjXjXjXjXjXjX",
"jXjXjXjXjXjXjXjXjXjXjXjXjXjXjXjXjXjXjXjX@ o + + + 3 3 3 2 7 @ @ @ @ 7 3 3 3 * o       jXjXjXjXjXjXjXjXjXjXjXjXjXjXjXjXjXjXjXjXjX",
"jXjXjXjXjXjXjXjXjXjXjXjXjXjXjXjXjXjXjXjXjX                                            jXjXjXjXjXjXjXjXjXjXjXjXjXjXjXjXjXjXjXjXjX",
"jXjXjXjXjXjXjXjXjXjXjXjXjXjXjXjXjXjXjXjXjXjX              . & & & # .               jXjXjXjXjXjXjXjXjXjXjXjXjXjXjXjXjXjXjXjXjXjX",
"jXjXjXjXjXjXjXjXjXjXjXjXjXjXjXjXjXjXjXjXjXjXjX          & u z ' ' z u =           jXjXjXjXjXjXjXjXjXjXjXjXjXjXjXjXjXjXjXjXjXjXjX",
"jXjXjXjXjXjXjXjXjXjXjXjXjXjXjXjXjXjXjXjXjXjXjXjXjX    . u z ] { { ] z u .     jXjXjXjXjXjXjXjXjXjXjXjXjXjXjXjXjXjXjXjXjXjXjXjXjX",
"jXjXjXjXjXjXjXjXjXjXjXjXjXjXjXjXjXjXjXjXjXjXjXjXjX    & u ] -.V.V.-.] i =     jXjXjXjXjXjXjXjXjXjXjXjXjXjXjXjXjXjXjXjXjXjXjXjXjX",
"jXjXjXjXjXjXjXjXjXjXjXjXjXjXjXjXjXjXjXjXjXjXjXjXjX    & z -.V.C.C.V.] z &     jXjXjXjXjXjXjXjXjXjXjXjXjXjXjXjXjXjXjXjXjXjXjXjXjX"
};
