/* XPM */
static char * r4_xpm[] = {
"64 64 424 2",
"  	c None",
". 	c #9E7466",
"+ 	c #A87A65",
"@ 	c #D49160",
"# 	c #997267",
"$ 	c #B17E64",
"% 	c #DC965F",
"& 	c #997167",
"* 	c #B38063",
"= 	c #D7935F",
"- 	c #141729",
"; 	c #21394D",
"> 	c #2D5C70",
", 	c #346C7D",
"' 	c #254456",
") 	c #14182A",
"! 	c #D8935F",
"~ 	c #9C7366",
"{ 	c #9F7466",
"] 	c #171D2E",
"^ 	c #5B804B",
"/ 	c #1A1F2A",
"( 	c #2A4954",
"_ 	c #3F7F89",
": 	c #4798A1",
"< 	c #51A9AD",
"[ 	c #27475A",
"} 	c #172032",
"| 	c #EFC94F",
"1 	c #E6AF57",
"2 	c #A07666",
"3 	c #AA7B65",
"4 	c #0C0D2A",
"5 	c #587D49",
"6 	c #658E4E",
"7 	c #0D0E2B",
"8 	c #4F9B97",
"9 	c #479CA8",
"0 	c #52939A",
"a 	c #465D7A",
"b 	c #1D1E37",
"c 	c #121726",
"d 	c #F3D14D",
"e 	c #D8945F",
"f 	c #A67865",
"g 	c #C68A61",
"h 	c #DB965F",
"i 	c #14182D",
"j 	c #73AA55",
"k 	c #40A34F",
"l 	c #141C2E",
"m 	c #3A7685",
"n 	c #40768F",
"o 	c #3F6282",
"p 	c #355E77",
"q 	c #305F71",
"r 	c #36687D",
"s 	c #1F273D",
"t 	c #182630",
"u 	c #296E41",
"v 	c #1B3333",
"w 	c #FFFA40",
"x 	c #EBB954",
"y 	c #C88563",
"z 	c #BE8662",
"A 	c #DD955F",
"B 	c #070527",
"C 	c #547749",
"D 	c #50CF58",
"E 	c #307850",
"F 	c #2A4253",
"G 	c #3C7D91",
"H 	c #3F8597",
"I 	c #416C89",
"J 	c #415A7D",
"K 	c #324160",
"L 	c #26354C",
"M 	c #151830",
"N 	c #214E38",
"O 	c #35A64E",
"P 	c #26633E",
"Q 	c #1B3233",
"R 	c #FAE247",
"S 	c #D99260",
"T 	c #E5B256",
"U 	c #E0A45A",
"V 	c #D79060",
"W 	c #141A2F",
"X 	c #1B1E2A",
"Y 	c #4DB450",
"Z 	c #3F9066",
"` 	c #3C6060",
" .	c #3B8091",
"..	c #3E7E93",
"+.	c #3F758E",
"@.	c #396F84",
"#.	c #2F6575",
"$.	c #37697F",
"%.	c #3F5379",
"&.	c #273947",
"*.	c #1B3A32",
"=.	c #FFF243",
"-.	c #E4AD57",
";.	c #DB985E",
">.	c #EFC750",
",.	c #DA965F",
"'.	c #28444F",
").	c #529F9C",
"!.	c #3E7974",
"~.	c #3F905D",
"{.	c #355859",
"].	c #284855",
"^.	c #3F8C9D",
"/.	c #417891",
"(.	c #3F6684",
"_.	c #406282",
":.	c #425D82",
"<.	c #414D77",
"[.	c #46527D",
"}.	c #384367",
"|.	c #15142C",
"1.	c #DA985E",
"2.	c #D58C62",
"3.	c #F4D34C",
"4.	c #E9BA53",
"5.	c #CE7B66",
"6.	c #438182",
"7.	c #5AB9B7",
"8.	c #55AFAC",
"9.	c #52A7A5",
"0.	c #3D8092",
"a.	c #3E889B",
"b.	c #3D7089",
"c.	c #242644",
"d.	c #21263E",
"e.	c #242844",
"f.	c #232942",
"g.	c #222E41",
"h.	c #2B3A50",
"i.	c #1C263E",
"j.	c #11152A",
"k.	c #DA965E",
"l.	c #EBBF52",
"m.	c #FFEC44",
"n.	c #ECC052",
"o.	c #FFF043",
"p.	c #14182B",
"q.	c #2B4853",
"r.	c #448D97",
"s.	c #3C8195",
"t.	c #418A99",
"u.	c #428F9F",
"v.	c #33697C",
"w.	c #22313F",
"x.	c #263F43",
"y.	c #385E5C",
"z.	c #3C7E5E",
"A.	c #37AE50",
"B.	c #37B64F",
"C.	c #35AC4B",
"D.	c #70AF54",
"E.	c #2F4D3B",
"F.	c #DFA35A",
"G.	c #EBBD53",
"H.	c #FFF541",
"I.	c #FFF641",
"J.	c #FFEE44",
"K.	c #FFED44",
"L.	c #263F55",
"M.	c #346A7E",
"N.	c #3E8295",
"O.	c #3D8496",
"P.	c #408A9C",
"Q.	c #21394B",
"R.	c #141928",
"S.	c #365C5B",
"T.	c #43736C",
"U.	c #3F7C63",
"V.	c #2D7747",
"W.	c #25633D",
"X.	c #30964C",
"Y.	c #62D15C",
"Z.	c #89D360",
"`.	c #273735",
" +	c #22292E",
".+	c #C58F56",
"++	c #F3C752",
"@+	c #E3AC58",
"#+	c #FCE646",
"$+	c #FBE247",
"%+	c #223C4E",
"&+	c #3F8A9C",
"*+	c #408C9E",
"=+	c #3F8799",
"-+	c #3E8798",
";+	c #395674",
">+	c #1A1E34",
",+	c #365E59",
"'+	c #45796E",
")+	c #375A5B",
"!+	c #2C3F4C",
"~+	c #1A1E35",
"{+	c #151A2C",
"]+	c #1B523A",
"^+	c #45AA51",
"/+	c #3C9A4C",
"(+	c #666635",
"_+	c #DDA757",
":+	c #F2CC4F",
"<+	c #E0A55A",
"[+	c #D9945F",
"}+	c #F2D24C",
"|+	c #2E5A6C",
"1+	c #4494A6",
"2+	c #2F5D6F",
"3+	c #418A9D",
"4+	c #426083",
"5+	c #394268",
"6+	c #283E49",
"7+	c #3F6E64",
"8+	c #43776A",
"9+	c #417567",
"0+	c #21333C",
"a+	c #193634",
"b+	c #329F4C",
"c+	c #1A2A31",
"d+	c #DFD041",
"e+	c #CABF3E",
"f+	c #F0B958",
"g+	c #DC9F5B",
"h+	c #D78F61",
"i+	c #DDA05B",
"j+	c #F3C354",
"k+	c #13182B",
"l+	c #326A7D",
"m+	c #4291A3",
"n+	c #3D8395",
"o+	c #2C5567",
"p+	c #1D3041",
"q+	c #283B53",
"r+	c #3E4970",
"s+	c #45557E",
"t+	c #3A426C",
"u+	c #3C5E65",
"v+	c #457170",
"w+	c #32425B",
"x+	c #18222F",
"y+	c #1C3734",
"z+	c #FCEA44",
"A+	c #DFA25B",
"B+	c #D58B62",
"C+	c #E1A958",
"D+	c #E5A55D",
"E+	c #B48C4D",
"F+	c #1E2332",
"G+	c #2D4554",
"H+	c #376E80",
"I+	c #3D8497",
"J+	c #3F8D9E",
"K+	c #385D78",
"L+	c #21233B",
"M+	c #1B2438",
"N+	c #26304C",
"O+	c #3C4A6F",
"P+	c #292D4F",
"Q+	c #2B2A52",
"R+	c #454D7E",
"S+	c #27314A",
"T+	c #FFF644",
"U+	c #FCE746",
"V+	c #D99460",
"W+	c #DA9760",
"X+	c #ECC74E",
"Y+	c #E89E62",
"Z+	c #715146",
"`+	c #2C2D37",
" @	c #393136",
".@	c #65564E",
"+@	c #8C7C64",
"@@	c #7B6B5B",
"#@	c #928067",
"$@	c #61585D",
"%@	c #232636",
"&@	c #1B1E2C",
"*@	c #171B2E",
"=@	c #225239",
"-@	c #23693F",
";@	c #21403B",
">@	c #2A2939",
",@	c #9C9A38",
"'@	c #FBD152",
")@	c #D08261",
"!@	c #EFC747",
"~@	c #EEC353",
"{@	c #CD865F",
"]@	c #705743",
"^@	c #222E49",
"/@	c #34476B",
"(@	c #38425E",
"_@	c #3B3E56",
":@	c #393F57",
"<@	c #3B4258",
"[@	c #22273B",
"}@	c #4B4346",
"|@	c #58454F",
"1@	c #1F5039",
"2@	c #36BC53",
"3@	c #56CD5A",
"4@	c #4C914B",
"5@	c #0D142A",
"6@	c #1A1D1A",
"7@	c #C1B73F",
"8@	c #EBAB56",
"9@	c #DFA664",
"0@	c #FFF472",
"a@	c #ECB74F",
"b@	c #C5845E",
"c@	c #1F2F42",
"d@	c #3A7286",
"e@	c #3E7B93",
"f@	c #3D6B89",
"g@	c #41517B",
"h@	c #41507B",
"i@	c #3D4C74",
"j@	c #242D44",
"k@	c #121329",
"l@	c #2D8647",
"m@	c #3DC155",
"n@	c #8ED361",
"o@	c #2E3636",
"p@	c #5B4B50",
"q@	c #6C5C56",
"r@	c #312F3B",
"s@	c #242734",
"t@	c #8D846E",
"u@	c #776B5A",
"v@	c #1A1F30",
"w@	c #0F1845",
"x@	c #AEAC84",
"y@	c #FFFC47",
"z@	c #EAC04D",
"A@	c #FDF4CC",
"B@	c #FFFB9E",
"C@	c #E7A64D",
"D@	c #684C48",
"E@	c #14192A",
"F@	c #161D2F",
"G@	c #182334",
"H@	c #182435",
"I@	c #202940",
"J@	c #222A41",
"K@	c #1E253B",
"L@	c #171E30",
"M@	c #161D2E",
"N@	c #1C3634",
"O@	c #318B48",
"P@	c #558E4C",
"Q@	c #252F34",
"R@	c #413A44",
"S@	c #816B62",
"T@	c #685757",
"U@	c #35343C",
"V@	c #4D4B49",
"W@	c #ECD8A3",
"X@	c #B2A079",
"Y@	c #B6A932",
"Z@	c #D2C866",
"`@	c #FFFA9E",
" #	c #FDF6B5",
".#	c #FFFFF9",
"+#	c #FFFFC2",
"@#	c #F3D052",
"##	c #D38961",
"$#	c #161C2E",
"%#	c #161A2C",
"&#	c #141A2B",
"*#	c #161C2D",
"=#	c #14152C",
"-#	c #151A2D",
";#	c #0E142B",
">#	c #13172D",
",#	c #061126",
"'#	c #242635",
")#	c #1B1F31",
"!#	c #4A4544",
"~#	c #C9B386",
"{#	c #F1E4AD",
"]#	c #F2D89E",
"^#	c #FFFAC8",
"/#	c #FFFFD9",
"(#	c #FEFEF8",
"_#	c #FFFFFF",
":#	c #FEFAEB",
"<#	c #FFF77F",
"[#	c #F3CF3E",
"}#	c #F0CA53",
"|#	c #FFF842",
"1#	c #161C2F",
"2#	c #161E2E",
"3#	c #181E2F",
"4#	c #060F27",
"5#	c #57504B",
"6#	c #544E49",
"7#	c #9E8C75",
"8#	c #BCAC5C",
"9#	c #FFFF75",
"0#	c #FFFAB0",
"a#	c #FFF69D",
"b#	c #FEF6A6",
"c#	c #FFFDD5",
"d#	c #FFF36A",
"e#	c #FFF13E",
"f#	c #FFF144",
"g#	c #393D2B",
"h#	c #827C30",
"i#	c #EAD932",
"j#	c #FAE732",
"k#	c #FFF04A",
"l#	c #F5E442",
"m#	c #F1E039",
"n#	c #FEEB47",
"o#	c #73703C",
"p#	c #555433",
"q#	c #7D7938",
"                                                                                                                                ",
"                                                                                                                                ",
"                                                                                                                                ",
"                                                                                                                                ",
"                                                                                                                                ",
"                                                                                                                                ",
"                                                                                                                                ",
"                                                                                                                                ",
"                                                                                                                                ",
"                            . .                                                                                                 ",
"                          . . .                                                                                                 ",
"                                                                                                                                ",
"                                                                                                                                ",
"                                      .         . . . .               . . . . . .                                               ",
"                                  . . .         . .   . . . .       . . . . . . .   . .                                         ",
"                                  .                               .             . . .                                           ",
"                                                                                  .                                             ",
"                                                                                            + @                                 ",
"                                                                                            # $ %                               ",
"                                                                                              & * =                             ",
"                                                                                                                                ",
"                                                                                                                                ",
"                                                                            -                                                   ",
"                                                                        ; > , ' )               !   ~ {                         ",
"                                                              ] ^ / ( _ : < [ }                 | 1   2 3                       ",
"                                                            4 5 6 7 8 9 0 a b c                   d e f g h                     ",
"                                                            i j k l m n o p q r s     t u v       w x y z A e                   ",
"                                                            B C D E F G H I J K L M N O P Q         R S T U V                   ",
"                                                            W X Y Z `  ...+.@.#.$.%.&.*.            =.-.;.>.,.                  ",
"                                                          '.).!.~.{.].^./.(._.:.<.[.}.|.              1.2.3.4.5.                ",
"                                                          6.7.8.9.0.a.b.c.d.e.f.g.h.i.j.                k.l.m.n.  o.            ",
"                                                        p.q.r.s.t.u.v.w.x.y.z.A.B.C.D.E.                F.G.H.I.J.K.            ",
"                                                          L.M.N.O.P.Q.R.S.T.U.V.W.X.Y.Z.`.             +.+++l.@+#+$+            ",
"                                                        %+&+*+*+=+-+;+>+,+'+)+!+~+{+]+^+/+            (+_+:+<+[+}+              ",
"                                                        |+1+2+%+O.3+4+5+6+7+8+9+0+    a+b+c+        d+e+f+g+h+i+j+              ",
"                                                      k+l+m+n+o+p+q+r+s+t+u+v+w+i     x+y+          K.z+A+B+C+D+E+              ",
"                                                      F+G+H+I+J+K+L+M+N+O+P+Q+R+S+                  T+U+V+W+X+Y+Z+              ",
"                                                      `+ @.@+@@@#@$@%@&@*@=@-@;@>@                  ,@'@)@!@~@{@]@              ",
"                                                      ^@/@(@_@:@<@[@}@|@1@2@3@4@5@                6@7@8@9@0@a@b@                ",
"                                                      c@d@e@f@g@h@i@j@k@l@m@n@o@p@q@r@s@t@u@v@  w@x@y@z@A@B@C@D@                ",
"                                                      E@F@G@H@I@J@K@L@M@N@O@P@Q@R@S@T@U@V@W@X@Y@Z@`@ #.#+#@###                  ",
"                                                $#$#$#F@$#%#%#&#&#{+*#M@=#-#;#>#,#'#)#!#~#{#]#^#/#(#_#:#<#[#}#|#                ",
"                                                $#$#$#$#$#$#$#1#F@$#$#$#2#$#3#]     4#5#6#7#8#9#0#a#b#c#d#e#f#                  ",
"                                                    $#$#$#$#$#$#$#$#$#$#$#$#$#              g#h#i#j#k#l#m#n#                    ",
"                                                                                                  o#p#q#                        ",
"                                                                                                                                ",
"                                                                                                                                ",
"                                                                                                                                ",
"                                                                                                                                ",
"                                                                                                                                ",
"                                                                                                                                ",
"                                                                                                                                ",
"                                                                                                                                ",
"                                                                                                                                ",
"                                                                                                                                ",
"                                                                                                                                ",
"                                                                                                                                ",
"                                                                                                                                ",
"                                                                                                                                ",
"                                                                                                                                ",
"                                                                                                                                ",
"                                                                                                                                ",
"                                                                                                                                ",
"                                                                                                                                "};
