/* XPM */
static char * r5_xpm[] = {
"64 64 329 2",
"  	c None",
". 	c #9E7466",
"+ 	c #C1B645",
"@ 	c #FCEA41",
"# 	c #8C8530",
"$ 	c #D9CB40",
"% 	c #F9E633",
"& 	c #FFEC3B",
"* 	c #FFF149",
"= 	c #F6D856",
"- 	c #E8B752",
"; 	c #FBE440",
"> 	c #FFF242",
", 	c #F2CE4E",
"' 	c #83836E",
") 	c #FFFB79",
"! 	c #FFF546",
"~ 	c #FFF7A5",
"{ 	c #FEF8BD",
"] 	c #FEF69D",
"^ 	c #F4DE69",
"/ 	c #E9BD63",
"( 	c #DC9E75",
"_ 	c #DEA15C",
": 	c #E2A859",
"< 	c #D9945F",
"[ 	c #73703D",
"} 	c #FFFFE7",
"| 	c #FFFBD6",
"1 	c #FDFDFF",
"2 	c #FEFBDA",
"3 	c #FFF162",
"4 	c #FFF74A",
"5 	c #FFFB31",
"6 	c #FFFA6B",
"7 	c #FCF09E",
"8 	c #EDC453",
"9 	c #DD9E5B",
"0 	c #DA955F",
"a 	c #DC955F",
"b 	c #BCB03A",
"c 	c #FFFFA2",
"d 	c #FBFCFF",
"e 	c #FFF8A9",
"f 	c #FFEF35",
"g 	c #C4B444",
"h 	c #929E5A",
"i 	c #F5EA47",
"j 	c #FFF036",
"k 	c #FFF442",
"l 	c #FAE745",
"m 	c #E29D60",
"n 	c #91694E",
"o 	c #C88A5A",
"p 	c #B7AC28",
"q 	c #FFFFA8",
"r 	c #FFFFFF",
"s 	c #F8EA4B",
"t 	c #83A676",
"u 	c #53727D",
"v 	c #2E6079",
"w 	c #2B7091",
"x 	c #415A80",
"y 	c #ADA04E",
"z 	c #FFF83E",
"A 	c #FFF643",
"B 	c #D6A555",
"C 	c #11182E",
"D 	c #A7964D",
"E 	c #FFF9BD",
"F 	c #FFF480",
"G 	c #847D36",
"H 	c #1B517A",
"I 	c #3F869C",
"J 	c #426685",
"K 	c #445475",
"L 	c #24334E",
"M 	c #275468",
"N 	c #7A916C",
"O 	c #E4D446",
"P 	c #FAE843",
"Q 	c #FBE347",
"R 	c #252936",
"S 	c #C3AF8D",
"T 	c #BBAA82",
"U 	c #C5B079",
"V 	c #242836",
"W 	c #37605D",
"X 	c #407F92",
"Y 	c #3E748D",
"Z 	c #3D7E92",
"` 	c #3C7288",
" .	c #466D8C",
"..	c #3A5285",
"+.	c #3E496D",
"@.	c #525734",
"#.	c #FCE945",
"$.	c #FFEC44",
"%.	c #0F172B",
"&.	c #4F4D49",
"*.	c #2F3038",
"=.	c #645952",
"-.	c #292C34",
";.	c #223640",
">.	c #3B7E91",
",.	c #427791",
"'.	c #415F81",
").	c #3E4971",
"!.	c #29284D",
"~.	c #2F3450",
"{.	c #1B2B4D",
"].	c #4A333E",
"^.	c #38343F",
"/.	c #463E46",
"(.	c #0B172D",
"_.	c #32636D",
":.	c #316273",
"<.	c #40859A",
"[.	c #323E60",
"}.	c #1F213B",
"|.	c #1C2738",
"1.	c #205236",
"2.	c #288441",
"3.	c #428F46",
"4.	c #6C9451",
"5.	c #C5A058",
"6.	c #FFEE43",
"7.	c #171F2E",
"8.	c #79675E",
"9.	c #785C57",
"0.	c #345E69",
"a.	c #4798A7",
"b.	c #418FA2",
"c.	c #325B6F",
"d.	c #273B42",
"e.	c #2E494F",
"f.	c #3A8A5A",
"g.	c #3BC653",
"h.	c #39BD55",
"i.	c #4EC258",
"j.	c #86E363",
"k.	c #8DCB61",
"l.	c #E0B656",
"m.	c #FFE747",
"n.	c #DBD33E",
"o.	c #10102C",
"p.	c #77605E",
"q.	c #433B42",
"r.	c #2B6075",
"s.	c #408D9E",
"t.	c #3F8A9B",
"u.	c #1D3445",
"v.	c #263A40",
"w.	c #42716A",
"x.	c #43786A",
"y.	c #31734E",
"z.	c #1D4134",
"A.	c #1A4136",
"B.	c #295C3E",
"C.	c #45A24E",
"D.	c #67AB59",
"E.	c #E5A460",
"F.	c #F8CA53",
"G.	c #B7AA3F",
"H.	c #11172E",
"I.	c #17212F",
"J.	c #4A7546",
"K.	c #3C453E",
"L.	c #1B2034",
"M.	c #3A617C",
"N.	c #406E8A",
"O.	c #40758E",
"P.	c #303C5D",
"Q.	c #202F3A",
"R.	c #43756A",
"S.	c #42726A",
"T.	c #38595D",
"U.	c #37585B",
"V.	c #1C2336",
"W.	c #131A2E",
"X.	c #133F34",
"Y.	c #5B5D45",
"Z.	c #D2865F",
"`.	c #E7A260",
" +	c #B67F56",
".+	c #52413D",
"++	c #0E172C",
"@+	c #1F553B",
"#+	c #77D760",
"$+	c #9DD963",
"%+	c #405D3F",
"&+	c #2C5D77",
"*+	c #418497",
"=+	c #3D8093",
"-+	c #427490",
";+	c #333F5F",
">+	c #253A43",
",+	c #3F7065",
"'+	c #457B6D",
")+	c #355B57",
"!+	c #192532",
"~+	c #E29962",
"{+	c #DC965F",
"]+	c #AD7954",
"^+	c #9C6F50",
"/+	c #D7935F",
"(+	c #266940",
"_+	c #3CBD54",
":+	c #58D55C",
"<+	c #2A6A3F",
"[+	c #326481",
"}+	c #4499A8",
"|+	c #418A9D",
"1+	c #3F5B7D",
"2+	c #435179",
"3+	c #374066",
"4+	c #3A5366",
"5+	c #43716A",
"6+	c #35445F",
"7+	c #1D213A",
"8+	c #DC9660",
"9+	c #D9985D",
"0+	c #D68E61",
"a+	c #E29862",
"b+	c #E09861",
"c+	c #161B2E",
"d+	c #1B4736",
"e+	c #236B40",
"f+	c #2B403D",
"g+	c #2B4C61",
"h+	c #2A5566",
"i+	c #2B445D",
"j+	c #3E486F",
"k+	c #3A4A73",
"l+	c #425179",
"m+	c #3D4A73",
"n+	c #2E3E63",
"o+	c #3E4F7C",
"p+	c #27354F",
"q+	c #172A2D",
"r+	c #D68D61",
"s+	c #ECC052",
"t+	c #FEEB45",
"u+	c #F0CB4E",
"v+	c #1F2332",
"w+	c #4C3C47",
"x+	c #100A26",
"y+	c #4B4041",
"z+	c #826A54",
"A+	c #7A6150",
"B+	c #866F56",
"C+	c #5C504F",
"D+	c #434250",
"E+	c #252C43",
"F+	c #202638",
"G+	c #594F51",
"H+	c #564F59",
"I+	c #32333E",
"J+	c #297E43",
"K+	c #1C3334",
"L+	c #DFA25B",
"M+	c #EABD53",
"N+	c #E3AC58",
"O+	c #1C2031",
"P+	c #403E44",
"Q+	c #293B50",
"R+	c #283A5B",
"S+	c #384058",
"T+	c #3B435B",
"U+	c #3C435A",
"V+	c #343B55",
"W+	c #393641",
"X+	c #39353E",
"Y+	c #38353D",
"Z+	c #5A4E4E",
"`+	c #312E38",
" @	c #272D37",
".@	c #1E4B38",
"+@	c #D89160",
"@@	c #122336",
"#@	c #2D5568",
"$@	c #408094",
"%@	c #3D758F",
"&@	c #3F597E",
"*@	c #414F7A",
"=@	c #415079",
"-@	c #34436A",
";@	c #20263B",
">@	c #645553",
",@	c #1A1F31",
"'@	c #474047",
")@	c #171C2E",
"!@	c #9D7466",
"~@	c #121325",
"{@	c #172032",
"]@	c #172232",
"^@	c #1C2539",
"/@	c #232B43",
"(@	c #1C2338",
"_@	c #191F31",
":@	c #12192C",
"<@	c #3F3A42",
"[@	c #2D2D39",
"}@	c #453F45",
"|@	c #4E4649",
"1@	c #A97A65",
"2@	c #161C2E",
"3@	c #171E30",
"4@	c #161B2D",
"5@	c #161A2D",
"6@	c #151A2C",
"7@	c #14192A",
"8@	c #151B2C",
"9@	c #151B2D",
"0@	c #171D2F",
"a@	c #11192C",
"b@	c #191E2F",
"c@	c #151C2E",
"d@	c #B68163",
"e@	c #9F7566",
"f@	c #161D2F",
"g@	c #171D2E",
"h@	c #C18762",
"i@	c #D5925F",
"j@	c #C38862",
"k@	c #AA7B65",
"l@	c #977067",
"m@	c #AA7A65",
"n@	c #9F7466",
"                                                                                                                                ",
"                                                                                                                                ",
"                                                                                                                                ",
"                                                                                                                                ",
"                                                                                                                                ",
"                                                                                                                                ",
"                                                                                                                                ",
"                                                                                                                                ",
"                            . .                                                                                                 ",
"                                                                                                                                ",
"                                                                                                                                ",
"                                                                                                                                ",
"                                                                                                                                ",
"                                                    . . . .               .                                                     ",
"                                                        .                 . . .                                                 ",
"                                                                                                                                ",
"                                                                                                                                ",
"                                                                                                                                ",
"                                                                                                                                ",
"                                                                                                                                ",
"                                                                                                                                ",
"                                                              +   @                                                             ",
"                                                          # $ % & * = - ; > ,       .                                           ",
"                                                        ' ) ! ~ { ] ^ / ( _ : <       .                                         ",
"                                                      [ } | 1 2 3 4 5 6 7 8 9 0 a                                               ",
"                                                      b c d e f & g h i j k l m n o                                             ",
"                                                      p q r s t u v w x y z A B                                                 ",
"                                                    C D E F G H I J K L M N O P Q                                               ",
"                                                    R S T U V W X Y Z `  ...+.@.  #.$.                                          ",
"                                                    %.&.*.=.-.;.>.,.'.).!.~.{.].                          .                     ",
"                                                      ^./.(._.:.<.[.}.|.1.2.3.4.5.6.k                     . .                   ",
"                                                    7.8.9.0.a.b.c.d.e.f.g.h.i.j.k.l.m.n.                    .                   ",
"                                                    o.p.q.r.s.t.u.v.w.x.y.z.A.B.C.D.E.F.G.H.                                    ",
"                                                  I.J.K.L.M.N.O.P.Q.R.S.T.U.V.  W.X.Y.Z.`. +.+++                                ",
"                                                  @+#+$+%+&+*+=+-+;+>+,+'+)+!+            ~+{+]+^+/+                            ",
"                                                  (+_+:+<+[+}+|+1+2+3+4+5+6+7+        8+  9+0+a+b+<                             ",
"                                                  c+d+e+f+g+h+i+j+k+l+m+n+o+p+q+      r+s+t+u+              .                   ",
"                                                  v+w+x+y+z+A+B+C+D+E+F+G+H+I+J+K+        L+M+N+          . .                   ",
"                                                  O+P+Q+R+S+T+U+V+W+X+Y+Z+`+ @.@              +@< <       .                     ",
"                                                    @@#@$@%@&@*@=@-@;@>@,@'@)@                            !@                    ",
"                                                      ~@{@]@^@/@(@_@:@<@[@}@|@                            1@                    ",
"                                                2@2@2@3@4@5@6@7@8@9@0@%.:@a@b@c@                        d@e@                    ",
"                                                2@2@2@2@2@2@2@f@2@2@2@0@g@g@c@2@                h@i@j@k@l@                      ",
"                                                    2@2@2@2@2@2@2@2@2@2@2@2@                      m@n@                          ",
"                                                                                                                                ",
"                                                                                                                                ",
"                                                                                                                                ",
"                                                                                                                                ",
"                                                                                                                                ",
"                                                                                                                                ",
"                                                                                                                                ",
"                                                                                                                                ",
"                                                                                                                                ",
"                                                                                                                                ",
"                                                                                                                                ",
"                                                                                                                                ",
"                                                                                                                                ",
"                                                                                                                                ",
"                                                                                                                                ",
"                                                                                                                                ",
"                                                                                                                                ",
"                                                                                                                                ",
"                                                                                                                                ",
"                                                                                                                                "};
