/* XPM */
static char *result[] = {
/* columns rows colors chars-per-pixel */
"64 64 234 2 ",
"   c #008A005D006E",
".  c #0B930220021E",
"X  c #02B205340A96",
"o  c #043E091D0C2D",
"O  c #0AF60A9B0C1F",
"+  c #0CBD06040869",
"@  c #13F70337023C",
"#  c #1AAC01E80253",
"$  c #1B0A09E40352",
"%  c #11480C3309A8",
"&  c #162604FB0861",
"*  c #04F40CFA1315",
"=  c #0AAF0C8B1294",
"-  c #02740AD61A1C",
";  c #18ED091F16A8",
":  c #032D144B1C25",
">  c #0A6212211A88",
",  c #09D0111914C3",
"<  c #12D713C913FB",
"1  c #1B091B1C1ABF",
"2  c #16E514A11BE1",
"3  c #10E90FCC0F29",
"4  c #21F902530000",
"5  c #2C7003850320",
"6  c #239C0CF1034D",
"7  c #290108060928",
"8  c #32A6037402B2",
"9  c #36070896042D",
"0  c #29F612F908E8",
"q  c #34C9120A0AD8",
"w  c #399E1A340B89",
"e  c #3BAC14E90864",
"r  c #27B407C81B33",
"t  c #39F5072A14DA",
"y  c #258C1AF21901",
"u  c #37D31D550FEE",
"i  c #1CE620371F67",
"p  c #00A51AA824BF",
"a  c #0B921C852A55",
"s  c #05AA19152557",
"d  c #1B521CF12BEA",
"f  c #15CF18882426",
"g  c #17E71E4C300D",
"h  c #25CB1ADA24E6",
"j  c #2B98092123CF",
"k  c #088A21122C89",
"l  c #17DF20C92D47",
"z  c #0A312676375C",
"x  c #1C5222B5338A",
"c  c #185F28543B61",
"v  c #23F423FE23D9",
"b  c #2BC62CA22C20",
"n  c #27222638287C",
"m  c #237C29CB3DC0",
"M  c #269625F135E0",
"N  c #305F2EB930E6",
"B  c #340333B1338C",
"V  c #3C9C3CCB3C7B",
"C  c #36A637FD38FF",
"Z  c #2F40308D306F",
"A  c #450B04730424",
"S  c #4B6305560B11",
"D  c #48C70579075C",
"F  c #5C5E03FD02C9",
"G  c #553B067C077E",
"H  c #44291833084E",
"J  c #4A12010818C0",
"K  c #59A01CB4126E",
"L  c #53FD19130000",
"P  c #674D02DD056E",
"I  c #7AA80778095A",
"U  c #78BB0BB91516",
"Y  c #66B71EF30000",
"T  c #59752321097D",
"R  c #6B6629710986",
"E  c #637925DC0942",
"W  c #790C2D3A08EB",
"Q  c #697E220A1508",
"!  c #7866280515D5",
"~  c #7E48311D0ADA",
"^  c #58210C9D28DC",
"/  c #4B270FE92F22",
"(  c #45F113B835B0",
")  c #44870AB92B1E",
"_  c #6EDF0DA3202D",
"`  c #78BA13D93A2B",
"'  c #734D0E7A3237",
"]  c #1B2C2C4C4202",
"[  c #1A3633554AE6",
"{  c #180432EF4912",
"}  c #1BE639B45383",
"|  c #163139EF5A34",
" . c #05DE35B44E6A",
".. c #23CA2D64437A",
"X. c #243233094AA1",
"o. c #28C1326647CE",
"O. c #34E0359447BF",
"+. c #2C9C3E235AC4",
"@. c #273538AE536A",
"#. c #37963BED5A09",
"$. c #3D3D264048BD",
"%. c #5C2616EE469D",
"&. c #6A7916D141BC",
"*. c #71A51A0B4EB3",
"=. c #50262E2C556C",
"-. c #68BD29E95BA7",
";. c #1CED426A5E1B",
":. c #32A440675EF1",
">. c #05ED4B8E6B4F",
",. c #1750468C6513",
"<. c #02DF555675BF",
"1. c #00005A917CB1",
"2. c #0F46535475CD",
"3. c #22E34362627B",
"4. c #28AC48126906",
"5. c #352543556348",
"6. c #3D3A49FA6C30",
"7. c #3806486F6977",
"8. c #28BD4E3C71C9",
"9. c #3A154C617283",
"0. c #282554967A8C",
"q. c #3C4753587ABB",
"w. c #38B15169769F",
"e. c #43B34BE6727E",
"r. c #43A153637A88",
"t. c #496D4C567722",
"y. c #843C068C061C",
"u. c #970B07C307CE",
"i. c #955A0E9813F8",
"p. c #A7DC0CE915B2",
"a. c #AFA80B6011F1",
"s. c #87B533BC0BE2",
"d. c #945B38D70D0C",
"f. c #85332BEB18A7",
"g. c #84BB3371107E",
"h. c #8D7A346C1224",
"j. c #952A3551168C",
"k. c #91562F381BFE",
"l. c #A1A83ED60F5C",
"z. c #8E2407861FF7",
"x. c #98D2133028F2",
"c. c #99A015E638E5",
"v. c #933411D62B85",
"b. c #AFF4139A2DC5",
"n. c #C69C0D92117B",
"m. c #CBE1118520D0",
"M. c #9F1140EF1611",
"N. c #A698433014D8",
"B. c #863C176141FB",
"V. c #959B18BD422D",
"C. c #0F015DDE8390",
"Z. c #2C525C2E855B",
"A. c #2CEC5D45898E",
"S. c #393E5D438B06",
"D. c #00006C6B93CC",
"F. c #000063B2887F",
"G. c #2CBF618B8CFD",
"H. c #369161128D95",
"J. c #2D5763BB9021",
"K. c #338D6AF49B0A",
"L. c #35EF68E69794",
"P. c #382E6F46A19B",
"I. c #38AE7499A8E9",
"U. c #3A0D7D53B584",
"Y. c #29F27157A30A",
"T. c #111D7E1BB1C1",
"R. c #57CD4D99829B",
"E. c #45F05B26878F",
"W. c #4CAC56D9882C",
"Q. c #48FC60B18E13",
"!. c #44E960A18EA3",
"~. c #4B4D649E942A",
"^. c #4691687A9949",
"/. c #54096A069CC6",
"(. c #49AA6DF1A3DD",
"). c #52B06E60A29B",
"_. c #475D74B3AB5D",
"`. c #56BA744DAA88",
"'. c #4DBF798DB2A5",
"]. c #45187B1BB533",
"[. c #52DE7EBCB9FC",
"{. c #598B7BC3B642",
"}. c #00BB8458B723",
"|. c #13F180C1B461",
" X c #3D908200BC14",
".X c #43438304BDDF",
"XX c #4F70824DBE66",
"oX c #54938246BE67",
"OX c #58348147BDB7",
"+X c #00009AFFD55D",
"@X c #006A8CA9C1D8",
"#X c #3E48871DC3A6",
"$X c #3D6A97EED89B",
"%X c #0000A1CADF07",
"&X c #0078A678E51A",
"*X c #0068BA83FE34",
"=X c #1BFAB00AF22A",
"-X c #40E5864CC292",
";X c #4B48869DC3BF",
":X c #42D8891CC6CD",
">X c #43CF8CEFCC28",
",X c #4CCE8C0ECC47",
"<X c #4B468896C7A5",
"1X c #591F85F5C49F",
"2X c #55DF8977C936",
"3X c #56068F5CD1DC",
"4X c #4550929FD42F",
"5X c #4A5F92F3D5B0",
"6X c #4BA69710DB66",
"7X c #4BA598F7DDF2",
"8X c #4575995BDD05",
"9X c #563A9551DA56",
"0X c #55D695A1DA18",
"qX c #45B59008D0AB",
"wX c #64E38D97CF0F",
"eX c #4BD59DE3E4BF",
"rX c #46CF9EE0E51C",
"tX c #552E9D4EE4FF",
"yX c #60499FAFE9E1",
"uX c #4C98A308EBF4",
"iX c #467FA324E8CE",
"pX c #5221A385ED46",
"aX c #5BA4A249EC94",
"sX c #47BDAD85F744",
"dX c #54ADAAE7F803",
"fX c #56A0B0B9FFFF",
"gX c #6071A49FEEDE",
"hX c #6375A941F51D",
"jX c #000ACC42FFFF",
"kX c #005FD49EFFFF",
"lX c #1F98C051FFFF",
"zX c #00ECEB33FFFF",
"xX c #0000F905FFFF",
"cX c None",
/* pixels */
"cXcXcXcXcXcXcXcXcXcXcXcXcXcXcXcXcXcXcXcXcXcXcXcXcXcXcXcXcXcXcXcXcXcXcXcXcXcXcXcXcXcXcXcXcXcXcXcXcXcXcXcXcXcXcXcXcXcXcXcXcXcXcXcX",
"cXcXcXcXcXcXcXcXcXcXcXcXcXcXcXcXcXcXcXcXcXcXcXcXcXcXcXcXcXcXcXcXcXcXcXcXcXcXcXcXcXcXcXcXcXcXcXcXcXcXcXcXcXcXcXcXcXcXcXcXcXcXcXcX",
"cXcXcXcXcXcXcXcXcXcXcXcXcXcXcXcXcXcXcXcXcXcXcXcXcXcXcXcXcXcXcXcXcXcXcXcXcXcXcXcXcXcXcXcXcXcXcXcXcXcXcXcXcXcXcXcXcXcXcXcXcXcXcXcX",
"cXcXcXcXcXcXcXcXcXcXcXcXcXcXcXcXcXcXcXcXcXcXcXcXcXcXcXcXcXcXcXcXcXcXcXcXcXcXcXcXcXcXcXcXcXcXcXcXcXcXcXcXcXcXcXcXcXcXcXcXcXcXcXcX",
"cXcXcXcXcXcXcXcXcXcXcXcXcXcXcXcXcXcXcXcXcXcXcXcXcXcXcXcXcXcXcXcXcXcXcXcXcXcXcXcX.                 cXcXcXcXcXcXcXcXcXcXcXcXcXcXcX",
"cXcXcXcXcXcXcXcXcXcXcXcXcXcXcXcXcXcXcXcXcXcXcXcXcXcXcXcXcXcXcXcXcXcXcXcXcXcXcX          .           cXcXcXcXcXcXcXcXcXcXcXcXcXcX",
"cXcXcXcXcXcXcXcXcXcXcXcXcXcXcXcXcXcXcXcXcXcXcXcXcXcXcXcXcXcXcXcXcXcXcXcXcXcX        & 7 8 5 @       cXcXcXcXcXcXcXcXcXcXcXcXcXcX",
"cXcXcXcXcXcXcXcXcXcXcXcXcXcXcXcXcXcXcXcXcXcXcXcXcXcX        . + . .                 8 P U G 8 .     cXcXcXcXcXcXcXcXcXcXcXcXcXcX",
"cXcXcXcXcXcXcXcXcXcXcXcXcXcXcXcXcXcXcXcXcXcXcXcXcX          .   .                 . G i.p.I A @     cXcXcXcXcXcXcXcXcXcXcXcXcXcX",
"cXcXcXcXcXcXcXcXcXcXcXcXcXcXcXcXcXcXcXcXcXcXcXcXcX: , * o             . @ @ . . . 5 F u.u.I D @   cXcXcXcXcXcXcXcXcXcXcXcXcXcXcX",
"cXcXcXcXcXcXcXcXcXcXcXcXcXcXcXcXcXcXcXcXcXcXcXcXa [ } { k o           @ 8 A G G G P P P P F 8 @ cXcXcXcXcXcXcXcXcXcXcXcXcXcXcXcX",
"cXcXcXcXcXcXcXcXcXcXcXcXcXcXcXcXcXcX, o         c 0.L.A.} :         . 5 F I u.p.x.I F 8 4 @ cXcXcXcXcXcXcXcXcXcXcXcXcXcXcXcXcXcX",
"cXcXcXcXcXcXcXcXcXcXcXcXcXcXcXcXcXcXX         * 3.I.5X-XZ.f X       & S I a.n.n.a.y.S #     cXcXcXcXcXcXcXcXcXcXcXcXcXcXcXcXcXcX",
"cXcXcXcXcXcXcXcXcXcXcXcXcXcXcXcXcX          * ] G.>XpX5XS.M @ . @ 4 H _ i.b.n.a.u.P t 2 p p p cXcXcXcXcXcXcXcXcXcXcXcXcXcXcXcXcX",
"cXcXcXcXcXcXcXcXcXcXcXcXcXcXcXo           s [ Z.U.rXiX<XS.$.t A A P I v.c.c.z.P G 8 y ..| |  .* cXcXcXcXcXcXcXcXcXcXcXcXcXcXcXcX",
"cXcXcXcXcXcXcXcXcXcXcXcXcXcXo X         * @.L.:XrXiX5X].W.=._ P y.y.i.x.c.&.^ 5 @ . M 9.!.q.m *     cXcXcXcXcXcXcXcXcXcXcXcXcXcX",
"cXcXcXcXcXcXcXcXcXcXcXcXcXcX  X       * { A.:XpXsXiX>X(.R.=.&.z.p.p.x.v.` ( j X X p 3.(.`.W...=     cXcXcXcXcXcXcXcXcXcXcXcXcXcX",
"cXcXcXcXcXcXcXcXcXcXcXcXcXcX      o a } Z.].6XuXsXiX>X_.R.-.B.v.b.b.x.U J ; - p  .,.L.{.`.r...o     cXcXcXcXcXcXcXcXcXcXcXcXcXcX",
"cXcXcXcXcXcXcXcXcXcXcXcXcXcX    o k 3.K.#X,XqX5X8X$XqX_.R.-.B.c.c.V.' S 4   :  .2.I.;X1X).e.M o     cXcXcXcXcXcXcXcXcXcXcXcXcXcX",
"cXcXcXcXcXcXcXcXcXcXcXcXcXcX    * [ J.,XeX7X>X:X$X$XqX'.R.-.' ' &.&.^ 5 .   k 0. XtXtX2X~.#.x o     cXcXcXcXcXcXcXcXcXcXcXcXcXcX",
"cXcXcXcXcXcXcXcXcXcXcXcXcXcX    * @.K.eXfXpX5X>X4XrXqX_.t.( J J J ) j r O a ;.Y.5XaXaX2X~.#.g +     cXcXcXcXcXcXcXcXcXcXcXcXcXcX",
"cXcXcXcXcXcXcXcXcXcXcXcXcXcX    * } K.eXfXdXeX7XrXuX4XP.5.h # # 4 4 ; d ..4.L..X7XtXtX1X~.:.g X     cXcXcXcXcXcXcXcXcXcXcXcXcXcX",
"cXcXcXcXcXcXcXcXcXcXcXcXcXcX    * [ J.qXdXpX7X8XeXeX4XI.3.2         ; ..6.^.XX,X>X5X3XOX~.5.x o     cXcXcXcXcXcXcXcXcXcXcXcXcXcX",
"cXcXcXcXcXcXcXcXcXcXcXcXcXcX    * [ A.:XeX4X X.X>X8X4XI.3.a         f X.q./.[.;X:X:X<X[./.5.x o     cXcXcXcXcXcXcXcXcXcXcXcXcXcX",
"cXcXcXcXcXcXcXcXcXcXcXcXcXcX    , } L.>X4XI.G.Z.K.#X4XU.Z.[ 2 * : k c X.5.q.^.].-X>X,XoX~.5.x +     cXcXcXcXcXcXcXcXcXcXcXcXcXcX",
"cXcXcXcXcXcXcXcXcXcXcXcXcXcX    > ,.I.4X-XZ.[ c 3.I.>X>XI.w.:.+.4.9.5.X.c m 4.J. X5X3XoX~.:.g O     cXcXcXcXcXcXcXcXcXcXcXcXcXcX",
"cXcXcXcXcXcXcXcXcXcXcXcXcXcX    > 3.I.4XU.3.*   z A.:X6X;X(.W./.)./.r.m o X k 0. XtXtX1X~.:.g o     cXcXcXcXcXcXcXcXcXcXcXcXcXcX",
"cXcXcXcXcXcXcXcXcXcXcXcXcXcX    o } P.:XK.]     , 0.:XtX0X[.{.{.wX{.r.d     * ,.U.tXyXwX).5.x X     cXcXcXcXcXcXcXcXcXcXcXcXcXcX",
"cXcXcXcXcXcXcXcXcXcXcXcXcXcX      ] S.'.S.f     o 8.-XpXtX<X[.1XwX`.t.2     X ;.U.eXhXyX`.9.c X         cXcXcXcXcXcXcXcXcXcXcXcX",
"cXcXcXcXcXcXcXcXcXcXcXcXcXcX      m S.(.r.h     : 0.:XeXeX,X-X[.{.).e.f     * ,.U.eXgXwX).9.c X         X cXcXcXcXcXcXcXcXcXcXcX",
"cXcXcXcXcXcXcXcXcXcXcXcXcXcX    > o.E./.E.o.= o z A.:XuXiX4X:X;X1X(.q.m O * z 0. XeX9X[.Q.5.M %         X cXcXcXcXcXcXcXcXcXcXcX",
"cXcXcXcXcXcXcXcXcXcXcXcXcX* s z } 0.^._.L.8.[ [ ,.P.:XrXiXrXrX6X0X;X^.8.{ { 3.K.;X,X].S.:...v 0 6 @ .       cXcXcXcXcXcXcXcXcXcX",
"cXcXcXcXcXcXcXcXcXcXcXcX  k ;.0.K.U..X.X].K.J.G.K.U.:X8XrXuXuXpXpX0X:XI.J.G.L.'.oX].A. .a ; e T L 0 $     cXcXcXcXcXcXcXcXcXcXcX",
"cXcXcXcXcXcXcXcXcXcXcX    l ,.I.5XeX5X:X X-X-X#X#X#X>X>X4X5X8XeX7X6X4X>X#X#X;X1X{.E.@.s X & L W ~ T 6     cXcXcXcXcXcXcXcXcXcXcX",
"cXcXcXcXcXcXcXcXcXcX      k 8..XpXdX7XqX>X5X6X7X8X5X,X;X].I.K.L.K.P.U.>X7X0X3X'.Q.:.l X . 8 Y s.h.T 0     cXcXcXcXcXcXcXcXcXcXcX",
"cXcXcXcXcXcXcXcXcXcX      g 3._.9XaX0X2X<X,X3X3X9X9X;X_.S.4.[ x x [ 8._.3X9X2XL.+.M $ 4 9 L s.s.g.T 6     cXcXcXcXcXcXcXcXcXcXcX",
"cXcXcXcXcXcXcXcXcXcX      a :.^.OX2X1X{.'.'.'.oX1X1X[.~.+.d .     . x w.'.OX_.3.g . 4 H E s.d.d.W H 6     cXcXcXcXcXcXcXcXcXcXcX",
"cXcXcXcXcXcXcXcXcXcXcX    f X.E.).`./.~.Q.Q.Q.~.).)./.q.X.s         s +.E.Q.8.c     5 E s.M.d.d.R w $     cXcXcXcXcXcXcXcXcXcXcX",
"cXcXcXcXcXcXcXcXcXcXcX    f @.r.~.E.9.7.5.5.6.e.e.e.7.+.{ z p s : p z @.5.:...-     9 R d.N.N.d.R w $     cXcXcXcXcXcXcXcXcXcXcX",
"cXcXcXcXcXcXcXcXcXcXcXcXcXcXcXcXcX@.M x M Z :.O.C M g ]  .<.F.D.D.F.<.,.[ d =     . 0 E h.N.N.d.R H $     cXcXcXcXcXcXcXcXcXcXcX",
"cXcXcXcXcXcXcXcXcXcXcXcXcXcXcXcXcXcX  X < l Z Z y @ . p >.}.&XjX*X&X}.<.z         + e T g.d.N.d.R H $     cXcXcXcXcXcXcXcXcXcXcX",
"cXcXcXcXcXcXcXcXcXcXcXcXcXcXcXcXcXcX    . 1 b n $ .   : 1.+XkXzXzXkX%X1.p         3 u T W d.d.d.R H $     cXcXcXcXcXcXcXcXcXcXcX",
"cXcXcXcXcXcXcXcXcXcXcXcXcXcXcXcXcXcX    . 1 b n $ .   : 1.+XkXxXxXkX%X1.p         3 u E ~ d.d.g.T e $     cXcXcXcXcXcXcXcXcXcXcX",
"cXcXcXcXcXcXcXcXcXcXcXcXcXcXcXcXcXcX    O i B b 0 @   s <.+XjXzXzXjX+X1.k         % u E ~ h.h.! K q $     cXcXcXcXcXcXcXcXcXcXcX",
"cXcXcXcXcXcXcXcXcXcXcXcXcXcXcXcXcXcX    % l C B y #   s >.}.*XkXkX*X}.<.k         % w E ~ h.k.! K 7 $     cXcXcXcXcXcXcXcXcXcXcX",
"cXcXcXcXcXcXcXcXcXcXcXcXcXcXcXcXcXcX    < n V C y @   s >.T.=XlX=X=XT.2.k         % u E g.j.k.f.K q &     cXcXcXcXcXcXcXcXcXcXcX",
"cXcXcXcXcXcXcXcXcXcXcXcXcXcXcXcXcXcX    3 n C C y     - | Y.$XsXsX$XY.,.s         % w E ! j.j.f.K q &       cXcXcXcXcXcXcXcXcXcX",
"cXcXcXcXcXcXcXcXcXcXcXcXcXcXcXcXcXcX    3 v C B y     - { A.[.9X3XoXH.@.>         % q K ! f.k.f.K q $     cXcXcXcXcXcXcXcXcXcXcX",
"cXcXcXcXcXcXcXcXcXcXcXcXcXcXcXcXcXcX    O v B B v %   < m 7.W.).).W.e.o.1         + 7 H K Q Q Q K q &     cXcXcXcXcXcXcXcXcXcXcX",
"cXcXcXcXcXcXcXcXcXcXcXcXcXcXcXcXcXcX    O i B V B v 1 i M O.#.=.=.O.O.N v 1 3     . & 7 t e e e q 6 @   cXcXcXcXcXcXcXcXcXcXcXcX",
"cXcXcXcXcXcXcXcXcXcXcXcXcXcXcXcXcXcX    O 1 b V V V Z n v h f 2 f f h b Z Z i < X     . % $ $ $ $ @ . cXcXcXcXcXcXcXcXcXcXcXcXcX",
"cXcXcXcXcXcXcXcXcXcXcXcXcXcXcXcXcXcX    + < v B V V C b 1 %         O l B C b 1 X         .         cXcXcXcXcXcXcXcXcXcXcXcXcXcX",
"cXcXcXcXcXcXcXcXcXcXcXcXcXcXcXcXcXcX    o 3 1 v Z B B v <             < n Z n 1 .                 cXcXcXcXcXcXcXcXcXcXcXcXcXcXcX",
"cXcXcXcXcXcXcXcXcXcXcXcXcXcXcXcXcXcXcXcX. o O < 1 v i < o             o 1 i 1 %         cXcXcXcXcXcXcXcXcXcXcXcXcXcXcXcXcXcXcXcX",
"cXcXcXcXcXcXcXcXcXcXcXcXcXcXcXcXcXcXcXcXcX  X . . O + X                 o + . X       cXcXcXcXcXcXcXcXcXcXcXcXcXcXcXcXcXcXcXcXcX",
"cXcXcXcXcXcXcXcXcXcXcXcXcXcXcXcXcXcXcXcXcXcX              . + @ @ + . .             cXcXcXcXcXcXcXcXcXcXcXcXcXcXcXcXcXcXcXcXcXcX",
"cXcXcXcXcXcXcXcXcXcXcXcXcXcXcXcXcXcXcXcXcXcX            # 9 D L S D 8 #           . cXcXcXcXcXcXcXcXcXcXcXcXcXcXcXcXcXcXcXcXcXcX",
"cXcXcXcXcXcXcXcXcXcXcXcXcXcXcXcXcXcXcXcXcXcXcXcX      @ 8 F y.u.u.y.P 8 @       cXcXcXcXcXcXcXcXcXcXcXcXcXcXcXcXcXcXcXcXcXcXcXcX",
"cXcXcXcXcXcXcXcXcXcXcXcXcXcXcXcXcXcXcXcXcXcXcXcXcX    # A I a.n.n.a.I D #     cXcXcXcXcXcXcXcXcXcXcXcXcXcXcXcXcXcXcXcXcXcXcXcXcX",
"cXcXcXcXcXcXcXcXcXcXcXcXcXcXcXcXcXcXcXcXcXcXcXcXcX    # S U p.m.m.p.U H #     cXcXcXcXcXcXcXcXcXcXcXcXcXcXcXcXcXcXcXcXcXcXcXcXcX",
"cXcXcXcXcXcXcXcXcXcXcXcXcXcXcXcXcXcXcXcXcXcXcXcXcX    & J _ c.b.b.c._ t &     cXcXcXcXcXcXcXcXcXcXcXcXcXcXcXcXcXcXcXcXcXcXcXcXcX",
"cXcXcXcXcXcXcXcXcXcXcXcXcXcXcXcXcXcXcXcXcXcXcXcXcX    & t ^ ` V.B.v.^ t &     cXcXcXcXcXcXcXcXcXcXcXcXcXcXcXcXcXcXcXcXcXcXcXcXcX",
"cXcXcXcXcXcXcXcXcXcXcXcXcXcXcXcXcXcXcXcXcXcXcXcXcX    + j / &.*.*.&./ r +     cXcXcXcXcXcXcXcXcXcXcXcXcXcXcXcXcXcXcXcXcXcXcXcXcX",
"cXcXcXcXcXcXcXcXcXcXcXcXcXcXcXcXcXcXcXcXcXcXcXcXcX    + j j %.*.*.%.( r +     cXcXcXcXcXcXcXcXcXcXcXcXcXcXcXcXcXcXcXcXcXcXcXcXcX"
};
