/* XPM */
static char * l0_xpm[] = {
"64 64 357 2",
"  	c None",
". 	c #D9945F",
"+ 	c #D78F60",
"@ 	c #D58B62",
"# 	c #E2AA58",
"$ 	c #EEC650",
"% 	c #E6B257",
"& 	c #F0C950",
"* 	c #ECC051",
"= 	c #F7D94A",
"- 	c #E5AF57",
"; 	c #EEC152",
"> 	c #FFEF43",
", 	c #FFF642",
"' 	c #FFED40",
") 	c #F1CB47",
"! 	c #DEA05C",
"~ 	c #E2A859",
"{ 	c #F2CE4E",
"] 	c #FFF741",
"^ 	c #EDBF52",
"/ 	c #D1905D",
"( 	c #FFEF48",
"_ 	c #FFEC37",
": 	c #FFF592",
"< 	c #FFF77F",
"[ 	c #E0A44F",
"} 	c #D58D65",
"| 	c #E9BA53",
"1 	c #F4D44C",
"2 	c #FDEA44",
"3 	c #FFF546",
"4 	c #888232",
"5 	c #FFF565",
"6 	c #FEF8CA",
"7 	c #FFFDB8",
"8 	c #F6D149",
"9 	c #FCE646",
"0 	c #E8B754",
"a 	c #DC9C5D",
"b 	c #6C6724",
"c 	c #FFFC92",
"d 	c #FAF4CB",
"e 	c #FFFB5C",
"f 	c #DBBE4B",
"g 	c #182132",
"h 	c #8E8737",
"i 	c #FFFFD8",
"j 	c #FFFFFD",
"k 	c #D2C53D",
"l 	c #4B4A31",
"m 	c #101025",
"n 	c #386E7A",
"o 	c #36646A",
"p 	c #2F2E36",
"q 	c #E2CC98",
"r 	c #FEF7D8",
"s 	c #D7CFA8",
"t 	c #434433",
"u 	c #181C2E",
"v 	c #161C30",
"w 	c #366975",
"x 	c #53AFB4",
"y 	c #407A7E",
"z 	c #121427",
"A 	c #655F56",
"B 	c #A59576",
"C 	c #E5D197",
"D 	c #534D48",
"E 	c #11172D",
"F 	c #2A4438",
"G 	c #4F6E45",
"H 	c #172032",
"I 	c #151D2D",
"J 	c #222240",
"K 	c #528499",
"L 	c #4FA4A3",
"M 	c #52A8AA",
"N 	c #30545C",
"O 	c #1B2633",
"P 	c #161C2E",
"Q 	c #484646",
"R 	c #57504A",
"S 	c #7A6C5B",
"T 	c #887862",
"U 	c #0A1228",
"V 	c #25523B",
"W 	c #61AA55",
"X 	c #131224",
"Y 	c #20243D",
"Z 	c #3C5173",
"` 	c #3B7C8E",
" .	c #284C5F",
"..	c #384967",
"+.	c #458C9E",
"@.	c #3E818E",
"#.	c #152434",
"$.	c #4B8649",
"%.	c #6B9751",
"&.	c #10152C",
"*.	c #1A1E30",
"=.	c #484146",
"-.	c #1B2031",
";.	c #36353C",
">.	c #1F5139",
",.	c #224B38",
"'.	c #2C3C58",
").	c #274659",
"!.	c #292E4B",
"~.	c #405479",
"{.	c #40718C",
"].	c #3B788C",
"^.	c #3C728C",
"/.	c #2C535E",
"(.	c #319449",
"_.	c #90E565",
":.	c #445B40",
"<.	c #4A4247",
"[.	c #917669",
"}.	c #3D3842",
"|.	c #2E3356",
"1.	c #455B82",
"2.	c #3F728C",
"3.	c #337382",
"4.	c #39677F",
"5.	c #406584",
"6.	c #41859A",
"7.	c #346676",
"8.	c #367057",
"9.	c #58D05D",
"0.	c #699350",
"a.	c #050428",
"b.	c #5D5150",
"c.	c #826C63",
"d.	c #242635",
"e.	c #212740",
"f.	c #425078",
"g.	c #404B74",
"h.	c #424E76",
"i.	c #446C8C",
"j.	c #3F8A9B",
"k.	c #3D8D9C",
"l.	c #3E8898",
"m.	c #426F72",
"n.	c #39905E",
"o.	c #55B654",
"p.	c #272C30",
"q.	c #1F4E39",
"r.	c #232335",
"s.	c #2D2A3A",
"t.	c #10172B",
"u.	c #0C0F29",
"v.	c #182635",
"w.	c #233143",
"x.	c #222F43",
"y.	c #212442",
"z.	c #31355A",
"A.	c #41567A",
"B.	c #436F8D",
"C.	c #336B7E",
"D.	c #273441",
"E.	c #419361",
"F.	c #2D6F37",
"G.	c #233249",
"H.	c #1E303B",
"I.	c #25593D",
"J.	c #266B40",
"K.	c #45543E",
"L.	c #66934E",
"M.	c #19202F",
"N.	c #0D0F2A",
"O.	c #467B47",
"P.	c #7FCB5D",
"Q.	c #37AB4D",
"R.	c #32A14A",
"S.	c #297541",
"T.	c #243B42",
"U.	c #1A1C34",
"V.	c #334666",
"W.	c #40889B",
"X.	c #316172",
"Y.	c #41827F",
"Z.	c #398071",
"`.	c #59B0AF",
" +	c #3B6E71",
".+	c #172131",
"++	c #28513B",
"@+	c #68C65A",
"#+	c #56BA56",
"$+	c #1A2631",
"%+	c #0E1A2D",
"&+	c #4E934D",
"*+	c #93E866",
"=+	c #57B755",
"-+	c #35AC50",
";+	c #3AB953",
">+	c #3CBA57",
",+	c #43776A",
"'+	c #2D4A4C",
")+	c #243641",
"!+	c #356C7F",
"~+	c #4290A2",
"{+	c #4591A0",
"]+	c #4FA1A9",
"^+	c #5AB7B3",
"/+	c #39696F",
"(+	c #15122E",
"_+	c #1E4C38",
":+	c #35C454",
"<+	c #257141",
"[+	c #1C3634",
"}+	c #2E8947",
"|+	c #2E7242",
"1+	c #255B3D",
"2+	c #133433",
"3+	c #182230",
"4+	c #234E3D",
"5+	c #3E7762",
"6+	c #406E67",
"7+	c #2F4C4F",
"8+	c #192333",
"9+	c #397C8D",
"0+	c #3C8596",
"a+	c #3E8998",
"b+	c #366973",
"c+	c #171D2E",
"d+	c #151C2E",
"e+	c #232635",
"f+	c #234739",
"g+	c #1D3834",
"h+	c #1A2F32",
"i+	c #1E3E36",
"j+	c #375D5B",
"k+	c #3B6161",
"l+	c #3F6B66",
"m+	c #467B6F",
"n+	c #2D4C4C",
"o+	c #222541",
"p+	c #416C89",
"q+	c #3E7990",
"r+	c #3F6784",
"s+	c #375470",
"t+	c #2B3855",
"u+	c #15182A",
"v+	c #202433",
"w+	c #695956",
"x+	c #19182F",
"y+	c #2A4548",
"z+	c #44786B",
"A+	c #417367",
"B+	c #305151",
"C+	c #252B45",
"D+	c #416484",
"E+	c #3E8396",
"F+	c #3E8194",
"G+	c #3E7E93",
"H+	c #3F8296",
"I+	c #24394D",
"J+	c #15192C",
"K+	c #232634",
"L+	c #272E49",
"M+	c #34415E",
"N+	c #3F6B64",
"O+	c #384D63",
"P+	c #364265",
"Q+	c #404A73",
"R+	c #425E80",
"S+	c #418B9B",
"T+	c #418A9B",
"U+	c #418B9C",
"V+	c #4190A2",
"W+	c #21394B",
"X+	c #214D39",
"Y+	c #37A352",
"Z+	c #2B474A",
"`+	c #14182C",
" @	c #314064",
".@	c #3F4F79",
"+@	c #2F3E62",
"@@	c #404E77",
"#@	c #415079",
"$@	c #3D4E75",
"%@	c #35416D",
"&@	c #2F6180",
"*@	c #2E7A8F",
"=@	c #2D7289",
"-@	c #2C596B",
";@	c #20384B",
">@	c #26663E",
",@	c #40C75A",
"'@	c #345A57",
")@	c #171B2E",
"!@	c #47434D",
"~@	c #383949",
"{@	c #4C444A",
"]@	c #1F263A",
"^@	c #272F45",
"/@	c #34374C",
"(@	c #5F575B",
"_@	c #6F6359",
":@	c #6C635A",
"<@	c #72685B",
"[@	c #876E5A",
"}@	c #574B48",
"|@	c #192030",
"1@	c #192D31",
"2@	c #21423A",
"3@	c #1E2B39",
"4@	c #252735",
"5@	c #4A4145",
"6@	c #6F5D58",
"7@	c #3C383F",
"8@	c #796257",
"9@	c #61504C",
"0@	c #423C40",
"a@	c #504947",
"b@	c #4F4544",
"c@	c #4E4443",
"d@	c #282636",
"e@	c #212232",
"f@	c #0C1529",
"g@	c #272836",
"h@	c #3F3A42",
"i@	c #403A42",
"j@	c #3B3841",
"k@	c #2B3552",
"l@	c #333E5D",
"m@	c #2B3A5F",
"n@	c #2D4267",
"o@	c #2D4B6C",
"p@	c #3E708D",
"q@	c #2E5068",
"r@	c #2B2B38",
"s@	c #725F5A",
"t@	c #3A3640",
"u@	c #705D58",
"v@	c #222B44",
"w@	c #333F5F",
"x@	c #3F4B70",
"y@	c #3D4B6F",
"z@	c #2D4E62",
"A@	c #2D5467",
"B@	c #284E5F",
"C@	c #213A4B",
"D@	c #171E30",
"E@	c #292A37",
"F@	c #0B1429",
"G@	c #34323D",
"H@	c #1A1D2B",
"I@	c #1A2034",
"J@	c #121224",
"K@	c #12192C",
"L@	c #181E2F",
"M@	c #151C2F",
"N@	c #171D2F",
"O@	c #151B2D",
"P@	c #171E31",
"                                                                                                                                ",
"                                                                                                                                ",
"                                                                                                                                ",
"                                                                                                                                ",
"                                                                                                                                ",
"                                                                                                                                ",
"                                                                                                                                ",
"                                                                                                                                ",
"                                                                                                                                ",
"                                                                                                                                ",
"                                                                                                                                ",
"                                                                                                                                ",
"                                                                                    .                                           ",
"                                                                                  .     + @ .                                   ",
"                                                                                        # $ % & *                               ",
"                                                                              = -     ; > , ' ) !                               ",
"                                                                              ~ { ] ^ / ( _ : < [ }                             ",
"                                                                              | 1 2 3   4 5 6 7 8                               ",
"                                                                              9 0 a     b c d e f                               ",
"                                                                        g               h i j k l                               ",
"                                                                    m n o             p q r s t                                 ",
"                                                      u           v w x y z           A B C D E                                 ",
"                                                      F G     H I J K L M N   O P     Q R S T U                                 ",
"                                                      V W X Y Z `  ...+.@.#.$.%.&.    *.=.-.;.                                  ",
"                                                      >.,.'.).!.~.{.].^./.(._.:.      <.[.}.                                    ",
"                                                        |.1.2.3.4.5.6.7.8.9.0.a.      b.c.d.                                    ",
"                                                      e.f.g.h.i.j.k.l.m.n.o.p.      q.r.s.t.                                    ",
"                                                    u.v.w.x.y.z.A.B.C.D.E.F.G.H.  I.J.K.L.M.                                    ",
"                                                  N.O.P.Q.R.S.T.U.V.W.X.Y.Z.`. +  .+++@+#+$+                                    ",
"                                                %+&+*+=+-+;+>+,+'+)+!+~+{+]+^+/+  (+_+:+<+                                      ",
"                                              [+}+|+1+2+3+4+5+6+7+8+9+j.0+a+b+c+  d+e+f+g+                                      ",
"                                              h+i+      j+k+l+m+n+o+p+q+r+s+t+u+d+v+w+x+                                        ",
"                                                        y+z+A+B+C+D+E+F+G+H+I+J+    K+                                          ",
"                                                3+    L+M+N+O+P+Q+R+S+T+U+V+W+                                                  ",
"                                              X+Y+Z+`+ @.@+@@@#@$@%@&@*@=@-@;@                                                  ",
"                                              >@,@'@)@!@~@{@]@^@/@(@_@:@<@[@}@|@                                                ",
"                                              1@2@3@  4@5@6@7@8@9@0@a@b@c@d@e@                                                  ",
"                                                    f@g@h@i@j@k@l@m@m@n@o@p@q@                                                  ",
"                                                    r@s@r@t@u@v@w@x@y@z@A@B@C@D@                                                ",
"                                                      E@F@  G@H@  I@    J@                                                      ",
"                                                      K@L@P t.M@N@O@O@P@D@                                                      ",
"                                                P P P c+P P c+P P P P P P P P P                                                 ",
"                                                P P P P P P P P P P P P P P P P                                                 ",
"                                                    P P P P P P P P P P P P                                                     ",
"                                                                                                                                ",
"                                                                                                                                ",
"                                                                                                                                ",
"                                                                                                                                ",
"                                                                                                                                ",
"                                                                                                                                ",
"                                                                                                                                ",
"                                                                                                                                ",
"                                                                                                                                ",
"                                                                                                                                ",
"                                                                                                                                ",
"                                                                                                                                ",
"                                                                                                                                ",
"                                                                                                                                ",
"                                                                                                                                ",
"                                                                                                                                ",
"                                                                                                                                ",
"                                                                                                                                ",
"                                                                                                                                ",
"                                                                                                                                "};
