/* XPM */
static char *result[] = {
/* columns rows colors chars-per-pixel */
"64 64 224 2 ",
"   c #00A70068006A",
".  c #0C3402480238",
"X  c #0D17090402C7",
"o  c #0A2804480924",
"O  c #02D709E80C61",
"+  c #0AD60A7B0BCA",
"@  c #063004380A21",
"#  c #145200B60140",
"$  c #1D3D011502F8",
"%  c #11260BD2051C",
"&  c #1327033D0A4D",
"*  c #117C0E850CA7",
"=  c #1B9908470A52",
"-  c #142210DC0B88",
";  c #1B7F12EF0B51",
":  c #04540C7E1224",
">  c #097E0DBB1377",
",  c #1A8B081B14DD",
"<  c #0AF310531596",
"1  c #058F13C51CC8",
"2  c #09D912491B54",
"3  c #038212021234",
"4  c #141F13AC1348",
"5  c #188317061417",
"6  c #166918AB1975",
"7  c #1C6D1BEC1B16",
"8  c #19B2186218FD",
"9  c #097D11B30DE9",
"0  c #220A01D90384",
"q  c #2AAA01F603D1",
"w  c #2C0203630EBE",
"e  c #33BE01C9022F",
"r  c #38AF03CF0478",
"t  c #37CB04A70AF9",
"y  c #266407E517CC",
"u  c #358007C618C7",
"i  c #20981E551C31",
"p  c #228B213C1DF2",
"a  c #0BCC1A9327E9",
"s  c #123D16242283",
"d  c #14761847228B",
"f  c #1C841CCC21AC",
"g  c #17151B292AE0",
"h  c #14031F5B3136",
"j  c #3B3C0C60228A",
"k  c #3990134B3466",
"l  c #0F0A202A2F5E",
"z  c #18D920FD268D",
"x  c #0C4E26123BE4",
"c  c #0E122313336A",
"v  c #14E0249C35AD",
"b  c #1B38224A3313",
"n  c #13752694388A",
"m  c #14632A133C9D",
"M  c #1C372BD33ABE",
"N  c #243D231121F3",
"B  c #2C7F2C732CA2",
"V  c #2487262C29B0",
"C  c #31192E632D2E",
"Z  c #32042FCA2E8C",
"A  c #23A829733A2C",
"S  c #32A6334C3509",
"D  c #335334B33849",
"F  c #39E23A793BB6",
"G  c #38153830398F",
"H  c #436204350401",
"J  c #4B920574079F",
"K  c #560408FC098D",
"L  c #555C0305034E",
"P  c #42780438165F",
"I  c #69CD00A20000",
"U  c #6E2707C50A59",
"Y  c #66D206A40868",
"T  c #772507C1099D",
"R  c #6AAB00001B4D",
"E  c #69BF05D91900",
"W  c #7E520ADF165A",
"Q  c #4AB50AEA2677",
"!  c #4B6311852E5C",
"~  c #569A158F2A93",
"^  c #5C20123D3796",
"/  c #4F3F0F832ED4",
"(  c #68B304742694",
")  c #710A0E3031CA",
"_  c #662A14B13B6E",
"`  c #718B0FFA2D92",
"'  c #00002CBD4060",
"]  c #06BA32D547C3",
"[  c #1BAD33FC4B94",
"{  c #1723334E49FB",
"}  c #0A813C2E5446",
"|  c #1B723ACC5492",
" . c #19FA3DCF58E4",
".. c #287D330B4A38",
"X. c #39C93BEC407B",
"o. c #2A6636AF51E0",
"O. c #2D9A3BB15A62",
"+. c #31473DA55ADA",
"@. c #2A1A2A3945E5",
"#. c #309B3E1D60B8",
"$. c #59EC1A824552",
"%. c #661F19734347",
"&. c #7AF019E14502",
"*. c #762F19E54896",
"=. c #6B5A1AB75243",
"-. c #5D522FC255E0",
";. c #658522E04C1D",
":. c #64D52CE4586F",
">. c #4EE73ED06F3C",
",. c #540734CA6243",
"<. c #57BF3BBB6905",
"1. c #58ED3C1D704E",
"2. c #7593353A6174",
"3. c #190C41F55DDD",
"4. c #3F56405641E9",
"5. c #3DAF430A52C6",
"6. c #349940295EFA",
"7. c #24FD42885D69",
"8. c #1B01446E632E",
"9. c #28174A306B14",
"0. c #35AD491E6B8E",
"q. c #2DB8566C7C36",
"w. c #26E152C67762",
"e. c #33CC54B57B27",
"r. c #3A8E537C7CD4",
"t. c #35FE519B7597",
"y. c #25F74E64724F",
"u. c #429648B75AA8",
"i. c #4DD149497B98",
"p. c #58EE44C57525",
"a. c #477F54BA7554",
"s. c #51EE528C7F82",
"d. c #443750466EA1",
"f. c #66114A597C1B",
"g. c #823D00BD02B6",
"h. c #871E051608F2",
"j. c #9A670AC40EB4",
"k. c #970D037A04B1",
"l. c #83DB08CE15ED",
"z. c #96BD0A9616E1",
"x. c #A70F068B0BB7",
"c. c #A7C3095E1502",
"v. c #B11810B11A91",
"b. c #9BED145A2C79",
"n. c #80BF18D63B86",
"m. c #934B109A2B4B",
"M. c #B0E815D33364",
"N. c #C8231220210F",
"B. c #C4930CCB0F7B",
"V. c #8CE41A6349AE",
"C. c #8E4B279F4A5B",
"Z. c #A03526B8647B",
"A. c #11C95BDA8332",
"S. c #2CF85C8585C1",
"D. c #2B695FD88DAE",
"F. c #37615B448738",
"G. c #2BC3629A8DB3",
"H. c #356F60FF8C23",
"J. c #296169059892",
"K. c #3154658E92AB",
"L. c #338A6C039BFF",
"P. c #389767CF9583",
"I. c #32746E13A15E",
"U. c #3AC076B9AAA4",
"Y. c #3B667C23B3F0",
"T. c #393D7EE9B7F2",
"R. c #2DCD70EEA43A",
"E. c #49425A2084C0",
"W. c #55CC56C38995",
"Q. c #4FA95DB198A9",
"!. c #60C24EFE80F7",
"~. c #6098515686DE",
"^. c #48C0616E8E51",
"/. c #470761578D30",
"(. c #4C7C697699EE",
"). c #488B66E7973A",
"_. c #59AC62EA982E",
"`. c #46F56E88A79E",
"'. c #57C36C5AAA05",
"]. c #4BE374BDACAE",
"[. c #46A076B6ABEC",
"{. c #532D70FEA60E",
"}. c #5383749BAC68",
"|. c #4D7C7A80B485",
" X c #48347B2DB642",
".X c #53B07B51B66F",
"XX c #3E238185BB83",
"oX c #4A5F8271BDEB",
"OX c #46EF83BBBDB5",
"+X c #54548184BD9A",
"@X c #5D8C8167BE49",
"#X c #3D7087D3C429",
"$X c #3E2B96B9D7F4",
"%X c #3D449E90E18D",
"&X c #3D32A66BEA04",
"*X c #42248618C213",
"=X c #49BF85F9C391",
"-X c #43608C7FCBB4",
";X c #4DB88CA1CD14",
":X c #473B8953C762",
">X c #53F5855CC433",
",X c #53DD8896C719",
"<X c #54C088EDCAB7",
"1X c #41779107CFC1",
"2X c #41F28FC8D0E1",
"3X c #434B933AD43A",
"4X c #4C5396B1DB15",
"5X c #4A9698D4DD77",
"6X c #46F2958AD8FC",
"7X c #50F69571DB71",
"8X c #56F7973DDDBC",
"9X c #519D8ED3D30F",
"0X c #609B897AC9E7",
"qX c #4B789EDFE616",
"wX c #579A9B15E11F",
"eX c #61BE9B7CE607",
"rX c #4C0BA32DEB9D",
"tX c #41BFA49BE840",
"yX c #5263A234EBDC",
"uX c #5584A907F60C",
"iX c #5501AFD4FC19",
"pX c #615EAB03F915",
"aX c #609AB6C6FFFF",
"sX c None",
/* pixels */
"sXsXsXsXsXsXsXsXsXsXsXsXsXsXsXsXsXsXsXsXsXsXsXsXsXsXsXsXsXsXsXsXsXsXsXsXsXsXsXsXsXsXsXsXsXsXsXsXsXsXsXsXsXsXsXsXsXsXsXsXsXsXsXsX",
"sXsXsXsXsXsXsXsXsXsXsXsXsXsXsXsXsXsXsXsXsXsXsXsXsXsXsXsXsXsXsXsXsXsXsXsXsXsXsXsXsXsXsXsXsXsXsXsXsXsXsXsXsXsXsXsXsXsXsXsXsXsXsXsX",
"sXsXsXsXsXsXsXsXsXsXsXsXsXsXsXsXsXsXsXsXsXsXsXsXsXsXsXsXsXsXsXsXsXsXsXsXsXsXsXsXsXsXsXsXsXsXsXsXsXsXsXsXsXsXsXsXsXsXsXsXsXsXsXsX",
"sXsXsXsXsXsXsXsXsXsXsXsXsX    sXsXsXsXsXsXsXsXsXsXsXsXsXsXsXsXsXsXsXsXsXsXsXsXsXsXsXsXsXsXsXsXsXsX    sXsXsXsXsXsXsXsXsXsXsXsXsX",
"sXsXsXsXsXsXsXsXsXsXsX            sXsXsXsXsXsXsXsXsXsXsXsXsXsXsXsXsXsXsXsXsXsXsXsXsXsXsXsXsXsX            sXsXsXsXsXsXsXsXsXsXsX",
"sXsXsXsXsXsXsXsXsXsXsX              sXsXsXsXsXsXsXsXsXsXsXsXsXsXsXsXsXsXsXsXsXsXsXsXsXsXsXsX              sXsXsXsXsXsXsXsXsXsXsX",
"sXsXsXsXsXsXsXsXsXsX      . 0 e r q . sXsXsXsXsXsXsXsXsXsXsXsXsXsXsXsXsXsXsXsXsXsXsXsXsXsX# q r e 0 .       sXsXsXsXsXsXsXsXsXsX",
"sXsXsXsXsXsXsXsXsXsX      $ H Y T J #   sXsXsXsXsXsX                        sXsXsXsXsXsX  $ J U Y H $       sXsXsXsXsXsXsXsXsXsX",
"sXsXsXsXsXsXsXsXsXsXsX    q Y j.j.Y 0     sXsXsXsX                            sXsXsXsX    0 Y j.j.Y q     sXsXsXsXsXsXsXsXsXsXsX",
"sXsXsXsXsXsXsXsXsXsXsX    e U j.j.U r %   sXsXsXsX1 1 1 2 2 2 2 > 2 3 2 1 3 1 sXsXsXsX  # r U j.j.U e     sXsXsXsXsXsXsXsXsXsXsX",
"sXsXsXsXsXsXsXsXsXsXsXsX  q J U U U K H e # sXsX' } 3.3. .| [ [ [ [ |  .3.3.3.' sXsX# e H K Y U Y J q   sXsXsXsXsXsXsXsXsXsXsXsX",
"sXsXsXsXsXsXsXsXsXsXsXsXsXsX# $ t K U T I e   O ] A.R.Y.U.L.K.D.K.K.I.U.XXR.w.] O   e I W T K t 0 & sXsXsXsXsXsXsXsXsXsXsXsXsXsX",
"sXsXsXsXsXsXsXsXsXsXsXsXsXsX    . H l.c.k.L # O ] G.-XqXwX4X2X-X:X-XqXqXwX2XJ.] O # L k.x.l.H .     sXsXsXsXsXsXsXsXsXsXsXsXsXsX",
"sXsXsXsXsXsXsXsXsXsXsXsXsXsX      t l.v.k.I r ; M F.+XeXuXyXqXqXrXrXwXuXeX@Xr.A = e I j.c.W t       sXsXsXsXsXsXsXsXsXsXsXsXsXsX",
"sXsXsXsXsXsXsXsXsXsXsXsXsXsX      w R m.j.h.L K ~ -.~.'.<X7XqXtXrXqX7X<X'.~.-.~ K I h.z.m.E w       sXsXsXsXsXsXsXsXsXsXsXsXsXsX",
"sXsXsXsXsXsXsXsXsXsXsXsXsXsX    @ , Q ) m.z.j.j.l.` =.1.Q.OX6XqX&X3X XQ.1.=.` l.h.z.z.m.` Q , @     sXsXsXsXsXsXsXsXsXsXsXsXsXsX",
"sXsXsXsXsXsXsXsXsXsXsXsXsXsX    o , k $.&.b.v.c.x.g.R $.i.`.2X&X&X2X`.i.$.( g.k.x.v.m.V.$.k , @     sXsXsXsXsXsXsXsXsXsXsXsXsXsX",
"sXsXsXsXsXsXsXsXsXsXsXsXsXsX    o g @.,.2.C.b.j.k.g.U ^ >.`.$X&X&X#X`.>.^ U g.k.j.b.C.2.,.@.g @     sXsXsXsXsXsXsXsXsXsXsXsXsXsX",
"sXsXsXsXsXsXsXsXsXsXsXsXsXsX    : b #.E.!.2.V.W T T R ^ >.`.3X&X&X3X`.i.%.R T g.l.V.2.!.W.#.v +     sXsXsXsXsXsXsXsXsXsXsXsXsXsX",
"sXsXsXsXsXsXsXsXsXsXsXsXsXsX    : M t.(._.p.;.( R ( ) ;.W.].3X&X&X3X`.W.-.) R R ( $.f._.(.t.m 9     sXsXsXsXsXsXsXsXsXsXsXsXsXsX",
"sXsXsXsXsXsXsXsXsXsXsXsXsXsX    9 { H. X.XW.,.$._ %.:.f._. X-X%X%X3X X_.f.:._ _ $.,.Q.}. XH.{ >     sXsXsXsXsXsXsXsXsXsXsXsXsXsX",
"sXsXsXsXsXsXsXsX                > [ K.OX>X'.W.,.,.1.s._.}.=X-X$X$X2X X}._.!.1.,.>.i.{.>XOXK.[ 9                 sXsXsXsXsXsXsXsX",
"sXsXsXsXsXsXsX                  3 | L.-X9X.XQ.E.E.W._.{.|.=X$X$X$X-X:X|.}.(.W.W.E.)..X9X-XL.| :                   sXsXsXsXsXsXsX",
"sXsXsXsXsXsXsX      @ @ .       >  .L.-X5X;X].)./././.`.[.*X#X$X3X-X*X X(.^./.E.).|.;X5X-XI.| 3       . + @       sXsXsXsXsXsXsX",
"sXsXsXsXsXsXsXsX  . , y y 0 #   : } L.3XqXwX;X`.H.t.9.q.P.XX6XqXqX6X XL.q.9.t.H.[.:X5XqX2XL.3.O   # 0 y y , .   sXsXsXsXsXsXsXsX",
"sXsXsXsXsXsXsXsXsX, j ! Q u $   : } J.#XqXuX5XY.e.[ M [ w.Y.5XiXuXqXY.w.{ v ..e. X4XuXrX$XJ.} O   0 u Q ! j , sXsXsXsXsXsXsXsXsX",
"sXsXsXsXsXsXsXsXsXsXsX*._ P q . O { J.-XyXiXqXY.9.a   3 | I.5XiXiXqXL.| 2   a 9.Y.qXiXyX*XG.] O . q P _ *.sXsXsXsXsXsXsXsXsXsXsX",
"sXsXsXsXsXsXsXsXsXsXsXZ.&.Q 0   O ] S.:XuXaXrXT.3.O     v H.9XuXuX2XD.v     O 8.T.yXaXuX:XS.{ O   0 Q *.Z.sXsXsXsXsXsXsXsXsXsXsX",
"sXsXsXsXsXsXsXsXsXsXsXsXsXP #   O m e.>XpXaXuXT.3.      d t.oXeXwX+Xe.d       3.T.rXaXpX>Xe.m O   # P sXsXsXsXsXsXsXsXsXsXsXsXsX",
"sXsXsXsXsXsXsXsXsXsXsXsXsXsX    O b 0..XeXpXrXT.8.:     g 0.}.0X0X}.0.d     : 8.XXrXaXeX.X0.b :     sXsXsXsXsXsXsXsXsXsXsXsXsXsX",
"sXsXsXsXsXsXsXsXsXsXsXsXsXsX    O g +.E.+X8X7XXXw.c O > A r.{.@X@X'.a.A > O x w.XX7X8X.XE.+.g o     sXsXsXsXsXsXsXsXsXsXsXsXsXsX",
"sXsXsXsXsXsXsXsXsXsXsXsXsXsXsXsX+ d A +.E.[.,X=XI.y.{ { 9./.].+X>X].H.9.{ { 9.I.=X<X}.F.O.A d + sXsXsXsXsXsXsXsXsXsXsXsXsXsXsXsX",
"sXsXsXsXsXsXsXsXsXsXsXsXsXsXsXsXsX@ O s ..r.}.<XoXU.G.G.L.Y.OX=X>XOXY.L.D.G.I.+X<X}.r.[ s @ @ sXsXsXsXsXsXsXsXsXsXsXsXsXsXsXsXsX",
"sXsXsXsXsXsXsXsXsXsXsXsXsXsXsXsXsXsX    s o./..X>X:X*XXX*X-X:X:X-X:X-X#XXX*X;X<X.XE.o.s     sXsXsXsXsXsXsXsXsXsXsXsXsXsXsXsXsXsX",
"sXsXsXsXsXsXsXsXsXsXsXsXsXsXsXsXsXsX    + b #.E..X<X4XqX5X3X-X:X:X-X3X5XqX4X<X|./.#.V >     sXsXsXsXsXsXsXsXsXsXsXsXsXsXsXsXsXsX",
"sXsXsXsXsXsXsXsXsXsXsXsXsXsXsXsXsX  X - 4 6 b o.F. X9X8X7X;XOXOX X:X;X7X8X9X[.F.o.b 6 5 * X   sXsXsXsXsXsXsXsXsXsXsXsXsXsXsXsXsX",
"sXsXsXsXsXsXsXsXsXsXsXsXsXsXsX    X i N p - + 2 [ F.].>X,X+X].`.`.].+X,X>X.XF...s @ - p N 7 X     sXsXsXsXsXsXsXsXsXsXsXsXsXsXsX",
"sXsXsXsXsXsXsXsXsXsXsXsXsXsX    O 8 B S p %     d 0.Q.{.{.(.^.^.^.^._.{.{.E.#.l     % N S B 6 o     sXsXsXsXsXsXsXsXsXsXsXsXsXsX",
"sXsXsXsXsXsXsXsXsXsXsXsXsX1 a l v b A B 7 %     7 o.d.s.s.a.a.a.a.a.a.E.s.d.o.d     % 5 B A b v l a 1 sXsXsXsXsXsXsXsXsXsXsXsXsX",
"sXsXsXsXsXsXsXsXsXsXsXsX  l  .y.y.7.M 5 % X % 6 V D 5.u.u.u.5.5.5.5.u.u.u.+.X.V 5 % X X 5 M 9.y.y. .l   sXsXsXsXsXsXsXsXsXsXsXsX",
"sXsXsXsXsXsXsXsXsXsXsX    n q.Y.XXS.m     # p B S S D D D S D D S G S D D D D S B i X   . m S.T.Y.q.n     sXsXsXsXsXsXsXsXsXsXsX",
"sXsXsXsXsXsXsXsXsXsXsX    m K.5XrXL.x     % B F G B p i p p p p p p p p i p B G X.B %     ' I.qX5XK.m     sXsXsXsXsXsXsXsXsXsXsX",
"sXsXsXsXsXsXsXsXsXsXsX    m K.5XrXR.x     % Z X.D p * X X - 5 5 5 4 - X X * p D F C -     x R.rXqXK.m     sXsXsXsXsXsXsXsXsXsXsX",
"sXsXsXsXsXsXsXsXsXsXsX    m K.3X6XJ.x     ; Z F B 5         X 9 9 X X       4 B F C ;     x J.6X1XG.m     sXsXsXsXsXsXsXsXsXsXsX",
"sXsXsXsXsXsXsXsXsXsXsX    n S.*X:XD.x     ; Z F B 4                         4 B F Z ;     n D.:X*XS.m     sXsXsXsXsXsXsXsXsXsXsX",
"sXsXsXsXsXsXsXsXsXsXsX    v S.OX=XD.n   . ; B F D 7 >                     + f S F C ; .   n D.=XOXe.v     sXsXsXsXsXsXsXsXsXsXsX",
"sXsXsXsXsXsXsXsXsXsX      v e.|.>XF.b     - B F F B z 4 @             @ 4 p B F F B -     v F.>X.Xe.v       sXsXsXsXsXsXsXsXsXsX",
"sXsXsXsXsXsXsXsXsXsXsX    g 0.{..Xr.h     - B F 4.F B 7 4             4 z B F 4.F B -     h e..X{.0.h     sXsXsXsXsXsXsXsXsXsXsX",
"sXsXsXsXsXsXsXsXsXsXsX    g 6.a.E.O.s     - C F 4.G C N 8 + @       * 6 V B S -.F B ;     s O.E.E.7.g     sXsXsXsXsXsXsXsXsXsXsX",
"sXsXsXsXsXsXsXsXsXsXsXsX  s [ o...b :   X 7 C G G C N i 8 8 5 5 6 6 6 7 7 p B F F Z 7     : h ..o.A d   sXsXsXsXsXsXsXsXsXsXsXsX",
"sXsXsXsXsXsXsXsXsXsXsXsXsX2 6 s 2 :     + p S G C i , * 4 N B B B B N 6 9 9 7 B G S N +     : 2 d d < sXsXsXsXsXsXsXsXsXsXsXsXsX",
"sXsXsXsXsXsXsXsXsXsXsXsXsXsX            + p C C i +     4 N Z G D Z N 9 X   + N C C N +             sXsXsXsXsXsXsXsXsXsXsXsXsXsX",
"sXsXsXsXsXsXsXsXsXsXsXsXsXsXsX          9 6 z z <       O 7 B S G B 7 +       9 7 p 6 9           sXsXsXsXsXsXsXsXsXsXsXsXsXsXsX",
"sXsXsXsXsXsXsXsXsXsXsXsXsXsXsXsX        O O 3 3 O         4 7 p p 7 <           O 9 9           sXsXsXsXsXsXsXsXsXsXsXsXsXsXsXsX",
"sXsXsXsXsXsXsXsXsXsXsXsXsXsXsXsXsXsX                      O X + + + X                       sXsXsXsXsXsXsXsXsXsXsXsXsXsXsXsXsXsX",
"sXsXsXsXsXsXsXsXsXsXsXsXsXsXsXsXsXsX        . . . . . .                 . @ . . X           sXsXsXsXsXsXsXsXsXsXsXsXsXsXsXsXsXsX",
"sXsXsXsXsXsXsXsXsXsXsXsXsXsXsXsXsXsX@   . # e H J H H e $             & y y u j y 0 &       sXsXsXsXsXsXsXsXsXsXsXsXsXsXsXsXsXsX",
"sXsXsXsXsXsXsXsXsXsXsXsXsXsXsXsXsXsX    # r L g.k.k.T Y r #         . y u / ^ ^ / j y o     sXsXsXsXsXsXsXsXsXsXsXsXsXsXsXsXsXsX",
"sXsXsXsXsXsXsXsXsXsXsXsXsXsXsXsXsXsX    $ J h.v.B.v.j.T J $         & u / _ &.&.*./ u &     sXsXsXsXsXsXsXsXsXsXsXsXsXsXsXsXsXsX",
"sXsXsXsXsXsXsXsXsXsXsXsXsXsXsXsXsXsX    0 J l.v.N.B.v.l.J #         = j ^ *.V.V.&.^ j =     sXsXsXsXsXsXsXsXsXsXsXsXsXsXsXsXsXsX",
"sXsXsXsXsXsXsXsXsXsXsXsXsXsXsXsXsXsX    = P ` b.M.M.m.` t &       sXsXsXsXsXsXsXsXsXsXsXsXsXsXsXsXsXsXsXsXsXsXsXsXsXsXsXsXsXsXsX",
"sXsXsXsXsXsXsXsXsXsXsXsXsXsXsXsXsXsX    & u ` ) V.b.) ~ u &     sXsXsXsXsXsXsXsXsXsXsXsXsXsXsXsXsXsXsXsXsXsXsXsXsXsXsXsXsXsXsXsX",
"sXsXsXsXsXsXsXsXsXsXsXsXsXsXsXsXsXsX    & u / =.*.*._ / y o     sXsXsXsXsXsXsXsXsXsXsXsXsXsXsXsXsXsXsXsXsXsXsXsXsXsXsXsXsXsXsXsX",
"sXsXsXsXsXsXsXsXsXsXsXsXsXsXsXsXsXsX    & y ! $.=.=.$.! y o     sXsXsXsXsXsXsXsXsXsXsXsXsXsXsXsXsXsXsXsXsXsXsXsXsXsXsXsXsXsXsXsX"
};
