/* XPM */
static char * l1_xpm[] = {
"64 64 374 2",
"  	c None",
". 	c #F4D44C",
"+ 	c #DA975E",
"@ 	c #D8935F",
"# 	c #D89260",
"$ 	c #DC9B5D",
"% 	c #E3AC58",
"& 	c #DA965E",
"* 	c #F2CF4E",
"= 	c #EBBE54",
"- 	c #D58B61",
"; 	c #D9935F",
"> 	c #DA985E",
", 	c #E4AE56",
"' 	c #D9955F",
") 	c #E7B450",
"! 	c #FFF738",
"~ 	c #EBBE53",
"{ 	c #D68C61",
"] 	c #FFF246",
"^ 	c #FDE944",
"/ 	c #FCEA68",
"( 	c #F8E27B",
"_ 	c #F6D941",
": 	c #DDA25C",
"< 	c #FCF187",
"[ 	c #FFF79B",
"} 	c #FFF049",
"| 	c #FDED6B",
"1 	c #F1C84A",
"2 	c #EBB05C",
"3 	c #7F792A",
"4 	c #FFFA90",
"5 	c #FEF7B9",
"6 	c #FEEC53",
"7 	c #FFF537",
"8 	c #E4C04F",
"9 	c #946152",
"0 	c #D4C63E",
"a 	c #FFF64D",
"b 	c #FEFDF5",
"c 	c #FBEE78",
"d 	c #FFFF3E",
"e 	c #BBAF40",
"f 	c #0B142C",
"g 	c #D9945F",
"h 	c #D7935E",
"i 	c #ED9F65",
"j 	c #E7D637",
"k 	c #FFFA8E",
"l 	c #FCFCFD",
"m 	c #FFFA46",
"n 	c #D4C63F",
"o 	c #444532",
"p 	c #817B29",
"q 	c #FFFFA9",
"r 	c #FFFFFF",
"s 	c #D9CC45",
"t 	c #36382E",
"u 	c #203140",
"v 	c #1A2435",
"w 	c #353337",
"x 	c #EAD49D",
"y 	c #FFFCCA",
"z 	c #9D946E",
"A 	c #111323",
"B 	c #1F384D",
"C 	c #41838A",
"D 	c #1E2B39",
"E 	c #645E56",
"F 	c #A39375",
"G 	c #E4D09A",
"H 	c #5D5752",
"I 	c #1B202F",
"J 	c #32473A",
"K 	c #253234",
"L 	c #0F0B1D",
"M 	c #141629",
"N 	c #2D3F57",
"O 	c #4FA2A5",
"P 	c #4FA4AB",
"Q 	c #31575E",
"R 	c #484646",
"S 	c #57504A",
"T 	c #7B6C5B",
"U 	c #867660",
"V 	c #071027",
"W 	c #417A47",
"X 	c #53814A",
"Y 	c #030021",
"Z 	c #283349",
"` 	c #2B5264",
" .	c #20384A",
"..	c #393D63",
"+.	c #52959D",
"@.	c #4BA1A8",
"#.	c #468586",
"$.	c #101028",
"%.	c #141A2E",
"&.	c #161D2E",
"*.	c #1D2031",
"=.	c #484147",
"-.	c #1B2031",
";.	c #36353C",
">.	c #307141",
",.	c #1E2C33",
"'.	c #151E30",
").	c #323A5B",
"!.	c #47698D",
"~.	c #3B7F90",
"{.	c #335870",
"].	c #406485",
"^.	c #418F9D",
"/.	c #1D2D41",
"(.	c #2B4D39",
"_.	c #70A354",
":.	c #1F2731",
"<.	c #3A373F",
"[.	c #8D7267",
"}.	c #3E3942",
"|.	c #1D3639",
"1.	c #374068",
"2.	c #3C6F86",
"3.	c #2E6071",
"4.	c #2B3451",
"5.	c #415278",
"6.	c #417E95",
"7.	c #3B7A8E",
"8.	c #325365",
"9.	c #2A734D",
"0.	c #71DC5E",
"a.	c #719B52",
"b.	c #0C102A",
"c.	c #52494B",
"d.	c #806A61",
"e.	c #252736",
"f.	c #364065",
"g.	c #485881",
"h.	c #43547B",
"i.	c #41748F",
"j.	c #3B8494",
"k.	c #3E748C",
"l.	c #407A92",
"m.	c #3A7887",
"n.	c #386259",
"o.	c #44BC59",
"p.	c #7EBA5A",
"q.	c #263135",
"r.	c #1E4D38",
"s.	c #252536",
"t.	c #2E2A3B",
"u.	c #10172B",
"v.	c #0F172E",
"w.	c #2B3452",
"x.	c #292E4F",
"y.	c #2E3257",
"z.	c #405076",
"A.	c #43718E",
"B.	c #3F8899",
"C.	c #3B8295",
"D.	c #38626A",
"E.	c #3D8763",
"F.	c #51C057",
"G.	c #283231",
"H.	c #24563C",
"I.	c #266C41",
"J.	c #45543E",
"K.	c #66934E",
"L.	c #19202F",
"M.	c #2C4639",
"N.	c #5F9C50",
"O.	c #2D8542",
"P.	c #297E40",
"Q.	c #1D4133",
"R.	c #1E223C",
"S.	c #2F3456",
"T.	c #405C7D",
"U.	c #3B788D",
"V.	c #223241",
"W.	c #418565",
"X.	c #2A6E38",
"Y.	c #223348",
"Z.	c #1F303C",
"`.	c #161F2F",
" +	c #28513B",
".+	c #68C65A",
"++	c #56BA56",
"@+	c #1A2631",
"#+	c #0F0C2A",
"$+	c #315B3E",
"%+	c #8FE464",
"&+	c #81DC61",
"*+	c #38BB54",
"=+	c #3EC956",
"-+	c #39B753",
";+	c #3C6B60",
">+	c #21333B",
",+	c #24334A",
"'+	c #3F8699",
")+	c #38778A",
"!+	c #438889",
"~+	c #3F8775",
"{+	c #58AEAD",
"]+	c #3A6D70",
"^+	c #15122E",
"/+	c #1D4B38",
"(+	c #34C454",
"_+	c #257242",
":+	c #1C3534",
"<+	c #2E8947",
"[+	c #308346",
"}+	c #2E6941",
"|+	c #20543B",
"1+	c #1B3C33",
"2+	c #2A6C43",
"3+	c #3D8C5E",
"4+	c #417268",
"5+	c #2B454A",
"6+	c #1D2A38",
"7+	c #387688",
"8+	c #408C9E",
"9+	c #4795A1",
"0+	c #52A6AC",
"a+	c #5AB8B5",
"b+	c #3B6E73",
"c+	c #151D2F",
"d+	c #2C2C39",
"e+	c #26493A",
"f+	c #1C3734",
"g+	c #1A2C32",
"h+	c #214D39",
"i+	c #13152C",
"j+	c #140E2D",
"k+	c #2F4950",
"l+	c #314B53",
"m+	c #3F6867",
"n+	c #43736A",
"o+	c #263C42",
"p+	c #151A2E",
"q+	c #3D8194",
"r+	c #3E8497",
"s+	c #3C8195",
"t+	c #3C8391",
"u+	c #315A63",
"v+	c #182032",
"w+	c #141A2D",
"x+	c #202433",
"y+	c #6B5A57",
"z+	c #1A192F",
"A+	c #335754",
"B+	c #477E71",
"C+	c #43776A",
"D+	c #39645B",
"E+	c #293C49",
"F+	c #364A6A",
"G+	c #3F7E93",
"H+	c #3E8295",
"I+	c #3F6D87",
"J+	c #364C6B",
"K+	c #20233E",
"L+	c #131829",
"M+	c #222533",
"N+	c #14132B",
"O+	c #212742",
"P+	c #2A3B4D",
"Q+	c #3B6A5F",
"R+	c #324D55",
"S+	c #2F3E57",
"T+	c #373C64",
"U+	c #426F8B",
"V+	c #3D8A99",
"W+	c #3D8596",
"X+	c #3D8193",
"Y+	c #43899E",
"Z+	c #2D4F64",
"`+	c #214E39",
" @	c #2C6D46",
".@	c #181D32",
"+@	c #141A2B",
"@@	c #1A2135",
"#@	c #3A486E",
"$@	c #44567B",
"%@	c #394D68",
"&@	c #424D78",
"*@	c #47557F",
"=@	c #434E76",
"-@	c #416283",
";@	c #4291A2",
">@	c #418EA0",
",@	c #4290A2",
"'@	c #3F8A9B",
")@	c #1E3446",
"!@	c #182330",
"~@	c #34A94C",
"{@	c #46C566",
"]@	c #2A4149",
"^@	c #111227",
"/@	c #1C2334",
"(@	c #2E354B",
"_@	c #283049",
":@	c #2C334E",
"<@	c #24314E",
"[@	c #29375B",
"}@	c #3B4A73",
"|@	c #344162",
"1@	c #274D5F",
"2@	c #295163",
"3@	c #295164",
"4@	c #284C5F",
"5@	c #161C2E",
"6@	c #22533A",
"7@	c #295A44",
"8@	c #1F2A3A",
"9@	c #222534",
"0@	c #2F2D37",
"a@	c #524747",
"b@	c #5C4E4C",
"c@	c #312E36",
"d@	c #54494B",
"e@	c #51474E",
"f@	c #746558",
"g@	c #876F59",
"h@	c #88715A",
"i@	c #7D6656",
"j@	c #7A6555",
"k@	c #171C2F",
"l@	c #11182C",
"m@	c #121A2D",
"n@	c #3B3841",
"o@	c #2F2E3A",
"p@	c #38353F",
"q@	c #4F464A",
"r@	c #3A3740",
"s@	c #232736",
"t@	c #292B39",
"u@	c #292837",
"v@	c #272636",
"w@	c #262535",
"x@	c #161B2D",
"y@	c #413B42",
"z@	c #50464B",
"A@	c #1E2232",
"B@	c #665653",
"C@	c #1E263B",
"D@	c #2D3C62",
"E@	c #3A4A73",
"F@	c #3F4D76",
"G@	c #3C5479",
"H@	c #3B6986",
"I@	c #3E6E8B",
"J@	c #365F7A",
"K@	c #192335",
"L@	c #302F3A",
"M@	c #38353E",
"N@	c #2A2B39",
"O@	c #212A42",
"P@	c #28314B",
"Q@	c #2D3654",
"R@	c #26364D",
"S@	c #234555",
"T@	c #284E5F",
"U@	c #224050",
"V@	c #1B2A3C",
"W@	c #171D2F",
"X@	c #10182B",
"Y@	c #131225",
"Z@	c #121022",
"`@	c #171D2E",
" #	c #171C2E",
".#	c #181D2F",
"+#	c #161D2F",
"@#	c #171D30",
"##	c #171E30",
"$#	c #171F31",
"                                                                                                                                ",
"                                                                                                                                ",
"                                                                                                                                ",
"                                                                                                                                ",
"                                                                                                                                ",
"                                                                                                                                ",
"                                                                                                                                ",
"                                                                                                                                ",
"                                                                                                                                ",
"                                                                                                                                ",
"                                                                                          . + @                                 ",
"                                                                                      # $ % & * = -                             ",
"                                                                                      ; > , ' ) ! ~ {                           ",
"                                                                                          ] ^ / ( _ :                           ",
"                                                                                          < [ } | 1 2                           ",
"                                                                                        3 4 5 6 7 8 9                           ",
"                                                                                        0 a b c d e f                           ",
"                                                                                g h i   j k l m n o                             ",
"                                                                                        p q r s t                               ",
"                                                                          u v           w x y z                                 ",
"                                                                      A B C D           E F G H I                               ",
"                                                          J K     L M N O P Q           R S T U V                               ",
"                                                          W X Y Z `  ...+.@.#.$.%.&.    *.=.-.;.                                ",
"                                                          >.,.'.).!.~.{.].^./.(._.:.    <.[.}.                                  ",
"                                                          |.1.2.3.4.5.6.7.8.9.0.a.b.    c.d.e.                                  ",
"                                                          f.g.h.i.j.k.l.m.n.o.p.q.    r.s.t.u.                                  ",
"                                                        v.w.x.y.z.A.B.C.D.E.F.G.    H.I.J.K.L.                                  ",
"                                                      M.N.O.P.Q.R.S.T.U.V.W.X.Y.Z.  `. +.+++@+                                  ",
"                                                  #+$+%+&+*+=+-+;+>+,+'+)+!+~+{+]+  ^+/+(+_+                                    ",
"                                                :+<+[+}+|+1+2+3+4+5+6+7+8+9+0+a+b+  c+d+e+f+                                    ",
"                                                g+h+i+  j+k+l+m+n+o+p+q+r+s+t+u+v+w+x+y+z+                                      ",
"                                                          A+B+C+D+E+F+G+H+I+J+K+L+    M+                                        ",
"                                                N+      O+P+Q+R+S+T+U+V+W+X+Y+Z+                                                ",
"                                              `+ @.@+@@@#@$@%@&@*@=@-@;@>@,@'@)@                                                ",
"                                            !@~@{@]@^@/@(@_@:@<@[@}@|@1@2@3@4@5@                                                ",
"                                              6@7@8@  9@0@a@b@c@d@e@f@g@h@i@j@k@                                                ",
"                                                      l@m@n@o@p@q@r@s@t@u@v@w@x@                                                ",
"                                                      y@z@A@B@C@D@E@F@G@H@I@J@K@                                                ",
"                                                      L@9@u.M@N@O@P@Q@R@S@T@U@V@                                                ",
"                                                    W@X@                Y@Z@                                                    ",
"                                                    5@`@ #5@.#W@+#@#@#####$#                                                    ",
"                                                5@5@5@5@5@5@5@5@5@5@5@5@5@5@5@5@                                                ",
"                                                5@5@5@5@5@5@5@5@5@5@5@5@5@5@5@5@                                                ",
"                                                    5@5@5@5@5@5@5@5@5@5@5@5@                                                    ",
"                                                                                                                                ",
"                                                                                                                                ",
"                                                                                                                                ",
"                                                                                                                                ",
"                                                                                                                                ",
"                                                                                                                                ",
"                                                                                                                                ",
"                                                                                                                                ",
"                                                                                                                                ",
"                                                                                                                                ",
"                                                                                                                                ",
"                                                                                                                                ",
"                                                                                                                                ",
"                                                                                                                                ",
"                                                                                                                                ",
"                                                                                                                                ",
"                                                                                                                                ",
"                                                                                                                                ",
"                                                                                                                                ",
"                                                                                                                                "};
