/* XPM */
static char * l2_xpm[] = {
"64 64 374 2",
"  	c None",
". 	c #D9945F",
"+ 	c #DA965E",
"@ 	c #D78E61",
"# 	c #F4D24C",
"$ 	c #EDC351",
"% 	c #D78F60",
"& 	c #FEEA45",
"* 	c #F5D54B",
"= 	c #EDC451",
"- 	c #D89160",
"; 	c #D6905F",
"> 	c #FFF542",
", 	c #FAE247",
"' 	c #E0A45A",
") 	c #E2A958",
"! 	c #F2CF4D",
"~ 	c #D9955F",
"{ 	c #FFF140",
"] 	c #FFF043",
"^ 	c #F4D44C",
"/ 	c #E3AD58",
"( 	c #D79060",
"_ 	c #ECC052",
": 	c #EFC750",
"< 	c #D58A62",
"[ 	c #B2A52F",
"} 	c #FFFC81",
"| 	c #F5DB5C",
"1 	c #D8925B",
"2 	c #D79061",
"3 	c #D89260",
"4 	c #DFA15B",
"5 	c #DB995E",
"6 	c #857F36",
"7 	c #FFFF59",
"8 	c #F0D050",
"9 	c #D8925F",
"0 	c #DA965F",
"a 	c #898233",
"b 	c #FFFF6B",
"c 	c #F6DE56",
"d 	c #E5B155",
"e 	c #9E7466",
"f 	c #908726",
"g 	c #FFFFB5",
"h 	c #F7F2CC",
"i 	c #FFEB37",
"j 	c #978A40",
"k 	c #5B5823",
"l 	c #F3E879",
"m 	c #FFFFFF",
"n 	c #FFFF79",
"o 	c #B3A936",
"p 	c #0F1531",
"q 	c #978B40",
"r 	c #FFFFCB",
"s 	c #FFFDD6",
"t 	c #9D9533",
"u 	c #203140",
"v 	c #1A2535",
"w 	c #2F2E37",
"x 	c #DCC698",
"y 	c #FFF0B0",
"z 	c #A4987A",
"A 	c #0F1629",
"B 	c #111323",
"C 	c #1F384D",
"D 	c #41838A",
"E 	c #1E2B39",
"F 	c #655F56",
"G 	c #A79776",
"H 	c #E5D29E",
"I 	c #5B564F",
"J 	c #181D2F",
"K 	c #32473A",
"L 	c #253234",
"M 	c #0F0B1D",
"N 	c #141629",
"O 	c #2D3F57",
"P 	c #4FA2A5",
"Q 	c #4FA4AB",
"R 	c #31575E",
"S 	c #484646",
"T 	c #575049",
"U 	c #7A6C5A",
"V 	c #877660",
"W 	c #081027",
"X 	c #417A47",
"Y 	c #53814A",
"Z 	c #030021",
"` 	c #283349",
" .	c #2B5264",
"..	c #20384A",
"+.	c #393D63",
"@.	c #52959D",
"#.	c #4BA1A8",
"$.	c #468586",
"%.	c #101028",
"&.	c #141A2E",
"*.	c #161D2E",
"=.	c #1D2031",
"-.	c #484147",
";.	c #1B2031",
">.	c #36353C",
",.	c #307141",
"'.	c #1E2C33",
").	c #151E30",
"!.	c #323A5B",
"~.	c #47698D",
"{.	c #3B7F90",
"].	c #335870",
"^.	c #406485",
"/.	c #418F9D",
"(.	c #1D2D41",
"_.	c #2B4D39",
":.	c #70A354",
"<.	c #1F2731",
"[.	c #3A373F",
"}.	c #8D7267",
"|.	c #3E3942",
"1.	c #1D3639",
"2.	c #374068",
"3.	c #3C6F86",
"4.	c #2E6071",
"5.	c #2B3451",
"6.	c #415278",
"7.	c #417E95",
"8.	c #3B7A8E",
"9.	c #325365",
"0.	c #2A734D",
"a.	c #71DC5E",
"b.	c #719B52",
"c.	c #0C102A",
"d.	c #52494B",
"e.	c #806A61",
"f.	c #252736",
"g.	c #364065",
"h.	c #485881",
"i.	c #43547B",
"j.	c #41748F",
"k.	c #3B8494",
"l.	c #3E748C",
"m.	c #407A92",
"n.	c #3A7887",
"o.	c #386259",
"p.	c #44BC59",
"q.	c #7EBA5A",
"r.	c #263135",
"s.	c #1E4D38",
"t.	c #252536",
"u.	c #2E2A3B",
"v.	c #10172B",
"w.	c #0F172E",
"x.	c #2B3452",
"y.	c #292E4F",
"z.	c #2E3257",
"A.	c #405076",
"B.	c #43718E",
"C.	c #3F8899",
"D.	c #3B8295",
"E.	c #38626A",
"F.	c #3D8763",
"G.	c #51C057",
"H.	c #283231",
"I.	c #24563C",
"J.	c #266C41",
"K.	c #45543E",
"L.	c #66934E",
"M.	c #19202F",
"N.	c #2C4639",
"O.	c #5F9C50",
"P.	c #2D8542",
"Q.	c #297E40",
"R.	c #1D4133",
"S.	c #1E223C",
"T.	c #2F3456",
"U.	c #405C7D",
"V.	c #3B788D",
"W.	c #223241",
"X.	c #418565",
"Y.	c #2A6E38",
"Z.	c #223348",
"`.	c #1F303C",
" +	c #161F2F",
".+	c #28513B",
"++	c #68C65A",
"@+	c #56BA56",
"#+	c #1A2631",
"$+	c #0F0C2A",
"%+	c #315B3E",
"&+	c #8FE464",
"*+	c #81DC61",
"=+	c #38BB54",
"-+	c #3EC956",
";+	c #39B753",
">+	c #3C6B60",
",+	c #21333B",
"'+	c #24334A",
")+	c #3F8699",
"!+	c #38778A",
"~+	c #438889",
"{+	c #3F8775",
"]+	c #58AEAD",
"^+	c #3A6D70",
"/+	c #15122E",
"(+	c #1D4B38",
"_+	c #34C454",
":+	c #257242",
"<+	c #1C3534",
"[+	c #2E8947",
"}+	c #308346",
"|+	c #2E6941",
"1+	c #20543B",
"2+	c #1B3C33",
"3+	c #2A6C43",
"4+	c #3D8C5E",
"5+	c #417268",
"6+	c #2B454A",
"7+	c #1D2A38",
"8+	c #387688",
"9+	c #408C9E",
"0+	c #4795A1",
"a+	c #52A6AC",
"b+	c #5AB8B5",
"c+	c #3B6E73",
"d+	c #151D2F",
"e+	c #2C2C39",
"f+	c #26493A",
"g+	c #1C3734",
"h+	c #1A2C32",
"i+	c #214D39",
"j+	c #13152C",
"k+	c #140E2D",
"l+	c #2F4950",
"m+	c #314B53",
"n+	c #3F6867",
"o+	c #43736A",
"p+	c #263C42",
"q+	c #151A2E",
"r+	c #3D8194",
"s+	c #3E8497",
"t+	c #3C8195",
"u+	c #3C8391",
"v+	c #315A63",
"w+	c #182032",
"x+	c #141A2D",
"y+	c #202433",
"z+	c #6B5A57",
"A+	c #1A192F",
"B+	c #335754",
"C+	c #477E71",
"D+	c #43776A",
"E+	c #39645B",
"F+	c #293C49",
"G+	c #364A6A",
"H+	c #3F7E93",
"I+	c #3E8295",
"J+	c #3F6D87",
"K+	c #364C6B",
"L+	c #20233E",
"M+	c #131829",
"N+	c #222533",
"O+	c #14132B",
"P+	c #212742",
"Q+	c #2A3B4D",
"R+	c #3B6A5F",
"S+	c #324D55",
"T+	c #2F3E57",
"U+	c #373C64",
"V+	c #426F8B",
"W+	c #3D8A99",
"X+	c #3D8596",
"Y+	c #3D8193",
"Z+	c #43899E",
"`+	c #2D4F64",
" @	c #214E39",
".@	c #2C6D46",
"+@	c #181D32",
"@@	c #141A2B",
"#@	c #1A2135",
"$@	c #3A486E",
"%@	c #44567B",
"&@	c #394D68",
"*@	c #424D78",
"=@	c #47557F",
"-@	c #434E76",
";@	c #416283",
">@	c #4291A2",
",@	c #418EA0",
"'@	c #4290A2",
")@	c #3F8A9B",
"!@	c #1E3446",
"~@	c #182330",
"{@	c #34A94C",
"]@	c #46C566",
"^@	c #2A4149",
"/@	c #111227",
"(@	c #1C2334",
"_@	c #2E354B",
":@	c #283049",
"<@	c #2C334E",
"[@	c #24314E",
"}@	c #29375B",
"|@	c #3B4A73",
"1@	c #344162",
"2@	c #274D5F",
"3@	c #295163",
"4@	c #295164",
"5@	c #284C5F",
"6@	c #161C2E",
"7@	c #22533A",
"8@	c #295A44",
"9@	c #1F2A3A",
"0@	c #222534",
"a@	c #2F2D37",
"b@	c #524747",
"c@	c #5C4E4C",
"d@	c #312E36",
"e@	c #54494B",
"f@	c #51474E",
"g@	c #746558",
"h@	c #876F59",
"i@	c #88715A",
"j@	c #7D6656",
"k@	c #7A6555",
"l@	c #171C2F",
"m@	c #11182C",
"n@	c #121A2D",
"o@	c #3B3841",
"p@	c #2F2E3A",
"q@	c #38353F",
"r@	c #4F464A",
"s@	c #3A3740",
"t@	c #232736",
"u@	c #292B39",
"v@	c #292837",
"w@	c #272636",
"x@	c #262535",
"y@	c #161B2D",
"z@	c #413B42",
"A@	c #50464B",
"B@	c #1E2232",
"C@	c #665653",
"D@	c #1E263B",
"E@	c #2D3C62",
"F@	c #3A4A73",
"G@	c #3F4D76",
"H@	c #3C5479",
"I@	c #3B6986",
"J@	c #3E6E8B",
"K@	c #365F7A",
"L@	c #192335",
"M@	c #302F3A",
"N@	c #38353E",
"O@	c #2A2B39",
"P@	c #212A42",
"Q@	c #28314B",
"R@	c #2D3654",
"S@	c #26364D",
"T@	c #234555",
"U@	c #284E5F",
"V@	c #224050",
"W@	c #1B2A3C",
"X@	c #171D2F",
"Y@	c #10182B",
"Z@	c #131225",
"`@	c #121022",
" #	c #171D2E",
".#	c #171C2E",
"+#	c #161D2F",
"@#	c #171D30",
"##	c #171E30",
"$#	c #171F31",
"                                                                                                                                ",
"                                                                                                                                ",
"                                                                                                                                ",
"                                                                                                                                ",
"                                                                                                                                ",
"                                                                                                                                ",
"                                                                                                                                ",
"                                                                                                                                ",
"                                                                                            . + + @                             ",
"                                                                                                # $ %                           ",
"                                                                                                & * = -                         ",
"                                                                                        ;   > , ' ) ! ~                         ",
"                                                                                          { ] ^ / ( _ : <                       ",
"                                                                                        [ } | 1 2 3 4 5                         ",
"                                                                                        6 7 8 9 0                               ",
"                                                                                        a b c d                                 ",
"                                                                                e       f g h i j                               ",
"                                                                                        k l m n o p                             ",
"                                                                                          q r s t                               ",
"                                                                          u v           w x y z A                               ",
"                                                                      B C D E           F G H I J                               ",
"                                                          K L     M N O P Q R           S T U V W                               ",
"                                                          X Y Z `  ...+.@.#.$.%.&.*.    =.-.;.>.                                ",
"                                                          ,.'.).!.~.{.].^./.(._.:.<.    [.}.|.                                  ",
"                                                          1.2.3.4.5.6.7.8.9.0.a.b.c.    d.e.f.                                  ",
"                                                          g.h.i.j.k.l.m.n.o.p.q.r.    s.t.u.v.                                  ",
"                                                        w.x.y.z.A.B.C.D.E.F.G.H.    I.J.K.L.M.                                  ",
"                                                      N.O.P.Q.R.S.T.U.V.W.X.Y.Z.`.   +.+++@+#+                                  ",
"                                                  $+%+&+*+=+-+;+>+,+'+)+!+~+{+]+^+  /+(+_+:+                                    ",
"                                                <+[+}+|+1+2+3+4+5+6+7+8+9+0+a+b+c+  d+e+f+g+                                    ",
"                                                h+i+j+  k+l+m+n+o+p+q+r+s+t+u+v+w+x+y+z+A+                                      ",
"                                                          B+C+D+E+F+G+H+I+J+K+L+M+    N+                                        ",
"                                                O+      P+Q+R+S+T+U+V+W+X+Y+Z+`+                                                ",
"                                               @.@+@@@#@$@%@&@*@=@-@;@>@,@'@)@!@                                                ",
"                                            ~@{@]@^@/@(@_@:@<@[@}@|@1@2@3@4@5@6@                                                ",
"                                              7@8@9@  0@a@b@c@d@e@f@g@h@i@j@k@l@                                                ",
"                                                      m@n@o@p@q@r@s@t@u@v@w@x@y@                                                ",
"                                                      z@A@B@C@D@E@F@G@H@I@J@K@L@                                                ",
"                                                      M@0@v.N@O@P@Q@R@S@T@U@V@W@                                                ",
"                                                    X@Y@                Z@`@                                                    ",
"                                                    6@ #.#6@J X@+#@#@#####$#                                                    ",
"                                                6@6@6@6@6@6@6@6@6@6@6@6@6@6@6@6@                                                ",
"                                                6@6@6@6@6@6@6@6@6@6@6@6@6@6@6@6@                                                ",
"                                                    6@6@6@6@6@6@6@6@6@6@6@6@                                                    ",
"                                                                                                                                ",
"                                                                                                                                ",
"                                                                                                                                ",
"                                                                                                                                ",
"                                                                                                                                ",
"                                                                                                                                ",
"                                                                                                                                ",
"                                                                                                                                ",
"                                                                                                                                ",
"                                                                                                                                ",
"                                                                                                                                ",
"                                                                                                                                ",
"                                                                                                                                ",
"                                                                                                                                ",
"                                                                                                                                ",
"                                                                                                                                ",
"                                                                                                                                ",
"                                                                                                                                ",
"                                                                                                                                ",
"                                                                                                                                "};
