/* XPM */
static char *result[] = {
/* columns rows colors chars-per-pixel */
"64 64 222 2 ",
"   c #00A100670073",
".  c #0C8502130132",
"X  c #0D17090402C7",
"o  c #098504C80963",
"O  c #02CD09B60C75",
"+  c #0AF70A6B0BC1",
"@  c #063004380A21",
"#  c #143B007800B5",
"$  c #1D6201300291",
"%  c #11260BD2051C",
"&  c #12B003D50B33",
"*  c #122B0E9D0CF1",
"=  c #1B4407B308A1",
"-  c #142310DC0B87",
";  c #1B7F12EF0B51",
":  c #04500C7F1227",
">  c #097E0DBB1377",
",  c #1A8B081B14DD",
"<  c #038212021234",
"1  c #0AC8104F15B5",
"2  c #058F13C51CC8",
"3  c #0A6B12601B7D",
"4  c #140C13C31339",
"5  c #187716D71468",
"6  c #164B18871966",
"7  c #1C731BAC1AC5",
"8  c #1BD4195D1883",
"9  c #21CF01F903B6",
"0  c #2AF301C40370",
"q  c #2C0203630EBE",
"w  c #33D001CB01FC",
"e  c #38A0036E03A6",
"r  c #37CB04A70AF9",
"t  c #2BCB0A091E54",
"y  c #2506081F1747",
"u  c #385707841891",
"i  c #20B51E091C17",
"p  c #22B121281E1B",
"a  c #0BCC1A9327E9",
"s  c #123E16242282",
"d  c #147718472289",
"f  c #1C841CCC21AC",
"g  c #17151B292AE0",
"h  c #14031F5B3136",
"j  c #393311E32E1F",
"k  c #0F0A202A2F5E",
"l  c #17FB20E725D8",
"z  c #0C4E26123BE4",
"x  c #0E122313336A",
"c  c #14E0249C35AD",
"v  c #1B36224A3315",
"b  c #13752694388A",
"n  c #14632A133C9D",
"m  c #1C372BD33ABE",
"M  c #2469231B21DD",
"N  c #2C5C2C672C80",
"B  c #2487262C29B0",
"V  c #31132E152D32",
"C  c #32352FC22E67",
"Z  c #23A829733A2C",
"A  c #32BB334534F1",
"S  c #335334B33849",
"D  c #39F73A753BA5",
"F  c #386738233950",
"G  c #42D803B9034A",
"H  c #4BB5039C033E",
"J  c #4CF706E20B18",
"K  c #560408FC098D",
"L  c #578B031F02D9",
"P  c #43C80679154D",
"I  c #69CD00A20000",
"U  c #6E2707C50A59",
"Y  c #66D206A40868",
"T  c #780807B8092F",
"R  c #6AAB00001B4D",
"E  c #691D04031768",
"W  c #7EFC0AFD15FC",
"Q  c #4AA509D624F0",
"!  c #4A7111282F1D",
"~  c #59F8158629C1",
"^  c #47C710E3335B",
"/  c #5BE012C23A25",
"(  c #5B5D0F192962",
")  c #6B080780247C",
"_  c #63E014A33C10",
"`  c #725D0FE22E23",
"'  c #00002CBD4060",
"]  c #06BA32D547C3",
"[  c #1BAD33FC4B94",
"{  c #1723334E49FB",
"}  c #0A813C2E5446",
"|  c #1B723ACC5492",
" . c #19FA3DCF58E4",
".. c #287C330B4A39",
"X. c #39CB3BEC4079",
"o. c #2A6736AE51DF",
"O. c #2D9A3BB15A62",
"+. c #31473DA55ADA",
"@. c #2A1C2A3945E4",
"#. c #309B3E1D60B8",
"$. c #5A0A19D94557",
"%. c #670C19004702",
"&. c #74DC19C9492E",
"*. c #7AFA1ACA4497",
"=. c #6A411A71516C",
"-. c #5D522FC255E0",
";. c #658522E04C1D",
":. c #64D52CE4586F",
">. c #4EE73ED06F3C",
",. c #540734CA6243",
"<. c #57BF3BBB6905",
"1. c #58ED3C1D704E",
"2. c #7593353A6174",
"3. c #190C41F55DDD",
"4. c #3F56405641E9",
"5. c #3B6A425255D3",
"6. c #24FD42885D69",
"7. c #1B01446E632E",
"8. c #28174A306B14",
"9. c #35AD491E6B8E",
"0. c #2DB8566C7C36",
"q. c #26E152C67762",
"w. c #33CC54B57B27",
"e. c #3A8E537C7CD4",
"r. c #35FE519B7597",
"t. c #25F74E64724F",
"y. c #429648B75AA8",
"u. c #4DD149497B98",
"i. c #58EE44C57525",
"p. c #477F54BA7554",
"a. c #4B1351697712",
"s. c #66114A597C1B",
"d. c #822A013A026A",
"f. c #8553053B09B0",
"g. c #91D305170313",
"h. c #9A670AC40EB4",
"j. c #9978038205D5",
"k. c #84600C5F1479",
"l. c #8365002C1AC1",
"z. c #96BD0A9616E1",
"x. c #A7A307AA0C1F",
"c. c #A7B90A0815C8",
"v. c #B3F4100C194E",
"b. c #9AB513DA2C69",
"n. c #84A017B73CB0",
"m. c #934B109A2B4B",
"M. c #AEA4158B32BB",
"N. c #C4B70CCD0F7E",
"B. c #C71F120820E4",
"V. c #9119180841C2",
"C. c #8E4B279F4A5B",
"Z. c #A03526B8647B",
"A. c #11C95BDA8332",
"S. c #2C945D5A87BD",
"D. c #37615B448738",
"F. c #2BC3629A8DB3",
"G. c #356F60FF8C23",
"H. c #296169059892",
"J. c #3154658E92AB",
"K. c #338A6C039BFF",
"L. c #389767CF9583",
"P. c #32746E13A15E",
"I. c #3AC076B9AAA4",
"U. c #3B667C23B3F0",
"Y. c #393D7EE9B7F2",
"T. c #2DCD70EEA43A",
"R. c #49425A2084C0",
"E. c #55CC56C38995",
"W. c #4FA95DB198A9",
"Q. c #60C24EFE80F7",
"!. c #6098515686DE",
"~. c #48C0616E8E51",
"^. c #470761578D30",
"/. c #4C7C697699EE",
"(. c #488B66E7973A",
"). c #59AC62EA982E",
"_. c #46F56E88A79E",
"`. c #57C36C5AAA05",
"'. c #4BE374BDACAE",
"]. c #46A076B6ABEC",
"[. c #532D70FEA60E",
"{. c #5383749BAC68",
"}. c #4D7C7A80B485",
"|. c #48347B2DB642",
" X c #53B07B51B66F",
".X c #3E238185BB83",
"XX c #4A5F8271BDEB",
"oX c #46EF83BBBDB5",
"OX c #54548184BD9A",
"+X c #5D8C8167BE49",
"@X c #3D7087D3C429",
"#X c #3E2B96B9D7F4",
"$X c #3D449E90E18D",
"%X c #3D32A66BEA04",
"&X c #42248618C213",
"*X c #49BF85F9C391",
"=X c #43608C7FCBB4",
"-X c #4DB88CA1CD14",
";X c #473B8953C762",
":X c #53F5855CC433",
">X c #546588CAC944",
",X c #41779107CFC1",
"<X c #41F28FC8D0E1",
"1X c #434B933AD43A",
"2X c #4C5396B1DB15",
"3X c #4A9698D4DD77",
"4X c #46F2958AD8FC",
"5X c #50F69571DB71",
"6X c #56F7973DDDBC",
"7X c #519D8ED3D30F",
"8X c #609B897AC9E7",
"9X c #4B789EDFE616",
"0X c #579A9B15E11F",
"qX c #61BE9B7CE607",
"wX c #4C0BA32DEB9D",
"eX c #41BFA49BE840",
"rX c #5263A234EBDC",
"tX c #5584A907F60C",
"yX c #5501AFD4FC19",
"uX c #615EAB03F915",
"iX c #609AB6C6FFFF",
"pX c None",
/* pixels */
"pXpXpXpXpXpXpXpXpXpXpXpXpXpXpXpXpXpXpXpXpXpXpXpXpXpXpXpXpXpXpXpXpXpXpXpXpXpXpXpXpXpXpXpXpXpXpXpXpXpXpXpXpXpXpXpXpXpXpXpXpXpXpXpX",
"pXpXpXpXpXpXpXpXpXpXpXpXpXpXpXpXpXpXpXpXpXpXpXpXpXpXpXpXpXpXpXpXpXpXpXpXpXpXpXpXpXpXpXpXpXpXpXpXpXpXpXpXpXpXpXpXpXpXpXpXpXpXpXpX",
"pXpXpXpXpXpXpXpXpXpXpXpXpXpXpXpXpXpXpXpXpXpXpXpXpXpXpXpXpXpXpXpXpXpXpXpXpXpXpXpXpXpXpXpXpXpXpXpXpXpXpXpXpXpXpXpXpXpXpXpXpXpXpXpX",
"pXpXpXpXpXpXpXpXpXpXpXpXpX    pXpXpXpXpXpXpXpXpXpXpXpXpXpXpXpXpXpXpXpXpXpXpXpXpXpXpXpXpXpXpXpXpXpX    pXpXpXpXpXpXpXpXpXpXpXpXpX",
"pXpXpXpXpXpXpXpXpXpXpX            pXpXpXpXpXpXpXpXpXpXpXpXpXpXpXpXpXpXpXpXpXpXpXpXpXpXpXpXpXpX            pXpXpXpXpXpXpXpXpXpXpX",
"pXpXpXpXpXpXpXpXpXpXpX              pXpXpXpXpXpXpXpXpXpXpXpXpXpXpXpXpXpXpXpXpXpXpXpXpXpXpXpX              pXpXpXpXpXpXpXpXpXpXpX",
"pXpXpXpXpXpXpXpXpXpX      . 9 w e 0 . pXpXpXpXpXpXpXpXpXpXpXpXpXpXpXpXpXpXpXpXpXpXpXpXpXpX. 0 e e 9 #       pXpXpXpXpXpXpXpXpXpX",
"pXpXpXpXpXpXpXpXpXpX      $ G Y T J #   pXpXpXpXpXpX                        pXpXpXpXpXpX  # J T Y G $       pXpXpXpXpXpXpXpXpXpX",
"pXpXpXpXpXpXpXpXpXpXpX    0 Y h.h.Y 9     pXpXpXpX                            pXpXpXpX    9 Y h.h.Y 0     pXpXpXpXpXpXpXpXpXpXpX",
"pXpXpXpXpXpXpXpXpXpXpX    w U h.h.U r #   pXpXpXpX2 2 2 3 3 3 > > 3 1 3 2 2 2 pXpXpXpX  # e U h.h.U w     pXpXpXpXpXpXpXpXpXpXpX",
"pXpXpXpXpXpXpXpXpXpXpXpX  0 J U U U K G w # pXpX' } 3.3. .| | [ { | |  .3.3.} ' pXpX# w G K Y U Y J 0   pXpXpXpXpXpXpXpXpXpXpXpX",
"pXpXpXpXpXpXpXpXpXpXpXpXpXpX# $ r K U T I w   O ] A.T.U.I.K.J.G.G.J.K.I.Y.T.A.] O   w I W U K r $ # pXpXpXpXpXpXpXpXpXpXpXpXpXpX",
"pXpXpXpXpXpXpXpXpXpXpXpXpXpX    . G k.c.g.L # O ] F.=X9X9X5X<X=X@X<X5X0XrX<XF.] O # H g.c.k.J .     pXpXpXpXpXpXpXpXpXpXpXpXpXpX",
"pXpXpXpXpXpXpXpXpXpXpXpXpXpX      r W v.x.I w ; m D.OXqXtXrX9X9XwXwX9XtX0X+XR.Z = w I x.c.W r       pXpXpXpXpXpXpXpXpXpXpXpXpXpX",
"pXpXpXpXpXpXpXpXpXpXpXpXpXpX      q R m.z.d.I K ~ -.!.`.>X5X9XwXwXwX5X>X`.!.-.~ K I f.z.z.) q       pXpXpXpXpXpXpXpXpXpXpXpXpXpX",
"pXpXpXpXpXpXpXpXpXpXpXpXpXpX    @ , Q ` m.z.h.k.k.` =.1.W.|.1XeXeX1X|.W.1.=.` k.f.z.z.m.` ! ,       pXpXpXpXpXpXpXpXpXpXpXpXpXpX",
"pXpXpXpXpXpXpXpXpXpXpXpXpXpX    o , j $.*.b.M.x.j.d.R $.u._.=X%X%X@X_.u.$.R d.j.x.b.b.&.;.j , o     pXpXpXpXpXpXpXpXpXpXpXpXpXpX",
"pXpXpXpXpXpXpXpXpXpXpXpXpXpX    @ g @.,.2.C.b.x.j.d.E / >._.#X%X%X#X_.>./ E d.j.c.M.C.2.,.@.g @     pXpXpXpXpXpXpXpXpXpXpXpXpXpX",
"pXpXpXpXpXpXpXpXpXpXpXpXpXpX    > g #.R.Q.2.` l.T T E / i._.#X%X%X#X_.i._ R T d.l.n.C.!.R.#.c +     pXpXpXpXpXpXpXpXpXpXpXpXpXpX",
"pXpXpXpXpXpXpXpXpXpXpXpXpXpX    + { r./.).s.;.` R ) ` -.Q.].1X%X%X1X].E.-.` R E ) ;.1.)._.r.m O     pXpXpXpXpXpXpXpXpXpXpXpXpXpX",
"pXpXpXpXpXpXpXpXpXpXpXpXpXpX    + [ S.}. XE.,.$._ %.:.i.).|.<X$X$X1X|.W.i.:.;./ $.,.W.{.].G.[ +     pXpXpXpXpXpXpXpXpXpXpXpXpXpX",
"pXpXpXpXpXpXpXpX                1 | J.&X:X`.R.,.,.1.s.).{.XX=X#X#X=X*X`.).s.i.-.>.u.[.:XoXJ.| <                 pXpXpXpXpXpXpXpX",
"pXpXpXpXpXpXpX                  < | K.&X7X XW.R.R.E.).[.}.*X@X#X1X=X*X}.{.).E.u.R.(.}.7X=XK.| >                   pXpXpXpXpXpXpX",
"pXpXpXpXpXpXpX      @ @ .       1 | P.=X3X>X}.(.^.R.(._.].&X#X#X1X<X&X]./.(.~.~.(.}.-X3X,XK.| 1       . +         pXpXpXpXpXpXpX",
"pXpXpXpXpXpXpXpX  . , y t $ .   : } K.1X9X3X-X].G.r.8.w.L..X1X9XwX1X.XK.0.9.r.G.].*X3XwX=XK.} O   . 9 y y = .   pXpXpXpXpXpXpXpX",
"pXpXpXpXpXpXpXpXpX, j ! Q u 9   : } H.@XwXtX2X].0.[ b [ q.U.9XtXtX9XU.q.{ c [ 0.U.2XtXrX#XH.} <   9 u ! ^ j , pXpXpXpXpXpXpXpXpX",
"pXpXpXpXpXpXpXpXpXpXpX&._ P 0 . < ] H.=XrXyXwXU.8.a   1 | P.3XiXyX9XK.| 1   a 8.|.9XyXrX@XF.] < . 0 P _ &.pXpXpXpXpXpXpXpXpXpXpX",
"pXpXpXpXpXpXpXpXpXpXpXZ.*.Q 9   O n S.;XtXiXrXY.3.O     b G.7XtXtX1XD.b     O 3.U.tXiXtX*XF.n O   9 Q *.Z.pXpXpXpXpXpXpXpXpXpXpX",
"pXpXpXpXpXpXpXpXpXpXpXpXpXP #   O n e.:XuXiXwX.X3.      d w.OX6X0X Xr.s       7.Y.wXiXuX:Xw.n O   # P pXpXpXpXpXpXpXpXpXpXpXpXpX",
"pXpXpXpXpXpXpXpXpXpXpXpXpXpX    O c 9. XqXuXwXY.7.<     f 9.{.8X8X{.9.g     : 7..XrXuXrX{.9.v >     pXpXpXpXpXpXpXpXpXpXpXpXpXpX",
"pXpXpXpXpXpXpXpXpXpXpXpXpXpX    + g +.R.OX6X5XoXq.x O > Z e.`.+X8X[.p.Z > O z q..X5X6X X~.+.g @     pXpXpXpXpXpXpXpXpXpXpXpXpXpX",
"pXpXpXpXpXpXpXpXpXpXpXpXpXpXpXpX+ d Z O.D.'.:X*XP.t.{ { 8.L.'. X:X'.G.8.{ { 8.K.*X>X{.D.O.Z d + pXpXpXpXpXpXpXpXpXpXpXpXpXpXpXpX",
"pXpXpXpXpXpXpXpXpXpXpXpXpXpXpXpXpX@ : s ..e.}.>XOXP.F.F.K.].oXXX*XXXI.K.S.F.P.:X>X{.e...s O @ pXpXpXpXpXpXpXpXpXpXpXpXpXpXpXpXpX",
"pXpXpXpXpXpXpXpXpXpXpXpXpXpXpXpXpXpX    s o.R. X>X;X&X@X@X=X=X=X;X;X;X@X@X&X*X>X XR.o.s     pXpXpXpXpXpXpXpXpXpXpXpXpXpXpXpXpXpX",
"pXpXpXpXpXpXpXpXpXpXpXpXpXpXpXpXpXpX    > v +.R. X-X2X3X3X1X=X;X=X=X1X9X3X2X>X X~.#.B >     pXpXpXpXpXpXpXpXpXpXpXpXpXpXpXpXpXpX",
"pXpXpXpXpXpXpXpXpXpXpXpXpXpXpXpXpX  . - 4 6 v o.D.}.7X0X5X-XXXoX|.*X-X5X0X7X|.D.o.v 6 4 * .   pXpXpXpXpXpXpXpXpXpXpXpXpXpXpXpXpX",
"pXpXpXpXpXpXpXpXpXpXpXpXpXpXpX    # 8 B p - + s [ D.}.>X>XOX[.]._.{.+X:X:X XD.[ s + * p M 8 X     pXpXpXpXpXpXpXpXpXpXpXpXpXpXpX",
"pXpXpXpXpXpXpXpXpXpXpXpXpXpX    O 6 N C p %     d #.R.`.[.[.~.~.~.~./.[.[.R.#.h     X M A N 6 @     pXpXpXpXpXpXpXpXpXpXpXpXpXpX",
"pXpXpXpXpXpXpXpXpXpXpXpXpX2 a k c m Z N 7 X     d ..p.R.p.p.p.p.p.p.p.R.a.a.o.d     X 8 N Z c c x a 2 pXpXpXpXpXpXpXpXpXpXpXpXpX",
"pXpXpXpXpXpXpXpXpXpXpXpX  x  .t.t.6.m 6 # % % 5 N S y.y.y.5.5.5.4.5.y.y.y.+.X.B 5 % X % 5 m 8.t.t. .k   pXpXpXpXpXpXpXpXpXpXpXpX",
"pXpXpXpXpXpXpXpXpXpXpX    b 0.U..X0.n     % i N A S S S S S S A S S S S S S S A N p X     n S.|.Y.0.b     pXpXpXpXpXpXpXpXpXpXpX",
"pXpXpXpXpXpXpXpXpXpXpX    n J.2XwXP.z     % N D D N p 7 p p p p M p p p 7 p N F X.N %   . ' P.9X2XJ.n     pXpXpXpXpXpXpXpXpXpXpX",
"pXpXpXpXpXpXpXpXpXpXpX    n J.9XwXT.z     = V D S p - o X - 5 5 5 5 - X X - l S D C =     z T.wX3XJ.n     pXpXpXpXpXpXpXpXpXpXpX",
"pXpXpXpXpXpXpXpXpXpXpX    n F.1X4XH.z     ; C D N 4         X - % %         4 N D C ;     ' H.4X1XF.n     pXpXpXpXpXpXpXpXpXpXpX",
"pXpXpXpXpXpXpXpXpXpXpX    b S.&X;XS.z     ; C D N 4                         4 N D C ; .   z F.=X&XS.n     pXpXpXpXpXpXpXpXpXpXpX",
"pXpXpXpXpXpXpXpXpXpXpX    c S.oX;XS.b   . ; N D A M +                     + f A D N ;     b D.;XoX0.c     pXpXpXpXpXpXpXpXpXpXpX",
"pXpXpXpXpXpXpXpXpXpX      c w. X:XD.c     - N D D N l 4 @             O 4 p V D D N ;     c D.:XOXw.c       pXpXpXpXpXpXpXpXpXpX",
"pXpXpXpXpXpXpXpXpXpXpX    g 9.[.{.D.c     - N D 4.D N 7 4             4 l N D 4.X.N %     c w.{.[.9.g     pXpXpXpXpXpXpXpXpXpXpX",
"pXpXpXpXpXpXpXpXpXpXpX    g 6.p.R.O.s     - V D 4.F V M 6 + @       * 6 M V F 4.D N ;     s O.R.R.6.g     pXpXpXpXpXpXpXpXpXpXpX",
"pXpXpXpXpXpXpXpXpXpXpXpX  s @.o...h :   . 7 C D F V M i 6 5 5 6 6 6 6 6 i M V F D C 8     > h ..o.m d   pXpXpXpXpXpXpXpXpXpXpXpX",
"pXpXpXpXpXpXpXpXpXpXpXpXpX3 d d 3 >     + p A F V i * * 5 M N N V N M 5 * * i V F C M +     : 3 f d 1 pXpXpXpXpXpXpXpXpXpXpXpXpX",
"pXpXpXpXpXpXpXpXpXpXpXpXpXpX            + M V N i *     4 M C D F C M 4     + i V C M +             pXpXpXpXpXpXpXpXpXpXpXpXpXpX",
"pXpXpXpXpXpXpXpXpXpXpXpXpXpXpX          + 6 l l >       O 7 N A A N 7 +       < f l 6 +           pXpXpXpXpXpXpXpXpXpXpXpXpXpXpX",
"pXpXpXpXpXpXpXpXpXpXpXpXpXpXpXpX        O < < < O         4 8 p M 8 1 @       O < < O O         pXpXpXpXpXpXpXpXpXpXpXpXpXpXpXpX",
"pXpXpXpXpXpXpXpXpXpXpXpXpXpXpXpXpXpX                      O o + + +               O         pXpXpXpXpXpXpXpXpXpXpXpXpXpXpXpXpXpX",
"pXpXpXpXpXpXpXpXpXpXpXpXpXpXpXpXpXpX          . . . . .                 . . . X . .         pXpXpXpXpXpXpXpXpXpXpXpXpXpXpXpXpXpX",
"pXpXpXpXpXpXpXpXpXpXpXpXpXpXpXpXpXpX    . # w G H H G e $             $ w G H H G 0 $ .     pXpXpXpXpXpXpXpXpXpXpXpXpXpXpXpXpXpX",
"pXpXpXpXpXpXpXpXpXpXpXpXpXpXpXpXpXpX    # e L d.g.g.T L e #         # e L d.g.g.d.L e #     pXpXpXpXpXpXpXpXpXpXpXpXpXpXpXpXpXpX",
"pXpXpXpXpXpXpXpXpXpXpXpXpXpXpXpXpXpX    9 H T v.N.N.c.T H $         $ J T x.v.N.v.f.H $     pXpXpXpXpXpXpXpXpXpXpXpXpXpXpXpXpXpX",
"pXpXpXpXpXpXpXpXpXpXpXpXpXpXpXpXpXpX    $ K k.v.B.B.c.W J 9         $ J W v.B.B.v.k.J 9     pXpXpXpXpXpXpXpXpXpXpXpXpXpXpXpXpXpX",
"pXpXpXpXpXpXpXpXpXpXpXpXpXpXpXpXpXpX    = P ) b.M.M.b.` P =         = P E b.M.M.b.` J =     pXpXpXpXpXpXpXpXpXpXpXpXpXpXpXpXpXpX",
"pXpXpXpXpXpXpXpXpXpXpXpXpXpXpXpXpXpX    = u ) n.n.n.` ( u &         & u ~ ` V.V.*.) u &     pXpXpXpXpXpXpXpXpXpXpXpXpXpXpXpXpXpX",
"pXpXpXpXpXpXpXpXpXpXpXpXpXpXpXpXpXpX    & t ^ %.&.&._ ~ t &         & t ! _ &.&.%.! t &     pXpXpXpXpXpXpXpXpXpXpXpXpXpXpXpXpXpX",
"pXpXpXpXpXpXpXpXpXpXpXpXpXpXpXpXpXpX    & t ^ $.=.=.$.^ t o         o t ^ $.=.=.$.^ t &     pXpXpXpXpXpXpXpXpXpXpXpXpXpXpXpXpXpX"
};
