/* XPM */
static char * l3_xpm[] = {
"64 64 521 2",
"  	c None",
". 	c #9E7466",
"+ 	c #FFEC44",
"@ 	c #FEEB44",
"# 	c #FEEB45",
"$ 	c #FFED44",
"% 	c #FFEF43",
"& 	c #FEEC44",
"* 	c #FFEE44",
"= 	c #FFF442",
"- 	c #DB965E",
"; 	c #FFF143",
"> 	c #FFEF44",
", 	c #FFF043",
"' 	c #FFF242",
") 	c #F9DE48",
"! 	c #DD9D5C",
"~ 	c #EDC451",
"{ 	c #E1A759",
"] 	c #FDE846",
"^ 	c #FFF641",
"/ 	c #D6945F",
"( 	c #B98363",
"_ 	c #FFF342",
": 	c #F5D54B",
"< 	c #EABD53",
"[ 	c #E4AD57",
"} 	c #E6B256",
"| 	c #ECC052",
"1 	c #F0C94F",
"2 	c #FCE646",
"3 	c #FAE247",
"4 	c #F0CA4F",
"5 	c #D89160",
"6 	c #DB995E",
"7 	c #D89260",
"8 	c #D68D61",
"9 	c #DA975E",
"0 	c #E4AF57",
"a 	c #F4D24C",
"b 	c #FFF541",
"c 	c #A27765",
"d 	c #987167",
"e 	c #F8DE49",
"f 	c #E5B156",
"g 	c #DEA15B",
"h 	c #D79060",
"i 	c #E2A959",
"j 	c #E9B954",
"k 	c #FBE347",
"l 	c #D9945F",
"m 	c #DA965E",
"n 	c #D9935F",
"o 	c #D68C61",
"p 	c #E8B854",
"q 	c #FAE148",
"r 	c #D58C62",
"s 	c #B17F63",
"t 	c #997167",
"u 	c #FEEA45",
"v 	c #E7B555",
"w 	c #DD9E5C",
"x 	c #DA955F",
"y 	c #EDC251",
"z 	c #F2D14C",
"A 	c #BB8463",
"B 	c #9D7466",
"C 	c #F1CC4E",
"D 	c #C68A61",
"E 	c #F3D14C",
"F 	c #E3AC58",
"G 	c #D9955F",
"H 	c #E0A45A",
"I 	c #E7B455",
"J 	c #F8DC49",
"K 	c #F9DF48",
"L 	c #DA965F",
"M 	c #D78F60",
"N 	c #EDC351",
"O 	c #FFF542",
"P 	c #DC9A5D",
"Q 	c #F4D44C",
"R 	c #F0CA4E",
"S 	c #D78E61",
"T 	c #141527",
"U 	c #244153",
"V 	c #306073",
"W 	c #336879",
"X 	c #1F3446",
"Y 	c #FFFD3F",
"Z 	c #D78F61",
"` 	c #EBBD52",
" .	c #EEC550",
"..	c #D9975E",
"+.	c #DD995E",
"@.	c #D28F5E",
"#.	c #1B2D3D",
"$.	c #316478",
"%.	c #408797",
"&.	c #59B5B3",
"*.	c #438285",
"=.	c #140B2B",
"-.	c #11152C",
";.	c #EBBD53",
">.	c #DC9F5A",
",.	c #E49764",
"'.	c #9F7051",
").	c #172430",
"!.	c #100B20",
"~.	c #406D7B",
"{.	c #59BAB7",
"].	c #4B9EA3",
"^.	c #56AAA3",
"/.	c #1D2639",
"(.	c #0D0B24",
"_.	c #256E41",
":.	c #378D49",
"<.	c #286A40",
"[.	c #17202F",
"}.	c #D9955E",
"|.	c #E09861",
"1.	c #B98157",
"2.	c #3D3438",
"3.	c #266840",
"4.	c #1E3535",
"5.	c #100D24",
"6.	c #23374B",
"7.	c #28495D",
"8.	c #2C4459",
"9.	c #4B768A",
"0.	c #468494",
"a.	c #46939E",
"b.	c #224144",
"c.	c #337C43",
"d.	c #79DB61",
"e.	c #466943",
"f.	c #182C32",
"g.	c #D6925E",
"h.	c #E69C62",
"i.	c #7E5C48",
"j.	c #29643F",
"k.	c #66B557",
"l.	c #151628",
"m.	c #20273F",
"n.	c #3D4B70",
"o.	c #405C7E",
"p.	c #3A5B79",
"q.	c #3B738C",
"r.	c #407B93",
"s.	c #2F5870",
"t.	c #2D6C4F",
"u.	c #66D65F",
"v.	c #86B259",
"w.	c #10132D",
"x.	c #E3AB58",
"y.	c #DD9660",
"z.	c #C3835B",
"A.	c #2C2B33",
"B.	c #2C6440",
"C.	c #477B46",
"D.	c #2A3358",
"E.	c #346578",
"F.	c #2D5669",
"G.	c #37627A",
"H.	c #406A87",
"I.	c #3E738B",
"J.	c #3F879B",
"K.	c #3C717B",
"L.	c #3C7E5E",
"M.	c #4FC958",
"N.	c #5B824A",
"O.	c #0A0724",
"P.	c #DFA25B",
"Q.	c #D28961",
"R.	c #F8C158",
"S.	c #A18844",
"T.	c #101627",
"U.	c #23324A",
"V.	c #47567E",
"W.	c #435B80",
"X.	c #456E8E",
"Y.	c #437490",
"Z.	c #427B95",
"`.	c #418A9C",
" +	c #408D9F",
".+	c #32606D",
"++	c #325251",
"@+	c #429A5F",
"#+	c #34523B",
"$+	c #3D737C",
"%+	c #31585F",
"&+	c #FBE447",
"*+	c #F5D64C",
"=+	c #D79160",
"-+	c #DB965F",
";+	c #F6DE47",
">+	c #5C6231",
",+	c #18193A",
"'+	c #394272",
")+	c #343C5F",
"!+	c #282A4B",
"~+	c #2B2B4F",
"{+	c #292E4C",
"]+	c #2D3556",
"^+	c #40728C",
"/+	c #3A7F92",
"(+	c #34687C",
"_+	c #438A8D",
":+	c #4EA599",
"<+	c #62C3BB",
"[+	c #488B8A",
"}+	c #15192B",
"|+	c #F3DF44",
"1+	c #DE9C5E",
"2+	c #FDE944",
"3+	c #FEE943",
"4+	c #D8935F",
"5+	c #E9B059",
"6+	c #E0D341",
"7+	c #4C4B34",
"8+	c #FFFF48",
"9+	c #1D3D36",
"0+	c #22503A",
"a+	c #110028",
"b+	c #0F1F2E",
"c+	c #426A41",
"d+	c #477D4A",
"e+	c #2A8946",
"f+	c #2C8542",
"g+	c #30674D",
"h+	c #315252",
"i+	c #20313A",
"j+	c #1C2237",
"k+	c #366F82",
"l+	c #4190A2",
"m+	c #45929F",
"n+	c #4493A0",
"o+	c #4A9FA7",
"p+	c #4A9290",
"q+	c #161D2F",
"r+	c #969139",
"s+	c #EFDB45",
"t+	c #DF9D5A",
"u+	c #FDEA54",
"v+	c #FFF5A1",
"w+	c #D9945E",
"x+	c #EBB955",
"y+	c #F2E441",
"z+	c #B4A93D",
"A+	c #FFFA46",
"B+	c #1E2E32",
"C+	c #2F8747",
"D+	c #287E44",
"E+	c #49924C",
"F+	c #92E866",
"G+	c #4ECD58",
"H+	c #35AF51",
"I+	c #39B951",
"J+	c #3DA85B",
"K+	c #477A71",
"L+	c #375D5B",
"M+	c #1A2331",
"N+	c #1A2839",
"O+	c #3D8395",
"P+	c #3D8396",
"Q+	c #3E6C89",
"R+	c #366277",
"S+	c #25354B",
"T+	c #181B2F",
"U+	c #464633",
"V+	c #E6D842",
"W+	c #EFBD4A",
"X+	c #FAE782",
"Y+	c #FFFFD1",
"Z+	c #E8B752",
"`+	c #EABB4E",
" @	c #FFFC5F",
".@	c #FFF44E",
"+@	c #FAE83F",
"@@	c #171F2F",
"#@	c #2E8947",
"$@	c #40BE54",
"%@	c #32924A",
"&@	c #1E4C39",
"*@	c #192131",
"=@	c #1A2D32",
"-@	c #2C544A",
";@	c #427169",
">@	c #3F6D66",
",@	c #182331",
"'@	c #232943",
")@	c #3F7E93",
"!@	c #3D8596",
"~@	c #42879C",
"{@	c #3D7B90",
"]@	c #3E778E",
"^@	c #284A5D",
"/@	c #F2E344",
"(@	c #FFE63C",
"_@	c #FDEE82",
":@	c #FFFFCB",
"<@	c #E9B851",
"[@	c #E6B562",
"}@	c #FFFFAC",
"|@	c #D6C844",
"1@	c #14142C",
"2@	c #161E2E",
"3@	c #1A2333",
"4@	c #3C6662",
"5@	c #3E6A65",
"6@	c #43756B",
"7@	c #366058",
"8@	c #242943",
"9@	c #406182",
"0@	c #408D9E",
"a@	c #4290A3",
"b@	c #2F6172",
"c@	c #326779",
"d@	c #4396A7",
"e@	c #316577",
"f@	c #15182A",
"g@	c #BDB140",
"h@	c #FFF83A",
"i@	c #FDF080",
"j@	c #FFFFCF",
"k@	c #F1CB37",
"l@	c #F1D04F",
"m@	c #FFFFF1",
"n@	c #C4B94B",
"o@	c #21313D",
"p@	c #3B6760",
"q@	c #32425C",
"r@	c #414D76",
"s@	c #43587E",
"t@	c #385D77",
"u@	c #254352",
"v@	c #223647",
"w@	c #3B7889",
"x@	c #438D9F",
"y@	c #3D8091",
"z@	c #1B2435",
"A@	c #8A8439",
"B@	c #FFFB43",
"C@	c #FBEA4E",
"D@	c #FFF9BF",
"E@	c #FDF3A7",
"F@	c #FEF16D",
"G@	c #FFF76B",
"H@	c #CBBF4D",
"I@	c #1B2439",
"J@	c #384268",
"K@	c #405272",
"L@	c #364862",
"M@	c #43517A",
"N@	c #3A476B",
"O@	c #252E48",
"P@	c #161A34",
"Q@	c #1E3656",
"R@	c #328197",
"S@	c #2F7A91",
"T@	c #30788E",
"U@	c #2F7389",
"V@	c #0F1A2F",
"W@	c #FFED3E",
"X@	c #FFF16C",
"Y@	c #FFEF5A",
"Z@	c #FFFFFF",
"`@	c #FDF7C9",
" #	c #FFF632",
".#	c #BBB03E",
"+#	c #25283A",
"@#	c #232D46",
"##	c #1F2C3E",
"$#	c #1B2336",
"%#	c #1E213B",
"&#	c #141C2D",
"*#	c #161C2D",
"=#	c #514C5A",
"-#	c #888377",
";#	c #75796F",
">#	c #73695C",
",#	c #635C56",
"'#	c #645B53",
")#	c #4E4745",
"!#	c #100F21",
"~#	c #FFEB30",
"{#	c #FFF8B4",
"]#	c #FFF489",
"^#	c #FFF594",
"/#	c #FEFFFF",
"(#	c #FFF653",
"_#	c #D6C83D",
":#	c #1E2331",
"<#	c #0A1728",
"[#	c #3B8A46",
"}#	c #3BB14F",
"|#	c #33A44C",
"1#	c #1C3B33",
"2#	c #5B484F",
"3#	c #474246",
"4#	c #3A3743",
"5#	c #5B524B",
"6#	c #504747",
"7#	c #594F4D",
"8#	c #41383F",
"9#	c #373A4B",
"0#	c #4A5774",
"a#	c #304D66",
"b#	c #162031",
"c#	c #FFED3B",
"d#	c #FEFBDD",
"e#	c #FFF48C",
"f#	c #FFFBD6",
"g#	c #FDF17F",
"h#	c #FFF842",
"i#	c #726F39",
"j#	c #2A2C37",
"k#	c #6A665B",
"l#	c #161B2D",
"m#	c #12192C",
"n#	c #39363E",
"o#	c #3F3843",
"p#	c #374E3C",
"q#	c #78CA5D",
"r#	c #3AC155",
"s#	c #2C8546",
"t#	c #2C2538",
"u#	c #33333D",
"v#	c #242F4C",
"w#	c #32436D",
"x#	c #35446F",
"y#	c #314E73",
"z#	c #33607C",
"A#	c #386A85",
"B#	c #2B4C65",
"C#	c #2A4F62",
"D#	c #171E30",
"E#	c #FCEA45",
"F#	c #FDEA3F",
"G#	c #FFF486",
"H#	c #FEEE54",
"I#	c #FFF05E",
"J#	c #FEF17D",
"K#	c #FFFAA3",
"L#	c #EEDC30",
"M#	c #6C6734",
"N#	c #7E7360",
"O#	c #C9B78C",
"P#	c #6E675B",
"Q#	c #4C4746",
"R#	c #5A4D50",
"S#	c #967B6B",
"T#	c #635154",
"U#	c #2E3A37",
"V#	c #82CA5D",
"W#	c #3AB051",
"X#	c #21553B",
"Y#	c #1F2232",
"Z#	c #3B383F",
"`#	c #262733",
" $	c #202940",
".$	c #252D44",
"+$	c #1F2A3D",
"@$	c #192736",
"#$	c #182334",
"$$	c #121526",
"%$	c #121123",
"&$	c #B8AD3F",
"*$	c #FFF03B",
"=$	c #FFEC3A",
"-$	c #FEF06B",
";$	c #FFF488",
">$	c #FDFCF6",
",$	c #FFFC8F",
"'$	c #FEE75F",
")$	c #EED4A6",
"!$	c #FAEEB3",
"~$	c #998A6F",
"{$	c #282935",
"]$	c #38353F",
"^$	c #37343E",
"/$	c #151B2E",
"($	c #1C2130",
"_$	c #1C3033",
":$	c #1B3333",
"<$	c #14112B",
"[$	c #151B2D",
"}$	c #10182B",
"|$	c #141B2E",
"1$	c #151A2B",
"2$	c #14192A",
"3$	c #161A2C",
"4$	c #171D30",
"5$	c #161C2E",
"6$	c #857F3B",
"7$	c #FFFD47",
"8$	c #FFEF3F",
"9$	c #FFF361",
"0$	c #FFFCBC",
"a$	c #FFFFD5",
"b$	c #F0DB89",
"c$	c #BBAC8A",
"d$	c #908167",
"e$	c #6F6355",
"f$	c #000822",
"g$	c #15182D",
"h$	c #171D2F",
"i$	c #171C2E",
"j$	c #161C2F",
"k$	c #A49B3B",
"l$	c #F2E244",
"m$	c #F1E03C",
"n$	c #EFDE3A",
"o$	c #E8D94A",
"p$	c #D7CA43",
"q$	c #615E31",
"r$	c #383641",
"s$	c #111829",
"t$	c #161D2E",
"u$	c #9C943D",
"v$	c #8E883D",
"                                                                                                                                ",
"                                                                                                                                ",
"                                                                                                                                ",
"                                                                                                                                ",
"                                                                                                                                ",
"                                                                                                                                ",
"                                                                                                                                ",
"                                                                                                                                ",
"                                                                                                                                ",
"                                                                                                                                ",
"                                                                                                  . .                           ",
"                                                                  +                             . . .                           ",
"                                              @ # $ + # #         % & * = %       -         . . . .                             ",
"                                        & & $ ; = > , = ' ; ) !     ~ { ~ ] % ^     / (     . .                                 ",
"                              $ $ $ $ + , _ , : < [ } | 1 2 ' 3 4 5 6 7 8 9 0 a b       c d                                     ",
"                            $ $   $ * _ e f g 5 8 h h 8   i j ] + k } l m n   o p q ,   r s t                                   ",
"                          & $ $ $ $ u v w f   x       9 x       ~                   y z     A B                                 ",
"                            + $ $ % k C                                                 3     D                                 ",
"                          E ; + $ + *                                                                                           ",
"                          F % $ + $ _   G G                                                                                     ",
"                        5 H $ $ $ * I n l                                                                                       ",
"                        G J , , K H h l                                                                                         ",
"                      L M N % * F 8 m                                                                                           ",
"                  O   G P Q j R S m                 T U V W X                                                                   ",
"                $ Y   Z `  ...+.@.                #.$.%.&.*.  =.-.                                                              ",
"                $ [ 7 S ;.>.,.'.          ).    !.~.{.].^./.(._.:.<.[.                                                          ",
"              * & 9 l l }.|.1.2.        3.4.5.6.7.8.9.0.a.b.c.d.e.f.                                                            ",
"              u     h G g.h.i.        j.k.l.m.n.o.p.q.r.s.t.u.v.w.                                                              ",
"            $       x.h y.z.A.        B.C.D.E.F.G.H.I.J.K.L.M.N.O.                                                              ",
"            +   * $ P.Q.R.S.          T.U.V.W.X.Y.Z.`. +.+++@+#+$+%+                                                            ",
"            &+F = *+=+-+;+>+            ,+'+)+!+~+{+]+^+/+(+_+:+<+[+}+                                                          ",
"            |+1+2+3+4+5+6+7+8+  9+0+a+b+c+d+e+f+g+h+i+j+k+l+m+n+o+p+q+                                                          ",
"          r+s+t+u+v+w+x+y+z+A+  B+C+D+E+F+G+H+I+J+K+L+M+N+O+P+Q+R+S+T+                                                          ",
"          U+V+W+X+Y+Z+`+ @.@+@    @@#@$@%@&@*@=@-@;@>@,@'@)@!@~@{@]@^@                                                          ",
"            /@(@_@:@<@[@}@|@        1@).2@  3@4@5@6@7@8@9@0@a@b@c@d@e@f@                                                        ",
"            g@h@i@j@k@l@m@n@                  o@6@p@q@r@s@t@u@v@w@x@y@z@                                                        ",
"            A@B@C@D@E@F@G@H@                I@J@K@L@M@N@O@P@Q@R@S@T@U@V@                                                        ",
"              W@X@Y@Z@`@ #.#                +#@###$#%#&#*#=#-#;#>#,#'#)#!#                                                      ",
"              ~#{#]#^#/#(#_#:#              <#[#}#|#1#2#3#4#5#6#7#8#9#0#a#b#                                                    ",
"              c#X@d#e#f#g#h#i#    j#k#l#m#n#o#p#q#r#s#t#u#v#w#x#y#z#A#B#C#D#                                                    ",
"              E#F#G#H#I#J#K#L#M#N#O#P#Q#R#S#T#U#V#W#X#Y#Z#`# $.$+$@$#$$$%$                                                      ",
"                &$*$=$-$;$>$,$'$)$!$~${$]$^$/$($_$:$<$[$}$|$1$2$1$3$3$4$D#5$5$                                                  ",
"                  6$7$8$9$0$Z@a$b$c$d$e$f$    /$g$g$2@5$h$i$j$q+5$5$5$5$5$5$5$5$                                                ",
"                    k$l$m$n$o$p$q$r$s$            t$5$5$5$5$5$5$5$5$5$5$5$5$                                                    ",
"                        u$v$                                                                                                    ",
"                                                                                                                                ",
"                                                                                                                                ",
"                                                                                                                                ",
"                                                                                                                                ",
"                                                                                                                                ",
"                                                                                                                                ",
"                                                                                                                                ",
"                                                                                                                                ",
"                                                                                                                                ",
"                                                                                                                                ",
"                                                                                                                                ",
"                                                                                                                                ",
"                                                                                                                                ",
"                                                                                                                                ",
"                                                                                                                                ",
"                                                                                                                                ",
"                                                                                                                                ",
"                                                                                                                                ",
"                                                                                                                                "};
