/* XPM */
static char * l4_xpm[] = {
"64 64 424 2",
"  	c None",
". 	c #9E7466",
"+ 	c #D49160",
"@ 	c #A87A65",
"# 	c #DC965F",
"$ 	c #B17E64",
"% 	c #997267",
"& 	c #D7935F",
"* 	c #B38063",
"= 	c #997167",
"- 	c #141729",
"; 	c #9F7466",
"> 	c #9C7366",
", 	c #D8935F",
"' 	c #14182A",
") 	c #254456",
"! 	c #346C7D",
"~ 	c #2D5C70",
"{ 	c #21394D",
"] 	c #AA7B65",
"^ 	c #A07666",
"/ 	c #E6AF57",
"( 	c #EFC94F",
"_ 	c #172032",
": 	c #27475A",
"< 	c #51A9AD",
"[ 	c #4798A1",
"} 	c #3F7F89",
"| 	c #2A4954",
"1 	c #1A1F2A",
"2 	c #5B804B",
"3 	c #171D2E",
"4 	c #DB965F",
"5 	c #C68A61",
"6 	c #A67865",
"7 	c #D8945F",
"8 	c #F3D14D",
"9 	c #121726",
"0 	c #1D1E37",
"a 	c #465D7A",
"b 	c #52939A",
"c 	c #479CA8",
"d 	c #4F9B97",
"e 	c #0D0E2B",
"f 	c #658E4E",
"g 	c #587D49",
"h 	c #0C0D2A",
"i 	c #DD955F",
"j 	c #BE8662",
"k 	c #C88563",
"l 	c #EBB954",
"m 	c #FFFA40",
"n 	c #1B3333",
"o 	c #296E41",
"p 	c #182630",
"q 	c #1F273D",
"r 	c #36687D",
"s 	c #305F71",
"t 	c #355E77",
"u 	c #3F6282",
"v 	c #40768F",
"w 	c #3A7685",
"x 	c #141C2E",
"y 	c #40A34F",
"z 	c #73AA55",
"A 	c #14182D",
"B 	c #D79060",
"C 	c #E0A45A",
"D 	c #E5B256",
"E 	c #D99260",
"F 	c #FAE247",
"G 	c #1B3233",
"H 	c #26633E",
"I 	c #35A64E",
"J 	c #214E38",
"K 	c #151830",
"L 	c #26354C",
"M 	c #324160",
"N 	c #415A7D",
"O 	c #416C89",
"P 	c #3F8597",
"Q 	c #3C7D91",
"R 	c #2A4253",
"S 	c #307850",
"T 	c #50CF58",
"U 	c #547749",
"V 	c #070527",
"W 	c #DA965F",
"X 	c #EFC750",
"Y 	c #DB985E",
"Z 	c #E4AD57",
"` 	c #FFF243",
" .	c #1B3A32",
"..	c #273947",
"+.	c #3F5379",
"@.	c #37697F",
"#.	c #2F6575",
"$.	c #396F84",
"%.	c #3F758E",
"&.	c #3E7E93",
"*.	c #3B8091",
"=.	c #3C6060",
"-.	c #3F9066",
";.	c #4DB450",
">.	c #1B1E2A",
",.	c #141A2F",
"'.	c #CE7B66",
").	c #E9BA53",
"!.	c #F4D34C",
"~.	c #D58C62",
"{.	c #DA985E",
"].	c #15142C",
"^.	c #384367",
"/.	c #46527D",
"(.	c #414D77",
"_.	c #425D82",
":.	c #406282",
"<.	c #3F6684",
"[.	c #417891",
"}.	c #3F8C9D",
"|.	c #284855",
"1.	c #355859",
"2.	c #3F905D",
"3.	c #3E7974",
"4.	c #529F9C",
"5.	c #28444F",
"6.	c #FFF043",
"7.	c #ECC052",
"8.	c #FFEC44",
"9.	c #EBBF52",
"0.	c #DA965E",
"a.	c #11152A",
"b.	c #1C263E",
"c.	c #2B3A50",
"d.	c #222E41",
"e.	c #232942",
"f.	c #242844",
"g.	c #21263E",
"h.	c #242644",
"i.	c #3D7089",
"j.	c #3E889B",
"k.	c #3D8092",
"l.	c #52A7A5",
"m.	c #55AFAC",
"n.	c #5AB9B7",
"o.	c #438182",
"p.	c #FFED44",
"q.	c #FFEE44",
"r.	c #FFF641",
"s.	c #FFF541",
"t.	c #EBBD53",
"u.	c #DFA35A",
"v.	c #2F4D3B",
"w.	c #70AF54",
"x.	c #35AC4B",
"y.	c #37B64F",
"z.	c #37AE50",
"A.	c #3C7E5E",
"B.	c #385E5C",
"C.	c #263F43",
"D.	c #22313F",
"E.	c #33697C",
"F.	c #428F9F",
"G.	c #418A99",
"H.	c #3C8195",
"I.	c #448D97",
"J.	c #2B4853",
"K.	c #14182B",
"L.	c #FBE247",
"M.	c #FCE646",
"N.	c #E3AC58",
"O.	c #F3C752",
"P.	c #C58F56",
"Q.	c #22292E",
"R.	c #273735",
"S.	c #89D360",
"T.	c #62D15C",
"U.	c #30964C",
"V.	c #25633D",
"W.	c #2D7747",
"X.	c #3F7C63",
"Y.	c #43736C",
"Z.	c #365C5B",
"`.	c #141928",
" +	c #21394B",
".+	c #408A9C",
"++	c #3D8496",
"@+	c #3E8295",
"#+	c #346A7E",
"$+	c #263F55",
"%+	c #F2D24C",
"&+	c #D9945F",
"*+	c #E0A55A",
"=+	c #F2CC4F",
"-+	c #DDA757",
";+	c #666635",
">+	c #3C9A4C",
",+	c #45AA51",
"'+	c #1B523A",
")+	c #151A2C",
"!+	c #1A1E35",
"~+	c #2C3F4C",
"{+	c #375A5B",
"]+	c #45796E",
"^+	c #365E59",
"/+	c #1A1E34",
"(+	c #395674",
"_+	c #3E8798",
":+	c #3F8799",
"<+	c #408C9E",
"[+	c #3F8A9C",
"}+	c #223C4E",
"|+	c #F3C354",
"1+	c #DDA05B",
"2+	c #D78F61",
"3+	c #DC9F5B",
"4+	c #F0B958",
"5+	c #CABF3E",
"6+	c #DFD041",
"7+	c #1A2A31",
"8+	c #329F4C",
"9+	c #193634",
"0+	c #21333C",
"a+	c #417567",
"b+	c #43776A",
"c+	c #3F6E64",
"d+	c #283E49",
"e+	c #394268",
"f+	c #426083",
"g+	c #418A9D",
"h+	c #2F5D6F",
"i+	c #4494A6",
"j+	c #2E5A6C",
"k+	c #B48C4D",
"l+	c #E5A55D",
"m+	c #E1A958",
"n+	c #D58B62",
"o+	c #DFA25B",
"p+	c #FCEA44",
"q+	c #1C3734",
"r+	c #18222F",
"s+	c #32425B",
"t+	c #457170",
"u+	c #3C5E65",
"v+	c #3A426C",
"w+	c #45557E",
"x+	c #3E4970",
"y+	c #283B53",
"z+	c #1D3041",
"A+	c #2C5567",
"B+	c #3D8395",
"C+	c #4291A3",
"D+	c #326A7D",
"E+	c #13182B",
"F+	c #715146",
"G+	c #E89E62",
"H+	c #ECC74E",
"I+	c #DA9760",
"J+	c #D99460",
"K+	c #FCE746",
"L+	c #FFF644",
"M+	c #27314A",
"N+	c #454D7E",
"O+	c #2B2A52",
"P+	c #292D4F",
"Q+	c #3C4A6F",
"R+	c #26304C",
"S+	c #1B2438",
"T+	c #21233B",
"U+	c #385D78",
"V+	c #3F8D9E",
"W+	c #3D8497",
"X+	c #376E80",
"Y+	c #2D4554",
"Z+	c #1E2332",
"`+	c #705743",
" @	c #CD865F",
".@	c #EEC353",
"+@	c #EFC747",
"@@	c #D08261",
"#@	c #FBD152",
"$@	c #9C9A38",
"%@	c #2A2939",
"&@	c #21403B",
"*@	c #23693F",
"=@	c #225239",
"-@	c #171B2E",
";@	c #1B1E2C",
">@	c #232636",
",@	c #61585D",
"'@	c #928067",
")@	c #7B6B5B",
"!@	c #8C7C64",
"~@	c #65564E",
"{@	c #393136",
"]@	c #2C2D37",
"^@	c #C5845E",
"/@	c #ECB74F",
"(@	c #FFF472",
"_@	c #DFA664",
":@	c #EBAB56",
"<@	c #C1B73F",
"[@	c #1A1D1A",
"}@	c #0D142A",
"|@	c #4C914B",
"1@	c #56CD5A",
"2@	c #36BC53",
"3@	c #1F5039",
"4@	c #58454F",
"5@	c #4B4346",
"6@	c #22273B",
"7@	c #3B4258",
"8@	c #393F57",
"9@	c #3B3E56",
"0@	c #38425E",
"a@	c #34476B",
"b@	c #222E49",
"c@	c #684C48",
"d@	c #E7A64D",
"e@	c #FFFB9E",
"f@	c #FDF4CC",
"g@	c #EAC04D",
"h@	c #FFFC47",
"i@	c #AEAC84",
"j@	c #0F1845",
"k@	c #1A1F30",
"l@	c #776B5A",
"m@	c #8D846E",
"n@	c #242734",
"o@	c #312F3B",
"p@	c #6C5C56",
"q@	c #5B4B50",
"r@	c #2E3636",
"s@	c #8ED361",
"t@	c #3DC155",
"u@	c #2D8647",
"v@	c #121329",
"w@	c #242D44",
"x@	c #3D4C74",
"y@	c #41507B",
"z@	c #41517B",
"A@	c #3D6B89",
"B@	c #3E7B93",
"C@	c #3A7286",
"D@	c #1F2F42",
"E@	c #D38961",
"F@	c #F3D052",
"G@	c #FFFFC2",
"H@	c #FFFFF9",
"I@	c #FDF6B5",
"J@	c #FFFA9E",
"K@	c #D2C866",
"L@	c #B6A932",
"M@	c #B2A079",
"N@	c #ECD8A3",
"O@	c #4D4B49",
"P@	c #35343C",
"Q@	c #685757",
"R@	c #816B62",
"S@	c #413A44",
"T@	c #252F34",
"U@	c #558E4C",
"V@	c #318B48",
"W@	c #1C3634",
"X@	c #161D2E",
"Y@	c #171E30",
"Z@	c #1E253B",
"`@	c #222A41",
" #	c #202940",
".#	c #182435",
"+#	c #182334",
"@#	c #161D2F",
"##	c #14192A",
"$#	c #FFF842",
"%#	c #F0CA53",
"&#	c #F3CF3E",
"*#	c #FFF77F",
"=#	c #FEFAEB",
"-#	c #FFFFFF",
";#	c #FEFEF8",
">#	c #FFFFD9",
",#	c #FFFAC8",
"'#	c #F2D89E",
")#	c #F1E4AD",
"!#	c #C9B386",
"~#	c #4A4544",
"{#	c #1B1F31",
"]#	c #242635",
"^#	c #061126",
"/#	c #13172D",
"(#	c #0E142B",
"_#	c #151A2D",
":#	c #14152C",
"<#	c #161C2D",
"[#	c #141A2B",
"}#	c #161A2C",
"|#	c #161C2E",
"1#	c #FFF144",
"2#	c #FFF13E",
"3#	c #FFF36A",
"4#	c #FFFDD5",
"5#	c #FEF6A6",
"6#	c #FFF69D",
"7#	c #FFFAB0",
"8#	c #FFFF75",
"9#	c #BCAC5C",
"0#	c #9E8C75",
"a#	c #544E49",
"b#	c #57504B",
"c#	c #060F27",
"d#	c #181E2F",
"e#	c #161E2E",
"f#	c #161C2F",
"g#	c #FEEB47",
"h#	c #F1E039",
"i#	c #F5E442",
"j#	c #FFF04A",
"k#	c #FAE732",
"l#	c #EAD932",
"m#	c #827C30",
"n#	c #393D2B",
"o#	c #7D7938",
"p#	c #555433",
"q#	c #73703C",
"                                                                                                                                ",
"                                                                                                                                ",
"                                                                                                                                ",
"                                                                                                                                ",
"                                                                                                                                ",
"                                                                                                                                ",
"                                                                                                                                ",
"                                                                                                                                ",
"                                                                                                                                ",
"                                                                                                . .                             ",
"                                                                                                . . .                           ",
"                                                                                                                                ",
"                                                                                                                                ",
"                                              . . . . . .               . . . .         .                                       ",
"                                        . .   . . . . . . .       . . . .   . .         . . .                                   ",
"                                          . . .             .                               .                                   ",
"                                            .                                                                                   ",
"                                + @                                                                                             ",
"                              # $ %                                                                                             ",
"                            & * =                                                                                               ",
"                                                                                                                                ",
"                                                                                                                                ",
"                                                  -                                                                             ",
"                        ; >   ,               ' ) ! ~ {                                                                         ",
"                      ] ^   / (                 _ : < [ } | 1 2 3                                                               ",
"                    4 5 6 7 8                   9 0 a b c d e f g h                                                             ",
"                  7 i j k l m       n o p     q r s t u v w x y z A                                                             ",
"                  B C D E F         G H I J K L M N O P Q R S T U V                                                             ",
"                  W X Y Z `              ...+.@.#.$.%.&.*.=.-.;.>.,.                                                            ",
"                '.).!.~.{.              ].^./.(._.:.<.[.}.|.1.2.3.4.5.                                                          ",
"            6.  7.8.9.0.                a.b.c.d.e.f.g.h.i.j.k.l.m.n.o.                                                          ",
"            p.q.r.s.t.u.                v.w.x.y.z.A.B.C.D.E.F.G.H.I.J.K.                                                        ",
"            L.M.N.9.O.P.Q.            R.S.T.U.V.W.X.Y.Z.`. +.+++@+#+$+                                                          ",
"              %+&+*+=+-+;+            >+,+'+)+!+~+{+]+^+/+(+_+:+<+<+[+}+                                                        ",
"              |+1+2+3+4+5+6+        7+8+9+    0+a+b+c+d+e+f+g+++}+h+i+j+                                                        ",
"              k+l+m+n+o+p+p.          q+r+    A s+t+u+v+w+x+y+z+A+B+C+D+E+                                                      ",
"              F+G+H+I+J+K+L+                  M+N+O+P+Q+R+S+T+U+V+W+X+Y+Z+                                                      ",
"              `+ @.@+@@@#@$@                  %@&@*@=@-@;@>@,@'@)@!@~@{@]@                                                      ",
"                ^@/@(@_@:@<@[@                }@|@1@2@3@4@5@6@7@8@9@0@a@b@                                                      ",
"                c@d@e@f@g@h@i@j@  k@l@m@n@o@p@q@r@s@t@u@v@w@x@y@z@A@B@C@D@                                                      ",
"                  E@F@G@H@I@J@K@L@M@N@O@P@Q@R@S@T@U@V@W@X@Y@Z@`@ #.#+#@###                                                      ",
"                $#%#&#*#=#-#;#>#,#'#)#!#~#{#]#^#/#(#_#:#X@<#)+[#[#}#}#|#@#|#|#|#                                                ",
"                  1#2#3#4#5#6#7#8#9#0#a#b#c#    3 d#|#e#|#|#|#@#f#|#|#|#|#|#|#|#                                                ",
"                    g#h#i#j#k#l#m#n#              |#|#|#|#|#|#|#|#|#|#|#|#|#                                                    ",
"                        o#p#q#                                                                                                  ",
"                                                                                                                                ",
"                                                                                                                                ",
"                                                                                                                                ",
"                                                                                                                                ",
"                                                                                                                                ",
"                                                                                                                                ",
"                                                                                                                                ",
"                                                                                                                                ",
"                                                                                                                                ",
"                                                                                                                                ",
"                                                                                                                                ",
"                                                                                                                                ",
"                                                                                                                                ",
"                                                                                                                                ",
"                                                                                                                                ",
"                                                                                                                                ",
"                                                                                                                                ",
"                                                                                                                                ",
"                                                                                                                                "};
