/* XPM */
static char *result[] = {
/* columns rows colors chars-per-pixel */
"64 64 226 2 ",
"   c #009300620086",
".  c #0B3C01C901AF",
"X  c #01A204320932",
"o  c #0D3402A308AB",
"O  c #057808570BAD",
"+  c #0D9908C50577",
"@  c #144102220173",
"#  c #1AB901DC01CA",
"$  c #150A081303F2",
"%  c #1C1808D40423",
"&  c #1339039E0AAE",
"*  c #12D90C900862",
"=  c #1BA8072009EF",
"-  c #06200D7813D8",
";  c #0A6B0C7511F9",
":  c #00000C061812",
">  c #12FE0C871367",
",  c #1AE40BB51184",
"<  c #1648038110AC",
"1  c #097D10991686",
"2  c #02EF136D1BEF",
"3  c #09BC11321959",
"4  c #12A615C31B8A",
"5  c #18DD19ED1A9C",
"6  c #242C00C40084",
"7  c #2B3702F60149",
"8  c #23CE0B1505F4",
"9  c #23AF0B0E089D",
"0  c #2B1B087107FE",
"q  c #34F3027C0269",
"w  c #339003EA0A8D",
"e  c #36730BBF0334",
"r  c #3CCF11DC03AE",
"t  c #33E011160AE6",
"y  c #3B7612CA0C83",
"u  c #376B16FB03D9",
"i  c #21CA056F1429",
"p  c #2CF70A691D16",
"a  c #22FB0AB41691",
"s  c #3138096E1C0F",
"d  c #34AE06771543",
"f  c #2136184118B6",
"g  c #379316AD1299",
"h  c #2CD8124F05FF",
"j  c #0B881A8C2859",
"k  c #12B915DF2194",
"l  c #14D817B2224C",
"z  c #13D81D262C0C",
"x  c #1B4A1F9C2EF7",
"c  c #0C151F0833B6",
"v  c #3CAA0AEF21A9",
"b  c #34C70B8F20AB",
"n  c #3380125F28C7",
"m  c #0F45210F2EA8",
"M  c #000022212C97",
"N  c #138D1FFD2D82",
"B  c #1F6425A6279D",
"V  c #04C425923F74",
"C  c #0CF525033966",
"Z  c #148523EA3510",
"A  c #1DE2214D31C1",
"S  c #1B49294036C4",
"D  c #13EF29CF3D35",
"F  c #184727FB39A7",
"G  c #2946290C2A3B",
"H  c #258726AD25B8",
"J  c #23CB2A503DE8",
"K  c #25E0288B3880",
"L  c #310330C23171",
"P  c #442B049202B7",
"I  c #42870E870193",
"U  c #4B5B07680487",
"Y  c #558204810418",
"T  c #44B010AB0372",
"R  c #4B6A129C0001",
"E  c #42DF15CD0D42",
"W  c #4A4D13A409E2",
"Q  c #4B87181C0F0A",
"!  c #405918340A2D",
"~  c #53B01A8F0D4B",
"^  c #5619159805AE",
"/  c #46DD0DEE1F74",
"(  c #461908C11424",
")  c #49C5172D10C8",
"_  c #50C419D2105D",
"`  c #5C281CD91393",
"'  c #5D1D0C1D181E",
"]  c #6BAC076809EF",
"[  c #6B8008EF0E55",
"{  c #67E2068F07F5",
"}  c #783006F90747",
"|  c #63C51D8B0C2F",
" . c #63051ED41580",
".. c #74FE0C2319F6",
"X. c #59D723950FF5",
"o. c #67DB27D8087D",
"O. c #753F27C70A67",
"+. c #739F282106FD",
"@. c #660721F913FC",
"#. c #6B3E23A91423",
"$. c #67FC2990144A",
"%. c #7367258D15FC",
"&. c #7C722C1C1462",
"*. c #747A2B5113B1",
"=. c #7C0C32041068",
"-. c #7EB630331D76",
";. c #776B31A518DC",
":. c #4B4F0CCA2A48",
">. c #57710AC82840",
",. c #55B00FDD2CEC",
"<. c #4A3411013364",
"1. c #58E514353585",
"2. c #67B414D83C1D",
"3. c #784A11772CB3",
"4. c #727A2C5022FC",
"5. c #035A28B741E5",
"6. c #0134271F415B",
"7. c #1DFA2E6345A9",
"8. c #10D52D3E3FF2",
"9. c #099030B94245",
"0. c #1B81363F4EBF",
"q. c #1C5B3A04543E",
"w. c #1BAC3D92596B",
"e. c #26352BAF40D5",
"r. c #23E732BA4BBD",
"t. c #2ACD35C24DE7",
"y. c #23A93CA15B01",
"u. c #2C593D585BA7",
"i. c #32F93ECD5C18",
"p. c #5C4B16F846B9",
"a. c #6BCF16DF40E3",
"s. c #794A188847CF",
"d. c #6B5A1AB75243",
"f. c #22AA43355DED",
"g. c #1BEF47E46590",
"h. c #297C438E6532",
"j. c #34B1450165C2",
"k. c #3A8A49ED6CB0",
"l. c #26CF4E2F71F7",
"z. c #39B94D947352",
"x. c #29F25364786B",
"c. c #345855557AFA",
"v. c #3D6D53527B49",
"b. c #450557BA7FD1",
"n. c #98A80A020CC2",
"m. c #98E50B040FA2",
"M. c #87DD096F0C3D",
"N. c #AFE20D3113C8",
"B. c #84712D5C0F39",
"V. c #86B235690EA5",
"C. c #82182DE5161F",
"Z. c #81432AC11AF1",
"A. c #835232AE146E",
"S. c #8B25354C1366",
"D. c #853A335D1BB0",
"F. c #91F537411557",
"G. c #9A2312E72C72",
"H. c #814315643A7A",
"J. c #B16815B8332C",
"K. c #C8F111F420B5",
"L. c #C47E0CCF0F84",
"P. c #918F181041E4",
"I. c #8B401BA14E3B",
"U. c #2B6C5CB38620",
"Y. c #32ED542D806F",
"T. c #3A42572E8178",
"R. c #3D165AA88542",
"E. c #34CB5E3B8AFE",
"W. c #28865E8590BB",
"Q. c #3685616C8D32",
"!. c #272A678E9A67",
"~. c #33036522925C",
"^. c #31F46B7A9BA9",
"/. c #395F61BC922A",
"(. c #288863E48E5B",
"). c #3F096BFCA061",
"_. c #391F7099A3ED",
"`. c #34FB74A8A75B",
"'. c #3D9F7D84B601",
"]. c #28106F82A6F9",
"[. c #408957D082D6",
"{. c #449661658E73",
"}. c #49C265599506",
"|. c #49B6682C98D7",
" X c #523F69619ADB",
".X c #4AEA74F3AABF",
"XX c #498F7523AB2C",
"oX c #521A7212A6B6",
"OX c #4CBE7C2EB564",
"+X c #44DD7EC4B8DE",
"@X c #53ED7B9FB49F",
"#X c #59827DADB766",
"$X c #56EC7F79BA73",
"%X c #551F7BEAB6DF",
"&X c #53C98355BF69",
"*X c #498181B4BB28",
"=X c #3E8C8678C2AB",
"-X c #3EEA8946C6AC",
";X c #3EA58CE8CBCE",
":X c #44408746C45E",
">X c #4B9B86BCC3FF",
",X c #424A88AAC629",
"<X c #43788C7DCBA9",
"1X c #4B458BE2CB4C",
"2X c #5232863BC4B5",
"3X c #513D88B2C725",
"4X c #56C98BCACBA0",
"5X c #583B8B6FCC46",
"6X c #46CF8FC1D095",
"7X c #4C8C8F8DD100",
"8X c #458B91DCD33C",
"9X c #49779154D2B2",
"0X c #4A95977CDB4B",
"qX c #4A899A69DF99",
"wX c #42529653DB36",
"eX c #566B9375D706",
"rX c #4C9E9C34E28F",
"tX c #48219DE6E50A",
"yX c #51239B72E1EC",
"uX c #59379B4CE259",
"iX c #4B6CA2AFEC83",
"pX c #50C8A12EEA7D",
"aX c #5118A8B7F4B3",
"sX c #5049A7D0F391",
"dX c #587BB425FFFF",
"fX c None",
/* pixels */
"fXfXfXfXfXfXfXfXfXfXfXfXfXfXfXfXfXfXfXfXfXfXfXfXfXfXfXfXfXfXfXfXfXfXfXfXfXfXfXfXfXfXfXfXfXfXfXfXfXfXfXfXfXfXfXfXfXfXfXfXfXfXfXfX",
"fXfXfXfXfXfXfXfXfXfXfXfXfXfXfXfXfXfXfXfXfXfXfXfXfXfXfXfXfXfXfXfXfXfXfXfXfXfXfXfXfXfXfXfXfXfXfXfXfXfXfXfXfXfXfXfXfXfXfXfXfXfXfXfX",
"fXfXfXfXfXfXfXfXfXfXfXfXfXfXfXfXfXfXfXfXfXfXfXfXfXfXfXfXfXfXfXfXfXfXfXfXfXfXfXfXfXfXfXfXfXfXfXfXfXfXfXfXfXfXfXfXfXfXfXfXfXfXfXfX",
"fXfXfXfXfXfXfXfXfXfXfXfXfX    fXfXfXfXfXfXfXfXfXfXfXfXfXfXfXfXfXfXfXfXfXfXfXfXfXfXfXfXfXfXfXfXfXfX    fXfXfXfXfXfXfXfXfXfXfXfXfX",
"fXfXfXfXfXfXfXfXfXfXfX            fXfXfXfXfXfXfXfXfXfXfXfXfXfXfXfXfXfXfXfXfXfXfXfXfXfXfXfXfXfX          . fXfXfXfXfXfXfXfXfXfXfX",
"fXfXfXfXfXfXfXfXfXfXfX              fXfXfXfXfXfXfXfXfXfXfXfXfXfXfXfXfXfXfXfXfXfXfXfXfXfXfXfX.             fXfXfXfXfXfXfXfXfXfXfX",
"fXfXfXfXfXfXfXfXfXfX      @ 6 7 q 7 @ fXfXfXfXfXfXfXfXfXfXfXfXfXfXfXfXfXfXfXfXfXfXfXfXfXfX@ 7 q q # o       fXfXfXfXfXfXfXfXfXfX",
"fXfXfXfXfXfXfXfXfXfX      # P [ } Y #   fXfXfXfXfXfX                        fXfXfXfXfXfX  # Y ] ] P #       fXfXfXfXfXfXfXfXfXfX",
"fXfXfXfXfXfXfXfXfXfXfX    7 { m.m.{ 6     fXfXfXfX                            fXfXfXfX    7 { m.m.{ 7     fXfXfXfXfXfXfXfXfXfXfX",
"fXfXfXfXfXfXfXfXfXfXfX    q [ m.m.[ w +   fXfXfXfX1 - 3 1 3 3 3 1 - 1 3 1 1 1 fXfXfXfX  & w [ m.m.] q     fXfXfXfXfXfXfXfXfXfXfX",
"fXfXfXfXfXfXfXfXfXfXfXfX  7 Y ] [ ' :.b i . fXfX2 8.0.q.q.q.0.0.0.0.q.q.q.0.D 2 fXfX. i s / ' [ ] Y 7   fXfXfXfXfXfXfXfXfXfXfXfX",
"fXfXfXfXfXfXfXfXfXfXfXfXfXfX# 6 w / ,.1.:.6     M g.~._._.^.~.~.~.~.^._.`.^.g.M     6 :.1.1./ w 6 # fXfXfXfXfXfXfXfXfXfXfXfXfXfX",
"fXfXfXfXfXfXfXfXfXfXfXfXfXfX    o p 1.a.>.q   O 9.(.<XpXyXrX6X,X;X<X0XpXpX<X(.D O . 7 >.a.1.p X     fXfXfXfXfXfXfXfXfXfXfXfXfXfX",
"fXfXfXfXfXfXfXfXfXfXfXfXfXfX      < v ,.>.d , z g.`.rXdXdXaXtXrXrXrXaXdXdXrX`.g.z > d >.,.v <       fXfXfXfXfXfXfXfXfXfXfXfXfXfX",
"fXfXfXfXfXfXfXfXfXfXfXfXfXfX        @ w d p K u.E.'.rXaXaXtXrXrX0XrXiXaXaXqX+XE.u.K n d d #         fXfXfXfXfXfXfXfXfXfXfXfXfXfX",
"fXfXfXfXfXfXfXfXfXfXfXfXfXfXX         X > e.k.}.XX>X8X8X8X6X<X1X<X6X8X8X8X8X:X.X{.k.J ,           X fXfXfXfXfXfXfXfXfXfXfXfXfXfX",
"fXfXfXfXfXfXfXfXfXfXfXfXfXfXo .       X m j.{.&X5X1X,X=X-X,X,X:X:X-X:X-X:X,X1X4X&X}.h.N X       X + fXfXfXfXfXfXfXfXfXfXfXfXfXfX",
"fXfXfXfXfXfXfXfXfXfXfXfXfXfX      X - m f.Q.@X5XeX7X,X:X=X,X,X,X,X:X:X:X=X,X9XeX5X@XQ.f.m ; X   .   fXfXfXfXfXfXfXfXfXfXfXfXfXfX",
"fXfXfXfXfXfXfXfXfXfXfXfXfXfX    + 3 e.j.{.XX*X7X9X6X<X,X,X,X<X,X,X<X,X,X,X<X6X9X1X&X.X{.j.S 4 X     fXfXfXfXfXfXfXfXfXfXfXfXfXfX",
"fXfXfXfXfXfXfXfXfXfXfXfXfXfX    O A j.|.&X3X<X<X<X<X<X<X<X<X<X<X<X<X<X<X<X<X<X<X<X<X3X&X|.j.A O     fXfXfXfXfXfXfXfXfXfXfXfXfXfX",
"fXfXfXfXfXfXfXfXfXfXfXfXfXfX    ; J b.@XeXeX8X;X-X<X<X<X<X6X6X6X<X<X8X<X,X<X<X;X;X6XeXeX$X[.e.O     fXfXfXfXfXfXfXfXfXfXfXfXfXfX",
"fXfXfXfXfXfXfXfX    X O         - r.Q.3XeXuX8X;X,X<X<X<X<X;X;X;X<X<X<X<X<X<X<X-X;X6XpXeX3XR.r.-         O X     fXfXfXfXfXfXfXfX",
"fXfXfXfXfXfXfX        X         - 0.~.1XqXqX8X<X,X<X<X,X<X;X<X<X<X<X;X<X<X<X<X:X<X8XqXuX<X~.0.-         X X       fXfXfXfXfXfXfX",
"fXfXfXfXfXfXfX        X         - q.^.<XrXqX6X:X:X<X<X<X<X<X<X1X<X<X<X<X<X<X<X-X:X6XqXrX<X^.q.-                   fXfXfXfXfXfXfX",
"fXfXfXfXfXfXfXfX      X         - w.^.;XtXqX<X,X,X<X6X<X<X1X3X3X3X3X1X1X<X<X<X-X:X6XqXtX;X^.w.-         X       fXfXfXfXfXfXfXfX",
"fXfXfXfXfXfXfXfXfX    X         - w.`.;XtXqX6X=X=X;X;X<X>X&X$X#X#X&X&X,X<X<X;X-X,X6XqXtX;X].w.-           X   fXfXfXfXfXfXfXfXfX",
"fXfXfXfXfXfXfXfXfXfXfXO         - q.^.;XrXrX6X,X;X6X<X,X+XXX X X X XoX*X,X<X<X;X,X6X0XrX<X^.q.-         O fXfXfXfXfXfXfXfXfXfXfX",
"fXfXfXfXfXfXfXfXfXfXfXO         - 0.Q.1XyXrX6X<X<X9X1X+X|.R.k.j.j.k.R.|.*X1X9X<X<X6XrXuX>X~.0.;         O fXfXfXfXfXfXfXfXfXfXfX",
"fXfXfXfXfXfXfXfXfXfXfXfXfX      O 7.R.2XuXyX6X;X6XeX5XoXT.y.D j j Z y.T.XX3XeX1X<X6XrXuX2XR.7.O       fXfXfXfXfXfXfXfXfXfXfXfXfX",
"fXfXfXfXfXfXfXfXfXfXfXfXfXfX    ; S v.%XeXeX<X,X1X4X%X}.u.j X     X c i.}.#X4X1X;X<X0XeX@Xz.S ;     fXfXfXfXfXfXfXfXfXfXfXfXfXfX",
"fXfXfXfXfXfXfXfXfXfXfXfXfXfX    O x i.[.@X>X:X<X1XOX}.k.e.;         > J k.|.OX1X<X1X>X@X[.j.x O     fXfXfXfXfXfXfXfXfXfXfXfXfXfX",
"fXfXfXfXfXfXfXfXfXfXfXfXfXfXfXfX; 4 K u.T..X>X3X+X/.h.J f 9 6 6 # 6 9 f J h./.+X1XOX.X[.i.K k O fXfXfXfXfXfXfXfXfXfXfXfXfXfXfXfX",
"fXfXfXfXfXfXfXfXfXfXfXfXfXfXfXfXfX  X k r.T.@X2X).h.c * 9 r ^ ^ ^ ^ r 8 ; c h.^.&X@XR.r.4 X X fXfXfXfXfXfXfXfXfXfXfXfXfXfXfXfXfX",
"fXfXfXfXfXfXfXfXfXfXfXfXfXfXfXfXfXfX    z j. XoXY.8.X   7 ~ %.Z.Z.%.^ 7 . X D Y.oX Xj.N     fXfXfXfXfXfXfXfXfXfXfXfXfXfXfXfXfXfX",
"fXfXfXfXfXfXfXfXfXfXfXfXfXfXfXfXfXfX    4 t.z.v.y.k   @ 7 W @.4.4.@.Q 7 .   k u.v.z.r.4     fXfXfXfXfXfXfXfXfXfXfXfXfXfXfXfXfXfX",
"fXfXfXfXfXfXfXfXfXfXfXfXfXfXfXfXfX  . * 5 S 0.e.A , 6 6 7 t g g g g t 7 7 6 a A 7.0.S l * .   fXfXfXfXfXfXfXfXfXfXfXfXfXfXfXfXfX",
"fXfXfXfXfXfXfXfXfXfXfXfXfXfXfX    . f H B j 2 - a y W T t %         $ t I W y , ; 2 l B H f +     fXfXfXfXfXfXfXfXfXfXfXfXfXfXfX",
"fXfXfXfXfXfXfXfXfXfXfXfXfXfX    O 5 H L H 1     7 ~ #.@.E $         $ E @.#.~ 0     1 G L H 5 X     fXfXfXfXfXfXfXfXfXfXfXfXfXfX",
"fXfXfXfXfXfXfXfXfXfXfXfXfX2 j m Z S G G 5 $   # I O.D.D.X.t o     . h ` Z.D.O.I #   * 5 H G F Z m j 2 fXfXfXfXfXfXfXfXfXfXfXfXfX",
"fXfXfXfXfXfXfXfXfXfXfXfX  Z w.l.x.h.S 5 $ # 7 I | C.F.S.*.~ y 0 t y ` *.S.F.B.| T 6 # $ 5 S h.x.l.w.m   fXfXfXfXfXfXfXfXfXfXfXfX",
"fXfXfXfXfXfXfXfXfXfXfX    Z x.'.'.U.D X . 6 W @.=.S.V.V.=.#. .` `  .#.&.V.V.V.=.@.W 6 . X 8.U.'.'.x.Z     fXfXfXfXfXfXfXfXfXfXfX",
"fXfXfXfXfXfXfXfXfXfXfX    D ~.0XiX].5.  . q | -.;.=.o.o.o.@.@.@. . .@.o.o.o.=.D.-. .q .   5.].tXqX~.D     fXfXfXfXfXfXfXfXfXfXfX",
"fXfXfXfXfXfXfXfXfXfXfX    D ~.qXiX].5.  @ P O.D.;.X.u u r E Q _ _ Q E u u u X.;.D.O.P @   6.].iXqX~.D     fXfXfXfXfXfXfXfXfXfXfX",
"fXfXfXfXfXfXfXfXfXfXfX    D ~.6X;X].5.  @ R +.-.$.u $     % 8 9 0 8 $ .   + u $.A.+.U @   6.!.wX6X~.D     fXfXfXfXfXfXfXfXfXfXfX",
"fXfXfXfXfXfXfXfXfXfXfX    D U.:X;XW.V   # R +.B.$.h                         h o.=.+.R #   V W.;X*XU.D     fXfXfXfXfXfXfXfXfXfXfX",
"fXfXfXfXfXfXfXfXfXfXfX    F c.*X:XW.V   # R +.V.o.y $                     $ ! $.V.+.R #   V W.:X*Xc.F     fXfXfXfXfXfXfXfXfXfXfX",
"fXfXfXfXfXfXfXfXfXfX      Z z.OX2XW.C   $ T +.V.A.@.E 9 X             . 9 E @.A.V.+.T @   V E.2X&Xc.Z       fXfXfXfXfXfXfXfXfXfX",
"fXfXfXfXfXfXfXfXfXfXfX    z k.oX@XY.C   @ r o.V.F.C. .E 9 .           9 E  .Z.F.V.+.u @   c Y.OXoXk.N     fXfXfXfXfXfXfXfXfXfXfX",
"fXfXfXfXfXfXfXfXfXfXfX    z i.b.[.y.j   @ r o.S.F.C.#._ t 9 .     . % y Q #.Z.F.S.o.r @   j u.[.b.j.l     fXfXfXfXfXfXfXfXfXfXfX",
"fXfXfXfXfXfXfXfXfXfXfXfX  k J t.r.c :   # R O.B.C.#.~ E y t t t t t y y E ~ #.A.C.O.R #   : Z r.t.K l   fXfXfXfXfXfXfXfXfXfXfXfX",
"fXfXfXfXfXfXfXfXfXfXfXfXfX> l l k :     % ~ %.&.#.E 0 8 t W ` #.@.` Q t 9 9 y @.&.%.~ %   X : 3 l l 1 fXfXfXfXfXfXfXfXfXfXfXfXfX",
"fXfXfXfXfXfXfXfXfXfXfXfXfXfX  .         8 W #.@.E %     h Q %.Z.Z.%._ 9     % Q @.#.Q %         .   fXfXfXfXfXfXfXfXfXfXfXfXfXfX",
"fXfXfXfXfXfXfXfXfXfXfXfXfXfXfX          $ t ) E 9       $ E @.%.%.@.E $       8 E E t %           fXfXfXfXfXfXfXfXfXfXfXfXfXfXfX",
"fXfXfXfXfXfXfXfXfXfXfXfXfXfXfXfX        + * , * X         8 y ) Q E h           % 8 % .         fXfXfXfXfXfXfXfXfXfXfXfXfXfXfXfX",
"fXfXfXfXfXfXfXfXfXfXfXfXfXfXfXfXfXfX                      . $ % $ $ .                       fXfXfXfXfXfXfXfXfXfXfXfXfXfXfXfXfXfX",
"fXfXfXfXfXfXfXfXfXfXfXfXfXfXfXfXfXfX          . . . @ .                 X . + . X           fXfXfXfXfXfXfXfXfXfXfXfXfXfXfXfXfXfX",
"fXfXfXfXfXfXfXfXfXfXfXfXfXfXfXfXfXfX    . @ 7 q P Y P q #             & i s s s a < o X     fXfXfXfXfXfXfXfXfXfXfXfXfXfXfXfXfXfX",
"fXfXfXfXfXfXfXfXfXfXfXfXfXfXfXfXfXfX    @ q Y } n.M.} { q .         . i v :.1.1.,.s i o     fXfXfXfXfXfXfXfXfXfXfXfXfXfXfXfXfXfX",
"fXfXfXfXfXfXfXfXfXfXfXfXfXfXfXfXfXfX    # Y M.N.L.N.m.} U #         & s ,.2.s.s.2.,.s &     fXfXfXfXfXfXfXfXfXfXfXfXfXfXfXfXfXfX",
"fXfXfXfXfXfXfXfXfXfXfXfXfXfXfXfXfXfX    6 ( M.N.K.L.N.M.( #         = v 1.s.I.I.I.2.s <     fXfXfXfXfXfXfXfXfXfXfXfXfXfXfXfXfXfX",
"fXfXfXfXfXfXfXfXfXfXfXfXfXfXfXfXfXfX    9 ( 3.G.J.J.G...d #       fXfXfXfXfXfXfXfXfXfXfXfXfXfXfXfXfXfXfXfXfXfXfXfXfXfXfXfXfXfXfX",
"fXfXfXfXfXfXfXfXfXfXfXfXfXfXfXfXfXfX    = d >.H.P.P.3.>.s @     fXfXfXfXfXfXfXfXfXfXfXfXfXfXfXfXfXfXfXfXfXfXfXfXfXfXfXfXfXfXfXfX",
"fXfXfXfXfXfXfXfXfXfXfXfXfXfXfXfXfXfX    & s <.d.s.s.a.<.p o     fXfXfXfXfXfXfXfXfXfXfXfXfXfXfXfXfXfXfXfXfXfXfXfXfXfXfXfXfXfXfXfX",
"fXfXfXfXfXfXfXfXfXfXfXfXfXfXfXfXfXfX    o p <.p.d.d.p.n a o     fXfXfXfXfXfXfXfXfXfXfXfXfXfXfXfXfXfXfXfXfXfXfXfXfXfXfXfXfXfXfXfX"
};
