/* XPM */
static char *result[] = {
/* columns rows colors chars-per-pixel */
"64 64 211 2 ",
"   c #006D004D007A",
".  c #0A45016B0189",
"X  c #02E705BA0996",
"o  c #0AE3010D093A",
"O  c #054909410DBA",
"+  c #09C50C0A0DEB",
"@  c #128603B80265",
"#  c #1A12008C0085",
"$  c #15D809530290",
"%  c #1C900AEE04FC",
"&  c #137B039B0BCB",
"*  c #19EC04D10D6B",
"=  c #1E180D790A0D",
"-  c #13E10C2E0AA5",
";  c #1A0012640E9D",
":  c #05AB0CA613B7",
">  c #0A230C46122D",
",  c #1D2506541117",
"<  c #021C10A5153B",
"1  c #0B4012551A77",
"2  c #078012741A46",
"3  c #12BF14751C0D",
"4  c #19CA14F415DB",
"5  c #239E027300F7",
"6  c #2CEF028B024F",
"7  c #21A70A7E0433",
"8  c #2E6309EE0246",
"9  c #2BF20E020A55",
"0  c #3C37030C0000",
"q  c #34DA0997014B",
"w  c #33F706A205C1",
"e  c #2B0012510365",
"r  c #31D1121F0719",
"t  c #34DC10E209ED",
"y  c #3AFF12AF0C27",
"u  c #2A9508391897",
"i  c #2652065C16D7",
"p  c #33B00A5C1C83",
"a  c #3927081218B7",
"s  c #22F910A811D8",
"d  c #256020B81DD5",
"f  c #073019C7276F",
"g  c #12BC198B2494",
"h  c #19521C3629D0",
"j  c #191F182B2600",
"k  c #0E981F0530B3",
"l  c #3CB80C8C217A",
"z  c #372A09C6229C",
"x  c #1FBC1EF72C62",
"c  c #2BE31D1F3047",
"v  c #0F5E1FC52E0F",
"b  c #1A11200A244E",
"n  c #120021AF2EA4",
"m  c #0EC721173144",
"M  c #04542627399A",
"N  c #10E5210F3026",
"B  c #1D9F2372344E",
"V  c #153C2B2F3C4D",
"C  c #1D5029183C8D",
"Z  c #258B26C529F9",
"A  c #22932E8A3853",
"S  c #2FC130003160",
"D  c #47E107010257",
"F  c #55AD06070856",
"G  c #4D9E1C3900EA",
"H  c #42A514D60C01",
"J  c #4A751B420CC7",
"K  c #496313780707",
"L  c #513A1559012B",
"P  c #543E19C60C41",
"I  c #53CF1C750A54",
"U  c #44BA05F41D0D",
"Y  c #4E47198C10CB",
"T  c #4553145D0FF9",
"R  c #5B371D021221",
"E  c #54AD1CB51367",
"W  c #53DB0D3B1C08",
"Q  c #6A8607120914",
"!  c #63451D930DFB",
"~  c #64AE145314B7",
"^  c #5A3C24641243",
"/  c #6A05284C0D33",
"(  c #75362BEF0568",
")  c #72F02BB10E61",
"_  c #76F629280B1C",
"`  c #7F9831780BBC",
"'  c #652B211113AF",
"]  c #6C59247114A0",
"[  c #68FA2C341340",
"{  c #75DD250A1483",
"}  c #74E828A31304",
"|  c #76342A2F1852",
" . c #7FC4348E1C26",
".. c #445A0D0E27F6",
"X. c #450A0D892743",
"o. c #58D90A2E292C",
"O. c #4A4C114F2A4B",
"+. c #4DF5113730A8",
"@. c #5BEA130E3554",
"#. c #54DC10A73038",
"$. c #699214393C02",
"%. c #66D8164B3BFA",
"&. c #6FF115F23FA9",
"*. c #02AD27964152",
"=. c #18C52E474418",
"-. c #15BF30E9475B",
";. c #1E27345B4B9A",
":. c #175735784A8B",
">. c #16AB396952E2",
",. c #1CD739495326",
"<. c #1C423E525A42",
"1. c #149038AC582D",
"2. c #223A2DBF4427",
"3. c #2BB735C94F2E",
"4. c #24A132094BAC",
"5. c #2A4736405026",
"6. c #2AF83CF15A64",
"7. c #2E253A8A5669",
"8. c #32D03A4C56A6",
"9. c #7B88185B45DB",
"0. c #25163FE35D26",
"q. c #24184AD16C55",
"w. c #2E3D41A36173",
"e. c #34D2464A68AA",
"r. c #24E94EE47168",
"t. c #2F874EDC70CB",
"y. c #31BF4BE071B6",
"u. c #3A3C4DED72AD",
"i. c #2990519976D1",
"p. c #27AF55B67D19",
"a. c #3DAD541B7BFA",
"s. c #36FB5088752A",
"d. c #3FE956BA7EE3",
"f. c #839509220C65",
"g. c #8B3809B80D4A",
"h. c #9F4A0B130F17",
"j. c #A0980B320F47",
"k. c #849734E50D69",
"l. c #83B22C7E169C",
"z. c #84B432D6115D",
"x. c #8BBB32DB1208",
"c. c #848233601A15",
"v. c #8F7F348B1819",
"b. c #928636DF11A0",
"n. c #81292EFD2270",
"m. c #831133321FB7",
"M. c #870D1AC34BFA",
"N. c #963A1DBB54A1",
"B. c #1F4558E0879E",
"V. c #2ECB5E3788B8",
"C. c #2FF65C5A84D2",
"Z. c #3C1C5AA58424",
"A. c #3F1157B9829A",
"S. c #38F660658C6D",
"D. c #2C4667BB9705",
"F. c #31FF65EF93BF",
"G. c #3BBE634F9289",
"H. c #350B6B129B1C",
"J. c #34376F48A131",
"K. c #3AA8798FAFCE",
"L. c #386A7664AB4D",
"P. c #2EF8740BAC47",
"I. c #485F5EDF8B8A",
"U. c #44F359EA847E",
"Y. c #443B6A149AAF",
"T. c #47EF686499B2",
"R. c #4AEC6D32A032",
"E. c #50C96EB9A2A5",
"W. c #4BB47165A5D1",
"Q. c #459775C3ACF1",
"!. c #540C739EA958",
"~. c #56197501AB5E",
"^. c #46D67DDDB6E9",
"/. c #53B57D33B6C8",
"(. c #3ED680A2BA9B",
"). c #4B8C822ABD00",
"_. c #45AE837FBEEC",
"`. c #53ED81DDBDC7",
"'. c #3E868C82CB39",
"]. c #3DEB85F6C1E5",
"[. c #41E887ABC4B4",
"{. c #431D88FCC691",
"}. c #4BC788C3C704",
"|. c #43558C96CBC9",
" X c #4B208C29CB93",
".X c #48C283E4C10B",
"XX c #547085DAC2FC",
"oX c #591F86CEC502",
"OX c #5A138958C938",
"+X c #52618B80CB7B",
"@X c #45AB8FE2D0A0",
"#X c #4F278FE5D15E",
"$X c #53478F29D10B",
"%X c #45C79109D272",
"&X c #4A069356D5C0",
"*X c #49509698DA59",
"=X c #4A519A07DF4B",
"-X c #5B59906FD37C",
";X c #51FC98E3DE7A",
":X c #580B9532D96A",
">X c #4C079D36E3CB",
",X c #46FE9D3CE386",
"<X c #52A39CBBE3D8",
"1X c #4DBCA180E9E2",
"2X c #5DB0A485EFBE",
"3X c #4EEDA864F5B5",
"4X c #5693ADBCFBDE",
"5X c #568CA852F37E",
"6X c #5629B183FFFF",
"7X c #5A6CB4CBFFFF",
"8X c None",
/* pixels */
"8X8X8X8X8X8X8X8X8X8X8X8X8X8X8X8X8X8X8X8X8X8X8X8X8X8X8X8X8X8X8X8X8X8X8X8X8X8X8X8X8X8X8X8X8X8X8X8X8X8X8X8X8X8X8X8X8X8X8X8X8X8X8X8X",
"8X8X8X8X8X8X8X8X8X8X8X8X8X8X8X8X8X8X8X8X8X8X8X8X8X8X8X8X8X8X8X8X8X8X8X8X8X8X8X8X8X8X8X8X8X8X8X8X8X8X8X8X8X8X8X8X8X8X8X8X8X8X8X8X",
"8X8X8X8X8X8X8X8X8X8X8X8X8X8X8X8X8X8X8X8X8X8X8X8X8X8X8X8X8X8X8X8X8X8X8X8X8X8X8X8X8X8X8X8X8X8X8X8X8X8X8X8X8X8X8X8X8X8X8X8X8X8X8X8X",
"8X8X8X8X8X8X8X8X8X8X8X8X8X8X8X8X8X8X8X8X8X8X8X8X8X8X8X8X8X8X8X8X8X8X8X8X8X8X8X8X8X8X8X8X8X8X8X8X8X8X8X8X8X8X8X8X8X8X8X8X8X8X8X8X",
"8X8X8X8X8X8X8X8X8X8X8X8X8X8X8X8X8X8X8X8X8X8X8X8X8X8X8X8X8X8X8X8X8X8X8X8X8X8X8X8X8X8X8X8X8X8X8X8X8X8X8X8X8X8X8X8X8X8X8X8X8X8X8X8X",
"8X8X8X8X8X8X8X8X8X8X8X8X8X8X8X8X8X8X8X8X8X8X8X8X8X8X8X8X8X8X8X8X8X8X8X8X8X8X8X8X8X8X8X8X8X8X8X8X8X8X8X8X8X8X8X8X8X8X8X8X8X8X8X8X",
"8X8X8X8X8X8X8X8X8X8X8X8X8X8X8X8X8X8X8X8X8X8X8X8X8X8X8X8X8X8X8X8X8X8X8X8X8X8X8X8X8X8X8X8X8X8X8X8X8X8X8X8X8X8X8X8X8X8X8X8X8X8X8X8X",
"8X8X8X8X8X8X8X8X8X8X8X8X          8X8X8X8X8X8X8X8X8X8X8X8X8X8X8X8X8X8X8X8X8X8X8X8X8X8X8X8X8X8X          8X8X8X8X8X8X8X8X8X8X8X8X",
"8X8X8X8X8X8X8X8X8X8X8X            8X8X8X8X8X8X8X8X8X8X8X8X8X8X8X8X8X8X8X8X8X8X8X8X8X8X8X8X8X8X            8X8X8X8X8X8X8X8X8X8X8X",
"8X8X8X8X8X8X8X8X8X8X8X    . . @ # # 8X8X8X8X8X8X8X8X8X8X8X8X8X8X8X8X8X8X8X8X8X8X8X8X8X8X8X8X# # @ . .     8X8X8X8X8X8X8X8X8X8X8X",
"8X8X8X8X8X8X8X8X8X8X      @ w D F 0 # 8X8X8X8X8X8X8X8X    8X8X8X8X8X8X    8X8X8X8X8X8X8X8X# D F D w @       8X8X8X8X8X8X8X8X8X8X",
"8X8X8X8X8X8X8X8X8X8X      5 F f.g.F 5     8X8X8X8X8X                        8X8X8X8X8X    5 F f.Q F 5       8X8X8X8X8X8X8X8X8X8X",
"8X8X8X8X8X8X8X8X8X8X8X    6 Q j.h.Q 6     8X8X8X8X.                           8X8X8X8X    6 Q h.j.Q w     8X8X8X8X8X8X8X8X8X8X8X",
"8X8X8X8X8X8X8X8X8X8X8X    w Q g.f.~ a , o   8X8X8Xf v N N N k k v k k n n k v 8X8X8X  o , a ~ f.h.Q w     8X8X8X8X8X8X8X8X8X8X8X",
"8X8X8X8X8X8X8X8X8X8X8X8X8X5 0 D F W O.l p #     f >.q.i.i.r.q.q.q.q.r.i.i.q.>.2     # p O.O.W F D 0 5 8X8X8X8X8X8X8X8X8X8X8X8X8X",
"8X8X8X8X8X8X8X8X8X8X8X8X8X8X  . * z @.9.o.6     M p.K.{.{.(.K.L.L.K._.[.{.K.p.M     6 o.9.+.l * .   8X8X8X8X8X8X8X8X8X8X8X8X8X8X",
"8X8X8X8X8X8X8X8X8X8X8X8X8X8X      i #.$.o.w @ : >.D.=X4X4X1X=X&X&X=X1X4X6X*XD.>.: @ w o.$.+.i       8X8X8X8X8X8X8X8X8X8X8X8X8X8X",
"8X8X8X8X8X8X8X8X8X8X8X8X8X8X      o u U U u x =.r.K.>X6X6X3X>X>X>X>X3X6X6X1XK.q.C x u U U u o       8X8X8X8X8X8X8X8X8X8X8X8X8X8X",
"8X8X8X8X8X8X8X8X8X8X8X8X8X8X        . @ i c 3.u.H.).*X,X>X>X*X%X&X*X>X1X>X*X_.Y.y.8.c i # .         8X8X8X8X8X8X8X8X8X8X8X8X8X8X",
"8X8X8X8X8X8X8X8X8X8X8X8X8X8XX X         3 3.d.E.`.}.|.@X|.|. X|.{.{.|.'.'.{.}.`.E.d.5.3         X X 8X8X8X8X8X8X8X8X8X8X8X8X8X8X",
"8X8X8X8X8X8X8X8X8X8X8X8X8X8X. .       < C s.W.OX$X X{.K.'.[.[.[.{.[.{.].].{. X$XOXW.s.=.:       . . 8X8X8X8X8X8X8X8X8X8X8X8X8X8X",
"8X8X8X8X8X8X8X      8X8X8X8X8X  . + g 2.y.G.).$X:X@X X'.[.{.{.[.{.{.{.].]. X%X:X$X/.G.t.=.g >     8X8X8X8X8X      8X8X8X8X8X8X8X",
"8X8X8X8X8X8X8X        8X8X8X8X  X g 3.d.W.).}.|.@X@X|.[.[. X|.|.{.|.|.|.|.|.|.%X|.}.).W.U.3.g X   8X8X8X8X        8X8X8X8X8X8X8X",
"8X8X8X8X8X8X8X      X 8X8X8X    + C u.!.OX$X|.|.'.|.|.|.|.|.|.@X|.|.|.|.|.|.|.'.|.|.$XOXE.u.A +     8X8X8XX       8X8X8X8X8X8X8X",
"8X8X8X8X8X8X8X      X 8X8X8X    > 2.Z.XX:X;X@X'.'.|.|.{.|.|.|.@X@X|.|.|.|.|.|.'.'.%X;X:XoXU.4.:     8X8X8X        8X8X8X8X8X8X8X",
"8X8X8X8X8X8X8X8X8X8XX X         : ;.G.XX<X<X&X|.[.|.|. X|.|.'.'.'.@X|.|.|.|.{.[.|.%X;X<X}.G.;.:         O X 8X8X8X8X8X8X8X8X8X8X",
"8X8X8X8X8X8X8X8X8X8X8XX         : ,.F.|.>X*X@X{.[.[.|.|.|.|.|.|.|.|.|.|.|.|.|.[.{.%X=X=X|.F.,.:         X 8X8X8X8X8X8X8X8X8X8X8X",
"8X8X8X8X8X8X8X8X8X8X8XX         : <.J.'.>X>X@X{.[.|.|.|.|. X}. X X X{. X|.|.|.[.{.%X=X,X'.H.<.:         X 8X8X8X8X8X8X8X8X8X8X8X",
"8X8X8X8X8X8X8X8X8X8X8XX         < <.J.'.1X,X@X{.[.'.|.|. X}.oXoXoXXX}.}.|.@X'.{.{. X>X,X'.J.<.:         X 8X8X8X8X8X8X8X8X8X8X8X",
"8X8X8X8X8X8X8X8X8X8X8XX         2 <.H.'.,X=X|.[.|.'.|.{.)./.~.~.~.~./.).{.|.'.'.{.|.=X,X'.J.<.<         X 8X8X8X8X8X8X8X8X8X8X8X",
"8X8X8X8X8X8X8X8X8X8X8XX         : ;.F. X,X*X@X|.|.@X|._.Q.T.I.U.U.I.T.Q._.|.@X|.{.%X=X>X|.H.;.:         X 8X8X8X8X8X8X8X8X8X8X8X",
"8X8X8X8X8X8X8X8X8X8X8X8X        : ;.S.}.<X>X@X|.@X&X+X^.G.y.6.4.4.7.y.Y.^.+X%X@X|.@X<X<X}.S.;.:         8X8X8X8X8X8X8X8X8X8X8X8X",
"8X8X8X8X8X8X8X8X8X8X8X8X8X      : C A./.:X=X@X'.%X$XoXR.y.=.f X X f =.y.R.oX-X X'.@X=X:X`.Z.=.O       8X8X8X8X8X8X8X8X8X8X8X8X8X",
"8X8X8X8X8X8X8X8X8X8X8X8X8X8X    O B u.E.OX#X|.{.}.XX~.U.4.g         f 5.U.!.XX X{.|.#XOXE.u.Z O     8X8X8X8X8X8X8X8X8X8X8X8X8X8X",
"8X8X8X8X8X8X8X8X8X8X8X8X8X8X8X  o h 5.a.W.).}. X.XW.A.8.x - .     . - Z 8.A.W..X}.}.).Y.d.3.j O   8X8X8X8X8X8X8X8X8X8X8X8X8X8X8X",
"8X8X8X8X8X8X8X8X8X8X8X8X8X8X8X8X: > j A w.T.`.XXQ.C.;.h s w 0 0 0 q q s h -.C.Q.}.`.T.e.A j > O 8X8X8X8X8X8X8X8X8X8X8X8X8X8X8X8X",
"8X8X8X8X8X8X8X8X8X8X8X8X8X8X8X8X8X8X  O C u.~./.G.1.< . 7 K ! ] { ! K 5 . 2 1.G.`.~.d.B O   8X8X8X8X8X8X8X8X8X8X8X8X8X8X8X8X8X8X",
"8X8X8X8X8X8X8X8X8X8X8X8X8X8X8X8X8X8X    3 w.I.T.y.k   . 6 P |  .n.] P 6 .   k y.T.I.8.3     8X8X8X8X8X8X8X8X8X8X8X8X8X8X8X8X8X8X",
"8X8X8X8X8X8X8X8X8X8X8X8X8X8X8X8X8X    . 3 2.w.w.2.3 . # 6 y E ^ ^ E H 6 # @ 3 2.e.0.2.3       8X8X8X8X8X8X8X8X8X8X8X8X8X8X8X8X8X",
"8X8X8X8X8X8X8X8X8X8X8X8X8X8X8X8X    $ 4 h N m h j 9 q q 8 9 , ; ; , 7 6 q w 9 j n n n b 4 $ .   8X8X8X8X8X8X8X8X8X8X8X8X8X8X8X8X",
"8X8X8X8X8X8X8X8X8X8X8X8X8X8X8X    - d S Z 2 <   7 T R Y y @         @ y E R H 7   O 1 Z S d $     8X8X8X8X8X8X8X8X8X8X8X8X8X8X8X",
"8X8X8X8X8X8X8X8X8X8X8X8X8X8XX : 3 b Z S d +   @ q ! | | Y 7         = Y | | ! q .   > b S Z b 1 : X 8X8X8X8X8X8X8X8X8X8X8X8X8X8X",
"8X8X8X8X8X8X8X8X8X8X8X8X8XX m -.:.;.A Z ; @ @ 8 L _ v.c.] y 7 @ @ 7 y [ c.v._ L 6 @ $ ; x A ;.>.-.m X 8X8X8X8X8X8X8X8X8X8X8X8X8X",
"8X8X8X8X8X8X8X8X8X8X8X    1 <.V.F.r.V + @ # q P ) x.b.k.| ' Y T T P ' } b.b.x./ P q 5 . + =.r.D.V.<.1     8X8X8X8X8X8X8X8X8X8X8X",
"8X8X8X8X8X8X8X8X8X8X8X    V C.{.@XD.*.  . 6 P { c.k.` ` } ] ' ' ' ' ] ) ` ` k.c.| P 6 .   M D.'.{.C.V     8X8X8X8X8X8X8X8X8X8X8X",
"8X8X8X8X8X8X8X8X8X8X  O v q._.4X3XP.*.  . 0 ] m. .[ ^ G I R R ' R R E I G I [  .c.] 0 . . *.P.3X5X_.q.v O   8X8X8X8X8X8X8X8X8X8X",
"8X8X8X8X8X8X8X8X  O f :.q.L.1X7X3XD.M   @ D _ c.[ G e $ 7 9 y y T y t 7 % e J [ c._ D @   *.D.3X7X1XL.r.-.f :   8X8X8X8X8X8X8X8X",
"8X8X8X8X8X8X8X    < -.p.K.1X6X4X'.B.M   # D _ ` [ r       . $ @ - @ .     . e [ ` _ D #   M B.'.4X6X1XK.p.=.:     8X8X8X8X8X8X8X",
"8X8X8X8X8X8X8X    2 <.J.<X7X5X{.D.1.f   # L ( k.[ r .                     . r / k.( L # X f 1.D.[.5X7X1XJ.<.2     8X8X8X8X8X8X8X",
"8X8X8X8X8X8X8X    2 0.Q.2X2X).C.1.f :   % L ( k.( J e X                 . 9 J ) k.( G %   < f >.C.).2X2XQ.0.1     8X8X8X8X8X8X8X",
"8X8X8X8X8X8X8X    1 0.W.-X`.Z.=.< X     7 G ( k.z.} E t &             & t E } z.k.( G %       2 -.a.`.-XW.6.1     8X8X8X8X8X8X8X",
"8X8X8X8X8X8X8X    > 3.U.E.I.3.>         = G / k.b.l.] Y 9 @         @ 9 Y ] l.b.k.( J =         > 3.I.E.U.3.:     8X8X8X8X8X8X8X",
"8X8X8X8X8X8X8X    + B 7.e.8.x           s J / x.x.| ' Y y 9 % @ @ % 9 y Y ' | x.x./ J s           Z 8.e.8.B +     8X8X8X8X8X8X8X",
"8X8X8X8X8X8X8X    X 1 h A Z 3 8X8X      % J } l.} R y t t H T Y J J T t t y R } z.} J =       8X8X4 B B h 1 X     8X8X8X8X8X8X8X",
"8X8X8X8X8X8X8X      X O > > 8X8X8X8X    % J ] | R r @ @ 9 Y ] { { ' Y 9 $ @ 9 R { ] J %     8X8X8X8X> > + X       8X8X8X8X8X8X8X",
"8X8X8X8X8X8X8X            . 8X8X8X8X    $ y R R y .     7 Y ] l.l.] Y 7     . y R R y $     8X8X8X8X              8X8X8X8X8X8X8X",
"8X8X8X8X8X8X8X8X          8X8X8X8X8X    . 7 r r $       @ t E ' ' R t @       $ t t 7 @     8X8X8X8X8X          8X8X8X8X8X8X8X8X",
"8X8X8X8X8X8X8X8X8X8X8X8X8X8X8X8X8X8X    . . $ .           % 9 t t 9 %           . . @       8X8X8X8X8X8X8X8X8X8X8X8X8X8X8X8X8X8X",
"8X8X8X8X8X8X8X8X8X8X8X8X8X8X8X8X8X8X                          . .                           8X8X8X8X8X8X8X8X8X8X8X8X8X8X8X8X8X8X",
"8X8X8X8X8X8X8X8X8X8X8X8X8X8X8X8X8X8X      . o o , * * & .             o & * , & o o .       8X8X8X8X8X8X8X8X8X8X8X8X8X8X8X8X8X8X",
"8X8X8X8X8X8X8X8X8X8X8X8X8X8X8X8X8X8X    o & i l ....l u *             * p l X...z i & .     8X8X8X8X8X8X8X8X8X8X8X8X8X8X8X8X8X8X",
"8X8X8X8X8X8X8X8X8X8X8X8X8X8X8X8X8X8X    o u ..@.$.$.@...u o         o i X.@.$.$.@.X.u &     8X8X8X8X8X8X8X8X8X8X8X8X8X8X8X8X8X8X",
"8X8X8X8X8X8X8X8X8X8X8X8X8X8X8X8X8X8X    & p @.9.M.9.9.#.p &         & p #.$.M.M.9.@.p &     8X8X8X8X8X8X8X8X8X8X8X8X8X8X8X8X8X8X",
"8X8X8X8X8X8X8X8X8X8X8X8X8X8X8X8X8X8X    * ..$.M.N.N.9.@.l *         * l %.9.N.N.M.$.l *     8X8X8X8X8X8X8X8X8X8X8X8X8X8X8X8X8X8X"
};
