/* XPM */
static char * l5_xpm[] = {
"64 64 329 2",
"  	c None",
". 	c #9E7466",
"+ 	c #FCEA41",
"@ 	c #C1B645",
"# 	c #F2CE4E",
"$ 	c #FFF242",
"% 	c #FBE440",
"& 	c #E8B752",
"* 	c #F6D856",
"= 	c #FFF149",
"- 	c #FFEC3B",
"; 	c #F9E633",
"> 	c #D9CB40",
", 	c #8C8530",
"' 	c #D9945F",
") 	c #E2A859",
"! 	c #DEA15C",
"~ 	c #DC9E75",
"{ 	c #E9BD63",
"] 	c #F4DE69",
"^ 	c #FEF69D",
"/ 	c #FEF8BD",
"( 	c #FFF7A5",
"_ 	c #FFF546",
": 	c #FFFB79",
"< 	c #83836E",
"[ 	c #DC955F",
"} 	c #DA955F",
"| 	c #DD9E5B",
"1 	c #EDC453",
"2 	c #FCF09E",
"3 	c #FFFA6B",
"4 	c #FFFB31",
"5 	c #FFF74A",
"6 	c #FFF162",
"7 	c #FEFBDA",
"8 	c #FDFDFF",
"9 	c #FFFBD6",
"0 	c #FFFFE7",
"a 	c #73703D",
"b 	c #C88A5A",
"c 	c #91694E",
"d 	c #E29D60",
"e 	c #FAE745",
"f 	c #FFF442",
"g 	c #FFF036",
"h 	c #F5EA47",
"i 	c #929E5A",
"j 	c #C4B444",
"k 	c #FFEF35",
"l 	c #FFF8A9",
"m 	c #FBFCFF",
"n 	c #FFFFA2",
"o 	c #BCB03A",
"p 	c #D6A555",
"q 	c #FFF643",
"r 	c #FFF83E",
"s 	c #ADA04E",
"t 	c #415A80",
"u 	c #2B7091",
"v 	c #2E6079",
"w 	c #53727D",
"x 	c #83A676",
"y 	c #F8EA4B",
"z 	c #FFFFFF",
"A 	c #FFFFA8",
"B 	c #B7AC28",
"C 	c #FBE347",
"D 	c #FAE843",
"E 	c #E4D446",
"F 	c #7A916C",
"G 	c #275468",
"H 	c #24334E",
"I 	c #445475",
"J 	c #426685",
"K 	c #3F869C",
"L 	c #1B517A",
"M 	c #847D36",
"N 	c #FFF480",
"O 	c #FFF9BD",
"P 	c #A7964D",
"Q 	c #11182E",
"R 	c #FFEC44",
"S 	c #FCE945",
"T 	c #525734",
"U 	c #3E496D",
"V 	c #3A5285",
"W 	c #466D8C",
"X 	c #3C7288",
"Y 	c #3D7E92",
"Z 	c #3E748D",
"` 	c #407F92",
" .	c #37605D",
"..	c #242836",
"+.	c #C5B079",
"@.	c #BBAA82",
"#.	c #C3AF8D",
"$.	c #252936",
"%.	c #4A333E",
"&.	c #1B2B4D",
"*.	c #2F3450",
"=.	c #29284D",
"-.	c #3E4971",
";.	c #415F81",
">.	c #427791",
",.	c #3B7E91",
"'.	c #223640",
").	c #292C34",
"!.	c #645952",
"~.	c #2F3038",
"{.	c #4F4D49",
"].	c #0F172B",
"^.	c #FFEE43",
"/.	c #C5A058",
"(.	c #6C9451",
"_.	c #428F46",
":.	c #288441",
"<.	c #205236",
"[.	c #1C2738",
"}.	c #1F213B",
"|.	c #323E60",
"1.	c #40859A",
"2.	c #316273",
"3.	c #32636D",
"4.	c #0B172D",
"5.	c #463E46",
"6.	c #38343F",
"7.	c #DBD33E",
"8.	c #FFE747",
"9.	c #E0B656",
"0.	c #8DCB61",
"a.	c #86E363",
"b.	c #4EC258",
"c.	c #39BD55",
"d.	c #3BC653",
"e.	c #3A8A5A",
"f.	c #2E494F",
"g.	c #273B42",
"h.	c #325B6F",
"i.	c #418FA2",
"j.	c #4798A7",
"k.	c #345E69",
"l.	c #785C57",
"m.	c #79675E",
"n.	c #171F2E",
"o.	c #11172E",
"p.	c #B7AA3F",
"q.	c #F8CA53",
"r.	c #E5A460",
"s.	c #67AB59",
"t.	c #45A24E",
"u.	c #295C3E",
"v.	c #1A4136",
"w.	c #1D4134",
"x.	c #31734E",
"y.	c #43786A",
"z.	c #42716A",
"A.	c #263A40",
"B.	c #1D3445",
"C.	c #3F8A9B",
"D.	c #408D9E",
"E.	c #2B6075",
"F.	c #433B42",
"G.	c #77605E",
"H.	c #10102C",
"I.	c #0E172C",
"J.	c #52413D",
"K.	c #B67F56",
"L.	c #E7A260",
"M.	c #D2865F",
"N.	c #5B5D45",
"O.	c #133F34",
"P.	c #131A2E",
"Q.	c #1C2336",
"R.	c #37585B",
"S.	c #38595D",
"T.	c #42726A",
"U.	c #43756A",
"V.	c #202F3A",
"W.	c #303C5D",
"X.	c #40758E",
"Y.	c #406E8A",
"Z.	c #3A617C",
"`.	c #1B2034",
" +	c #3C453E",
".+	c #4A7546",
"++	c #17212F",
"@+	c #D7935F",
"#+	c #9C6F50",
"$+	c #AD7954",
"%+	c #DC965F",
"&+	c #E29962",
"*+	c #192532",
"=+	c #355B57",
"-+	c #457B6D",
";+	c #3F7065",
">+	c #253A43",
",+	c #333F5F",
"'+	c #427490",
")+	c #3D8093",
"!+	c #418497",
"~+	c #2C5D77",
"{+	c #405D3F",
"]+	c #9DD963",
"^+	c #77D760",
"/+	c #1F553B",
"(+	c #E09861",
"_+	c #E29862",
":+	c #D68E61",
"<+	c #D9985D",
"[+	c #DC9660",
"}+	c #1D213A",
"|+	c #35445F",
"1+	c #43716A",
"2+	c #3A5366",
"3+	c #374066",
"4+	c #435179",
"5+	c #3F5B7D",
"6+	c #418A9D",
"7+	c #4499A8",
"8+	c #326481",
"9+	c #2A6A3F",
"0+	c #58D55C",
"a+	c #3CBD54",
"b+	c #266940",
"c+	c #F0CB4E",
"d+	c #FEEB45",
"e+	c #ECC052",
"f+	c #D68D61",
"g+	c #172A2D",
"h+	c #27354F",
"i+	c #3E4F7C",
"j+	c #2E3E63",
"k+	c #3D4A73",
"l+	c #425179",
"m+	c #3A4A73",
"n+	c #3E486F",
"o+	c #2B445D",
"p+	c #2A5566",
"q+	c #2B4C61",
"r+	c #2B403D",
"s+	c #236B40",
"t+	c #1B4736",
"u+	c #161B2E",
"v+	c #E3AC58",
"w+	c #EABD53",
"x+	c #DFA25B",
"y+	c #1C3334",
"z+	c #297E43",
"A+	c #32333E",
"B+	c #564F59",
"C+	c #594F51",
"D+	c #202638",
"E+	c #252C43",
"F+	c #434250",
"G+	c #5C504F",
"H+	c #866F56",
"I+	c #7A6150",
"J+	c #826A54",
"K+	c #4B4041",
"L+	c #100A26",
"M+	c #4C3C47",
"N+	c #1F2332",
"O+	c #D89160",
"P+	c #1E4B38",
"Q+	c #272D37",
"R+	c #312E38",
"S+	c #5A4E4E",
"T+	c #38353D",
"U+	c #39353E",
"V+	c #393641",
"W+	c #343B55",
"X+	c #3C435A",
"Y+	c #3B435B",
"Z+	c #384058",
"`+	c #283A5B",
" @	c #293B50",
".@	c #403E44",
"+@	c #1C2031",
"@@	c #9D7466",
"#@	c #171C2E",
"$@	c #474047",
"%@	c #1A1F31",
"&@	c #645553",
"*@	c #20263B",
"=@	c #34436A",
"-@	c #415079",
";@	c #414F7A",
">@	c #3F597E",
",@	c #3D758F",
"'@	c #408094",
")@	c #2D5568",
"!@	c #122336",
"~@	c #A97A65",
"{@	c #4E4649",
"]@	c #453F45",
"^@	c #2D2D39",
"/@	c #3F3A42",
"(@	c #12192C",
"_@	c #191F31",
":@	c #1C2338",
"<@	c #232B43",
"[@	c #1C2539",
"}@	c #172232",
"|@	c #172032",
"1@	c #121325",
"2@	c #9F7566",
"3@	c #B68163",
"4@	c #151C2E",
"5@	c #191E2F",
"6@	c #11192C",
"7@	c #171D2F",
"8@	c #151B2D",
"9@	c #151B2C",
"0@	c #14192A",
"a@	c #151A2C",
"b@	c #161A2D",
"c@	c #161B2D",
"d@	c #171E30",
"e@	c #161C2E",
"f@	c #977067",
"g@	c #AA7B65",
"h@	c #C38862",
"i@	c #D5925F",
"j@	c #C18762",
"k@	c #171D2E",
"l@	c #161D2F",
"m@	c #9F7466",
"n@	c #AA7A65",
"                                                                                                                                ",
"                                                                                                                                ",
"                                                                                                                                ",
"                                                                                                                                ",
"                                                                                                                                ",
"                                                                                                                                ",
"                                                                                                                                ",
"                                                                                                                                ",
"                                                                                                . .                             ",
"                                                                                                                                ",
"                                                                                                                                ",
"                                                                                                                                ",
"                                                                                                                                ",
"                                                    .               . . . .                                                     ",
"                                                . . .                 .                                                         ",
"                                                                                                                                ",
"                                                                                                                                ",
"                                                                                                                                ",
"                                                                                                                                ",
"                                                                                                                                ",
"                                                                                                                                ",
"                                                            +   @                                                               ",
"                                          .       # $ % & * = - ; > ,                                                           ",
"                                        .       ' ) ! ~ { ] ^ / ( _ : <                                                         ",
"                                              [ } | 1 2 3 4 5 6 7 8 9 0 a                                                       ",
"                                            b c d e f g h i j - k l m n o                                                       ",
"                                                p q r s t u v w x y z A B                                                       ",
"                                              C D E F G H I J K L M N O P Q                                                     ",
"                                          R S   T U V W X Y Z `  ...+.@.#.$.                                                    ",
"                    .                           %.&.*.=.-.;.>.,.'.).!.~.{.].                                                    ",
"                  . .                     f ^./.(._.:.<.[.}.|.1.2.3.4.5.6.                                                      ",
"                  .                     7.8.9.0.a.b.c.d.e.f.g.h.i.j.k.l.m.n.                                                    ",
"                                    o.p.q.r.s.t.u.v.w.x.y.z.A.B.C.D.E.F.G.H.                                                    ",
"                                I.J.K.L.M.N.O.P.  Q.R.S.T.U.V.W.X.Y.Z.`. +.+++                                                  ",
"                            @+#+$+%+&+            *+=+-+;+>+,+'+)+!+~+{+]+^+/+                                                  ",
"                            ' (+_+:+<+  [+        }+|+1+2+3+4+5+6+7+8+9+0+a+b+                                                  ",
"                  .               c+d+e+f+      g+h+i+j+k+l+m+n+o+p+q+r+s+t+u+                                                  ",
"                  . .           v+w+x+        y+z+A+B+C+D+E+F+G+H+I+J+K+L+M+N+                                                  ",
"                    .       ' ' O+              P+Q+R+S+T+U+V+W+X+Y+Z+`+ @.@+@                                                  ",
"                    @@                            #@$@%@&@*@=@-@;@>@,@'@)@!@                                                    ",
"                    ~@                            {@]@^@/@(@_@:@<@[@}@|@1@                                                      ",
"                    2@3@                        4@5@6@(@].7@8@9@0@a@b@c@d@e@e@e@                                                ",
"                      f@g@h@i@j@                e@4@k@k@7@e@e@e@l@e@e@e@e@e@e@e@                                                ",
"                          m@n@                      e@e@e@e@e@e@e@e@e@e@e@e@                                                    ",
"                                                                                                                                ",
"                                                                                                                                ",
"                                                                                                                                ",
"                                                                                                                                ",
"                                                                                                                                ",
"                                                                                                                                ",
"                                                                                                                                ",
"                                                                                                                                ",
"                                                                                                                                ",
"                                                                                                                                ",
"                                                                                                                                ",
"                                                                                                                                ",
"                                                                                                                                ",
"                                                                                                                                ",
"                                                                                                                                ",
"                                                                                                                                ",
"                                                                                                                                ",
"                                                                                                                                ",
"                                                                                                                                ",
"                                                                                                                                "};
