/* XPM */
static char * d0_xpm[] = {
"64 64 384 2",
"  	c None",
". 	c #D9945F",
"+ 	c #F9DF48",
"@ 	c #DA9660",
"# 	c #DB985E",
"$ 	c #D89160",
"% 	c #F6D94A",
"& 	c #FFEC44",
"* 	c #FDE746",
"= 	c #ECC151",
"- 	c #F9DD45",
"; 	c #FFEC43",
"> 	c #F0CB4E",
", 	c #DC9C5C",
"' 	c #DB975E",
") 	c #DC9C5D",
"! 	c #E1A759",
"~ 	c #FCE23C",
"{ 	c #FFFA97",
"] 	c #FFF173",
"^ 	c #FFF539",
"/ 	c #FADC4C",
"( 	c #DCA05A",
"_ 	c #D89060",
": 	c #181E2E",
"< 	c #264758",
"[ 	c #2D5B6D",
"} 	c #1D2C3F",
"| 	c #F3EBC0",
"1 	c #FFFFE8",
"2 	c #FAE864",
"3 	c #F1BA52",
"4 	c #8D7842",
"5 	c #D5925E",
"6 	c #28444E",
"7 	c #468F92",
"8 	c #4391A4",
"9 	c #366078",
"0 	c #182233",
"a 	c #131D31",
"b 	c #CECFCE",
"c 	c #FFFFFB",
"d 	c #FFF672",
"e 	c #A37847",
"f 	c #2D4F58",
"g 	c #50A1A8",
"h 	c #294359",
"i 	c #213A4C",
"j 	c #313858",
"k 	c #2E3755",
"l 	c #151B2C",
"m 	c #9D942E",
"n 	c #FFFFC2",
"o 	c #FFFFB8",
"p 	c #7C7724",
"q 	c #2A3535",
"r 	c #EAA165",
"s 	c #10314A",
"t 	c #4A989E",
"u 	c #44889D",
"v 	c #345A73",
"w 	c #316274",
"x 	c #367183",
"y 	c #44567E",
"z 	c #242C45",
"A 	c #1D2931",
"B 	c #0E1322",
"C 	c #A69F54",
"D 	c #FFFFA9",
"E 	c #C8B463",
"F 	c #2A2D38",
"G 	c #394D3C",
"H 	c #45924C",
"I 	c #123332",
"J 	c #A37052",
"K 	c #EC985A",
"L 	c #6C837E",
"M 	c #408897",
"N 	c #30535F",
"O 	c #213E4F",
"P 	c #233E4F",
"Q 	c #2B4F62",
"R 	c #394166",
"S 	c #404C73",
"T 	c #1E263B",
"U 	c #14202F",
"V 	c #338247",
"W 	c #38563E",
"X 	c #5C5349",
"Y 	c #DFC681",
"Z 	c #FFF4BC",
"` 	c #9E8E71",
" .	c #16162E",
"..	c #72B257",
"+.	c #47BC56",
"@.	c #1A3E39",
"#.	c #7B6153",
"$.	c #BE9770",
"%.	c #303C5F",
"&.	c #244156",
"*.	c #25465A",
"=.	c #2D5C6E",
"-.	c #305F71",
";.	c #335D73",
">.	c #41577B",
",.	c #292F4E",
"'.	c #1D2E36",
").	c #37A251",
"!.	c #78C95C",
"~.	c #2B3435",
"{.	c #413E41",
"].	c #E1CB9B",
"^.	c #B9AC85",
"/.	c #C5AF84",
"(.	c #414F3D",
"_.	c #68CC5C",
":.	c #357E5B",
"<.	c #1F445A",
"[.	c #468895",
"}.	c #519FA3",
"|.	c #57B2B1",
"1.	c #52AAAD",
"2.	c #4896A2",
"3.	c #407691",
"4.	c #406986",
"5.	c #42537A",
"6.	c #2A344D",
"7.	c #34685D",
"8.	c #67D15F",
"9.	c #4E6643",
"0.	c #464343",
"a.	c #8A7A63",
"b.	c #454040",
"c.	c #776E5E",
"d.	c #1D2333",
"e.	c #13132C",
"f.	c #3A8B4C",
"g.	c #3E7C60",
"h.	c #4B8A8D",
"i.	c #57B4B0",
"j.	c #55B1AE",
"k.	c #4A9AA1",
"l.	c #47969E",
"m.	c #438998",
"n.	c #3F5076",
"o.	c #434C76",
"p.	c #414974",
"q.	c #405470",
"r.	c #3F7567",
"s.	c #449C54",
"t.	c #253634",
"u.	c #0F162B",
"v.	c #0C1329",
"w.	c #484147",
"x.	c #1E2131",
"y.	c #17212E",
"z.	c #2E515D",
"A.	c #57AFAA",
"B.	c #48959D",
"C.	c #264460",
"D.	c #346E84",
"E.	c #3E8599",
"F.	c #3F6685",
"G.	c #3F5177",
"H.	c #2D3657",
"I.	c #3C6681",
"J.	c #435A80",
"K.	c #314256",
"L.	c #172631",
"M.	c #423C44",
"N.	c #8A7166",
"O.	c #3A373F",
"P.	c #294C5E",
"Q.	c #4FA4A7",
"R.	c #418C9C",
"S.	c #1D3245",
"T.	c #1E482E",
"U.	c #1B2E35",
"V.	c #212F45",
"W.	c #22233F",
"X.	c #1F2A3C",
"Y.	c #273E43",
"Z.	c #1D3544",
"`.	c #397287",
" +	c #41547B",
".+	c #2E3555",
"++	c #494148",
"@+	c #907669",
"#+	c #3F3941",
"$+	c #131629",
"%+	c #346A79",
"&+	c #57B5B7",
"*+	c #2A5367",
"=+	c #24343D",
"-+	c #3DA95D",
";+	c #35AB4D",
">+	c #298543",
",+	c #2B8644",
"'+	c #349F4C",
")+	c #428269",
"!+	c #191B2C",
"~+	c #2B5767",
"{+	c #428299",
"]+	c #3E4A71",
"^+	c #1B2337",
"/+	c #171C2F",
"(+	c #392F40",
"_+	c #273037",
":+	c #131E2D",
"<+	c #1C2B3D",
"[+	c #3A7B8D",
"}+	c #284E61",
"|+	c #2A4144",
"1+	c #3B6063",
"2+	c #2F7544",
"3+	c #6FD65F",
"4+	c #3BB854",
"5+	c #37B64F",
"6+	c #346F53",
"7+	c #43706B",
"8+	c #1F2F39",
"9+	c #397388",
"0+	c #334361",
"a+	c #141729",
"b+	c #456141",
"c+	c #5B7E48",
"d+	c #1D4938",
"e+	c #255E3D",
"f+	c #1C2C3E",
"g+	c #376D81",
"h+	c #1C2A3D",
"i+	c #335654",
"j+	c #233841",
"k+	c #78A853",
"l+	c #54C85A",
"m+	c #267E41",
"n+	c #2F4C50",
"o+	c #2D4949",
"p+	c #1F3A4B",
"q+	c #2F5067",
"r+	c #181A2E",
"s+	c #10152C",
"t+	c #3A8748",
"u+	c #9BF169",
"v+	c #476543",
"w+	c #142B31",
"x+	c #15192B",
"y+	c #365F76",
"z+	c #3C5879",
"A+	c #2B3348",
"B+	c #243E49",
"C+	c #5F804B",
"D+	c #6AD65E",
"E+	c #1A473B",
"F+	c #2C3E49",
"G+	c #223A4A",
"H+	c #3F6080",
"I+	c #354162",
"J+	c #277242",
"K+	c #3ECA57",
"L+	c #2C6940",
"M+	c #110A2A",
"N+	c #17202F",
"O+	c #161C2E",
"P+	c #192335",
"Q+	c #418E9D",
"R+	c #42859A",
"S+	c #3D6581",
"T+	c #3C4C70",
"U+	c #2A364B",
"V+	c #2B863A",
"W+	c #31465A",
"X+	c #394469",
"Y+	c #415176",
"Z+	c #46537D",
"`+	c #39476D",
" @	c #161E32",
".@	c #1D3734",
"+@	c #1E4738",
"@@	c #162630",
"#@	c #151C2E",
"$@	c #193E56",
"%@	c #377F93",
"&@	c #3B8B9C",
"*@	c #43849C",
"=@	c #3D4B72",
"-@	c #2A3755",
";@	c #3F4E73",
">@	c #43527C",
",@	c #32416C",
"'@	c #283351",
")@	c #2B2F3F",
"!@	c #212333",
"~@	c #151F2E",
"{@	c #2C7A44",
"]@	c #1F4237",
"^@	c #392F3E",
"/@	c #463E45",
"(@	c #423D43",
"_@	c #756152",
":@	c #37424B",
"<@	c #344954",
"[@	c #274A5B",
"}@	c #2D3A55",
"|@	c #38415B",
"1@	c #2E3854",
"2@	c #2F364E",
"3@	c #6D645C",
"4@	c #786454",
"5@	c #4F4544",
"6@	c #1F1830",
"7@	c #24623E",
"8@	c #41D95A",
"9@	c #349F4D",
"0@	c #171F2F",
"a@	c #2A2C38",
"b@	c #34333C",
"c@	c #1B1C2F",
"d@	c #65554F",
"e@	c #5F4F48",
"f@	c #89735D",
"g@	c #614D4B",
"h@	c #554D46",
"i@	c #C09F77",
"j@	c #302F35",
"k@	c #423B40",
"l@	c #5C534C",
"m@	c #3B3E4D",
"n@	c #283556",
"o@	c #202742",
"p@	c #182C2E",
"q@	c #2F8948",
"r@	c #2D8045",
"s@	c #15192D",
"t@	c #2C4C63",
"u@	c #2D627F",
"v@	c #2C5071",
"w@	c #202948",
"x@	c #222532",
"y@	c #615851",
"z@	c #4C4449",
"A@	c #4E464A",
"B@	c #242635",
"C@	c #233258",
"D@	c #3E4D76",
"E@	c #44527A",
"F@	c #374466",
"G@	c #15162D",
"H@	c #161A2E",
"I@	c #182032",
"J@	c #356F80",
"K@	c #336978",
"L@	c #325669",
"M@	c #19243E",
"N@	c #87745F",
"O@	c #5C524F",
"P@	c #00001B",
"Q@	c #494147",
"R@	c #4C4348",
"S@	c #1A233B",
"T@	c #252D45",
"U@	c #171E30",
"V@	c #191F33",
"W@	c #1A2537",
"X@	c #141527",
"Y@	c #131324",
"Z@	c #0F1629",
"`@	c #5F574F",
" #	c #464243",
".#	c #0E162B",
"+#	c #131A2D",
"@#	c #2D2D39",
"##	c #171C2D",
"$#	c #121828",
"%#	c #161B2D",
"&#	c #151B2D",
"*#	c #151A2C",
"=#	c #161D2F",
"-#	c #171D2F",
";#	c #0A1228",
">#	c #12192C",
",#	c #181E2F",
"'#	c #181D2F",
")#	c #171D2E",
"                                                                                                                                ",
"                                                                                                                                ",
"                                                                                                                                ",
"                                                                                                                                ",
"                                                                                                                                ",
"                                                                                                                                ",
"                                                                                                                                ",
"                                                                                                                                ",
"                                                                                                                                ",
"                                                                                                                                ",
"                                                                                                                                ",
"                                                                                                                                ",
"                                                                                                                                ",
"                                                                                                                                ",
"                                                                                                                                ",
"                                                                                                                                ",
"                                                                                                                                ",
"                                      . +                                                                                       ",
"                                  @ # $ % & *                                                                                   ",
"                                = - ; > , ' ) !                                                                                 ",
"                                ~ { ] ^ / ( _ $ .           : < [ }                                                             ",
"                                | 1 2 3 4     5 .         6 7 8 9 0                                                             ",
"                              a b c d e                 f g h i j k l                                                           ",
"                                m n o p     q     r   s t u v w x y z         A                                                 ",
"                                B C D E F   G H I J K L M N O P Q R S T   U V W                                                 ",
"                                  X Y Z `    ...+.@.#.$.%.&.*.=.-.;.>.,.'.).!.~.                                                ",
"                                  {.].^./.    (._.:.<.[.}.|.1.2.3.4.5.6.7.8.9.                                                  ",
"                                  0.a.b.c.d.  e.f.g.h.i.j.k.l.m.n.o.p.q.r.s.t.                                                  ",
"                                  u.v.w.x.      y.z.A.B.C.D.E.F.G.H.I.J.K.L.                                                    ",
"                                    M.N.O.      P.Q.R.S.T.U.V.W.X.Y.Z.`. +.+                                                    ",
"                                    ++@+#+    $+%+&+*+=+-+;+>+,+'+)+!+~+{+]+^+                                                  ",
"                                    /+(+_+:+    <+[+}+|+1+2+3+4+5+6+7+8+9+0+a+                                                  ",
"                                    b+c+d+e+      f+g+h+i+j+k+l+m+n+o+p+q+r+                                                    ",
"                                  s+t+u+v+w+      x+y+z+A+B+C+D+E+F+G+H+I+                                                      ",
"                                    J+K+L+M+N+O+x+P+Q+R+S+T+U+V+W+X+Y+Z+`+ @                                                    ",
"                                    .@+@@@      O+#@$@%@&@*@=@-@;@>@,@'@)@!@~@{@]@                                              ",
"                                      ^@/@        (@_@:@<@[@}@|@1@2@3@4@5@6@7@8@9@0@                                            ",
"                                      a@b@        c@d@e@f@g@h@i@j@k@l@m@n@o@p@q@r@s@                                            ",
"                                                  t@u@v@w@x@y@z@A@B@C@D@E@F@G@  H@                                              ",
"                                                I@J@K@L@M@N@O@P@Q@R@S@T@U@V@                                                    ",
"                                                  W@X@Y@Z@`@ #.#+#@###$#%#&#                                                    ",
"                                                O+*#=#U@-#;#.#-#O+>#O+=#O+O+O+O+                                                ",
"                                                O+O+O+O+O+,#'#O+O+)#O+O+O+O+O+O+                                                ",
"                                                    O+O+O+O+O+O+O+O+O+O+O+O+                                                    ",
"                                                                                                                                ",
"                                                                                                                                ",
"                                                                                                                                ",
"                                                                                                                                ",
"                                                                                                                                ",
"                                                                                                                                ",
"                                                                                                                                ",
"                                                                                                                                ",
"                                                                                                                                ",
"                                                                                                                                ",
"                                                                                                                                ",
"                                                                                                                                ",
"                                                                                                                                ",
"                                                                                                                                ",
"                                                                                                                                ",
"                                                                                                                                ",
"                                                                                                                                ",
"                                                                                                                                ",
"                                                                                                                                ",
"                                                                                                                                "};
