/* XPM */
static char *result[] = {
/* columns rows colors chars-per-pixel */
"64 64 225 2 ",
"   c #008C00660086",
".  c #0B9301930129",
"X  c #01A204330936",
"o  c #057808570BAD",
"O  c #0E2206060737",
"+  c #142C01DF0100",
"@  c #1ADB01B70186",
"#  c #14BE081F0435",
"$  c #1CD408B7046C",
"%  c #12B603D30B30",
"&  c #133D0BDE0856",
"*  c #1B86069D0886",
"=  c #061E0D7913DA",
"-  c #0A6B0C7511F9",
";  c #00000C08181C",
":  c #12FE0C871367",
">  c #1AE40BB51184",
",  c #155C0382105F",
"<  c #097E10991686",
"1  c #02EF136D1BEF",
"2  c #09BB1132195A",
"3  c #12A615C31B8A",
"4  c #18DD19ED1A9C",
"5  c #23B401190134",
"6  c #2B3702F60149",
"7  c #241E0AB9066D",
"8  c #237B0B64089C",
"9  c #2B1B087107FE",
"0  c #34D5025C01F4",
"q  c #339003EA0A8D",
"w  c #36DF0A4702CE",
"e  c #3CD011DB03AE",
"r  c #33C511190AFC",
"t  c #3BC113040C9D",
"y  c #376B16FB03D9",
"u  c #2C040A421E27",
"i  c #210F09BC1402",
"p  c #38560954197C",
"a  c #31F804F7149E",
"s  c #2136184118B6",
"d  c #379316AD1299",
"f  c #2CD8124F05FF",
"g  c #0B881A8C2859",
"h  c #12BB15DF2192",
"j  c #14DB17B1224A",
"k  c #13D81D262C0C",
"l  c #1B4A1F9C2EF7",
"z  c #0C151F0833B6",
"x  c #38990B042183",
"c  c #2DD813BD2518",
"v  c #0F45210F2EA8",
"b  c #000022212C97",
"n  c #138D1FFD2D82",
"m  c #1F6425A6279D",
"M  c #09AE253C3BD2",
"N  c #148323EA3512",
"B  c #13EF29CF3D35",
"V  c #1A6E26A136F5",
"C  c #2946290C2A3B",
"Z  c #258726AD25B8",
"A  c #23CB2A503DE8",
"S  c #25E0288B3880",
"D  c #310330C23171",
"F  c #449B04310239",
"G  c #4BD8048A044D",
"H  c #47D40C000405",
"J  c #565404AE049F",
"K  c #44B010AB0372",
"L  c #4B7E12980000",
"P  c #430715C60D37",
"I  c #4ABB14990AFD",
"U  c #4BB118310F04",
"Y  c #405918340A2D",
"T  c #538F1A7B0D70",
"R  c #5619159805AE",
"E  c #46DD0DEE1F74",
"W  c #45B608A8140D",
"Q  c #4938175D10C5",
"!  c #50CF19B61073",
"~  c #5C221CDB1399",
"^  c #5D1D0C1D181E",
"/  c #6BAC076809EF",
"(  c #695507820A82",
")  c #7A0206D1069C",
"_  c #63C51D8B0C2F",
"`  c #63051ED41580",
"'  c #7F5C0B3314B4",
"]  c #59D723950FF5",
"[  c #67DC27D8087C",
"{  c #757027BF0A42",
"}  c #739F282106FD",
"|  c #65FC21EB13F3",
" . c #6B2D238913E3",
".. c #67FC2990144A",
"X. c #7395257A15BF",
"o. c #7CC42C0F1423",
"O. c #747A2B5113B1",
"+. c #7C0C32041068",
"@. c #7EB630331D76",
"#. c #776B31A518DC",
"$. c #5AEC0CB62AD8",
"%. c #5105077F21F7",
"&. c #4B710FF92F50",
"*. c #5F7B0FCF2B2E",
"=. c #47C710E3335B",
"-. c #578C156E3604",
";. c #4A79098525DF",
":. c #6FBE0D952047",
">. c #76460EBA2201",
",. c #6E2A14843A93",
"<. c #727A2C5022FC",
"1. c #035A28B741E5",
"2. c #0134271F415B",
"3. c #1DFA2E6345A9",
"4. c #10D52D3E3FF2",
"5. c #099030B94245",
"6. c #1B81363F4EBF",
"7. c #1C5B3A04543E",
"8. c #1BAC3D92596B",
"9. c #26362BAF40D4",
"0. c #23E632BA4BBE",
"q. c #2ACF35C24DE6",
"w. c #23A93CA15B01",
"e. c #2C593D585BA7",
"r. c #32F93ECD5C18",
"t. c #5B7416C24614",
"y. c #69E417B745D0",
"u. c #75C718EF49DD",
"i. c #6A411A71516C",
"p. c #22AA43355DED",
"a. c #1BEF47E46590",
"s. c #297C438E6532",
"d. c #34B1450165C2",
"f. c #3A8A49ED6CB0",
"g. c #39B94D947352",
"h. c #29F25364786B",
"j. c #345855557AFA",
"k. c #3D6D53527B49",
"l. c #26CF4E2F71F7",
"z. c #450557BA7FD1",
"x. c #884D07E0074B",
"c. c #97C009910BA4",
"v. c #98E50B040FA2",
"b. c #87B10C971627",
"n. c #A9410B0A0D5E",
"m. c #BE2F0C6C0F07",
"M. c #B68B10BA1DC5",
"N. c #A8030EB91B4E",
"B. c #84712D5C0F39",
"V. c #86B235690EA5",
"C. c #82492DDD15FA",
"Z. c #813B2AC21AF7",
"A. c #837B32A7144E",
"S. c #8B27354C1364",
"D. c #853A335D1BB0",
"F. c #91F537411557",
"G. c #997712D22C41",
"H. c #86C016493CFC",
"J. c #AF2215713284",
"K. c #C4A30CD10F87",
"L. c #C7EC11DD208A",
"P. c #9132180341B7",
"I. c #2B6C5CB38620",
"U. c #32ED542D806F",
"Y. c #3A42572E8178",
"T. c #3D165AA88542",
"R. c #34CB5E3B8AFE",
"E. c #28865E8590BB",
"W. c #3685616C8D32",
"Q. c #272A678E9A67",
"!. c #33036522925C",
"~. c #31F46B7A9BA9",
"^. c #395F61BC922A",
"/. c #288863E48E5B",
"(. c #3F096BFCA061",
"). c #391F7099A3ED",
"_. c #34FB74A8A75B",
"`. c #3D9F7D84B601",
"'. c #28106F82A6F9",
"]. c #408957D082D6",
"[. c #449661658E73",
"{. c #49C265599506",
"}. c #49B6682C98D7",
"|. c #523F69619ADB",
" X c #4AEA74F3AABF",
".X c #498F7523AB2C",
"XX c #521A7212A6B6",
"oX c #4CBE7C2EB564",
"OX c #44DD7EC4B8DE",
"+X c #53ED7B9FB49F",
"@X c #59827DADB766",
"#X c #56EC7F79BA73",
"$X c #551F7BEAB6DF",
"%X c #53C98355BF69",
"&X c #498181B4BB28",
"*X c #3E8C8678C2AB",
"=X c #3EEA8946C6AC",
"-X c #3EA58CE8CBCE",
";X c #44408746C45E",
":X c #4B9B86BCC3FF",
">X c #424A88AAC629",
",X c #43788C7DCBA9",
"<X c #4B458BE2CB4C",
"1X c #5232863BC4B5",
"2X c #513D88B2C725",
"3X c #56C98BCACBA0",
"4X c #583B8B6FCC46",
"5X c #46CF8FC1D095",
"6X c #4C8C8F8DD100",
"7X c #458B91DCD33C",
"8X c #49779154D2B2",
"9X c #4A95977CDB4B",
"0X c #4A899A69DF99",
"qX c #42529653DB36",
"wX c #566B9375D706",
"eX c #4C9E9C34E28F",
"rX c #48219DE6E50A",
"tX c #51239B72E1EC",
"yX c #59379B4CE259",
"uX c #4B6CA2AFEC83",
"iX c #50C8A12EEA7D",
"pX c #5118A8B7F4B3",
"aX c #5049A7D0F391",
"sX c #587BB425FFFF",
"dX c None",
/* pixels */
"dXdXdXdXdXdXdXdXdXdXdXdXdXdXdXdXdXdXdXdXdXdXdXdXdXdXdXdXdXdXdXdXdXdXdXdXdXdXdXdXdXdXdXdXdXdXdXdXdXdXdXdXdXdXdXdXdXdXdXdXdXdXdXdX",
"dXdXdXdXdXdXdXdXdXdXdXdXdXdXdXdXdXdXdXdXdXdXdXdXdXdXdXdXdXdXdXdXdXdXdXdXdXdXdXdXdXdXdXdXdXdXdXdXdXdXdXdXdXdXdXdXdXdXdXdXdXdXdXdX",
"dXdXdXdXdXdXdXdXdXdXdXdXdXdXdXdXdXdXdXdXdXdXdXdXdXdXdXdXdXdXdXdXdXdXdXdXdXdXdXdXdXdXdXdXdXdXdXdXdXdXdXdXdXdXdXdXdXdXdXdXdXdXdXdX",
"dXdXdXdXdXdXdXdXdXdXdXdXdX    dXdXdXdXdXdXdXdXdXdXdXdXdXdXdXdXdXdXdXdXdXdXdXdXdXdXdXdXdXdXdXdXdXdX    dXdXdXdXdXdXdXdXdXdXdXdXdX",
"dXdXdXdXdXdXdXdXdXdXdX            dXdXdXdXdXdXdXdXdXdXdXdXdXdXdXdXdXdXdXdXdXdXdXdXdXdXdXdXdXdX            dXdXdXdXdXdXdXdXdXdXdX",
"dXdXdXdXdXdXdXdXdXdXdX          .   dXdXdXdXdXdXdXdXdXdXdXdXdXdXdXdXdXdXdXdXdXdXdXdXdXdXdXdX.             dXdXdXdXdXdXdXdXdXdXdX",
"dXdXdXdXdXdXdXdXdXdX      + 5 6 0 0 + dXdXdXdXdXdXdXdXdXdXdXdXdXdXdXdXdXdXdXdXdXdXdXdXdXdX+ 6 0 0 * .       dXdXdXdXdXdXdXdXdXdX",
"dXdXdXdXdXdXdXdXdXdX      * F ( / J @   dXdXdXdXdXdX                        dXdXdXdXdXdX  @ J / ( F 5       dXdXdXdXdXdXdXdXdXdX",
"dXdXdXdXdXdXdXdXdXdXdX    6 ( v.v.( 5     dXdXdXdX                            dXdXdXdX    6 ( v.v.( 6     dXdXdXdXdXdXdXdXdXdXdX",
"dXdXdXdXdXdXdXdXdXdXdX    0 / v.v.( q %   dXdXdXdX< = 2 < 2 2 2 < = < 2 < < < dXdXdXdX  % q ( v.v./ 0     dXdXdXdXdXdXdXdXdXdXdX",
"dXdXdXdXdXdXdXdXdXdXdXdX  6 J / / ^ E x i . dXdX1 4.6.7.7.7.6.6.6.6.7.7.7.6.4.1 dXdX. i x E ^ / / J 6   dXdXdXdXdXdXdXdXdXdXdXdX",
"dXdXdXdXdXdXdXdXdXdXdXdXdXdX@ 5 q E -.-.;.5     b a.!.).).~.!.!.!.!.~.).).~.a.b     6 ;.-.-.E q 5 @ dXdXdXdXdXdXdXdXdXdXdXdXdXdX",
"dXdXdXdXdXdXdXdXdXdXdXdXdXdX    . u -.y.$.0 . o 5./.,XiXtXeX,X,X-X,X9XiXiX,X/.M o   q $.y.-.u X     dXdXdXdXdXdXdXdXdXdXdXdXdXdX",
"dXdXdXdXdXdXdXdXdXdXdXdXdXdX      , x $.%.a : k a._.eXsXsXpXeXeXeXeXpXsXsXeX_.a.k > a %.$.x ,       dXdXdXdXdXdXdXdXdXdXdXdXdXdX",
"dXdXdXdXdXdXdXdXdXdXdXdXdXdX        + a a c S e.I.&XrXaXaXrXeX9X9XeXuXpXpXeX`.W.e.S c p q @         dXdXdXdXdXdXdXdXdXdXdXdXdXdX",
"dXdXdXdXdXdXdXdXdXdXdXdXdXdXX         . : 9.f.{..X:X5X7XqX5X5X5X,X5X7X7X7X5X:X.X[.f.9.>           X dXdXdXdXdXdXdXdXdXdXdXdXdXdX",
"dXdXdXdXdXdXdXdXdXdXdXdXdXdXO .       X v p.}.%X4X<X;X*X=X>X>X;X;X>X>X;X>X>X<X4X%X{.p.v X       X O dXdXdXdXdXdXdXdXdXdXdXdXdXdX",
"dXdXdXdXdXdXdXdXdXdXdXdXdXdX      X = v p.T.+X4XwX6X>X;X*X>X;X;X>X>X>X;X*X>X8XwX4X+XW.p.v = X   .   dXdXdXdXdXdXdXdXdXdXdXdXdXdX",
"dXdXdXdXdXdXdXdXdXdXdXdXdXdX    X 3 A d.^..X%X6X8X5X,X>X>X>X,X>X>X,X>X>X>X,X7X8X3X:X.X[.d.V 3 .     dXdXdXdXdXdXdXdXdXdXdXdXdXdX",
"dXdXdXdXdXdXdXdXdXdXdXdXdXdX    O V d.{.%X2X,X,X,X5X,X>X,X,X,X,X,X,X,X,X,X,X,X-X,X>X2X%X|.d.V o     dXdXdXdXdXdXdXdXdXdXdXdXdXdX",
"dXdXdXdXdXdXdXdXdXdXdXdXdXdX    - A k.+X4XwX8X,X-X-X,X,X,X-X,X5X,X,X7X,X<X,X,X=X-X5XwXwX@Xz.A o     dXdXdXdXdXdXdXdXdXdXdXdXdXdX",
"dXdXdXdXdXdXdXdX    X o         = 0.^.1XyX0X8X,X>X,X,X,X,X5X-X-X,X,X-X,X,X>X,X=X,X7XtXwX1X^.6.-         o X     dXdXdXdXdXdXdXdX",
"dXdXdXdXdXdXdX        X         = 6.!.<XtX0X7X,X>X>X,X,X,X,X,X,X,X,X,X,X,X,X,X>X>X7XtXtX>X!.6.=         X X       dXdXdXdXdXdXdX",
"dXdXdXdXdXdXdX        X         = 7.~.,XrX0X5X;X;X,X,X,X,X,X,X<X,X,X,X,X,X,X,X>X>X6XrXrX,X~.7.;                   dXdXdXdXdXdXdX",
"dXdXdXdXdXdXdXdX      X         = 8.~.-XrX9X5X>X>X,X,X,X,X<X2X2X2X2X<X<X,X,X,X=X>X5X9XrX-X~.8.<         X       dXdXdXdXdXdXdXdX",
"dXdXdXdXdXdXdXdXdX    X         = 8._.-XrX0X,X>X>X-X-X,X:X%X#X@X@X%X1X:X,X-X-X=X>X5XrXrX-X~.8.=           X   dXdXdXdXdXdXdXdXdX",
"dXdXdXdXdXdXdXdXdXdXdXo         < 7.~.-XeX0X,X>X-X5X,X>XOX.X|.|.|.|.XXOX>X,X,X,X>X5X9XeX-X~.7.=         o dXdXdXdXdXdXdXdXdXdXdX",
"dXdXdXdXdXdXdXdXdXdXdXo         o 6.!.<XtXeX7X,X,X7X<X&X}.T.f.d.d.f.T.}.&X<X7X,X,X5XeXtX<X^.6.=         o dXdXdXdXdXdXdXdXdXdXdX",
"dXdXdXdXdXdXdXdXdXdXdXdXdX      o 0.T.1XyX0X7X,X8XwX1X XY.w.B g g B w.Y. X2XwX6X-X5XeXyX1XT.3.-       dXdXdXdXdXdXdXdXdXdXdXdXdX",
"dXdXdXdXdXdXdXdXdXdXdXdXdXdX    - V k.@XwXwX,X>X<X3X@X{.e.k X     X v e.{.$X3X<X,X5XwXwX+Xk.V o     dXdXdXdXdXdXdXdXdXdXdXdXdXdX",
"dXdXdXdXdXdXdXdXdXdXdXdXdXdX    o l r.].+X:X:X,X:XoX}.f.9.-         : 9.f.{.oX:X,X>X:X+X].d.l o     dXdXdXdXdXdXdXdXdXdXdXdXdXdX",
"dXdXdXdXdXdXdXdXdXdXdXdXdXdXdXdXo 3 S e.Y. X:X<XOX^.s.A s 8 5 5 @ 5 8 s 9.s.^.OX2X&X Xk.r.S h o dXdXdXdXdXdXdXdXdXdXdXdXdXdXdXdX",
"dXdXdXdXdXdXdXdXdXdXdXdXdXdXdXdXdX  o j 0.].+X1X(.p.z & 7 K R R R R K 7 - v a.~.1X+XT.0.3 o   dXdXdXdXdXdXdXdXdXdXdXdXdXdXdXdXdX",
"dXdXdXdXdXdXdXdXdXdXdXdXdXdXdXdXdXdX    k d.|.XXU.4.X   6 ! X.Z.Z.X.I 6 . X 4.Y.XX|.d.n     dXdXdXdXdXdXdXdXdXdXdXdXdXdXdXdXdXdX",
"dXdXdXdXdXdXdXdXdXdXdXdXdXdXdXdXdXdX    3 q.g.k.e.h   + 6 I | <.<.| U 6 . . h e.k.g.q.3     dXdXdXdXdXdXdXdXdXdXdXdXdXdXdXdXdXdX",
"dXdXdXdXdXdXdXdXdXdXdXdXdXdXdXdXdX    & 4 V 3.3.l > 5 5 6 r d d d d w 6 6 5 i l 3.3.B j & .   dXdXdXdXdXdXdXdXdXdXdXdXdXdXdXdXdX",
"dXdXdXdXdXdXdXdXdXdXdXdXdXdXdX    . s Z m v 1 < i t I K r #         # r K I t > - 1 j m Z 4 .     dXdXdXdXdXdXdXdXdXdXdXdXdXdXdX",
"dXdXdXdXdXdXdXdXdXdXdXdXdXdX    o 4 Z D Z <     9 T  .| P %         # P |  .! 6     < Z D C 4 o     dXdXdXdXdXdXdXdXdXdXdXdXdXdX",
"dXdXdXdXdXdXdXdXdXdXdXdXdX1 g N N V D C 4 O   @ K X.D.Z.] f .     + f ~ C.A.X.K @   O 4 C C N N v g g dXdXdXdXdXdXdXdXdXdXdXdXdX",
"dXdXdXdXdXdXdXdXdXdXdXdX  v 8.l.l.p.V 4 + @ 6 K _ C.F.F.O.~ t r r t ~ O.S.F.B._ K 7 @ # 4 A s.h.l.8.g   dXdXdXdXdXdXdXdXdXdXdXdX",
"dXdXdXdXdXdXdXdXdXdXdX    N h.`.`./.B   . 5 I | +.S.V.V.{ ..` ~ ~ ~  .o.V.V.V.+.| I 5 . X 4.I.`.`.h.N     dXdXdXdXdXdXdXdXdXdXdX",
"dXdXdXdXdXdXdXdXdXdXdX    B !.9XuX'.1.  . 0 _ @.#.+.} [ [ | | ` ` ` | [ [ [ +.D.@.` 0 .   1.'.rX9X!.B     dXdXdXdXdXdXdXdXdXdXdX",
"dXdXdXdXdXdXdXdXdXdXdX    B !.0XuX'.1.  . F X.D.#.] y y y P ! ! ! U P y y y ] #.D.{ F +   2.'.uXeX!.B     dXdXdXdXdXdXdXdXdXdXdX",
"dXdXdXdXdXdXdXdXdXdXdX    B !.5X-X'.1.  + L } A...y #   . # 7 8 8 7 # .   . y ..A.} H +   2.Q.qX5X!.B     dXdXdXdXdXdXdXdXdXdXdX",
"dXdXdXdXdXdXdXdXdXdXdX    B I.;X-XE.2.  @ L } V.] f                         f ..+.} L @   M E.-X&XI.B     dXdXdXdXdXdXdXdXdXdXdX",
"dXdXdXdXdXdXdXdXdXdXdX    N j.OX>XE.M   @ L } V.O.Y #                     # Y ..V.} L @   2.E.;X&Xj.N     dXdXdXdXdXdXdXdXdXdXdX",
"dXdXdXdXdXdXdXdXdXdX      N j.+X1XE.M   + K } V.A.| P 8 .             . 8 P | A.V.} K +   M E.1X%Xj.N       dXdXdXdXdXdXdXdXdXdX",
"dXdXdXdXdXdXdXdXdXdXdX    l f.XX+XU.z   . e } V.S.Z.` Q 8             9 P ` C.F.S.} e .   z U.+XXXg.n     dXdXdXdXdXdXdXdXdXdXdX",
"dXdXdXdXdXdXdXdXdXdXdX    k r.z.Y.w.g   + e } A.F.C. .! r $ .     . $ r !  .C.S.S.[ e +   g e.].z.d.j     dXdXdXdXdXdXdXdXdXdXdX",
"dXdXdXdXdXdXdXdXdXdXdXdX  j A q.0.N ;   @ L { C.C. .! P t t r r r r t t P T  .C.A.{ L @   ; N 0.q.S j   dXdXdXdXdXdXdXdXdXdXdXdX",
"dXdXdXdXdXdXdXdXdXdXdXdXdX: j j h ;     $ R O.C. .P 7 7 r U ~ | | ~ U r 7 8 Y  .o.X.I 7   X ; 2 j j < dXdXdXdXdXdXdXdXdXdXdXdXdX",
"dXdXdXdXdXdXdXdXdXdXdXdXdXdX.           $ U | | I *     8 T X.Z.Z.X.! 7 .   $ Q `  .! $           . dXdXdXdXdXdXdXdXdXdXdXdXdXdX",
"dXdXdXdXdXdXdXdXdXdXdXdXdXdXdX          # r U P 7       # P | X.X.` P $       $ P Q r &           dXdXdXdXdXdXdXdXdXdXdXdXdXdXdX",
"dXdXdXdXdXdXdXdXdXdXdXdXdXdXdXdX        O & > &           7 P U U t 7         X # * & O         dXdXdXdXdXdXdXdXdXdXdXdXdXdXdXdX",
"dXdXdXdXdXdXdXdXdXdXdXdXdXdXdXdXdXdX                      . # # $ # .             X         dXdXdXdXdXdXdXdXdXdXdXdXdXdXdXdXdXdX",
"dXdXdXdXdXdXdXdXdXdXdXdXdXdXdXdXdXdX          . . . + .                 . + . . .           dXdXdXdXdXdXdXdXdXdXdXdXdXdXdXdXdXdX",
"dXdXdXdXdXdXdXdXdXdXdXdXdXdXdXdXdXdX    . + 6 0 G G F 0 @             @ 0 F G F 0 6 @ .     dXdXdXdXdXdXdXdXdXdXdXdXdXdXdXdXdXdX",
"dXdXdXdXdXdXdXdXdXdXdXdXdXdXdXdXdXdX    + 0 J ) x.x.x.J 0 .         + 0 J x.x.x.) J 0 +     dXdXdXdXdXdXdXdXdXdXdXdXdXdXdXdXdXdX",
"dXdXdXdXdXdXdXdXdXdXdXdXdXdXdXdXdXdX    @ G b.n.K.K.v.' G @         @ G ) n.K.K.n.b.G @     dXdXdXdXdXdXdXdXdXdXdXdXdXdXdXdXdXdX",
"dXdXdXdXdXdXdXdXdXdXdXdXdXdXdXdXdXdX    5 G b.M.L.L.N.' J 5         5 W b.n.L.L.M.b.J 5     dXdXdXdXdXdXdXdXdXdXdXdXdXdXdXdXdXdX",
"dXdXdXdXdXdXdXdXdXdXdXdXdXdXdXdXdXdX    * W >.J.J.J.G.>.W @         * W :.G.J.J.G.>.W *     dXdXdXdXdXdXdXdXdXdXdXdXdXdXdXdXdXdX",
"dXdXdXdXdXdXdXdXdXdXdXdXdXdXdXdXdXdX    * p $.,.H.H.,.$.p %         % p $.,.P.H.H.*.p ,     dXdXdXdXdXdXdXdXdXdXdXdXdXdXdXdXdXdX",
"dXdXdXdXdXdXdXdXdXdXdXdXdXdXdXdXdXdX    % u -.y.u.y.,.&.u %         - u &.,.u.u.y.&.u %     dXdXdXdXdXdXdXdXdXdXdXdXdXdXdXdXdXdX",
"dXdXdXdXdXdXdXdXdXdXdXdXdXdXdXdXdXdX    % u =.t.i.y.t.&.u %         , u x t.i.i.t.=.u %     dXdXdXdXdXdXdXdXdXdXdXdXdXdXdXdXdXdX"
};
