/* XPM */
static char * d1_xpm[] = {
"64 64 385 2",
"  	c None",
". 	c #F3D050",
"+ 	c #D58B63",
"@ 	c #EABB53",
"# 	c #F3D14D",
"$ 	c #FAE13D",
"% 	c #EBBD4D",
"& 	c #DC9A5D",
"* 	c #DB995E",
"= 	c #1C2D3F",
"- 	c #DEA25B",
"; 	c #EFC84F",
"> 	c #FFF48B",
", 	c #FFFFD4",
"' 	c #FEEF68",
") 	c #DFA354",
"! 	c #D89162",
"~ 	c #14182A",
"{ 	c #295063",
"] 	c #316476",
"^ 	c #1A2B3C",
"/ 	c #CFA24F",
"( 	c #FFF636",
"_ 	c #FFFBDD",
": 	c #FEF6B7",
"< 	c #E4AA55",
"[ 	c #DB9262",
"} 	c #D9955F",
"| 	c #D9945F",
"1 	c #0F0C20",
"2 	c #396A70",
"3 	c #4EADB8",
"4 	c #3B6D87",
"5 	c #21263E",
"6 	c #241F2F",
"7 	c #D7BD53",
"8 	c #FFFC7B",
"9 	c #FEFCE3",
"0 	c #FFF076",
"a 	c #D29052",
"b 	c #38696E",
"c 	c #407E87",
"d 	c #224150",
"e 	c #334866",
"f 	c #3C476D",
"g 	c #1B2337",
"h 	c #BDB249",
"i 	c #FFFF80",
"j 	c #FDFFF1",
"k 	c #F9D687",
"l 	c #664A3B",
"m 	c #D3915E",
"n 	c #29444F",
"o 	c #4792A0",
"p 	c #2F4D68",
"q 	c #284E5F",
"r 	c #2B5466",
"s 	c #405A7D",
"t 	c #384367",
"u 	c #161C2E",
"v 	c #1E2D32",
"w 	c #2E4F3B",
"x 	c #3F3F21",
"y 	c #DCD27B",
"z 	c #FFFFFF",
"A 	c #E6B956",
"B 	c #433039",
"C 	c #13182D",
"D 	c #E99E63",
"E 	c #1F1F2F",
"F 	c #3E848D",
"G 	c #51A7AD",
"H 	c #408799",
"I 	c #2E5C6E",
"J 	c #377587",
"K 	c #3C5978",
"L 	c #424D76",
"M 	c #26304A",
"N 	c #11182D",
"O 	c #3C954C",
"P 	c #4E7B48",
"Q 	c #030B28",
"R 	c #474842",
"S 	c #EDDDAF",
"T 	c #EBD18D",
"U 	c #3F3C41",
"V 	c #1A192F",
"W 	c #456F44",
"X 	c #20533B",
"Y 	c #000026",
"Z 	c #483432",
"` 	c #2A4958",
" .	c #458599",
"..	c #3A5868",
"+.	c #1A293B",
"@.	c #131527",
"#.	c #294D5F",
"$.	c #314260",
"%.	c #3D4C71",
"&.	c #3E4C72",
"*.	c #171930",
"=.	c #2D844A",
"-.	c #75D35E",
";.	c #323D38",
">.	c #665A50",
",.	c #E6D099",
"'.	c #FAEDB5",
").	c #9D8D6F",
"!.	c #5B804A",
"~.	c #78DA60",
"{.	c #2E8347",
"].	c #10192B",
"^.	c #326A7B",
"/.	c #405F82",
"(.	c #2E4D69",
"_.	c #326A79",
":.	c #3C7E90",
"<.	c #418FA1",
"[.	c #40879B",
"}.	c #416383",
"|.	c #3D466E",
"1.	c #2C474F",
"2.	c #42AD5B",
"3.	c #7AB957",
"4.	c #1E2331",
"5.	c #262934",
"6.	c #D4BD8D",
"7.	c #6E6659",
"8.	c #96876D",
"9.	c #3D3E43",
"0.	c #12152C",
"a.	c #6D9550",
"b.	c #5AD55E",
"c.	c #30644E",
"d.	c #2B4F66",
"e.	c #4797A3",
"f.	c #56ADAB",
"g.	c #5CB8B1",
"h.	c #55ADAB",
"i.	c #437189",
"j.	c #3E5075",
"k.	c #404E75",
"l.	c #3F4D73",
"m.	c #3F636A",
"n.	c #45A863",
"o.	c #367342",
"p.	c #3B3A3F",
"q.	c #5A514B",
"r.	c #11172B",
"s.	c #222432",
"t.	c #273334",
"u.	c #44A552",
"v.	c #418569",
"w.	c #46878F",
"x.	c #5AB6AE",
"y.	c #51A5A5",
"z.	c #47939E",
"A.	c #408D9C",
"B.	c #3F7B91",
"C.	c #424F77",
"D.	c #425178",
"E.	c #425179",
"F.	c #40556E",
"G.	c #2B494B",
"H.	c #162330",
"I.	c #040E26",
"J.	c #685856",
"K.	c #494247",
"L.	c #1D3938",
"M.	c #2F4E50",
"N.	c #57ACA4",
"O.	c #4C9FA6",
"P.	c #3B7E93",
"Q.	c #3A8093",
"R.	c #3E7A91",
"S.	c #425D80",
"T.	c #343F61",
"U.	c #1D213A",
"V.	c #345D73",
"W.	c #416587",
"X.	c #33385E",
"Y.	c #1C2338",
"Z.	c #171D2F",
"`.	c #645454",
" +	c #866F63",
".+	c #14162B",
"++	c #316679",
"@+	c #489AA6",
"#+	c #31677A",
"$+	c #1A2B37",
"%+	c #192636",
"&+	c #212B43",
"*+	c #21233E",
"=+	c #1A2833",
"-+	c #2B4649",
";+	c #13192C",
">+	c #38788A",
",+	c #47668A",
"'+	c #2B3350",
")+	c #3F3943",
"!+	c #75605C",
"~+	c #1D2432",
"{+	c #305F6F",
"]+	c #5BB9B5",
"^+	c #3C8193",
"/+	c #1B2739",
"(+	c #329249",
"_+	c #329E4B",
":+	c #287F42",
"<+	c #2E8A45",
"[+	c #36A84F",
"}+	c #417F68",
"|+	c #2E484C",
"1+	c #233F4D",
"2+	c #418097",
"3+	c #2A3550",
"4+	c #212632",
"5+	c #1A182E",
"6+	c #23603E",
"7+	c #245A3D",
"8+	c #2E5869",
"9+	c #53AFB4",
"0+	c #26495C",
"a+	c #314D4E",
"b+	c #3D7764",
"c+	c #3BA84E",
"d+	c #51CA59",
"e+	c #37B853",
"f+	c #36AD4E",
"g+	c #356457",
"h+	c #426F67",
"i+	c #223D4C",
"j+	c #3D6582",
"k+	c #1B1F34",
"l+	c #437E47",
"m+	c #95D963",
"n+	c #426241",
"o+	c #163132",
"p+	c #151A2C",
"q+	c #356F82",
"r+	c #336E80",
"s+	c #21353C",
"t+	c #406B69",
"u+	c #2C5143",
"v+	c #76B958",
"w+	c #3DBD54",
"x+	c #297642",
"y+	c #37585C",
"z+	c #23363C",
"A+	c #2E5B70",
"B+	c #23384C",
"C+	c #22663F",
"D+	c #4FD45B",
"E+	c #3F9E4D",
"F+	c #171D2E",
"G+	c #1B2D3E",
"H+	c #355D75",
"I+	c #222946",
"J+	c #2E4B49",
"K+	c #203644",
"L+	c #648448",
"M+	c #67D35D",
"N+	c #1B4C3A",
"O+	c #2A3D45",
"P+	c #223A4B",
"Q+	c #425B7F",
"R+	c #364062",
"S+	c #26613E",
"T+	c #22513A",
"U+	c #130D2B",
"V+	c #192230",
"W+	c #225C3D",
"X+	c #1B3E36",
"Y+	c #16172D",
"Z+	c #171E30",
"`+	c #121425",
" @	c #31566D",
".@	c #427490",
"+@	c #314760",
"@@	c #2B3B50",
"#@	c #304141",
"$@	c #43AC4B",
"%@	c #27404C",
"&@	c #364163",
"*@	c #3F4F73",
"=@	c #43527B",
"-@	c #283451",
";@	c #161C2D",
">@	c #161B2E",
",@	c #17202F",
"'@	c #38B151",
")@	c #3BC054",
"!@	c #1D3A35",
"~@	c #0E0B28",
"{@	c #54444B",
"]@	c #3B3840",
"^@	c #161D2F",
"/@	c #32697B",
"(@	c #459AAA",
"_@	c #438B9D",
":@	c #44738E",
"<@	c #344164",
"[@	c #1B3835",
"}@	c #3B496A",
"|@	c #46547F",
"1@	c #33436C",
"2@	c #1E2944",
"3@	c #594D4D",
"4@	c #453E44",
"5@	c #181C2F",
"6@	c #349E4C",
"7@	c #1C3534",
"8@	c #30303B",
"9@	c #2C2C38",
"0@	c #1E2E40",
"a@	c #20485E",
"b@	c #28687F",
"c@	c #2D7C91",
"d@	c #3B597B",
"e@	c #222647",
"f@	c #1D2946",
"g@	c #232C47",
"h@	c #5D5652",
"i@	c #997F64",
"j@	c #4F4448",
"k@	c #202333",
"l@	c #182430",
"m@	c #4A4244",
"n@	c #755F52",
"o@	c #6D6155",
"p@	c #75695D",
"q@	c #262838",
"r@	c #7B6D5A",
"s@	c #8D7A5F",
"t@	c #282734",
"u@	c #7D6B5C",
"v@	c #4E505C",
"w@	c #2C3A5F",
"x@	c #3D4C73",
"y@	c #27304A",
"z@	c #131929",
"A@	c #202131",
"B@	c #4E4347",
"C@	c #544C4B",
"D@	c #665954",
"E@	c #2E2D38",
"F@	c #635951",
"G@	c #857063",
"H@	c #413C43",
"I@	c #0F162C",
"J@	c #314067",
"K@	c #343F5F",
"L@	c #232B44",
"M@	c #333F5F",
"N@	c #222A41",
"O@	c #2B4B62",
"P@	c #396F8E",
"Q@	c #35728C",
"R@	c #0D2943",
"S@	c #42393F",
"T@	c #3D3A41",
"U@	c #040E25",
"V@	c #433D44",
"W@	c #443E44",
"X@	c #11182C",
"Y@	c #151A2A",
"Z@	c #121727",
"`@	c #151B2D",
" #	c #182133",
".#	c #346D7E",
"+#	c #2E5C6C",
"@#	c #264455",
"##	c #172234",
"$#	c #867260",
"%#	c #38363E",
"&#	c #282A37",
"*#	c #192436",
"=#	c #121124",
"-#	c #141628",
";#	c #13182C",
">#	c #32333A",
",#	c #1B2030",
"'#	c #12192C",
")#	c #151B2E",
"!#	c #171C2E",
"                                                                                                                                ",
"                                                                                                                                ",
"                                                                                                                                ",
"                                                                                                                                ",
"                                                                                                                                ",
"                                                                                                                                ",
"                                                                                                                                ",
"                                                                                                                                ",
"                                                                                                                                ",
"                                                                                                                                ",
"                                                                                                                                ",
"                                                                                                                                ",
"                                                                                                                                ",
"                                                                                                                                ",
"                                                                                                                                ",
"                                                                                                                                ",
"                                . +                                                                                             ",
"                            @ # $ % & *                 =                                                                       ",
"                            - ; > , ' ) !             ~ { ] ^                                                                   ",
"                            / ( _ : < [ } | |         1 2 3 4 5                                                                 ",
"                          6 7 8 9 0 a                 b c d e f g                                                               ",
"                            h i j k l         m     n o p q r s t u     v w                                                     ",
"                            x y z A B     C     D E F G H I J K L M   N O P                                                     ",
"                            Q R S T U   V W X Y Z `  ...+.@.#.$.%.&.*.=.-.;.                                                    ",
"                              >.,.'.).    !.~.{.].^./.(._.:.<.[.}.|.1.2.3.4.                                                    ",
"                              5.6.7.8.9.  0.a.b.c.d.e.f.g.h.i.j.k.l.m.n.o.                                                      ",
"                              p.q.r.s.      t.u.v.w.x.y.z.A.B.C.D.E.F.G.H.                                                      ",
"                                I.J.K.        L.M.N.O.P.Q.R.S.T.U.V.W.X.Y.                                                      ",
"                                Z.`. +        .+++@+#+$+%+&+*+=+-+;+>+,+'+                                                      ",
"                                  )+!+~+      {+]+^+/+(+_+:+<+[+}+|+1+2+3+                                                      ",
"                                  4+5+6+7+    8+9+0+a+b+c+d+e+f+g+h+i+j+k+                                                      ",
"                                  l+m+n+o+    p+q+r+s+t+u+v+w+x+y+z+A+B+                                                        ",
"                                  C+D+E+0.F+    G+H+I+J+K+L+M+N+O+P+Q+R+      S+T+U+                                            ",
"                                  V+W+X+Y+  u Z+`+ @.@+@@@#@$@%@&@*@=@-@;@>@,@'@)@!@                                            ",
"                                    ~@{@]@    ^@p+/@(@_@:@<@[@}@|@1@2@3@4@  5@T+6@7@                                            ",
"                                      8@9@        0@a@b@c@d@e@f@g@h@i@j@k@      l@                                              ",
"                                                  m@n@o@p@q@r@s@t@u@v@w@x@y@z@                                                  ",
"                                                  A@B@C@D@E@F@G@H@I@J@K@L@M@N@                                                  ",
"                                                  O@P@Q@R@S@T@U@V@W@X@Y@Z@`@Z+                                                  ",
"                                                 #.#+#@###$#%#  F+&#    Z.u                                                     ",
"                                                  *#=#-#;#>#,#`@u '#F+u u u                                                     ",
"                                                u `@Z+^@F+X@)#u u !#u u u u u u                                                 ",
"                                                u u u u u F+u u u u u u u u u u                                                 ",
"                                                    u u u u u u u u u u u u                                                     ",
"                                                                                                                                ",
"                                                                                                                                ",
"                                                                                                                                ",
"                                                                                                                                ",
"                                                                                                                                ",
"                                                                                                                                ",
"                                                                                                                                ",
"                                                                                                                                ",
"                                                                                                                                ",
"                                                                                                                                ",
"                                                                                                                                ",
"                                                                                                                                ",
"                                                                                                                                ",
"                                                                                                                                ",
"                                                                                                                                ",
"                                                                                                                                ",
"                                                                                                                                ",
"                                                                                                                                ",
"                                                                                                                                ",
"                                                                                                                                "};
