/* XPM */
static char *result[] = {
/* columns rows colors chars-per-pixel */
"64 64 221 2 ",
"   c #009400570051",
".  c #0B11024E022F",
"X  c #0166093804C3",
"o  c #0C030962052E",
"O  c #0289051308B8",
"+  c #0BA6047C09C2",
"@  c #0320099B0D1D",
"#  c #0B7A0B2A0B66",
"$  c #144B00DD0149",
"%  c #1CF40163023F",
"&  c #139C03A40B23",
"*  c #1943048E0E27",
"=  c #139F0CFD072C",
"-  c #0CEA10BE0E8F",
";  c #143611AE0C2E",
":  c #196313A80D79",
">  c #05270CEF12F0",
",  c #0A0D0C551184",
"<  c #183308DD147A",
"1  c #0DCF0FFD1490",
"2  c #0B3612581A7E",
"3  c #0A7114E41699",
"4  c #145A1398143F",
"5  c #17D115EA1342",
"6  c #1C10195314DE",
"7  c #172B188518DE",
"8  c #1B271AAB19EE",
"9  c #150215801941",
"0  c #23FC015901D5",
"q  c #2C0E02260493",
"w  c #29D400FE0E50",
"e  c #327A0377050E",
"r  c #383804C40A92",
"t  c #299205671522",
"y  c #2B33095319BA",
"u  c #34FC0ACE1E7A",
"i  c #1FE81D0C18E4",
"p  c #2475224B1EC6",
"a  c #0C191D422AC8",
"s  c #06A3155B2209",
"d  c #1A6A1D232B53",
"f  c #183E18C825E6",
"g  c #3C180B8A220A",
"h  c #3ADB0E5228A8",
"j  c #32851C883ECC",
"k  c #1C8D200423B8",
"l  c #1456202E2F3C",
"z  c #0D8322E53358",
"x  c #0992264C3AC1",
"c  c #1023242D3375",
"v  c #1CB322E233E4",
"b  c #18D525903A3A",
"n  c #1B0129F73BCF",
"m  c #1200284A3BCD",
"M  c #22F922C922DF",
"N  c #281226B125FC",
"B  c #2D002CCC2C8F",
"V  c #27F927DE27E0",
"C  c #31972F7B2DC9",
"Z  c #2ABF2D5D30B4",
"A  c #239B2E673947",
"S  c #2F7030753267",
"D  c #32D232A7335C",
"F  c #367C38953A2C",
"G  c #3A373A633AF7",
"H  c #33EF362B3C63",
"J  c #390723513378",
"K  c #49C802850389",
"L  c #4785048C0546",
"P  c #542705E707DC",
"I  c #5C3404C40561",
"U  c #4691058C1D77",
"Y  c #6D4208E50A6E",
"T  c #64B708360A14",
"R  c #7A690328028B",
"E  c #6D4F000017A4",
"W  c #786305231496",
"Q  c #6A8014021EE8",
"!  c #45D50C9B2720",
"~  c #4A400A902520",
"^  c #555B122C3267",
"/  c #5CFF119E3508",
"(  c #5BCC16693D8D",
")  c #587508502175",
"_  c #66AF04B32851",
"`  c #6C1C15063D88",
"'  c #65B9142739CF",
"]  c #6FF415F23FA8",
"[  c #758303172247",
"{  c #0EE52E8343AE",
"}  c #16D42F0542B2",
"|  c #045F338E4952",
" . c #1AA736334D0B",
".. c #155D330E4A06",
"X. c #1C533A725452",
"o. c #1AA03D2C5970",
"O. c #15603ABF5413",
"+. c #0C8C3B1E5157",
"@. c #23392B65417D",
"#. c #2778338D4AD6",
"$. c #399A3CB24491",
"%. c #35D53A5C472C",
"&. c #2C0834345218",
"*. c #2B623B915737",
"=. c #32FD3D9D5AF3",
"-. c #59701D1A437C",
";. c #79AF1A124606",
":. c #57A829CA5582",
">. c #5E3733C65F8D",
",. c #643D23D547AC",
"<. c #7885264F503C",
"1. c #51FF3AC462D9",
"2. c #6A963D056C02",
"3. c #3CF540C34BF0",
"4. c #25163FE35D26",
"5. c #1EF24F9072C5",
"6. c #0B504D346D99",
"7. c #24A24AE36C51",
"8. c #288F48976BBB",
"9. c #31F14695693F",
"0. c #3788463C6779",
"q. c #25404E7770FA",
"w. c #38C14DFD74D1",
"e. c #295E55767C37",
"r. c #25AD56037B2C",
"t. c #3EC85097775D",
"y. c #372954F27A8A",
"u. c #42774B6763BB",
"i. c #4D71440D6F49",
"p. c #542344CD7523",
"a. c #4938560C75B1",
"s. c #4CF647D96F37",
"d. c #83A00000027C",
"f. c #890E078C0AC1",
"g. c #99FC065B09A2",
"h. c #88E109C012B5",
"j. c #95AA00001473",
"k. c #A44305FC0E87",
"l. c #AA0A0B531914",
"z. c #A05A100216CA",
"x. c #8EC8104E2B3B",
"c. c #A7D113FA2449",
"v. c #96AB1FBB3D2C",
"b. c #85D31B054C83",
"n. c #95081DFB5527",
"m. c #852826C853A9",
"M. c #2A645BF08520",
"N. c #37875B7684E2",
"B. c #18C062B18DD5",
"V. c #2C7560238C7F",
"C. c #341562988D01",
"Z. c #2CFF68DD974E",
"A. c #319B6BFC9D92",
"S. c #33FF66A09453",
"D. c #31156F51A39C",
"F. c #3B366EC6A099",
"G. c #2CBB7004A158",
"H. c #373675BBAAA2",
"J. c #3BD77FD9B8A9",
"K. c #3AAB7E50B6ED",
"L. c #5D1D4F6B832E",
"P. c #4ADF5A86847D",
"I. c #4DC05C7A8CDE",
"U. c #470158A887F1",
"Y. c #5234561286C6",
"T. c #5BE755E1919A",
"R. c #637357E68B95",
"E. c #4ADF6AFE9E47",
"W. c #4873651F957E",
"Q. c #52A164B59658",
"!. c #4DA261AA8C95",
"~. c #453F6D40A473",
"^. c #4A9C6DAAA410",
"/. c #558F6D9AA46D",
"(. c #4B5171AEA520",
"). c #4B6075F5AE34",
"_. c #44A27706AC80",
"`. c #5154727CA8B8",
"'. c #4AD67CAEB5FA",
"]. c #47CB7A78B5E8",
"[. c #544D79A3B67D",
"{. c #3CDD8237BC50",
"}. c #37A582AABB3A",
"|. c #49E78389BDEB",
" X c #45F081DABADF",
".X c #570D823BBEAF",
"XX c #3D70883CC5D7",
"oX c #3F3C9E8CE250",
"OX c #3DE1A412E716",
"+X c #3CB9A752EB49",
"@X c #432C85FEC26E",
"#X c #43D28921C661",
"$X c #4C6B8838C5FD",
"%X c #44398CDDCC0F",
"&X c #4D538B70CC2D",
"*X c #4EF385ACC65B",
"=X c #525C859DC2E1",
"-X c #5A3B8485C200",
";X c #53778988C9FA",
":X c #47329078CEFA",
">X c #481A8F78D0C0",
",X c #43669276D3A7",
"<X c #4ADC9308D5AD",
"1X c #4AD4971ADA2C",
"2X c #4AA89977DDC3",
"3X c #418E993DDC58",
"4X c #58CE9206D664",
"5X c #60E1888BD1EB",
"6X c #4CD79CC8E37A",
"7X c #51B29D05E567",
"8X c #56FF9BFFE73A",
"9X c #4D06A2C0EAE4",
"0X c #4889A355E9F4",
"qX c #5C91A346EDF7",
"wX c #5AC9A61EF2C8",
"eX c #52FEA964F57E",
"rX c #5632A9A3F67A",
"tX c #5A4FB636FFFF",
"yX c #5625B269FFFF",
"uX c #6260A1D5EC14",
"iX c None",
/* pixels */
"iXiXiXiXiXiXiXiXiXiXiXiXiXiXiXiXiXiXiXiXiXiXiXiXiXiXiXiXiXiXiXiXiXiXiXiXiXiXiXiXiXiXiXiXiXiXiXiXiXiXiXiXiXiXiXiXiXiXiXiXiXiXiXiX",
"iXiXiXiXiXiXiXiXiXiXiXiXiXiXiXiXiXiXiXiXiXiXiXiXiXiXiXiXiXiXiXiXiXiXiXiXiXiXiXiXiXiXiXiXiXiXiXiXiXiXiXiXiXiXiXiXiXiXiXiXiXiXiXiX",
"iXiXiXiXiXiXiXiXiXiXiXiXiXiXiXiXiXiXiXiXiXiXiXiXiXiXiXiXiXiXiXiXiXiXiXiXiXiXiXiXiXiXiXiXiXiXiXiXiXiXiXiXiXiXiXiXiXiXiXiXiXiXiXiX",
"iXiXiXiXiXiXiXiXiXiXiXiXiXiXiXiXiXiXiXiXiXiXiXiXiXiXiXiXiXiXiXiXiXiXiXiXiXiXiXiXiXiXiXiXiXiXiXiXiXiXiXiXiXiXiXiXiXiXiXiXiXiXiXiX",
"iXiXiXiXiXiXiXiXiXiXiXiXiXiXiXiXiXiXiXiXiXiXiXiXiXiXiXiXiXiXiXiXiXiXiXiXiXiXiXiXiXiXiXiXiXiXiXiXiXiXiXiXiXiXiXiXiXiXiXiXiXiXiXiX",
"iXiXiXiXiXiXiXiXiXiXiXiXiXiXiXiXiXiXiXiXiXiXiXiXiXiXiXiXiXiXiXiXiXiXiXiXiXiXiXiXiXiXiXiXiXiXiXiXiXiXiXiXiXiXiXiXiXiXiXiXiXiXiXiX",
"iXiXiXiXiXiXiXiXiXiXiXiXiXiXiXiXiXiXiXiXiXiXiXiXiXiXiXiXiXiXiXiXiXiXiXiXiXiXiXiXiXiXiXiXiXiXiXiXiXiXiXiXiXiXiXiXiXiXiXiXiXiXiXiX",
"iXiXiXiXiXiXiXiXiXiXiXiX          iXiXiXiXiXiXiXiXiXiXiXiXiXiXiXiXiXiXiXiXiXiXiXiXiXiXiXiXiXiX          iXiXiXiXiXiXiXiXiXiXiXiX",
"iXiXiXiXiXiXiXiXiXiXiX          X iXiXiXiXiXiXiXiXiXiXiXiXiXiXiXiXiXiXiXiXiXiXiXiXiXiXiXiXiXiXX           iXiXiXiXiXiXiXiXiXiXiX",
"iXiXiXiXiXiXiXiXiXiXiX    . . $ % $ iXiXiXiXiXiXiXiXiXiXiXiXiXiXiXiXiXiXiXiXiXiXiXiXiXiXiXiX$ % $ . .     iXiXiXiXiXiXiXiXiXiXiX",
"iXiXiXiXiXiXiXiXiXiX      $ e L P r $ iXiXiXiXiXiXiXiX    iXiXiXiXiXiX    iXiXiXiXiXiXiXiX$ r L L e $       iXiXiXiXiXiXiXiXiXiX",
"iXiXiXiXiXiXiXiXiXiX      0 P f.f.P %     iXiXiXiXiX                        iXiXiXiXiX  X 0 I f.f.P 0       iXiXiXiXiXiXiXiXiXiX",
"iXiXiXiXiXiXiXiXiXiXiX    e Y k.z.Y q X   iXiXiXiX            .             X iXiXiXiX    q Y z.g.Y e     iXiXiXiXiXiXiXiXiXiXiX",
"iXiXiXiXiXiXiXiXiXiXiX    q T h.f.Y L 0 $   iXiXiXx m z c c a a a a l c m z x iXiXiX  $ 0 L Y h.h.T q     iXiXiXiXiXiXiXiXiXiXiX",
"iXiXiXiXiXiXiXiXiXiXiXiXiX% e L P T T I K 0   @ | 6.r.M.e.q.8.8.8.q.q.M.M.r.6.| @   0 K I T T P L e 0 iXiXiXiXiXiXiXiXiXiXiXiXiX",
"iXiXiXiXiXiXiXiXiXiXiXiXiXiX  . 0 P W f.R L   > | B.}.XX%XXXH.H.H.H. X%X%X}.B.| @   L R h.h.L 0 .   iXiXiXiXiXiXiXiXiXiXiXiXiXiX",
"iXiXiXiXiXiXiXiXiXiXiXiXiXiX      L W l.k.I % O m V.&XwXwX9X6X3X6X6X7XwXwX&XV.{ O 0 I g.l.h.L       iXiXiXiXiXiXiXiXiXiXiXiXiXiX",
"iXiXiXiXiXiXiXiXiXiXiXiXiXiX      w [ z.k.R K r J i./.5X8X8X9X0X6X6X8X8X5X/.s.J r K R k.c.W t       iXiXiXiXiXiXiXiXiXiXiXiXiXiX",
"iXiXiXiXiXiXiXiXiXiXiXiXiXiX      t ) x.z.h.R Y Q ,.2.T.[.*X6X0X+X6X&X).T.2.` Q Y R h.x.x.) t       iXiXiXiXiXiXiXiXiXiXiXiXiXiX",
"iXiXiXiXiXiXiXiXiXiXiXiXiXiX    + < ! ' x.x.z.k.j.W / :.Y.).XX+XoXoX).Y.:.' W g.g.z.x.x.' h < +     iXiXiXiXiXiXiXiXiXiXiXiXiXiX",
"iXiXiXiXiXiXiXiXiXiXiXiXiXiX    + < j :.<.n.z.l.k.d.E ( i.~.XXOXoXoX~.1.-.E d.k.l.c.v.<.:.j < +     iXiXiXiXiXiXiXiXiXiXiXiXiXiX",
"iXiXiXiXiXiXiXiX  iXiXiXiXiXiX  , d &.i.2.m.v.g.d.d.W ( p.~.oX+X+XXX~.p.-.E d.d.j.x.m.2.i.&.l +   iXiXiXiXiXiX  iXiXiXiXiXiXiXiX",
"iXiXiXiXiXiXiX      iXiXiXiXiX  @ b 9.!.R.2.] [ W E _ :.L.).,X+X+X3X].L.,._ W W W ;.2.R.!.9.b @   iXiXiXiXiX      iXiXiXiXiXiXiX",
"iXiXiXiXiXiXiX        iXiXiX    , } y.`./.L.:./ _ _ ` >.Y.).,XOXoXXX].Y.>.' _ _ / >.R./.(.y.} @     iXiXiX        iXiXiXiXiXiXiX",
"iXiXiXiXiXiXiX        X iXiX    >  .C.'..XQ.i.:.-.-.:.p.Q.].,XoXoX,X].Q.1.>.-.-.:.i.Q.[. XC. .1     iXiXX         iXiXiXiXiXiXiX",
"iXiXiXiXiXiXiX                  > X.S.@X;X[.I.i.>.1.i.P.E. X%X3XoX,X].^.Y.p.1.1.i.I.).;X#XS.X.>                   iXiXiXiXiXiXiX",
"iXiXiXiXiXiXiX                  > o.A.%X<X=X(.P.P.I.!.E.).|.%X3X,X%X@X).^.!.Y.P.I./.=X<X%XA.o.>                   iXiXiXiXiXiXiX",
"iXiXiXiXiXiXiXiX    + < & $     > o.G.:X2X&X X(.(.).'.|.#X%X,X,X,X%X%X#X|.'.).~.(. X<X2X:XA.o.>     . & < + .   iXiXiXiXiXiXiXiX",
"iXiXiXiXiXiXiXiXiX& y h u w $   > +.G.XX0X1X$X X|.&X1X1X1X<X,XXXXX,X,X1X2X<X&X|. X|.1X2XXXG.+.> . $ w u h y + iXiXiXiXiXiXiXiXiX",
"iXiXiXiXiXiXiXiXiXiX^ ( ^ u 0 . > +.Z.%X2X2X%X#X&X1X2X0X2X<X:X%X,X,X,X2X6X6X1X:X#X%X2X2X,XG.+.>   0 U ^ / ( iXiXiXiXiXiXiXiXiXiX",
"iXiXiXiXiXiXiXiXiXiXiXm.] ) 0 . @ +.V.%X9X6X,X#X|.}.XX@X@X@X%X%X%X%X#X#XXX{.#X|.#X,X6X6X%XZ.{ @ . q ~ ` m.iXiXiXiXiXiXiXiXiXiXiX",
"iXiXiXiXiXiXiXiXiXiXiXiXb.U %   @ { C.|.qXqX2XXXH.V.r.e.C._. X$X*X X~.C.e.r.V.H.XX2XwXqX|.C.{ @   0 U ;.iXiXiXiXiXiXiXiXiXiXiXiX",
"iXiXiXiXiXiXiXiXiXiXiXiXiXr .   @ b y.[.uXrX7X}.M...a l &.N.`.-X-X).U.&.l a ..M.XX6XrXuX.Xy.b >   . r iXiXiXiXiXiXiXiXiXiXiXiXiX",
"iXiXiXiXiXiXiXiXiXiXiXiXiXiX    # v 9.^.4XwX6X}.5.a   . v a.`.-X-X/.w.A     a 5.J.7XwX5X^.0.v @     iXiXiXiXiXiXiXiXiXiXiXiXiXiX",
"iXiXiXiXiXiXiXiXiXiXiXiXiXiXiX  + d #.a.`.;X<X XM.z @ , n t.`.-X-X`.y.A @ @ x r.J.<X;X`.a.#.f +   iXiXiXiXiXiXiXiXiXiXiXiXiXiXiX",
"iXiXiXiXiXiXiXiXiXiXiXiXiXiXiXiX, 2 f @.9.E..X=XF.7. . .8.A.'.;X;X.XS.8. . .7.F.=X=XE.9.} f < , iXiXiXiXiXiXiXiXiXiXiXiXiXiXiXiX",
"iXiXiXiXiXiXiXiXiXiXiXiXiXiXiXiXiXiX  > v 9.^..X=X_.A.A.H.J.$X#X&X#X{.H.A.A.H.=X.X^.9.v >   iXiXiXiXiXiXiXiXiXiXiXiXiXiXiXiXiXiX",
"iXiXiXiXiXiXiXiXiXiXiXiXiXiXiXiXiXiX    1 @.t.`.=X>X,X,X,X,X%X%X%X%X,X,X,X<X<X-X`.a.@.,     iXiXiXiXiXiXiXiXiXiXiXiXiXiXiXiXiXiX",
"iXiXiXiXiXiXiXiXiXiXiXiXiXiXiXiXiX    . < f #.w.~.&X7X8X6X<X#X@X X#X<X6X8X2X;X^.w.#.d # .     iXiXiXiXiXiXiXiXiXiXiXiXiXiXiXiXiX",
"iXiXiXiXiXiXiXiXiXiXiXiXiXiXiXiX  . ; 6 8 4 9 b 8.~.;X4X4X$X].].].].*X4X4X;X~.8.b 9 4 6 6 ; .   iXiXiXiXiXiXiXiXiXiXiXiXiXiXiXiX",
"iXiXiXiXiXiXiXiXiXiXiXiXiXiXiX    ; M B M ;   @ b w.E.[..X`.E.E.E.^.(.[..X(.w.b @   ; p Z N =     iXiXiXiXiXiXiXiXiXiXiXiXiXiXiX",
"iXiXiXiXiXiXiXiXiXiXiXiXiXiXO > 2 f B S p o     f *.a.E.Q.!.P.P.U.P.!.Q.Q.a.*.9     o p Z Z d 2 > O iXiXiXiXiXiXiXiXiXiXiXiXiXiX",
"iXiXiXiXiXiXiXiXiXiXiXiXiXO z .. .#.A M : o . o k #.u.a.a.u.u.u.u.u.a.a.a.0.%.k o . o : M A  . ...z O iXiXiXiXiXiXiXiXiXiXiXiXiX",
"iXiXiXiXiXiXiXiXiXiXiX    2 o.M.S.q.m - . o ; M Z F G 3.3.3.3.G $.$.$.$.3.%.H Z M : . . , n 8.S.M.o.2     iXiXiXiXiXiXiXiXiXiXiX",
"iXiXiXiXiXiXiXiXiXiXiX    m M.%X,XS.x     $ M F F S B B B B B B C B B B B B S F D N o     m Z.>X%XN.m     iXiXiXiXiXiXiXiXiXiXiX",
"iXiXiXiXiXiXiXiXiXiX  @ c 7.J.eXeXD.x     = S G F V 6 ; : 6 6 8 i i 6 ; ; 5 V F 3.B =     x D.eXrXJ.7.z @   iXiXiXiXiXiXiXiXiXiX",
"iXiXiXiXiXiXiXiX  > a ..q.H.6XtXeXA.x   X = C G S 8 .   . o ; ; ; ; o . X . 6 S G C =     x A.9XtX0XH.q...a @   iXiXiXiXiXiXiXiX",
"iXiXiXiXiXiXiX    > } r.J.6XyXeX%XM.z   . : C G B 4       X O o o O         4 B F C : .   z M.%XrXyX6XK.e.} >     iXiXiXiXiXiXiX",
"iXiXiXiXiXiXiX    2 X.F.7XtXeX#XS.o.s   . 6 C F Z 7 +                     O 7 Z F C i .   s X.Z.%XeXtX7XF.X.2     iXiXiXiXiXiXiX",
"iXiXiXiXiXiXiX    2 4.].wXwX|.N.O.a O   o 8 C G D V 4 O                 + 4 N F F C i o   O a X.M. XwXqX_.4.2     iXiXiXiXiXiXiX",
"iXiXiXiXiXiXiX    2 =.(.4X=XN.} >       # i S F G D V 7 #             o 7 V D G G C 8 -       > } N.-X4X(.4.2     iXiXiXiXiXiXiX",
"iXiXiXiXiXiXiX    > #.N./.U.&.>         - M C F G G D M 4 X         X 4 M S G G F B M ,         3 #.U./.U.&.>     iXiXiXiXiXiXiX",
"iXiXiXiXiXiXiX    @ v *.0.0.d           4 M C G G D B M 7 4 + @ + # 4 7 M B D G G C M -           v =.0.&.v ,     iXiXiXiXiXiXiX",
"iXiXiXiXiXiXiX    + 2 d v v 4 iXiX      - M D G D B 8 7 7 8 p M k M 8 6 9 8 N D G D M -       iXiX4 A v d 2 O     iXiXiXiXiXiXiX",
"iXiXiXiXiXiXiX      O # , , iXiXiXiX    # M D D N 4 + + 4 M C D D S M 4 + o 9 V D S M &     iXiXiXiX, , + O       iXiXiXiXiXiXiX",
"iXiXiXiXiXiXiX              iXiXiXiX    + 7 V V 7 o     # M D G G C M 1   . O 8 V V 7 #     iXiXiXiX              iXiXiXiXiXiXiX",
"iXiXiXiXiXiXiXiX          iXiXiXiXiX    O - 4 3 X       X 7 N C B V 7 X       X 3 7 - .     iXiXiXiXiX          iXiXiXiXiXiXiXiX",
"iXiXiXiXiXiXiXiXiXiXiXiXiXiXiXiXiXiX      X X X X       X + 4 7 5 4 + X       X X X X X     iXiXiXiXiXiXiXiXiXiXiXiXiXiXiXiXiXiX",
"iXiXiXiXiXiXiXiXiXiXiXiXiXiXiXiXiXiX                                                        iXiXiXiXiXiXiXiXiXiXiXiXiXiXiXiXiXiX",
"iXiXiXiXiXiXiXiXiXiXiXiXiXiXiXiXiXiX      . + & * * * & .             . & * * * & + . .     iXiXiXiXiXiXiXiXiXiXiXiXiXiXiXiXiXiX",
"iXiXiXiXiXiXiXiXiXiXiXiXiXiXiXiXiXiX    + * t u ! ! g y * .         . * y g ! ! g t * .     iXiXiXiXiXiXiXiXiXiXiXiXiXiXiXiXiXiX",
"iXiXiXiXiXiXiXiXiXiXiXiXiXiXiXiXiXiX    & t ~ / ` ` / ! t &         + t ! / ` ` ' ! t +     iXiXiXiXiXiXiXiXiXiXiXiXiXiXiXiXiXiX",
"iXiXiXiXiXiXiXiXiXiXiXiXiXiXiXiXiXiX    & u / ;.b.;.;.^ u &         & u ^ ;.b.b.;.^ g &     iXiXiXiXiXiXiXiXiXiXiXiXiXiXiXiXiXiX",
"iXiXiXiXiXiXiXiXiXiXiXiXiXiXiXiXiXiX    * g ` b.n.n.;./ g &         * u / ;.n.n.b.' g &     iXiXiXiXiXiXiXiXiXiXiXiXiXiXiXiXiXiX"
};
