/* XPM */
static char * 2_xpm[] = {
"64 64 382 2",
"  	c None",
". 	c #D58B62",
"+ 	c #9F7466",
"@ 	c #D68D61",
"# 	c #E3AC58",
"$ 	c #E4AE57",
"% 	c #D89060",
"& 	c #D6935F",
"* 	c #9E7466",
"= 	c #D89160",
"- 	c #F6D84A",
"; 	c #E5B056",
"> 	c #A07566",
", 	c #EDC450",
"' 	c #DB995D",
") 	c #D78F60",
"! 	c #D9945F",
"~ 	c #DB965F",
"{ 	c #DA955F",
"] 	c #DC9B5D",
"^ 	c #D9935F",
"/ 	c #D8915D",
"( 	c #D9945E",
"_ 	c #D7935F",
": 	c #D8935F",
"< 	c #E5B156",
"[ 	c #F7D949",
"} 	c #E6B463",
"| 	c #D68D64",
"1 	c #15192B",
"2 	c #D9955F",
"3 	c #D78C63",
"4 	c #F0C94A",
"5 	c #FFFC7A",
"6 	c #F1D075",
"7 	c #D99458",
"8 	c #0E0B20",
"9 	c #2B4B56",
"0 	c #284653",
"a 	c #111023",
"b 	c #D18F5D",
"c 	c #DB985E",
"d 	c #FDE83F",
"e 	c #FFF442",
"f 	c #E2AC57",
"g 	c #0E0A1F",
"h 	c #417C7D",
"i 	c #4FA7AF",
"j 	c #213C4E",
"k 	c #14182A",
"l 	c #171F31",
"m 	c #0F112B",
"n 	c #222232",
"o 	c #CC8F57",
"p 	c #FFEC57",
"q 	c #FFF981",
"r 	c #F6C54A",
"s 	c #4A3740",
"t 	c #030B28",
"u 	c #120E25",
"v 	c #29464F",
"w 	c #4F9FA1",
"x 	c #51AAA9",
"y 	c #508C9D",
"z 	c #222341",
"A 	c #131728",
"B 	c #131929",
"C 	c #0D102B",
"D 	c #35463A",
"E 	c #2B3B37",
"F 	c #41343B",
"G 	c #F8CE40",
"H 	c #FEF999",
"I 	c #FFFB9E",
"J 	c #AB803E",
"K 	c #1B2334",
"L 	c #5E894E",
"M 	c #152028",
"N 	c #39666F",
"O 	c #4DA7AD",
"P 	c #478394",
"Q 	c #374261",
"R 	c #264256",
"S 	c #356D7F",
"T 	c #2F3B59",
"U 	c #161B30",
"V 	c #1B202F",
"W 	c #6FB658",
"X 	c #213735",
"Y 	c #8D6853",
"Z 	c #FFEA58",
"` 	c #FCFBAF",
" .	c #F1CF78",
"..	c #4A3635",
"+.	c #09152B",
"@.	c #95CF61",
"#.	c #5BBB56",
"$.	c #1A453B",
"%.	c #386E86",
"&.	c #406D8B",
"*.	c #346B7E",
"=.	c #3D768C",
"-.	c #40577B",
";.	c #32395A",
">.	c #1B263B",
",.	c #1D2330",
"'.	c #3E964A",
").	c #132430",
"!.	c #6A5D52",
"~.	c #D5C293",
"{.	c #FEF0AD",
"].	c #BDA77D",
"^.	c #1B1F2F",
"/.	c #0C102B",
"(.	c #3B4C3D",
"_.	c #81D85F",
":.	c #39A357",
"<.	c #2E4B54",
"[.	c #377487",
"}.	c #42708D",
"|.	c #414F76",
"1.	c #33546D",
"2.	c #2C6370",
"3.	c #3B6C83",
"4.	c #38436A",
"5.	c #1D323A",
"6.	c #18252E",
"7.	c #4D4846",
"8.	c #DBC290",
"9.	c #8A806B",
"0.	c #BBAA84",
"a.	c #292D38",
"b.	c #141C2C",
"c.	c #090523",
"d.	c #689550",
"e.	c #48C358",
"f.	c #3D7164",
"g.	c #3B7785",
"h.	c #3E8498",
"i.	c #3D8496",
"j.	c #427892",
"k.	c #456B8B",
"l.	c #404F76",
"m.	c #46537E",
"n.	c #2B3151",
"o.	c #131627",
"p.	c #3D3B3F",
"q.	c #524B47",
"r.	c #242632",
"s.	c #4F4B49",
"t.	c #181D2F",
"u.	c #171D2E",
"v.	c #294858",
"w.	c #2F4A37",
"x.	c #439F59",
"y.	c #304A4D",
"z.	c #2D5A6A",
"A.	c #427E96",
"B.	c #415F81",
"C.	c #3C456D",
"D.	c #232043",
"E.	c #212A40",
"F.	c #243345",
"G.	c #1C2A39",
"H.	c #0F182B",
"I.	c #14172D",
"J.	c #0A1328",
"K.	c #1F2234",
"L.	c #554A4E",
"M.	c #1D2032",
"N.	c #1A2334",
"O.	c #59B0A9",
"P.	c #3D7A7D",
"Q.	c #40837D",
"R.	c #325E6D",
"S.	c #387A8C",
"T.	c #3F6684",
"U.	c #201F3C",
"V.	c #233440",
"W.	c #275E41",
"X.	c #309647",
"Y.	c #34AC4D",
"Z.	c #68BD57",
"`.	c #6CA955",
" +	c #1A2C32",
".+	c #13102B",
"++	c #433D44",
"@+	c #9A7D6E",
"#+	c #3D3A41",
"$+	c #1C2737",
"%+	c #52A4A2",
"&+	c #53ABAD",
"*+	c #4896A3",
"=+	c #428FA0",
"-+	c #2A4351",
";+	c #263E42",
">+	c #3E6964",
",+	c #40AF5E",
"'+	c #3ABD52",
")+	c #35AB50",
"!+	c #46B554",
"~+	c #89E264",
"{+	c #7FCA5D",
"]+	c #1C3233",
"^+	c #13132C",
"/+	c #282938",
"(+	c #866E64",
"_+	c #3A323E",
":+	c #171B2C",
"<+	c #396E77",
"[+	c #3C8595",
"}+	c #3B8496",
"|+	c #3E899A",
"1+	c #3B8192",
"2+	c #172030",
"3+	c #304E51",
"4+	c #416F68",
"5+	c #3E7662",
"6+	c #234D3D",
"7+	c #182230",
"8+	c #162F32",
"9+	c #20523A",
"0+	c #317243",
"a+	c #36AA4F",
"b+	c #1C3534",
"c+	c #171E2E",
"d+	c #292537",
"e+	c #224439",
"f+	c #1E4137",
"g+	c #14162B",
"h+	c #2A3552",
"i+	c #395B78",
"j+	c #3F6885",
"k+	c #3E7A90",
"l+	c #416A88",
"m+	c #222642",
"n+	c #2D4C4C",
"o+	c #467B6F",
"p+	c #3F6B66",
"q+	c #3A5F5F",
"r+	c #3A625F",
"s+	c #171A2F",
"t+	c #120829",
"u+	c #100B2A",
"v+	c #1B3434",
"w+	c #1A2E32",
"x+	c #0A0F2A",
"y+	c #53824A",
"z+	c #85B258",
"A+	c #315D3E",
"B+	c #24653F",
"C+	c #14102B",
"D+	c #336174",
"E+	c #2E5368",
"F+	c #3C798E",
"G+	c #3E8093",
"H+	c #3E8496",
"I+	c #416383",
"J+	c #252B45",
"K+	c #2F5150",
"L+	c #417568",
"M+	c #43776A",
"N+	c #2A4649",
"O+	c #13192A",
"P+	c #15192D",
"Q+	c #318848",
"R+	c #6EDF60",
"S+	c #3B6A42",
"T+	c #12182D",
"U+	c #152133",
"V+	c #275467",
"W+	c #4190A1",
"X+	c #4192A3",
"Y+	c #428198",
"Z+	c #42587E",
"`+	c #414D75",
" @	c #384265",
".@	c #3B5466",
"+@	c #426F6B",
"@@	c #344061",
"#@	c #212942",
"$@	c #14192A",
"%@	c #130D2B",
"&@	c #26643F",
"*@	c #32BB52",
"=@	c #1D5039",
"-@	c #14112C",
";@	c #161D2D",
">@	c #293341",
",@	c #3B5560",
"'@	c #2B5063",
")@	c #2A5466",
"!@	c #293E57",
"~@	c #353D60",
"{@	c #3A4B73",
"]@	c #364670",
"^@	c #3B4871",
"/@	c #222C43",
"(@	c #394669",
"_@	c #353F5E",
":@	c #131A29",
"<@	c #15172E",
"[@	c #161E2E",
"}@	c #1E2833",
"|@	c #212333",
"1@	c #181D2E",
"2@	c #423C3F",
"3@	c #5F4E46",
"4@	c #806852",
"5@	c #7D6451",
"6@	c #877057",
"7@	c #706153",
"8@	c #4C4249",
"9@	c #51484C",
"0@	c #35343E",
"a@	c #5E4F4D",
"b@	c #53494A",
"c@	c #493F47",
"d@	c #293238",
"e@	c #266B40",
"f@	c #181F2F",
"g@	c #403943",
"h@	c #4C4448",
"i@	c #091328",
"j@	c #192032",
"k@	c #2A3A5B",
"l@	c #253759",
"m@	c #394159",
"n@	c #3C435B",
"o@	c #3C435A",
"p@	c #363F59",
"q@	c #3B3C4E",
"r@	c #3D3943",
"s@	c #2A2B37",
"t@	c #3D3942",
"u@	c #2F2F3B",
"v@	c #181B2F",
"w@	c #1C2C33",
"x@	c #339E4C",
"y@	c #1A2D32",
"z@	c #1C2131",
"A@	c #131527",
"B@	c #254456",
"C@	c #42889B",
"D@	c #418295",
"E@	c #3D7790",
"F@	c #3F6184",
"G@	c #404D78",
"H@	c #43537D",
"I@	c #394971",
"J@	c #242C43",
"K@	c #5D5051",
"L@	c #31303B",
"M@	c #564B4D",
"N@	c #332E3C",
"O@	c #142E30",
"P@	c #1D3534",
"Q@	c #172032",
"R@	c #182234",
"S@	c #172132",
"T@	c #172232",
"U@	c #1C263A",
"V@	c #222A41",
"W@	c #222941",
"X@	c #171F34",
"Y@	c #3C373E",
"Z@	c #33313C",
"`@	c #161C2E",
" #	c #50464A",
".#	c #1A2030",
"+#	c #14172C",
"@#	c #161B2D",
"##	c #151A2C",
"$#	c #161A2D",
"%#	c #141A2B",
"&#	c #10182C",
"*#	c #11182C",
"=#	c #0D152A",
"-#	c #151B2E",
";#	c #161D2E",
">#	c #161D2F",
",#	c #171D2F",
"                                                                                                                                ",
"                                                                                                                                ",
"                                                                                                                                ",
"                                                                                                                                ",
"                                                                                                                                ",
"                                                                                                                                ",
"                                                                                                                                ",
"                                                                                                                                ",
"                                                                                                                                ",
"                                                                                                                                ",
"                                                                                                                                ",
"                                                                                                                                ",
"                                                                                                                                ",
"                                                                                                                                ",
"                                                                                                                                ",
"                                                                                                                                ",
"                                      .       +                                                                                 ",
"                                  @ # $ % & * * *                                                                               ",
"                                  = - ; @       >                                                                               ",
"                                  = , ' ) ! ~                                                                                   ",
"                                  ! ' { ] ^ / ( _                                                                               ",
"                                  ! ^ : < [ } | !         1                                                                     ",
"                                    ! 2 3 4 5 6 7       8 9 0 a                                                                 ",
"                                        b c d e f       g h i j k l         m                                                   ",
"                                        n o p q r s t u v w x y z A B   C D E                                                   ",
"                                        F G H I J K L M N O P Q R S T U V W X                                                   ",
"                                        Y Z `  ...+.@.#.$.%.&.*.=.-.;.>.,.'.).                                                  ",
"                                        !.~.{.].^./.(._.:.<.[.}.|.1.2.3.4.5.6.                                                  ",
"                                        7.8.9.0.a.b.c.d.e.f.g.h.i.j.k.l.m.n.o.                                                  ",
"                                        p.q.r.s.t.u.v.w.x.y.z.A.B.C.D.E.F.G.H.I.                                                ",
"                                        J.K.L.M.  N.O.P.Q.R.S.T.U.V.W.X.Y.Z.`. +.+                                              ",
"                                          ++@+#+  $+%+&+*+=+h.-+;+>+,+'+)+!+~+{+]+^+                                            ",
"                                          /+(+_+  :+<+[+}+|+1+2+3+4+5+6+7+8+9+0+a+b+                                            ",
"                                          c+d+e+f+g+h+i+j+k+l+m+n+o+p+q+r+s+t+u+v+w+                                            ",
"                                        x+y+z+A+B+C+D+E+F+G+H+I+J+K+L+M+N+O+                                                    ",
"                                        P+Q+R+S+T+u.U+V+W+X+Y+Z+`+ @.@+@@@#@$@                                                  ",
"                                        %@&@*@=@-@;@>@,@'@)@!@~@{@]@^@/@(@_@:@<@                                                ",
"                                          [@}@|@  1@2@3@4@5@6@7@8@9@0@a@b@c@d@e@f@                                              ",
"                                          J.g@h@i@j@k@l@m@n@o@p@q@r@s@t@u@v@w@x@y@                                              ",
"                                            z@  A@B@C@D@E@F@G@H@I@J@K@L@M@N@O@P@                                                ",
"                                                  Q@R@S@T@U@V@W@X@Y@Z@`@ #.#+#                                                  ",
"                                                `@@###@#$###%#%#@#&#*#`@=#-#;#;#                                                ",
"                                              `@`@`@`@`@`@`@>#>#`@,#u.`@t.`@`@`@                                                ",
"                                                `@`@`@`@`@`@`@`@`@`@`@`@`@`@`@`@                                                ",
"                                                                                                                                ",
"                                                                                                                                ",
"                                                                                                                                ",
"                                                                                                                                ",
"                                                                                                                                ",
"                                                                                                                                ",
"                                                                                                                                ",
"                                                                                                                                ",
"                                                                                                                                ",
"                                                                                                                                ",
"                                                                                                                                ",
"                                                                                                                                ",
"                                                                                                                                ",
"                                                                                                                                ",
"                                                                                                                                ",
"                                                                                                                                ",
"                                                                                                                                ",
"                                                                                                                                ",
"                                                                                                                                ",
"                                                                                                                                "};
