/* XPM */
static char * d2_xpm[] = {
"64 64 387 2",
"  	c None",
". 	c #D89160",
"+ 	c #D89260",
"@ 	c #D9995C",
"# 	c #D9935F",
"$ 	c #D79061",
"% 	c #E2A958",
"& 	c #F6D84A",
"* 	c #EFCA4E",
"= 	c #EFB957",
"- 	c #FFE747",
"; 	c #E5B156",
"> 	c #D58A62",
", 	c #D99460",
"' 	c #D9945D",
") 	c #FBE447",
"! 	c #FEEF46",
"~ 	c #E9A95D",
"{ 	c #9E734E",
"] 	c #966E4C",
"^ 	c #D9945F",
"/ 	c #1C2D3F",
"( 	c #DB9855",
"_ 	c #FDF5B9",
": 	c #FCEE80",
"< 	c #E09658",
"[ 	c #A17054",
"} 	c #14182A",
"| 	c #295063",
"1 	c #316476",
"2 	c #1A2B3C",
"3 	c #B78354",
"4 	c #FFF271",
"5 	c #FDEF5A",
"6 	c #EFC946",
"7 	c #E19761",
"8 	c #0F0C20",
"9 	c #396A70",
"0 	c #4EADB8",
"a 	c #3B6D87",
"b 	c #21263E",
"c 	c #2B253B",
"d 	c #B1A329",
"e 	c #FFFFA0",
"f 	c #FFFFD0",
"g 	c #DABC42",
"h 	c #38696E",
"i 	c #407E87",
"j 	c #224150",
"k 	c #334866",
"l 	c #3C476D",
"m 	c #1B2337",
"n 	c #313530",
"o 	c #E3D447",
"p 	c #FFFFF7",
"q 	c #F6F091",
"r 	c #5C5A25",
"s 	c #27434F",
"t 	c #4792A0",
"u 	c #2F4D68",
"v 	c #284E5F",
"w 	c #2B5466",
"x 	c #405A7D",
"y 	c #384367",
"z 	c #161C2E",
"A 	c #1E2D32",
"B 	c #2E4F3B",
"C 	c #5F5C1F",
"D 	c #E4DD9D",
"E 	c #F5F4F7",
"F 	c #454633",
"G 	c #0E152C",
"H 	c #14192C",
"I 	c #40848C",
"J 	c #51A7AE",
"K 	c #408799",
"L 	c #2E5C6E",
"M 	c #377587",
"N 	c #3C5978",
"O 	c #424D76",
"P 	c #26304A",
"Q 	c #11182D",
"R 	c #3C954C",
"S 	c #4E7B48",
"T 	c #15192D",
"U 	c #C5B693",
"V 	c #ECDDA7",
"W 	c #32353C",
"X 	c #19182E",
"Y 	c #456F44",
"Z 	c #21533B",
"` 	c #110F2C",
" .	c #121121",
"..	c #254658",
"+.	c #468599",
"@.	c #3A5868",
"#.	c #1A293B",
"$.	c #131527",
"%.	c #294D5F",
"&.	c #314260",
"*.	c #3D4C71",
"=.	c #3E4C72",
"-.	c #171930",
";.	c #2D844A",
">.	c #75D35E",
",.	c #323D38",
"'.	c #706455",
").	c #EBD49D",
"!.	c #FBEBB1",
"~.	c #9C8B6F",
"{.	c #5B804A",
"].	c #78DA60",
"^.	c #2C8247",
"/.	c #161D2D",
"(.	c #336A7B",
"_.	c #3F5E82",
":.	c #2E4D69",
"<.	c #326A79",
"[.	c #3C7E90",
"}.	c #418FA1",
"|.	c #40879B",
"1.	c #416383",
"2.	c #3D466E",
"3.	c #2C474F",
"4.	c #42AD5B",
"5.	c #7AB957",
"6.	c #1E2331",
"7.	c #242734",
"8.	c #D3BC8D",
"9.	c #6E675A",
"0.	c #96876D",
"a.	c #3E3E43",
"b.	c #12152C",
"c.	c #6D9550",
"d.	c #5AD55E",
"e.	c #2E644E",
"f.	c #2B4F66",
"g.	c #4797A3",
"h.	c #56ADAB",
"i.	c #5CB8B1",
"j.	c #55ADAB",
"k.	c #437189",
"l.	c #3E5075",
"m.	c #404E75",
"n.	c #3F4D73",
"o.	c #3F636A",
"p.	c #45A863",
"q.	c #367342",
"r.	c #3B3A3F",
"s.	c #5A514B",
"t.	c #11172B",
"u.	c #222432",
"v.	c #273334",
"w.	c #44A552",
"x.	c #418569",
"y.	c #46878F",
"z.	c #5AB6AE",
"A.	c #51A5A5",
"B.	c #47939E",
"C.	c #408D9C",
"D.	c #3F7B91",
"E.	c #424F77",
"F.	c #425178",
"G.	c #425179",
"H.	c #40556E",
"I.	c #2B494B",
"J.	c #162330",
"K.	c #040E26",
"L.	c #685856",
"M.	c #494247",
"N.	c #1D3938",
"O.	c #2F4E50",
"P.	c #57ACA4",
"Q.	c #4C9FA6",
"R.	c #3B7E93",
"S.	c #3A8093",
"T.	c #3E7A91",
"U.	c #425D80",
"V.	c #343F61",
"W.	c #1D213A",
"X.	c #345D73",
"Y.	c #416587",
"Z.	c #33385E",
"`.	c #1C2338",
" +	c #171D2F",
".+	c #645454",
"++	c #866F63",
"@+	c #14162B",
"#+	c #316679",
"$+	c #489AA6",
"%+	c #31677A",
"&+	c #1A2B37",
"*+	c #192636",
"=+	c #212B43",
"-+	c #21233E",
";+	c #1A2833",
">+	c #2B4649",
",+	c #13192C",
"'+	c #38788A",
")+	c #47668A",
"!+	c #2B3350",
"~+	c #3F3943",
"{+	c #75605C",
"]+	c #1D2432",
"^+	c #305F6F",
"/+	c #5BB9B5",
"(+	c #3C8193",
"_+	c #1B2739",
":+	c #329249",
"<+	c #329E4B",
"[+	c #287F42",
"}+	c #2E8A45",
"|+	c #36A84F",
"1+	c #417F68",
"2+	c #2E484C",
"3+	c #233F4D",
"4+	c #418097",
"5+	c #2A3550",
"6+	c #212632",
"7+	c #1A182E",
"8+	c #23603E",
"9+	c #245A3D",
"0+	c #2E5869",
"a+	c #53AFB4",
"b+	c #26495C",
"c+	c #314D4E",
"d+	c #3D7764",
"e+	c #3BA84E",
"f+	c #51CA59",
"g+	c #37B853",
"h+	c #36AD4E",
"i+	c #356457",
"j+	c #426F67",
"k+	c #223D4C",
"l+	c #3D6582",
"m+	c #1B1F34",
"n+	c #437E47",
"o+	c #95D963",
"p+	c #426241",
"q+	c #163132",
"r+	c #151A2C",
"s+	c #356F82",
"t+	c #336E80",
"u+	c #21353C",
"v+	c #406B69",
"w+	c #2C5143",
"x+	c #76B958",
"y+	c #3DBD54",
"z+	c #297642",
"A+	c #37585C",
"B+	c #23363C",
"C+	c #2E5B70",
"D+	c #23384C",
"E+	c #22663F",
"F+	c #4FD45B",
"G+	c #3F9E4D",
"H+	c #171D2E",
"I+	c #1B2D3E",
"J+	c #355D75",
"K+	c #222946",
"L+	c #2E4B49",
"M+	c #203644",
"N+	c #648448",
"O+	c #67D35D",
"P+	c #1B4C3A",
"Q+	c #2A3D45",
"R+	c #223A4B",
"S+	c #425B7F",
"T+	c #364062",
"U+	c #26613E",
"V+	c #22513A",
"W+	c #130D2B",
"X+	c #192230",
"Y+	c #225C3D",
"Z+	c #1B3E36",
"`+	c #16172D",
" @	c #171E30",
".@	c #121425",
"+@	c #31566D",
"@@	c #427490",
"#@	c #314760",
"$@	c #2B3B50",
"%@	c #304141",
"&@	c #43AC4B",
"*@	c #27404C",
"=@	c #364163",
"-@	c #3F4F73",
";@	c #43527B",
">@	c #283451",
",@	c #161C2D",
"'@	c #161B2E",
")@	c #17202F",
"!@	c #38B151",
"~@	c #3BC054",
"{@	c #1D3A35",
"]@	c #0E0B28",
"^@	c #54444B",
"/@	c #3B3840",
"(@	c #161D2F",
"_@	c #32697B",
":@	c #459AAA",
"<@	c #438B9D",
"[@	c #44738E",
"}@	c #344164",
"|@	c #1B3835",
"1@	c #3B496A",
"2@	c #46547F",
"3@	c #33436C",
"4@	c #1E2944",
"5@	c #594D4D",
"6@	c #453E44",
"7@	c #181C2F",
"8@	c #349E4C",
"9@	c #1C3534",
"0@	c #30303B",
"a@	c #2C2C38",
"b@	c #1E2E40",
"c@	c #20485E",
"d@	c #28687F",
"e@	c #2D7C91",
"f@	c #3B597B",
"g@	c #222647",
"h@	c #1D2946",
"i@	c #232C47",
"j@	c #5D5652",
"k@	c #997F64",
"l@	c #4F4448",
"m@	c #202333",
"n@	c #182430",
"o@	c #4A4244",
"p@	c #755F52",
"q@	c #6D6155",
"r@	c #75695D",
"s@	c #262838",
"t@	c #7B6D5A",
"u@	c #8D7A5F",
"v@	c #282734",
"w@	c #7D6B5C",
"x@	c #4E505C",
"y@	c #2C3A5F",
"z@	c #3D4C73",
"A@	c #27304A",
"B@	c #131929",
"C@	c #202131",
"D@	c #4E4347",
"E@	c #544C4B",
"F@	c #665954",
"G@	c #2E2D38",
"H@	c #635951",
"I@	c #857063",
"J@	c #413C43",
"K@	c #0F162C",
"L@	c #314067",
"M@	c #343F5F",
"N@	c #232B44",
"O@	c #333F5F",
"P@	c #222A41",
"Q@	c #2B4B62",
"R@	c #396F8E",
"S@	c #35728C",
"T@	c #0D2943",
"U@	c #42393F",
"V@	c #3D3A41",
"W@	c #040E25",
"X@	c #433D44",
"Y@	c #443E44",
"Z@	c #11182C",
"`@	c #151A2A",
" #	c #121727",
".#	c #151B2D",
"+#	c #182133",
"@#	c #346D7E",
"##	c #2E5C6C",
"$#	c #264455",
"%#	c #172234",
"&#	c #867260",
"*#	c #38363E",
"=#	c #282A37",
"-#	c #192436",
";#	c #121124",
">#	c #141628",
",#	c #13182C",
"'#	c #32333A",
")#	c #1B2030",
"!#	c #12192C",
"~#	c #151B2E",
"{#	c #171C2E",
"                                                                                                                                ",
"                                                                                                                                ",
"                                                                                                                                ",
"                                                                                                                                ",
"                                                                                                                                ",
"                                                                                                                                ",
"                                                                                                                                ",
"                                                                                                                                ",
"                                                                                                                                ",
"                                                                                                                                ",
"                                                                                                                                ",
"                                                                                                                                ",
"                                                                                                                                ",
"                                                                                                                                ",
"                                                                                                                                ",
"                            . + + @     #                                                                                       ",
"                          $ % & * = - ; >                                                                                       ",
"                        , ' ) ! ~ { ]       ^ ^         /                                                                       ",
"                          ( _ : < [                   } | 1 2                                                                   ",
"                          3 4 5 6 7                   8 9 0 a b                                                                 ",
"                          c d e f g                   h i j k l m                                                               ",
"                            n o p q r               s t u v w x y z     A B                                                     ",
"                              C D E F     G       H I J K L M N O P   Q R S                                                     ",
"                              T U V W   X Y Z `  ...+.@.#.$.%.&.*.=.-.;.>.,.                                                    ",
"                              '.).!.~.    {.].^./.(._.:.<.[.}.|.1.2.3.4.5.6.                                                    ",
"                              7.8.9.0.a.  b.c.d.e.f.g.h.i.j.k.l.m.n.o.p.q.                                                      ",
"                              r.s.t.u.      v.w.x.y.z.A.B.C.D.E.F.G.H.I.J.                                                      ",
"                                K.L.M.        N.O.P.Q.R.S.T.U.V.W.X.Y.Z.`.                                                      ",
"                                 +.+++        @+#+$+%+&+*+=+-+;+>+,+'+)+!+                                                      ",
"                                  ~+{+]+      ^+/+(+_+:+<+[+}+|+1+2+3+4+5+                                                      ",
"                                  6+7+8+9+    0+a+b+c+d+e+f+g+h+i+j+k+l+m+                                                      ",
"                                  n+o+p+q+    r+s+t+u+v+w+x+y+z+A+B+C+D+                                                        ",
"                                  E+F+G+b.H+    I+J+K+L+M+N+O+P+Q+R+S+T+      U+V+W+                                            ",
"                                  X+Y+Z+`+  z  @.@+@@@#@$@%@&@*@=@-@;@>@,@'@)@!@~@{@                                            ",
"                                    ]@^@/@    (@r+_@:@<@[@}@|@1@2@3@4@5@6@  7@V+8@9@                                            ",
"                                      0@a@        b@c@d@e@f@g@h@i@j@k@l@m@      n@                                              ",
"                                                  o@p@q@r@s@t@u@v@w@x@y@z@A@B@                                                  ",
"                                                  C@D@E@F@G@H@I@J@K@L@M@N@O@P@                                                  ",
"                                                  Q@R@S@T@U@V@W@X@Y@Z@`@ #.# @                                                  ",
"                                                +#@###$#%#&#*#  H+=#     +z                                                     ",
"                                                  -#;#>#,#'#)#.#z !#H+z z z                                                     ",
"                                                z .# @(@H+Z@~#z z {#z z z z z z                                                 ",
"                                                z z z z z H+z z z z z z z z z z                                                 ",
"                                                    z z z z z z z z z z z z                                                     ",
"                                                                                                                                ",
"                                                                                                                                ",
"                                                                                                                                ",
"                                                                                                                                ",
"                                                                                                                                ",
"                                                                                                                                ",
"                                                                                                                                ",
"                                                                                                                                ",
"                                                                                                                                ",
"                                                                                                                                ",
"                                                                                                                                ",
"                                                                                                                                ",
"                                                                                                                                ",
"                                                                                                                                ",
"                                                                                                                                ",
"                                                                                                                                ",
"                                                                                                                                ",
"                                                                                                                                ",
"                                                                                                                                ",
"                                                                                                                                "};
