/* XPM */
static char * d3_xpm[] = {
"64 64 490 2",
"  	c None",
". 	c #9E7466",
"+ 	c #171E30",
"@ 	c #1C2B3D",
"# 	c #15192A",
"$ 	c #2B5365",
"% 	c #32687C",
"& 	c #223C4E",
"* 	c #100B1D",
"= 	c #9D7366",
"- 	c #1B2737",
"; 	c #53ACAE",
"> 	c #418EA0",
", 	c #2E5B6D",
"' 	c #151B2C",
") 	c #B68163",
"! 	c #967067",
"~ 	c #080528",
"{ 	c #1A2435",
"] 	c #30555E",
"^ 	c #2D4952",
"/ 	c #233F50",
"( 	c #39627C",
"_ 	c #2F3857",
": 	c #161D2F",
"< 	c #DD965E",
"[ 	c #B48063",
"} 	c #476242",
"| 	c #4D904C",
"1 	c #163A34",
"2 	c #14182C",
"3 	c #3E7F87",
"4 	c #438B98",
"5 	c #315871",
"6 	c #2E5368",
"7 	c #2A5163",
"8 	c #41597D",
"9 	c #272F4A",
"0 	c #BA8363",
"a 	c #C88B61",
"b 	c #344439",
"c 	c #76AE57",
"d 	c #4DC658",
"e 	c #1C4837",
"f 	c #14122B",
"g 	c #356D7D",
"h 	c #44788D",
"i 	c #345B65",
"j 	c #264857",
"k 	c #213B4C",
"l 	c #377587",
"m 	c #3F587B",
"n 	c #374064",
"o 	c #161B2D",
"p 	c #1A2634",
"q 	c #C38862",
"r 	c #E3995E",
"s 	c #313637",
"t 	c #67C958",
"u 	c #2F8753",
"v 	c #1D233A",
"w 	c #3C8196",
"x 	c #345B74",
"y 	c #234256",
"z 	c #244358",
"A 	c #2B5768",
"B 	c #2B475E",
"C 	c #334060",
"D 	c #415278",
"E 	c #252D47",
"F 	c #202C3C",
"G 	c #388158",
"H 	c #182C2E",
"I 	c #A57865",
"J 	c #D08F60",
"K 	c #A37765",
"L 	c #19192E",
"M 	c #398D4B",
"N 	c #408D60",
"O 	c #407176",
"P 	c #4D9FA3",
"Q 	c #54AEAC",
"R 	c #57B2B1",
"S 	c #51A9AD",
"T 	c #4593A2",
"U 	c #40889C",
"V 	c #40768F",
"W 	c #44587F",
"X 	c #282D4D",
"Y 	c #2C504D",
"Z 	c #44B35C",
"` 	c #344E3A",
" .	c #D39160",
"..	c #AC7B64",
"+.	c #16202D",
"@.	c #3C6C6B",
"#.	c #5DB8AE",
"$.	c #53A9AA",
"%.	c #47969F",
"&.	c #48969F",
"*.	c #47979E",
"=.	c #428495",
"-.	c #3F5176",
";.	c #404D74",
">.	c #3F4B72",
",.	c #395061",
"'.	c #38925B",
").	c #70D35A",
"!.	c #41513F",
"~.	c #A27665",
"{.	c #14182A",
"].	c #294C5D",
"^.	c #47949D",
"/.	c #43909F",
"(.	c #274C60",
"_.	c #1C2A44",
":.	c #356D84",
"<.	c #3E879A",
"[.	c #3F6B88",
"}.	c #3F4A71",
"|.	c #415079",
"1.	c #425F6E",
"2.	c #3C7C60",
"3.	c #356144",
"4.	c #A27666",
"5.	c #151D32",
"6.	c #4A979C",
"7.	c #50A8AC",
"8.	c #223A56",
"9.	c #225134",
"0.	c #2C8142",
"a.	c #1B2F35",
"b.	c #202A43",
"c.	c #222742",
"d.	c #1D2239",
"e.	c #1C2A3C",
"f.	c #3A7288",
"g.	c #42597D",
"h.	c #242943",
"i.	c #0F0F29",
"j.	c #CA8C61",
"k.	c #D29060",
"l.	c #14182B",
"m.	c #3A7887",
"n.	c #305F71",
"o.	c #1D2634",
"p.	c #3E7863",
"q.	c #39AF52",
"r.	c #31A14C",
"s.	c #2B8042",
"t.	c #2C8B43",
"u.	c #3A815C",
"v.	c #222E3B",
"w.	c #1E3849",
"x.	c #407B93",
"y.	c #3F4C73",
"z.	c #20293E",
"A.	c #DC955F",
"B.	c #DA955F",
"C.	c #1E3144",
"D.	c #2F6274",
"E.	c #1B2733",
"F.	c #3C6664",
"G.	c #233838",
"H.	c #73C95B",
"I.	c #3CBB55",
"J.	c #37B550",
"K.	c #2F614C",
"L.	c #3E6765",
"M.	c #21313C",
"N.	c #3A7E91",
"O.	c #415379",
"P.	c #D9945F",
"Q.	c #293452",
"R.	c #3E496C",
"S.	c #3E5778",
"T.	c #232642",
"U.	c #284346",
"V.	c #314546",
"W.	c #79BB57",
"X.	c #3DC456",
"Y.	c #27713E",
"Z.	c #334E56",
"`.	c #375B55",
" +	c #264D5C",
".+	c #41718D",
"++	c #29314D",
"@+	c #443F45",
"#+	c #2D3244",
"$+	c #25335B",
"%+	c #3C5B80",
"&+	c #437F96",
"*+	c #1A2B4A",
"=+	c #5D7A48",
"-+	c #65DA5F",
";+	c #248343",
">+	c #264041",
",+	c #2D484B",
"'+	c #223849",
")+	c #3E6684",
"!+	c #232F45",
"~+	c #111024",
"{+	c #393039",
"]+	c #806B5B",
"^+	c #7C6A59",
"/+	c #404F55",
"(+	c #335C6A",
"_+	c #132439",
":+	c #2B7F40",
"<+	c #2F6540",
"[+	c #172034",
"}+	c #343F62",
"|+	c #404E76",
"1+	c #2E3757",
"2+	c #121728",
"3+	c #1F3546",
"4+	c #366379",
"5+	c #2D5C74",
"6+	c #2B2E3B",
"7+	c #937E69",
"8+	c #B29372",
"9+	c #876A5A",
"0+	c #635750",
"a+	c #78745C",
"b+	c #251F32",
"c+	c #232940",
"d+	c #2B3252",
"e+	c #263147",
"f+	c #1B293A",
"g+	c #212434",
"h+	c #192537",
"i+	c #26485A",
"j+	c #2F5D6E",
"k+	c #326F83",
"l+	c #1D4157",
"m+	c #2C2C36",
"n+	c #625854",
"o+	c #6F6356",
"p+	c #3C373E",
"q+	c #4B4548",
"r+	c #3C343E",
"s+	c #1B5634",
"t+	c #309A48",
"u+	c #3EB751",
"v+	c #3E6042",
"w+	c #110E21",
"x+	c #1B2637",
"y+	c #141D30",
"z+	c #474343",
"A+	c #6D5E57",
"B+	c #5C4F4F",
"C+	c #484047",
"D+	c #292A37",
"E+	c #12162C",
"F+	c #34994C",
"G+	c #39C355",
"H+	c #7DD35F",
"I+	c #526A46",
"J+	c #53434C",
"K+	c #625652",
"L+	c #2A2A37",
"M+	c #272A36",
"N+	c #837A67",
"O+	c #3D3C3F",
"P+	c #161C2E",
"Q+	c #151A2C",
"R+	c #171C2E",
"S+	c #0E162B",
"T+	c #081128",
"U+	c #39363E",
"V+	c #37343E",
"W+	c #1A1F30",
"X+	c #15192D",
"Y+	c #204437",
"Z+	c #2D8E48",
"`+	c #6ABC58",
" @	c #1D212F",
".@	c #5B4E50",
"+@	c #8D7367",
"@@	c #594C50",
"#@	c #292A35",
"$@	c #B0A07C",
"%@	c #E3CFA0",
"&@	c #918A5A",
"*@	c #ACA232",
"=@	c #222732",
"-@	c #181E2F",
";@	c #191E2F",
">@	c #0F172B",
",@	c #10182B",
"'@	c #151B2E",
")@	c #161D2E",
"!@	c #14132C",
"~@	c #14182D",
"{@	c #182530",
"]@	c #10172B",
"^@	c #222535",
"/@	c #1E2233",
"(@	c #4C4644",
"_@	c #D4C395",
":@	c #F6E9AB",
"<@	c #FFFFDA",
"[@	c #FFFF84",
"}@	c #CCBE34",
"|@	c #393B33",
"1@	c #F2CF4D",
"2@	c #E4AE57",
"3@	c #D78F61",
"4@	c #D9955F",
"5@	c #171D2E",
"6@	c #161E2E",
"7@	c #151A2E",
"8@	c #12182B",
"9@	c #5C544C",
"0@	c #8E806F",
"a@	c #E9D06F",
"b@	c #FEFCD5",
"c@	c #FAF9ED",
"d@	c #FFFF49",
"e@	c #CABE42",
"f@	c #EBBE52",
"g@	c #D68C61",
"h@	c #DA975E",
"i@	c #D8945E",
"j@	c #E29A61",
"k@	c #00001C",
"l@	c #735447",
"m@	c #E6A255",
"n@	c #FCF4B4",
"o@	c #FFFFFF",
"p@	c #FFFEE8",
"q@	c #F2E672",
"r@	c #767126",
"s@	c #FEEC44",
"t@	c #D68E60",
"u@	c #E19961",
"v@	c #B27C55",
"w@	c #5C473F",
"x@	c #AB7954",
"y@	c #D78E66",
"z@	c #F2CC3C",
"A@	c #FFFBAD",
"B@	c #FEFFFF",
"C@	c #FFF378",
"D@	c #5E5C2C",
"E@	c #F7D94A",
"F@	c #EDC351",
"G@	c #D69060",
"H@	c #DF9861",
"I@	c #A87653",
"J@	c #8C654B",
"K@	c #262632",
"L@	c #674846",
"M@	c #956B4E",
"N@	c #C6885B",
"O@	c #E59965",
"P@	c #EEC742",
"Q@	c #FDEF7A",
"R@	c #FFFEF4",
"S@	c #FFFBC9",
"T@	c #FAEB5D",
"U@	c #4B4B2C",
"V@	c #FFEF43",
"W@	c #EFC84F",
"X@	c #D68F60",
"Y@	c #E49D61",
"Z@	c #DF9562",
"`@	c #C07F5C",
" #	c #D7925F",
".#	c #FFF946",
"+#	c #918A3A",
"@#	c #051229",
"##	c #E49A62",
"$#	c #D6905F",
"%#	c #C6875B",
"&#	c #C18559",
"*#	c #EDBC55",
"=#	c #FFF049",
"-#	c #F7D34F",
";#	c #EFCC48",
">#	c #FFFB9A",
",#	c #FFFEEF",
"'#	c #FFF8BC",
")#	c #FCED5F",
"!#	c #FFFC48",
"~#	c #B1A73C",
"{#	c #FFF342",
"]#	c #F2CE4D",
"^#	c #DB9B5C",
"/#	c #EFCA4E",
"(#	c #F1C453",
"_#	c #DC9A5D",
":#	c #DB995E",
"<#	c #FFF743",
"[#	c #EFDE43",
"}#	c #C0B53E",
"|#	c #C7B940",
"1#	c #AE7E51",
"2#	c #9C6D51",
"3#	c #976A4F",
"4#	c #CB8A5C",
"5#	c #DC985F",
"6#	c #DC9D5C",
"7#	c #DF9B5F",
"8#	c #E09A60",
"9#	c #ECC251",
"0#	c #E3B155",
"a#	c #F6D948",
"b#	c #FFF53A",
"c#	c #FEF07E",
"d#	c #FFF7B1",
"e#	c #FFEC3D",
"f#	c #FFEE3C",
"g#	c #FDEA44",
"h#	c #726E37",
"i#	c #FFF541",
"j#	c #F2D04D",
"k#	c #E3AC58",
"l#	c #FCE845",
"m#	c #FFEC44",
"n#	c #FDE846",
"o#	c #FEEB45",
"p#	c #FEED44",
"q#	c #FFF144",
"r#	c #FFF645",
"s#	c #FFF345",
"t#	c #FFF246",
"u#	c #FFEA4A",
"v#	c #FFE24D",
"w#	c #F9D94C",
"x#	c #FCE646",
"y#	c #F4D44C",
"z#	c #DEA15B",
"A#	c #D68E61",
"B#	c #D38663",
"C#	c #E1A65B",
"D#	c #FBE447",
"E#	c #FFF596",
"F#	c #FFFCE6",
"G#	c #FFF490",
"H#	c #FFEE46",
"I#	c #FFEE47",
"J#	c #DBBE49",
"K#	c #E8B854",
"L#	c #FFF940",
"M#	c #FFED44",
"N#	c #FBE944",
"O#	c #F2D24C",
"P#	c #EBC151",
"Q#	c #E7B953",
"R#	c #E5B056",
"S#	c #E1A65A",
"T#	c #D89160",
"U#	c #D58B62",
"V#	c #E3AB58",
"W#	c #F4D44E",
"X#	c #FFEF44",
"Y#	c #FFF363",
"Z#	c #FFF38B",
"`#	c #FFF05B",
" $	c #FFED37",
".$	c #EBBD53",
"+$	c #DB995D",
"@$	c #F1CB4E",
"#$	c #D9935F",
"$$	c #D58A62",
"%$	c #D79060",
"&$	c #EBBF52",
"*$	c #FFED46",
"=$	c #FFF238",
"-$	c #FFEB37",
";$	c #FFED4A",
">$	c #FFED43",
",$	c #FEEA3F",
"'$	c #FFED48",
")$	c #F6D84A",
"!$	c #F5D54B",
"~$	c #FFF145",
"{$	c #FFED3C",
"]$	c #FEF077",
"^$	c #FFF9BD",
"/$	c #FFFCE2",
"($	c #FFF377",
"_$	c #F9DD3C",
":$	c #FFEE44",
"<$	c #FFF143",
"[$	c #FFEC46",
"}$	c #FFEC3B",
"|$	c #FFF37E",
"1$	c #FFFAC7",
"                                                                                                                                ",
"                                                                                                                                ",
"                                                                                                                                ",
"                                                                                                                                ",
"                                                                                                                                ",
"                                                                                                                                ",
"                                                                                                                                ",
"                                                                                                                                ",
"                                                                                                                                ",
"                                                                                                                                ",
"                                                                                                                                ",
"                                                                                                                                ",
"                                                                                                                                ",
"                                                                                                                                ",
"                                                                                                                                ",
"                                                                                                                                ",
"                                .                                                                                               ",
"                              . .                                                                                               ",
"                            . .                                                                                                 ",
"                            .   .                                                                                               ",
"                              .                                                                                                 ",
"                                                                                                                                ",
"                              .                                   + @                                                           ",
"                              .                                   # $ % & *                                                     ",
"                            = .                                     - ; > , '                                                   ",
"                            ) !                         ~         { ] ^ / ( _ :                                                 ",
"                          < [                         } | 1     2 3 4 5 6 7 8 9                                                 ",
"                          0 a                         b c d e f g h i j k l m n : o p                                           ",
"                          q r                           s t u v w x y z A B C D E F G H                                         ",
"                        I J K                           L M N O P Q R S T U V W X Y Z `                                         ",
"                           ...                            +.@.#.$.%.&.*.=.-.;.>.,.'.).!.                                        ",
"                          0 ~.                          {.].^./.(._.:.<.[.}.-.|.1.2.3.                                          ",
"                          4.                            5.6.7.8.9.0.a.b.c.d.e.f.g.h.i.                                          ",
"                        j.k.                            l.m.n.o.p.q.r.s.t.u.v.w.x.y.z.                                          ",
"                        A.B.                              C.D.E.F.G.H.I.J.K.L.M.N.O.E                                           ",
"                        P.P.                            Q.R.S.T.U.V.W.X.Y.Z.`. +.+++                                            ",
"                        P.P.                          @+#+$+%+&+*+=+-+;+>+,+'+)+!+                                              ",
"                          P.                        ~+{+]+^+/+(+_+:+<+[+;.}+|+1+2+                                              ",
"                              P.                  3+4+5+6+7+8+9+0+a+b+c+d+e+f+g+                                                ",
"                              P.P.                h+i+j+k+l+m+n+o+p+q+r+s+t+u+v+                                                ",
"                              P.P.P.                  w+x+y+z+A+B+C+D+E+F+G+H+I+J+K+L+M+N+O+                                    ",
"                                P.P.P.            P++ + Q+R+S+T+U+V+W+X+Y+Z+`+ @.@+@@@#@$@%@&@*@=@                              ",
"                            P.  P.P.P.          P+P+P+P+P+P+-@;@>@,@'@)@!@~@{@P+]@^@/@(@_@:@<@[@}@|@                            ",
"                            1@2@3@4@P.P.          P+P+P+P+P+P+P+5@5@P+P+6@)@7@P+    8@9@0@a@b@c@d@e@                            ",
"                              f@g@h@P.i@j@                  P+P+P+P+P+P+              k@l@m@n@o@p@q@r@                          ",
"                              s@2@    t@u@v@5@                                      w@x@y@z@A@B@B@C@D@                          ",
"                                E@    F@G@H@I@J@                              K@L@M@N@O@P@Q@o@R@S@T@U@                          ",
"                                      V@W@X@Y@Z@`@ #    .#+#        @#  ##$#%#&#*#=#-#;#>#,#'#)#!#~#                            ",
"                                        {#]#^#/#(#_#:#  <#[#}#|#1#2#3#4#5#6#7#8#9#0#a#b#c#d#e#f#g#h#                            ",
"                                          i#j#k#l#m#n#o#p#q#r#s#t#u#v#w#x#y#z#A#B#C#D#E#F#G#H#I#J#                              ",
"                                              z#K#L#M#M#M#M#N#V@O#P#Q#R#S#T#U#V#W#X#Y#Z#`# $o#.$                                ",
"                                                +$@$V@m#M#M#      K##$$$%$4@&$*$=$-$;$>$,$'$                                    ",
"                                                      V@M#            )$!$D#~${$]$^$/$($_$                                      ",
"                                                      M#M#M#M#M#    :$V@<$V@[$}$|$1$                                            ",
"                                                                                                                                ",
"                                                                                                                                ",
"                                                                                                                                ",
"                                                                                                                                ",
"                                                                                                                                ",
"                                                                                                                                ",
"                                                                                                                                ",
"                                                                                                                                ",
"                                                                                                                                ",
"                                                                                                                                "};
