/* XPM */
static char * d4_xpm[] = {
"64 64 444 2",
"  	c None",
". 	c #9E7466",
"+ 	c #1A2433",
"@ 	c #315760",
"# 	c #306474",
"$ 	c #316577",
"% 	c #2B5566",
"& 	c #161D2F",
"* 	c #121123",
"= 	c #345F66",
"- 	c #3F8289",
"; 	c #418D98",
"> 	c #427F97",
", 	c #426284",
"' 	c #416D8A",
") 	c #2B5466",
"! 	c #4D6643",
"~ 	c #486343",
"{ 	c #2D5763",
"] 	c #479AA6",
"^ 	c #365574",
"/ 	c #25354D",
"( 	c #1F2C41",
"_ 	c #31395A",
": 	c #1C1F36",
"< 	c #192839",
"[ 	c #1B1D2F",
"} 	c #6CB357",
"| 	c #2B533B",
"1 	c #0E0927",
"2 	c #2B5564",
"3 	c #468499",
"4 	c #4E969D",
"5 	c #3A6575",
"6 	c #263A52",
"7 	c #387A8A",
"8 	c #426083",
"9 	c #323C5D",
"0 	c #131728",
"a 	c #506C45",
"b 	c #59D05A",
"c 	c #267049",
"d 	c #181830",
"e 	c #3E8597",
"f 	c #334568",
"g 	c #1B2338",
"h 	c #254656",
"i 	c #254859",
"j 	c #202D42",
"k 	c #2B3551",
"l 	c #3D4A70",
"m 	c #212A41",
"n 	c #11162D",
"o 	c #3E553E",
"p 	c #47AD53",
"q 	c #3F8863",
"r 	c #305360",
"s 	c #3E8596",
"t 	c #4B989C",
"u 	c #4A979B",
"v 	c #4491A0",
"w 	c #4393A4",
"x 	c #3B7A8D",
"y 	c #396E83",
"z 	c #415B7E",
"A 	c #282D4C",
"B 	c #1D2B37",
"C 	c #296C48",
"D 	c #379049",
"E 	c #358046",
"F 	c #17212F",
"G 	c #090828",
"H 	c #1C3836",
"I 	c #417265",
"J 	c #54A5A0",
"K 	c #5AB8B2",
"L 	c #53ACAE",
"M 	c #4FA1A5",
"N 	c #4A9DA1",
"O 	c #427B8E",
"P 	c #3F5D7F",
"Q 	c #415C7E",
"R 	c #3F4E75",
"S 	c #2E3D52",
"T 	c #368159",
"U 	c #72DE61",
"V 	c #75A955",
"W 	c #427746",
"X 	c #1E3E36",
"Y 	c #1D2D43",
"Z 	c #3C7B8A",
"` 	c #51A9AC",
" .	c #376A7E",
"..	c #24415C",
"+.	c #3B8395",
"@.	c #408B9E",
"#.	c #42738E",
"$.	c #424E76",
"%.	c #425078",
"&.	c #404B74",
"*.	c #435F70",
"=.	c #3E9D5F",
"-.	c #4C944A",
";.	c #1B102D",
">.	c #141B30",
",.	c #468F94",
"'.	c #53B1B5",
").	c #274B6A",
"!.	c #1E4634",
"~.	c #1E4330",
"{.	c #1D2944",
"].	c #283657",
"^.	c #2A274F",
"/.	c #232745",
"(.	c #263A50",
"_.	c #3F6E8A",
":.	c #3F5072",
"<.	c #243840",
"[.	c #111B2E",
"}.	c #151A2D",
"|.	c #418591",
"1.	c #387280",
"2.	c #263644",
"3.	c #3A7D5B",
"4.	c #3CC357",
"5.	c #297B41",
"6.	c #235C38",
"7.	c #236339",
"8.	c #326352",
"9.	c #191E2D",
"0.	c #2A5B6B",
"a.	c #43718F",
"b.	c #363A61",
"c.	c #1D2439",
"d.	c #234153",
"e.	c #2F6476",
"f.	c #1F2F38",
"g.	c #3E6767",
"h.	c #2B553E",
"i.	c #56C959",
"j.	c #37BD55",
"k.	c #3DC756",
"l.	c #357554",
"m.	c #314C52",
"n.	c #1E3040",
"o.	c #3C8294",
"p.	c #44567D",
"q.	c #232B44",
"r.	c #21263C",
"s.	c #3A607B",
"t.	c #1C263B",
"u.	c #335A55",
"v.	c #27323F",
"w.	c #6FA853",
"x.	c #3CBD55",
"y.	c #297C41",
"z.	c #293F48",
"A.	c #44776B",
"B.	c #1C2D3A",
"C.	c #427994",
"D.	c #323D5D",
"E.	c #151B2C",
"F.	c #1E263D",
"G.	c #35446B",
"H.	c #454F79",
"I.	c #3C456A",
"J.	c #263645",
"K.	c #1F2E3A",
"L.	c #73A152",
"M.	c #50C557",
"N.	c #1D4239",
"O.	c #355757",
"P.	c #21363F",
"Q.	c #32667A",
"R.	c #2C405A",
"S.	c #181B30",
"T.	c #14182A",
"U.	c #897766",
"V.	c #4C484B",
"W.	c #1D2B49",
"X.	c #336A87",
"Y.	c #3F8296",
"Z.	c #1C3757",
"`.	c #354A39",
" +	c #54BB55",
".+	c #1D383C",
"++	c #304057",
"@+	c #3E5479",
"#+	c #3F5476",
"$+	c #161B2E",
"%+	c #1C253F",
"&+	c #3C343C",
"*+	c #A7876A",
"=+	c #947B61",
"-+	c #6A6963",
";+	c #213E50",
">+	c #5B615E",
",+	c #433A41",
"'+	c #133D30",
")+	c #273348",
"!+	c #30305C",
"~+	c #2C3252",
"{+	c #1A1A36",
"]+	c #31566C",
"^+	c #2F617A",
"/+	c #283D4B",
"(+	c #5E5957",
"_+	c #746459",
":+	c #22212E",
"<+	c #796558",
"[+	c #5B534E",
"}+	c #54414A",
"|+	c #1A2333",
"1+	c #25643C",
"2+	c #278440",
"3+	c #296B3F",
"4+	c #10192B",
"5+	c #1C2F41",
"6+	c #2A5061",
"7+	c #264A5D",
"8+	c #296378",
"9+	c #164159",
"0+	c #65514D",
"a+	c #494348",
"b+	c #2A2C38",
"c+	c #211B33",
"d+	c #286A3F",
"e+	c #3ACA57",
"f+	c #54C359",
"g+	c #86CF5F",
"h+	c #434143",
"i+	c #272836",
"j+	c #161D2E",
"k+	c #34363E",
"l+	c #1B1F2F",
"m+	c #121934",
"n+	c #131326",
"o+	c #131224",
"p+	c #1A1F30",
"q+	c #111B2F",
"r+	c #544C49",
"s+	c #746758",
"t+	c #4A4247",
"u+	c #312D41",
"v+	c #234A40",
"w+	c #2EA74D",
"x+	c #6DCB5C",
"y+	c #4A5E41",
"z+	c #52444D",
"A+	c #917869",
"B+	c #6B5A58",
"C+	c #212433",
"D+	c #70685A",
"E+	c #B7A680",
"F+	c #575550",
"G+	c #706C33",
"H+	c #BAAE35",
"I+	c #B5A92E",
"J+	c #A9A03B",
"K+	c #404234",
"L+	c #161C2E",
"M+	c #171E30",
"N+	c #161B2D",
"O+	c #11192C",
"P+	c #151C2E",
"Q+	c #32303B",
"R+	c #39363E",
"S+	c #10132C",
"T+	c #182330",
"U+	c #224538",
"V+	c #1D2731",
"W+	c #151A2E",
"X+	c #2E2D3A",
"Y+	c #413B44",
"Z+	c #191E30",
"`+	c #7A6E5D",
" @	c #FFF0B0",
".@	c #F9F3DD",
"+@	c #FFFFE8",
"@@	c #FFFFB4",
"#@	c #FFFF9E",
"$@	c #FFFF4C",
"%@	c #D2C43A",
"&@	c #373933",
"*@	c #9D7466",
"=@	c #171D2E",
"-@	c #10182B",
";@	c #171E2E",
">@	c #161A2E",
",@	c #14152C",
"'@	c #000420",
")@	c #564F4A",
"!@	c #B19D79",
"~@	c #C5B68E",
"{@	c #ECDCB6",
"]@	c #F7F3DF",
"^@	c #FDFFFF",
"/@	c #FFFFFF",
"(@	c #F9F8E3",
"_@	c #FFFF5F",
":@	c #BEB23A",
"<@	c #171D2F",
"[@	c #14192B",
"}@	c #403F44",
"|@	c #312923",
"1@	c #E2C9A5",
"2@	c #FFFFCE",
"3@	c #F0CF84",
"4@	c #FDFCFF",
"5@	c #FEFBDB",
"6@	c #FFF245",
"7@	c #E1985E",
"8@	c #B88263",
"9@	c #977067",
"0@	c #5D4143",
"a@	c #F3C65B",
"b@	c #FDEA43",
"c@	c #E5AE48",
"d@	c #FFFBE5",
"e@	c #FFF8B1",
"f@	c #FEEA34",
"g@	c #D9945F",
"h@	c #BC8462",
"i@	c #9D7366",
"j@	c #1B202F",
"k@	c #B57C57",
"l@	c #E6A35D",
"m@	c #D69161",
"n@	c #EDC24C",
"o@	c #FFFFCF",
"p@	c #FEF397",
"q@	c #FFEB35",
"r@	c #E0985E",
"s@	c #B27F64",
"t@	c #9B7266",
"u@	c #A47352",
"v@	c #E69E61",
"w@	c #F1CF4D",
"x@	c #E3AB56",
"y@	c #F7DB58",
"z@	c #FFFFF5",
"A@	c #FEEF62",
"B@	c #FEEB3C",
"C@	c #D8925F",
"D@	c #D79160",
"E@	c #DB965E",
"F@	c #987167",
"G@	c #9F7566",
"H@	c #D3915D",
"I@	c #DC9361",
"J@	c #F3D34C",
"K@	c #F9DE4C",
"L@	c #F5D43E",
"M@	c #FFFA90",
"N@	c #FEF8C4",
"O@	c #FFEF3F",
"P@	c #DC9A5D",
"Q@	c #E1A959",
"R@	c #D88F61",
"S@	c #B78163",
"T@	c #A87965",
"U@	c #DA955F",
"V@	c #D9955F",
"W@	c #DB9460",
"X@	c #E2A959",
"Y@	c #DA975E",
"Z@	c #F8DB41",
"`@	c #FFF68C",
" #	c #FFEF46",
".#	c #F1E040",
"+#	c #F8DC49",
"@#	c #E6B256",
"##	c #D88E61",
"$#	c #CF8F60",
"%#	c #D58B62",
"&#	c #D38665",
"*#	c #EBBE4A",
"=#	c #FFFCB4",
"-#	c #FDF7C7",
";#	c #FFF63E",
">#	c #928C3C",
",#	c #E0A55A",
"'#	c #D9965E",
")#	c #DA965E",
"!#	c #D78F60",
"~#	c #D8955F",
"{#	c #DC975E",
"]#	c #D79060",
"^#	c #FFF741",
"/#	c #FEEC44",
"(#	c #FFED42",
"_#	c #FFFB90",
":#	c #FFFD58",
"<#	c #B3A23B",
"[#	c #F4D24C",
"}#	c #E4AD57",
"|#	c #D78E61",
"1#	c #D68E61",
"2#	c #ECC052",
"3#	c #EBBE52",
"4#	c #FEEA45",
"5#	c #FFF143",
"6#	c #FFEF43",
"7#	c #FFEC44",
"8#	c #E5B056",
"9#	c #F3D13F",
"0#	c #806F3C",
"a#	c #F6D84A",
"b#	c #FFF243",
"c#	c #F5D54B",
"d#	c #EBBF52",
"e#	c #DB995D",
"f#	c #DC9B5D",
"g#	c #FCE646",
"h#	c #F9DF48",
"i#	c #E8B655",
"j#	c #E3AC58",
"k#	c #F2CF4D",
"l#	c #E5B057",
"m#	c #D8935F",
"n#	c #ECB956",
"o#	c #B28057",
"p#	c #FFF242",
"q#	c #FFF342",
"r#	c #F7DB4A",
"s#	c #F3D14D",
"t#	c #E8B854",
"u#	c #D89260",
"v#	c #F1CD4E",
"w#	c #D9935F",
"x#	c #FFEE44",
"y#	c #FFF442",
"z#	c #FDE746",
"A#	c #F7DB49",
"B#	c #F3D14C",
"C#	c #F3D04D",
"D#	c #FAE148",
"E#	c #D89160",
"F#	c #FFED44",
"G#	c #FFF043",
"H#	c #FFF542",
"I#	c #EFC84F",
"J#	c #DE9F5C",
"K#	c #D68D61",
"                                                                                                                                ",
"                                                                                                                                ",
"                                                                                                                                ",
"                                                                                                                                ",
"                                                                                                                                ",
"                                                                                                                                ",
"                                                                                                                                ",
"                                                                                                                                ",
"                                                                                                                                ",
"                                                                                                                                ",
"                                                                                                                                ",
"                                                                                                                                ",
"                                                                                                                                ",
"                                                                                                                                ",
"                                                                                                                                ",
"                                                                                                                                ",
"                                                                                                                                ",
"                              .                                                                                                 ",
"                            . .                                                                                                 ",
"                                                                                                                                ",
"                                                                                                                                ",
"                                                                                                                                ",
"                                                                                                                                ",
"                                                                    + @ # $ % &                                                 ",
"                            .                                   * = - ; > , ' )                                                 ",
"                            .                           ! ~     { ] ^ / ( _ : <                                                 ",
"                          . .                         [ } | 1 2 3 4 5 6 7 8 9 0                                                 ",
"                                                      a b c d e f g h i j k l m     n                                           ",
"                                                      o p q r s t u v w x y z A B C D E F                                       ",
"                                                      G H I J K L M N O P Q R S T U V W X                                       ",
"                                                        Y Z `  ...+.@.#.$.%.&.*.=.-.;.                                          ",
"                                                      >.,.'.).!.~.{.].^./.(._.:.<.[.                                            ",
"                          .                           }.|.1.2.3.4.5.6.7.8.9.0.a.b.c.                                            ",
"                          .                             d.e.f.g.h.i.j.k.l.m.n.o.p.q.                                            ",
"                                                        r.s.t.u.v.w.x.y.z.A.B.C.D.E.                                            ",
"                                                      F.G.H.I.J.K.L.M.N.O.P.Q.R.S.                                              ",
"                                                    T.U.V.W.X.Y.Z.`. +.+++@+#+$+                                                ",
"                                                    %+&+*+=+-+;+>+,+'+)+!+~+{+                                                  ",
"                                                    ]+^+/+(+_+:+<+[+}+|+1+2+3+4+                                                ",
"                                .                   5+6+7+8+9+0+a+b+c+d+e+f+g+h+i+j+  k+l+      m+                              ",
"                                . .                   n+o+p+q+r+s+t+u+v+w+x+y+z+A+B+C+D+E+F+G+H+I+J+K+                          ",
"                                                L+L+& M+M+L+N+O+P+Q+R+S+T+U+V+W+X+Y+Z+`+ @.@+@@@#@$@%@&@                        ",
"                                  *@.           L+L+L+L+L+L+L+=@L+O+-@;@>@,@W+L+  '@)@!@~@{@]@^@/@(@_@:@                        ",
"                                    .               L+L+L+L+L+L+L+=@<@L+L+;@=@        [@}@|@1@2@3@4@5@6@                        ",
"                                  7@8@9@                                                  0@a@b@c@d@e@f@                        ",
"                                  g@g@h@i@                                              j@k@l@m@n@o@p@q@                        ",
"                                    g@r@s@t@                                            u@v@w@x@y@z@A@B@                        ",
"                                    C@D@E@F@G@                                        H@I@J@K@L@M@N@O@                          ",
"                                    P@Q@R@        S@T@                g@g@g@      U@V@W@  X@Y@Z@`@ #.#                          ",
"                                      +#@###        $#                            %#      &#*#=#-#;#>#                          ",
"                                        ,#D@'#)#!#~#{#U@g@  ]#g@      g@            ^#/#    (#_#:#<#                            ",
"                                          g@)#[#}#|#1#g@1#2#3#1#            4#5#6#4#7#    8#5#9#0#                              ",
"                                              a#b#c#d#e#]#f#g#h#3#i#j#|#Y@    k#l#m#f#Y@m#m#n#o#                                ",
"                                                  p#q#4#r#[#    s#t#P@g@u#u#  %#}#v#d#e#w#V@                                    ",
"                                                      x#  y#      /#z#A#[#B#C#D#g#[#P@E#                                        ",
"                                                                  F#x#G#b#b#H#I#J#K#                                            ",
"                                                                                                                                ",
"                                                                                                                                ",
"                                                                                                                                ",
"                                                                                                                                ",
"                                                                                                                                ",
"                                                                                                                                ",
"                                                                                                                                ",
"                                                                                                                                "};
