/* XPM */
static char * d5_xpm[] = {
"64 64 323 2",
"  	c None",
". 	c #141729",
"+ 	c #161C2E",
"@ 	c #1B2432",
"# 	c #2B4F5C",
"$ 	c #316476",
"% 	c #2B5868",
"& 	c #172031",
"* 	c #2A4952",
"= 	c #418187",
"- 	c #43919D",
"; 	c #427A95",
"> 	c #344463",
", 	c #15192D",
"' 	c #315D69",
") 	c #4D9BA4",
"! 	c #366278",
"~ 	c #19283A",
"{ 	c #223246",
"] 	c #384266",
"^ 	c #20283F",
"/ 	c #1D4738",
"( 	c #1D3A35",
"_ 	c #152940",
": 	c #3F808A",
"< 	c #42979F",
"[ 	c #36768A",
"} 	c #3A7889",
"| 	c #397D8D",
"1 	c #405E7F",
"2 	c #3A4469",
"3 	c #55914D",
"4 	c #307543",
"5 	c #090729",
"6 	c #634842",
"7 	c #986F4F",
"8 	c #AC7D50",
"9 	c #936C55",
"0 	c #3A5765",
"a 	c #1F3F52",
"b 	c #213547",
"c 	c #27364F",
"d 	c #3A476B",
"e 	c #27314B",
"f 	c #12122C",
"g 	c #214D3A",
"h 	c #3B6641",
"i 	c #16172D",
"j 	c #678E4E",
"k 	c #539D4F",
"l 	c #644840",
"m 	c #F5BF5E",
"n 	c #FFEC5B",
"o 	c #FFEF50",
"p 	c #FFD147",
"q 	c #B7A172",
"r 	c #38879E",
"s 	c #3B7D8E",
"t 	c #396E83",
"u 	c #41557A",
"v 	c #292F4F",
"w 	c #1D2D35",
"x 	c #30914D",
"y 	c #6CCF5C",
"z 	c #60894D",
"A 	c #1F2932",
"B 	c #1B2530",
"C 	c #2D3438",
"D 	c #C1A175",
"E 	c #FCF0C0",
"F 	c #F7E8D1",
"G 	c #FCFFFC",
"H 	c #FFFFBC",
"I 	c #F9D849",
"J 	c #5D8189",
"K 	c #3A5F82",
"L 	c #415B7D",
"M 	c #424E78",
"N 	c #374A60",
"O 	c #376D60",
"P 	c #62D15F",
"Q 	c #597748",
"R 	c #0A1128",
"S 	c #8E7F69",
"T 	c #FDEDB2",
"U 	c #E1D2A7",
"V 	c #C59365",
"W 	c #EAAD78",
"X 	c #FAF1E4",
"Y 	c #FFF86D",
"Z 	c #769C77",
"` 	c #3B5584",
" .	c #434E74",
"..	c #415079",
"+.	c #425574",
"@.	c #407167",
"#.	c #326F4B",
"$.	c #0F1529",
"%.	c #33353D",
"&.	c #8A7C65",
"*.	c #C4B187",
"=.	c #B4A580",
"-.	c #202331",
";.	c #61463D",
">.	c #E4A95B",
",.	c #FFFB49",
"'.	c #88834E",
").	c #191B4F",
"!.	c #23273E",
"~.	c #345C72",
"{.	c #416486",
"].	c #353F5F",
"^.	c #181A33",
"/.	c #0E162A",
"(.	c #35343B",
"_.	c #5A534C",
":.	c #958066",
"<.	c #172C38",
"[.	c #2E9C4F",
"}.	c #B8985B",
"|.	c #FFF445",
"1.	c #8FAA3D",
"2.	c #10573C",
"3.	c #375B52",
"4.	c #141A2C",
"5.	c #357182",
"6.	c #446186",
"7.	c #313B5A",
"8.	c #3E3941",
"9.	c #554A4E",
"0.	c #1B1E30",
"a.	c #0D0F25",
"b.	c #355757",
"c.	c #386B56",
"d.	c #679B4F",
"e.	c #A2CD50",
"f.	c #B9DC4C",
"g.	c #3ABF53",
"h.	c #396D5C",
"i.	c #2F474B",
"j.	c #2B5A6A",
"k.	c #467897",
"l.	c #313758",
"m.	c #74635B",
"n.	c #896C61",
"o.	c #2C4251",
"p.	c #254355",
"q.	c #16303B",
"r.	c #877D66",
"s.	c #D99C5D",
"t.	c #8B9D5C",
"u.	c #71B752",
"v.	c #2A633C",
"w.	c #385E60",
"x.	c #2C4444",
"y.	c #285163",
"z.	c #375B75",
"A.	c #191B30",
"B.	c #131A2E",
"C.	c #5D4E52",
"D.	c #3F383F",
"E.	c #22344B",
"F.	c #405D7C",
"G.	c #1C1B34",
"H.	c #294949",
"I.	c #987455",
"J.	c #F49D63",
"K.	c #E39460",
"L.	c #836F58",
"M.	c #204448",
"N.	c #203345",
"O.	c #395E79",
"P.	c #1F253B",
"Q.	c #307644",
"R.	c #6AA353",
"S.	c #232332",
"T.	c #131427",
"U.	c #234D63",
"V.	c #3D829C",
"W.	c #426C87",
"X.	c #2E425E",
"Y.	c #2A3046",
"Z.	c #545840",
"`.	c #72A553",
" +	c #75695B",
".+	c #484A59",
"++	c #364D78",
"@+	c #435279",
"#+	c #1E2745",
"$+	c #161A2E",
"%+	c #2C8546",
"&+	c #60CF5B",
"*+	c #60B957",
"=+	c #233835",
"-+	c #806C5D",
";+	c #456268",
">+	c #284C6F",
",+	c #3A4C78",
"'+	c #3C4A72",
")+	c #031230",
"!+	c #3A6A3F",
"~+	c #5E5D5F",
"{+	c #E0D656",
"]+	c #4D555B",
"^+	c #2A2D50",
"/+	c #3C4043",
"(+	c #1C3D34",
"_+	c #04022B",
":+	c #286B40",
"<+	c #37C555",
"[+	c #2FAB4C",
"}+	c #233841",
"|+	c #484046",
"1+	c #8F6E57",
"2+	c #856E5B",
"3+	c #655C62",
"4+	c #313343",
"5+	c #9E896B",
"6+	c #6B5450",
"7+	c #8E644E",
"8+	c #F7C456",
"9+	c #E5D33C",
"0+	c #6C6345",
"a+	c #25293A",
"b+	c #1E8745",
"c+	c #597D3F",
"d+	c #181F2F",
"e+	c #27623F",
"f+	c #1E3C33",
"g+	c #315670",
"h+	c #306F87",
"i+	c #376776",
"j+	c #5A5E5C",
"k+	c #524647",
"l+	c #302F39",
"m+	c #977F69",
"n+	c #786C5D",
"o+	c #7C5B47",
"p+	c #E19361",
"q+	c #C7A060",
"r+	c #C3A250",
"s+	c #885B46",
"t+	c #46904E",
"u+	c #479042",
"v+	c #B79F38",
"w+	c #111A2C",
"x+	c #212433",
"y+	c #53484C",
"z+	c #14102C",
"A+	c #14122C",
"B+	c #1E3343",
"C+	c #294C5D",
"D+	c #2D5C6E",
"E+	c #2D7389",
"F+	c #1D3143",
"G+	c #826A5E",
"H+	c #33323C",
"I+	c #4E4349",
"J+	c #37333C",
"K+	c #AE8165",
"L+	c #BF8565",
"M+	c #736374",
"N+	c #B48163",
"O+	c #CF915A",
"P+	c #7B5E4D",
"Q+	c #D0B943",
"R+	c #E5D741",
"S+	c #A79E3C",
"T+	c #908B39",
"U+	c #A57E4D",
"V+	c #966750",
"W+	c #CC8E5B",
"X+	c #E9B457",
"Y+	c #FEEB44",
"Z+	c #212434",
"`+	c #141527",
" @	c #131426",
".@	c #131224",
"+@	c #1B2435",
"@@	c #0F182D",
"#@	c #8E7B63",
"$@	c #524D49",
"%@	c #584C4E",
"&@	c #3A3842",
"*@	c #13203D",
"=@	c #453C3F",
"-@	c #463C3E",
";@	c #0C1931",
">@	c #FFF845",
",@	c #FFF846",
"'@	c #FFE54B",
")@	c #EEAF5C",
"!@	c #DB9261",
"~@	c #D8925F",
"{@	c #E5B057",
"]@	c #FFF442",
"^@	c #161D2F",
"/@	c #171E30",
"(@	c #161B2D",
"_@	c #141A2D",
":@	c #171D2E",
"<@	c #181E2F",
"[@	c #14192A",
"}@	c #0E172B",
"|@	c #0F172B",
"1@	c #171C2D",
"2@	c #0A152B",
"3@	c #FFF243",
"4@	c #151C2E",
"5@	c #141B2D",
"6@	c #171D2F",
"7@	c #181D2F",
"8@	c #F2CE4D",
"9@	c #D89160",
"0@	c #DB995E",
"a@	c #D9945F",
"b@	c #D8935F",
"c@	c #9E7466",
"d@	c #CC8D61",
"e@	c #CF8F60",
"f@	c #D8945F",
"g@	c #DB955F",
"h@	c #DA955F",
"                                                                                                                                ",
"                                                                                                                                ",
"                                                                                                                                ",
"                                                                                                                                ",
"                                                                                                                                ",
"                                                                                                                                ",
"                                                                                                                                ",
"                                                                                                                                ",
"                                                                                                                                ",
"                                                                                                                                ",
"                                                                                                                                ",
"                                                                                                                                ",
"                                                                                                                                ",
"                                                                                                                                ",
"                                                                                                                                ",
"                                                                                                                                ",
"                                                                                                                                ",
"                                                                                                                                ",
"                                                                                                                                ",
"                                                                                                                                ",
"                                                                                                                                ",
"                                                                    .   +                                                       ",
"                                                                @ # $ % &                                                       ",
"                                                              * = - ; > +                                                       ",
"                                                    ,       ' ) ! ~ { ] ^                                                       ",
"                                                  / (     _ : < [ } | 1 2 +                                                     ",
"                                                  3 4 5 6 7 8 9 0 a b c d e   f g h i                                           ",
"                                                  j k l m n o p q r s t u v w x y z A                                           ",
"                                                  B C D E F G H I J K L M N O P Q                                               ",
"                                                  R S T U V W X Y Z `  ...+.@.#.$.                                              ",
"                                                  %.&.*.=.-.;.>.,.'.).!.~.{.].^.                                                ",
"                                                  /.(._.:.<.[.}.|.1.2.3.4.5.6.7.                                                ",
"                                                  8.9.0.a.b.c.d.e.f.g.h.i.j.k.l.                                                ",
"                                                  m.n.o.p.q.r.s.t.u.v.w.x.y.z.A.                                                ",
"                                                B.C.D.E.F.G.H.I.J.K.L.M.N.O.P.                                                  ",
"                                              Q.R.S.T.U.V.W.X.Y.Z.`. +.+++@+#+                                                  ",
"                                            $+%+&+*+=+-+;+>+,+'+)+!+~+{+]+^+/+(+_+                                              ",
"                                              :+<+[+}+|+1+2+3+4+5+6+7+8+9+0+a+b+c+                                              ",
"                                              d+e+f+g+h+i+j+k+l+m+n+o+p+q+r+s+t+u+v+        w+                                  ",
"                                            x+y+z+A+B+C+D+E+F+G+H+I+J+K+L+M+N+O+P+Q+R+S+T+U+V+W+X+Y+                            ",
"                                              Z+    `+ @.@+@@@#@$@%@&@*@=@-@;@        >@,@'@)@!@~@{@]@                          ",
"                                                + + ^@/@/@(@_@:@:@<@x+[@}@|@1@2@                      3@                        ",
"                                                + + + + + + + + 4@4@5@6@6@7@+ :@                      8@                        ",
"                                                    + + + + + + + + + + + +                         9@0@                        ",
"                                                                                                a@a@  b@                        ",
"                                                                                                a@a@  a@                        ",
"                                      c@                                                        a@a@                            ",
"                                                                                            a@a@a@a@                            ",
"                                                                                              a@a@                              ",
"                                                                                                                                ",
"                                            c@                                                                                  ",
"                                              c@c@c@                                    c@c@                                    ",
"                                                  c@c@                                c@                                        ",
"                                                                    d@e@  f@                                                    ",
"                                                                    g@h@f@                                                      ",
"                                                                                                                                ",
"                                                                                                                                ",
"                                                                                                                                ",
"                                                                                                                                ",
"                                                                                                                                ",
"                                                                                                                                ",
"                                                                                                                                ",
"                                                                                                                                ",
"                                                                                                                                "};
