/* XPM */
static char * u0_xpm[] = {
"64 64 379 2",
"  	c None",
". 	c #EBBE52",
"+ 	c #FFEE44",
"@ 	c #E3AA58",
"# 	c #161D2F",
"$ 	c #131527",
"% 	c #DA965E",
"& 	c #DB985E",
"* 	c #DA975E",
"= 	c #161C2E",
"- 	c #2B5264",
"; 	c #346A7C",
"> 	c #264150",
", 	c #111023",
"' 	c #D9945F",
") 	c #D89260",
"! 	c #EEC650",
"~ 	c #F9DE48",
"{ 	c #FBE447",
"] 	c #E6B355",
"^ 	c #D78F60",
"/ 	c #141729",
"( 	c #1C2F3F",
"_ 	c #408C9E",
": 	c #4493A0",
"< 	c #3E767B",
"[ 	c #20313F",
"} 	c #DD9E5C",
"| 	c #DD9D5C",
"1 	c #E5B156",
"2 	c #E9B954",
"3 	c #E6B455",
"4 	c #EDC351",
"5 	c #D89160",
"6 	c #171D2F",
"7 	c #2D3856",
"8 	c #2A2F4D",
"9 	c #2D5668",
"0 	c #3F859A",
"a 	c #489BA7",
"b 	c #4D9694",
"c 	c #15192B",
"d 	c #D68B62",
"e 	c #DD9C5D",
"f 	c #FFF641",
"g 	c #F1CC4E",
"h 	c #182230",
"i 	c #13192A",
"j 	c #39466A",
"k 	c #44537C",
"l 	c #3C4D71",
"m 	c #3F768F",
"n 	c #3A7F94",
"o 	c #4695A3",
"p 	c #3F787B",
"q 	c #D5945D",
"r 	c #D8945F",
"s 	c #F7DA4A",
"t 	c #E1A759",
"u 	c #161F2F",
"v 	c #2E7E44",
"w 	c #395E3F",
"x 	c #1B2337",
"y 	c #2B3550",
"z 	c #222B43",
"A 	c #3A4A6D",
"B 	c #408599",
"C 	c #3F8B9A",
"D 	c #418B9A",
"E 	c #4C9DA1",
"F 	c #61C2B8",
"G 	c #31575F",
"H 	c #1C4738",
"I 	c #488449",
"J 	c #C18659",
"K 	c #FFEB47",
"L 	c #FFF541",
"M 	c #ECC052",
"N 	c #296248",
"O 	c #57BF5C",
"P 	c #618649",
"Q 	c #191E38",
"R 	c #425179",
"S 	c #3F4B72",
"T 	c #3E4970",
"U 	c #3E718C",
"V 	c #418A9A",
"W 	c #4B9BA1",
"X 	c #4C9CA0",
"Y 	c #499CA6",
"Z 	c #2D5867",
"` 	c #110721",
" .	c #225942",
"..	c #56C157",
"+.	c #4D6D45",
"@.	c #54413E",
"#.	c #E9BE51",
"$.	c #FFF043",
"%.	c #FFEF43",
"&.	c #F9E048",
"*.	c #E09F5D",
"=.	c #20263C",
"-.	c #357D5D",
";.	c #84DE62",
">.	c #496141",
",.	c #333C68",
"'.	c #425F80",
").	c #40557A",
"!.	c #404D74",
"~.	c #3E778F",
"{.	c #3C8497",
"].	c #3C8295",
"^.	c #4E9FA7",
"/.	c #294057",
"(.	c #283C44",
"_.	c #40AD5F",
":.	c #569A4D",
"<.	c #232231",
"[.	c #AFA23E",
"}.	c #FFFF45",
"|.	c #FCEB43",
"1.	c #FDEC43",
"2.	c #FFF147",
"3.	c #977F43",
"4.	c #2E4B52",
"5.	c #46AD59",
"6.	c #4B7B55",
"7.	c #404975",
"8.	c #3F597B",
"9.	c #3E7990",
"0.	c #3E7F94",
"a.	c #3E8D9C",
"b.	c #3F899A",
"c.	c #3E8798",
"d.	c #448B9B",
"e.	c #3B476A",
"f.	c #3B6C62",
"g.	c #48C05A",
"h.	c #354F3B",
"i.	c #262A30",
"j.	c #E7D842",
"k.	c #FFF145",
"l.	c #FEEC44",
"m.	c #FCEC43",
"n.	c #FFF448",
"o.	c #7E6045",
"p.	c #171C2E",
"q.	c #1E3839",
"r.	c #2F3E5F",
"s.	c #435079",
"t.	c #404B73",
"u.	c #405277",
"v.	c #3F5C7E",
"w.	c #3F6483",
"x.	c #3F768E",
"y.	c #3E8999",
"z.	c #3F4B73",
"A.	c #273D49",
"B.	c #2A493A",
"C.	c #2A2E30",
"D.	c #EADA41",
"E.	c #FFF246",
"F.	c #FCEA45",
"G.	c #FDEE42",
"H.	c #FCDB4C",
"I.	c #5A4540",
"J.	c #29334F",
"K.	c #3C466F",
"L.	c #414E75",
"M.	c #404F75",
"N.	c #404A72",
"O.	c #3F6281",
"P.	c #3F788F",
"Q.	c #3E708A",
"R.	c #3C718B",
"S.	c #3C7D93",
"T.	c #3D8296",
"U.	c #408697",
"V.	c #4E9394",
"W.	c #294756",
"X.	c #191E2D",
"Y.	c #D4C543",
"Z.	c #FFF33E",
"`.	c #FFF141",
" +	c #FFFF47",
".+	c #978D3C",
"++	c #00062D",
"@+	c #2E3956",
"#+	c #46567F",
"$+	c #3F4C73",
"%+	c #405077",
"&+	c #3E7890",
"*+	c #3F6E89",
"=+	c #3D8698",
"-+	c #44959F",
";+	c #4DA1A4",
">+	c #4998A0",
",+	c #46939E",
"'+	c #4D9EA1",
")+	c #53B0B2",
"!+	c #468787",
"~+	c #121326",
"{+	c #212534",
"]+	c #A18F71",
"^+	c #F0DDA4",
"/+	c #F6E584",
"(+	c #CBBB4F",
"_+	c #B1A73A",
":+	c #262B30",
"<+	c #151B2C",
"[+	c #303B59",
"}+	c #3F6382",
"|+	c #3D8A9A",
"1+	c #3E728B",
"2+	c #3F8597",
"3+	c #4799A1",
"4+	c #43929E",
"5+	c #408B9B",
"6+	c #408B9C",
"7+	c #3D758E",
"8+	c #1F2F40",
"9+	c #39393F",
"0+	c #7A6F5E",
"a+	c #C4B891",
"b+	c #EED8A8",
"c+	c #4A464B",
"d+	c #161D2E",
"e+	c #303B5B",
"f+	c #404E74",
"g+	c #3F4971",
"h+	c #42597E",
"i+	c #44557D",
"j+	c #415B7F",
"k+	c #3D6886",
"l+	c #3E6986",
"m+	c #3C5D7C",
"n+	c #3D597A",
"o+	c #1F253B",
"p+	c #1A1F30",
"q+	c #1D202F",
"r+	c #A59170",
"s+	c #756958",
"t+	c #1D212F",
"u+	c #171E2F",
"v+	c #2F8847",
"w+	c #32954B",
"x+	c #1D3F35",
"y+	c #171B36",
"z+	c #344161",
"A+	c #384467",
"B+	c #3F4E74",
"C+	c #313A5A",
"D+	c #28314C",
"E+	c #343D5F",
"F+	c #40456F",
"G+	c #384165",
"H+	c #253147",
"I+	c #1A2838",
"J+	c #3E3A41",
"K+	c #75615C",
"L+	c #202334",
"M+	c #4E4946",
"N+	c #272935",
"O+	c #26613E",
"P+	c #3FD158",
"Q+	c #37B050",
"R+	c #1F3035",
"S+	c #322D3A",
"T+	c #323F5F",
"U+	c #3E4E78",
"V+	c #43527B",
"W+	c #3A476A",
"X+	c #323C5B",
"Y+	c #364262",
"Z+	c #404D73",
"`+	c #406284",
" @	c #397A91",
".@	c #2F778D",
"+@	c #1C3A4E",
"@@	c #1A2A31",
"#@	c #0C262D",
"$@	c #6F5B58",
"%@	c #876F65",
"&@	c #202333",
"*@	c #000A24",
"=@	c #1B3233",
"-@	c #309049",
";@	c #1F4336",
">@	c #11122B",
",@	c #3D3940",
"'@	c #4A4045",
")@	c #353748",
"!@	c #2B334D",
"~@	c #364265",
"{@	c #3A4B75",
"]@	c #36466F",
"^@	c #263352",
"/@	c #2A4657",
"(@	c #36444B",
"_@	c #5B5351",
":@	c #75675A",
"<@	c #171C30",
"[@	c #379150",
"}@	c #31623E",
"|@	c #2E2439",
"1@	c #33333D",
"2@	c #313D5B",
"3@	c #334269",
"4@	c #2F344A",
"5@	c #463E41",
"6@	c #4D4142",
"7@	c #574948",
"8@	c #4F464B",
"9@	c #4F464A",
"0@	c #8E795F",
"a@	c #8D715C",
"b@	c #6A5B4E",
"c@	c #6C5E54",
"d@	c #373139",
"e@	c #161A2B",
"f@	c #304851",
"g@	c #3C9961",
"h@	c #76D75C",
"i@	c #435B3F",
"j@	c #000023",
"k@	c #2F3A59",
"l@	c #47557E",
"m@	c #41517A",
"n@	c #303F64",
"o@	c #323B58",
"p@	c #353C55",
"q@	c #3D3A43",
"r@	c #3D3941",
"s@	c #554F4F",
"t@	c #404358",
"u@	c #202D52",
"v@	c #293960",
"w@	c #294F67",
"x@	c #040920",
"y@	c #29424B",
"z@	c #438969",
"A@	c #3FC355",
"B@	c #325B3E",
"C@	c #20273E",
"D@	c #2B3551",
"E@	c #3C496C",
"F@	c #3A4A73",
"G@	c #3B4B75",
"H@	c #35436E",
"I@	c #3F5E83",
"J@	c #458098",
"K@	c #427A92",
"L@	c #346779",
"M@	c #111C30",
"N@	c #423C42",
"O@	c #38313F",
"P@	c #1D433A",
"Q@	c #24593D",
"R@	c #141A2B",
"S@	c #121828",
"T@	c #1F263C",
"U@	c #212941",
"V@	c #2A334E",
"W@	c #2D3754",
"X@	c #262D46",
"Y@	c #213246",
"Z@	c #203D4D",
"`@	c #1E3646",
" #	c #151526",
".#	c #453F45",
"+#	c #31303B",
"@#	c #080724",
"##	c #161C2F",
"$#	c #131829",
"%#	c #14192A",
"&#	c #14182A",
"*#	c #141628",
"=#	c #15182A",
"-#	c #181E30",
"                                                                                                                                ",
"                                                                                                                                ",
"                                                                                                                                ",
"                                                                                                                                ",
"                                                                                                                                ",
"                                                                                                                                ",
"                                                                                                                                ",
"                                                                                                                                ",
"                                                                                                                                ",
"                                                                                                                                ",
"                                                                                                                                ",
"                                                                                                                                ",
"                                                                                                                                ",
"                                                                                                                                ",
"                                                                                                                                ",
"                                                                                                                                ",
"                                                                                                                                ",
"                                                                                                                                ",
"                                                                                                                                ",
"                                                                                            . + @                               ",
"                                                              # $                           % & *                               ",
"                                                            = - ; > ,               ' ) ! ~ { ] ^                               ",
"                                                            / ( _ : < [             ' ' } | 1 2 3 4 5                           ",
"                                                          6 7 8 9 0 a b c                     d e f g )                         ",
"                                                  h       i j k l m n o p                     q r s f t                         ",
"                                                u v w   x y z A B C D E F G     H I             J K L M                         ",
"                                                  N O P Q R S T U V W X Y Z `  ...+.          @.#.$.%.&.*.                      ",
"                                                  =.-.;.>.,.'.).!.~.{.].^./.(._.:.<.          [.}.|.1.2.3.                      ",
"                                                    4.5.6.7.8.9.0.a.b.c.d.e.f.g.h.          i.j.k.l.m.n.o.                      ",
"                                                    p.q.r.s.t.u.v.w.x.y.w.z.A.B.            C.D.E.F.G.H.I.                      ",
"                                                    J.K.L.M.N.O.P.Q.R.S.T.U.V.W.            X.Y.Z.`. +.+++                      ",
"                                                    @+#+$+%+&+*+=+-+;+>+,+'+)+!+~+        {+]+^+/+(+_+:+                        ",
"                                                    <+[+k !.}+|+1+2+3+4+5+6+7+8+          9+0+a+b+c+                            ",
"                                                d+h   = e+f+g+h+i+j+k+l+m+n+o+            p+q+r+s+t+                            ",
"                                              u+v+w+x+y+z+A+B+C+D+E+N.F+G+H+I+          J+K+L+M+N+                              ",
"                                              O+P+Q+R+S+T+U+V+W+X+Y+Z+`+ @.@+@      @@#@$@%@&@*@                                ",
"                                              =@-@;@>@,@'@)@!@~@{@]@^@/@(@_@:@    <@[@}@|@1@                                    ",
"                                                    2@3@4@5@6@7@8@9@0@a@b@c@d@  e@f@g@h@i@j@                                    ",
"                                                  <+k@l@m@n@o@p@q@r@s@t@u@v@w@  x@y@z@A@B@                                      ",
"                                                      C@D@E@V+m@F@G@H@I@J@K@L@M@N@O@P@Q@                                        ",
"                                                    = R@S@= T@U@V@W@X@Y@Z@`@ #  .#+#@#                                          ",
"                                                = = = ##6 = R@R@$#S@%#&#*#=###-#                                                ",
"                                                = = = = = = ### 6 6 6 # # # = =                                                 ",
"                                                    = = = = = = = = = = = =                                                     ",
"                                                                                                                                ",
"                                                                                                                                ",
"                                                                                                                                ",
"                                                                                                                                ",
"                                                                                                                                ",
"                                                                                                                                ",
"                                                                                                                                ",
"                                                                                                                                ",
"                                                                                                                                ",
"                                                                                                                                ",
"                                                                                                                                ",
"                                                                                                                                ",
"                                                                                                                                ",
"                                                                                                                                ",
"                                                                                                                                ",
"                                                                                                                                ",
"                                                                                                                                ",
"                                                                                                                                ",
"                                                                                                                                ",
"                                                                                                                                "};
