/* XPM */
static char * u1_xpm[] = {
"64 64 381 2",
"  	c None",
". 	c #181F32",
"+ 	c #2B5265",
"@ 	c #223B4D",
"# 	c #141628",
"$ 	c #101222",
"% 	c #2F5F71",
"& 	c #418FA2",
"* 	c #3D7982",
"= 	c #213340",
"- 	c #28304B",
"; 	c #181F31",
"> 	c #367485",
", 	c #4394A5",
"' 	c #4A9497",
") 	c #223542",
"! 	c #182330",
"~ 	c #0F142C",
"{ 	c #0E1321",
"] 	c #232B44",
"^ 	c #475781",
"/ 	c #384266",
"( 	c #39506F",
"_ 	c #3E778F",
": 	c #4699A5",
"< 	c #428084",
"[ 	c #151A2C",
"} 	c #23633E",
"| 	c #3E8648",
"1 	c #170F2C",
"2 	c #232C44",
"3 	c #20283F",
"4 	c #354062",
"5 	c #426D8B",
"6 	c #3F7D93",
"7 	c #3C8095",
"8 	c #397D93",
"9 	c #57B2B2",
"0 	c #366267",
"a 	c #D9945F",
"b 	c #172731",
"c 	c #41B954",
"d 	c #55874B",
"e 	c #14172B",
"f 	c #364265",
"g 	c #404F75",
"h 	c #3A4569",
"i 	c #3F758E",
"j 	c #3E919E",
"k 	c #4B9CA2",
"l 	c #4D9EA2",
"m 	c #59B3AE",
"n 	c #519F9C",
"o 	c #101A2D",
"p 	c #48964D",
"q 	c #314F3C",
"r 	c #1A1931",
"s 	c #2E6B53",
"t 	c #7EDE63",
"u 	c #556E43",
"v 	c #293357",
"w 	c #44547B",
"x 	c #414972",
"y 	c #405277",
"z 	c #3F6A87",
"A 	c #46919D",
"B 	c #4998A0",
"C 	c #4C9CA3",
"D 	c #3E8795",
"E 	c #151C30",
"F 	c #20303C",
"G 	c #37A050",
"H 	c #66A252",
"I 	c #282B33",
"J 	c #2D4650",
"K 	c #46B763",
"L 	c #589F4A",
"M 	c #38415E",
"N 	c #41527A",
"O 	c #3E6E88",
"P 	c #405A7C",
"Q 	c #3F6D88",
"R 	c #3D8397",
"S 	c #3C8196",
"T 	c #4796A0",
"U 	c #41778A",
"V 	c #2C3F4C",
"W 	c #38875C",
"X 	c #52C056",
"Y 	c #36443A",
"Z 	c #1E2839",
"` 	c #25553F",
" .	c #1F4145",
"..	c #3E4775",
"+.	c #3F6181",
"@.	c #3E7C92",
"#.	c #3E899A",
"$.	c #3E7F94",
"%.	c #405074",
"&.	c #3C6463",
"*.	c #48B760",
"=.	c #395E3D",
"-.	c #171D30",
";.	c #2A2D51",
">.	c #3E476F",
",.	c #425177",
"'.	c #404972",
").	c #405B7D",
"!.	c #3F6583",
"~.	c #3E7B91",
"{.	c #3F758D",
"].	c #3D4B74",
"^.	c #293E4C",
"/.	c #2D4D3D",
"(.	c #D9935F",
"_.	c #323D5D",
":.	c #46577F",
"<.	c #405076",
"[.	c #405378",
"}.	c #3F5E7F",
"|.	c #3E8698",
"1.	c #3E8195",
"2.	c #3E7E93",
"3.	c #3E8296",
"4.	c #48939D",
"5.	c #4D9293",
"6.	c #264050",
"7.	c #DB995D",
"8.	c #FDE846",
"9.	c #2D3856",
"0.	c #43527B",
"a.	c #3F4C73",
"b.	c #405177",
"c.	c #3E8497",
"d.	c #3F778E",
"e.	c #3D8195",
"f.	c #47969F",
"g.	c #56ADA9",
"h.	c #47959F",
"i.	c #408798",
"j.	c #48959D",
"k.	c #5BBBB8",
"l.	c #3D7274",
"m.	c #EEC74F",
"n.	c #204738",
"o.	c #214B39",
"p.	c #151B2C",
"q.	c #313C5B",
"r.	c #44537B",
"s.	c #404C74",
"t.	c #3F6281",
"u.	c #3D8697",
"v.	c #3D7D92",
"w.	c #3F8B9B",
"x.	c #4799A2",
"y.	c #418F9C",
"z.	c #3C8999",
"A.	c #3C879A",
"B.	c #418998",
"C.	c #253D49",
"D.	c #DC985E",
"E.	c #FDE448",
"F.	c #1E4036",
"G.	c #38B051",
"H.	c #1D3A35",
"I.	c #171C2E",
"J.	c #404F76",
"K.	c #404A73",
"L.	c #43597F",
"M.	c #43547C",
"N.	c #406383",
"O.	c #3D6886",
"P.	c #406C8A",
"Q.	c #416C88",
"R.	c #25334B",
"S.	c #E5D442",
"T.	c #FFF443",
"U.	c #100328",
"V.	c #26623E",
"W.	c #3CC555",
"X.	c #3BBF54",
"Y.	c #204638",
"Z.	c #222E4B",
"`.	c #39466B",
" +	c #3B486C",
".+	c #404E75",
"++	c #2C3452",
"@+	c #2B3451",
"#+	c #3C466C",
"$+	c #414A73",
"%+	c #363A5E",
"&+	c #242742",
"*+	c #1D2138",
"=+	c #161B2D",
"-+	c #9B9739",
";+	c #FED451",
">+	c #17202F",
",+	c #1F4537",
"'+	c #26633F",
")+	c #192931",
"!+	c #15192D",
"~+	c #171D2D",
"{+	c #53494C",
"]+	c #374261",
"^+	c #40507A",
"/+	c #435178",
"(+	c #344061",
"_+	c #364364",
":+	c #415175",
"<+	c #39687D",
"[+	c #337180",
"}+	c #336F81",
"|+	c #192638",
"1+	c #9F8544",
"2+	c #EFA961",
"3+	c #222C48",
"4+	c #4B4349",
"5+	c #5E4F4E",
"6+	c #283048",
"7+	c #314167",
"8+	c #3F4F79",
"9+	c #41517A",
"0+	c #3D4B76",
"a+	c #2F6583",
"b+	c #2F7E93",
"c+	c #306478",
"d+	c #263847",
"e+	c #B98A52",
"f+	c #192034",
"g+	c #404E74",
"h+	c #283659",
"i+	c #36333D",
"j+	c #554746",
"k+	c #544A4C",
"l+	c #383A4C",
"m+	c #2A2F45",
"n+	c #3E414F",
"o+	c #746D65",
"p+	c #766A5C",
"q+	c #826C5A",
"r+	c #2B2934",
"s+	c #1F2533",
"t+	c #DC995E",
"u+	c #1A2135",
"v+	c #343F60",
"w+	c #485780",
"x+	c #324165",
"y+	c #2D3651",
"z+	c #403C45",
"A+	c #403A40",
"B+	c #3E373E",
"C+	c #5E534B",
"D+	c #706154",
"E+	c #544B4B",
"F+	c #413C41",
"G+	c #54494C",
"H+	c #15182C",
"I+	c #D99360",
"J+	c #D8935F",
"K+	c #242D46",
"L+	c #3C496D",
"M+	c #45547E",
"N+	c #394871",
"O+	c #334167",
"P+	c #2D3B5D",
"Q+	c #2A385E",
"R+	c #253259",
"S+	c #32456D",
"T+	c #263D56",
"U+	c #2B2734",
"V+	c #2D454B",
"W+	c #30824C",
"X+	c #1C4837",
"Y+	c #171D2F",
"Z+	c #131828",
"`+	c #1C2337",
" @	c #29324E",
".@	c #3F4C71",
"+@	c #45537B",
"@@	c #444F77",
"#@	c #425C7D",
"$@	c #448C9F",
"%@	c #326577",
"&@	c #2A494E",
"*@	c #3CA55A",
"=@	c #3EC756",
"-@	c #5EAA53",
";@	c #D9955F",
">@	c #161C2E",
",@	c #151B2D",
"'@	c #131929",
")@	c #171E30",
"!@	c #1F263C",
"~@	c #222B43",
"{@	c #1C2338",
"]@	c #172132",
"^@	c #213A4B",
"/@	c #182034",
"(@	c #294344",
"_@	c #37B252",
":@	c #74C85B",
"<@	c #4C6543",
"[@	c #11192C",
"}@	c #D79060",
"|@	c #161C2D",
"1@	c #141A2B",
"2@	c #14192A",
"3@	c #141729",
"4@	c #161D2D",
"5@	c #110D29",
"6@	c #308046",
"7@	c #316C41",
"8@	c #36233E",
"9@	c #4B4449",
"0@	c #D28D5F",
"a@	c #F0C94F",
"b@	c #E3AC58",
"c@	c #161C2F",
"d@	c #161D2F",
"e@	c #161D2E",
"f@	c #161B2E",
"g@	c #181E2F",
"h@	c #031527",
"i@	c #675854",
"j@	c #907569",
"k@	c #292A38",
"l@	c #0C152A",
"m@	c #594241",
"n@	c #EABF51",
"o@	c #FEEA45",
"p@	c #FEEC44",
"q@	c #31303A",
"r@	c #5A4D50",
"s@	c #1D2132",
"t@	c #746656",
"u@	c #2E2F38",
"v@	c #616333",
"w@	c #DBAD52",
"x@	c #E7AC5A",
"y@	c #F2D04C",
"z@	c #403E41",
"A@	c #3A383D",
"B@	c #C9B286",
"C@	c #57504E",
"D@	c #2C2E33",
"E@	c #A0983A",
"F@	c #FDED43",
"G@	c #E9B059",
"H@	c #E7B753",
"I@	c #FFF342",
"J@	c #00011E",
"K@	c #756D5E",
"L@	c #CFBD8F",
"M@	c #E4D9AA",
"N@	c #F0DA6E",
"O@	c #F4E341",
"P@	c #FFF846",
"Q@	c #FFEE44",
"R@	c #F6DC48",
"S@	c #FDEA44",
"T@	c #9E8F72",
"U@	c #F5DCA2",
"V@	c #FDEA57",
"W@	c #FFEE40",
"X@	c #F8E745",
"Y@	c #FBEB43",
"Z@	c #FFF244",
"`@	c #EAAE5B",
" #	c #13172B",
".#	c #524A45",
"+#	c #D3C440",
"@#	c #FFFE46",
"##	c #FFFF46",
"$#	c #FFFB48",
"%#	c #CC9955",
"&#	c #7C534C",
"*#	c #424432",
"=#	c #726E37",
"-#	c #8D8838",
";#	c #7E6A41",
">#	c #3E2F3B",
"                                                                                                                                ",
"                                                                                                                                ",
"                                                                                                                                ",
"                                                                                                                                ",
"                                                                                                                                ",
"                                                                                                                                ",
"                                                                                                                                ",
"                                                                                                                                ",
"                                                                                                                                ",
"                                                                                                                                ",
"                                                                                                                                ",
"                                                                                                                                ",
"                                                                                                                                ",
"                                                                                                                                ",
"                                                                                                                                ",
"                                                                                                                                ",
"                                                                                                                                ",
"                                                                                                                                ",
"                                                                                                                                ",
"                                                                . + @ #                                                         ",
"                                                                $ % & * =                                                       ",
"                                                              . - ; > , ' )                                                     ",
"                                                    ! ~     { ] ^ / ( _ : < [                                                   ",
"                                                    } | 1   2 3 4 5 6 7 8 9 0                   a                               ",
"                                                    b c d e f g h i j k l m n     o p q         a a                             ",
"                                                    r s t u v w x y z A B C D E F G H I           a a                           ",
"                                                      J K L M N O P Q R S T U V W X Y           a a a                           ",
"                                                      Z `  ...g +.@.#.#.#.$.%.&.*.=.            a a a                           ",
"                                                      -.;.>.,.'.).).P !.~.{.].^./.                a (.                          ",
"                                                      _.:.g <.[.}.|.1.2.3.#.4.5.6.                  7.8.                        ",
"                                                      9.0.a.b.c.d.e.f.g.h.i.j.k.l.                  m.                          ",
"                                              n.o.    p.q.r.s.t.u.v.w.x.y.z.A.B.C.                D.E.                          ",
"                                            F.G.G.H.    I._.J.K.L.M.N.O.P.5 Q.R.                    S.T.                        ",
"                                          U.V.W.X.Y.    Z.`. +.+++@+#+$+%+&+*+=+                    -+;+                        ",
"                                            >+,+'+)+!+~+{+]+^+/+(+q._+:+<+[+}+|+                    1+2+                        ",
"                                                      3+4+5+6+7+8+9+0+a+b+c+d+                      e+                          ",
"                                                    f+g+h+i+j+k+l+m+n+o+p+q+r+s+                    t+                          ",
"                                                    u+v+w+x+y+z+A+B+C+D+E+F+G+=+H+                I+J+                          ",
"                                                      [ K+L+M+N+O+P+Q+R+S+T+U+V+W+X+              a a a a                       ",
"                                                      Y+Z+`+ @.@/++@@@#@$@%@&@*@=@-@                  ;@a                       ",
"                                                      >@Y+,@'@)@!@~@{@]@^@/@(@_@:@<@[@                }@(.                      ",
"                                                >@>@>@>@>@>@Y+|@1@2@p.=+3@4@5@6@7@8@9@              0@a@b@                      ",
"                                                >@>@>@>@>@>@>@>@c@d@>@>@d@e@f@g@h@i@j@k@l@        m@n@o@p@                      ",
"                                                    >@>@>@>@>@>@>@>@>@>@>@>@      q@r@s@t@u@    v@w@x@y@                        ",
"                                                                                    z@A@B@C@D@E@F@G@H@I@                        ",
"                                                                                  J@K@L@M@N@O@P@Q@R@S@                          ",
"                                                                                    >@T@U@V@W@X@Y@Z@`@                          ",
"                                                                                       #.#+#@###$#%#&#                          ",
"                                                                                          *#=#-#;#>#                            ",
"                                                                                                                                ",
"                                                                                                                                ",
"                                                                                                                                ",
"                                                                                                                                ",
"                                                                                                                                ",
"                                                                                                                                ",
"                                                                                                                                ",
"                                                                                                                                ",
"                                                                                                                                ",
"                                                                                                                                ",
"                                                                                                                                ",
"                                                                                                                                ",
"                                                                                                                                ",
"                                                                                                                                ",
"                                                                                                                                "};
