/* XPM */
static char * u2_xpm[] = {
"64 64 372 2",
"  	c None",
". 	c #181F32",
"+ 	c #2B5265",
"@ 	c #223B4D",
"# 	c #141628",
"$ 	c #101222",
"% 	c #2F5F71",
"& 	c #418FA2",
"* 	c #3D7982",
"= 	c #213340",
"- 	c #28304B",
"; 	c #181F31",
"> 	c #367485",
", 	c #4394A5",
"' 	c #4A9497",
") 	c #223542",
"! 	c #182330",
"~ 	c #0F142C",
"{ 	c #0E1321",
"] 	c #232B44",
"^ 	c #475781",
"/ 	c #384266",
"( 	c #39506F",
"_ 	c #3E778F",
": 	c #4699A5",
"< 	c #428084",
"[ 	c #151A2C",
"} 	c #23633E",
"| 	c #3E8648",
"1 	c #170F2C",
"2 	c #232C44",
"3 	c #20283F",
"4 	c #354062",
"5 	c #426D8B",
"6 	c #3F7D93",
"7 	c #3C8095",
"8 	c #397D93",
"9 	c #57B2B2",
"0 	c #366267",
"a 	c #172731",
"b 	c #41B954",
"c 	c #55874B",
"d 	c #14172B",
"e 	c #364265",
"f 	c #404F75",
"g 	c #3A4569",
"h 	c #3F758E",
"i 	c #3E919E",
"j 	c #4B9CA2",
"k 	c #4D9EA2",
"l 	c #59B3AE",
"m 	c #519F9C",
"n 	c #101A2D",
"o 	c #48964D",
"p 	c #314F3C",
"q 	c #1A1931",
"r 	c #2E6B53",
"s 	c #7EDE63",
"t 	c #556E43",
"u 	c #293357",
"v 	c #44547B",
"w 	c #414972",
"x 	c #405277",
"y 	c #3F6A87",
"z 	c #46919D",
"A 	c #4998A0",
"B 	c #4C9CA3",
"C 	c #3E8795",
"D 	c #151C30",
"E 	c #20303C",
"F 	c #37A050",
"G 	c #66A252",
"H 	c #282B33",
"I 	c #2D4650",
"J 	c #46B763",
"K 	c #589F4A",
"L 	c #38415E",
"M 	c #41527A",
"N 	c #3E6E88",
"O 	c #405A7C",
"P 	c #3F6D88",
"Q 	c #3D8397",
"R 	c #3C8196",
"S 	c #4796A0",
"T 	c #41778A",
"U 	c #2C3F4C",
"V 	c #38875C",
"W 	c #52C056",
"X 	c #36443A",
"Y 	c #1E2839",
"Z 	c #25553F",
"` 	c #1F4145",
" .	c #3E4775",
"..	c #3F6181",
"+.	c #3E7C92",
"@.	c #3E899A",
"#.	c #3E7F94",
"$.	c #405074",
"%.	c #3C6463",
"&.	c #48B760",
"*.	c #395E3D",
"=.	c #171D30",
"-.	c #2A2D51",
";.	c #3E476F",
">.	c #425177",
",.	c #404972",
"'.	c #405B7D",
").	c #3F6583",
"!.	c #3E7B91",
"~.	c #3F758D",
"{.	c #3D4B74",
"].	c #293E4C",
"^.	c #2D4D3D",
"/.	c #D9945F",
"(.	c #323D5D",
"_.	c #46577F",
":.	c #405076",
"<.	c #405378",
"[.	c #3F5E7F",
"}.	c #3E8698",
"|.	c #3E8195",
"1.	c #3E7E93",
"2.	c #3E8296",
"3.	c #48939D",
"4.	c #4D9293",
"5.	c #264050",
"6.	c #2D3856",
"7.	c #43527B",
"8.	c #3F4C73",
"9.	c #405177",
"0.	c #3E8497",
"a.	c #3F778E",
"b.	c #3D8195",
"c.	c #47969F",
"d.	c #56ADA9",
"e.	c #47959F",
"f.	c #408798",
"g.	c #48959D",
"h.	c #5BBBB8",
"i.	c #3D7274",
"j.	c #204738",
"k.	c #214B39",
"l.	c #151B2C",
"m.	c #313C5B",
"n.	c #44537B",
"o.	c #404C74",
"p.	c #3F6281",
"q.	c #3D8697",
"r.	c #3D7D92",
"s.	c #3F8B9B",
"t.	c #4799A2",
"u.	c #418F9C",
"v.	c #3C8999",
"w.	c #3C879A",
"x.	c #418998",
"y.	c #253D49",
"z.	c #1E4036",
"A.	c #38B051",
"B.	c #1D3A35",
"C.	c #171C2E",
"D.	c #404F76",
"E.	c #404A73",
"F.	c #43597F",
"G.	c #43547C",
"H.	c #406383",
"I.	c #3D6886",
"J.	c #406C8A",
"K.	c #416C88",
"L.	c #25334B",
"M.	c #100328",
"N.	c #26623E",
"O.	c #3CC555",
"P.	c #3BBF54",
"Q.	c #204638",
"R.	c #222E4B",
"S.	c #39466B",
"T.	c #3B486C",
"U.	c #404E75",
"V.	c #2C3452",
"W.	c #2B3451",
"X.	c #3C466C",
"Y.	c #414A73",
"Z.	c #363A5E",
"`.	c #242742",
" +	c #1D2138",
".+	c #161B2D",
"++	c #17202F",
"@+	c #1F4537",
"#+	c #26633F",
"$+	c #192931",
"%+	c #15192D",
"&+	c #171D2D",
"*+	c #53494C",
"=+	c #374261",
"-+	c #40507A",
";+	c #435178",
">+	c #344061",
",+	c #364364",
"'+	c #415175",
")+	c #39687D",
"!+	c #337180",
"~+	c #336F81",
"{+	c #192638",
"]+	c #222C48",
"^+	c #4B4349",
"/+	c #5E4F4E",
"(+	c #283048",
"_+	c #314167",
":+	c #3F4F79",
"<+	c #41517A",
"[+	c #3D4B76",
"}+	c #2F6583",
"|+	c #2F7E93",
"1+	c #306478",
"2+	c #263847",
"3+	c #192034",
"4+	c #404E74",
"5+	c #283659",
"6+	c #36333D",
"7+	c #554746",
"8+	c #544A4C",
"9+	c #383A4C",
"0+	c #2A2F45",
"a+	c #3E414F",
"b+	c #746D65",
"c+	c #766A5C",
"d+	c #826C5A",
"e+	c #2B2934",
"f+	c #1F2533",
"g+	c #1A2135",
"h+	c #343F60",
"i+	c #485780",
"j+	c #324165",
"k+	c #2D3651",
"l+	c #403C45",
"m+	c #403A40",
"n+	c #3E373E",
"o+	c #5E534B",
"p+	c #706154",
"q+	c #544B4B",
"r+	c #413C41",
"s+	c #54494C",
"t+	c #15182C",
"u+	c #242D46",
"v+	c #3C496D",
"w+	c #45547E",
"x+	c #394871",
"y+	c #334167",
"z+	c #2D3B5D",
"A+	c #2A385E",
"B+	c #253259",
"C+	c #32456D",
"D+	c #263D56",
"E+	c #2B2734",
"F+	c #2D454B",
"G+	c #30824C",
"H+	c #1C4837",
"I+	c #171D2F",
"J+	c #131828",
"K+	c #1C2337",
"L+	c #29324E",
"M+	c #3F4C71",
"N+	c #45537B",
"O+	c #444F77",
"P+	c #425C7D",
"Q+	c #448C9F",
"R+	c #326577",
"S+	c #2A494E",
"T+	c #3CA55A",
"U+	c #3EC756",
"V+	c #5EAA53",
"W+	c #F2CF4D",
"X+	c #161C2E",
"Y+	c #151B2D",
"Z+	c #131929",
"`+	c #171E30",
" @	c #1F263C",
".@	c #222B43",
"+@	c #1C2338",
"@@	c #172132",
"#@	c #213A4B",
"$@	c #182034",
"%@	c #294344",
"&@	c #37B252",
"*@	c #74C85B",
"=@	c #4C6543",
"-@	c #11192C",
";@	c #FFF841",
">@	c #EDC351",
",@	c #161C2D",
"'@	c #141A2B",
")@	c #14192A",
"!@	c #141729",
"~@	c #161D2D",
"{@	c #110D29",
"]@	c #308046",
"^@	c #316C41",
"/@	c #36233E",
"(@	c #4B4449",
"_@	c #FFF741",
":@	c #ECC251",
"<@	c #D48763",
"[@	c #161C2F",
"}@	c #161D2F",
"|@	c #161D2E",
"1@	c #161B2E",
"2@	c #181E2F",
"3@	c #031527",
"4@	c #675854",
"5@	c #907569",
"6@	c #292A38",
"7@	c #0C152A",
"8@	c #FFE946",
"9@	c #FFEB46",
"0@	c #DC9D5C",
"a@	c #31303A",
"b@	c #5A4D50",
"c@	c #1D2132",
"d@	c #746656",
"e@	c #2E2F38",
"f@	c #664F41",
"g@	c #DDA757",
"h@	c #E1A55A",
"i@	c #D8935F",
"j@	c #403E41",
"k@	c #3A383E",
"l@	c #C9B286",
"m@	c #58514C",
"n@	c #1D2133",
"o@	c #664E42",
"p@	c #D78D61",
"q@	c #D79060",
"r@	c #00011E",
"s@	c #756D5E",
"t@	c #CEBC8F",
"u@	c #E7DCAB",
"v@	c #DAC292",
"w@	c #2E3132",
"x@	c #8C6C47",
"y@	c #CD875F",
"z@	c #EAB557",
"A@	c #E6B654",
"B@	c #D68D61",
"C@	c #9E8F72",
"D@	c #F2DA9F",
"E@	c #F5E45A",
"F@	c #F7E63F",
"G@	c #FFE34C",
"H@	c #F5D24D",
"I@	c #FFF142",
"J@	c #EEC351",
"K@	c #DC8A66",
"L@	c #00002A",
"M@	c #B4A447",
"N@	c #FFFF41",
"O@	c #FAE944",
"P@	c #FAEB42",
"Q@	c #FDF141",
"R@	c #FFF145",
"S@	c #D79D59",
"T@	c #393D2F",
"U@	c #D1C341",
"V@	c #FFFF46",
"W@	c #FFFD46",
"X@	c #FFF349",
"Y@	c #E6AA5A",
"Z@	c #614743",
"`@	c #3B3D31",
" #	c #7E7A38",
".#	c #8A8439",
"+#	c #7B6143",
"@#	c #694B45",
"                                                                                                                                ",
"                                                                                                                                ",
"                                                                                                                                ",
"                                                                                                                                ",
"                                                                                                                                ",
"                                                                                                                                ",
"                                                                                                                                ",
"                                                                                                                                ",
"                                                                                                                                ",
"                                                                                                                                ",
"                                                                                                                                ",
"                                                                                                                                ",
"                                                                                                                                ",
"                                                                                                                                ",
"                                                                                                                                ",
"                                                                                                                                ",
"                                                                                                                                ",
"                                                                                                                                ",
"                                                                                                                                ",
"                                                                . + @ #                                                         ",
"                                                                $ % & * =                                                       ",
"                                                              . - ; > , ' )                                                     ",
"                                                    ! ~     { ] ^ / ( _ : < [                                                   ",
"                                                    } | 1   2 3 4 5 6 7 8 9 0                                                   ",
"                                                    a b c d e f g h i j k l m     n o p                                         ",
"                                                    q r s t u v w x y z A B C D E F G H                                         ",
"                                                      I J K L M N O P Q R S T U V W X                                           ",
"                                                      Y Z `  .f ..+.@.@.@.#.$.%.&.*.                                            ",
"                                                      =.-.;.>.,.'.'.O ).!.~.{.].^.                /.                            ",
"                                                      (._.f :.<.[.}.|.1.2.@.3.4.5.                                              ",
"                                                      6.7.8.9.0.a.b.c.d.e.f.g.h.i.                                              ",
"                                              j.k.    l.m.n.o.p.q.r.s.t.u.v.w.x.y.                                              ",
"                                            z.A.A.B.    C.(.D.E.F.G.H.I.J.5 K.L.                                                ",
"                                          M.N.O.P.Q.    R.S.T.U.V.W.X.Y.Z.`. +.+                                                ",
"                                            ++@+#+$+%+&+*+=+-+;+>+m.,+'+)+!+~+{+                                                ",
"                                                      ]+^+/+(+_+:+<+[+}+|+1+2+                      /.                          ",
"                                                    3+4+5+6+7+8+9+0+a+b+c+d+e+f+                    /.                          ",
"                                                    g+h+i+j+k+l+m+n+o+p+q+r+s+.+t+                                              ",
"                                                      [ u+v+w+x+y+z+A+B+C+D+E+F+G+H+                                            ",
"                                                      I+J+K+L+M+;+N+O+P+Q+R+S+T+U+V+              W+/.                          ",
"                                                      X+I+Y+Z+`+ @.@+@@@#@$@%@&@*@=@-@          ;@>@                            ",
"                                                X+X+X+X+X+X+I+,@'@)@l..+!@~@{@]@^@/@(@          _@:@<@                          ",
"                                                X+X+X+X+X+X+X+X+[@}@X+X+}@|@1@2@3@4@5@6@7@      8@9@0@                          ",
"                                                    X+X+X+X+X+X+X+X+X+X+X+X+      a@b@c@d@e@    f@g@h@i@                        ",
"                                                                                    j@k@l@m@n@  o@p@q@/.                        ",
"                                                                                  r@s@t@u@v@w@x@y@z@A@B@                        ",
"                                                                                    X+C@D@E@F@G@H@I@J@K@                        ",
"                                                                                      L@M@N@O@P@Q@R@S@                          ",
"                                                                                        T@U@V@W@X@Y@Z@                          ",
"                                                                                          `@ #.#+#@#                            ",
"                                                                                                                                ",
"                                                                                                                                ",
"                                                                                                                                ",
"                                                                                                                                ",
"                                                                                                                                ",
"                                                                                                                                ",
"                                                                                                                                ",
"                                                                                                                                ",
"                                                                                                                                ",
"                                                                                                                                ",
"                                                                                                                                ",
"                                                                                                                                ",
"                                                                                                                                ",
"                                                                                                                                "};
