/* XPM */
static char * u3_xpm[] = {
"64 64 506 2",
"  	c None",
". 	c #FFEF44",
"+ 	c #FEEA45",
"@ 	c #FEEC44",
"# 	c #FFEE44",
"$ 	c #E5AF57",
"% 	c #E4AE57",
"& 	c #E7B555",
"* 	c #FFF342",
"= 	c #FFF242",
"- 	c #FEEB45",
"; 	c #FDE845",
"> 	c #FDE945",
", 	c #FDE846",
"' 	c #FCE746",
") 	c #FFF043",
"! 	c #FFED44",
"~ 	c #FFF442",
"{ 	c #D68E61",
"] 	c #D78F61",
"^ 	c #E5B156",
"/ 	c #F2D04D",
"( 	c #E0A55A",
"_ 	c #E7B455",
": 	c #ECC151",
"< 	c #E8B854",
"[ 	c #DEA05B",
"} 	c #DA975E",
"| 	c #DB985E",
"1 	c #DC9B5D",
"2 	c #DD9D5C",
"3 	c #E6B156",
"4 	c #E4AF57",
"5 	c #E6B256",
"6 	c #DC9A5D",
"7 	c #FFEC44",
"8 	c #EEC650",
"9 	c #D79060",
"0 	c #F7DB49",
"a 	c #F3D44B",
"b 	c #F7DA4A",
"c 	c #FFF741",
"d 	c #FBE447",
"e 	c #E1A859",
"f 	c #D58A62",
"g 	c #D8935F",
"h 	c #D9935F",
"i 	c #D8925F",
"j 	c #D89260",
"k 	c #D78E61",
"l 	c #E1A759",
"m 	c #F1CC4E",
"n 	c #FFF940",
"o 	c #FFF143",
"p 	c #D58F60",
"q 	c #FBE148",
"r 	c #F1C254",
"s 	c #DE9562",
"t 	c #F3D34B",
"u 	c #EBBE52",
"v 	c #DFA25B",
"w 	c #DB995D",
"x 	c #D9955F",
"y 	c #D9945F",
"z 	c #D78F60",
"A 	c #E0A45A",
"B 	c #EABB53",
"C 	c #F5D64B",
"D 	c #F3D14C",
"E 	c #F0CB4E",
"F 	c #E4B056",
"G 	c #E69F61",
"H 	c #D8965D",
"I 	c #BA7D59",
"J 	c #9F7250",
"K 	c #E4A05F",
"L 	c #D58D60",
"M 	c #D89160",
"N 	c #D7935F",
"O 	c #D8945F",
"P 	c #F3D04D",
"Q 	c #E6B455",
"R 	c #F5D54B",
"S 	c #E6B356",
"T 	c #DFA15B",
"U 	c #E5B255",
"V 	c #E6B057",
"W 	c #EFB05D",
"X 	c #9A6C50",
"Y 	c #54413E",
"Z 	c #DD9561",
"` 	c #FAE247",
" .	c #F9DF48",
"..	c #FFEF43",
"+.	c #FDEB44",
"@.	c #D58962",
"#.	c #EEC64F",
"$.	c #FFEA47",
"%.	c #E3B155",
"&.	c #785349",
"*.	c #16182B",
"=.	c #12192F",
"-.	c #111B32",
";.	c #1A2638",
">.	c #181D2F",
",.	c #D58B62",
"'.	c #DA965E",
").	c #E3AA58",
"!.	c #E8B755",
"~.	c #866747",
"{.	c #FFEF47",
"].	c #FDEC44",
"^.	c #FFF243",
"/.	c #F9E147",
"(.	c #FFFB41",
"_.	c #E1C747",
":.	c #4C3B3D",
"<.	c #161D2E",
"[.	c #282F4A",
"}.	c #333F5F",
"|.	c #336174",
"1.	c #458994",
"2.	c #4C9CA0",
"3.	c #2B4F5E",
"4.	c #D68D61",
"5.	c #FCE546",
"6.	c #151830",
"7.	c #C1AB44",
"8.	c #FFF945",
"9.	c #FDEA44",
"0.	c #F4D34C",
"a.	c #FBE247",
"b.	c #FFF241",
"c.	c #FFF047",
"d.	c #A4794E",
"e.	c #B17857",
"f.	c #242E47",
"g.	c #384265",
"h.	c #42597E",
"i.	c #407D95",
"j.	c #4A9FA9",
"k.	c #4A9393",
"l.	c #2D4D55",
"m.	c #DD9E5C",
"n.	c #FBE347",
"o.	c #685042",
"p.	c #FFEA49",
"q.	c #FEEE43",
"r.	c #FCEC43",
"s.	c #FFF345",
"t.	c #DCA457",
"u.	c #B87C59",
"v.	c #202840",
"w.	c #404E75",
"x.	c #43517A",
"y.	c #3F6683",
"z.	c #3C8295",
"A.	c #3C8296",
"B.	c #4FA0A1",
"C.	c #4B908D",
"D.	c #223745",
"E.	c #15162B",
"F.	c #1E573B",
"G.	c #35924A",
"H.	c #234638",
"I.	c #DE9F5C",
"J.	c #A48A45",
"K.	c #FFFB46",
"L.	c #FCEB44",
"M.	c #FCE944",
"N.	c #FFFE44",
"O.	c #DEBD4B",
"P.	c #75504A",
"Q.	c #1D2831",
"R.	c #273536",
"S.	c #111529",
"T.	c #444E78",
"U.	c #3E6884",
"V.	c #3E909E",
"W.	c #4797A0",
"X.	c #50A3A5",
"Y.	c #59B2AB",
"Z.	c #4CA1AA",
"`.	c #244455",
" +	c #1F2536",
".+	c #2B6A4D",
"++	c #58CE58",
"@+	c #67A453",
"#+	c #212C32",
"$+	c #DA965F",
"%+	c #1F1836",
"&+	c #D7B54B",
"*+	c #FFFA42",
"=+	c #FEEB44",
"-+	c #FFF947",
";+	c #C4B73F",
">+	c #3A3535",
",+	c #307744",
"'+	c #38573D",
")+	c #12142F",
"!+	c #415074",
"~+	c #404D74",
"{+	c #405579",
"]+	c #3F6483",
"^+	c #417A90",
"/+	c #408C9B",
"(+	c #428C99",
"_+	c #4FA3A9",
":+	c #2E5163",
"<+	c #315052",
"[+	c #49BB63",
"}+	c #6AA050",
"|+	c #211F30",
"1+	c #201E33",
"2+	c #D4A254",
"3+	c #FFF144",
"4+	c #FFEF46",
"5+	c #F8E63D",
"6+	c #292E2B",
"7+	c #00082C",
"8+	c #181D31",
"9+	c #399B52",
"0+	c #6FB455",
"a+	c #1C1D30",
"b+	c #354168",
"c+	c #425178",
"d+	c #405177",
"e+	c #404D75",
"f+	c #3E738D",
"g+	c #3D8598",
"h+	c #3D8497",
"i+	c #45949F",
"j+	c #405C7B",
"k+	c #334D57",
"l+	c #3F985A",
"m+	c #223633",
"n+	c #161B2E",
"o+	c #A77652",
"p+	c #FFF148",
"q+	c #FAE943",
"r+	c #FCEA45",
"s+	c #FFEF3D",
"t+	c #DCCD65",
"u+	c #A08E75",
"v+	c #3A383C",
"w+	c #000A23",
"x+	c #181C2F",
"y+	c #35695A",
"z+	c #5DC25D",
"A+	c #7BB556",
"B+	c #445867",
"C+	c #3F4B77",
"D+	c #3F748C",
"E+	c #3E8798",
"F+	c #3E899A",
"G+	c #3E8698",
"H+	c #3E8597",
"I+	c #3E768E",
"J+	c #405077",
"K+	c #313F5E",
"L+	c #21333F",
"M+	c #151D2F",
"N+	c #7B5A47",
"O+	c #FFE34D",
"P+	c #FFFF45",
"Q+	c #FFF541",
"R+	c #FFF467",
"S+	c #E0CE9B",
"T+	c #6E6458",
"U+	c #1E2231",
"V+	c #3C3741",
"W+	c #31303C",
"X+	c #13182C",
"Y+	c #1A2A32",
"Z+	c #18262F",
"`+	c #232F40",
" @	c #3B8862",
".@	c #439548",
"+@	c #3B4564",
"@@	c #414F78",
"#@	c #404E74",
"$@	c #3F5E7F",
"%@	c #405D7E",
"&@	c #3F5F80",
"*@	c #3E778F",
"=@	c #3D7D93",
"-@	c #3D8195",
";@	c #51A0A5",
">@	c #5CB6AE",
",@	c #345F65",
"'@	c #DC965F",
")@	c #171A30",
"!@	c #444235",
"~@	c #908A3A",
"{@	c #696733",
"]@	c #958770",
"^@	c #BBA782",
"/@	c #454242",
"(@	c #35323E",
"_@	c #93786B",
":@	c #78635E",
"<@	c #241D34",
"[@	c #1C4035",
"}@	c #33904D",
"|@	c #233C3F",
"1@	c #1E2A37",
"2@	c #202E44",
"3@	c #3E4974",
"4@	c #404F75",
"5@	c #404C74",
"6@	c #3F6C87",
"7@	c #3E758D",
"8@	c #408094",
"9@	c #428F9C",
"0@	c #47959F",
"a@	c #4998A0",
"b@	c #49989F",
"c@	c #469AA5",
"d@	c #2D515C",
"e@	c #BF8662",
"f@	c #D5925F",
"g@	c #5E5A52",
"h@	c #38393F",
"i@	c #3D3A40",
"j@	c #332D3B",
"k@	c #2A6F42",
"l@	c #31984A",
"m@	c #23443E",
"n@	c #202D3B",
"o@	c #13182B",
"p@	c #161D2F",
"q@	c #161C2D",
"r@	c #2A3351",
"s@	c #404F76",
"t@	c #3F768E",
"u@	c #3F708A",
"v@	c #44949F",
"w@	c #4C9CA2",
"x@	c #4898A0",
"y@	c #3F8C9B",
"z@	c #3F879B",
"A@	c #3C6A85",
"B@	c #161B2F",
"C@	c #090826",
"D@	c #286D41",
"E@	c #3FCE58",
"F@	c #2D9748",
"G@	c #302D39",
"H@	c #625353",
"I@	c #2D2D39",
"J@	c #10172A",
"K@	c #1E263B",
"L@	c #3B486C",
"M@	c #425179",
"N@	c #404C73",
"O@	c #3F6382",
"P@	c #3D8B9B",
"Q@	c #3E6F89",
"R@	c #3E6D88",
"S@	c #3C8598",
"T@	c #3D748E",
"U@	c #406987",
"V@	c #3D5274",
"W@	c #22263F",
"X@	c #141A2B",
"Y@	c #C38862",
"Z@	c #A87965",
"`@	c #245A3D",
" #	c #255E3E",
".#	c #1B2236",
"+#	c #3A476A",
"@#	c #415077",
"##	c #414C75",
"$#	c #415379",
"%#	c #43577E",
"&#	c #424E76",
"*#	c #405378",
"=#	c #2E3051",
"-#	c #273B52",
";#	c #367687",
">#	c #264658",
",#	c #9F7466",
"'#	c #9E7466",
")#	c #1E273E",
"!#	c #242C46",
"~#	c #29334E",
"{#	c #3B476B",
"]#	c #2C3653",
"^#	c #242C45",
"/#	c #232A43",
"(#	c #323E5D",
"_#	c #3D4A6F",
":#	c #405A7D",
"<#	c #418C9E",
"[#	c #3E8394",
"}#	c #203244",
"|#	c #A57865",
"1#	c #D39160",
"2#	c #1C2030",
"3#	c #344060",
"4#	c #36456B",
"5#	c #3C4B72",
"6#	c #344163",
"7#	c #3A476B",
"8#	c #3F4D73",
"9#	c #424F76",
"0#	c #445078",
"a#	c #43567D",
"b#	c #3D8498",
"c#	c #317D94",
"d#	c #1A384C",
"e#	c #AA7A65",
"f#	c #D29060",
"g#	c #1F4237",
"h#	c #1A2831",
"i#	c #11132B",
"j#	c #282935",
"k#	c #6E5B57",
"l#	c #403F4C",
"m#	c #2E3348",
"n#	c #2E3752",
"o#	c #2E3855",
"p#	c #334062",
"q#	c #374871",
"r#	c #34416A",
"s#	c #28415B",
"t#	c #2B4858",
"u#	c #5A5955",
"v#	c #7C6B5B",
"w#	c #22513A",
"x#	c #3BBD54",
"y#	c #32974B",
"z#	c #1B3931",
"A#	c #1E2441",
"B#	c #303345",
"C#	c #473F43",
"D#	c #463D3F",
"E#	c #69554E",
"F#	c #5C4C46",
"G#	c #605250",
"H#	c #52494D",
"I#	c #534A4D",
"J#	c #A18664",
"K#	c #766051",
"L#	c #6F6253",
"M#	c #574D4D",
"N#	c #1B1D31",
"O#	c #DB955F",
"P#	c #110428",
"Q#	c #255F3E",
"R#	c #3ECB57",
"S#	c #2D8046",
"T#	c #172D2E",
"U#	c #222841",
"V#	c #3B4A70",
"W#	c #35456D",
"X#	c #2A385A",
"Y#	c #333B56",
"Z#	c #373541",
"`#	c #3E3A42",
" $	c #3D3840",
".$	c #5C585C",
"+$	c #313B58",
"@$	c #202A53",
"#$	c #305173",
"$$	c #367183",
"%$	c #1D2E3F",
"&$	c #C88B61",
"*$	c #17212F",
"=$	c #204638",
"-$	c #182630",
";$	c #141B2B",
">$	c #1F263C",
",$	c #2B344F",
"'$	c #313C5A",
")$	c #3F4E76",
"!$	c #39486F",
"~$	c #3A4A73",
"{$	c #3A4A74",
"]$	c #384874",
"^$	c #44557E",
"/$	c #467590",
"($	c #3E7C8F",
"_$	c #306374",
":$	c #1E3043",
"<$	c #AD7C64",
"[$	c #121726",
"}$	c #0F1322",
"|$	c #171D30",
"1$	c #171E30",
"2$	c #20283E",
"3$	c #2A344F",
"4$	c #2D3754",
"5$	c #262D45",
"6$	c #203044",
"7$	c #203B4B",
"8$	c #192536",
"9$	c #161C2E",
"0$	c #161C2F",
"a$	c #171D2F",
"b$	c #161B2D",
"c$	c #131829",
"d$	c #121828",
"e$	c #14192A",
"f$	c #141629",
"g$	c #151A2C",
"                                                                                                                                ",
"                                                                                                                                ",
"                                                                                                                                ",
"                                                                                                                                ",
"                                                                                                                                ",
"                                                                                                                                ",
"                                                                                                                                ",
"                                                                                                                                ",
"                                                                                                                                ",
"                                                                                                                                ",
"                                                                                                                                ",
"                                                                                                                                ",
"                                                                                                                                ",
"                                          .   . + @ # # # #                                                                     ",
"                                          $ % & * = - ; > , ' ) @                                                               ",
"                            ! ! ~   { ] ^ / ( _ : < [ } | 1 2 3 ( 4 5 6                                                         ",
"                        ! 7 ! - 8 9 | 0 a b c d e f g h h i j ] k 6 l m + n                                                     ",
"                      ! 7 o , * $ p q r s t u v w x x y y y y x x g z j A B C )                                                 ",
"                  ! ! # o D d E F G H I J K L M h y y g   N y O O O x y h P Q R )                                               ",
"                ! ! ! ! S T U V W X Y     Z                           x h & `  ...                                              ",
"              +.! - n u @.#.$.%.&.                        *.=.-.;.>.      ,.'.).!.  )                                           ",
"            ~.{.].^.P % /.(._.:.                    <.[.}.|.1.2.3.            ] 4.e 5.o                                         ",
"          6.7.8.9.o 0.a.b.c.d.e.                  f.g.h.i.j.k.l.                  { m.n.=                                       ",
"          o.p.q.! 7 ^.r.s.t.u.                  v.w.x.y.z.A.B.C.D.  E.F.G.H.        9 I.                                        ",
"          J.K.L.! ! M.N.O.P.              Q.R.S.}.T.U.V.W.X.Y.Z.`. +.+++@+#+        $+j f y                                     ",
"        %+&+*+=+! L.-+;+>+                ,+'+)+!+~+{+]+^+/+(+_+:+<+[+}+|+            x x y y                                   ",
"        1+2+3+@ @ 4+5+6+7+              8+9+0+a+b+c+d+e+f+g+h+i+j+k+l+m+                y y y                                   ",
"        n+o+p+q+r+s+t+u+v+w+            x+y+z+A+B+C+D+E+F+G+H+I+J+K+L+M+                  y O y                                 ",
"          N+O+P+Q+R+S+T+U+V+W+X+Y+Z+      `+ @.@+@@@#@$@%@&@*@=@-@;@>@,@                    '@                                  ",
"          )@!@~@{@]@^@/@(@_@:@<@[@}@|@      1@2@3@4@5@6@7@8@9@0@a@b@c@d@                    e@f@                                ",
"                    g@h@  i@j@k@l@m@n@o@p@q@r@x.4@s@t@u@h+v@w@x@y@z@A@B@                      N                                 ",
"                            C@D@E@F@G@H@I@J@K@L@M@N@O@P@Q@R@S@T@U@V@W@X@                      Y@Z@                              ",
"                                `@ #          .#+#@###$#%#&#*#~+=#-#;#>#                      ,#'#                              ",
"                                                )#!#~#{#]#^#/#(#_#:#<#[#}#                      |#1#                            ",
"                                                2#3#4#5#6#7#8#9#0#a#b#c#d#                      e#f#                            ",
"                                          g#h#i#j#k#l#m#n#o#p#q#r#s#t#u#v#                        g                             ",
"                                        w#x#y#z#A#B#C#D#E#F#G#H#I#J#K#L#M#N#                      O#                            ",
"                                      P#Q#R#S#T#U#V#W#X#Y#Y#Z#`# $.$+$@$#$$$%$                    &$                            ",
"                                        *$=$-$  ;$>$,$'$)$)$!$~${$]$^$/$($_$:$                    <$                            ",
"                                                  X@[$}$|$1$2$3$4$5$6$7$8$                        ,#                            ",
"                                                9$0$a$a$q@b$X@c$d$e$e$f$g$1$1$                    '#                            ",
"                                              9$9$9$9$9$9$9$0$a$a$a$p@p@9$9$9$                    '#'#                          ",
"                                                9$9$9$9$9$9$9$9$9$9$9$9$9$9$9$                    '#                            ",
"                                                        9$  9$9$9$9$                                                            ",
"                                                                                                                                ",
"                                                                                            '#'#'#'#'#                          ",
"                                                                                              '#'#'#                            ",
"                                                                                            '#'#'#                              ",
"                                                                                                                                ",
"                                                                                                                                ",
"                                                                                                                                ",
"                                                                                                                                ",
"                                                                                                                                ",
"                                                                                                                                ",
"                                                                                                                                ",
"                                                                                                                                ",
"                                                                                                                                ",
"                                                                                                                                ",
"                                                                                                                                ",
"                                                                                                                                ",
"                                                                                                                                ",
"                                                                                                                                ",
"                                                                                                                                ",
"                                                                                                                                "};
