/* XPM */
static char * u4_xpm[] = {
"64 64 476 2",
"  	c None",
". 	c #FFEC44",
"+ 	c #FFED44",
"@ 	c #FBE447",
"# 	c #FFEE44",
"$ 	c #FFF043",
"% 	c #FFF143",
"& 	c #FEEB44",
"* 	c #FFF342",
"= 	c #FFF542",
"- 	c #FFEF44",
"; 	c #E1A659",
"> 	c #F2CF4D",
", 	c #EFC84F",
"' 	c #E2A959",
") 	c #FDE845",
"! 	c #E8B854",
"~ 	c #F6D84A",
"{ 	c #FBE347",
"] 	c #FFF541",
"^ 	c #FFF142",
"/ 	c #FFF242",
"( 	c #F6D64B",
"_ 	c #EABC53",
": 	c #E4AE57",
"< 	c #DD9D5C",
"[ 	c #D48763",
"} 	c #D9955F",
"| 	c #E7B455",
"1 	c #EEC650",
"2 	c #F0C94F",
"3 	c #F4D24C",
"4 	c #DD9E5C",
"5 	c #DB995D",
"6 	c #DFA35A",
"7 	c #E7B555",
"8 	c #F8DD49",
"9 	c #FFF741",
"0 	c #FCEA44",
"a 	c #F5CD50",
"b 	c #E3A959",
"c 	c #D6915F",
"d 	c #D68C62",
"e 	c #D68C61",
"f 	c #D89260",
"g 	c #DA955F",
"h 	c #D9945F",
"i 	c #D78E61",
"j 	c #D58A62",
"k 	c #D58C62",
"l 	c #DA975E",
"m 	c #DFA25B",
"n 	c #E6B356",
"o 	c #DD9C5C",
"p 	c #D89160",
"q 	c #D9935F",
"r 	c #DA965E",
"s 	c #F1CC4E",
"t 	c #D78F61",
"u 	c #DC9A5D",
"v 	c #F9DF48",
"w 	c #E8BB53",
"x 	c #E7A55E",
"y 	c #C6845C",
"z 	c #7D564B",
"A 	c #E0A859",
"B 	c #FAE247",
"C 	c #E9B854",
"D 	c #EABB53",
"E 	c #E0A45A",
"F 	c #E19364",
"G 	c #9E6E51",
"H 	c #3C3537",
"I 	c #D3925D",
"J 	c #DC9C5D",
"K 	c #E1A759",
"L 	c #D9965E",
"M 	c #D89161",
"N 	c #795A46",
"O 	c #E29961",
"P 	c #DD9660",
"Q 	c #9D7466",
"R 	c #9F7566",
"S 	c #E3AA58",
"T 	c #E8B655",
"U 	c #ECC151",
"V 	c #D68D61",
"W 	c #DF9960",
"X 	c #B57E56",
"Y 	c #E39A61",
"Z 	c #D7935F",
"` 	c #9E7466",
" .	c #BE8562",
"..	c #D08F60",
"+.	c #D48863",
"@.	c #EBBE52",
"#.	c #F9DE48",
"$.	c #DB9B5C",
"%.	c #E19861",
"&.	c #93694D",
"*.	c #D5915E",
"=.	c #182033",
"-.	c #192335",
";.	c #1A2435",
">.	c #1C2837",
",.	c #9C7366",
"'.	c #C58961",
").	c #DEA15B",
"!.	c #FFF641",
"~.	c #E0A958",
"{.	c #DF9164",
"].	c #A07250",
"^.	c #1B293B",
"/.	c #2D586A",
"(.	c #356F80",
"_.	c #3B7E90",
":.	c #3D8292",
"<.	c #4B989B",
"[.	c #40797A",
"}.	c #161B2D",
"|.	c #AC7C64",
"1.	c #FAE347",
"2.	c #E8B357",
"3.	c #D29E55",
"4.	c #203749",
"5.	c #264658",
"6.	c #1C2B3D",
"7.	c #1F3446",
"8.	c #38788A",
"9.	c #3F899C",
"0.	c #4CA0A7",
"a.	c #498E8D",
"b.	c #203241",
"c.	c #17202F",
"d.	c #9B7266",
"e.	c #FCE646",
"f.	c #FFEF43",
"g.	c #FAE645",
"h.	c #FFF248",
"i.	c #948B3B",
"j.	c #AC7158",
"k.	c #E29B60",
"l.	c #16172B",
"m.	c #3A466B",
"n.	c #384266",
"o.	c #394E6E",
"p.	c #407C93",
"q.	c #377D93",
"r.	c #50A6AB",
"s.	c #519D98",
"t.	c #233B45",
"u.	c #276C3F",
"v.	c #26623E",
"w.	c #A07566",
"x.	c #FEEC44",
"y.	c #805B4A",
"z.	c #1B2337",
"A.	c #3B486D",
"B.	c #415178",
"C.	c #407E94",
"D.	c #3E8798",
"E.	c #46939E",
"F.	c #55AAA6",
"G.	c #59B6B4",
"H.	c #2F5C69",
"I.	c #0D041E",
"J.	c #306750",
"K.	c #3DB253",
"L.	c #334C3A",
"M.	c #FFF044",
"N.	c #FFF843",
"O.	c #D7B24D",
"P.	c #182630",
"Q.	c #1E2230",
"R.	c #151B31",
"S.	c #2F3A57",
"T.	c #2E3957",
"U.	c #3D4A6F",
"V.	c #3E778F",
"W.	c #418898",
"X.	c #47919C",
"Y.	c #47959F",
"Z.	c #418C9B",
"`.	c #397B8D",
" +	c #253543",
".+	c #387D61",
"++	c #5CC458",
"@+	c #3F523E",
"#+	c #FFF144",
"$+	c #F0DF44",
"%+	c #1B212B",
"&+	c #245B3D",
"*+	c #34A64E",
"=+	c #44A04F",
"-+	c #658A4D",
";+	c #191D2F",
">+	c #344067",
",+	c #45557D",
"'+	c #404D75",
")+	c #404972",
"!+	c #3F5D7F",
"~+	c #3D7F94",
"{+	c #3C8296",
"]+	c #44949F",
"^+	c #44748C",
"/+	c #3A4C62",
"(+	c #3C9F60",
"_+	c #69C058",
":+	c #303637",
"<+	c #D3C540",
"[+	c #FFF945",
"}+	c #FBE944",
"|+	c #FFED45",
"1+	c #FCEC40",
"2+	c #837A49",
"3+	c #212335",
"4+	c #0B1328",
"5+	c #192A31",
"6+	c #1D3A35",
"7+	c #357B58",
"8+	c #5ECB5C",
"9+	c #6FA64F",
"0+	c #42525A",
"a+	c #3F4B78",
"b+	c #3F6A85",
"c+	c #3E7A91",
"d+	c #3E8899",
"e+	c #3E8A9B",
"f+	c #3E899A",
"g+	c #3D899A",
"h+	c #406283",
"i+	c #333A5D",
"j+	c #284043",
"k+	c #243634",
"l+	c #615F35",
"m+	c #FFFA45",
"n+	c #FFED43",
"o+	c #FEED48",
"p+	c #F2DA90",
"q+	c #B9A683",
"r+	c #8D7D64",
"s+	c #191E2F",
"t+	c #1F2439",
"u+	c #348160",
"v+	c #56CB56",
"w+	c #4D6F61",
"x+	c #3D4878",
"y+	c #405377",
"z+	c #3F6684",
"A+	c #3F6785",
"B+	c #3F5A7D",
"C+	c #3F6784",
"D+	c #3E7990",
"E+	c #3E788F",
"F+	c #417991",
"G+	c #4A8C8F",
"H+	c #396C72",
"I+	c #676536",
"J+	c #CDC03F",
"K+	c #F8E745",
"L+	c #FFF13E",
"M+	c #E8D164",
"N+	c #F9E7B8",
"O+	c #B5A883",
"P+	c #423F41",
"Q+	c #272837",
"R+	c #423B44",
"S+	c #282937",
"T+	c #141B2D",
"U+	c #192931",
"V+	c #15212B",
"W+	c #253540",
"X+	c #1D473A",
"Y+	c #2E3C5C",
"Z+	c #43527A",
"`+	c #404670",
" @	c #3F5E7F",
".@	c #3F6C88",
"+@	c #406E88",
"@@	c #3E7C92",
"#@	c #408597",
"$@	c #3F8B9B",
"%@	c #51A7A6",
"&@	c #4EA3A9",
"*@	c #51A3A1",
"=@	c #1E2E3C",
"-@	c #5C5B35",
";@	c #585832",
">@	c #4A483E",
",@	c #B09E7C",
"'@	c #96866B",
")@	c #2C2D37",
"!@	c #4F454B",
"~@	c #997D6D",
"{@	c #645455",
"]@	c #16162D",
"^@	c #337F50",
"/@	c #1E283A",
"(@	c #1F263F",
"_@	c #32375D",
":@	c #404E74",
"<@	c #404C74",
"[@	c #3F5D7E",
"}@	c #405C7E",
"|@	c #3E7B91",
"1@	c #4397A1",
"2@	c #51A6A6",
"3@	c #4EA0A4",
"4@	c #428C9A",
"5@	c #408C9A",
"6@	c #408DA1",
"7@	c #131324",
"8@	c #1D202F",
"9@	c #625B53",
"0@	c #202432",
"a@	c #2C2C38",
"b@	c #3F3A41",
"c@	c #282A37",
"d@	c #30944A",
"e@	c #2D8345",
"f@	c #263C43",
"g@	c #1C2736",
"h@	c #111628",
"i@	c #20283E",
"j@	c #44547B",
"k@	c #415078",
"l@	c #3F4B72",
"m@	c #3F6281",
"n@	c #3E8396",
"o@	c #3E8295",
"p@	c #3D778E",
"q@	c #3E8697",
"r@	c #3D8397",
"s@	c #41728E",
"t@	c #3C5676",
"u@	c #192235",
"v@	c #131C2D",
"w@	c #31924A",
"x@	c #40D259",
"y@	c #215739",
"z@	c #3C2D3F",
"A@	c #5D5251",
"B@	c #1C1F2E",
"C@	c #212A42",
"D@	c #3C486D",
"E@	c #45547D",
"F@	c #434F78",
"G@	c #405B7D",
"H@	c #406685",
"I@	c #43537B",
"J@	c #436084",
"K@	c #436184",
"L@	c #3F5176",
"M@	c #262945",
"N@	c #274357",
"O@	c #254556",
"P@	c #1B3333",
"Q@	c #214C3A",
"R@	c #2C2E39",
"S@	c #202840",
"T@	c #2D3754",
"U@	c #2B3551",
"V@	c #3D486F",
"W@	c #3E486F",
"X@	c #313C5B",
"Y@	c #282F4B",
"Z@	c #2D3553",
"`@	c #354163",
" #	c #364063",
".#	c #3F768F",
"+#	c #1F3244",
"@#	c #131827",
"##	c #222D49",
"$#	c #2E3B5D",
"%#	c #394669",
"&#	c #2C3551",
"*#	c #323D5C",
"=#	c #364364",
"-#	c #404F76",
";#	c #454E77",
">#	c #426D8A",
",#	c #449BAB",
"'#	c #264B5E",
")#	c #15172D",
"!#	c #161D2E",
"~#	c #171C2E",
"{#	c #5B5259",
"]#	c #3F4255",
"^#	c #283351",
"/#	c #2E3856",
"(#	c #374872",
"_#	c #364772",
":#	c #3D4D77",
"<#	c #3E4D75",
"[#	c #2F406B",
"}#	c #284E67",
"|#	c #254859",
"1#	c #2D3744",
"2#	c #35333A",
"3#	c #14152C",
"4#	c #25603E",
"5#	c #339A4C",
"6#	c #141D2C",
"7#	c #312E39",
"8#	c #544747",
"9#	c #66544C",
"0#	c #524647",
"a#	c #5C5050",
"b#	c #5C5051",
"c#	c #414150",
"d#	c #2B3046",
"e#	c #6F6459",
"f#	c #7B6659",
"g#	c #8F755B",
"h#	c #7E6A58",
"i#	c #2A2B36",
"j#	c #17212F",
"k#	c #3CC255",
"l#	c #309447",
"m#	c #222742",
"n#	c #36466C",
"o#	c #344163",
"p#	c #383F59",
"q#	c #2F303F",
"r#	c #443E45",
"s#	c #453E43",
"t#	c #4E4344",
"u#	c #413A40",
"v#	c #766757",
"w#	c #57504D",
"x#	c #34354D",
"y#	c #2D3653",
"z#	c #31627B",
"A#	c #2E5D6E",
"B#	c #161C2E",
"C#	c #255E3E",
"D#	c #1D3D34",
"E#	c #1C1C39",
"F#	c #29334D",
"G#	c #384466",
"H#	c #3E4C74",
"I#	c #39486E",
"J#	c #374770",
"K#	c #314065",
"L#	c #2F3E63",
"M#	c #2F3D61",
"N#	c #26365E",
"O#	c #41698B",
"P#	c #43829A",
"Q#	c #3D8293",
"R#	c #274A5D",
"S#	c #111525",
"T#	c #151B2C",
"U#	c #191F32",
"V#	c #222A41",
"W#	c #232A42",
"X#	c #29324D",
"Y#	c #2F3956",
"Z#	c #3E4B6F",
"`#	c #3A4667",
" $	c #2C3651",
".$	c #2A5263",
"+$	c #213C4C",
"@$	c #1B293C",
"#$	c #171D2F",
"$$	c #151B2D",
"%$	c #141A2B",
"&$	c #131829",
"*$	c #121727",
"=$	c #131325",
"-$	c #141628",
";$	c #15192B",
">$	c #161C2F",
",$	c #161D2F",
"'$	c #171D30",
")$	c #171E30",
"                                                                                                                                ",
"                                                                                                                                ",
"                                                                                                                                ",
"                                                                                                                                ",
"                                                                                                                                ",
"                                                                                                                                ",
"                                                                                                                                ",
"                                                                                                                                ",
"                                                                                                                                ",
"                                                                                                                                ",
"                                                                                                                                ",
"                                                                                                                                ",
"                                        . +         @ . # $ + %                                                                 ",
"                                & * = $ -     ; > , ' ) ! ~ + { ) ]                                                             ",
"                            # ^ / ( _ : < [ } | 1 2 { # 3 4 5   6 7 8                                                           ",
"                        , 9 0 a b c d e f g h i j k l m n o p q     r s                                                         ",
"                    t u v w x y z                             h }       A                                                       ",
"                q B C D E F G H I                                                                                               ",
"              J ~ s K L M N   O P                                       Q R                                                     ",
"            p S T U | V W X Y Z                                           `  ...                                                ",
"          } 5 +.@.#.$.%.&.*.                      =.-.;.>.                  ,.'.Z                                               ",
"          | )., !.~.{.].                      ^./.(._.:.<.[.}.                ,.|.                                              ",
"        f _ 8 !.1.2.3.                        4.5.6.7.8.9.0.a.b.    c.          d.`                                             ",
"        | e.f.+ g.h.i.j.k.                      l.m.n.o.p.q.r.s.t.  u.v.          w.                                            ",
"        { % . + x.!.U y.                        z.A.B.C.D.E.F.G.H.I.J.K.L.                                                      ",
"        M.x.+ + & N.O.                  P.Q.  R.S.T.U.V.W.X.Y.Z.`. +.+++@+                                                      ",
"          # x.+ x.#+$+%+              &+*+=+-+;+>+,+'+)+!+~+{+]+^+/+(+_+:+                `                                     ",
"          <+[+}++ |+1+2+3+4+          5+6+7+8+9+0+a+b+c+d+e+f+g+h+i+j+k+                  `                                     ",
"          l+x.m+# n+o+p+q+r+s+            t+u+v+w+x+y+z+A+B+C+D+E+F+G+H+                                                        ",
"            I+J+K+L+M+N+O+P+Q+R+S+T+U+V+    W+X+Y+Z+`+ @.@+@@@#@$@%@&@*@=@                                                      ",
"                -@;@>@,@'@)@!@~@{@]@u.^@/@  (@_@:@<@[@}@|@1@2@3@4@5@6@/.7@                                                      ",
"                      8@9@0@a@b@c@d@e@f@g@h@i@j@k@l@m@n@o@p@5@q@r@s@t@u@                                                        ",
"                                v@w@x@y@z@A@B@C@D@E@F@G@H@I@J@K@L@M@N@O@                                                        ",
"                                  P@v.Q@  R@    S@T@U@V@W@X@Y@Z@`@ #.#d++#                                                      ",
"                                                @###$#:@%#&#*#=#-#;#>#,#'#                      `                               ",
"                                            )#!#~#{#]#^#/#(#_#:#<#[#}#|#1#2#                    ` `                             ",
"                                          3#4#5#6#7#8#9#0#a#b#c#d#e#f#g#h#i#                                                    ",
"                                          j#k#l#m#n#o#p#q#r#s#t#u#v#w#x#y#z#A#                    `                             ",
"                                          B#C#D#E#F#G#H#I#J#K#L#M#N#_#O#P#Q#R#                    `                             ",
"                                                  S#T#U#V#W#X#Y#Z#`# $.$+$@$                      `                             ",
"                                                  #$B#$$%$%$&$*$#$$$*$=$-$;$                                                    ",
"                                              B#B#B#B#B#>$,$#$#$B#B#'$)$,$B#B#B#                                                ",
"                                                B#B#B#B#B#B#B#B#B#B#B#B#B#B#B#B#                                                ",
"                                                      B#B#B#B#B#B#B#B#B#                                                        ",
"                                                                                                                                ",
"                                                                                                  `                             ",
"                                                                                                `                               ",
"                                                                                                                                ",
"                                                                                                                                ",
"                                                                                                                                ",
"                                                                                                                                ",
"                                                                                                                                ",
"                                                                                                                                ",
"                                                                                                                                ",
"                                                                                                                                ",
"                                                                                                                                ",
"                                                                                                                                ",
"                                                                                                                                ",
"                                                                                                                                ",
"                                                                                                                                ",
"                                                                                                                                ",
"                                                                                                                                ",
"                                                                                                                                ",
"                                                                                                                                "};
