/* XPM */
static char * u5_xpm[] = {
"64 64 402 2",
"  	c None",
". 	c #D6925F",
"+ 	c #D49160",
"@ 	c #EDC351",
"# 	c #E7B455",
"$ 	c #D9945F",
"% 	c #BA8363",
"& 	c #AA7A65",
"* 	c #A47765",
"= 	c #A17566",
"- 	c #9E7466",
"; 	c #F9DF48",
"> 	c #E7B555",
", 	c #E9B954",
"' 	c #DA965E",
") 	c #D9935F",
"! 	c #F2CF4D",
"~ 	c #D89160",
"{ 	c #FEEA45",
"] 	c #E3AA58",
"^ 	c #D79060",
"/ 	c #D9955F",
"( 	c #F9E743",
"_ 	c #121225",
": 	c #FAE247",
"< 	c #EDC251",
"[ 	c #E2A959",
"} 	c #D48863",
"| 	c #E2AD56",
"1 	c #F8E246",
"2 	c #FFF541",
"3 	c #FEEE43",
"4 	c #FFF545",
"5 	c #BCAE3A",
"6 	c #1D364C",
"7 	c #316374",
"8 	c #346A7C",
"9 	c #2D596A",
"0 	c #233845",
"a 	c #0A071D",
"b 	c #1D1834",
"c 	c #211A36",
"d 	c #FAE148",
"e 	c #F5D64B",
"f 	c #EFC84F",
"g 	c #D7945E",
"h 	c #F2D04C",
"i 	c #FFF945",
"j 	c #FFF648",
"k 	c #F3CC4F",
"l 	c #E2AD57",
"m 	c #F2C055",
"n 	c #19242C",
"o 	c #1E364C",
"p 	c #233E4E",
"q 	c #336C7D",
"r 	c #4394A6",
"s 	c #47919A",
"t 	c #32676E",
"u 	c #4A3A39",
"v 	c #E59961",
"w 	c #D9AD52",
"x 	c #DDBC4B",
"y 	c #D4B04D",
"z 	c #B9A045",
"A 	c #5E5C35",
"B 	c #E7B655",
"C 	c #FBE447",
"D 	c #FCE746",
"E 	c #E6B156",
"F 	c #DA9460",
"G 	c #FDD252",
"H 	c #FAD84D",
"I 	c #A98D47",
"J 	c #755D43",
"K 	c #A97057",
"L 	c #191C2E",
"M 	c #303758",
"N 	c #212840",
"O 	c #346B7D",
"P 	c #3D8499",
"Q 	c #55AEB0",
"R 	c #3F7E80",
"S 	c #6C4F43",
"T 	c #E6AE59",
"U 	c #F3CB50",
"V 	c #FFFC46",
"W 	c #FFFF45",
"X 	c #F8E644",
"Y 	c #4D4D34",
"Z 	c #FFF043",
"` 	c #FFEC44",
" .	c #E2AA58",
"..	c #D68D61",
"+.	c #D99260",
"@.	c #8D7245",
"#.	c #674746",
"$.	c #262F49",
"%.	c #485883",
"&.	c #3F4E74",
"*.	c #3C4E72",
"=.	c #3F7F94",
"-.	c #397F93",
";.	c #56B1B2",
">.	c #285963",
",.	c #4C282F",
"'.	c #EA976B",
").	c #96764A",
"!.	c #D2C63F",
"~.	c #F7E73F",
"{.	c #535332",
"].	c #E8B655",
"^.	c #DA955F",
"/.	c #223634",
"(.	c #1C2A31",
"_.	c #16172E",
":.	c #263048",
"<.	c #232C44",
"[.	c #323859",
"}.	c #426C8A",
"|.	c #3E8A9B",
"1.	c #408A9A",
"2.	c #418B9A",
"3.	c #56ADAA",
"4.	c #5AADA5",
"5.	c #183341",
"6.	c #266440",
"7.	c #234B37",
"8.	c #7E6B4E",
"9.	c #3A3A3F",
"0.	c #D68E61",
"a.	c #15162D",
"b.	c #1F4337",
"c.	c #34A24E",
"d.	c #5D9850",
"e.	c #2D3830",
"f.	c #242C51",
"g.	c #45547B",
"h.	c #3D476E",
"i.	c #40577B",
"j.	c #3E7A91",
"k.	c #46909C",
"l.	c #4C9CA2",
"m.	c #4E9EA2",
"n.	c #4899A4",
"o.	c #284A59",
"p.	c #130D27",
"q.	c #338A52",
"r.	c #44A34A",
"s.	c #A8967A",
"t.	c #686359",
"u.	c #2C4B4E",
"v.	c #54B863",
"w.	c #78B755",
"x.	c #303B3C",
"y.	c #3B4771",
"z.	c #42567A",
"A.	c #404C73",
"B.	c #405A7C",
"C.	c #3D7C92",
"D.	c #3B8196",
"E.	c #428C9A",
"F.	c #4C9DA4",
"G.	c #263E52",
"H.	c #345355",
"I.	c #45AD61",
"J.	c #519345",
"K.	c #817B6C",
"L.	c #A49676",
"M.	c #171B2D",
"N.	c #191A31",
"O.	c #34695C",
"P.	c #5BCD59",
"Q.	c #4C6E5F",
"R.	c #3D4677",
"S.	c #406180",
"T.	c #3E7C92",
"U.	c #3E8497",
"V.	c #3E8F9E",
"W.	c #3F8899",
"X.	c #3D8698",
"Y.	c #478E9D",
"Z.	c #323D5A",
"`.	c #3C7364",
" +	c #55C05B",
".+	c #2C3735",
"++	c #B99E7A",
"@+	c #AD9772",
"#+	c #1F2332",
"$+	c #22343C",
"%+	c #1E493B",
"&+	c #2E3C5C",
"*+	c #435179",
"=+	c #3F4C73",
"-+	c #405B7D",
";+	c #3F6483",
">+	c #3F6583",
",+	c #3F7B91",
"'+	c #3E8899",
")+	c #406585",
"!+	c #384066",
"~+	c #21383F",
"{+	c #2E4E3B",
"]+	c #202231",
"^+	c #474344",
"/+	c #1C1F31",
"(+	c #232A45",
"_+	c #343A61",
":+	c #404D74",
"<+	c #404E75",
"[+	c #404B73",
"}+	c #3F6886",
"|+	c #3F6C88",
"1+	c #3E6382",
"2+	c #3C728C",
"3+	c #3C7D93",
"4+	c #3D8396",
"5+	c #418195",
"6+	c #4C8E90",
"7+	c #2B4A59",
"8+	c #0F1428",
"9+	c #5B5051",
"0+	c #77635E",
"a+	c #262936",
"b+	c #111626",
"c+	c #313C5B",
"d+	c #475881",
"e+	c #405277",
"f+	c #3F6E89",
"g+	c #405C7E",
"h+	c #3D8497",
"i+	c #4597A1",
"j+	c #4EA2A5",
"k+	c #4999A0",
"l+	c #46929D",
"m+	c #4D9EA2",
"n+	c #53AFB2",
"o+	c #478988",
"p+	c #0C0E24",
"q+	c #3C3540",
"r+	c #836D62",
"s+	c #252337",
"t+	c #1B2236",
"u+	c #3A476C",
"v+	c #425179",
"w+	c #3E768E",
"x+	c #3E8698",
"y+	c #3D7B91",
"z+	c #43919D",
"A+	c #4999A1",
"B+	c #44929E",
"C+	c #3F8D9B",
"D+	c #3F8C9C",
"E+	c #3D778F",
"F+	c #202F41",
"G+	c #193033",
"H+	c #201C33",
"I+	c #445540",
"J+	c #313D37",
"K+	c #20283F",
"L+	c #3E4C72",
"M+	c #414F76",
"N+	c #414E76",
"O+	c #41597D",
"P+	c #406484",
"Q+	c #3C7B92",
"R+	c #3F728D",
"S+	c #406987",
"T+	c #222B42",
"U+	c #2C7E43",
"V+	c #2B8C47",
"W+	c #5CBD56",
"X+	c #3D8448",
"Y+	c #212940",
"Z+	c #242D45",
"`+	c #364264",
" @	c #404A72",
".@	c #3B476C",
"+@	c #3A4368",
"@@	c #404F76",
"#@	c #374164",
"$@	c #252944",
"%@	c #1F243C",
"&@	c #264658",
"*@	c #2D644B",
"=@	c #468B6C",
"-@	c #37AF58",
";@	c #34A94E",
">@	c #1A2931",
",@	c #14142C",
"'@	c #255F3E",
")@	c #2D8346",
"!@	c #1C3633",
"~@	c #181C35",
"{@	c #324166",
"]@	c #404E76",
"^@	c #333E5D",
"/@	c #2C3754",
"(@	c #3B486D",
"_@	c #3F4D73",
":@	c #3E4B6E",
"<@	c #40567A",
"[@	c #4492A5",
"}@	c #18384D",
"|@	c #07061D",
"1@	c #222F3E",
"2@	c #406A67",
"3@	c #306753",
"4@	c #1B3A34",
"5@	c #23553B",
"6@	c #3CC455",
"7@	c #214939",
"8@	c #513F48",
"9@	c #48454E",
"0@	c #2A334D",
"a@	c #283453",
"b@	c #384870",
"c@	c #415079",
"d@	c #3F4E77",
"e@	c #3C4B73",
"f@	c #2D3D6B",
"g@	c #314D67",
"h@	c #234557",
"i@	c #575654",
"j@	c #403D40",
"k@	c #172130",
"l@	c #38313F",
"m@	c #272235",
"n@	c #39B652",
"o@	c #2F8747",
"p@	c #15202D",
"q@	c #35333F",
"r@	c #433D43",
"s@	c #524544",
"t@	c #564847",
"u@	c #3D3A42",
"v@	c #292E41",
"w@	c #30354A",
"x@	c #303242",
"y@	c #81715F",
"z@	c #786357",
"A@	c #A08562",
"B@	c #7B6858",
"C@	c #2E2E38",
"D@	c #3D3A41",
"E@	c #30303B",
"F@	c #1E3F37",
"G@	c #141A2A",
"H@	c #292F4E",
"I@	c #3E4E77",
"J@	c #2D3C61",
"K@	c #303A57",
"L@	c #383847",
"M@	c #4B4245",
"N@	c #473F43",
"O@	c #433C40",
"P@	c #484043",
"Q@	c #80705D",
"R@	c #3B3942",
"S@	c #34354F",
"T@	c #2A3C5D",
"U@	c #1F384E",
"V@	c #171C2F",
"W@	c #262F48",
"X@	c #374365",
"Y@	c #44527A",
"Z@	c #43527B",
"`@	c #3C4C75",
" #	c #2C3B5F",
".#	c #2D3B5F",
"+#	c #2E3C60",
"@#	c #2C3A5E",
"##	c #2A3A65",
"$#	c #3C527A",
"%#	c #427191",
"&#	c #46879E",
"*#	c #141A2B",
"=#	c #1D243A",
"-#	c #212941",
";#	c #2A344F",
">#	c #414F75",
",#	c #424F76",
"'#	c #425077",
")#	c #353D5C",
"!#	c #2B4259",
"~#	c #295766",
"{#	c #20394A",
"]#	c #1C2B3D",
"^#	c #161C2E",
"/#	c #171D2F",
"(#	c #161C2F",
"_#	c #151A2C",
":#	c #131929",
"<#	c #171D30",
"[#	c #181E31",
"}#	c #121526",
"|#	c #131225",
"1#	c #141729",
"2#	c #161D2F",
"3#	c #161C2D",
"4#	c #161B2D",
"5#	c #171E30",
"                                                                                                                                ",
"                                                                                                                                ",
"                                                                                                                                ",
"                                                                                                                                ",
"                                                                                                                                ",
"                                                                                                                                ",
"                                                                                                                                ",
"                                                                                                                                ",
"                                                                                                                                ",
"                                                                                                                                ",
"                                                                                                                                ",
"                                                                                                                                ",
"                                                                                                                                ",
"                                              . +                                                                               ",
"                                  @ #     $ % & * =             - -                                                             ",
"                              ; >                                   -                                                           ",
"                              ,                                                                                                 ",
"                      $ $                                                                                                       ",
"                    ' )                                                                                                         ",
"                  ! ~                                                                                                           ",
"                { ] ^ /                           (     _                                                                       ",
"              : < [ /                   } | 1 2 3 4 5 6 7 8 9 0 a       b c                                                     ",
"            d e d   f           $     g h i j k l m n o p q r s t u v w x y z A                                                 ",
"            B C C D E       $ $ $ $ F G H I J K       L M N O P Q R S T U V W X Y                                               ",
"              Z `  .../ $ $ $ $ $ +.  @.#.            $.%.&.*.=.-.;.>.,.'.).!.~.{.                                              ",
"            ].B ^.~ / $ $ $ $               /.(._.  :.<.[.}.|.1.2.3.4.5.  6.7.8.9.                                              ",
"          / ~ 0.) ^.    $ $               a.b.c.d.e.f.g.h.i.j.k.l.m.n.o.p.q.r.s.t.                                              ",
"          $ / ^.                              u.v.w.x.y.z.A.B.C.D.E.F.G.H.I.J.K.L.M.                                            ",
"            $ $ $                             N.O.P.Q.R.S.T.U.V.W.X.Y.Z.`. +.+++@+#+                                            ",
"                                                $+%+&+*+=+-+;+>+,+'+)+!+~+{+]+^+/+                                              ",
"                                                (+_+:+<+[+}+|+1+2+3+4+5+6+7+8+9+0+a+                                            ",
"                                              b+c+d+=+e+f+g+h+i+j+k+l+m+n+o+p+q+r+s+                                            ",
"                                                t+u+v+=+w+x+y+z+A+B+C+D+E+F+  G+H+I+J+                                          ",
"                                                  K+L+M+N+;+O+P+Q+R+S+P+T+    U+V+W+X+                                          ",
"                                                    Y+Z+`+ @.@+@@@#@$@%@&@    *@=@-@;@>@                                        ",
"                                            ,@'@)@!@~@{@]@M+^@/@(@_@:@<@[@}@|@1@2@3@4@                                          ",
"                                            5@6@6@7@8@9@0@a@b@c@d@e@f@g@h@i@j@  k@l@m@                                          ",
"                                            b.n@o@p@q@r@s@t@u@v@w@x@y@z@A@B@C@    D@E@                                          ",
"                                              F@G@H@I@J@K@L@M@N@O@P@Q@R@S@T@U@                                                  ",
"                                                V@W@X@Y@Z@`@ #.#+#@###$#%#&#7                                                   ",
"                                                    *#=#-#;#>#,#,#'#)#!#~#{#]#                                                  ",
"                                                ^#/#(#_#G@:#<#[#[#[#G@}#|#1#_#^#                                                ",
"                                                ^#^#^#^#2#/#3#4#4#4#(#<#5#2#^#^#                                                ",
"                                                    ^#^#^#^#^#^#^#^#^#^#^#^#                                                    ",
"                                                                                                                                ",
"                                                                                                                                ",
"                                                                                                                                ",
"                                                                                                                                ",
"                                                                                                                                ",
"                                                                                                                                ",
"                                                                                                                                ",
"                                                                                                                                ",
"                                                                                                                                ",
"                                                                                                                                ",
"                                                                                                                                ",
"                                                                                                                                ",
"                                                                                                                                ",
"                                                                                                                                ",
"                                                                                                                                ",
"                                                                                                                                ",
"                                                                                                                                ",
"                                                                                                                                ",
"                                                                                                                                ",
"                                                                                                                                "};
