/* XPM */
static char * i3_xpm[] = {
"64 64 381 2",
"  	c None",
". 	c #D58A62",
"+ 	c #D9935F",
"@ 	c #A17566",
"# 	c #9F7566",
"$ 	c #DA975E",
"% 	c #EABD53",
"& 	c #DB985E",
"* 	c #ECC251",
"= 	c #DA965F",
"- 	c #D9945F",
"; 	c #D58B62",
"> 	c #D78E61",
", 	c #D79060",
"' 	c #D89260",
") 	c #D79160",
"! 	c #DA955F",
"~ 	c #E8B655",
"{ 	c #F6D84A",
"] 	c #F8DD49",
"^ 	c #E6B156",
"/ 	c #D78F61",
"( 	c #DA965E",
"_ 	c #D9955F",
": 	c #E4AF56",
"< 	c #EBBE52",
"[ 	c #FCE646",
"} 	c #FFF242",
"| 	c #DEA05B",
"1 	c #D88C63",
"2 	c #E4AE57",
"3 	c #E7B555",
"4 	c #FAE048",
"5 	c #E3AD57",
"6 	c #D28861",
"7 	c #192233",
"8 	c #1F3140",
"9 	c #121327",
"0 	c #BE8259",
"a 	c #DEA45A",
"b 	c #F9DD47",
"c 	c #FAE444",
"d 	c #EAB159",
"e 	c #DB8F63",
"f 	c #1A2535",
"g 	c #49979E",
"h 	c #284956",
"i 	c #111425",
"j 	c #172032",
"k 	c #1B1C34",
"l 	c #D39E4C",
"m 	c #FFF880",
"n 	c #FFF85C",
"o 	c #B2864A",
"p 	c #292434",
"q 	c #151829",
"r 	c #3A6D74",
"s 	c #53AEAF",
"t 	c #52989E",
"u 	c #2C3454",
"v 	c #141729",
"w 	c #131828",
"x 	c #12172C",
"y 	c #3F553E",
"z 	c #253134",
"A 	c #05132A",
"B 	c #594042",
"C 	c #FDD449",
"D 	c #FEFFC3",
"E 	c #FFE077",
"F 	c #604B3B",
"G 	c #1B3434",
"H 	c #11162B",
"I 	c #1A2134",
"J 	c #4B9A9F",
"K 	c #4FA3A5",
"L 	c #486180",
"M 	c #2F3556",
"N 	c #254456",
"O 	c #222D45",
"P 	c #161B2D",
"Q 	c #171E2F",
"R 	c #14162D",
"S 	c #50844A",
"T 	c #1E2E33",
"U 	c #1A1D32",
"V 	c #D9B446",
"W 	c #FFF596",
"X 	c #FFFBA9",
"Y 	c #AA7F44",
"Z 	c #191A31",
"` 	c #74A554",
" .	c #74BF5A",
"..	c #1F4237",
"+.	c #366F82",
"@.	c #467690",
"#.	c #395977",
"$.	c #306475",
"%.	c #436184",
"&.	c #424B75",
"*.	c #262E46",
"=.	c #0A0B25",
"-.	c #4E7245",
";.	c #467A47",
">.	c #060327",
",.	c #212430",
"'.	c #CAB479",
").	c #F8EDBE",
"!.	c #F3DC88",
"~.	c #443C3B",
"{.	c #040E29",
"].	c #2B3937",
"^.	c #8FCA5F",
"/.	c #54BE57",
"(.	c #2E5A5B",
"_.	c #386981",
":.	c #407C92",
"<.	c #445B81",
"[.	c #353D60",
"}.	c #264356",
"|.	c #32536A",
"1.	c #313A5F",
"2.	c #2F4541",
"3.	c #213E35",
"4.	c #0C1228",
"5.	c #A9987A",
"6.	c #EBD59D",
"7.	c #C5AD87",
"8.	c #59544F",
"9.	c #0B0B29",
"0.	c #577848",
"a.	c #5BCC5B",
"b.	c #387B59",
"c.	c #3B717D",
"d.	c #3F8298",
"e.	c #3E738B",
"f.	c #3B778B",
"g.	c #3F6784",
"h.	c #465C83",
"i.	c #475680",
"j.	c #3A456E",
"k.	c #16182E",
"l.	c #222533",
"m.	c #847560",
"n.	c #3D3B3E",
"o.	c #716758",
"p.	c #35383F",
"q.	c #10172A",
"r.	c #171D30",
"s.	c #1F2832",
"t.	c #4AB052",
"u.	c #3D7C62",
"v.	c #30535E",
"w.	c #3C718A",
"x.	c #416786",
"y.	c #43597E",
"z.	c #3E466E",
"A.	c #292B4F",
"B.	c #2A3150",
"C.	c #273351",
"D.	c #12162E",
"E.	c #171B2D",
"F.	c #181D2F",
"G.	c #0B1329",
"H.	c #34313E",
"I.	c #2D2D39",
"J.	c #071127",
"K.	c #151628",
"L.	c #448183",
"M.	c #35666A",
"N.	c #33704F",
"O.	c #385E5E",
"P.	c #274C5E",
"Q.	c #437E97",
"R.	c #353F62",
"S.	c #212640",
"T.	c #1C2638",
"U.	c #205136",
"V.	c #278341",
"W.	c #459147",
"X.	c #3F7D46",
"Y.	c #0F162C",
"Z.	c #171D2F",
"`.	c #876E65",
" +	c #51484B",
".+	c #1A1E2E",
"++	c #417E85",
"@+	c #4D9FA5",
"#+	c #458E99",
"$+	c #3B7F91",
"%+	c #408EA0",
"&+	c #356278",
"*+	c #181D2E",
"=+	c #2B424A",
"-+	c #3B8D5A",
";+	c #3CC953",
">+	c #3ABF56",
",+	c #4BC257",
"'+	c #91E665",
")+	c #558C4C",
"!+	c #12152C",
"~+	c #141B2D",
"{+	c #7F6A61",
"]+	c #594E4E",
"^+	c #000B25",
"/+	c #171729",
"(+	c #35666D",
"_+	c #4495A4",
":+	c #3D869A",
"<+	c #3E8799",
"[+	c #3F899B",
"}+	c #1F3949",
"|+	c #1D2935",
"1+	c #395F5E",
"2+	c #44836A",
"3+	c #2E7649",
"4+	c #1F4836",
"5+	c #173B34",
"6+	c #3C8A49",
"7+	c #6EDC60",
"8+	c #27513B",
"9+	c #13162C",
"0+	c #151B2D",
"a+	c #30293C",
"b+	c #2F2D3A",
"c+	c #141F2E",
"d+	c #14182A",
"e+	c #22283F",
"f+	c #304F65",
"g+	c #397186",
"h+	c #3E8598",
"i+	c #408499",
"j+	c #26344D",
"k+	c #18222F",
"l+	c #406E67",
"m+	c #42716A",
"n+	c #314A53",
"o+	c #324F55",
"p+	c #1D2337",
"q+	c #12172B",
"r+	c #184337",
"s+	c #2E8B48",
"t+	c #204838",
"u+	c #1D2731",
"v+	c #60884B",
"w+	c #203133",
"x+	c #2A7E46",
"y+	c #151F28",
"z+	c #2C455F",
"A+	c #3D6F88",
"B+	c #3A6C83",
"C+	c #3E7990",
"D+	c #3E7C91",
"E+	c #406383",
"F+	c #273149",
"G+	c #2F524F",
"H+	c #43776B",
"I+	c #44796D",
"J+	c #407265",
"K+	c #1C2B36",
"L+	c #16112C",
"M+	c #17202F",
"N+	c #171F2F",
"O+	c #110428",
"P+	c #23613E",
"Q+	c #88ED66",
"R+	c #76A555",
"S+	c #1B3D36",
"T+	c #161E2D",
"U+	c #16283A",
"V+	c #1D3748",
"W+	c #3C8293",
"X+	c #4293A4",
"Y+	c #4191A2",
"Z+	c #42748F",
"`+	c #404D75",
" @	c #313B5B",
".@	c #304852",
"+@	c #407065",
"@@	c #344B5C",
"#@	c #1B2038",
"$@	c #141A29",
"%@	c #1E4237",
"&@	c #38B952",
"*@	c #3FB151",
"=@	c #171D2E",
"-@	c #171C2F",
";@	c #292732",
">@	c #2C414F",
",@	c #2A5467",
"'@	c #2A5164",
")@	c #284E60",
"!@	c #343F61",
"~@	c #3F4D75",
"{@	c #384871",
"]@	c #34426C",
"^@	c #2B3E50",
"/@	c #28334E",
"(@	c #364163",
"_@	c #1B2337",
":@	c #13142B",
"<@	c #15172D",
"[@	c #1F4337",
"}@	c #183132",
"|@	c #151A2E",
"1@	c #191D2D",
"2@	c #544A48",
"3@	c #66554C",
"4@	c #866C54",
"5@	c #755D4F",
"6@	c #927859",
"7@	c #6F6052",
"8@	c #494047",
"9@	c #50474B",
"0@	c #49434A",
"a@	c #4C4349",
"b@	c #6F5B53",
"c@	c #4F474B",
"d@	c #3C3843",
"e@	c #1C4A36",
"f@	c #1B2A32",
"g@	c #151D2E",
"h@	c #17172E",
"i@	c #675455",
"j@	c #1C202F",
"k@	c #1F2941",
"l@	c #2D4469",
"m@	c #2E3A58",
"n@	c #3E455B",
"o@	c #39415A",
"p@	c #373F57",
"q@	c #343A54",
"r@	c #3E3B45",
"s@	c #33313C",
"t@	c #36343D",
"u@	c #464046",
"v@	c #1D2031",
"w@	c #182430",
"x@	c #309049",
"y@	c #1B3333",
"z@	c #181F2F",
"A@	c #393840",
"B@	c #151425",
"C@	c #2B4F63",
"D@	c #336073",
"E@	c #3E778E",
"F@	c #3C738E",
"G@	c #405A80",
"H@	c #404E79",
"I@	c #42517B",
"J@	c #425179",
"K@	c #304067",
"L@	c #353442",
"M@	c #6A5956",
"N@	c #191F30",
"O@	c #5F4E51",
"P@	c #31413D",
"Q@	c #193332",
"R@	c #161E2F",
"S@	c #131526",
"T@	c #172132",
"U@	c #172334",
"V@	c #1E273D",
"W@	c #212941",
"X@	c #222A41",
"Y@	c #1D2439",
"Z@	c #474045",
"`@	c #2B2B38",
" #	c #10172B",
".#	c #31313B",
"+#	c #37313D",
"@#	c #161C2E",
"##	c #161A2C",
"$#	c #141A2B",
"%#	c #151A2C",
"&#	c #0E162A",
"*#	c #13192C",
"=#	c #11192C",
"-#	c #10182B",
";#	c #161C2F",
">#	c #161D2F",
"                                                                                                                                ",
"                                                                                                                                ",
"                                                                                                                                ",
"                                                                                                                                ",
"                                                                                                                                ",
"                                                                                                                                ",
"                                                                                                                                ",
"                                                                                                                                ",
"                                                                                                                                ",
"                                                                                                                                ",
"                                                                                                                                ",
"                                                                                                                                ",
"                                                                                                                                ",
"                                                                                                                                ",
"                                                                                                                                ",
"                                                                                                                                ",
"                                      . +     @ #                                                                               ",
"                                    $ % &                                                                                       ",
"                                    $ * &   =                                                                                   ",
"                                    - ; + > , ' ) -                                                                             ",
"                                    - ! - ~ { ] ^ / (                                                                           ",
"                                    - - _ : < [ } |                                                                             ",
"                                        _ 1 2 3 4 5 6     7 8 9                                                                 ",
"                                          0 a b c d e     f g h i j                                                             ",
"                                          k l m n o p   q r s t u v w     x y z                                                 ",
"                                        A B C D E F G H I J K L M N O P Q R S T                                                 ",
"                                        U V W X Y Z `  ...+.@.#.$.%.&.*.=.-.;.>.                                                ",
"                                        ,.'.).!.~.{.].^./.(._.:.<.[.}.|.1.2.3.                                                  ",
"                                        4.5.6.7.8.  9.0.a.b.c.d.e.f.g.h.i.j.k.                                                  ",
"                                        l.m.n.o.p.q.r.s.t.u.v.w.x.y.z.A.B.C.D.E.                                                ",
"                                        F.G.H.I.J.K.L.M.N.O.P.Q.R.S.T.U.V.W.X.Y.                                                ",
"                                          Z.`. +  .+++@+#+$+%+&+*+=+-+;+>+,+'+)+!+                                              ",
"                                          ~+{+]+^+/+(+_+:+<+[+}+|+1+2+3+4+5+6+7+8+9+                                            ",
"                                          0+a+b+c+d+e+f+g+h+i+j+k+l+m+n+o+p+q+r+s+t+                                            ",
"                                          u+v+w+x+y+z+A+B+C+D+E+F+G+H+I+J+K+  L+M+N+                                            ",
"                                        O+P+Q+R+S+T+U+V+W+X+Y+Z+`+ @.@+@@@#@$@                                                  ",
"                                          %@&@*@=@-@;@>@,@'@)@!@~@{@]@^@/@(@_@:@                                                ",
"                                          <@[@}@|@1@2@3@4@5@6@7@8@9@0@a@b@c@d@e@f@                                              ",
"                                          g@h@i@j@k@l@m@n@o@n@p@q@r@s@t@u@v@w@x@y@                                              ",
"                                            z@A@B@C@D@E@F@G@H@I@J@K@L@M@N@O@P@Q@                                                ",
"                                                  R@S@T@U@V@W@X@Y@r.Z@`@ #.#+#                                                  ",
"                                                @#@#Z.P ##$#$#$#%#@#&#*#Z.=#-#Q                                                 ",
"                                              @#@#@#@#@#@#;#>#>#@#@#F.=@@#=@Z.@#                                                ",
"                                                @#@#@#@#@#@#@#@#@#@#@#@#@#@#@#@#                                                ",
"                                                                                                                                ",
"                                                                                                                                ",
"                                                                                                                                ",
"                                                                                                                                ",
"                                                                                                                                ",
"                                                                                                                                ",
"                                                                                                                                ",
"                                                                                                                                ",
"                                                                                                                                ",
"                                                                                                                                ",
"                                                                                                                                ",
"                                                                                                                                ",
"                                                                                                                                ",
"                                                                                                                                ",
"                                                                                                                                ",
"                                                                                                                                ",
"                                                                                                                                ",
"                                                                                                                                ",
"                                                                                                                                ",
"                                                                                                                                "};
