/* XPM */
static char *result[] = {
/* columns rows colors chars-per-pixel */
"64 64 220 2 ",
"   c #00970052004E",
".  c #0B16024E022F",
"X  c #0166093804C3",
"o  c #0C030962052E",
"O  c #0289051308B8",
"+  c #0BFC04270961",
"@  c #0322099E0D22",
"#  c #0B7A0B2A0B66",
"$  c #145700DD0149",
"%  c #1CDF0162023D",
"&  c #140703A10B4B",
"*  c #1943048E0E27",
"=  c #139F0CFD072C",
"-  c #0CEA10BE0E8F",
";  c #143611AE0C2E",
":  c #196313A80D79",
">  c #05300CFE1304",
",  c #0A100C59118A",
"<  c #180708CD1456",
"1  c #0DCF0FFD1490",
"2  c #0B3612581A7E",
"3  c #0A7114E41699",
"4  c #145A1398143F",
"5  c #17D115EA1342",
"6  c #1C10195314DE",
"7  c #172B188518DE",
"8  c #1B271AAB19EE",
"9  c #150215801941",
"0  c #2404015901D6",
"q  c #2C0702260492",
"w  c #2A7D01020E8A",
"e  c #32620376050C",
"r  c #382704C30A8E",
"t  c #29BC07321702",
"y  c #350A0AD11E82",
"u  c #1FE81D0C18E4",
"i  c #2475224B1EC6",
"p  c #0C191D422AC8",
"a  c #06A3155B2209",
"s  c #19BE1CAD2BF2",
"d  c #187518622482",
"f  c #3C180B8A220A",
"g  c #3A000E182817",
"h  c #329D1C963EEB",
"j  c #1C8D200423B8",
"k  c #1456202E2F3C",
"l  c #0D8322E53358",
"z  c #0992264C3AC1",
"x  c #1023242D3375",
"c  c #1CB322E233E4",
"v  c #190325DB3AA8",
"b  c #1B0229F83BD1",
"n  c #1200284A3BCD",
"m  c #22F922C922DF",
"M  c #281226B125FC",
"N  c #2D002CCC2C8F",
"B  c #27F927DE27E0",
"V  c #31972F7B2DC9",
"C  c #2ABF2D5D30B4",
"Z  c #239B2E673947",
"A  c #2F7030753267",
"S  c #32D232A7335C",
"D  c #367C38953A2C",
"F  c #3A373A633AF7",
"G  c #33EF362B3C63",
"H  c #390723513378",
"J  c #49C402850389",
"K  c #478A048D0547",
"L  c #542C05E707DD",
"P  c #5C3404C40561",
"I  c #468C058C1D76",
"U  c #6D4408E50A6F",
"Y  c #64B608350A14",
"T  c #7A690328028B",
"R  c #6D4F000017A4",
"E  c #786005221495",
"W  c #6A8014021EE8",
"Q  c #45D50C9B2720",
"!  c #4A250A8D2514",
"~  c #541511DE319B",
"^  c #5CFF119E3508",
"/  c #5B6716513D4D",
"(  c #585E084D216C",
")  c #66AF04B32851",
"_  c #6C1615053D84",
"`  c #65B9142739CF",
"'  c #6FF415F23FA8",
"]  c #758303172247",
"[  c #0EE52E8343AE",
"{  c #15F62EFA4307",
"}  c #046033914955",
"|  c #1AD3368A4D83",
" . c #164D328248AF",
".. c #1C6C3AA4549A",
"X. c #1A983D185953",
"o. c #15583AA253EA",
"O. c #0C883B0B513C",
"+. c #23392B65417D",
"@. c #2778338D4AD6",
"#. c #399A3CB24491",
"$. c #35D53A5C472C",
"%. c #2ACC3A9E55C4",
"&. c #316737B657C7",
"*. c #59701D1A437C",
"=. c #79A41A104601",
"-. c #57A829CA5582",
";. c #5E3733C65F8D",
":. c #643D23D547AC",
">. c #7885264F503C",
",. c #51FF3AC462D9",
"<. c #6A963D056C02",
"1. c #3CF540C34BF0",
"2. c #25163FE35D26",
"3. c #1EF24F9072C5",
"4. c #0B504D346D99",
"5. c #24A24AE36C51",
"6. c #288F48976BBB",
"7. c #320D46BD697A",
"8. c #3788463C6779",
"9. c #25404E7770FA",
"0. c #38C14DFD74D1",
"q. c #295E55767C37",
"w. c #25AD56037B2C",
"e. c #3EC85097775D",
"r. c #374655257AD2",
"t. c #42774B6763BB",
"y. c #4D71440D6F49",
"u. c #4D73413D72EA",
"i. c #542344CD7523",
"p. c #4938560C75B1",
"a. c #4CB84B276D5D",
"s. c #83A00000027C",
"d. c #890E078C0AC1",
"f. c #99FC065B09A2",
"g. c #88DE09BF12B4",
"h. c #95AA00001473",
"j. c #A44305FC0E87",
"k. c #AA0A0B531914",
"l. c #A05A100216CA",
"z. c #8EC8104E2B3B",
"x. c #A7D113FA2449",
"c. c #96AB1FBB3D2C",
"v. c #85D31B054C83",
"b. c #95081DFB5527",
"n. c #85AF26E853FD",
"m. c #2A645BF08520",
"M. c #37885B7884E4",
"N. c #18C062B18DD5",
"B. c #2C7560238C7F",
"V. c #343762DB8D5F",
"C. c #2CFE68DC974C",
"Z. c #319C6BFE9D94",
"A. c #340866B1946C",
"S. c #2CB06FE9A130",
"D. c #310F6F43A387",
"F. c #3B366EC6A099",
"G. c #373675BBAAA2",
"H. c #3BD77FD9B8A9",
"J. c #3AAB7E50B6ED",
"K. c #5D1D4F6B832E",
"L. c #4ADF5A86847D",
"P. c #4DC05C7A8CDE",
"I. c #470158A887F1",
"U. c #5234561286C6",
"Y. c #5BE755E1919A",
"T. c #637357E68B95",
"R. c #4ADF6AFE9E47",
"E. c #4873651F957E",
"W. c #52A164B59658",
"Q. c #4DA261AA8C95",
"!. c #453F6D40A473",
"~. c #4A9C6DAAA410",
"^. c #558F6D9AA46D",
"/. c #4B5171AEA520",
"(. c #4B6075F5AE34",
"). c #44A27706AC80",
"_. c #5154727CA8B8",
"`. c #4AD67CAEB5FA",
"'. c #47CB7A78B5E8",
"]. c #544D79A3B67D",
"[. c #3CDD8237BC50",
"{. c #37A582AABB3A",
"}. c #49E78389BDEB",
"|. c #45F081DABADF",
" X c #570D823BBEAF",
".X c #3D70883CC5D7",
"XX c #3F3C9E8CE250",
"oX c #3DE1A412E716",
"OX c #3CB9A752EB49",
"+X c #432C85FEC26E",
"@X c #43D28921C661",
"#X c #4C6B8838C5FD",
"$X c #44398CDDCC0F",
"%X c #4D538B70CC2D",
"&X c #4EF385ACC65B",
"*X c #525C859DC2E1",
"=X c #5A3B8485C200",
"-X c #53778988C9FA",
";X c #47329078CEFA",
":X c #481A8F78D0C0",
">X c #43669276D3A7",
",X c #4ADC9308D5AD",
"<X c #4AD4971ADA2C",
"1X c #4AA89977DDC3",
"2X c #418E993DDC58",
"3X c #58CE9206D664",
"4X c #60E1888BD1EB",
"5X c #4CD79CC8E37A",
"6X c #51B29D05E567",
"7X c #56FF9BFFE73A",
"8X c #4D06A2C0EAE4",
"9X c #4889A355E9F4",
"0X c #5C91A346EDF7",
"qX c #5AC9A61EF2C8",
"wX c #52FEA964F57E",
"eX c #5632A9A3F67A",
"rX c #5A4FB636FFFF",
"tX c #5625B269FFFF",
"yX c #6260A1D5EC14",
"uX c None",
/* pixels */
"uXuXuXuXuXuXuXuXuXuXuXuXuXuXuXuXuXuXuXuXuXuXuXuXuXuXuXuXuXuXuXuXuXuXuXuXuXuXuXuXuXuXuXuXuXuXuXuXuXuXuXuXuXuXuXuXuXuXuXuXuXuXuXuX",
"uXuXuXuXuXuXuXuXuXuXuXuXuXuXuXuXuXuXuXuXuXuXuXuXuXuXuXuXuXuXuXuXuXuXuXuXuXuXuXuXuXuXuXuXuXuXuXuXuXuXuXuXuXuXuXuXuXuXuXuXuXuXuXuX",
"uXuXuXuXuXuXuXuXuXuXuXuXuXuXuXuXuXuXuXuXuXuXuXuXuXuXuXuXuXuXuXuXuXuXuXuXuXuXuXuXuXuXuXuXuXuXuXuXuXuXuXuXuXuXuXuXuXuXuXuXuXuXuXuX",
"uXuXuXuXuXuXuXuXuXuXuXuXuXuXuXuXuXuXuXuXuXuXuXuXuXuXuXuXuXuXuXuXuXuXuXuXuXuXuXuXuXuXuXuXuXuXuXuXuXuXuXuXuXuXuXuXuXuXuXuXuXuXuXuX",
"uXuXuXuXuXuXuXuXuXuXuXuXuXuXuXuXuXuXuXuXuXuXuXuXuXuXuXuXuXuXuXuXuXuXuXuXuXuXuXuXuXuXuXuXuXuXuXuXuXuXuXuXuXuXuXuXuXuXuXuXuXuXuXuX",
"uXuXuXuXuXuXuXuXuXuXuXuXuXuXuXuXuXuXuXuXuXuXuXuXuXuXuXuXuXuXuXuXuXuXuXuXuXuXuXuXuXuXuXuXuXuXuXuXuXuXuXuXuXuXuXuXuXuXuXuXuXuXuXuX",
"uXuXuXuXuXuXuXuXuXuXuXuXuXuXuXuXuXuXuXuXuXuXuXuXuXuXuXuXuXuXuXuXuXuXuXuXuXuXuXuXuXuXuXuXuXuXuXuXuXuXuXuXuXuXuXuXuXuXuXuXuXuXuXuX",
"uXuXuXuXuXuXuXuXuXuXuXuX          uXuXuXuXuXuXuXuXuXuXuXuXuXuXuXuXuXuXuXuXuXuXuXuXuXuXuXuXuXuX          uXuXuXuXuXuXuXuXuXuXuXuX",
"uXuXuXuXuXuXuXuXuXuXuX            uXuXuXuXuXuXuXuXuXuXuXuXuXuXuXuXuXuXuXuXuXuXuXuXuXuXuXuXuXuX            uXuXuXuXuXuXuXuXuXuXuX",
"uXuXuXuXuXuXuXuXuXuXuX    . . $ % $ uXuXuXuXuXuXuXuXuXuXuXuXuXuXuXuXuXuXuXuXuXuXuXuXuXuXuXuX$ % $ . .     uXuXuXuXuXuXuXuXuXuXuX",
"uXuXuXuXuXuXuXuXuXuX      $ e K L r $ uXuXuXuXuXuXuXuX    uXuXuXuXuXuX    uXuXuXuXuXuXuXuX$ r K K e $       uXuXuXuXuXuXuXuXuXuX",
"uXuXuXuXuXuXuXuXuXuX      0 L d.d.L %     uXuXuXuXuX                        uXuXuXuXuX  X 0 P d.d.L 0       uXuXuXuXuXuXuXuXuXuX",
"uXuXuXuXuXuXuXuXuXuXuX    e U j.l.U q X   uXuXuXuX            O               uXuXuXuX    q U l.l.U q     uXuXuXuXuXuXuXuXuXuXuX",
"uXuXuXuXuXuXuXuXuXuXuX    q Y g.d.U K 0 $   uXuXuXz n l l l p p p l l x x x z uXuXuX  $ 0 K U g.d.Y q     uXuXuXuXuXuXuXuXuXuXuX",
"uXuXuXuXuXuXuXuXuXuXuXuXuX% e K L Y Y P J 0   @ } 4.w.m.m.9.5.5.6.6.9.w.B.w.4.} @   0 J P Y Y L K e 0 uXuXuXuXuXuXuXuXuXuXuXuXuX",
"uXuXuXuXuXuXuXuXuXuXuXuXuXuX  . 0 L E d.T K   > } N.{..X$X[.G.D.G.G.|.;X$X{.N.} @   K T g.g.K 0 .   uXuXuXuXuXuXuXuXuXuXuXuXuXuX",
"uXuXuXuXuXuXuXuXuXuXuXuXuXuX      K g.k.f.P % O [ M.%XqXqX6X5X5X2X5X7XqXqX%XB.[ O 0 P f.k.g.r .     uXuXuXuXuXuXuXuXuXuXuXuXuXuX",
"uXuXuXuXuXuXuXuXuXuXuXuXuXuX      w ] h.j.T J r H y.^.4X7X6X5XwX8X8X7X7X4X^.a.H r J T j.l.E r       uXuXuXuXuXuXuXuXuXuXuXuXuXuX",
"uXuXuXuXuXuXuXuXuXuXuXuXuXuX    O t ( z.z.g.T U W :.<.Y.].&X5X9X9X5X%X(.Y.<._ W U T h.z.z.( t       uXuXuXuXuXuXuXuXuXuXuXuXuXuX",
"uXuXuXuXuXuXuXuXuXuXuXuXuXuX    . < Q ` z.x.l.j.d.E ` -.U.'..XOXOX.X).U.-.` E f.f.l.z.z.*.g < +     uXuXuXuXuXuXuXuXuXuXuXuXuXuX",
"uXuXuXuXuXuXuXuXuXuXuXuXuXuX    + < h -.>.c.x.j.j.s.R / u.!..XoXOX2X!.,./ R s.f.k.x.c.>.-.h < +     uXuXuXuXuXuXuXuXuXuXuXuXuXuX",
"uXuXuXuXuXuXuXuXuXuXuXuXuXuX    @ s &.u.<.n.c.h.s.s.R ` u./.2XOXOX.XG.K.*.R s.f.h.z.n.<.y.&.k @     uXuXuXuXuXuXuXuXuXuXuXuXuXuX",
"uXuXuXuXuXuXuXuXuXuXuXuXuXuX    > v 7.Q.T.<.' E E E ) *.K.(.>XOXXX5X(.i.:.) R E E =.<.T.Q.7.v #     uXuXuXuXuXuXuXuXuXuXuXuXuXuX",
"uXuXuXuXuXuXuXuXuXuXuXuXuXuX    , { r./.^.K.-./ ) ) :.;.U.'.>XoXOX.X'.Y.;.` ) ) ^ ;.T.^./.r.{ >     uXuXuXuXuXuXuXuXuXuXuXuXuXuX",
"uXuXuXuXuXuXuXuXuXuXuXuXuXuX    , | V.`. XW.y.-./ *.-.i.P.`.>XXXXX.X'.W.,.-.*.*.-.y.W.].|.V.| >     uXuXuXuXuXuXuXuXuXuXuXuXuXuX",
"uXuXuXuXuXuXuX.                 > ..A.@X%X].P.y.,.,.i.U.~.|.>X2XXX2X'.~.Y.u.,.,.y.P.].*X@XA...>                 . uXuXuXuXuXuXuX",
"uXuXuXuXuXuXuX        X         > ..Z.$X,X*X/.Q.L.L.Q.R.(.|.$X>X>X$X+X(.R.Q.P.L.Q./.#X,X$XZ...>         X         uXuXuXuXuXuXuX",
"uXuXuXuXuXuXuX    O + & & . .   > X.S.;X1X%X`././._.|.}.@X$X>X>X>X$X$X@X}.`.(././.|.%X1X;XD.X.>     . & < +       uXuXuXuXuXuXuX",
"uXuXuXuXuXuXuXuX  + t g f w $   > O.S..X9X,X+X|.}.%X<X<X<X,X>X$X.X;X>X<X1X<X%X}.|.+X<X5X.XS.O.> . $ w y f t +   uXuXuXuXuXuXuXuX",
"uXuXuXuXuXuXuXuXuXuX~ ^ ~ y % . > O.S.$X1X<X$X@X;X<X1X9X<X<X>X$X.X>X,X1X5X6X<X;X}.$X<X1X>XS.O.>   0 I ~ / ~ uXuXuXuXuXuXuXuXuXuX",
"uXuXuXuXuXuXuXuXuXuXuXn._ ( 0 . @ O.B.@X8X1X,X@X}.[..X|.@X@X@X$X>X$X@X+X|.[.}..X@X,X6X1X$XC.[ @ . 0 ! _ n.uXuXuXuXuXuXuXuXuXuXuX",
"uXuXuXuXuXuXuXuXuXuXuXuX=.I 0   @ [ V.#X0XqX1X.XG.B.w.q.V.G.}.*X-X}.G.A.q.w.B.G..X1XqX0X#XB.[ @   0 I v.uXuXuXuXuXuXuXuXuXuXuXuX",
"uXuXuXuXuXuXuXuXuXuXuXuXuXr .   @ v r.].yXeX5X.Xm. .p k %.M.].=X=X(.M.%.s p  .m..X5XeXyX].r.v >   . r uXuXuXuXuXuXuXuXuXuXuXuXuX",
"uXuXuXuXuXuXuXuXuXuXuXuXuXuX    @ c 8.~.3XqX5XH.3.p   O B e.^.=X=X_.0.Z .   p 3.H.6X0X3X^.8.c @     uXuXuXuXuXuXuXuXuXuXuXuXuXuX",
"uXuXuXuXuXuXuXuXuXuXuXuXuXuXuX  @ d @.e._.-X,X'.m.z @ + { e._.=X=X_.r.b @ @ z w.H.,X-X_.e.@.s +   uXuXuXuXuXuXuXuXuXuXuXuXuXuXuX",
"uXuXuXuXuXuXuXuXuXuXuXuXuXuXuXuX, 4 d +.7.R.*X&XZ.5.| ..6.A.`.=X=X`.R.5.| | 5.F.*X*XR.7.+.d 1 , uXuXuXuXuXuXuXuXuXuXuXuXuXuXuXuX",
"uXuXuXuXuXuXuXuXuXuXuXuXuXuXuXuXuXuX. > c 8.~. X X).Z.Z.G.H.@X@X#X+XH.G.Z.Z.G.*X X~.7.c >   uXuXuXuXuXuXuXuXuXuXuXuXuXuXuXuXuXuX",
"uXuXuXuXuXuXuXuXuXuXuXuXuXuXuXuXuXuX    1 +.p._.=X,X>X>X>X>X$X$X$X$X:X2X>X,X,X=X_.p.+.,     uXuXuXuXuXuXuXuXuXuXuXuXuXuXuXuXuXuX",
"uXuXuXuXuXuXuXuXuXuXuXuXuXuXuXuXuX    . 1 d @.0.!.%X6X6X5X,X$X|.+X@X,X5X6X6X-X!.0.@.s # .     uXuXuXuXuXuXuXuXuXuXuXuXuXuXuXuXuX",
"uXuXuXuXuXuXuXuXuXuXuXuXuXuXuXuX  . ; 6 7 4 9 v 7.!.-X3X3X#X'.'.'.'.#X3X3X&X!.7.v 9 4 6 6 ; .   uXuXuXuXuXuXuXuXuXuXuXuXuXuXuXuX",
"uXuXuXuXuXuXuXuXuXuXuXuXuXuXuX    ; m N m ;   @ n 0.R.].]._.R.R.~.R._.]. XR.0.v @   ; i C M ;     uXuXuXuXuXuXuXuXuXuXuXuXuXuXuX",
"uXuXuXuXuXuXuXuXuXuXuXuXuXuX@ > 3 s C A i o     d %.p.R.W.Q.L.L.L.I.Q.W.W.p.2.7     o i C C s 2 > O uXuXuXuXuXuXuXuXuXuXuXuXuXuX",
"uXuXuXuXuXuXuXuXuXuXuXuXuXO l  .| @.Z m : o . o j $.8.p.p.t.t.t.8.t.a.p.p.8.$.j o . o : m Z | |  .l O uXuXuXuXuXuXuXuXuXuXuXuXuX",
"uXuXuXuXuXuXuXuXuXuXuX    2 X.m.V.9.n - . . : m A D F 1.1.1.1.#.#.#.1.1.1.#.G C m : . . # b 6.A.m.X.2     uXuXuXuXuXuXuXuXuXuXuX",
"uXuXuXuXuXuXuXuXuXuXuX    n m.$X:XA.z     o i S D A N N N N N N N N N B N N A D S M o     n B.>X$XM.n     uXuXuXuXuXuXuXuXuXuXuX",
"uXuXuXuXuXuXuXuXuXuX  @ x 5.H.wXwXD.z     = V #.D M 6 ; : 6 6 8 u u 6 5 ; 6 M D 1.N =     z D.wXeXH.5.l @   uXuXuXuXuXuXuXuXuXuX",
"uXuXuXuXuXuXuXuX  > p  .9.G.5XrXwXS.z     : V F A 8 o   . o ; ; ; = o .   o 8 A F V =     z Z.wXrX9XG.9. .p @   uXuXuXuXuXuXuXuX",
"uXuXuXuXuXuXuX    > { w.H.5XtXwX$Xm.l   . : V F N 4         O o o X         4 N D V : .   l m.$XeXtX5XJ.q. .>     uXuXuXuXuXuXuX",
"uXuXuXuXuXuXuX    2 ..F.8XrXwX@XB.X.a   . 6 V D A 7 O                     O 7 A D V 6 .   a X.B.$XwXrX6XZ.%.2     uXuXuXuXuXuXuX",
"uXuXuXuXuXuXuX    2 2.).0XqX}.m.o.p @   o u V D S M 4 #               O + 4 M S D V 6 o   @ p o.m.|.qX0XG.6.2     uXuXuXuXuXuXuX",
"uXuXuXuXuXuXuX    2 %./.4X*XM.{ 2       + 8 V D F S M 7 #             o 7 M D F F V 8 ;       2 { r.*X3X/.%.2     uXuXuXuXuXuXuX",
"uXuXuXuXuXuXuX    > %.I.^.I.%.,         1 i A D F D A m 4 O         X 4 m A F F D N m ,         1 %.I.^.I.@.2     uXuXuXuXuXuXuX",
"uXuXuXuXuXuXuX    # c &.8.8.j           1 m S F F D N m 8 4 # o o # 4 8 m N S F F S m 1           c &.8.&.c #     uXuXuXuXuXuXuX",
"uXuXuXuXuXuXuX    O 2 s c c 9 uXuX      - i S F S M 8 6 7 8 i m j m 8 4 7 8 M S F S m ;       uXuX4 s Z s 2 O     uXuXuXuXuXuXuX",
"uXuXuXuXuXuXuX      O @ , , uXuXuXuX    # m S S B 5 o + 4 m C S S N M 4 + o 4 B S S j #     uXuXuXuX, , # O O     uXuXuXuXuXuXuX",
"uXuXuXuXuXuXuXO             uXuXuXuX    o 6 B B 8 O     # m S D D S m #     O 8 B B 8 +     uXuXuXuX              uXuXuXuXuXuXuX",
"uXuXuXuXuXuXuXuXO         uXuXuXuXuX    O - 4 3 @       X 7 M V V B 7 X       @ 3 7 - X     uXuXuXuXuX        O uXuXuXuXuXuXuXuX",
"uXuXuXuXuXuXuXuXuXuXuXuXuXuXuXuXuXuX        X X         O o 4 7 7 4 #           X X X       uXuXuXuXuXuXuXuXuXuXuXuXuXuXuXuXuXuX",
"uXuXuXuXuXuXuXuXuXuXuXuXuXuXuXuXuXuX                                                        uXuXuXuXuXuXuXuXuXuXuXuXuXuXuXuXuXuX",
"uXuXuXuXuXuXuXuXuXuXuXuXuXuXuXuXuXuX    . . + & * * * & .             . & * * * & + .       uXuXuXuXuXuXuXuXuXuXuXuXuXuXuXuXuXuX",
"uXuXuXuXuXuXuXuXuXuXuXuXuXuXuXuXuXuX    + * w y Q Q f y * .         . * y f Q Q f t * .     uXuXuXuXuXuXuXuXuXuXuXuXuXuXuXuXuXuX",
"uXuXuXuXuXuXuXuXuXuXuXuXuXuXuXuXuXuX    & t Q ` _ _ ~ Q t +         + t Q ~ _ _ ^ Q t &     uXuXuXuXuXuXuXuXuXuXuXuXuXuXuXuXuXuX",
"uXuXuXuXuXuXuXuXuXuXuXuXuXuXuXuXuXuX    & y ~ =.v.v.' ~ y &         & y ~ ' v.v.=.~ y *     uXuXuXuXuXuXuXuXuXuXuXuXuXuXuXuXuXuX",
"uXuXuXuXuXuXuXuXuXuXuXuXuXuXuXuXuXuX    * f ` v.b.b.=.` f *         * y ` =.b.b.v.` f *     uXuXuXuXuXuXuXuXuXuXuXuXuXuXuXuXuXuX"
};
