/* XPM */
static char * i4_xpm[] = {
"64 64 379 2",
"  	c None",
". 	c #9A7266",
"+ 	c #AF7D64",
"@ 	c #A77965",
"# 	c #A07566",
"$ 	c #D5925F",
"% 	c #D9955F",
"& 	c #A67865",
"* 	c #C78A61",
"= 	c #CC8D60",
"- 	c #DB955F",
"; 	c #D9945F",
"> 	c #D89160",
", 	c #DA965F",
"' 	c #A17566",
") 	c #A67965",
"! 	c #D19060",
"~ 	c #DA955F",
"{ 	c #D9935F",
"] 	c #ECC151",
"^ 	c #DFA35B",
"/ 	c #D79060",
"( 	c #9C7366",
"_ 	c #9F7566",
": 	c #D8935F",
"< 	c #D6935E",
"[ 	c #D8925F",
"} 	c #E3AB58",
"| 	c #F5D64B",
"1 	c #DFA25B",
"2 	c #DB9162",
"3 	c #E4AF57",
"4 	c #E8B655",
"5 	c #DB995D",
"6 	c #111124",
"7 	c #C07F5D",
"8 	c #F3C951",
"9 	c #F6DA49",
"0 	c #D78F61",
"a 	c #191F2F",
"b 	c #2E515B",
"c 	c #1D2E3F",
"d 	c #131426",
"e 	c #0E172D",
"f 	c #A17250",
"g 	c #FFE349",
"h 	c #FFF647",
"i 	c #906B4B",
"j 	c #161A2C",
"k 	c #53A5A2",
"l 	c #3D8191",
"m 	c #1B293A",
"n 	c #151A2C",
"o 	c #06142A",
"p 	c #6B4D49",
"q 	c #EEB94F",
"r 	c #FFFFAE",
"s 	c #F4CE66",
"t 	c #322731",
"u 	c #16182A",
"v 	c #37656A",
"w 	c #4D9FA5",
"x 	c #55AEAC",
"y 	c #426781",
"z 	c #1B1C34",
"A 	c #141A2A",
"B 	c #131929",
"C 	c #13152C",
"D 	c #3F333A",
"E 	c #DD9649",
"F 	c #FBEC92",
"G 	c #FFFFD8",
"H 	c #B18A46",
"I 	c #142433",
"J 	c #264939",
"K 	c #13132A",
"L 	c #488C8F",
"M 	c #4597A3",
"N 	c #48778B",
"O 	c #303758",
"P 	c #2B5969",
"Q 	c #375C77",
"R 	c #242944",
"S 	c #14192B",
"T 	c #182431",
"U 	c #1D2C32",
"V 	c #222D33",
"W 	c #151B2E",
"X 	c #061129",
"Y 	c #977555",
"Z 	c #FFE78F",
"` 	c #FBF783",
" .	c #EBC759",
"..	c #3A3234",
"+.	c #71AA56",
"@.	c #94D963",
"#.	c #439348",
"$.	c #245153",
"%.	c #407993",
"&.	c #3D6985",
"*.	c #367585",
"=.	c #40738D",
"-.	c #3D4B71",
";.	c #2B3551",
">.	c #171A32",
",.	c #1C4435",
"'.	c #3D914A",
").	c #3D4F3D",
"!.	c #151C2E",
"~.	c #1C1F2F",
"{.	c #6B6355",
"].	c #E9DCAE",
"^.	c #FFF5B2",
"/.	c #6C6151",
"(.	c #000B27",
"_.	c #1F2832",
":.	c #37423B",
"<.	c #68CF5B",
"[.	c #338156",
"}.	c #2F4C5E",
"|.	c #3D7B90",
"1.	c #415F81",
"2.	c #3F4D74",
"3.	c #2E586B",
"4.	c #2F6675",
"5.	c #3E5F7F",
"6.	c #323A5B",
"7.	c #15212F",
"8.	c #0B0929",
"9.	c #726658",
"0.	c #D7BE8C",
"a.	c #998A6F",
"b.	c #746D60",
"c.	c #14172C",
"d.	c #1A172B",
"e.	c #54AF52",
"f.	c #3A985F",
"g.	c #3C5F62",
"h.	c #3C7E90",
"i.	c #3E8396",
"j.	c #3E8295",
"k.	c #447793",
"l.	c #446184",
"m.	c #414D76",
"n.	c #44517C",
"o.	c #222941",
"p.	c #0D152A",
"q.	c #56504B",
"r.	c #35333A",
"s.	c #3A393D",
"t.	c #38383F",
"u.	c #0E1428",
"v.	c #1D2C3A",
"w.	c #26374B",
"x.	c #2D7037",
"y.	c #419261",
"z.	c #283744",
"A.	c #336D7F",
"B.	c #43718E",
"C.	c #41577C",
"D.	c #313359",
"E.	c #20213F",
"F.	c #222E42",
"G.	c #243243",
"H.	c #131F33",
"I.	c #12152B",
"J.	c #081128",
"K.	c #383440",
"L.	c #4E444A",
"M.	c #131B2E",
"N.	c #0D091E",
"O.	c #5AB2B1",
"P.	c #398071",
"Q.	c #41837F",
"R.	c #316072",
"S.	c #40899C",
"T.	c #334666",
"U.	c #1A1C33",
"V.	c #243B42",
"W.	c #297440",
"X.	c #33A24A",
"Y.	c #34AC4D",
"Z.	c #59AE53",
"`.	c #2F4F3B",
" +	c #0E122B",
".+	c #171D2E",
"++	c #584C4F",
"@+	c #93786A",
"#+	c #202835",
"$+	c #080218",
"%+	c #37646A",
"&+	c #5CBDB8",
"*+	c #4E9EA8",
"=+	c #4591A0",
"-+	c #4290A2",
";+	c #356A7D",
">+	c #243540",
",+	c #2D4A4D",
"'+	c #43786A",
")+	c #3DBE58",
"!+	c #39B552",
"~+	c #32A84F",
"{+	c #5CC95A",
"]+	c #91DA63",
"^+	c #273B36",
"/+	c #453E46",
"(+	c #8D7467",
"_+	c #1C1930",
":+	c #101027",
"<+	c #213240",
"[+	c #3E7F89",
"}+	c #3B8294",
"|+	c #3C8596",
"1+	c #4191A2",
"2+	c #274D5E",
"3+	c #161A29",
"4+	c #375D5C",
"5+	c #42736A",
"6+	c #346854",
"7+	c #1B3533",
"8+	c #181D2F",
"9+	c #184938",
"0+	c #63D15C",
"a+	c #517B48",
"b+	c #0A0929",
"c+	c #13192C",
"d+	c #232634",
"e+	c #282538",
"f+	c #214F3A",
"g+	c #192B31",
"h+	c #16172D",
"i+	c #2F405E",
"j+	c #3D607D",
"k+	c #3F6E89",
"l+	c #3F758E",
"m+	c #3A5273",
"n+	c #1B1F35",
"o+	c #39635D",
"p+	c #467A6F",
"q+	c #395D5D",
"r+	c #3E6764",
"s+	c #2A444A",
"t+	c #120E28",
"u+	c #193935",
"v+	c #359D4C",
"w+	c #1F4337",
"x+	c #151D2E",
"y+	c #72AF56",
"z+	c #68864C",
"A+	c #2C7B44",
"B+	c #204C38",
"C+	c #191D36",
"D+	c #315A6E",
"E+	c #326074",
"F+	c #408397",
"G+	c #3D7F92",
"H+	c #407F95",
"I+	c #3A4E70",
"J+	c #243142",
"K+	c #375F59",
"L+	c #437669",
"M+	c #407266",
"N+	c #1D2B36",
"O+	c #141B2A",
"P+	c #15112C",
"Q+	c #1A3033",
"R+	c #1B3434",
"S+	c #16232F",
"T+	c #48B654",
"U+	c #6FD05D",
"V+	c #29523C",
"W+	c #11172B",
"X+	c #1C3446",
"Y+	c #39798A",
"Z+	c #4394A5",
"`+	c #418FA1",
" @	c #406F8B",
".@	c #42547A",
"+@	c #414C74",
"@@	c #323D5C",
"#@	c #3F6868",
"$@	c #3C5767",
"%@	c #2C3456",
"&@	c #171D30",
"*@	c #161C2E",
"=@	c #2C8747",
"-@	c #2DAB4E",
";@	c #182F32",
">@	c #16182E",
",@	c #2A2C37",
"'@	c #2E4554",
")@	c #2A5468",
"!@	c #2A5264",
"~@	c #28485D",
"{@	c #363F62",
"]@	c #3A4871",
"^@	c #34456D",
"/@	c #3C4C75",
"(@	c #28334E",
"_@	c #2C3755",
":@	c #384365",
"<@	c #16202F",
"[@	c #1A2B32",
"}@	c #17202F",
"|@	c #1F2733",
"1@	c #1F2133",
"2@	c #171B2B",
"3@	c #544A48",
"4@	c #66544B",
"5@	c #866C54",
"6@	c #765E4F",
"7@	c #8E7558",
"8@	c #5D514B",
"9@	c #4F454B",
"0@	c #51484C",
"a@	c #32313D",
"b@	c #5E504F",
"c@	c #4B4343",
"d@	c #40313F",
"e@	c #366644",
"f@	c #319B4B",
"g@	c #18202F",
"h@	c #11182C",
"i@	c #584B4E",
"j@	c #38343C",
"k@	c #1D2C45",
"l@	c #2D4266",
"m@	c #2D3957",
"n@	c #3E455B",
"o@	c #3A425A",
"p@	c #3D455B",
"q@	c #343D58",
"r@	c #3B3C4D",
"s@	c #3F3A43",
"t@	c #2D2D39",
"u@	c #37343E",
"v@	c #38373F",
"w@	c #16122D",
"x@	c #2B7646",
"y@	c #2E8646",
"z@	c #15152D",
"A@	c #181C2D",
"B@	c #21374A",
"C@	c #3A7083",
"D@	c #417F96",
"E@	c #3C718C",
"F@	c #405A80",
"G@	c #404E79",
"H@	c #43527C",
"I@	c #3D4C74",
"J@	c #293B62",
"K@	c #4B434A",
"L@	c #594C4E",
"M@	c #2C2C38",
"N@	c #2D323A",
"O@	c #13172C",
"P@	c #141628",
"Q@	c #15192B",
"R@	c #182334",
"S@	c #172333",
"T@	c #1E273D",
"U@	c #212940",
"V@	c #1C2236",
"W@	c #171E31",
"X@	c #232534",
"Y@	c #705E59",
"Z@	c #2E2D39",
"`@	c #292A37",
" #	c #3D3740",
".#	c #171D2F",
"+#	c #161A2D",
"@#	c #141A2B",
"##	c #151B2C",
"$#	c #12192C",
"%#	c #151B2D",
"&#	c #1C2031",
"*#	c #0F172B",
"=#	c #161C2F",
"-#	c #161D2F",
"                                                                                                                                ",
"                                                                                                                                ",
"                                                                                                                                ",
"                                                                                                                                ",
"                                                                                                                                ",
"                                                                                                                                ",
"                                                                                                                                ",
"                                                                                                                                ",
"                                                                                                                                ",
"                                                                                                                                ",
"                                                                                                                                ",
"                                                                                                                                ",
"                                                                                                                                ",
"                                                                                                                                ",
"                                                                                                                                ",
"                                                                                                                                ",
"                                    . + @                                                                                       ",
"                                    # $         %                                                                               ",
"                                    & * = - ; % > > ,                                                                           ",
"                                    ' ) ! ~ { ~ ] ^ /                                                                           ",
"                                    ( _ : ~ < [ } | 1                                                                           ",
"                                              2 3 4 5       6                                                                   ",
"                                              7 8 9 0     a b c d                                                               ",
"                                            e f g h i     j k l m n                                                             ",
"                                          o p q r s t   u v w x y z A B     C                                                   ",
"                                          D E F G H I J K L M N O P Q R S T U V W                                               ",
"                                        X Y Z `  ...+.@.#.$.%.&.*.=.-.;.>.,.'.).!.                                              ",
"                                        ~.{.].^./.(._.:.<.[.}.|.1.2.3.4.5.6.7.8.                                                ",
"                                          9.0.a.b.  c.d.e.f.g.h.i.j.k.l.m.n.o.                                                  ",
"                                        p.q.r.s.t.u.v.w.x.y.z.A.B.C.D.E.F.G.H.I.                                                ",
"                                          J.K.L.M.N.v O.P.Q.R.S.T.U.V.W.X.Y.Z.`. +                                              ",
"                                          .+++@+#+$+%+&+*+=+-+;+>+,+'+)+!+~+{+]+^+                                              ",
"                                            /+(+_+:+<+[+}+|+1+2+3+4+5+6+7+8+9+0+a+b+                                            ",
"                                          c+d+e+f+g+h+i+j+k+l+m+n+o+p+q+r+s+t+u+v+w+                                            ",
"                                          x+y+z+A+B+C+D+E+F+G+H+I+J+K+L+M+N+O+P+Q+R+                                            ",
"                                          S+T+U+V+x+W+X+Y+Z+`+ @.@+@@@#@$@%@&@                                                  ",
"                                          *@=@-@;@>@,@'@)@!@~@{@]@^@/@(@_@:@<@[@                                                ",
"                                            }@|@1@2@3@4@5@6@7@8@9@0@a@b@c@d@e@f@g@                                              ",
"                                            h@i@j@k@l@m@n@o@p@q@r@s@t@u@v@w@x@y@z@                                              ",
"                                                A@B@C@D@E@F@G@H@I@J@K@L@M@i@N@O@                                                ",
"                                                  P@Q@R@S@T@o.U@V@W@X@Y@Z@`@ #                                                  ",
"                                                *@.#*@n +#@#@#@###*@$#%#&#h@*#*@                                                ",
"                                              *@*@*@*@*@*@=#-#-#*@*@.+*@%#.+.#*@                                                ",
"                                                *@*@*@*@*@*@*@*@*@*@*@*@*@*@*@*@                                                ",
"                                                                                                                                ",
"                                                                                                                                ",
"                                                                                                                                ",
"                                                                                                                                ",
"                                                                                                                                ",
"                                                                                                                                ",
"                                                                                                                                ",
"                                                                                                                                ",
"                                                                                                                                ",
"                                                                                                                                ",
"                                                                                                                                ",
"                                                                                                                                ",
"                                                                                                                                ",
"                                                                                                                                ",
"                                                                                                                                ",
"                                                                                                                                ",
"                                                                                                                                ",
"                                                                                                                                ",
"                                                                                                                                ",
"                                                                                                                                "};
