/* XPM */
static char *result[] = {
/* columns rows colors chars-per-pixel */
"64 64 236 2 ",
"   c #0087006F0081",
".  c #0ACC015401EF",
"X  c #02B205340A96",
"o  c #0374092A0BF8",
"O  c #0AFD0AA70CBC",
"+  c #0A2106F90747",
"@  c #1440031C0235",
"#  c #1B7D020202B9",
"$  c #1B3209D503A3",
"%  c #138503910ABA",
"&  c #11480C3009A5",
"*  c #1A310576092C",
"=  c #04F40CFA1315",
"-  c #0AB30C8B1295",
";  c #02740AD61A1C",
":  c #17280AB1183A",
">  c #0BE0129E12F4",
",  c #032D144B1C25",
"<  c #0A6212201A88",
"1  c #07C9177017A1",
"2  c #11FE13351359",
"3  c #144913A61E4E",
"4  c #1B4F1B0B1A7E",
"5  c #174A16A818FF",
"6  c #126F0FF40ECC",
"7  c #21BC02200009",
"8  c #2C6F02A30258",
"9  c #23860CE9034A",
"0  c #2A68086B0982",
"q  c #324B03D7032C",
"w  c #3A8C002D0027",
"e  c #34320CE20644",
"r  c #29F612F908E8",
"t  c #3479122B0A9D",
"y  c #39681A1D0B7C",
"u  c #3B3914A40853",
"i  c #2735063016F9",
"p  c #35A007A11887",
"a  c #266B1A64180C",
"s  c #37D31D550FEE",
"d  c #1CE620371F67",
"f  c #00A51AA824BF",
"g  c #0B921C852A55",
"h  c #05AA19152557",
"j  c #1B521CF12BEA",
"k  c #16701974249A",
"l  c #17E71E4C300D",
"z  c #39FA0BD52297",
"x  c #2CDE111425B2",
"c  c #088A21122C89",
"v  c #1972223F2B09",
"b  c #0A312676375C",
"n  c #1C5222B5338A",
"m  c #185F28543B61",
"M  c #24562368240B",
"N  c #2C242B712C1D",
"B  c #260B266F26E8",
"V  c #237C29CC3DC1",
"C  c #264C27553518",
"Z  c #30CB2EC7305D",
"A  c #2B0C326B3399",
"S  c #34E133333346",
"D  c #386338503925",
"F  c #2F162F552C16",
"G  c #496204AC073A",
"H  c #583704AE054A",
"J  c #44751811090C",
"K  c #4855027A17A1",
"L  c #59BD1CBB1275",
"P  c #53FD19130000",
"I  c #670F02D804D3",
"U  c #7A7506440749",
"Y  c #77950BFA1554",
"T  c #66B71EF30000",
"R  c #5A1623130A1F",
"E  c #6B6629710986",
"W  c #63A5261F0876",
"Q  c #790C2D3A08EB",
"!  c #6ACA2275154A",
"~  c #78EB289C153A",
"^  c #7E48311D0ADA",
"/  c #49470D182B36",
"(  c #56910BE22866",
")  c #56D70FFA2DB1",
"_  c #49DB13F535F1",
"`  c #5E0C12553552",
"'  c #584F0E7730A7",
"]  c #696315293DE2",
"[  c #76F813913A16",
"{  c #71E90E5F2B44",
"}  c #415F3DA83D6E",
"|  c #1B2C2C4C4202",
" . c #1A3633554AE6",
".. c #180432EF4912",
"X. c #1BE639B45383",
"o. c #163139EF5A34",
"O. c #05DE35B44E6A",
"+. c #23CA2D64437A",
"@. c #243233094AA1",
"#. c #28C1326847D1",
"$. c #343A358E47BC",
"%. c #2C9C3E235AC4",
"&. c #273338AC5367",
"*. c #36FA3BD15A44",
"=. c #3D3D264048BD",
"-. c #5C1916EB4693",
";. c #799C18EA4823",
":. c #6BDE19074A4B",
">. c #584627275186",
",. c #68BD29E95BA7",
"<. c #1CED426A5E1B",
"1. c #32A440675EF1",
"2. c #05ED4B8D6B4E",
"3. c #1750468B6511",
"4. c #02DF555675BF",
"5. c #00005A917CB1",
"6. c #0F46535475CD",
"7. c #22E34362627B",
"8. c #28AC48126906",
"9. c #352543556348",
"0. c #3D3649FA6C31",
"q. c #3800486E6977",
"w. c #28BD4E3C71C9",
"e. c #3A154C617283",
"r. c #282554967A8C",
"t. c #3C4753587ABB",
"y. c #38B15169769F",
"u. c #43B34BE6727E",
"i. c #43A153637A88",
"p. c #496D4C567722",
"a. c #858A04F404C6",
"s. c #9749068C07DD",
"d. c #90C70E0F1486",
"f. c #A4C90BF71300",
"g. c #B10E0CAB143E",
"h. c #87B533BC0BE2",
"j. c #945B38D70D0C",
"k. c #87862BE51A5D",
"l. c #848A335E1078",
"z. c #8D7A346C1224",
"x. c #93F234E71657",
"c. c #8E2407861FF7",
"v. c #9772137027F6",
"b. c #99A015E638E5",
"n. c #8ECF12C22F55",
"m. c #A791134A2E1F",
"M. c #B3F615122EBB",
"N. c #A1A83ED60F5C",
"B. c #C6130DAD11FA",
"V. c #CCB513A822D7",
"C. c #9F1140EF1611",
"Z. c #A698433014D8",
"A. c #84C917DE43C3",
"S. c #95A318D2423D",
"D. c #8E4A1CFE517F",
"F. c #0F015DDE8390",
"G. c #2C525C2E855B",
"H. c #2CEC5D45898E",
"J. c #393E5D438B06",
"K. c #0000680F8E25",
"L. c #2CBF618B8CFD",
"P. c #369061128D94",
"I. c #2D5763BB9021",
"U. c #338D6AF49B0A",
"Y. c #35EF68E69794",
"T. c #382E6F46A19B",
"R. c #38AE7499A8E9",
"E. c #3A0D7D53B584",
"W. c #29F27156A309",
"Q. c #111D7E1BB1C1",
"!. c #57CD4D99829B",
"~. c #45EC5B26878E",
"^. c #4C9856D7882A",
"/. c #47A060AC8E43",
"(. c #4B4D649E942A",
"). c #4691687A9949",
"_. c #53F56A049CC3",
"`. c #49AA6DF1A3DD",
"'. c #52B06E60A29B",
"]. c #475D74B3AB5D",
"[. c #56BA744DAA88",
"{. c #4DBF798DB2A5",
"}. c #45187B1BB533",
"|. c #52DE7EBCB9FC",
" X c #598B7BC3B642",
".X c #00BB8458B723",
"XX c #13F180C0B460",
"oX c #3D908200BC14",
"OX c #43438304BDDF",
"+X c #4F70824DBE66",
"@X c #54938246BE67",
"#X c #58348147BDB7",
"$X c #00009AFFD55D",
"%X c #006A8CA9C1D8",
"&X c #3E48871DC3A6",
"*X c #3D6A97EED89B",
"=X c #0000A1CADF07",
"-X c #0078A678E51A",
";X c #0068BA83FE34",
":X c #1BFAB00AF22A",
">X c #40E5864CC292",
",X c #4B48869DC3BF",
"<X c #42D8891CC6CD",
"1X c #43CF8CEFCC28",
"2X c #4CCE8C0ECC47",
"3X c #4B468896C7A5",
"4X c #591F85F5C49F",
"5X c #55DF8977C936",
"6X c #56068F5CD1DC",
"7X c #4550929FD42F",
"8X c #4A5F92F3D5B0",
"9X c #4BA69710DB66",
"0X c #4BA598F7DDF2",
"qX c #4575995BDD05",
"wX c #55F39589DA2A",
"eX c #45B59008D0AB",
"rX c #64E38D97CF0F",
"tX c #4BD59DE3E4BF",
"yX c #46CF9EE0E51C",
"uX c #552E9D4EE4FF",
"iX c #60499FAFE9E1",
"pX c #4C98A308EBF4",
"aX c #467FA324E8CE",
"sX c #5221A385ED46",
"dX c #5BA4A249EC94",
"fX c #47BDAD85F744",
"gX c #54ADAAE7F803",
"hX c #56A0B0B9FFFF",
"jX c #6071A49FEEDE",
"kX c #6375A941F51D",
"lX c #000ACC42FFFF",
"zX c #005FD49EFFFF",
"xX c #1F98C051FFFF",
"cX c #00ECEB33FFFF",
"vX c #0000F905FFFF",
"bX c None",
/* pixels */
"bXbXbXbXbXbXbXbXbXbXbXbXbXbXbXbXbXbXbXbXbXbXbXbXbXbXbXbXbXbXbXbXbXbXbXbXbXbXbXbXbXbXbXbXbXbXbXbXbXbXbXbXbXbXbXbXbXbXbXbXbXbXbXbX",
"bXbXbXbXbXbXbXbXbXbXbXbXbXbXbXbXbXbXbXbXbXbXbXbXbXbXbXbXbXbXbXbXbXbXbXbXbXbXbXbXbXbXbXbXbXbXbXbXbXbXbXbXbXbXbXbXbXbXbXbXbXbXbXbX",
"bXbXbXbXbXbXbXbXbXbXbXbXbXbXbXbXbXbXbXbXbXbXbXbXbXbXbXbXbXbXbXbXbXbXbXbXbXbXbXbXbXbXbXbXbXbXbXbXbXbXbXbXbXbXbXbXbXbXbXbXbXbXbXbX",
"bXbXbXbXbXbXbXbXbXbXbXbXbXbXbXbXbXbXbXbXbXbXbXbXbXbXbXbXbXbXbXbXbXbXbXbXbXbXbXbXbXbXbXbXbXbXbXbXbXbXbXbXbXbXbXbXbXbXbXbXbXbXbXbX",
"bXbXbXbXbXbXbXbXbXbXbXbXbXbXbX                . bXbXbXbXbXbXbXbXbXbXbXbXbXbXbXbXbXbXbXbXbXbXbXbXbXbXbXbXbXbXbXbXbXbXbXbXbXbXbXbX",
"bXbXbXbXbXbXbXbXbXbXbXbXbXbX          .           bXbXbXbXbXbXbXbXbXbXbXbXbXbXbXbXbXbXbXbXbXbXbXbXbXbXbXbXbXbXbXbXbXbXbXbXbXbXbX",
"bXbXbXbXbXbXbXbXbXbXbXbXbXbX    . # 0 0 8 @         bXbXbXbXbXbXbXbXbXbXbXbXbXbXbXbXbXbXbXbXbXbXbXbXbXbXbXbXbXbXbXbXbXbXbXbXbXbX",
"bXbXbXbXbXbXbXbXbXbXbXbXbXbX    + q H Y I q                 . . + +         bXbXbXbXbXbXbXbXbXbXbXbXbXbXbXbXbXbXbXbXbXbXbXbXbXbX",
"bXbXbXbXbXbXbXbXbXbXbXbXbXbX    @ G U f.d.G .                 . +             bXbXbXbXbXbXbXbXbXbXbXbXbXbXbXbXbXbXbXbXbXbXbXbXbX",
"bXbXbXbXbXbXbXbXbXbXbXbXbXbXbX  @ G U s.s.I q + . . @ @ .             O - ; < bXbXbXbXbXbXbXbXbXbXbXbXbXbXbXbXbXbXbXbXbXbXbXbXbX",
"bXbXbXbXbXbXbXbXbXbXbXbXbXbXbXbX@ w H I I I H H H G G q @           o g | X. .h bXbXbXbXbXbXbXbXbXbXbXbXbXbXbXbXbXbXbXbXbXbXbXbX",
"bXbXbXbXbXbXbXbXbXbXbXbXbXbXbXbXbXbX. 7 w H d.d.f.s.U H 8           , X.H.I.G.|         X < bXbXbXbXbXbXbXbXbXbXbXbXbXbXbXbXbXbX",
"bXbXbXbXbXbXbXbXbXbXbXbXbXbXbXbXbXbX    # G a.g.B.B.f.a.J *         k G.OXeXE.<.=         X bXbXbXbXbXbXbXbXbXbXbXbXbXbXbXbXbXbX",
"bXbXbXbXbXbXbXbXbXbXbXbXbXbXbXbXbXf f f 3 e I s.g.B.M.v.Y G 7 @ . @ C J.8XsX1XH.| =           bXbXbXbXbXbXbXbXbXbXbXbXbXbXbXbXbX",
"bXbXbXbXbXbXbXbXbXbXbXbXbXbXbXbX= b o.o.+.a w H I d.b.b.v.Y I G G p >.J.3XtXtXoXG. .h           o bXbXbXbXbXbXbXbXbXbXbXbXbXbXbX",
"bXbXbXbXbXbXbXbXbXbXbXbXbXbX    -  .t./.e.V . @ 8 / [ b.v.d.a.U I ( >.t.}.7XyXyX&XY.&.<         X O bXbXbXbXbXbXbXbXbXbXbXbXbXbX",
"bXbXbXbXbXbXbXbXbXbXbXbXbXbX    - +.^.[._.3.f X X i _ { n.f.g.f.c.[ ,.!.].&XaXfXpX<XH. .-         X bXbXbXbXbXbXbXbXbXbXbXbXbXbX",
"bXbXbXbXbXbXbXbXbXbXbXbXbXbX    O V i.[.@XY.2.b f ; i / Y n.m.M.b.A.,.!.].1XaXfXpX9X}.G.X.g =       bXbXbXbXbXbXbXbXbXbXbXbXbXbX",
"bXbXbXbXbXbXbXbXbXbXbXbXbXbX    O n e.'.4X,XR.G.O.f . 7 K { S.S.b.;.,.!.].eX*XyX7X8X2X>XY.3.c O     bXbXbXbXbXbXbXbXbXbXbXbXbXbX",
"bXbXbXbXbXbXbXbXbXbXbXbXbXbX    O l 1.(.5XuXtXoXr.c   . 8 ' :.[ { { >.!.].eX*X*X<X3X0XpX3XH. .=     bXbXbXbXbXbXbXbXbXbXbXbXbXbX",
"bXbXbXbXbXbXbXbXbXbXbXbXbXbX    O j 1.(.4XiXdX8XW.<.g O : z / K K K -.e.].7XqX7X1X8XsXhXtXU.&.=     bXbXbXbXbXbXbXbXbXbXbXbXbXbX",
"bXbXbXbXbXbXbXbXbXbXbXbXbXbX    o v 1.(.4XuXuX9X&XY.8.V j : * # # 7 x 9.T.7XtXyXqXtXgXhXtXU.X.=     bXbXbXbXbXbXbXbXbXbXbXbXbXbX",
"bXbXbXbXbXbXbXbXbXbXbXbXbXbX    o n 9.(.@X6X8XeX3X|.).e.+.:         h %.T.7XpXtX9X0XsXgX7XI. .=     bXbXbXbXbXbXbXbXbXbXbXbXbXbX",
"bXbXbXbXbXbXbXbXbXbXbXbXbXbX    X n 9.(.@X3X<X<X,X|.'.u.@.3         g 3.R.7X9X1XoXoX7XtX<XL...=     bXbXbXbXbXbXbXbXbXbXbXbXbXbX",
"bXbXbXbXbXbXbXbXbXbXbXbXbXbX    O n 9.(.|.2X3X>X}.).t.9.@.m v , = g ..G.oX1X<XU.G.H.R.7X&XU.X.=     bXbXbXbXbXbXbXbXbXbXbXbXbXbX",
"bXbXbXbXbXbXbXbXbXbXbXbXbXbX    O j *.(.@XwX8XoXI.8.+.n #.7.w.q.%.%.y.].<X1XR.7.|  .H.&X*XR.<.<     bXbXbXbXbXbXbXbXbXbXbXbXbXbX",
"bXbXbXbXbXbXbXbXbXbXbXbXbXbX    O j 1.(.5XuXtXoXr.b X + V t.'.'.(./._.,X9X<XL.b   > 7.E.7XR.3.<     bXbXbXbXbXbXbXbXbXbXbXbXbXbX",
"bXbXbXbXbXbXbXbXbXbXbXbXbXbX    X n q._.rXdXuXE.3.o     j !. X4X X X@XwXsX<Xw.=     m Y.3XT.&.=     bXbXbXbXbXbXbXbXbXbXbXbXbXbX",
"bXbXbXbXbXbXbXbXbXbXbXbX        X m 0.[.rXkXsXE.<.      4 u. XrX4X@X3XuXsX<Xw.o     j J.{.P.|       bXbXbXbXbXbXbXbXbXbXbXbXbXbX",
"bXbXbXbXbXbXbXbXbXbXbXX         X | u.[.rXkXsXE.3.;     k 0.'.@X@XOX1XtXpXOXw.,     j t._.J.V       bXbXbXbXbXbXbXbXbXbXbXbXbXbX",
"bXbXbXbXbXbXbXbXbXbXbXX         O V 9./.@XwXtXE.r.b o - C i.`.|.,X<X7XtXaX<XH.b = > @.i._.J.@.<     bXbXbXbXbXbXbXbXbXbXbXbXbXbX",
"bXbXbXbXbXbXbXbXbXbX      . @ 9 r x V 7.H.}.2X,XU.8... .w.).5XwX0XqXyXaXtX1XW.8... .w.).`.).y.X.b h ; bXbXbXbXbXbXbXbXbXbXbXbXbX",
"bXbXbXbXbXbXbXbXbXbXbX    & y R R y 5 g o.H.{.4X{.U.L.L.R.<X0XsXsXpXaXtXqX&XoXU.I.I.T.R.OXOX}.U.r.o.c   bXbXbXbXbXbXbXbXbXbXbXbX",
"bXbXbXbXbXbXbXbXbXbXbX    r J ^ Q P #   ; o.~.[.4X,XoX<X1X7X9X9XtXqX7X7XeX&X&X&X&XOXoX<X<X8XaXqXR.w.c     bXbXbXbXbXbXbXbXbXbXbX",
"bXbXbXbXbXbXbXbXbXbXbX    r R l.h.T q . X l *.(.@X6X0X9X1XE.T.U.Y.U.R.}.>X1X9X0X9X9X7X1XeX0XgXdX}.w.v       bXbXbXbXbXbXbXbXbXbX",
"bXbXbXbXbXbXbXbXbXbXbX    9 R l.j.Q P e 7 : n %.).,XwX6XR.y. .n n  .9.J.].5XwXwXwX6X2X+X5XwXdXwX].8.g       bXbXbXbXbXbXbXbXbXbX",
"bXbXbXbXbXbXbXbXbXbXbX    $ J Q j.j.h.T J 9 @ g 7.`.@X{.y.n .     . l 9.(.|.4X4X@X{.[.{. X4X5X#X).%.g       bXbXbXbXbXbXbXbXbXbX",
"bXbXbXbXbXbXbXbXbXbXbX    $ J E j.N.j.h.R q .   b y.(.^.1.1         <  .t.(.[.'.(./././.(.'.[.'.~.&.k     bXbXbXbXbXbXbXbXbXbXbX",
"bXbXbXbXbXbXbXbXbXbXbX    $ u E j.Z.Z.C.W q     ; | %.9.X.b c , , c b ..%.0.u.u.u.u.q.9.9.0.^./.i.@.k     bXbXbXbXbXbXbXbXbXbXbX",
"bXbXbXbXbXbXbXbXbXbXbX    $ J E j.Z.Z.z.W e .     - j @.<.4.K.K.K.K.4.O.| j N $.*.$.A n n V %.bXbXbXbXbXbXbXbXbXbXbXbXbXbXbXbXbX",
"bXbXbXbXbXbXbXbXbXbXbX    $ J E j.C.j.h.R y +       . b 4..X-X;X;X-XQ.2.f + @ a F A M > X   bXbXbXbXbXbXbXbXbXbXbXbXbXbXbXbXbXbX",
"bXbXbXbXbXbXbXbXbXbXbX    $ J E z.j.j.^ W s 6         f 5.$XlXvXvXzX$X5.f   . $ M N 5 +     bXbXbXbXbXbXbXbXbXbXbXbXbXbXbXbXbXbX",
"bXbXbXbXbXbXbXbXbXbXbX    $ u R l.j.z.^ R s 6         f 5.-XzXvXvXzX-X4.,   . 9 B F 4       bXbXbXbXbXbXbXbXbXbXbXbXbXbXbXbXbXbX",
"bXbXbXbXbXbXbXbXbXbXbX    % t R ~ z.j.^ W y &         c 5.$XlXcXcXlX$X4.f   @ r F A d +     bXbXbXbXbXbXbXbXbXbXbXbXbXbXbXbXbXbX",
"bXbXbXbXbXbXbXbXbXbXbX    % 0 L ~ k.z.^ W y &         c 5..X;XzXlX;X.X4.f   @ a S D B 6     bXbXbXbXbXbXbXbXbXbXbXbXbXbXbXbXbXbX",
"bXbXbXbXbXbXbXbXbXbXbX    % t L ~ x.x.l.W s &         g 6.Q.:X:X:X:XQ.2.f   . a D D B >     bXbXbXbXbXbXbXbXbXbXbXbXbXbXbXbXbXbX",
"bXbXbXbXbXbXbXbXbXbX      % p ! k.x.x.l.R s &         < <.W.*XfXfX*XW.o.;   . a D D B >     bXbXbXbXbXbXbXbXbXbXbXbXbXbXbXbXbXbX",
"bXbXbXbXbXbXbXbXbXbXbX    $ u L k.k.k.! L t &         < &.P.@XrXwX@XJ. .X   . 4 S D B 6     bXbXbXbXbXbXbXbXbXbXbXbXbXbXbXbXbXbX",
"bXbXbXbXbXbXbXbXbXbXbX    $ r L ! ! ! L J r +         4 #.u.^._._.^.0.V > + & B S S M O     bXbXbXbXbXbXbXbXbXbXbXbXbXbXbXbXbXbX",
"bXbXbXbXbXbXbXbXbXbXbXbX  @ 9 r u J J p 0 % .   X O 4 B C $.*.*.>.*.#.C d 4 M S D S d O     bXbXbXbXbXbXbXbXbXbXbXbXbXbXbXbXbXbX",
"bXbXbXbXbXbXbXbXbXbXbXbXbX. % @ $ $ * $ @ +   + 2 M Z S N j 3 3 g 3 4 M N F D } } F 4 +     bXbXbXbXbXbXbXbXbXbXbXbXbXbXbXbXbXbX",
"bXbXbXbXbXbXbXbXbXbXbXbXbXbX                    4 N D S M O         O a F D } } S B 2 +     bXbXbXbXbXbXbXbXbXbXbXbXbXbXbXbXbXbX",
"bXbXbXbXbXbXbXbXbXbXbXbXbXbXbX                  2 B F B 4 o           2 v F A A v 1 > +     bXbXbXbXbXbXbXbXbXbXbXbXbXbXbXbXbXbX",
"bXbXbXbXbXbXbXbXbXbXbXbXbXbXbXbX                o 1 2 > o             o 1 1 f 1 > = o   bXbXbXbXbXbXbXbXbXbXbXbXbXbXbXbXbXbXbXbX",
"bXbXbXbXbXbXbXbXbXbXbXbXbXbXbXbXbXbX                  o o               X o o o o     bXbXbXbXbXbXbXbXbXbXbXbXbXbXbXbXbXbXbXbXbX",
"bXbXbXbXbXbXbXbXbXbXbXbXbXbXbXbXbXbX      . +   . .           o o +       . . .   . + bXbXbXbXbXbXbXbXbXbXbXbXbXbXbXbXbXbXbXbXbX",
"bXbXbXbXbXbXbXbXbXbXbXbXbXbXbXbXbXbX    . % i p p i i * % . X       . # 8 w w w w w 8 bXbXbXbXbXbXbXbXbXbXbXbXbXbXbXbXbXbXbXbXbX",
"bXbXbXbXbXbXbXbXbXbXbXbXbXbXbXbXbXbX    % i z ) ` ( / p i .         % w H U a.a.U I G #   bXbXbXbXbXbXbXbXbXbXbXbXbXbXbXbXbXbXbX",
"bXbXbXbXbXbXbXbXbXbXbXbXbXbXbXbXbXbX    % i ) ] ;.;.] / i %         $ G U f.B.B.g.U G #     bXbXbXbXbXbXbXbXbXbXbXbXbXbXbXbXbXbX",
"bXbXbXbXbXbXbXbXbXbXbXbXbXbXbXbXbXbX    % z ] ;.D.D.;.] z *         # G a.f.V.V.M.d.G #     bXbXbXbXbXbXbXbXbXbXbXbXbXbXbXbXbXbX",
"bXbXbXbXbXbXbXbXbXbXbXbXbXbXbXbXbXbXbXbXbXbXbXbXbXbXbXbXbXbXbX      * p { v.M.M.b.{ G *     bXbXbXbXbXbXbXbXbXbXbXbXbXbXbXbXbXbX",
"bXbXbXbXbXbXbXbXbXbXbXbXbXbXbXbXbXbXbXbXbXbXbXbXbXbXbXbXbXbXbXbX    % p ( [ S.D.n.' p %     bXbXbXbXbXbXbXbXbXbXbXbXbXbXbXbXbXbX",
"bXbXbXbXbXbXbXbXbXbXbXbXbXbXbXbXbXbXbXbXbXbXbXbXbXbXbXbXbXbXbXbX    X i / ] ;.;.:./ i %     bXbXbXbXbXbXbXbXbXbXbXbXbXbXbXbXbXbX",
"bXbXbXbXbXbXbXbXbXbXbXbXbXbXbXbXbXbXbXbXbXbXbXbXbXbXbXbXbXbXbXbX    % : z -.,.:.-._ x %     bXbXbXbXbXbXbXbXbXbXbXbXbXbXbXbXbXbX"
};
