/* XPM */
static char * i5_xpm[] = {
"64 64 387 2",
"  	c None",
". 	c #9E7466",
"+ 	c #D9945F",
"@ 	c #D9955F",
"# 	c #D78F60",
"$ 	c #D89260",
"% 	c #9F7566",
"& 	c #997167",
"* 	c #D9935F",
"= 	c #DA975E",
"- 	c #EFC750",
"; 	c #DB985E",
"> 	c #DA965F",
", 	c #D68C61",
"' 	c #EBBE52",
") 	c #FFF143",
"! 	c #DEA15B",
"~ 	c #DB965F",
"{ 	c #D68E61",
"] 	c #E4AD58",
"^ 	c #E9BA53",
"/ 	c #D8925F",
"( 	c #D08C5E",
"_ 	c #EDC051",
": 	c #FFF041",
"< 	c #DEA05C",
"[ 	c #D79060",
"} 	c #DD9760",
"| 	c #171E30",
"1 	c #161B2E",
"2 	c #141628",
"3 	c #1F2131",
"4 	c #9F724E",
"5 	c #FFF250",
"6 	c #FBEC53",
"7 	c #EBA55A",
"8 	c #89614D",
"9 	c #6C5243",
"0 	c #151A2C",
"a 	c #3C7176",
"b 	c #264353",
"c 	c #121225",
"d 	c #171F30",
"e 	c #0F172D",
"f 	c #A0724C",
"g 	c #FFE85D",
"h 	c #FEFCC1",
"i 	c #F7D34B",
"j 	c #C4865B",
"k 	c #131B2D",
"l 	c #192233",
"m 	c #50A1A1",
"n 	c #4A9EA7",
"o 	c #264354",
"p 	c #15182B",
"q 	c #161C2E",
"r 	c #0B0C29",
"s 	c #051329",
"t 	c #77544B",
"u 	c #FFD645",
"v 	c #FFFCB3",
"w 	c #FFF57D",
"x 	c #E6AB4F",
"y 	c #48363D",
"z 	c #000023",
"A 	c #070C2A",
"B 	c #13142A",
"C 	c #458282",
"D 	c #58B3AF",
"E 	c #50A1A4",
"F 	c #435D7C",
"G 	c #1B2036",
"H 	c #171F31",
"I 	c #141A2B",
"J 	c #12162D",
"K 	c #272F34",
"L 	c #33453A",
"M 	c #0C0D2A",
"N 	c #201F36",
"O 	c #DFA441",
"P 	c #FFFCB0",
"Q 	c #FFF6AD",
"R 	c #D49843",
"S 	c #252637",
"T 	c #5A8E4D",
"U 	c #56854C",
"V 	c #151B2A",
"W 	c #396F77",
"X 	c #4CA0A9",
"Y 	c #3E5D7B",
"Z 	c #2E415C",
"` 	c #366279",
" .	c #426A89",
"..	c #303656",
"+.	c #111326",
"@.	c #1C262F",
"#.	c #68B858",
"$.	c #32483A",
"%.	c #191D2D",
"&.	c #B9926A",
"*.	c #FAEEBC",
"=.	c #FCEA9F",
"-.	c #675349",
";.	c #182930",
">.	c #597A49",
",.	c #94D262",
"'.	c #4FB752",
").	c #2A6054",
"!.	c #3A6D86",
"~.	c #3E7B91",
"{.	c #3D788E",
"].	c #426787",
"^.	c #2F3E5B",
"/.	c #263149",
"(.	c #284A62",
"_.	c #2D4842",
":.	c #205137",
"<.	c #0B0729",
"[.	c #484949",
"}.	c #EFDDA5",
"|.	c #F4E0A9",
"1.	c #6B6357",
"2.	c #000522",
"3.	c #030128",
"4.	c #3C4B3D",
"5.	c #6ACF5B",
"6.	c #388E5D",
"7.	c #314F5B",
"8.	c #3C8697",
"9.	c #3F7F94",
"0.	c #3E6884",
"a.	c #326376",
"b.	c #3A6D84",
"c.	c #447C95",
"d.	c #3A486D",
"e.	c #1C2237",
"f.	c #050E26",
"g.	c #8B7A62",
"h.	c #A29071",
"i.	c #80715D",
"j.	c #776C5C",
"k.	c #000521",
"l.	c #181D2C",
"m.	c #171128",
"n.	c #4AA04B",
"o.	c #3C9B60",
"p.	c #38565C",
"q.	c #397B8C",
"r.	c #3E8799",
"s.	c #4091A1",
"t.	c #447793",
"u.	c #3F5E7F",
"v.	c #3B416E",
"w.	c #3E4172",
"x.	c #1E1F3F",
"y.	c #141829",
"z.	c #10172C",
"A.	c #34343B",
"B.	c #181D2E",
"C.	c #35353C",
"D.	c #222633",
"E.	c #101126",
"F.	c #2A4952",
"G.	c #3A6876",
"H.	c #2A6A3E",
"I.	c #428766",
"J.	c #243443",
"K.	c #357386",
"L.	c #43718E",
"M.	c #344C69",
"N.	c #232B45",
"O.	c #1B1E33",
"P.	c #24553E",
"Q.	c #2A6A43",
"R.	c #2D6740",
"S.	c #121E2E",
"T.	c #13152C",
"U.	c #0C1429",
"V.	c #4C4349",
"W.	c #725F5B",
"X.	c #1A2132",
"Y.	c #090219",
"Z.	c #3A6B6F",
"`.	c #5EBEBA",
" +	c #47958C",
".+	c #43878C",
"++	c #387688",
"@+	c #418B9E",
"#+	c #2D3F58",
"$+	c #171B2C",
"%+	c #2E504D",
"&+	c #329A4C",
"*+	c #3BC355",
"=+	c #3ECB57",
"-+	c #87E063",
";+	c #75B658",
">+	c #1A2C32",
",+	c #141B2D",
"'+	c #554B4D",
")+	c #997D6C",
"!+	c #1F2534",
"~+	c #09041A",
"{+	c #355F66",
"]+	c #59B8B6",
"^+	c #57AFAD",
"/+	c #5AB4AE",
"(+	c #4BA0A9",
"_+	c #2D5B6F",
":+	c #19222F",
"<+	c #345757",
"[+	c #45796E",
"}+	c #3CAF58",
"|+	c #2C8443",
"1+	c #225A3B",
"2+	c #3C994C",
"3+	c #75DA60",
"4+	c #4E7146",
"5+	c #0C0A29",
"6+	c #383040",
"7+	c #75605C",
"8+	c #1B1E30",
"9+	c #13162B",
"0+	c #182132",
"a+	c #325762",
"b+	c #448995",
"c+	c #3F8495",
"d+	c #428D9F",
"e+	c #2A4C60",
"f+	c #111123",
"g+	c #345657",
"h+	c #43746B",
"i+	c #315453",
"j+	c #243641",
"k+	c #1B1D35",
"l+	c #12192C",
"m+	c #183F36",
"n+	c #47AF52",
"o+	c #1D3634",
"p+	c #151B2D",
"q+	c #445C41",
"r+	c #1E2531",
"s+	c #25663F",
"t+	c #1E3F35",
"u+	c #171932",
"v+	c #345570",
"w+	c #38657F",
"x+	c #3F7991",
"y+	c #3E7E93",
"z+	c #406383",
"A+	c #232843",
"B+	c #2E4F4D",
"C+	c #467C6F",
"D+	c #3D6963",
"E+	c #488072",
"F+	c #2B484A",
"G+	c #14062A",
"H+	c #266C41",
"I+	c #23553B",
"J+	c #74C45B",
"K+	c #82AB57",
"L+	c #2A6C41",
"M+	c #1E4036",
"N+	c #191C32",
"O+	c #254251",
"P+	c #316576",
"Q+	c #418E9F",
"R+	c #3E8798",
"S+	c #3F577A",
"T+	c #2C3452",
"U+	c #294248",
"V+	c #44786B",
"W+	c #375D59",
"X+	c #182031",
"Y+	c #161D2D",
"Z+	c #1A2D32",
"`+	c #182330",
" @	c #16232F",
".@	c #38B051",
"+@	c #59D15B",
"@@	c #274939",
"#@	c #12122B",
"$@	c #0A1429",
"%@	c #1F465B",
"&@	c #377A8E",
"*@	c #3B8699",
"=@	c #3A8196",
"-@	c #405D81",
";@	c #43517A",
">@	c #475781",
",@	c #3A446C",
"'@	c #2F4855",
")@	c #3A4D6A",
"!@	c #354066",
"~@	c #161B2F",
"{@	c #14152C",
"]@	c #22523B",
"^@	c #1C633C",
"/@	c #15252F",
"(@	c #1A1E30",
"_@	c #655A53",
":@	c #535655",
"<@	c #324753",
"[@	c #364A55",
"}@	c #394552",
"|@	c #363A55",
"1@	c #2E3754",
"2@	c #2A3451",
"3@	c #2F3955",
"4@	c #262A40",
"5@	c #303750",
"6@	c #302E4D",
"7@	c #245A3C",
"8@	c #214D39",
"9@	c #130C2A",
"0@	c #12112B",
"a@	c #3C2D3F",
"b@	c #2B2938",
"c@	c #15182A",
"d@	c #4B3F44",
"e@	c #524444",
"f@	c #615149",
"g@	c #594B47",
"h@	c #65584D",
"i@	c #3A353B",
"j@	c #544643",
"k@	c #5D4D49",
"l@	c #2B2A34",
"m@	c #705E58",
"n@	c #3D393D",
"o@	c #372E3A",
"p@	c #359B4D",
"q@	c #38B351",
"r@	c #17222F",
"s@	c #141C2D",
"t@	c #444045",
"u@	c #2B2A36",
"v@	c #254359",
"w@	c #386C89",
"x@	c #2F5474",
"y@	c #2C4165",
"z@	c #2B3D62",
"A@	c #29375D",
"B@	c #2F3D60",
"C@	c #3A4463",
"D@	c #2B3046",
"E@	c #453E43",
"F@	c #3C3842",
"G@	c #443E45",
"H@	c #11162C",
"I@	c #20503B",
"J@	c #23523B",
"K@	c #15192D",
"L@	c #0F1428",
"M@	c #1E3041",
"N@	c #284F5F",
"O@	c #2E5769",
"P@	c #2E5265",
"Q@	c #3D5172",
"R@	c #445077",
"S@	c #404E74",
"T@	c #2D3958",
"U@	c #20273C",
"V@	c #725E59",
"W@	c #272836",
"X@	c #403B43",
"Y@	c #655654",
"Z@	c #17152D",
"`@	c #14182A",
" #	c #131326",
".#	c #121324",
"+#	c #121325",
"@#	c #161B2D",
"##	c #181E31",
"$#	c #121727",
"%#	c #161B2C",
"&#	c #2F2E3A",
"*#	c #171C2E",
"=#	c #0D152A",
"-#	c #31303B",
";#	c #232734",
">#	c #161D2F",
",#	c #161C2D",
"'#	c #171D2F",
")#	c #11192C",
"!#	c #181D2F",
"~#	c #11182C",
"{#	c #171D2E",
"                                                                                                                                ",
"                                                                                                                                ",
"                                                                                                                                ",
"                                                                                                                                ",
"                                                                                                                                ",
"                                                                                                                                ",
"                                                                                                                                ",
"                                                                                                                                ",
"                                                                                                                                ",
"                                                                                                                                ",
"                                                                                                                                ",
"                                                                                                                                ",
"                                                                                                                                ",
"                                                                                                                                ",
"                                                                                                                                ",
"                                    . .                                                                                         ",
"                                    . .                                                                                         ",
"                                    . .     + @ # $                                                                             ",
"                                    % &   + * = - ;                                                                             ",
"                                          > , ' ) !                                                                             ",
"                                        ~ { ] ^ > /                                                                             ",
"                                        ( _ : < [ }       | 1 2                                                                 ",
"                                      3 4 5 6 7 8 9       0 a b c d                                                             ",
"                                      e f g h i j k       l m n o p q         r                                                 ",
"                                      s t u v w x y z A B C D E F G H I d J K L M                                               ",
"                                        N O P Q R S T U V W X Y Z `  ...+.@.#.$.                                                ",
"                                        %.&.*.=.-.;.>.,.'.).!.~.{.].^./.(._.:.<.                                                ",
"                                          [.}.|.1.2.3.4.5.6.7.8.9.0.a.b.c.d.e.                                                  ",
"                                        f.g.h.i.j.k.l.m.n.o.p.q.r.s.t.u.v.w.x.y.                                                ",
"                                        z.A.B.C.D.E.F.G.H.I.J.K.L.M.N.O.P.Q.R.S.T.                                              ",
"                                          U.V.W.X.Y.Z.`. +.+++@+#+$+%+&+*+=+-+;+>+                                              ",
"                                          ,+'+)+!+~+{+]+^+/+(+_+:+<+[+}+|+1+2+3+4+5+                                            ",
"                                            6+7+8+9+0+a+b+c+d+e+f+g+h+i+j+k+l+m+n+o+                                            ",
"                                          p+q+r+s+t+u+v+w+x+y+z+A+B+C+D+E+F+  G+H+I+                                            ",
"                                          S.J+K+L+M+N+O+P+Q+R+R+S+T+U+V+W+X+Y+  Z+`+                                            ",
"                                           @.@+@@@#@$@%@&@*@=@-@;@>@,@'@)@!@~@{@                                                ",
"                                          1 ]@^@/@(@_@:@<@[@}@|@1@2@3@4@5@6@7@8@9@                                              ",
"                                            0@a@b@c@d@e@f@g@h@i@j@k@l@m@n@o@p@q@r@                                              ",
"                                            s@t@u@v@w@x@y@z@A@B@C@D@E@F@G@H@I@J@K@                                              ",
"                                                L@M@N@O@P@Q@R@S@T@U@V@W@X@Y@Z@                                                  ",
"                                                  `@ #.#+#@###| $#%#&#*#=#-#;#                                                  ",
"                                                q >#| | | q p+,#'#q )#q !#~#,+q                                                 ",
"                                              q q q q q q q q q q q {#q q {#q q                                                 ",
"                                                q q q q q q q q q q q q q q q q                                                 ",
"                                                                                                                                ",
"                                                                                                                                ",
"                                                                                                                                ",
"                                                                                                                                ",
"                                                                                                                                ",
"                                                                                                                                ",
"                                                                                                                                ",
"                                                                                                                                ",
"                                                                                                                                ",
"                                                                                                                                ",
"                                                                                                                                ",
"                                                                                                                                ",
"                                                                                                                                ",
"                                                                                                                                ",
"                                                                                                                                ",
"                                                                                                                                ",
"                                                                                                                                ",
"                                                                                                                                ",
"                                                                                                                                ",
"                                                                                                                                "};
