/* XPM */
static char *result[] = {
/* columns rows colors chars-per-pixel */
"64 64 236 2 ",
"   c #008C00690077",
".  c #0B330169019A",
"X  c #026D055D0A4C",
"o  c #03E3096C0C15",
"O  c #0B040AA50CB7",
"+  c #093306E506C9",
"@  c #14480319022E",
"#  c #1B7601DB021E",
"$  c #1B2809D603AB",
"%  c #12EB03520A62",
"&  c #1B5003050AE9",
"*  c #11460C3009A7",
"=  c #192A0AE006AC",
"-  c #04F40CFA1315",
";  c #0AB10C8B1296",
":  c #02740AD61A1C",
">  c #17230AB2183E",
",  c #032D144B1C25",
"<  c #0A6212201A88",
"1  c #099B15DA1652",
"2  c #126612C9127D",
"3  c #144A13A51E4D",
"4  c #1B361B0F1A90",
"5  c #161417BF184E",
"6  c #0C7E10D60E0B",
"7  c #21AF02680040",
"8  c #2C18030402AD",
"9  c #23870CE90349",
"0  c #2A7B08680973",
"q  c #32E003EF0316",
"w  c #398C00C10082",
"e  c #34320CE20644",
"r  c #29F612F908E8",
"t  c #347A122B0A9D",
"y  c #39681A1D0B7C",
"u  c #3B3714A40854",
"i  c #26F4054716B3",
"p  c #365B089919DD",
"a  c #266B1A64180C",
"s  c #37D31D550FEE",
"d  c #1CE620371F67",
"f  c #00A51AA824BF",
"g  c #0B921C852A55",
"h  c #05AA19152557",
"j  c #1B521CF12BEA",
"k  c #1662197624A5",
"l  c #17E71E4C300D",
"z  c #3AA50B5B231E",
"x  c #2D8712B82708",
"c  c #088A21122C89",
"v  c #19F622912B32",
"b  c #0A312676375C",
"n  c #1C5222B5338A",
"m  c #185F28543B61",
"M  c #23E823D023C0",
"N  c #2B7A2BE62C50",
"B  c #263F26272757",
"V  c #237B29CC3DC2",
"C  c #268C25FD35FB",
"Z  c #32152F04313E",
"A  c #2BCB3213328C",
"S  c #34A733A433A8",
"D  c #3C153A453AAA",
"F  c #363737D9396E",
"G  c #30DD2F752D34",
"H  c #4B0902BC0388",
"J  c #486F04BA078A",
"K  c #581304A3054A",
"L  c #44711812090F",
"P  c #4902027917C1",
"I  c #59BD1CBB1275",
"U  c #53FD19130000",
"Y  c #66B4033A0538",
"T  c #7A3106AF0828",
"R  c #77B80C061562",
"E  c #66B71EF30000",
"W  c #5A1623130A1F",
"Q  c #6B6629710986",
"!  c #63A5261F0876",
"~  c #790C2D3A08EB",
"^  c #6AC92275154B",
"/  c #78EB289C153A",
"(  c #7E48311D0ADA",
")  c #4A470D022B2F",
"_  c #563C0C5E2A84",
"`  c #58B60FE42CEA",
"'  c #49AC13EA35CF",
"]  c #5DCE139535D4",
"[  c #6946151D3DCE",
"{  c #76F713913A16",
"}  c #72470E4D2B48",
"|  c #422E3F183F8E",
" . c #1B2C2C4C4202",
".. c #1A3633554AE6",
"X. c #180432EF4912",
"o. c #1BE639B45383",
"O. c #163139EF5A34",
"+. c #05DE35B44E6A",
"@. c #23CA2D64437A",
"#. c #243233094AA1",
"$. c #28C2326747D0",
"%. c #343A358E47BC",
"&. c #2C9C3E235AC4",
"*. c #273338AC5367",
"=. c #36FA3BD15A44",
"-. c #3D3D264048BD",
";. c #5C4B16F846B9",
":. c #799518E74820",
">. c #6C36191C4A8D",
",. c #50582F394BA0",
"<. c #68BD29E95BA7",
"1. c #1CED426A5E1B",
"2. c #32A440675EF1",
"3. c #05ED4B8D6B4E",
"4. c #1750468B6511",
"5. c #02DF555675BF",
"6. c #00005A917CB1",
"7. c #0F46535475CD",
"8. c #22E34362627B",
"9. c #28AC48126906",
"0. c #352543556348",
"q. c #3D3649FA6C30",
"w. c #3800486F6977",
"e. c #28BD4E3C71C9",
"r. c #3A154C617283",
"t. c #282554967A8C",
"y. c #3C4753587ABB",
"u. c #38B15169769F",
"i. c #43B34BE6727E",
"p. c #43A153637A88",
"a. c #496D4C567722",
"s. c #85C805CF057F",
"d. c #9670065906C7",
"f. c #91270DCF1453",
"g. c #A4C90BF71300",
"h. c #B0BE0C821410",
"j. c #87B533BC0BE2",
"k. c #945B38D70D0C",
"l. c #87862BE51A5D",
"z. c #848A335E1078",
"x. c #8D7A346C1224",
"c. c #93F234E71657",
"v. c #A1A83ED60F5C",
"b. c #8E2407861FF7",
"n. c #98AE13642916",
"m. c #99A015E638E5",
"M. c #8EA912B52F40",
"N. c #AF3813D42DD0",
"B. c #C65C0DB81205",
"V. c #C892128E217E",
"C. c #9F1140EF1611",
"Z. c #A698433014D8",
"A. c #85C6186D4485",
"S. c #953E18BB420B",
"D. c #925B1EA25443",
"F. c #0F015DDE8390",
"G. c #2C525C2E855B",
"H. c #2CEC5D45898E",
"J. c #393E5D438B06",
"K. c #0000680F8E25",
"L. c #2CBF618B8CFD",
"P. c #369061128D94",
"I. c #2D5763BB9021",
"U. c #338D6AF49B0A",
"Y. c #35EF68E69794",
"T. c #382E6F46A19B",
"R. c #38AE7499A8E9",
"E. c #3A0D7D53B584",
"W. c #29F27156A309",
"Q. c #111D7E1BB1C1",
"!. c #57CD4D99829B",
"~. c #45EC5B26878E",
"^. c #4C9856D7882A",
"/. c #47A060AC8E43",
"(. c #4B4D649E942A",
"). c #4691687A9949",
"_. c #53F56A049CC3",
"`. c #49AA6DF1A3DD",
"'. c #52B06E60A29B",
"]. c #475D74B3AB5D",
"[. c #56BA744DAA88",
"{. c #4DBF798DB2A5",
"}. c #45187B1BB533",
"|. c #52DE7EBCB9FC",
" X c #598B7BC3B642",
".X c #00BB8458B723",
"XX c #13F180C0B460",
"oX c #3D908200BC14",
"OX c #43438304BDDF",
"+X c #4F70824DBE66",
"@X c #54938246BE67",
"#X c #58348147BDB7",
"$X c #00009AFFD55D",
"%X c #006A8CA9C1D8",
"&X c #3E48871DC3A6",
"*X c #3D6A97EED89B",
"=X c #0000A1CADF07",
"-X c #0078A678E51A",
";X c #0068BA83FE34",
":X c #1BFAB00AF22A",
">X c #40E5864CC292",
",X c #4B48869DC3BF",
"<X c #42D8891CC6CD",
"1X c #43CF8CEFCC28",
"2X c #4CCE8C0ECC47",
"3X c #4B468896C7A5",
"4X c #591F85F5C49F",
"5X c #55DF8977C936",
"6X c #56068F5CD1DC",
"7X c #4550929FD42F",
"8X c #4A5F92F3D5B0",
"9X c #4BA69710DB66",
"0X c #4BA598F7DDF2",
"qX c #4575995BDD05",
"wX c #55F39589DA2A",
"eX c #45B59008D0AB",
"rX c #64E38D97CF0F",
"tX c #4BD59DE3E4BF",
"yX c #46CF9EE0E51C",
"uX c #552E9D4EE4FF",
"iX c #60499FAFE9E1",
"pX c #4C98A308EBF4",
"aX c #467FA324E8CE",
"sX c #5221A385ED46",
"dX c #5BA4A249EC94",
"fX c #47BDAD85F744",
"gX c #54ADAAE7F803",
"hX c #56A0B0B9FFFF",
"jX c #6071A49FEEDE",
"kX c #6375A941F51D",
"lX c #000ACC42FFFF",
"zX c #005FD49EFFFF",
"xX c #1F98C051FFFF",
"cX c #00ECEB33FFFF",
"vX c #0000F905FFFF",
"bX c None",
/* pixels */
"bXbXbXbXbXbXbXbXbXbXbXbXbXbXbXbXbXbXbXbXbXbXbXbXbXbXbXbXbXbXbXbXbXbXbXbXbXbXbXbXbXbXbXbXbXbXbXbXbXbXbXbXbXbXbXbXbXbXbXbXbXbXbXbX",
"bXbXbXbXbXbXbXbXbXbXbXbXbXbXbXbXbXbXbXbXbXbXbXbXbXbXbXbXbXbXbXbXbXbXbXbXbXbXbXbXbXbXbXbXbXbXbXbXbXbXbXbXbXbXbXbXbXbXbXbXbXbXbXbX",
"bXbXbXbXbXbXbXbXbXbXbXbXbXbXbXbXbXbXbXbXbXbXbXbXbXbXbXbXbXbXbXbXbXbXbXbXbXbXbXbXbXbXbXbXbXbXbXbXbXbXbXbXbXbXbXbXbXbXbXbXbXbXbXbX",
"bXbXbXbXbXbXbXbXbXbXbXbXbXbXbXbXbXbXbXbXbXbXbXbXbXbXbXbXbXbXbXbXbXbXbXbXbXbXbXbXbXbXbXbXbXbXbXbXbXbXbXbXbXbXbXbXbXbXbXbXbXbXbXbX",
"bXbXbXbXbXbXbXbXbXbXbXbXbXbXbX                . bXbXbXbXbXbXbXbXbXbXbXbXbXbXbXbXbXbXbXbXbXbXbXbXbXbXbXbXbXbXbXbXbXbXbXbXbXbXbXbX",
"bXbXbXbXbXbXbXbXbXbXbXbXbXbX          . .         bXbXbXbXbXbXbXbXbXbXbXbXbXbXbXbXbXbXbXbXbXbXbXbXbXbXbXbXbXbXbXbXbXbXbXbXbXbXbX",
"bXbXbXbXbXbXbXbXbXbXbXbXbXbX      & 8 0 8 @         bXbXbXbXbXbXbXbXbXbXbXbXbXbXbXbXbXbXbXbXbXbXbXbXbXbXbXbXbXbXbXbXbXbXbXbXbXbX",
"bXbXbXbXbXbXbXbXbXbXbXbXbXbX    @ 0 K R Y 8                 . . O           bXbXbXbXbXbXbXbXbXbXbXbXbXbXbXbXbXbXbXbXbXbXbXbXbXbX",
"bXbXbXbXbXbXbXbXbXbXbXbXbXbX    @ J T g.f.J .                 . .             bXbXbXbXbXbXbXbXbXbXbXbXbXbXbXbXbXbXbXbXbXbXbXbXbX",
"bXbXbXbXbXbXbXbXbXbXbXbXbXbXbX  @ H T d.d.Y 0 + . . @ @ .             O ; : < bXbXbXbXbXbXbXbXbXbXbXbXbXbXbXbXbXbXbXbXbXbXbXbXbX",
"bXbXbXbXbXbXbXbXbXbXbXbXbXbXbXbX@ w K Y Y Y Y K K H H q @           o g  .o...h bXbXbXbXbXbXbXbXbXbXbXbXbXbXbXbXbXbXbXbXbXbXbXbX",
"bXbXbXbXbXbXbXbXbXbXbXbXbXbXbXbXbXbX. 7 w K R g.g.f.T K 8           1 O.H.I.G. .        X < bXbXbXbXbXbXbXbXbXbXbXbXbXbXbXbXbXbX",
"bXbXbXbXbXbXbXbXbXbXbXbXbXbXbXbXbXbX    7 H s.h.B.B.g.s.J %         g G.OXeXE.1.-         X bXbXbXbXbXbXbXbXbXbXbXbXbXbXbXbXbXbX",
"bXbXbXbXbXbXbXbXbXbXbXbXbXbXbXbXbXf f f 3 u Y d.h.B.h.n.R L 7 @ . @ C J.8XsXeXH. .-           bXbXbXbXbXbXbXbXbXbXbXbXbXbXbXbXbX",
"bXbXbXbXbXbXbXbXbXbXbXbXbXbXbXbX- b O.1.@.x w H Y b.m.m.M.T K H H p ,.~.3XtXqXE.G...h           o bXbXbXbXbXbXbXbXbXbXbXbXbXbXbX",
"bXbXbXbXbXbXbXbXbXbXbXbXbXbX    ; X.u./.u.n . @ 8 _ { S.n.g.s.s.Y _ ;.J.}.8XpXyX&XY.*.<         X O bXbXbXbXbXbXbXbXbXbXbXbXbXbX",
"bXbXbXbXbXbXbXbXbXbXbXbXbXbX    ; @.^.[._.4.f X X i ' } M.g.g.g.b.{ <.a.].&XaXfXsX<XJ.X.-         X bXbXbXbXbXbXbXbXbXbXbXbXbXbX",
"bXbXbXbXbXbXbXbXbXbXbXbXbXbX    O V p.[.@XY.3.b f : i ) R M.N.N.m.A.<.!.].1XaXfXpX8XE.G.o.g -       bXbXbXbXbXbXbXbXbXbXbXbXbXbX",
"bXbXbXbXbXbXbXbXbXbXbXbXbXbX    O n r.'.4X,XR.G.+.f . # P } S.m.m.:.<.!.].eX*XyX9XeX2X>XY.8.c O     bXbXbXbXbXbXbXbXbXbXbXbXbXbX",
"bXbXbXbXbXbXbXbXbXbXbXbXbXbX    O l 2.(.5XuXtXoXt.c   . 8 _ >.:.} } <.!.].eX*X*X<X1XtXtX<XL...-     bXbXbXbXbXbXbXbXbXbXbXbXbXbX",
"bXbXbXbXbXbXbXbXbXbXbXbXbXbX    O j 2.(.4XiXdX8XT.1.g O > z ) P P P ' a.].7XqX7X1X8XsXhXtXU.*.-     bXbXbXbXbXbXbXbXbXbXbXbXbXbX",
"bXbXbXbXbXbXbXbXbXbXbXbXbXbX    X v 2.(.4XuXuX9X>XY.9.@.j > & # & # x 0.T.7XyXtX0XtXgXhXtXU.o.-     bXbXbXbXbXbXbXbXbXbXbXbXbXbX",
"bXbXbXbXbXbXbXbXbXbXbXbXbXbX    O n 0.(.@X6X8XeX2X}.).w.@.>         h 8.T.8XtXtX0X0XpXgXeXI...;     bXbXbXbXbXbXbXbXbXbXbXbXbXbX",
"bXbXbXbXbXbXbXbXbXbXbXbXbXbX    X n 0.(.@X3X<X<X,X|.'.p.$.3         g 9.R.eXtXeXE.oXeXtX1XL.X.-     bXbXbXbXbXbXbXbXbXbXbXbXbXbX",
"bXbXbXbXbXbXbXbXbXbXbXbXbXbX    O n 0.(.#X2X3X&X}.).y.0.#. .g , ; h X.G.oX1X>XT.G.L.R.7X*XI.o.-     bXbXbXbXbXbXbXbXbXbXbXbXbXbX",
"bXbXbXbXbXbXbXbXbXbXbXbXbXbX    O j &.(.#XwX8XOXI.8. .C #.2.e.0.&.2.u.R.3X1XT.8.m X.G.&X7XR.1.<     bXbXbXbXbXbXbXbXbXbXbXbXbXbX",
"bXbXbXbXbXbXbXbXbXbXbXbXbXbX    O l 0.(.4XuXtXoXt.c X + V p.'.'.(.(._.3X9X1XL.b + ; 8.E.7XR.8.<     bXbXbXbXbXbXbXbXbXbXbXbXbXbX",
"bXbXbXbXbXbXbXbXbXbXbXbXbXbX    X n 0._.6XdXuXoX4.-     j p. XrX X[.@XwXpX&Xt.-     m Y.<XT.o.-     bXbXbXbXbXbXbXbXbXbXbXbXbXbX",
"bXbXbXbXbXbXbXbXbXbXbXbX        X m r.[.rXkXsXE.4.      3 i.[.rX4X|.2XuXsXOXe.o     j J.{.P. .      bXbXbXbXbXbXbXbXbXbXbXbXbXbX",
"bXbXbXbXbXbXbXbXbXbXbX+         X  .q.[.rXkXtXE.4.:     4 i.'.|.|.,X1XtXpXOXt.1     j y._.J.V       bXbXbXbXbXbXbXbXbXbXbXbXbXbX",
"bXbXbXbXbXbXbXbXbXbXbXX         O C 0./.@XwXtXE.t.b o ; C y.'.4X,X1X7XyXtX1XG.b - 6 #.p._.J.#.<     bXbXbXbXbXbXbXbXbXbXbXbXbXbX",
"bXbXbXbXbXbXbXbXbXbX      . @ 9 r x @.8.J.}.2X,XU.9.X...e.).3XwX0XqXyXaXyX1XT.4.X...e.).`.).u.o.b h : bXbXbXbXbXbXbXbXbXbXbXbXbX",
"bXbXbXbXbXbXbXbXbXbXbX    = y L W y 5 g O.H.{.@X{.Y.L.I.R.3X0XsXsXpXaXyXqX&XE.U.I.I.T.oXOXOXoXY.t.1.1   bXbXbXbXbXbXbXbXbXbXbXbX",
"bXbXbXbXbXbXbXbXbXbXbX    = W Q ~ U #   : O.~. X4X,X&X&X1X7X9XqXyXqX8XeXeX1X&X&XoXOXoXOX<XeXtXqXoX4.c     bXbXbXbXbXbXbXbXbXbXbX",
"bXbXbXbXbXbXbXbXbXbXbX    r W C.j.! q . X l 2./.|.6X0X9X1XE.T.Y.Y.U.].}.>X2X8X0X0X9X8X1XeX0XgXdXOXe.v       bXbXbXbXbXbXbXbXbXbX",
"bXbXbXbXbXbXbXbXbXbXbX    r W z.k.j.U q 7 > M &.).3XwX6X].e...n n ..8.J.].5XwXwXwX6X2X+X5XwXdXwX].9.c       bXbXbXbXbXbXbXbXbXbX",
"bXbXbXbXbXbXbXbXbXbXbX    9 L ~ j.k.j.E L 7 @ g 8.`.4X].u.m .       l 0.(. X5X4X@X@X[.].{.4XrX#X(.&.g       bXbXbXbXbXbXbXbXbXbX",
"bXbXbXbXbXbXbXbXbXbXbX    $ L Q k.v.k.j.! 8 . X b r.(.~.2.1         < #.y.).[.'._.p././.(._.[._.~.*.k     bXbXbXbXbXbXbXbXbXbXbX",
"bXbXbXbXbXbXbXbXbXbXbX    $ u Q k.Z.Z.c.! q     :  .2.0.o.b c , f f b X.&.w.i.i.i.i.w.0.0.r.~.(.p.$.k     bXbXbXbXbXbXbXbXbXbXbX",
"bXbXbXbXbXbXbXbXbXbXbX    $ L Q k.Z.Z.k.! e .     ; j #.1.5.K.K.K.K.5.+.m n C F %.2.V n n C &.bXbXbXbXbXbXbXbXbXbXbXbXbXbXbXbXbX",
"bXbXbXbXbXbXbXbXbXbXbX    $ L Q k.Z.k.j.W y *       . b 5..X-X;X;X-XQ.3.f   @ a G A M ; o   bXbXbXbXbXbXbXbXbXbXbXbXbXbXbXbXbXbX",
"bXbXbXbXbXbXbXbXbXbXbX    $ u Q x.k.k.( W s 2         f 6.$XlXvXvXzX$X6.f   . 9 B N 4 +     bXbXbXbXbXbXbXbXbXbXbXbXbXbXbXbXbXbX",
"bXbXbXbXbXbXbXbXbXbXbX    = u ! z.k.k.( W s 2         f 6.-XzXvXvXzX-X6.,   . 9 B N 5       bXbXbXbXbXbXbXbXbXbXbXbXbXbXbXbXbXbX",
"bXbXbXbXbXbXbXbXbXbXbX    @ t I / x.x.( ! y *         c 6.$XlXcXcXlX$X5.f   @ r G A d *     bXbXbXbXbXbXbXbXbXbXbXbXbXbXbXbXbXbX",
"bXbXbXbXbXbXbXbXbXbXbX    % t I / x.x.z.! y *         c 5.%X;XzXlX;X.X3.f   @ a S F v 6     bXbXbXbXbXbXbXbXbXbXbXbXbXbXbXbXbXbX",
"bXbXbXbXbXbXbXbXbXbXbX    % e I / c.c.z.! s *         g 7.Q.:X:X:X:XQ.3.f   @ a F D B 2     bXbXbXbXbXbXbXbXbXbXbXbXbXbXbXbXbXbX",
"bXbXbXbXbXbXbXbXbXbX      $ u I l.c.c./ W y *         h 1.W.*XfXfX*XW.O.:   . 4 S D B 2     bXbXbXbXbXbXbXbXbXbXbXbXbXbXbXbXbXbX",
"bXbXbXbXbXbXbXbXbXbXbX    @ p I l.l.l.^ I t *         < *.J.|.rXwX|.J...-     a S F M 6     bXbXbXbXbXbXbXbXbXbXbXbXbXbXbXbXbXbX",
"bXbXbXbXbXbXbXbXbXbXbX    = t L ^ ^ ^ I L 0 +         4 $.q.^._._.^.w.V 6 6 6 M S S M 6     bXbXbXbXbXbXbXbXbXbXbXbXbXbXbXbXbXbX",
"bXbXbXbXbXbXbXbXbXbXbXbX  @ 9 t u L L p r & .     6 4 B Z %.=.=.=.=.%.C d 4 M S D S k O     bXbXbXbXbXbXbXbXbXbXbXbXbXbXbXbXbXbX",
"bXbXbXbXbXbXbXbXbXbXbXbXbX. @ = = $ = = @ .   . 2 M Z Z N j 3 3 3 k 4 M B G D | | N 4 +     bXbXbXbXbXbXbXbXbXbXbXbXbXbXbXbXbXbX",
"bXbXbXbXbXbXbXbXbXbXbXbXbXbX                  + a G D S M O       . 6 4 G D | D S M 2 +     bXbXbXbXbXbXbXbXbXbXbXbXbXbXbXbXbXbX",
"bXbXbXbXbXbXbXbXbXbXbXbXbXbXbX                X < v A B 1 +           2 M A A A M 5 6 +     bXbXbXbXbXbXbXbXbXbXbXbXbXbXbXbXbXbX",
"bXbXbXbXbXbXbXbXbXbXbXbXbXbXbXbX                - 1 1 1 o               6 1 5 1 6 o o bXbXbXbXbXbXbXbXbXbXbXbXbXbXbXbXbXbXbXbXbX",
"bXbXbXbXbXbXbXbXbXbXbXbXbXbXbXbXbXbX              X X X +                 +           bXbXbXbXbXbXbXbXbXbXbXbXbXbXbXbXbXbXbXbXbX",
"bXbXbXbXbXbXbXbXbXbXbXbXbXbXbXbXbXbX      . .   + . .         o X X     +     +   +   bXbXbXbXbXbXbXbXbXbXbXbXbXbXbXbXbXbXbXbXbX",
"bXbXbXbXbXbXbXbXbXbXbXbXbXbXbXbXbXbX    . 7 q J H H w 8 @ .   X     . % & i i i i i & % bXbXbXbXbXbXbXbXbXbXbXbXbXbXbXbXbXbXbXbX",
"bXbXbXbXbXbXbXbXbXbXbXbXbXbXbXbXbXbX    # w Y s.d.s.T K w @         + i p ) _ _ ) z i %     bXbXbXbXbXbXbXbXbXbXbXbXbXbXbXbXbXbX",
"bXbXbXbXbXbXbXbXbXbXbXbXbXbXbXbXbXbX    # J s.h.B.h.g.T H #         * p ) [ :.:.>.` z %     bXbXbXbXbXbXbXbXbXbXbXbXbXbXbXbXbXbX",
"bXbXbXbXbXbXbXbXbXbXbXbXbXbXbXbXbXbX    7 J b.N.V.B.n.f.J &         & z ] :.D.D.:.] p %     bXbXbXbXbXbXbXbXbXbXbXbXbXbXbXbXbXbX",
"bXbXbXbXbXbXbXbXbXbXbXbXbXbXbXbXbXbX    @ P } m.N.N.n.} p @       bXbXbXbXbXbXbXbXbXp %   bXbXbXbXbXbXbXbXbXbXbXbXbXbXbXbXbXbXbX",
"bXbXbXbXbXbXbXbXbXbXbXbXbXbXbXbXbXbX    & p _ M.S.S.{ _ p %     bXbXbXbXbXbXbXbXbXbXbXbXbXbXbXbXbXbXbXbXbXbXbXbXbXbXbXbXbXbXbXbX",
"bXbXbXbXbXbXbXbXbXbXbXbXbXbXbXbXbXbX    % p ' >.:.:.[ ) i O     bXbXbXbXbXbXbXbXbXbXbXbXbXbXbXbXbXbXbXbXbXbXbXbXbXbXbXbXbXbXbXbX",
"bXbXbXbXbXbXbXbXbXbXbXbXbXbXbXbXbXbX    ; i ' ;.>.<.;.z i +     bXbXbXbXbXbXbXbXbXbXbXbXbXbXbXbXbXbXbXbXbXbXbXbXbXbXbXbXbXbXbXbX"
};
