/* XPM */
static char * r0_xpm[] = {
"64 64 357 2",
"  	c None",
". 	c #D9945F",
"+ 	c #D58B62",
"@ 	c #D78F60",
"# 	c #ECC051",
"$ 	c #F0C950",
"% 	c #E6B257",
"& 	c #EEC650",
"* 	c #E2AA58",
"= 	c #DEA05C",
"- 	c #F1CB47",
"; 	c #FFED40",
"> 	c #FFF642",
", 	c #FFEF43",
"' 	c #EEC152",
") 	c #E5AF57",
"! 	c #F7D94A",
"~ 	c #D58D65",
"{ 	c #E0A44F",
"] 	c #FFF77F",
"^ 	c #FFF592",
"/ 	c #FFEC37",
"( 	c #FFEF48",
"_ 	c #D1905D",
": 	c #EDBF52",
"< 	c #FFF741",
"[ 	c #F2CE4E",
"} 	c #E2A859",
"| 	c #F6D149",
"1 	c #FFFDB8",
"2 	c #FEF8CA",
"3 	c #FFF565",
"4 	c #888232",
"5 	c #FFF546",
"6 	c #FDEA44",
"7 	c #F4D44C",
"8 	c #E9BA53",
"9 	c #DBBE4B",
"0 	c #FFFB5C",
"a 	c #FAF4CB",
"b 	c #FFFC92",
"c 	c #6C6724",
"d 	c #DC9C5D",
"e 	c #E8B754",
"f 	c #FCE646",
"g 	c #4B4A31",
"h 	c #D2C53D",
"i 	c #FFFFFD",
"j 	c #FFFFD8",
"k 	c #8E8737",
"l 	c #182132",
"m 	c #434433",
"n 	c #D7CFA8",
"o 	c #FEF7D8",
"p 	c #E2CC98",
"q 	c #2F2E36",
"r 	c #36646A",
"s 	c #386E7A",
"t 	c #101025",
"u 	c #11172D",
"v 	c #534D48",
"w 	c #E5D197",
"x 	c #A59576",
"y 	c #655F56",
"z 	c #121427",
"A 	c #407A7E",
"B 	c #53AFB4",
"C 	c #366975",
"D 	c #161C30",
"E 	c #181C2E",
"F 	c #0A1228",
"G 	c #887862",
"H 	c #7A6C5B",
"I 	c #57504A",
"J 	c #484646",
"K 	c #161C2E",
"L 	c #1B2633",
"M 	c #30545C",
"N 	c #52A8AA",
"O 	c #4FA4A3",
"P 	c #528499",
"Q 	c #222240",
"R 	c #151D2D",
"S 	c #172032",
"T 	c #4F6E45",
"U 	c #2A4438",
"V 	c #36353C",
"W 	c #1B2031",
"X 	c #484146",
"Y 	c #1A1E30",
"Z 	c #10152C",
"` 	c #6B9751",
" .	c #4B8649",
"..	c #152434",
"+.	c #3E818E",
"@.	c #458C9E",
"#.	c #384967",
"$.	c #284C5F",
"%.	c #3B7C8E",
"&.	c #3C5173",
"*.	c #20243D",
"=.	c #131224",
"-.	c #61AA55",
";.	c #25523B",
">.	c #3D3842",
",.	c #917669",
"'.	c #4A4247",
").	c #445B40",
"!.	c #90E565",
"~.	c #319449",
"{.	c #2C535E",
"].	c #3C728C",
"^.	c #3B788C",
"/.	c #40718C",
"(.	c #405479",
"_.	c #292E4B",
":.	c #274659",
"<.	c #2C3C58",
"[.	c #224B38",
"}.	c #1F5139",
"|.	c #242635",
"1.	c #826C63",
"2.	c #5D5150",
"3.	c #050428",
"4.	c #699350",
"5.	c #58D05D",
"6.	c #367057",
"7.	c #346676",
"8.	c #41859A",
"9.	c #406584",
"0.	c #39677F",
"a.	c #337382",
"b.	c #3F728C",
"c.	c #455B82",
"d.	c #2E3356",
"e.	c #10172B",
"f.	c #2D2A3A",
"g.	c #232335",
"h.	c #1F4E39",
"i.	c #272C30",
"j.	c #55B654",
"k.	c #39905E",
"l.	c #426F72",
"m.	c #3E8898",
"n.	c #3D8D9C",
"o.	c #3F8A9B",
"p.	c #446C8C",
"q.	c #424E76",
"r.	c #404B74",
"s.	c #425078",
"t.	c #212740",
"u.	c #19202F",
"v.	c #66934E",
"w.	c #45543E",
"x.	c #266B40",
"y.	c #25593D",
"z.	c #1E303B",
"A.	c #233249",
"B.	c #2D6F37",
"C.	c #419361",
"D.	c #273441",
"E.	c #336B7E",
"F.	c #436F8D",
"G.	c #41567A",
"H.	c #31355A",
"I.	c #212442",
"J.	c #222F43",
"K.	c #233143",
"L.	c #182635",
"M.	c #0C0F29",
"N.	c #1A2631",
"O.	c #56BA56",
"P.	c #68C65A",
"Q.	c #28513B",
"R.	c #172131",
"S.	c #3B6E71",
"T.	c #59B0AF",
"U.	c #398071",
"V.	c #41827F",
"W.	c #316172",
"X.	c #40889B",
"Y.	c #334666",
"Z.	c #1A1C34",
"`.	c #243B42",
" +	c #297541",
".+	c #32A14A",
"++	c #37AB4D",
"@+	c #7FCB5D",
"#+	c #467B47",
"$+	c #0D0F2A",
"%+	c #257141",
"&+	c #35C454",
"*+	c #1E4C38",
"=+	c #15122E",
"-+	c #39696F",
";+	c #5AB7B3",
">+	c #4FA1A9",
",+	c #4591A0",
"'+	c #4290A2",
")+	c #356C7F",
"!+	c #243641",
"~+	c #2D4A4C",
"{+	c #43776A",
"]+	c #3CBA57",
"^+	c #3AB953",
"/+	c #35AC50",
"(+	c #57B755",
"_+	c #93E866",
":+	c #4E934D",
"<+	c #0E1A2D",
"[+	c #1D3834",
"}+	c #234739",
"|+	c #232635",
"1+	c #151C2E",
"2+	c #171D2E",
"3+	c #366973",
"4+	c #3E8998",
"5+	c #3C8596",
"6+	c #397C8D",
"7+	c #192333",
"8+	c #2F4C4F",
"9+	c #406E67",
"0+	c #3E7762",
"a+	c #234E3D",
"b+	c #182230",
"c+	c #133433",
"d+	c #255B3D",
"e+	c #2E7242",
"f+	c #2E8947",
"g+	c #1C3634",
"h+	c #19182F",
"i+	c #695956",
"j+	c #202433",
"k+	c #15182A",
"l+	c #2B3855",
"m+	c #375470",
"n+	c #3F6784",
"o+	c #3E7990",
"p+	c #416C89",
"q+	c #222541",
"r+	c #2D4C4C",
"s+	c #467B6F",
"t+	c #3F6B66",
"u+	c #3B6161",
"v+	c #375D5B",
"w+	c #1E3E36",
"x+	c #1A2F32",
"y+	c #232634",
"z+	c #15192C",
"A+	c #24394D",
"B+	c #3F8296",
"C+	c #3E7E93",
"D+	c #3E8194",
"E+	c #3E8396",
"F+	c #416484",
"G+	c #252B45",
"H+	c #305151",
"I+	c #417367",
"J+	c #44786B",
"K+	c #2A4548",
"L+	c #21394B",
"M+	c #4190A2",
"N+	c #418B9C",
"O+	c #418A9B",
"P+	c #418B9B",
"Q+	c #425E80",
"R+	c #404A73",
"S+	c #364265",
"T+	c #384D63",
"U+	c #3F6B64",
"V+	c #34415E",
"W+	c #272E49",
"X+	c #20384B",
"Y+	c #2C596B",
"Z+	c #2D7289",
"`+	c #2E7A8F",
" @	c #2F6180",
".@	c #35416D",
"+@	c #3D4E75",
"@@	c #415079",
"#@	c #404E77",
"$@	c #2F3E62",
"%@	c #3F4F79",
"&@	c #314064",
"*@	c #14182C",
"=@	c #2B474A",
"-@	c #37A352",
";@	c #214D39",
">@	c #192030",
",@	c #574B48",
"'@	c #876E5A",
")@	c #72685B",
"!@	c #6C635A",
"~@	c #6F6359",
"{@	c #5F575B",
"]@	c #34374C",
"^@	c #272F45",
"/@	c #1F263A",
"(@	c #4C444A",
"_@	c #383949",
":@	c #47434D",
"<@	c #171B2E",
"[@	c #345A57",
"}@	c #40C75A",
"|@	c #26663E",
"1@	c #212232",
"2@	c #282636",
"3@	c #4E4443",
"4@	c #4F4544",
"5@	c #504947",
"6@	c #423C40",
"7@	c #61504C",
"8@	c #796257",
"9@	c #3C383F",
"0@	c #6F5D58",
"a@	c #4A4145",
"b@	c #252735",
"c@	c #1E2B39",
"d@	c #21423A",
"e@	c #192D31",
"f@	c #2E5068",
"g@	c #3E708D",
"h@	c #2D4B6C",
"i@	c #2D4267",
"j@	c #2B3A5F",
"k@	c #333E5D",
"l@	c #2B3552",
"m@	c #3B3841",
"n@	c #403A42",
"o@	c #3F3A42",
"p@	c #272836",
"q@	c #0C1529",
"r@	c #171E30",
"s@	c #213A4B",
"t@	c #284E5F",
"u@	c #2D5467",
"v@	c #2D4E62",
"w@	c #3D4B6F",
"x@	c #3F4B70",
"y@	c #333F5F",
"z@	c #222B44",
"A@	c #705D58",
"B@	c #3A3640",
"C@	c #2B2B38",
"D@	c #725F5A",
"E@	c #121224",
"F@	c #1A2034",
"G@	c #1A1D2B",
"H@	c #34323D",
"I@	c #0B1429",
"J@	c #292A37",
"K@	c #171E31",
"L@	c #151B2D",
"M@	c #171D2F",
"N@	c #151C2F",
"O@	c #181E2F",
"P@	c #12192C",
"                                                                                                                                ",
"                                                                                                                                ",
"                                                                                                                                ",
"                                                                                                                                ",
"                                                                                                                                ",
"                                                                                                                                ",
"                                                                                                                                ",
"                                                                                                                                ",
"                                                                                                                                ",
"                                                                                                                                ",
"                                                                                                                                ",
"                                                                                                                                ",
"                                          .                                                                                     ",
"                                  . + @     .                                                                                   ",
"                              # $ % & *                                                                                         ",
"                              = - ; > , '     ) !                                                                               ",
"                            ~ { ] ^ / ( _ : < [ }                                                                               ",
"                              | 1 2 3 4   5 6 7 8                                                                               ",
"                              9 0 a b c     d e f                                                                               ",
"                              g h i j k               l                                                                         ",
"                                m n o p q             r s t                                                                     ",
"                                u v w x y           z A B C D           E                                                       ",
"                                F G H I J     K L   M N O P Q R S     T U                                                       ",
"                                  V W X Y     Z `  ...+.@.#.$.%.&.*.=.-.;.                                                      ",
"                                    >.,.'.      ).!.~.{.].^./.(._.:.<.[.}.                                                      ",
"                                    |.1.2.      3.4.5.6.7.8.9.0.a.b.c.d.                                                        ",
"                                    e.f.g.h.      i.j.k.l.m.n.o.p.q.r.s.t.                                                      ",
"                                    u.v.w.x.y.  z.A.B.C.D.E.F.G.H.I.J.K.L.M.                                                    ",
"                                    N.O.P.Q.R.  S.T.U.V.W.X.Y.Z.`. +.+++@+#+$+                                                  ",
"                                      %+&+*+=+  -+;+>+,+'+)+!+~+{+]+^+/+(+_+:+<+                                                ",
"                                      [+}+|+1+  2+3+4+5+o.6+7+8+9+0+a+b+c+d+e+f+g+                                              ",
"                                        h+i+j+1+k+l+m+n+o+p+q+r+s+t+u+v+      w+x+                                              ",
"                                          y+    z+A+B+C+D+E+F+G+H+I+J+K+                                                        ",
"                                                  L+M+N+O+P+Q+R+S+T+U+V+W+    b+                                                ",
"                                                  X+Y+Z+`+ @.@+@@@#@$@%@&@*@=@-@;@                                              ",
"                                                >@,@'@)@!@~@{@]@^@/@(@_@:@<@[@}@|@                                              ",
"                                                  1@2@3@4@5@6@7@8@9@0@a@b@  c@d@e@                                              ",
"                                                  f@g@h@i@j@j@k@l@m@n@o@p@q@                                                    ",
"                                                r@s@t@u@v@w@x@y@z@A@B@C@D@C@                                                    ",
"                                                      E@    F@  G@H@  I@J@                                                      ",
"                                                      r@K@L@L@M@N@e.K O@P@                                                      ",
"                                                K K K K K K K K K 2+K K 2+K K K                                                 ",
"                                                K K K K K K K K K K K K K K K K                                                 ",
"                                                    K K K K K K K K K K K K                                                     ",
"                                                                                                                                ",
"                                                                                                                                ",
"                                                                                                                                ",
"                                                                                                                                ",
"                                                                                                                                ",
"                                                                                                                                ",
"                                                                                                                                ",
"                                                                                                                                ",
"                                                                                                                                ",
"                                                                                                                                ",
"                                                                                                                                ",
"                                                                                                                                ",
"                                                                                                                                ",
"                                                                                                                                ",
"                                                                                                                                ",
"                                                                                                                                ",
"                                                                                                                                ",
"                                                                                                                                ",
"                                                                                                                                ",
"                                                                                                                                "};
