/* XPM */
static char *result[] = {
/* columns rows colors chars-per-pixel */
"64 64 229 2 ",
"   c #008900600066",
".  c #0B860219023E",
"X  c #02B1059C0A22",
"o  c #0CB5046209B9",
"O  c #03350A010C74",
"+  c #0B460BAA0BC7",
"@  c #00000B4005D6",
"#  c #139903990317",
"$  c #1BB402B10220",
"%  c #1C2B0A1802C1",
"&  c #14B4021B0A91",
"*  c #11780D600D5B",
"=  c #150B0A9406CE",
"-  c #16BD11570BFE",
";  c #04F30CE7135E",
":  c #09A80C041209",
">  c #07560C2F170B",
",  c #151209C7185F",
"<  c #036F13311ABE",
"1  c #092812421AAA",
"2  c #09D413DD153C",
"3  c #138113821315",
"4  c #12B712FA1C37",
"5  c #1B9A1BC91B14",
"6  c #19CE15881A13",
"7  c #05E610A10C26",
"8  c #22F702A50264",
"9  c #29B502050106",
"0  c #2CA90E960930",
"q  c #27D509620593",
"w  c #3A5901DB03CD",
"e  c #35E8088E06D1",
"r  c #25DD1098070A",
"t  c #35CD114B0AE6",
"y  c #3AF9181C0760",
"u  c #26F706F317C8",
"i  c #355B06891B6E",
"p  c #257615EE171D",
"a  c #35881CF81420",
"s  c #168E21781E7E",
"d  c #22ED212F1F3B",
"f  c #030019AA2372",
"g  c #0A4B1A7C258B",
"h  c #0D641CB62AF0",
"j  c #091D17312170",
"k  c #185514782128",
"l  c #16101A7D269C",
"z  c #384E0ADC21A9",
"x  c #3B0A141C3130",
"c  c #2C1818C623EA",
"v  c #055F20EA2E21",
"b  c #197222AE2868",
"n  c #08CB25F33953",
"m  c #11BE224031F6",
"M  c #1AD9226C3352",
"N  c #13142ABA3D1F",
"B  c #1B032AA33CC1",
"V  c #1C8424BE39DF",
"C  c #2447245C2471",
"Z  c #2BB12C0E2BAE",
"A  c #29BE2735272E",
"S  c #258B284C3916",
"D  c #33C133C533C7",
"F  c #3A963AE13B17",
"G  c #36D8376439C8",
"H  c #2F2230D3313D",
"J  c #4413055F04DB",
"K  c #573C0473057F",
"L  c #43B219F105C9",
"P  c #49D0176F0969",
"I  c #55F91AAA0000",
"U  c #5A28095710FA",
"Y  c #57501BCD1209",
"T  c #4A850E931699",
"R  c #681C047705BE",
"E  c #76E607A708B3",
"W  c #7E52083B17D8",
"Q  c #60CB1E971429",
"!  c #5C8924B10CA8",
"~  c #51A820E20AE4",
"^  c #5DEA20AA0FC3",
"/  c #6C762A000989",
"(  c #6549262607F3",
")  c #7EA831700BFC",
"_  c #7AC8292315B5",
"`  c #714A26910A5D",
"'  c #43060A6424A2",
"]  c #5B65121734A2",
"[  c #4D5C10FB2DDD",
"{  c #6A3415F63A35",
"}  c #7BE0131C3E26",
"|  c #69F309C32B95",
" . c #17522D4A4533",
".. c #1B1334724BD4",
"X. c #167E33794A39",
"o. c #1AD939F35368",
"O. c #1AC337D352F1",
"+. c #05853C955481",
"@. c #22A82E0C4467",
"#. c #33012A1D45EE",
"$. c #2ABF33354B59",
"%. c #247B338A4B0F",
"&. c #32E333904653",
"*. c #293E3A4354F9",
"=. c #36263B6857E0",
"-. c #75DF17DE436E",
";. c #517625B64E2D",
":. c #6A232A675BCA",
">. c #0000424F5876",
",. c #1A3A41885D04",
"<. c #3A3F42FD5D2D",
"1. c #299641545F95",
"2. c #1ADE48B46889",
"3. c #03995515766B",
"4. c #0C864CB66BC2",
"5. c #21AA447063B0",
"6. c #2BBA42C56229",
"7. c #26ED4A816C32",
"8. c #3821467868B3",
"9. c #258F4CA872D5",
"0. c #2CCF4E1C725E",
"q. c #3BC74D7C730E",
"w. c #29DF54EC7AFF",
"e. c #3C8453367B15",
"r. c #358551D77816",
"t. c #48944C437640",
"y. c #42E6557C7D7C",
"u. c #404E525A7706",
"i. c #843D065108A6",
"p. c #962907B80ADA",
"a. c #89F50C9611DE",
"s. c #9EF00CEC1622",
"d. c #AA4E0BEE1552",
"f. c #B6570DC7140B",
"g. c #B03D0BB80D31",
"h. c #8C05353E0EAF",
"j. c #8608327E0A2F",
"k. c #918037110BFA",
"l. c #93FD39360E08",
"z. c #9D403CA60F02",
"x. c #84282BD0182A",
"c. c #89F134CA12FC",
"v. c #95C335DD1619",
"b. c #966C133926D1",
"n. c #8A011605378D",
"m. c #93210E24327F",
"M. c #A6CE12402AEE",
"N. c #C9060E0515A8",
"B. c #A713439A153A",
"V. c #86071A0549A6",
"C. c #9ACD1FF158E0",
"Z. c #2AB75C37855D",
"A. c #36E05AC58550",
"S. c #3E175EF590C6",
"D. c #00006F8898E2",
"F. c #2D2362988EF1",
"G. c #303761C28DD1",
"H. c #2EBF658A9327",
"J. c #33A56C509CA8",
"K. c #3B0467BC96F2",
"L. c #3ABD6E3DA331",
"P. c #365471E8A4E6",
"I. c #39CC7533AA2E",
"U. c #3BF87D32B566",
"Y. c #39677E52B6FA",
"T. c #57B54CBB82B7",
"R. c #42385A8B8552",
"E. c #474B5ACA86B9",
"W. c #4BFE4BC780FD",
"Q. c #452D60E78E2D",
"!. c #4D7561168DFB",
"~. c #4A7F658C9554",
"^. c #4DB46AF09CB9",
"/. c #47F966D196DA",
"(. c #54F667EC99B6",
"). c #4B8E6E19A276",
"_. c #45996E0FA426",
"`. c #52596F10A368",
"'. c #46F07390AA93",
"]. c #5A0675AAAD39",
"[. c #51D67366A98A",
"{. c #4A957EBEBADA",
"}. c #47E67B1EB422",
"|. c #58787C3EB6FB",
" X c #00008B5ABDD9",
".X c #3DD18300BDB0",
"XX c #2C1B83FBBB72",
"oX c #49938301BEDF",
"OX c #55748179BCAD",
"+X c #00009B6FD34A",
"@X c #09AB9344CCAB",
"#X c #3EB38945C61D",
"$X c #3F8A9BF3DE12",
"%X c #011ABE07FFFF",
"&X c #3D6EB0C6FAB2",
"*X c #42F086D0C3A6",
"=X c #42CC891BC6D7",
"-X c #433E8CBFCBCD",
";X c #4C6E8C72CCC3",
":X c #4C6484A2C281",
">X c #52988553C269",
",X c #54768B6CCCC5",
"<X c #5B378916C8C0",
"1X c #45B28F8AD06B",
"2X c #56168F1AD15B",
"3X c #45619182D2B1",
"4X c #4A9E9288D573",
"5X c #4B459632DA33",
"6X c #41FD987CDAF6",
"7X c #4A629952DE1F",
"8X c #44BF9578D877",
"9X c #5760954AD99E",
"0X c #43D29056CFCC",
"qX c #63538C5ECD75",
"wX c #4C769DBBE4BB",
"eX c #47479C2DE213",
"rX c #52989C79E3E1",
"tX c #5BB79DD5E5D2",
"yX c #4C62A247EAF6",
"uX c #45CBA3E9E981",
"iX c #5885A383EDA3",
"pX c #4D1DAA7AF56E",
"aX c #537EA8BEF4B9",
"sX c #61BCA62CF04B",
"dX c #1DD1C9ADFFFF",
"fX c #01E5D849FFFF",
"gX c #239BE6E6FFFF",
"hX c #4717CA46FFFF",
"jX c None",
/* pixels */
"jXjXjXjXjXjXjXjXjXjXjXjXjXjXjXjXjXjXjXjXjXjXjXjXjXjXjXjXjXjXjXjXjXjXjXjXjXjXjXjXjXjXjXjXjXjXjXjXjXjXjXjXjXjXjXjXjXjXjXjXjXjXjXjX",
"jXjXjXjXjXjXjXjXjXjXjXjXjXjXjXjXjXjXjXjXjXjXjXjXjXjXjXjXjXjXjXjXjXjXjXjXjXjXjXjXjXjXjXjXjXjXjXjXjXjXjXjXjXjXjXjXjXjXjXjXjXjXjXjX",
"jXjXjXjXjXjXjXjXjXjXjXjXjXjXjXjXjXjXjXjXjXjXjXjXjXjXjXjXjXjXjXjXjXjXjXjXjXjXjXjXjXjXjXjXjXjXjXjXjXjXjXjXjXjXjXjXjXjXjXjXjXjXjXjX",
"jXjXjXjXjXjXjXjXjXjXjXjXjXjXjXjXjXjXjXjXjXjXjXjXjXjXjXjXjXjXjXjXjXjXjXjXjXjXjXjXjXjXjXjXjXjXjXjXjXjXjXjXjXjXjXjXjXjXjXjXjXjXjXjX",
"jXjXjXjXjXjXjXjXjXjXjXjXjXjXjXjXjXjXjXjXjXjXjXjXjXjXjXjXjXjXjXjXjXjXjXjXjXjXjXjXjXjXjXjXjXjXjXjXjXjXjXjXjXjXjXjXjXjXjXjXjXjXjXjX",
"jXjXjXjXjXjXjXjXjXjXjXjXjXjXjXjXjXjXjXjXjXjXjXjXjXjXjXjXjXjXjXjXjXjXjXjXjXjXjXjXjXjXjXjXjXjXjXjXjXjXjXjXjXjXjXjXjXjXjXjXjXjXjXjX",
"jXjXjXjXjXjXjXjXjXjXjXjXjXjXjXjXjXjXjXjXjXjXjXjXjXjXjXjXjXjXjXjXjXjXjXjXjXjXjXjXjXjXjXjXjXjXjXjXjXjXjXjXjXjXjXjXjXjXjXjXjXjXjXjX",
"jXjXjXjXjXjXjXjXjXjXjXjXjXjXjX                # jXjXjXjXjXjXjXjXjXjXjXjXjXjXjXjXjXjXjXjXjXjXjXjXjXjXjXjXjXjXjXjXjXjXjXjXjXjXjXjX",
"jXjXjXjXjXjXjXjXjXjXjXjXjXjX                    . jXjXjXjXjXjXjXjXjXjXjXjXjXjXjXjXjXjXjXjXjXjXjXjXjXjXjXjXjXjXjXjXjXjXjXjXjXjXjX",
"jXjXjXjXjXjXjXjXjXjXjXjXjXjX      . # # # .       jXjXjXjXjXjXjXjXjXjXjXjXjXjXjXjXjXjXjXjXjXjXjXjXjXjXjXjXjXjXjXjXjXjXjXjXjXjXjX",
"jXjXjXjXjXjXjXjXjXjXjXjXjXjX    . 8 w K J $         jXjXjXjXjXjXjXjXjX  jXjXjXjXjXjXjXjXjXjXjXjXjXjXjXjXjXjXjXjXjXjXjXjXjXjXjXjX",
"jXjXjXjXjXjXjXjXjXjXjXjXjXjX    # e R a.W w                 . o o             jXjXjXjXjXjXjXjXjXjXjXjXjXjXjXjXjXjXjXjXjXjXjXjXjX",
"jXjXjXjXjXjXjXjXjXjXjXjXjXjX    # J i.g.s.K $                                 jXjXjXjXjXjXjXjXjXjXjXjXjXjXjXjXjXjXjXjXjXjXjXjXjX",
"jXjXjXjXjXjXjXjXjXjXjXjXjXjXjX  # J E i.i.R J q 8 9 9 8 o           @ < g m m > jXjXjXjXjXjXjXjXjXjXjXjXjXjXjXjXjXjXjXjXjXjXjXjX",
"jXjXjXjXjXjXjXjXjXjXjXjXjXjXjXjXjX9 w J K K R E E E K J 8           ; N 5.9.5.M         O jXjXjXjXjXjXjXjXjXjXjXjXjXjXjXjXjXjXjX",
"jXjXjXjXjXjXjXjXjXjXjXjXjXjXjXjXjXjX  . 9 K i.g.f.g.p.R e .         1 7.P.U.H...        X ; jXjXjXjXjXjXjXjXjXjXjXjXjXjXjXjXjXjX",
"jXjXjXjXjXjXjXjXjXjXjXjXjXjXjXjXjXjXX O * J a.d.N.N.d.a.U e .       M A.1XwX#X9.g             jXjXjXjXjXjXjXjXjXjXjXjXjXjXjXjXjX",
"jXjXjXjXjXjXjXjXjXjXjXjXjXjXjXjXjXv  .n M c U i.d.d.M.b.a.U w 8 8 8 #.S.4XyX8XP.5.h X           jXjXjXjXjXjXjXjXjXjXjXjXjXjXjXjX",
"jXjXjXjXjXjXjXjXjXjXjXjXjXjXjX  ; N 5.0.8.S p w U | n.n.m.a.E R K ' ;.R.oX7XuX#XP.7.m X         X jXjXjXjXjXjXjXjXjXjXjXjXjXjXjX",
"jXjXjXjXjXjXjXjXjXjXjXjXjXjX    : @.y.^.K.%.>   & z { V.b.s.p.p.i.| ;.W.'.1XuXpX5XI.7.h         X X jXjXjXjXjXjXjXjXjXjXjXjXjXjX",
"jXjXjXjXjXjXjXjXjXjXjXjXjXjX    : $.E.]./...@     & x ] n.M.d.M.m.n.:.W._.-XuXpXaX4XL.5.v X         jXjXjXjXjXjXjXjXjXjXjXjXjXjX",
"jXjXjXjXjXjXjXjXjXjXjXjXjXjX    : $.E.].~...        u [ { m.m.M.m.V.:.T.'.-XuXuXyX5X*XP.9. .1 X     jXjXjXjXjXjXjXjXjXjXjXjXjXjX",
"jXjXjXjXjXjXjXjXjXjXjXjXjXjX    : @.R.`.Q.%.X       X u [ { n.n.m.-.:.T.}.-X$X6X3X1X5X4XU.0.N O     jXjXjXjXjXjXjXjXjXjXjXjXjXjX",
"jXjXjXjXjXjXjXjXjXjXjXjXjXjX    : @.e./.Q.<.l         o p [ ] | | | ;.t.}.3X6X#X*X-XwXaX5XJ.O.>     jXjXjXjXjXjXjXjXjXjXjXjXjXjX",
"jXjXjXjXjXjXjXjXjXjXjXjXjXjX    O B q.~.).A.6.N < @     o u i i w e x 8.'.3X6X-X.X-XyXaXyXP.o.1     jXjXjXjXjXjXjXjXjXjXjXjXjXjX",
"jXjXjXjXjXjXjXjXjXjXjXjXjXjX    + M 8.~.|.{._.Z.O.f       . . # . o 6 6.I.3X6X3XoX=X7XaX5XJ...2     jXjXjXjXjXjXjXjXjXjXjXjXjXjX",
"jXjXjXjXjXjXjXjXjXjXjXjXjXjX    X M <./.<X9X5XY.w.N                 1 5.P.4XwX4X=X-X5XwX-XG.X.;     jXjXjXjXjXjXjXjXjXjXjXjXjXjX",
"jXjXjXjXjXjXjXjXjXjXjXjXjXjX    o M =./.<XsXaX1XH. .X     O < O   O m 2.I.1XwXeX3X4XyXyX=XG. .O     jXjXjXjXjXjXjXjXjXjXjXjXjXjX",
"jXjXjXjXjXjXjXjXjXjXjXjXjXjX    O l *./.<XiXaX1XH. .X   : B *...B B *.A.I.3XwXwXyXyXaXpX#XF.X.>     jXjXjXjXjXjXjXjXjXjXjXjXjXjX",
"jXjXjXjXjXjXjXjXjXjXjXjXjXjX    o M =.~.<XtXrX#Xw.n @ X M 8.Q.E.R.r.A.K.}.3X6XeX7XyXaXaX8XH...>     jXjXjXjXjXjXjXjXjXjXjXjXjXjX",
"jXjXjXjXjXjXjXjXjXjXjXjXjXjX    + M <./.<XtXrXY.9.f   . S e.].|.].`.[.}.=X-X-X#X.X*X5X7X-XG.X.:     jXjXjXjXjXjXjXjXjXjXjXjXjXjX",
"jXjXjXjXjXjXjXjXjXjXjXjXjX      X V 8.[.qXiXrXY.2.<     S y.|.qX<X|.{.,X4X-XI.Z.w.w.L.oXoXA.B       jXjXjXjXjXjXjXjXjXjXjXjXjXjX",
"jXjXjXjXjXjXjXjXjXjXjXjX        X V q.].9XsXwXY.2.>     d 8.].<XOXOX=X5XwX*XH.O.h m 6.~.).e.V       jXjXjXjXjXjXjXjXjXjXjXjXjXjX",
"jXjXjXjXjXjXjXjXjXjXjXX         X V 8.(.qXtXwXY.2.f     l t.^.|.oX*X3XwXwX*Xw.m     S R.).e.S X     jXjXjXjXjXjXjXjXjXjXjXjXjXjX",
"jXjXjXjXjXjXjXjXjXjXjX        . , S =.A.'.,X5XoXZ.X.j k $.R.}.,X;X3X6XyXyX#XZ. .O > @.R.).Q.6.m ;   jXjXjXjXjXjXjXjXjXjXjXjXjXjX",
"jXjXjXjXjXjXjXjXjXjX      # q y L a M  .9.L.:X>XI.w.2.2.A.}.2XrXwXyXyXuXwX#XJ.2.X.O.0.K.}.'.H.9.,.N < jXjXjXjXjXjXjXjXjXjXjXjXjX",
"jXjXjXjXjXjXjXjXjXjXjX    % L ( ( L # >  .2._.|.OXU.P.P..X3XeXyXyXyXyXeX6X-XY.P.J.L.P.U.*X=X-X#XH.2.h     jXjXjXjXjXjXjXjXjXjXjX",
"jXjXjXjXjXjXjXjXjXjXjX    r ! ) j.I 8   ;  .e.).OX,X3X3X3X-X=X*X=X=X=X=X-X-X-X3X3X4X-X-X-X5XaXrX.X9.m     jXjXjXjXjXjXjXjXjXjXjX",
"jXjXjXjXjXjXjXjXjXjXjX    r ! c.k.` e $ # 6 $.u.[.2XrX5XoXJ.w.7.7.r.A.L.{.;X9XrXrXrX5X;X;XrXiXiX}.7.m       jXjXjXjXjXjXjXjXjXjX",
"jXjXjXjXjXjXjXjXjXjXjX    r ~ j.k.j.( I 0 8 6  .A.oX2XOXQ.*.k o o k @.q.).>X2X9X,X,X>X:X>X,X9X2X^.5.g       jXjXjXjXjXjXjXjXjXjX",
"jXjXjXjXjXjXjXjXjXjXjX    % L / k.z.h.) I 9   1 O.S.[.^.8.k         4 *.R.|.OX|.[.).^.).`.|.|.|.E.*.l     jXjXjXjXjXjXjXjXjXjXjX",
"jXjXjXjXjXjXjXjXjXjXjX    % y / k.B.B.l.( 9     h 1.A.t.*.g       X j ..8.R.!.!.R.y.y.y.R.Q.^.(.R.*.1     jXjXjXjXjXjXjXjXjXjXjX",
"jXjXjXjXjXjXjXjXjXjXjX    % y / k.B.B.l.( e     X l %.*.o.+.>.+.>.>.+.+.*.$.=.<.<.<.=.$.$.=.u.E.y.*.k   jXjXjXjXjXjXjXjXjXjXjXjX",
"jXjXjXjXjXjXjXjXjXjXjX    % L / k.B.z.k.( y .       3 N 3.D.@X+X+X@XD.>.v 4 p Z G &.Z l 1 k V jXjXjXjXjXjXjXjXjXjXjXjXjXjXjXjXjX",
"jXjXjXjXjXjXjXjXjXjXjX    % L / l.z.l.) ! y +         v 3.@XfXfXfX%X@X3.<   . r Z Z s +     jXjXjXjXjXjXjXjXjXjXjXjXjXjXjXjXjXjX",
"jXjXjXjXjXjXjXjXjXjXjX    % y ( j.l.l.) ! y 3         f 3.@XdXgXgXdX@X3.<   . % C Z 5 @     jXjXjXjXjXjXjXjXjXjXjXjXjXjXjXjXjXjX",
"jXjXjXjXjXjXjXjXjXjXjX    = t Y ) h.k.) ( a *         < 9.XX&XhXhXpXXX4.<     % Z Z s .     jXjXjXjXjXjXjXjXjXjXjXjXjXjXjXjXjXjX",
"jXjXjXjXjXjXjXjXjXjXjX    = t Y _ c.k.) ( y =         k *.K.>X9X9X>XK.o.>   . p D D d =     jXjXjXjXjXjXjXjXjXjXjXjXjXjXjXjXjXjX",
"jXjXjXjXjXjXjXjXjXjXjX    # t Y _ c.v.) ( y =         4 #.8.y.(.(.T.8.V :   7 C G G C 3     jXjXjXjXjXjXjXjXjXjXjXjXjXjXjXjXjXjX",
"jXjXjXjXjXjXjXjXjXjXjX    # t Y n.v.v.x.! y =         o k S #.;.;.#.M ,     + C G G C 3     jXjXjXjXjXjXjXjXjXjXjXjXjXjXjXjXjXjX",
"jXjXjXjXjXjXjXjXjXjX      & t Q x.v.v._ ^ t o           X : 4 6 b 1 :       + C G G C :     jXjXjXjXjXjXjXjXjXjXjXjXjXjXjXjXjXjX",
"jXjXjXjXjXjXjXjXjXjXjX    = t Y _ x._ / Y 0 .                               3 A G H C +     jXjXjXjXjXjXjXjXjXjXjXjXjXjXjXjXjXjX",
"jXjXjXjXjXjXjXjXjXjXjX    = 0 P Y Y Y T t $ .     O 3 * + @     @   . @ . 3 d D G H p +     jXjXjXjXjXjXjXjXjXjXjXjXjXjXjXjXjXjX",
"jXjXjXjXjXjXjXjXjXjXjXjXjX# % q 0 0 0 r % #     : 5 C C d 6 - - - 3 - 5 5 A H F F H s +     jXjXjXjXjXjXjXjXjXjXjXjXjXjXjXjXjXjX",
"jXjXjXjXjXjXjXjXjXjXjXjXjXjX. . . . # .         3 A D G D Z A A A A Z Z H D F F F Z 5 o     jXjXjXjXjXjXjXjXjXjXjXjXjXjXjXjXjXjX",
"jXjXjXjXjXjXjXjXjXjXjXjXjXjX                    3 A D F G D Z Z Z Z D D D G G D Z d 3 X     jXjXjXjXjXjXjXjXjXjXjXjXjXjXjXjXjXjX",
"jXjXjXjXjXjXjXjXjXjXjXjXjXjXjX                @ * s Z Z Z C s s s s b C Z Z C C 5 6 + .   jXjXjXjXjXjXjXjXjXjXjXjXjXjXjXjXjXjXjX",
"jXjXjXjXjXjXjXjXjXjXjXjXjXjXjXjXjXjXjXjXjX      o * 3 6 2 7 @ @ @ 7 7 * 3 3 3 * + + o @ jXjXjXjXjXjXjXjXjXjXjXjXjXjXjXjXjXjXjXjX",
"jXjXjXjXjXjXjXjXjXjXjXjXjXjXjXjXjXjXjXjXjX                                            jXjXjXjXjXjXjXjXjXjXjXjXjXjXjXjXjXjXjXjXjX",
"jXjXjXjXjXjXjXjXjXjXjXjXjXjXjXjXjXjXjXjXjXjX              . & & & # o               jXjXjXjXjXjXjXjXjXjXjXjXjXjXjXjXjXjXjXjXjXjX",
"jXjXjXjXjXjXjXjXjXjXjXjXjXjXjXjXjXjXjXjXjXjXjX          & u i ' ' i u & @         jXjXjXjXjXjXjXjXjXjXjXjXjXjXjXjXjXjXjXjXjXjXjX",
"jXjXjXjXjXjXjXjXjXjXjXjXjXjXjXjXjXjXjXjXjXjXjXjXjX    o u ' ] { { ] z u o     jXjXjXjXjXjXjXjXjXjXjXjXjXjXjXjXjXjXjXjXjXjXjXjXjX",
"jXjXjXjXjXjXjXjXjXjXjXjXjXjXjXjXjXjXjXjXjXjXjXjXjX    & u ] -.V.V.-.] i &     jXjXjXjXjXjXjXjXjXjXjXjXjXjXjXjXjXjXjXjXjXjXjXjXjX",
"jXjXjXjXjXjXjXjXjXjXjXjXjXjXjXjXjXjXjXjXjXjXjXjXjX    & z -.V.C.C.V.] z &     jXjXjXjXjXjXjXjXjXjXjXjXjXjXjXjXjXjXjXjXjXjXjXjXjX"
};
