/* XPM */
static char *result[] = {
/* columns rows colors chars-per-pixel */
"64 64 234 2 ",
"   c #008A005D006E",
".  c #0B930220021E",
"X  c #02B205340A96",
"o  c #043E091D0C2D",
"O  c #0AF60A9B0C1F",
"+  c #0CBD06040869",
"@  c #13F70337023C",
"#  c #1AAC01E80253",
"$  c #1B0A09E40352",
"%  c #11480C3309A8",
"&  c #162604FB0861",
"*  c #04F40CFA1315",
"=  c #0AAF0C8B1294",
"-  c #02740AD61A1C",
";  c #18ED091F16A8",
":  c #032D144B1C25",
">  c #0A6212211A88",
",  c #09D0111914C3",
"<  c #12D713C913FB",
"1  c #1B091B1C1ABF",
"2  c #16E514A11BE1",
"3  c #10E90FCC0F29",
"4  c #21F902530000",
"5  c #2C7003850320",
"6  c #239C0CF1034D",
"7  c #290108060928",
"8  c #32A6037402B2",
"9  c #36070896042D",
"0  c #29F612F908E8",
"q  c #34C9120A0AD8",
"w  c #399E1A340B89",
"e  c #3BAC14E90864",
"r  c #27B407C81B33",
"t  c #39F5072A14DA",
"y  c #258C1AF21901",
"u  c #37D31D550FEE",
"i  c #1CE620371F67",
"p  c #00A51AA824BF",
"a  c #0B921C852A55",
"s  c #05AA19152557",
"d  c #1B521CF12BEA",
"f  c #15CF18882426",
"g  c #17E71E4C300D",
"h  c #25CB1ADA24E6",
"j  c #2B98092123CF",
"k  c #088A21122C89",
"l  c #17DF20C92D47",
"z  c #0A312676375C",
"x  c #1C5222B5338A",
"c  c #185F28543B61",
"v  c #23F423FE23D9",
"b  c #2BC62CA22C20",
"n  c #27222638287C",
"m  c #237C29CB3DC0",
"M  c #269625F135E0",
"N  c #305F2EB930E6",
"B  c #340333B1338C",
"V  c #3C9C3CCB3C7B",
"C  c #36A637FD38FF",
"Z  c #2F40308D306F",
"A  c #450B04730424",
"S  c #4B6305560B11",
"D  c #48C70579075C",
"F  c #5C5E03FD02C9",
"G  c #553B067C077E",
"H  c #44291833084E",
"J  c #4A12010818C0",
"K  c #59A01CB4126E",
"L  c #53FD19130000",
"P  c #674D02DD056E",
"I  c #7AA80778095A",
"U  c #78BB0BB91516",
"Y  c #66B71EF30000",
"T  c #59752321097D",
"R  c #6B6629710986",
"E  c #637925DC0942",
"W  c #790C2D3A08EB",
"Q  c #697E220A1508",
"!  c #7866280515D5",
"~  c #7E48311D0ADA",
"^  c #58210C9D28DC",
"/  c #4B270FE92F22",
"(  c #45F113B835B0",
")  c #44870AB92B1E",
"_  c #6EDF0DA3202D",
"`  c #78BA13D93A2B",
"'  c #734D0E7A3237",
"]  c #1B2C2C4C4202",
"[  c #1A3633554AE6",
"{  c #180432EF4912",
"}  c #1BE639B45383",
"|  c #163139EF5A34",
" . c #05DE35B44E6A",
".. c #23CA2D64437A",
"X. c #243233094AA1",
"o. c #28C1326647CE",
"O. c #34E0359447BF",
"+. c #2C9C3E235AC4",
"@. c #273538AE536A",
"#. c #37963BED5A09",
"$. c #3D3D264048BD",
"%. c #5C2616EE469D",
"&. c #6A7916D141BC",
"*. c #71A51A0B4EB3",
"=. c #50262E2C556C",
"-. c #68BD29E95BA7",
";. c #1CED426A5E1B",
":. c #32A440675EF1",
">. c #05ED4B8E6B4F",
",. c #1750468C6513",
"<. c #02DF555675BF",
"1. c #00005A917CB1",
"2. c #0F46535475CD",
"3. c #22E34362627B",
"4. c #28AC48126906",
"5. c #352543556348",
"6. c #3D3A49FA6C30",
"7. c #3806486F6977",
"8. c #28BD4E3C71C9",
"9. c #3A154C617283",
"0. c #282554967A8C",
"q. c #3C4753587ABB",
"w. c #38B15169769F",
"e. c #43B34BE6727E",
"r. c #43A153637A88",
"t. c #496D4C567722",
"y. c #843C068C061C",
"u. c #970B07C307CE",
"i. c #955A0E9813F8",
"p. c #A7DC0CE915B2",
"a. c #AFA80B6011F1",
"s. c #87B533BC0BE2",
"d. c #945B38D70D0C",
"f. c #85332BEB18A7",
"g. c #84BB3371107E",
"h. c #8D7A346C1224",
"j. c #952A3551168C",
"k. c #91562F381BFE",
"l. c #A1A83ED60F5C",
"z. c #8E2407861FF7",
"x. c #98D2133028F2",
"c. c #99A015E638E5",
"v. c #933411D62B85",
"b. c #AFF4139A2DC5",
"n. c #C69C0D92117B",
"m. c #CBE1118520D0",
"M. c #9F1140EF1611",
"N. c #A698433014D8",
"B. c #863C176141FB",
"V. c #959B18BD422D",
"C. c #0F015DDE8390",
"Z. c #2C525C2E855B",
"A. c #2CEC5D45898E",
"S. c #393E5D438B06",
"D. c #00006C6B93CC",
"F. c #000063B2887F",
"G. c #2CBF618B8CFD",
"H. c #369161128D95",
"J. c #2D5763BB9021",
"K. c #338D6AF49B0A",
"L. c #35EF68E69794",
"P. c #382E6F46A19B",
"I. c #38AE7499A8E9",
"U. c #3A0D7D53B584",
"Y. c #29F27157A30A",
"T. c #111D7E1BB1C1",
"R. c #57CD4D99829B",
"E. c #45F05B26878F",
"W. c #4CAC56D9882C",
"Q. c #48FC60B18E13",
"!. c #44E960A18EA3",
"~. c #4B4D649E942A",
"^. c #4691687A9949",
"/. c #54096A069CC6",
"(. c #49AA6DF1A3DD",
"). c #52B06E60A29B",
"_. c #475D74B3AB5D",
"`. c #56BA744DAA88",
"'. c #4DBF798DB2A5",
"]. c #45187B1BB533",
"[. c #52DE7EBCB9FC",
"{. c #598B7BC3B642",
"}. c #00BB8458B723",
"|. c #13F180C1B461",
" X c #3D908200BC14",
".X c #43438304BDDF",
"XX c #4F70824DBE66",
"oX c #54938246BE67",
"OX c #58348147BDB7",
"+X c #00009AFFD55D",
"@X c #006A8CA9C1D8",
"#X c #3E48871DC3A6",
"$X c #3D6A97EED89B",
"%X c #0000A1CADF07",
"&X c #0078A678E51A",
"*X c #0068BA83FE34",
"=X c #1BFAB00AF22A",
"-X c #40E5864CC292",
";X c #4B48869DC3BF",
":X c #42D8891CC6CD",
">X c #43CF8CEFCC28",
",X c #4CCE8C0ECC47",
"<X c #4B468896C7A5",
"1X c #591F85F5C49F",
"2X c #55DF8977C936",
"3X c #56068F5CD1DC",
"4X c #4550929FD42F",
"5X c #4A5F92F3D5B0",
"6X c #4BA69710DB66",
"7X c #4BA598F7DDF2",
"8X c #4575995BDD05",
"9X c #563A9551DA56",
"0X c #55D695A1DA18",
"qX c #45B59008D0AB",
"wX c #64E38D97CF0F",
"eX c #4BD59DE3E4BF",
"rX c #46CF9EE0E51C",
"tX c #552E9D4EE4FF",
"yX c #60499FAFE9E1",
"uX c #4C98A308EBF4",
"iX c #467FA324E8CE",
"pX c #5221A385ED46",
"aX c #5BA4A249EC94",
"sX c #47BDAD85F744",
"dX c #54ADAAE7F803",
"fX c #56A0B0B9FFFF",
"gX c #6071A49FEEDE",
"hX c #6375A941F51D",
"jX c #000ACC42FFFF",
"kX c #005FD49EFFFF",
"lX c #1F98C051FFFF",
"zX c #00ECEB33FFFF",
"xX c #0000F905FFFF",
"cX c None",
/* pixels */
"cXcXcXcXcXcXcXcXcXcXcXcXcXcXcXcXcXcXcXcXcXcXcXcXcXcXcXcXcXcXcXcXcXcXcXcXcXcXcXcXcXcXcXcXcXcXcXcXcXcXcXcXcXcXcXcXcXcXcXcXcXcXcXcX",
"cXcXcXcXcXcXcXcXcXcXcXcXcXcXcXcXcXcXcXcXcXcXcXcXcXcXcXcXcXcXcXcXcXcXcXcXcXcXcXcXcXcXcXcXcXcXcXcXcXcXcXcXcXcXcXcXcXcXcXcXcXcXcXcX",
"cXcXcXcXcXcXcXcXcXcXcXcXcXcXcXcXcXcXcXcXcXcXcXcXcXcXcXcXcXcXcXcXcXcXcXcXcXcXcXcXcXcXcXcXcXcXcXcXcXcXcXcXcXcXcXcXcXcXcXcXcXcXcXcX",
"cXcXcXcXcXcXcXcXcXcXcXcXcXcXcXcXcXcXcXcXcXcXcXcXcXcXcXcXcXcXcXcXcXcXcXcXcXcXcXcXcXcXcXcXcXcXcXcXcXcXcXcXcXcXcXcXcXcXcXcXcXcXcXcX",
"cXcXcXcXcXcXcXcXcXcXcXcXcXcXcX                . cXcXcXcXcXcXcXcXcXcXcXcXcXcXcXcXcXcXcXcXcXcXcXcXcXcXcXcXcXcXcXcXcXcXcXcXcXcXcXcX",
"cXcXcXcXcXcXcXcXcXcXcXcXcXcX                      cXcXcXcXcXcXcXcXcXcXcXcXcXcXcXcXcXcXcXcXcXcXcXcXcXcXcXcXcXcXcXcXcXcXcXcXcXcXcX",
"cXcXcXcXcXcXcXcXcXcXcXcXcXcX    X # 7 8 5 @         cXcXcXcXcXcXcXcXcXcXcXcXcXcXcXcXcXcXcXcXcXcXcXcXcXcXcXcXcXcXcXcXcXcXcXcXcXcX",
"cXcXcXcXcXcXcXcXcXcXcXcXcXcX    @ 7 G U P 8                 . . + X         cXcXcXcXcXcXcXcXcXcXcXcXcXcXcXcXcXcXcXcXcXcXcXcXcXcX",
"cXcXcXcXcXcXcXcXcXcXcXcXcXcX    @ A I p.i.S .                                 cXcXcXcXcXcXcXcXcXcXcXcXcXcXcXcXcXcXcXcXcXcXcXcXcX",
"cXcXcXcXcXcXcXcXcXcXcXcXcXcXcX  # D I u.u.P 8 @   . @ @ .             O = - > cXcXcXcXcXcXcXcXcXcXcXcXcXcXcXcXcXcXcXcXcXcXcXcXcX",
"cXcXcXcXcXcXcXcXcXcXcXcXcXcXcXcX@ 8 F P P P F G G G A 8 #           o k { | [ s cXcXcXcXcXcXcXcXcXcXcXcXcXcXcXcXcXcXcXcXcXcXcXcX",
"cXcXcXcXcXcXcXcXcXcXcXcXcXcXcXcXcXcX. 4 8 F U i.p.u.I F 5 X         : } A.J.Z.]         X > cXcXcXcXcXcXcXcXcXcXcXcXcXcXcXcXcXcX",
"cXcXcXcXcXcXcXcXcXcXcXcXcXcXcXcXcXcX    # S y.a.n.n.p.I D $         f Z..XqXU.3.*         o cXcXcXcXcXcXcXcXcXcXcXcXcXcXcXcXcXcX",
"cXcXcXcXcXcXcXcXcXcXcXcXcXcXcXcXcXp p p 2 9 P u.a.n.a.x._ A 4 @ . @ M S.5XpX#XA.] *           cXcXcXcXcXcXcXcXcXcXcXcXcXcXcXcXcX",
"cXcXcXcXcXcXcXcXcXcXcXcXcXcXcXcX* z | | ..y 8 F P i.c.c.v.U F A A t $.S.<XeX7X XZ.[ s           o cXcXcXcXcXcXcXcXcXcXcXcXcXcXcX",
"cXcXcXcXcXcXcXcXcXcXcXcXcXcX    = [ q.!.9.m . @ 5 ^ *.V.v.i.u.y.P _ =.W.].4XuXrX#XL.@.*         X o cXcXcXcXcXcXcXcXcXcXcXcXcXcX",
"cXcXcXcXcXcXcXcXcXcXcXcXcXcX    = ..W.`.^.3.k   X j ( ' v.i.a.p.z.' -.t._.#XiXsXpX>XS.{ =         X cXcXcXcXcXcXcXcXcXcXcXcXcXcX",
"cXcXcXcXcXcXcXcXcXcXcXcXcXcX    O m t.{.OXL.>.z p - r J U v.b.b.c.B.-.R._.>XiXsXuX5XU.Z.} a *       cXcXcXcXcXcXcXcXcXcXcXcXcXcX",
"cXcXcXcXcXcXcXcXcXcXcXcXcXcX    = x 9.).1X;XU.C. .:   4 J ' V.c.V.B.-.R._.qX$XrX4XqX,X#XJ.3.l o     cXcXcXcXcXcXcXcXcXcXcXcXcXcX",
"cXcXcXcXcXcXcXcXcXcXcXcXcXcX    o d :.~.1XtX0X.X0.z   . 5 ^ &.&.' ' -.R._.qX$X$X:X,X7XuX>XJ.{ *     cXcXcXcXcXcXcXcXcXcXcXcXcXcX",
"cXcXcXcXcXcXcXcXcXcXcXcXcXcX    o d :.!.1XgXgX5XP.;.k O r j ) J J J ( t._.4X8X4X>X5XpXfXeXP.} =     cXcXcXcXcXcXcXcXcXcXcXcXcXcX",
"cXcXcXcXcXcXcXcXcXcXcXcXcXcX    o l :.~.1XtXtX6X-XL.4.m h ; & # @ # h 5.P.4XrXeX8XeXdXfX7XK.} =     cXcXcXcXcXcXcXcXcXcXcXcXcXcX",
"cXcXcXcXcXcXcXcXcXcXcXcXcXcX    o M 5./.oX3X5X>X,X].^.6...;         f 3.P.5XuXeX6XeXpXdX4XJ.[ *     cXcXcXcXcXcXcXcXcXcXcXcXcXcX",
"cXcXcXcXcXcXcXcXcXcXcXcXcXcX    o d 5.~.oX<X:X:X;X[.).r.o.s         a 3.I.4X7X>XU. X4X7X:XG.[ *     cXcXcXcXcXcXcXcXcXcXcXcXcXcX",
"cXcXcXcXcXcXcXcXcXcXcXcXcXcX    O x 5.~.[.3X>X#X].^.q.5.X.c l : * a { Z.U.>X-XK.Z.G.I.4XqXK.} ,     cXcXcXcXcXcXcXcXcXcXcXcXcXcX",
"cXcXcXcXcXcXcXcXcXcXcXcXcXcX    O d #.~.[.9X5X].J.4.] x o.3.8.7.+.+.w._.>X>XP.4.c { Z.#X$XI.;.:     cXcXcXcXcXcXcXcXcXcXcXcXcXcX",
"cXcXcXcXcXcXcXcXcXcXcXcXcXcX    o x 5.!.2XtXeX#X0.k X + m q./.).~.Q./.;X6X>XG.z X = 3.U.4XI.3.>     cXcXcXcXcXcXcXcXcXcXcXcXcXcX",
"cXcXcXcXcXcXcXcXcXcXcXcXcXcX    X x 5.).wXaXeXU.,.*     h W.{.1X{.{.oX0XpX#X0.*     c L.:XK.@.o     cXcXcXcXcXcXcXcXcXcXcXcXcXcX",
"cXcXcXcXcXcXcXcXcXcXcXcX        X c 9.`.wXhXpXU.,.      2 e.{.wX1X[.,XtXpX-X8.o     d S.'.H.]       cXcXcXcXcXcXcXcXcXcXcXcXcXcX",
"cXcXcXcXcXcXcXcXcXcXcXX         X c 9.`.wXhXtXU.,.-     2 e.).oX[.;X>XeXeX-X8.:     d q./.S.m       cXcXcXcXcXcXcXcXcXcXcXcXcXcX",
"cXcXcXcXcXcXcXcXcXcXcXX         = M 5.!.oX9XtXU.0.z o = m r.).oX<X#X4XiXiX>XZ.c * , X.r./.S.X.>     cXcXcXcXcXcXcXcXcXcXcXcXcXcX",
"cXcXcXcXcXcXcXcXcXcX      . @ 6 0 h m :.A.].,X;XK.4.{ [ 8.^.;X0X6XrXrXiXeX#XP.,.{ [ 8.^.(.^.w.} z s - cXcXcXcXcXcXcXcXcXcXcXcXcX",
"cXcXcXcXcXcXcXcXcXcXcX    % 0 T T w < a | A.'.OXXXP.J.J.I.<X7XpXpXuXiXrX8X#XU.K.J.J.K.U..X.XU.K.0.} k   cXcXcXcXcXcXcXcXcXcXcXcX",
"cXcXcXcXcXcXcXcXcXcXcX    6 T ~ W L #   - } !.{.oX;X X X#X4X6X6XeX8X4XqX4X:X#X#X#X.X.X-X.X5XeX8XI.8.k     cXcXcXcXcXcXcXcXcXcXcX",
"cXcXcXcXcXcXcXcXcXcXcX    0 T g.s.E 9 . X g :.Q.XX2X7X6XqX XP.L.L.K.I.].-X,X6X7X6X6X5X>XqXeXdXaX.X8.l       cXcXcXcXcXcXcXcXcXcX",
"cXcXcXcXcXcXcXcXcXcXcX    6 T g.s.s.L 9 4 ; l :.^.;X0X3X_.8.[ c x [ 5.S._.2X9X9X0X3X,XXX2X0XaX0X_.4.a       cXcXcXcXcXcXcXcXcXcX",
"cXcXcXcXcXcXcXcXcXcXcX    6 H W d.d.s.Y H 4 @ f 3.(.oX'.w.x .       g 5.~.{.2X1XoX'.'.'.[.OX2XOX!.:.a       cXcXcXcXcXcXcXcXcXcX",
"cXcXcXcXcXcXcXcXcXcXcX    $ H R d.l.j.s.T 5   X z w.Q.E.:.>         > X.q.^.).).~.Q.Q.Q.~.).`.).E.@.f     cXcXcXcXcXcXcXcXcXcXcX",
"cXcXcXcXcXcXcXcXcXcXcX    $ e R d.N.N.d.E 9     - ..:.7.} z k : : k z { +.7.t.e.e.e.5.5.5.e.W.Q.r.X.f     cXcXcXcXcXcXcXcXcXcXcX",
"cXcXcXcXcXcXcXcXcXcXcX    $ H R d.N.N.d.E 9 .     = l ..;.<.F.D.D.F.1. .c x n O.O.@.C M l m +.cXcXcXcXcXcXcXcXcXcXcXcXcXcXcXcXcX",
"cXcXcXcXcXcXcXcXcXcXcX    $ H R d.M.d.s.E w +         z <.}.&X*X*X&XT.>.p X @ y b B l % o X cXcXcXcXcXcXcXcXcXcXcXcXcXcXcXcXcXcX",
"cXcXcXcXcXcXcXcXcXcXcX    $ H R h.d.d.~ T u 3         p 1.+XkXzXxXkX+X1.p   . 6 v b 1 +     cXcXcXcXcXcXcXcXcXcXcXcXcXcXcXcXcXcX",
"cXcXcXcXcXcXcXcXcXcXcX    $ q T g.d.d.~ E u 3         p F.%XkXxXxXkX&X1.:   . 6 v b 1       cXcXcXcXcXcXcXcXcXcXcXcXcXcXcXcXcXcX",
"cXcXcXcXcXcXcXcXcXcXcX    $ q K ! h.h.~ E u %         k 1.+XjXzXzXjX+X<.p   @ 0 Z Z i O     cXcXcXcXcXcXcXcXcXcXcXcXcXcXcXcXcXcX",
"cXcXcXcXcXcXcXcXcXcXcX    + t K ! h.h.~ E w %         k 1.}.*XkXjX*X}.>.p   @ y B C l 3     cXcXcXcXcXcXcXcXcXcXcXcXcXcXcXcXcXcX",
"cXcXcXcXcXcXcXcXcXcXcX    & q K ! k.j.g.E u %         a 2.|.=X=X=X=XT.>.p   . y C V n <     cXcXcXcXcXcXcXcXcXcXcXcXcXcXcXcXcXcX",
"cXcXcXcXcXcXcXcXcXcX      & q K f.k.k.g.E w %         > ;.Y.$XsXsX$XY.| -     y B V v 3     cXcXcXcXcXcXcXcXcXcXcXcXcXcXcXcXcXcX",
"cXcXcXcXcXcXcXcXcXcXcX    @ q Q f.k.f.! K q %         > @.H.XX9X9X[.S.[ *   . y B C v 3     cXcXcXcXcXcXcXcXcXcXcXcXcXcXcXcXcXcX",
"cXcXcXcXcXcXcXcXcXcXcX    $ 0 K Q Q Q K H 7 +         f o.e.W././.W.6.c , . % v B B v O     cXcXcXcXcXcXcXcXcXcXcXcXcXcXcXcXcXcX",
"cXcXcXcXcXcXcXcXcXcXcXcX  @ 6 0 e e t w 7 & .     O 1 n M O.#.=.=.#.O.M i y v B V B i O     cXcXcXcXcXcXcXcXcXcXcXcXcXcXcXcXcXcX",
"cXcXcXcXcXcXcXcXcXcXcXcXcX. & @ $ $ $ & +       < v b Z b h f 2 f f y v n Z V V V b 1 +     cXcXcXcXcXcXcXcXcXcXcXcXcXcXcXcXcXcX",
"cXcXcXcXcXcXcXcXcXcXcXcXcXcX                  X 1 b C B v %         O i b C V V B v < o     cXcXcXcXcXcXcXcXcXcXcXcXcXcXcXcXcXcX",
"cXcXcXcXcXcXcXcXcXcXcXcXcXcXcX                + < b Z b <             < v B B Z v 1 3 +     cXcXcXcXcXcXcXcXcXcXcXcXcXcXcXcXcXcX",
"cXcXcXcXcXcXcXcXcXcXcXcXcXcXcXcXcXcXcXcX        % 1 1 1 o             X < i i 1 < O + X cXcXcXcXcXcXcXcXcXcXcXcXcXcXcXcXcXcXcXcX",
"cXcXcXcXcXcXcXcXcXcXcXcXcXcXcXcXcXcXcXcXcX        + + o                 X O O O . X   cXcXcXcXcXcXcXcXcXcXcXcXcXcXcXcXcXcXcXcXcX",
"cXcXcXcXcXcXcXcXcXcXcXcXcXcXcXcXcXcXcXcXcXcX              + + @ % @ .               cXcXcXcXcXcXcXcXcXcXcXcXcXcXcXcXcXcXcXcXcXcX",
"cXcXcXcXcXcXcXcXcXcXcXcXcXcXcXcXcXcXcXcXcXcXX           @ 9 D L G A 8 #             cXcXcXcXcXcXcXcXcXcXcXcXcXcXcXcXcXcXcXcXcXcX",
"cXcXcXcXcXcXcXcXcXcXcXcXcXcXcXcXcXcXcXcXcXcXcXcX      @ 8 F y.u.u.I F 9 @       cXcXcXcXcXcXcXcXcXcXcXcXcXcXcXcXcXcXcXcXcXcXcXcX",
"cXcXcXcXcXcXcXcXcXcXcXcXcXcXcXcXcXcXcXcXcXcXcXcXcX    # D I a.n.n.a.I D #     cXcXcXcXcXcXcXcXcXcXcXcXcXcXcXcXcXcXcXcXcXcXcXcXcX",
"cXcXcXcXcXcXcXcXcXcXcXcXcXcXcXcXcXcXcXcXcXcXcXcXcX    # S U p.m.m.a.U S #     cXcXcXcXcXcXcXcXcXcXcXcXcXcXcXcXcXcXcXcXcXcXcXcXcX",
"cXcXcXcXcXcXcXcXcXcXcXcXcXcXcXcXcXcXcXcXcXcXcXcXcX    # J _ c.b.b.c._ t &     cXcXcXcXcXcXcXcXcXcXcXcXcXcXcXcXcXcXcXcXcXcXcXcXcX",
"cXcXcXcXcXcXcXcXcXcXcXcXcXcXcXcXcXcXcXcXcXcXcXcXcX    & t ^ ` V.B.v.^ t &     cXcXcXcXcXcXcXcXcXcXcXcXcXcXcXcXcXcXcXcXcXcXcXcXcX",
"cXcXcXcXcXcXcXcXcXcXcXcXcXcXcXcXcXcXcXcXcXcXcXcXcX    + j / &.*.*.&./ r +     cXcXcXcXcXcXcXcXcXcXcXcXcXcXcXcXcXcXcXcXcXcXcXcXcX",
"cXcXcXcXcXcXcXcXcXcXcXcXcXcXcXcXcXcXcXcXcXcXcXcXcX    + j j %.*.*.%.( r +     cXcXcXcXcXcXcXcXcXcXcXcXcXcXcXcXcXcXcXcXcXcXcXcXcX"
};
