/* XPM */
static char * r1_xpm[] = {
"64 64 374 2",
"  	c None",
". 	c #D8935F",
"+ 	c #DA975E",
"@ 	c #F4D44C",
"# 	c #D58B61",
"$ 	c #EBBE54",
"% 	c #F2CF4E",
"& 	c #DA965E",
"* 	c #E3AC58",
"= 	c #DC9B5D",
"- 	c #D89260",
"; 	c #D68C61",
"> 	c #EBBE53",
", 	c #FFF738",
"' 	c #E7B450",
") 	c #D9955F",
"! 	c #E4AE56",
"~ 	c #DA985E",
"{ 	c #D9935F",
"] 	c #DDA25C",
"^ 	c #F6D941",
"/ 	c #F8E27B",
"( 	c #FCEA68",
"_ 	c #FDE944",
": 	c #FFF246",
"< 	c #EBB05C",
"[ 	c #F1C84A",
"} 	c #FDED6B",
"| 	c #FFF049",
"1 	c #FFF79B",
"2 	c #FCF187",
"3 	c #946152",
"4 	c #E4C04F",
"5 	c #FFF537",
"6 	c #FEEC53",
"7 	c #FEF7B9",
"8 	c #FFFA90",
"9 	c #7F792A",
"0 	c #0B142C",
"a 	c #BBAF40",
"b 	c #FFFF3E",
"c 	c #FBEE78",
"d 	c #FEFDF5",
"e 	c #FFF64D",
"f 	c #D4C63E",
"g 	c #444532",
"h 	c #D4C63F",
"i 	c #FFFA46",
"j 	c #FCFCFD",
"k 	c #FFFA8E",
"l 	c #E7D637",
"m 	c #ED9F65",
"n 	c #D7935E",
"o 	c #D9945F",
"p 	c #36382E",
"q 	c #D9CC45",
"r 	c #FFFFFF",
"s 	c #FFFFA9",
"t 	c #817B29",
"u 	c #9D946E",
"v 	c #FFFCCA",
"w 	c #EAD49D",
"x 	c #353337",
"y 	c #1A2435",
"z 	c #203140",
"A 	c #1B202F",
"B 	c #5D5752",
"C 	c #E4D09A",
"D 	c #A39375",
"E 	c #645E56",
"F 	c #1E2B39",
"G 	c #41838A",
"H 	c #1F384D",
"I 	c #111323",
"J 	c #071027",
"K 	c #867660",
"L 	c #7B6C5B",
"M 	c #57504A",
"N 	c #484646",
"O 	c #31575E",
"P 	c #4FA4AB",
"Q 	c #4FA2A5",
"R 	c #2D3F57",
"S 	c #141629",
"T 	c #0F0B1D",
"U 	c #253234",
"V 	c #32473A",
"W 	c #36353C",
"X 	c #1B2031",
"Y 	c #484147",
"Z 	c #1D2031",
"` 	c #161D2E",
" .	c #141A2E",
"..	c #101028",
"+.	c #468586",
"@.	c #4BA1A8",
"#.	c #52959D",
"$.	c #393D63",
"%.	c #20384A",
"&.	c #2B5264",
"*.	c #283349",
"=.	c #030021",
"-.	c #53814A",
";.	c #417A47",
">.	c #3E3942",
",.	c #8D7267",
"'.	c #3A373F",
").	c #1F2731",
"!.	c #70A354",
"~.	c #2B4D39",
"{.	c #1D2D41",
"].	c #418F9D",
"^.	c #406485",
"/.	c #335870",
"(.	c #3B7F90",
"_.	c #47698D",
":.	c #323A5B",
"<.	c #151E30",
"[.	c #1E2C33",
"}.	c #307141",
"|.	c #252736",
"1.	c #806A61",
"2.	c #52494B",
"3.	c #0C102A",
"4.	c #719B52",
"5.	c #71DC5E",
"6.	c #2A734D",
"7.	c #325365",
"8.	c #3B7A8E",
"9.	c #417E95",
"0.	c #415278",
"a.	c #2B3451",
"b.	c #2E6071",
"c.	c #3C6F86",
"d.	c #374068",
"e.	c #1D3639",
"f.	c #10172B",
"g.	c #2E2A3B",
"h.	c #252536",
"i.	c #1E4D38",
"j.	c #263135",
"k.	c #7EBA5A",
"l.	c #44BC59",
"m.	c #386259",
"n.	c #3A7887",
"o.	c #407A92",
"p.	c #3E748C",
"q.	c #3B8494",
"r.	c #41748F",
"s.	c #43547B",
"t.	c #485881",
"u.	c #364065",
"v.	c #19202F",
"w.	c #66934E",
"x.	c #45543E",
"y.	c #266C41",
"z.	c #24563C",
"A.	c #283231",
"B.	c #51C057",
"C.	c #3D8763",
"D.	c #38626A",
"E.	c #3B8295",
"F.	c #3F8899",
"G.	c #43718E",
"H.	c #405076",
"I.	c #2E3257",
"J.	c #292E4F",
"K.	c #2B3452",
"L.	c #0F172E",
"M.	c #1A2631",
"N.	c #56BA56",
"O.	c #68C65A",
"P.	c #28513B",
"Q.	c #161F2F",
"R.	c #1F303C",
"S.	c #223348",
"T.	c #2A6E38",
"U.	c #418565",
"V.	c #223241",
"W.	c #3B788D",
"X.	c #405C7D",
"Y.	c #2F3456",
"Z.	c #1E223C",
"`.	c #1D4133",
" +	c #297E40",
".+	c #2D8542",
"++	c #5F9C50",
"@+	c #2C4639",
"#+	c #257242",
"$+	c #34C454",
"%+	c #1D4B38",
"&+	c #15122E",
"*+	c #3A6D70",
"=+	c #58AEAD",
"-+	c #3F8775",
";+	c #438889",
">+	c #38778A",
",+	c #3F8699",
"'+	c #24334A",
")+	c #21333B",
"!+	c #3C6B60",
"~+	c #39B753",
"{+	c #3EC956",
"]+	c #38BB54",
"^+	c #81DC61",
"/+	c #8FE464",
"(+	c #315B3E",
"_+	c #0F0C2A",
":+	c #1C3734",
"<+	c #26493A",
"[+	c #2C2C39",
"}+	c #151D2F",
"|+	c #3B6E73",
"1+	c #5AB8B5",
"2+	c #52A6AC",
"3+	c #4795A1",
"4+	c #408C9E",
"5+	c #387688",
"6+	c #1D2A38",
"7+	c #2B454A",
"8+	c #417268",
"9+	c #3D8C5E",
"0+	c #2A6C43",
"a+	c #1B3C33",
"b+	c #20543B",
"c+	c #2E6941",
"d+	c #308346",
"e+	c #2E8947",
"f+	c #1C3534",
"g+	c #1A192F",
"h+	c #6B5A57",
"i+	c #202433",
"j+	c #141A2D",
"k+	c #182032",
"l+	c #315A63",
"m+	c #3C8391",
"n+	c #3C8195",
"o+	c #3E8497",
"p+	c #3D8194",
"q+	c #151A2E",
"r+	c #263C42",
"s+	c #43736A",
"t+	c #3F6867",
"u+	c #314B53",
"v+	c #2F4950",
"w+	c #140E2D",
"x+	c #13152C",
"y+	c #214D39",
"z+	c #1A2C32",
"A+	c #222533",
"B+	c #131829",
"C+	c #20233E",
"D+	c #364C6B",
"E+	c #3F6D87",
"F+	c #3E8295",
"G+	c #3F7E93",
"H+	c #364A6A",
"I+	c #293C49",
"J+	c #39645B",
"K+	c #43776A",
"L+	c #477E71",
"M+	c #335754",
"N+	c #2D4F64",
"O+	c #43899E",
"P+	c #3D8193",
"Q+	c #3D8596",
"R+	c #3D8A99",
"S+	c #426F8B",
"T+	c #373C64",
"U+	c #2F3E57",
"V+	c #324D55",
"W+	c #3B6A5F",
"X+	c #2A3B4D",
"Y+	c #212742",
"Z+	c #14132B",
"`+	c #1E3446",
" @	c #3F8A9B",
".@	c #4290A2",
"+@	c #418EA0",
"@@	c #4291A2",
"#@	c #416283",
"$@	c #434E76",
"%@	c #47557F",
"&@	c #424D78",
"*@	c #394D68",
"=@	c #44567B",
"-@	c #3A486E",
";@	c #1A2135",
">@	c #141A2B",
",@	c #181D32",
"'@	c #2C6D46",
")@	c #214E39",
"!@	c #161C2E",
"~@	c #284C5F",
"{@	c #295164",
"]@	c #295163",
"^@	c #274D5F",
"/@	c #344162",
"(@	c #3B4A73",
"_@	c #29375B",
":@	c #24314E",
"<@	c #2C334E",
"[@	c #283049",
"}@	c #2E354B",
"|@	c #1C2334",
"1@	c #111227",
"2@	c #2A4149",
"3@	c #46C566",
"4@	c #34A94C",
"5@	c #182330",
"6@	c #171C2F",
"7@	c #7A6555",
"8@	c #7D6656",
"9@	c #88715A",
"0@	c #876F59",
"a@	c #746558",
"b@	c #51474E",
"c@	c #54494B",
"d@	c #312E36",
"e@	c #5C4E4C",
"f@	c #524747",
"g@	c #2F2D37",
"h@	c #222534",
"i@	c #1F2A3A",
"j@	c #295A44",
"k@	c #22533A",
"l@	c #161B2D",
"m@	c #262535",
"n@	c #272636",
"o@	c #292837",
"p@	c #292B39",
"q@	c #232736",
"r@	c #3A3740",
"s@	c #4F464A",
"t@	c #38353F",
"u@	c #2F2E3A",
"v@	c #3B3841",
"w@	c #121A2D",
"x@	c #11182C",
"y@	c #192335",
"z@	c #365F7A",
"A@	c #3E6E8B",
"B@	c #3B6986",
"C@	c #3C5479",
"D@	c #3F4D76",
"E@	c #3A4A73",
"F@	c #2D3C62",
"G@	c #1E263B",
"H@	c #665653",
"I@	c #1E2232",
"J@	c #50464B",
"K@	c #413B42",
"L@	c #1B2A3C",
"M@	c #224050",
"N@	c #284E5F",
"O@	c #234555",
"P@	c #26364D",
"Q@	c #2D3654",
"R@	c #28314B",
"S@	c #212A42",
"T@	c #2A2B39",
"U@	c #38353E",
"V@	c #302F3A",
"W@	c #121022",
"X@	c #131225",
"Y@	c #10182B",
"Z@	c #171D2F",
"`@	c #171F31",
" #	c #171E30",
".#	c #171D30",
"+#	c #161D2F",
"@#	c #181D2F",
"##	c #171C2E",
"$#	c #171D2E",
"                                                                                                                                ",
"                                                                                                                                ",
"                                                                                                                                ",
"                                                                                                                                ",
"                                                                                                                                ",
"                                                                                                                                ",
"                                                                                                                                ",
"                                                                                                                                ",
"                                                                                                                                ",
"                                                                                                                                ",
"                                . + @                                                                                           ",
"                            # $ % & * = -                                                                                       ",
"                          ; > , ' ) ! ~ {                                                                                       ",
"                          ] ^ / ( _ :                                                                                           ",
"                          < [ } | 1 2                                                                                           ",
"                          3 4 5 6 7 8 9                                                                                         ",
"                          0 a b c d e f                                                                                         ",
"                            g h i j k l   m n o                                                                                 ",
"                              p q r s t                                                                                         ",
"                                u v w x           y z                                                                           ",
"                              A B C D E           F G H I                                                                       ",
"                              J K L M N           O P Q R S T     U V                                                           ",
"                                W X Y Z     `  ...+.@.#.$.%.&.*.=.-.;.                                                          ",
"                                  >.,.'.    ).!.~.{.].^./.(._.:.<.[.}.                                                          ",
"                                  |.1.2.    3.4.5.6.7.8.9.0.a.b.c.d.e.                                                          ",
"                                  f.g.h.i.    j.k.l.m.n.o.p.q.r.s.t.u.                                                          ",
"                                  v.w.x.y.z.    A.B.C.D.E.F.G.H.I.J.K.L.                                                        ",
"                                  M.N.O.P.Q.  R.S.T.U.V.W.X.Y.Z.`. +.+++@+                                                      ",
"                                    #+$+%+&+  *+=+-+;+>+,+'+)+!+~+{+]+^+/+(+_+                                                  ",
"                                    :+<+[+}+  |+1+2+3+4+5+6+7+8+9+0+a+b+c+d+e+f+                                                ",
"                                      g+h+i+j+k+l+m+n+o+p+q+r+s+t+u+v+w+  x+y+z+                                                ",
"                                        A+    B+C+D+E+F+G+H+I+J+K+L+M+                                                          ",
"                                                N+O+P+Q+R+S+T+U+V+W+X+Y+      Z+                                                ",
"                                                `+ @.@+@@@#@$@%@&@*@=@-@;@>@,@'@)@                                              ",
"                                                !@~@{@]@^@/@(@_@:@<@[@}@|@1@2@3@4@5@                                            ",
"                                                6@7@8@9@0@a@b@c@d@e@f@g@h@  i@j@k@                                              ",
"                                                l@m@n@o@p@q@r@s@t@u@v@w@x@                                                      ",
"                                                y@z@A@B@C@D@E@F@G@H@I@J@K@                                                      ",
"                                                L@M@N@O@P@Q@R@S@T@U@f.h@V@                                                      ",
"                                                    W@X@                Y@Z@                                                    ",
"                                                    `@ # #.#.#+#Z@@#!@##$#!@                                                    ",
"                                                !@!@!@!@!@!@!@!@!@!@!@!@!@!@!@!@                                                ",
"                                                !@!@!@!@!@!@!@!@!@!@!@!@!@!@!@!@                                                ",
"                                                    !@!@!@!@!@!@!@!@!@!@!@!@                                                    ",
"                                                                                                                                ",
"                                                                                                                                ",
"                                                                                                                                ",
"                                                                                                                                ",
"                                                                                                                                ",
"                                                                                                                                ",
"                                                                                                                                ",
"                                                                                                                                ",
"                                                                                                                                ",
"                                                                                                                                ",
"                                                                                                                                ",
"                                                                                                                                ",
"                                                                                                                                ",
"                                                                                                                                ",
"                                                                                                                                ",
"                                                                                                                                ",
"                                                                                                                                ",
"                                                                                                                                ",
"                                                                                                                                ",
"                                                                                                                                "};
