/* XPM */
static char *result[] = {
/* columns rows colors chars-per-pixel */
"64 64 236 2 ",
"   c #008C00690077",
".  c #0B330169019A",
"X  c #026D055D0A4C",
"o  c #03E3096C0C15",
"O  c #0B040AA50CB7",
"+  c #093306E506C9",
"@  c #14480319022E",
"#  c #1B7601DB021E",
"$  c #1B2809D603AB",
"%  c #12EB03520A62",
"&  c #1B5003050AE9",
"*  c #11460C3009A7",
"=  c #192A0AE006AC",
"-  c #04F40CFA1315",
";  c #0AB10C8B1296",
":  c #02740AD61A1C",
">  c #17230AB2183E",
",  c #032D144B1C25",
"<  c #0A6212201A88",
"1  c #099B15DA1652",
"2  c #126612C9127D",
"3  c #144A13A51E4D",
"4  c #1B361B0F1A90",
"5  c #161417BF184E",
"6  c #0C7E10D60E0B",
"7  c #21AF02680040",
"8  c #2C18030402AD",
"9  c #23870CE90349",
"0  c #2A7B08680973",
"q  c #32E003EF0316",
"w  c #398C00C10082",
"e  c #34320CE20644",
"r  c #29F612F908E8",
"t  c #347A122B0A9D",
"y  c #39681A1D0B7C",
"u  c #3B3714A40854",
"i  c #26F4054716B3",
"p  c #365B089919DD",
"a  c #266B1A64180C",
"s  c #37D31D550FEE",
"d  c #1CE620371F67",
"f  c #00A51AA824BF",
"g  c #0B921C852A55",
"h  c #05AA19152557",
"j  c #1B521CF12BEA",
"k  c #1662197624A5",
"l  c #17E71E4C300D",
"z  c #3AA50B5B231E",
"x  c #2D8712B82708",
"c  c #088A21122C89",
"v  c #19F622912B32",
"b  c #0A312676375C",
"n  c #1C5222B5338A",
"m  c #185F28543B61",
"M  c #23E823D023C0",
"N  c #2B7A2BE62C50",
"B  c #263F26272757",
"V  c #237B29CC3DC2",
"C  c #268C25FD35FB",
"Z  c #32152F04313E",
"A  c #2BCB3213328C",
"S  c #34A733A433A8",
"D  c #3C153A453AAA",
"F  c #363737D9396E",
"G  c #30DD2F752D34",
"H  c #4B0902BC0388",
"J  c #486F04BA078A",
"K  c #581304A3054A",
"L  c #44711812090F",
"P  c #4902027917C1",
"I  c #59BD1CBB1275",
"U  c #53FD19130000",
"Y  c #66B4033A0538",
"T  c #7A3106AF0828",
"R  c #77B80C061562",
"E  c #66B71EF30000",
"W  c #5A1623130A1F",
"Q  c #6B6629710986",
"!  c #63A5261F0876",
"~  c #790C2D3A08EB",
"^  c #6AC92275154B",
"/  c #78EB289C153A",
"(  c #7E48311D0ADA",
")  c #4A470D022B2F",
"_  c #563C0C5E2A84",
"`  c #58B60FE42CEA",
"'  c #49AC13EA35CF",
"]  c #5DCE139535D4",
"[  c #6946151D3DCE",
"{  c #76F713913A16",
"}  c #72470E4D2B48",
"|  c #422E3F183F8E",
" . c #1B2C2C4C4202",
".. c #1A3633554AE6",
"X. c #180432EF4912",
"o. c #1BE639B45383",
"O. c #163139EF5A34",
"+. c #05DE35B44E6A",
"@. c #23CA2D64437A",
"#. c #243233094AA1",
"$. c #28C2326747D0",
"%. c #343A358E47BC",
"&. c #2C9C3E235AC4",
"*. c #273338AC5367",
"=. c #36FA3BD15A44",
"-. c #3D3D264048BD",
";. c #5C4B16F846B9",
":. c #799518E74820",
">. c #6C36191C4A8D",
",. c #50582F394BA0",
"<. c #68BD29E95BA7",
"1. c #1CED426A5E1B",
"2. c #32A440675EF1",
"3. c #05ED4B8D6B4E",
"4. c #1750468B6511",
"5. c #02DF555675BF",
"6. c #00005A917CB1",
"7. c #0F46535475CD",
"8. c #22E34362627B",
"9. c #28AC48126906",
"0. c #352543556348",
"q. c #3D3649FA6C30",
"w. c #3800486F6977",
"e. c #28BD4E3C71C9",
"r. c #3A154C617283",
"t. c #282554967A8C",
"y. c #3C4753587ABB",
"u. c #38B15169769F",
"i. c #43B34BE6727E",
"p. c #43A153637A88",
"a. c #496D4C567722",
"s. c #85C805CF057F",
"d. c #9670065906C7",
"f. c #91270DCF1453",
"g. c #A4C90BF71300",
"h. c #B0BE0C821410",
"j. c #87B533BC0BE2",
"k. c #945B38D70D0C",
"l. c #87862BE51A5D",
"z. c #848A335E1078",
"x. c #8D7A346C1224",
"c. c #93F234E71657",
"v. c #A1A83ED60F5C",
"b. c #8E2407861FF7",
"n. c #98AE13642916",
"m. c #99A015E638E5",
"M. c #8EA912B52F40",
"N. c #AF3813D42DD0",
"B. c #C65C0DB81205",
"V. c #C892128E217E",
"C. c #9F1140EF1611",
"Z. c #A698433014D8",
"A. c #85C6186D4485",
"S. c #953E18BB420B",
"D. c #925B1EA25443",
"F. c #0F015DDE8390",
"G. c #2C525C2E855B",
"H. c #2CEC5D45898E",
"J. c #393E5D438B06",
"K. c #0000680F8E25",
"L. c #2CBF618B8CFD",
"P. c #369061128D94",
"I. c #2D5763BB9021",
"U. c #338D6AF49B0A",
"Y. c #35EF68E69794",
"T. c #382E6F46A19B",
"R. c #38AE7499A8E9",
"E. c #3A0D7D53B584",
"W. c #29F27156A309",
"Q. c #111D7E1BB1C1",
"!. c #57CD4D99829B",
"~. c #45EC5B26878E",
"^. c #4C9856D7882A",
"/. c #47A060AC8E43",
"(. c #4B4D649E942A",
"). c #4691687A9949",
"_. c #53F56A049CC3",
"`. c #49AA6DF1A3DD",
"'. c #52B06E60A29B",
"]. c #475D74B3AB5D",
"[. c #56BA744DAA88",
"{. c #4DBF798DB2A5",
"}. c #45187B1BB533",
"|. c #52DE7EBCB9FC",
" X c #598B7BC3B642",
".X c #00BB8458B723",
"XX c #13F180C0B460",
"oX c #3D908200BC14",
"OX c #43438304BDDF",
"+X c #4F70824DBE66",
"@X c #54938246BE67",
"#X c #58348147BDB7",
"$X c #00009AFFD55D",
"%X c #006A8CA9C1D8",
"&X c #3E48871DC3A6",
"*X c #3D6A97EED89B",
"=X c #0000A1CADF07",
"-X c #0078A678E51A",
";X c #0068BA83FE34",
":X c #1BFAB00AF22A",
">X c #40E5864CC292",
",X c #4B48869DC3BF",
"<X c #42D8891CC6CD",
"1X c #43CF8CEFCC28",
"2X c #4CCE8C0ECC47",
"3X c #4B468896C7A5",
"4X c #591F85F5C49F",
"5X c #55DF8977C936",
"6X c #56068F5CD1DC",
"7X c #4550929FD42F",
"8X c #4A5F92F3D5B0",
"9X c #4BA69710DB66",
"0X c #4BA598F7DDF2",
"qX c #4575995BDD05",
"wX c #55F39589DA2A",
"eX c #45B59008D0AB",
"rX c #64E38D97CF0F",
"tX c #4BD59DE3E4BF",
"yX c #46CF9EE0E51C",
"uX c #552E9D4EE4FF",
"iX c #60499FAFE9E1",
"pX c #4C98A308EBF4",
"aX c #467FA324E8CE",
"sX c #5221A385ED46",
"dX c #5BA4A249EC94",
"fX c #47BDAD85F744",
"gX c #54ADAAE7F803",
"hX c #56A0B0B9FFFF",
"jX c #6071A49FEEDE",
"kX c #6375A941F51D",
"lX c #000ACC42FFFF",
"zX c #005FD49EFFFF",
"xX c #1F98C051FFFF",
"cX c #00ECEB33FFFF",
"vX c #0000F905FFFF",
"bX c None",
/* pixels */
"bXbXbXbXbXbXbXbXbXbXbXbXbXbXbXbXbXbXbXbXbXbXbXbXbXbXbXbXbXbXbXbXbXbXbXbXbXbXbXbXbXbXbXbXbXbXbXbXbXbXbXbXbXbXbXbXbXbXbXbXbXbXbXbX",
"bXbXbXbXbXbXbXbXbXbXbXbXbXbXbXbXbXbXbXbXbXbXbXbXbXbXbXbXbXbXbXbXbXbXbXbXbXbXbXbXbXbXbXbXbXbXbXbXbXbXbXbXbXbXbXbXbXbXbXbXbXbXbXbX",
"bXbXbXbXbXbXbXbXbXbXbXbXbXbXbXbXbXbXbXbXbXbXbXbXbXbXbXbXbXbXbXbXbXbXbXbXbXbXbXbXbXbXbXbXbXbXbXbXbXbXbXbXbXbXbXbXbXbXbXbXbXbXbXbX",
"bXbXbXbXbXbXbXbXbXbXbXbXbXbXbXbXbXbXbXbXbXbXbXbXbXbXbXbXbXbXbXbXbXbXbXbXbXbXbXbXbXbXbXbXbXbXbXbXbXbXbXbXbXbXbXbXbXbXbXbXbXbXbXbX",
"bXbXbXbXbXbXbXbXbXbXbXbXbXbXbXbXbXbXbXbXbXbXbXbXbXbXbXbXbXbXbXbXbXbXbXbXbXbXbXbX.                 bXbXbXbXbXbXbXbXbXbXbXbXbXbXbX",
"bXbXbXbXbXbXbXbXbXbXbXbXbXbXbXbXbXbXbXbXbXbXbXbXbXbXbXbXbXbXbXbXbXbXbXbXbXbXbX                      bXbXbXbXbXbXbXbXbXbXbXbXbXbX",
"bXbXbXbXbXbXbXbXbXbXbXbXbXbXbXbXbXbXbXbXbXbXbXbXbXbXbXbXbXbXbXbXbXbXbXbXbXbX        @ 0 w 0 #       bXbXbXbXbXbXbXbXbXbXbXbXbXbX",
"bXbXbXbXbXbXbXbXbXbXbXbXbXbXbXbXbXbXbXbXbXbXbXbXbXbX        . + + .                 0 Y R K 8 .     bXbXbXbXbXbXbXbXbXbXbXbXbXbX",
"bXbXbXbXbXbXbXbXbXbXbXbXbXbXbXbXbXbXbXbXbXbXbXbXbX          .     .               . J f.g.T J @     bXbXbXbXbXbXbXbXbXbXbXbXbXbX",
"bXbXbXbXbXbXbXbXbXbXbXbXbXbXbXbXbXbXbXbXbXbXbXbXbX- < - o             . @ @ . . . q Y d.d.T H @   bXbXbXbXbXbXbXbXbXbXbXbXbXbXbX",
"bXbXbXbXbXbXbXbXbXbXbXbXbXbXbXbXbXbXbXbXbXbXbXbXg X.o.X.c o           @ q H K K I K Y Y Y K w @ bXbXbXbXbXbXbXbXbXbXbXbXbXbXbXbX",
"bXbXbXbXbXbXbXbXbXbXbXbXbXbXbXbXbXbX< o          .t.Y.H.o.,         . 8 K T d.g.f.s.K w 7 @ bXbXbXbXbXbXbXbXbXbXbXbXbXbXbXbXbXbX",
"bXbXbXbXbXbXbXbXbXbXbXbXbXbXbXbXbXbXX         - 8.R.8X>XG.k         & J T g.B.B.h.s.J &     bXbXbXbXbXbXbXbXbXbXbXbXbXbXbXbXbXbX",
"bXbXbXbXbXbXbXbXbXbXbXbXbXbXbXbXbX          ; X.H.1XpX9XJ.V @ . @ 7 L R n.N.h.h.d.Y e 3 f f f bXbXbXbXbXbXbXbXbXbXbXbXbXbXbXbXbX",
"bXbXbXbXbXbXbXbXbXbXbXbXbXbXbXo           h ..G.oX0XpX,X~.-.p H H K T M.n.m.b.T K w a @.1.O.+.- bXbXbXbXbXbXbXbXbXbXbXbXbXbXbXbX",
"bXbXbXbXbXbXbXbXbXbXbXbXbXbXo X         - *.I.&XaXaX7X}.^.;._ Y T d.f.n.S.{ _ 8 @ . V r./.u. .O     bXbXbXbXbXbXbXbXbXbXbXbXbXbX",
"bXbXbXbXbXbXbXbXbXbXbXbXbXbX  X       - X.H.<XsXfXaX1X].!.<.{ b.g.g.g.M.[ ' i X X f 8.).[.~.@.;     bXbXbXbXbXbXbXbXbXbXbXbXbXbX",
"bXbXbXbXbXbXbXbXbXbXbXbXbXbX      o g o.G.}.9XpXfXaX&X].!.<.A.m.N.N.n.R P i : f +.4.Y.|.[.a.@.;     bXbXbXbXbXbXbXbXbXbXbXbXbXbX",
"bXbXbXbXbXbXbXbXbXbXbXbXbXbX    o c 8.U.&X2XeX8XqX*X1X{.!.<.:.m.S.S.} P 7 . , +.F.R.5X4X'.q.C o     bXbXbXbXbXbXbXbXbXbXbXbXbXbX",
"bXbXbXbXbXbXbXbXbXbXbXbXbXbX    - ..P.1XtX0X1X<X*X*XeX}.!.;.[ } :.>.` 8 .   b t.E.uXuX5X(.=.l O     bXbXbXbXbXbXbXbXbXbXbXbXbXbX",
"bXbXbXbXbXbXbXbXbXbXbXbXbXbX    - o.U.tXhXsX8X1X7XqX7X].i.' P P P ) z & O g 1.W.8XdXuX4X(.&.l X     bXbXbXbXbXbXbXbXbXbXbXbXbXbX",
"bXbXbXbXbXbXbXbXbXbXbXbXbXbX    - o.U.tXhXgXtX0XyXtX7XT.9.x 7 # # & > j @.9.Y.OX0XuXuX4X(.2.j O     bXbXbXbXbXbXbXbXbXbXbXbXbXbX",
"bXbXbXbXbXbXbXbXbXbXbXbXbXbX    - ..P.7XgXsXtX9XtXpX7XT.8.3         > @.w.).|.2XeXeX6X4X(.0.l O     bXbXbXbXbXbXbXbXbXbXbXbXbXbX",
"bXbXbXbXbXbXbXbXbXbXbXbXbXbX    - ..L.<X0X7XoXoX1X0X7XR.9.g         k #.p.`.|.,X<X<X5X|._.0.n X     bXbXbXbXbXbXbXbXbXbXbXbXbXbX",
"bXbXbXbXbXbXbXbXbXbXbXbXbXbX    - o.U.&X7XR.L.G.U.>X7XoXG...k - , c m $.0.p.).E.OX1X2X@X(.0.n O     bXbXbXbXbXbXbXbXbXbXbXbXbXbX",
"bXbXbXbXbXbXbXbXbXbXbXbXbXbX    < 8.R.qX>XG...m 9.W.1X3XR.u.2.&.9.w.9.@.m V 8.Y.oX8X6X@X(.2.l O     bXbXbXbXbXbXbXbXbXbXbXbXbXbX",
"bXbXbXbXbXbXbXbXbXbXbXbXbXbX    < 4.R.7XE.8.- X b G.<X9X,X).^._.[._.p.V + X c t.OXuXuX4X(.2.l O     bXbXbXbXbXbXbXbXbXbXbXbXbXbX",
"bXbXbXbXbXbXbXbXbXbXbXbXbXbX    o *.T.<XU.m     - t.>XsXwX@X X XrX Xp.j     - 4.E.uXiX6X'.0.n X     bXbXbXbXbXbXbXbXbXbXbXbXbXbX",
"bXbXbXbXbXbXbXbXbXbXbXbXbXbX      @.P.{.J.j     o e.>XsXuX2X|.4XrX Xa.3     X 1.E.tXkXiX[.r.m X         bXbXbXbXbXbXbXbXbXbXbXbX",
"bXbXbXbXbXbXbXbXbXbXbXbXbXbX      m y.`.p.j     , t.OXsXtX1XOX+X X'.q.4     - 4.E.uXjXrX'.r.m X         + bXbXbXbXbXbXbXbXbXbXbX",
"bXbXbXbXbXbXbXbXbXbXbXbXbXbX    < #.~._.~.@.; o b G.<XtXaX7X<X,X|.'.y.V - o b t.oXtXwX|./.0.C *         X bXbXbXbXbXbXbXbXbXbXbX",
"bXbXbXbXbXbXbXbXbXbXbXbXbX- h b *.t.).].).9.o.X.9.W.1XyXaXyX0X0XwX5X).e...X.9.U.,X2X}.J.2.@.M r 9 @ .       bXbXbXbXbXbXbXbXbXbX",
"bXbXbXbXbXbXbXbXbXbXbXbX  g O.t.T.R.OXOXR.T.I.I.U.E.<XqXtXaXpXsXtXuX<XR.I.H.U.{.#X}.H.O.h > u W U t @     bXbXbXbXbXbXbXbXbXbXbX",
"bXbXbXbXbXbXbXbXbXbXbX    c 9.E.qXtX8X<X<XOX&XOX&X<X1X1X7XqX0XtXqX8X7X1X&X&X,X4X X~.o.h X # U ~ ~ W 9     bXbXbXbXbXbXbXbXbXbXbX",
"bXbXbXbXbXbXbXbXbXbX      c e.}.sXgXtX1X1X8X9X9X0X8X2X>X}.R.U.Y.Y.T.E.1X0X0XwX{./.0.j   . q E j.z.W r     bXbXbXbXbXbXbXbXbXbXbX",
"bXbXbXbXbXbXbXbXbXbX      l 9.].wXjXwX5X3X2X6X6XwXwX4X].J.8...n n ..e.].6XwX,X).&.C = $ e U ~ k.z.W r     bXbXbXbXbXbXbXbXbXbXbX",
"bXbXbXbXbXbXbXbXbXbX      k &./.#X4X#X#X{.{.{.#X4X5X X).&.j         n y.[.#X`.9.g @ 7 L ! ( k.k.~ L 9     bXbXbXbXbXbXbXbXbXbXbX",
"bXbXbXbXbXbXbXbXbXbXbX    k *.J.'.[._.(./././.(.'.'.(.y.#.,         k &.~.(.u.b   . 8 ! j.C.Z.k.Q y $     bXbXbXbXbXbXbXbXbXbXbX",
"bXbXbXbXbXbXbXbXbXbXbX    k *.p.(.~.r.0.2.w.i.i.i.i.w.&.X.b f f , f b o.0.=. .:     e Q k.Z.Z.k.Q L $     bXbXbXbXbXbXbXbXbXbXbX",
"bXbXbXbXbXbXbXbXbXbXbXbXbXbXbXbXbX*.V n C $.%.%.F C l  .O.5.K.K.K.K.5.4...l ;       e ! x.Z.Z.k.Q L $     bXbXbXbXbXbXbXbXbXbXbX",
"bXbXbXbXbXbXbXbXbXbXbXbXbXbXbXbXbXbX. X 2 v A Z a @ . f 3..X-XlX;X-X.X5.b         * t W j.k.v.k.Q L $     bXbXbXbXbXbXbXbXbXbXbX",
"bXbXbXbXbXbXbXbXbXbXbXbXbXbXbXbXbXbX    + 5 N B $ .   h 5.$XzXcXcXzX=X6.f         * s ! ~ k.k.x.Q L $     bXbXbXbXbXbXbXbXbXbXbX",
"bXbXbXbXbXbXbXbXbXbXbXbXbXbXbXbXbXbX    + 4 N B $ .   , 6.$XzXvXvXzX=X6.f         2 s W ~ k.c.z.W u $     bXbXbXbXbXbXbXbXbXbXbX",
"bXbXbXbXbXbXbXbXbXbXbXbXbXbXbXbXbXbX    + d G G r @   h 5.$XlXcXcXlX$X6.c         * s ! j.x.x./ W t =     bXbXbXbXbXbXbXbXbXbXbX",
"bXbXbXbXbXbXbXbXbXbXbXbXbXbXbXbXbXbX    6 M F F a @   h 3..X;XzXzX;X.X5.c         * y ! ( x.l./ I 0 %     bXbXbXbXbXbXbXbXbXbXbX",
"bXbXbXbXbXbXbXbXbXbXbXbXbXbXbXbXbXbX    2 B F F a @   h 3.Q.:XxX:X:XQ.7.c         * s ! z.c.c./ I t =     bXbXbXbXbXbXbXbXbXbXbX",
"bXbXbXbXbXbXbXbXbXbXbXbXbXbXbXbXbXbX    2 B F F a     : O.W.*XfXfX*XW.4.h         * y W / c.c.l.I t @       bXbXbXbXbXbXbXbXbXbX",
"bXbXbXbXbXbXbXbXbXbXbXbXbXbXbXbXbXbX    6 M F S a     - ..H.@XwX6X@XP.*.<         * t I / l.l.l.I t =     bXbXbXbXbXbXbXbXbXbXbX",
"bXbXbXbXbXbXbXbXbXbXbXbXbXbXbXbXbXbX    O M S S M * + 6 V w.^.'.'.^.i.%.5 +       + 0 L I ^ ^ ^ I t @     bXbXbXbXbXbXbXbXbXbXbX",
"bXbXbXbXbXbXbXbXbXbXbXbXbXbXbXbXbXbX    O d G D S B a k C %.=.,.=.%.%.C B 4 6 +   + % 0 p L L u t 0 @   bXbXbXbXbXbXbXbXbXbXbXbX",
"bXbXbXbXbXbXbXbXbXbXbXbXbXbXbXbXbXbX    O 4 N | | D S B M k k 3 > k d N S G M 2 .   . . $ $ $ = = @ + bXbXbXbXbXbXbXbXbXbXbXbXbX",
"bXbXbXbXbXbXbXbXbXbXbXbXbXbXbXbXbXbX    + 2 B S D | D N 4 O       . O M S F A 5 +         .         bXbXbXbXbXbXbXbXbXbXbXbXbXbX",
"bXbXbXbXbXbXbXbXbXbXbXbXbXbXbXbXbXbX    + 6 5 v A A A M 6 +           5 N A v 1                   bXbXbXbXbXbXbXbXbXbXbXbXbXbXbX",
"bXbXbXbXbXbXbXbXbXbXbXbXbXbXbXbXbXbXbXbXbXo o 6 1 1 5 1 o             o 1 1 , 6                 bXbXbXbXbXbXbXbXbXbXbXbXbXbXbXbX",
"bXbXbXbXbXbXbXbXbXbXbXbXbXbXbXbXbXbXbXbXbX      + + +                   X X X               bXbXbXbXbXbXbXbXbXbXbXbXbXbXbXbXbXbX",
"bXbXbXbXbXbXbXbXbXbXbXbXbXbXbXbXbXbXbXbXbX+ .               +   X +     .   . . . . .       bXbXbXbXbXbXbXbXbXbXbXbXbXbXbXbXbXbX",
"bXbXbXbXbXbXbXbXbXbXbXbXbXbXbXbXbXbXbXbX% & 7 i i i 0 & % + X     X . & 8 w H H J q 7 +     bXbXbXbXbXbXbXbXbXbXbXbXbXbXbXbXbXbX",
"bXbXbXbXbXbXbXbXbXbXbXbXbXbXbXbXbXbX    % i ) ) _ _ ) p i .         @ w K T s.d.s.K w @     bXbXbXbXbXbXbXbXbXbXbXbXbXbXbXbXbXbX",
"bXbXbXbXbXbXbXbXbXbXbXbXbXbXbXbXbXbX    % p ' >.:.:.[ ) i %         # J T g.h.B.h.s.H &     bXbXbXbXbXbXbXbXbXbXbXbXbXbXbXbXbXbX",
"bXbXbXbXbXbXbXbXbXbXbXbXbXbXbXbXbXbX    % z ] A.D.D.:.[ z &         = J R h.V.B.h.f.J 7     bXbXbXbXbXbXbXbXbXbXbXbXbXbXbXbXbXbX",
"bXbXbXbXbXbXbXbXbXbXbXbXbXbXbXbXbXbXbX  % p bXbXbXbXbXbXbXbXbX      @ P } n.N.N.m.} J &     bXbXbXbXbXbXbXbXbXbXbXbXbXbXbXbXbXbX",
"bXbXbXbXbXbXbXbXbXbXbXbXbXbXbXbXbXbXbXbXbXbXbXbXbXbXbXbXbXbXbXbX    % i _ { S.S.M.` p %     bXbXbXbXbXbXbXbXbXbXbXbXbXbXbXbXbXbX",
"bXbXbXbXbXbXbXbXbXbXbXbXbXbXbXbXbXbXbXbXbXbXbXbXbXbXbXbXbXbXbXbX    % i ) ;.:.:.>.) i %     bXbXbXbXbXbXbXbXbXbXbXbXbXbXbXbXbXbX",
"bXbXbXbXbXbXbXbXbXbXbXbXbXbXbXbXbXbXbXbXbXbXbXbXbXbXbXbXbXbXbXbX    % > ) ;.>.<.;.' x %     bXbXbXbXbXbXbXbXbXbXbXbXbXbXbXbXbXbX"
};
