/* XPM */
static char * r2_xpm[] = {
"64 64 374 2",
"  	c None",
". 	c #D78E61",
"+ 	c #DA965E",
"@ 	c #D9945F",
"# 	c #D78F60",
"$ 	c #EDC351",
"% 	c #F4D24C",
"& 	c #D89160",
"* 	c #EDC451",
"= 	c #F5D54B",
"- 	c #FEEA45",
"; 	c #D9955F",
"> 	c #F2CF4D",
", 	c #E2A958",
"' 	c #E0A45A",
") 	c #FAE247",
"! 	c #FFF542",
"~ 	c #D6905F",
"{ 	c #D58A62",
"] 	c #EFC750",
"^ 	c #ECC052",
"/ 	c #D79060",
"( 	c #E3AD58",
"_ 	c #F4D44C",
": 	c #FFF043",
"< 	c #FFF140",
"[ 	c #DB995E",
"} 	c #DFA15B",
"| 	c #D89260",
"1 	c #D79061",
"2 	c #D8925B",
"3 	c #F5DB5C",
"4 	c #FFFC81",
"5 	c #B2A52F",
"6 	c #DA965F",
"7 	c #D8925F",
"8 	c #F0D050",
"9 	c #FFFF59",
"0 	c #857F36",
"a 	c #E5B155",
"b 	c #F6DE56",
"c 	c #FFFF6B",
"d 	c #898233",
"e 	c #978A40",
"f 	c #FFEB37",
"g 	c #F7F2CC",
"h 	c #FFFFB5",
"i 	c #908726",
"j 	c #9E7466",
"k 	c #0F1531",
"l 	c #B3A936",
"m 	c #FFFF79",
"n 	c #FFFFFF",
"o 	c #F3E879",
"p 	c #5B5823",
"q 	c #9D9533",
"r 	c #FFFDD6",
"s 	c #FFFFCB",
"t 	c #978B40",
"u 	c #0F1629",
"v 	c #A4987A",
"w 	c #FFF0B0",
"x 	c #DCC698",
"y 	c #2F2E37",
"z 	c #1A2535",
"A 	c #203140",
"B 	c #181D2F",
"C 	c #5B564F",
"D 	c #E5D29E",
"E 	c #A79776",
"F 	c #655F56",
"G 	c #1E2B39",
"H 	c #41838A",
"I 	c #1F384D",
"J 	c #111323",
"K 	c #081027",
"L 	c #877660",
"M 	c #7A6C5A",
"N 	c #575049",
"O 	c #484646",
"P 	c #31575E",
"Q 	c #4FA4AB",
"R 	c #4FA2A5",
"S 	c #2D3F57",
"T 	c #141629",
"U 	c #0F0B1D",
"V 	c #253234",
"W 	c #32473A",
"X 	c #36353C",
"Y 	c #1B2031",
"Z 	c #484147",
"` 	c #1D2031",
" .	c #161D2E",
"..	c #141A2E",
"+.	c #101028",
"@.	c #468586",
"#.	c #4BA1A8",
"$.	c #52959D",
"%.	c #393D63",
"&.	c #20384A",
"*.	c #2B5264",
"=.	c #283349",
"-.	c #030021",
";.	c #53814A",
">.	c #417A47",
",.	c #3E3942",
"'.	c #8D7267",
").	c #3A373F",
"!.	c #1F2731",
"~.	c #70A354",
"{.	c #2B4D39",
"].	c #1D2D41",
"^.	c #418F9D",
"/.	c #406485",
"(.	c #335870",
"_.	c #3B7F90",
":.	c #47698D",
"<.	c #323A5B",
"[.	c #151E30",
"}.	c #1E2C33",
"|.	c #307141",
"1.	c #252736",
"2.	c #806A61",
"3.	c #52494B",
"4.	c #0C102A",
"5.	c #719B52",
"6.	c #71DC5E",
"7.	c #2A734D",
"8.	c #325365",
"9.	c #3B7A8E",
"0.	c #417E95",
"a.	c #415278",
"b.	c #2B3451",
"c.	c #2E6071",
"d.	c #3C6F86",
"e.	c #374068",
"f.	c #1D3639",
"g.	c #10172B",
"h.	c #2E2A3B",
"i.	c #252536",
"j.	c #1E4D38",
"k.	c #263135",
"l.	c #7EBA5A",
"m.	c #44BC59",
"n.	c #386259",
"o.	c #3A7887",
"p.	c #407A92",
"q.	c #3E748C",
"r.	c #3B8494",
"s.	c #41748F",
"t.	c #43547B",
"u.	c #485881",
"v.	c #364065",
"w.	c #19202F",
"x.	c #66934E",
"y.	c #45543E",
"z.	c #266C41",
"A.	c #24563C",
"B.	c #283231",
"C.	c #51C057",
"D.	c #3D8763",
"E.	c #38626A",
"F.	c #3B8295",
"G.	c #3F8899",
"H.	c #43718E",
"I.	c #405076",
"J.	c #2E3257",
"K.	c #292E4F",
"L.	c #2B3452",
"M.	c #0F172E",
"N.	c #1A2631",
"O.	c #56BA56",
"P.	c #68C65A",
"Q.	c #28513B",
"R.	c #161F2F",
"S.	c #1F303C",
"T.	c #223348",
"U.	c #2A6E38",
"V.	c #418565",
"W.	c #223241",
"X.	c #3B788D",
"Y.	c #405C7D",
"Z.	c #2F3456",
"`.	c #1E223C",
" +	c #1D4133",
".+	c #297E40",
"++	c #2D8542",
"@+	c #5F9C50",
"#+	c #2C4639",
"$+	c #257242",
"%+	c #34C454",
"&+	c #1D4B38",
"*+	c #15122E",
"=+	c #3A6D70",
"-+	c #58AEAD",
";+	c #3F8775",
">+	c #438889",
",+	c #38778A",
"'+	c #3F8699",
")+	c #24334A",
"!+	c #21333B",
"~+	c #3C6B60",
"{+	c #39B753",
"]+	c #3EC956",
"^+	c #38BB54",
"/+	c #81DC61",
"(+	c #8FE464",
"_+	c #315B3E",
":+	c #0F0C2A",
"<+	c #1C3734",
"[+	c #26493A",
"}+	c #2C2C39",
"|+	c #151D2F",
"1+	c #3B6E73",
"2+	c #5AB8B5",
"3+	c #52A6AC",
"4+	c #4795A1",
"5+	c #408C9E",
"6+	c #387688",
"7+	c #1D2A38",
"8+	c #2B454A",
"9+	c #417268",
"0+	c #3D8C5E",
"a+	c #2A6C43",
"b+	c #1B3C33",
"c+	c #20543B",
"d+	c #2E6941",
"e+	c #308346",
"f+	c #2E8947",
"g+	c #1C3534",
"h+	c #1A192F",
"i+	c #6B5A57",
"j+	c #202433",
"k+	c #141A2D",
"l+	c #182032",
"m+	c #315A63",
"n+	c #3C8391",
"o+	c #3C8195",
"p+	c #3E8497",
"q+	c #3D8194",
"r+	c #151A2E",
"s+	c #263C42",
"t+	c #43736A",
"u+	c #3F6867",
"v+	c #314B53",
"w+	c #2F4950",
"x+	c #140E2D",
"y+	c #13152C",
"z+	c #214D39",
"A+	c #1A2C32",
"B+	c #222533",
"C+	c #131829",
"D+	c #20233E",
"E+	c #364C6B",
"F+	c #3F6D87",
"G+	c #3E8295",
"H+	c #3F7E93",
"I+	c #364A6A",
"J+	c #293C49",
"K+	c #39645B",
"L+	c #43776A",
"M+	c #477E71",
"N+	c #335754",
"O+	c #2D4F64",
"P+	c #43899E",
"Q+	c #3D8193",
"R+	c #3D8596",
"S+	c #3D8A99",
"T+	c #426F8B",
"U+	c #373C64",
"V+	c #2F3E57",
"W+	c #324D55",
"X+	c #3B6A5F",
"Y+	c #2A3B4D",
"Z+	c #212742",
"`+	c #14132B",
" @	c #1E3446",
".@	c #3F8A9B",
"+@	c #4290A2",
"@@	c #418EA0",
"#@	c #4291A2",
"$@	c #416283",
"%@	c #434E76",
"&@	c #47557F",
"*@	c #424D78",
"=@	c #394D68",
"-@	c #44567B",
";@	c #3A486E",
">@	c #1A2135",
",@	c #141A2B",
"'@	c #181D32",
")@	c #2C6D46",
"!@	c #214E39",
"~@	c #161C2E",
"{@	c #284C5F",
"]@	c #295164",
"^@	c #295163",
"/@	c #274D5F",
"(@	c #344162",
"_@	c #3B4A73",
":@	c #29375B",
"<@	c #24314E",
"[@	c #2C334E",
"}@	c #283049",
"|@	c #2E354B",
"1@	c #1C2334",
"2@	c #111227",
"3@	c #2A4149",
"4@	c #46C566",
"5@	c #34A94C",
"6@	c #182330",
"7@	c #171C2F",
"8@	c #7A6555",
"9@	c #7D6656",
"0@	c #88715A",
"a@	c #876F59",
"b@	c #746558",
"c@	c #51474E",
"d@	c #54494B",
"e@	c #312E36",
"f@	c #5C4E4C",
"g@	c #524747",
"h@	c #2F2D37",
"i@	c #222534",
"j@	c #1F2A3A",
"k@	c #295A44",
"l@	c #22533A",
"m@	c #161B2D",
"n@	c #262535",
"o@	c #272636",
"p@	c #292837",
"q@	c #292B39",
"r@	c #232736",
"s@	c #3A3740",
"t@	c #4F464A",
"u@	c #38353F",
"v@	c #2F2E3A",
"w@	c #3B3841",
"x@	c #121A2D",
"y@	c #11182C",
"z@	c #192335",
"A@	c #365F7A",
"B@	c #3E6E8B",
"C@	c #3B6986",
"D@	c #3C5479",
"E@	c #3F4D76",
"F@	c #3A4A73",
"G@	c #2D3C62",
"H@	c #1E263B",
"I@	c #665653",
"J@	c #1E2232",
"K@	c #50464B",
"L@	c #413B42",
"M@	c #1B2A3C",
"N@	c #224050",
"O@	c #284E5F",
"P@	c #234555",
"Q@	c #26364D",
"R@	c #2D3654",
"S@	c #28314B",
"T@	c #212A42",
"U@	c #2A2B39",
"V@	c #38353E",
"W@	c #302F3A",
"X@	c #121022",
"Y@	c #131225",
"Z@	c #10182B",
"`@	c #171D2F",
" #	c #171F31",
".#	c #171E30",
"+#	c #171D30",
"@#	c #161D2F",
"##	c #171C2E",
"$#	c #171D2E",
"                                                                                                                                ",
"                                                                                                                                ",
"                                                                                                                                ",
"                                                                                                                                ",
"                                                                                                                                ",
"                                                                                                                                ",
"                                                                                                                                ",
"                                                                                                                                ",
"                            . + + @                                                                                             ",
"                          # $ %                                                                                                 ",
"                        & * = -                                                                                                 ",
"                        ; > , ' ) !   ~                                                                                         ",
"                      { ] ^ / ( _ : <                                                                                           ",
"                        [ } | 1 2 3 4 5                                                                                         ",
"                              6 7 8 9 0                                                                                         ",
"                                a b c d                                                                                         ",
"                              e f g h i       j                                                                                 ",
"                            k l m n o p                                                                                         ",
"                              q r s t                                                                                           ",
"                              u v w x y           z A                                                                           ",
"                              B C D E F           G H I J                                                                       ",
"                              K L M N O           P Q R S T U     V W                                                           ",
"                                X Y Z `      ...+.@.#.$.%.&.*.=.-.;.>.                                                          ",
"                                  ,.'.).    !.~.{.].^./.(._.:.<.[.}.|.                                                          ",
"                                  1.2.3.    4.5.6.7.8.9.0.a.b.c.d.e.f.                                                          ",
"                                  g.h.i.j.    k.l.m.n.o.p.q.r.s.t.u.v.                                                          ",
"                                  w.x.y.z.A.    B.C.D.E.F.G.H.I.J.K.L.M.                                                        ",
"                                  N.O.P.Q.R.  S.T.U.V.W.X.Y.Z.`. +.+++@+#+                                                      ",
"                                    $+%+&+*+  =+-+;+>+,+'+)+!+~+{+]+^+/+(+_+:+                                                  ",
"                                    <+[+}+|+  1+2+3+4+5+6+7+8+9+0+a+b+c+d+e+f+g+                                                ",
"                                      h+i+j+k+l+m+n+o+p+q+r+s+t+u+v+w+x+  y+z+A+                                                ",
"                                        B+    C+D+E+F+G+H+I+J+K+L+M+N+                                                          ",
"                                                O+P+Q+R+S+T+U+V+W+X+Y+Z+      `+                                                ",
"                                                 @.@+@@@#@$@%@&@*@=@-@;@>@,@'@)@!@                                              ",
"                                                ~@{@]@^@/@(@_@:@<@[@}@|@1@2@3@4@5@6@                                            ",
"                                                7@8@9@0@a@b@c@d@e@f@g@h@i@  j@k@l@                                              ",
"                                                m@n@o@p@q@r@s@t@u@v@w@x@y@                                                      ",
"                                                z@A@B@C@D@E@F@G@H@I@J@K@L@                                                      ",
"                                                M@N@O@P@Q@R@S@T@U@V@g.i@W@                                                      ",
"                                                    X@Y@                Z@`@                                                    ",
"                                                     #.#.#+#+#@#`@B ~@##$#~@                                                    ",
"                                                ~@~@~@~@~@~@~@~@~@~@~@~@~@~@~@~@                                                ",
"                                                ~@~@~@~@~@~@~@~@~@~@~@~@~@~@~@~@                                                ",
"                                                    ~@~@~@~@~@~@~@~@~@~@~@~@                                                    ",
"                                                                                                                                ",
"                                                                                                                                ",
"                                                                                                                                ",
"                                                                                                                                ",
"                                                                                                                                ",
"                                                                                                                                ",
"                                                                                                                                ",
"                                                                                                                                ",
"                                                                                                                                ",
"                                                                                                                                ",
"                                                                                                                                ",
"                                                                                                                                ",
"                                                                                                                                ",
"                                                                                                                                ",
"                                                                                                                                ",
"                                                                                                                                ",
"                                                                                                                                ",
"                                                                                                                                ",
"                                                                                                                                ",
"                                                                                                                                "};
