/* XPM */
static char *result[] = {
/* columns rows colors chars-per-pixel */
"64 64 236 2 ",
"   c #0087006F0081",
".  c #0ACC015401EF",
"X  c #02B205340A96",
"o  c #0374092A0BF8",
"O  c #0AFD0AA70CBC",
"+  c #0A2106F90747",
"@  c #1440031C0235",
"#  c #1B7D020202B9",
"$  c #1B3209D503A3",
"%  c #138503910ABA",
"&  c #11480C3009A5",
"*  c #1A310576092C",
"=  c #04F40CFA1315",
"-  c #0AB30C8B1295",
";  c #02740AD61A1C",
":  c #17280AB1183A",
">  c #0BE0129E12F4",
",  c #032D144B1C25",
"<  c #0A6212201A88",
"1  c #07C9177017A1",
"2  c #11FE13351359",
"3  c #144913A61E4E",
"4  c #1B4F1B0B1A7E",
"5  c #174A16A818FF",
"6  c #126F0FF40ECC",
"7  c #21BC02200009",
"8  c #2C6F02A30258",
"9  c #23860CE9034A",
"0  c #2A68086B0982",
"q  c #324B03D7032C",
"w  c #3A8C002D0027",
"e  c #34320CE20644",
"r  c #29F612F908E8",
"t  c #3479122B0A9D",
"y  c #39681A1D0B7C",
"u  c #3B3914A40853",
"i  c #2735063016F9",
"p  c #35A007A11887",
"a  c #266B1A64180C",
"s  c #37D31D550FEE",
"d  c #1CE620371F67",
"f  c #00A51AA824BF",
"g  c #0B921C852A55",
"h  c #05AA19152557",
"j  c #1B521CF12BEA",
"k  c #16701974249A",
"l  c #17E71E4C300D",
"z  c #39FA0BD52297",
"x  c #2CDE111425B2",
"c  c #088A21122C89",
"v  c #1972223F2B09",
"b  c #0A312676375C",
"n  c #1C5222B5338A",
"m  c #185F28543B61",
"M  c #24562368240B",
"N  c #2C242B712C1D",
"B  c #260B266F26E8",
"V  c #237C29CC3DC1",
"C  c #264C27553518",
"Z  c #30CB2EC7305D",
"A  c #2B0C326B3399",
"S  c #34E133333346",
"D  c #386338503925",
"F  c #2F162F552C16",
"G  c #496204AC073A",
"H  c #583704AE054A",
"J  c #44751811090C",
"K  c #4855027A17A1",
"L  c #59BD1CBB1275",
"P  c #53FD19130000",
"I  c #670F02D804D3",
"U  c #7A7506440749",
"Y  c #77950BFA1554",
"T  c #66B71EF30000",
"R  c #5A1623130A1F",
"E  c #6B6629710986",
"W  c #63A5261F0876",
"Q  c #790C2D3A08EB",
"!  c #6ACA2275154A",
"~  c #78EB289C153A",
"^  c #7E48311D0ADA",
"/  c #49470D182B36",
"(  c #56910BE22866",
")  c #56D70FFA2DB1",
"_  c #49DB13F535F1",
"`  c #5E0C12553552",
"'  c #584F0E7730A7",
"]  c #696315293DE2",
"[  c #76F813913A16",
"{  c #71E90E5F2B44",
"}  c #415F3DA83D6E",
"|  c #1B2C2C4C4202",
" . c #1A3633554AE6",
".. c #180432EF4912",
"X. c #1BE639B45383",
"o. c #163139EF5A34",
"O. c #05DE35B44E6A",
"+. c #23CA2D64437A",
"@. c #243233094AA1",
"#. c #28C1326847D1",
"$. c #343A358E47BC",
"%. c #2C9C3E235AC4",
"&. c #273338AC5367",
"*. c #36FA3BD15A44",
"=. c #3D3D264048BD",
"-. c #5C1916EB4693",
";. c #799C18EA4823",
":. c #6BDE19074A4B",
">. c #584627275186",
",. c #68BD29E95BA7",
"<. c #1CED426A5E1B",
"1. c #32A440675EF1",
"2. c #05ED4B8D6B4E",
"3. c #1750468B6511",
"4. c #02DF555675BF",
"5. c #00005A917CB1",
"6. c #0F46535475CD",
"7. c #22E34362627B",
"8. c #28AC48126906",
"9. c #352543556348",
"0. c #3D3649FA6C31",
"q. c #3800486E6977",
"w. c #28BD4E3C71C9",
"e. c #3A154C617283",
"r. c #282554967A8C",
"t. c #3C4753587ABB",
"y. c #38B15169769F",
"u. c #43B34BE6727E",
"i. c #43A153637A88",
"p. c #496D4C567722",
"a. c #858A04F404C6",
"s. c #9749068C07DD",
"d. c #90C70E0F1486",
"f. c #A4C90BF71300",
"g. c #B10E0CAB143E",
"h. c #87B533BC0BE2",
"j. c #945B38D70D0C",
"k. c #87862BE51A5D",
"l. c #848A335E1078",
"z. c #8D7A346C1224",
"x. c #93F234E71657",
"c. c #8E2407861FF7",
"v. c #9772137027F6",
"b. c #99A015E638E5",
"n. c #8ECF12C22F55",
"m. c #A791134A2E1F",
"M. c #B3F615122EBB",
"N. c #A1A83ED60F5C",
"B. c #C6130DAD11FA",
"V. c #CCB513A822D7",
"C. c #9F1140EF1611",
"Z. c #A698433014D8",
"A. c #84C917DE43C3",
"S. c #95A318D2423D",
"D. c #8E4A1CFE517F",
"F. c #0F015DDE8390",
"G. c #2C525C2E855B",
"H. c #2CEC5D45898E",
"J. c #393E5D438B06",
"K. c #0000680F8E25",
"L. c #2CBF618B8CFD",
"P. c #369061128D94",
"I. c #2D5763BB9021",
"U. c #338D6AF49B0A",
"Y. c #35EF68E69794",
"T. c #382E6F46A19B",
"R. c #38AE7499A8E9",
"E. c #3A0D7D53B584",
"W. c #29F27156A309",
"Q. c #111D7E1BB1C1",
"!. c #57CD4D99829B",
"~. c #45EC5B26878E",
"^. c #4C9856D7882A",
"/. c #47A060AC8E43",
"(. c #4B4D649E942A",
"). c #4691687A9949",
"_. c #53F56A049CC3",
"`. c #49AA6DF1A3DD",
"'. c #52B06E60A29B",
"]. c #475D74B3AB5D",
"[. c #56BA744DAA88",
"{. c #4DBF798DB2A5",
"}. c #45187B1BB533",
"|. c #52DE7EBCB9FC",
" X c #598B7BC3B642",
".X c #00BB8458B723",
"XX c #13F180C0B460",
"oX c #3D908200BC14",
"OX c #43438304BDDF",
"+X c #4F70824DBE66",
"@X c #54938246BE67",
"#X c #58348147BDB7",
"$X c #00009AFFD55D",
"%X c #006A8CA9C1D8",
"&X c #3E48871DC3A6",
"*X c #3D6A97EED89B",
"=X c #0000A1CADF07",
"-X c #0078A678E51A",
";X c #0068BA83FE34",
":X c #1BFAB00AF22A",
">X c #40E5864CC292",
",X c #4B48869DC3BF",
"<X c #42D8891CC6CD",
"1X c #43CF8CEFCC28",
"2X c #4CCE8C0ECC47",
"3X c #4B468896C7A5",
"4X c #591F85F5C49F",
"5X c #55DF8977C936",
"6X c #56068F5CD1DC",
"7X c #4550929FD42F",
"8X c #4A5F92F3D5B0",
"9X c #4BA69710DB66",
"0X c #4BA598F7DDF2",
"qX c #4575995BDD05",
"wX c #55F39589DA2A",
"eX c #45B59008D0AB",
"rX c #64E38D97CF0F",
"tX c #4BD59DE3E4BF",
"yX c #46CF9EE0E51C",
"uX c #552E9D4EE4FF",
"iX c #60499FAFE9E1",
"pX c #4C98A308EBF4",
"aX c #467FA324E8CE",
"sX c #5221A385ED46",
"dX c #5BA4A249EC94",
"fX c #47BDAD85F744",
"gX c #54ADAAE7F803",
"hX c #56A0B0B9FFFF",
"jX c #6071A49FEEDE",
"kX c #6375A941F51D",
"lX c #000ACC42FFFF",
"zX c #005FD49EFFFF",
"xX c #1F98C051FFFF",
"cX c #00ECEB33FFFF",
"vX c #0000F905FFFF",
"bX c None",
/* pixels */
"bXbXbXbXbXbXbXbXbXbXbXbXbXbXbXbXbXbXbXbXbXbXbXbXbXbXbXbXbXbXbXbXbXbXbXbXbXbXbXbXbXbXbXbXbXbXbXbXbXbXbXbXbXbXbXbXbXbXbXbXbXbXbXbX",
"bXbXbXbXbXbXbXbXbXbXbXbXbXbXbXbXbXbXbXbXbXbXbXbXbXbXbXbXbXbXbXbXbXbXbXbXbXbXbXbXbXbXbXbXbXbXbXbXbXbXbXbXbXbXbXbXbXbXbXbXbXbXbXbX",
"bXbXbXbXbXbXbXbXbXbXbXbXbXbXbXbXbXbXbXbXbXbXbXbXbXbXbXbXbXbXbXbXbXbXbXbXbXbXbXbXbXbXbXbXbXbXbXbXbXbXbXbXbXbXbXbXbXbXbXbXbXbXbXbX",
"bXbXbXbXbXbXbXbXbXbXbXbXbXbXbXbXbXbXbXbXbXbXbXbXbXbXbXbXbXbXbXbXbXbXbXbXbXbXbXbXbXbXbXbXbXbXbXbXbXbXbXbXbXbXbXbXbXbXbXbXbXbXbXbX",
"bXbXbXbXbXbXbXbXbXbXbXbXbXbXbXbXbXbXbXbXbXbXbXbXbXbXbXbXbXbXbXbXbXbXbXbXbXbXbXbX.                 bXbXbXbXbXbXbXbXbXbXbXbXbXbXbX",
"bXbXbXbXbXbXbXbXbXbXbXbXbXbXbXbXbXbXbXbXbXbXbXbXbXbXbXbXbXbXbXbXbXbXbXbXbXbXbX                      bXbXbXbXbXbXbXbXbXbXbXbXbXbX",
"bXbXbXbXbXbXbXbXbXbXbXbXbXbXbXbXbXbXbXbXbXbXbXbXbXbXbXbXbXbXbXbXbXbXbXbXbXbX        @ 0 w 0 #       bXbXbXbXbXbXbXbXbXbXbXbXbXbX",
"bXbXbXbXbXbXbXbXbXbXbXbXbXbXbXbXbXbXbXbXbXbXbXbXbXbX        . + . .                 q I Y H 8 .     bXbXbXbXbXbXbXbXbXbXbXbXbXbX",
"bXbXbXbXbXbXbXbXbXbXbXbXbXbXbXbXbXbXbXbXbXbXbXbXbX            . .                 . G d.f.Y G @     bXbXbXbXbXbXbXbXbXbXbXbXbXbX",
"bXbXbXbXbXbXbXbXbXbXbXbXbXbXbXbXbXbXbXbXbXbXbXbXbX= < = =             . @ @ . . . q I s.s.U G @   bXbXbXbXbXbXbXbXbXbXbXbXbXbXbX",
"bXbXbXbXbXbXbXbXbXbXbXbXbXbXbXbXbXbXbXbXbXbXbXbXg ..X...g o           @ q G H H H I I I I H w @ bXbXbXbXbXbXbXbXbXbXbXbXbXbXbXbX",
"bXbXbXbXbXbXbXbXbXbXbXbXbXbXbXbXbXbX< o         | r.U.H.X.,         . 8 H U s.f.d.Y H w 7 @ bXbXbXbXbXbXbXbXbXbXbXbXbXbXbXbXbXbX",
"bXbXbXbXbXbXbXbXbXbXbXbXbXbXbXbXbXbXX         - 7.R.7X>XG.3         * G Y g.B.B.g.d.G #     bXbXbXbXbXbXbXbXbXbXbXbXbXbXbXbXbXbX",
"bXbXbXbXbXbXbXbXbXbXbXbXbXbXbXbXbX          = ..H.1XsX9XJ.V @ . @ 7 J Y v.g.B.g.s.I e 3 f f f bXbXbXbXbXbXbXbXbXbXbXbXbXbXbXbXbX",
"bXbXbXbXbXbXbXbXbXbXbXbXbXbXbXo           k  .G.oXqXpX,XJ.=.p G G H U n.b.b.c.I G w a +.<.o.O.= bXbXbXbXbXbXbXbXbXbXbXbXbXbXbXbX",
"bXbXbXbXbXbXbXbXbXbXbXbXbXbXo X         = X.I.<XyXaX7X}.!.>.( I U s.d.v.b.;./ 8 @ . V e./.y.| -     bXbXbXbXbXbXbXbXbXbXbXbXbXbX",
"bXbXbXbXbXbXbXbXbXbXbXbXbXbX  X       = ..H.3XpXfXaX&X`.!.>.[ c.f.f.f.n.[ _ x X X f 7.).[.~.+.-     bXbXbXbXbXbXbXbXbXbXbXbXbXbX",
"bXbXbXbXbXbXbXbXbXbXbXbXbXbX      o g X.G.}.9XpXfXaX7X].!.,.A.m.m.M.n.Y K : ; f O.3.U. X[.p.V -     bXbXbXbXbXbXbXbXbXbXbXbXbXbX",
"bXbXbXbXbXbXbXbXbXbXbXbXbXbX    o c 7.U.&X1X7X8X*XqX1X{.!.,.A.S.S.S.{ G 7   , O.F.R.3X4X'.u.V o     bXbXbXbXbXbXbXbXbXbXbXbXbXbX",
"bXbXbXbXbXbXbXbXbXbXbXbXbXbX    =  .P.1XtX0X3X<X*X*XeX].!.>.] { ;.;.' q .   c r.oXwXuX5X(.*.j o     bXbXbXbXbXbXbXbXbXbXbXbXbXbX",
"bXbXbXbXbXbXbXbXbXbXbXbXbXbX    - X.T.tXhXsX9X1X7XqX7X].u._ K K K / z : O g <.W.8XdXdX5X/.*.l O     bXbXbXbXbXbXbXbXbXbXbXbXbXbX",
"bXbXbXbXbXbXbXbXbXbXbXbXbXbX    = X.U.0XhXgXtX0XtXtX7XR.9.x 7 # # * i k +.8.Y.OX0XuXwX4X(.1.l o     bXbXbXbXbXbXbXbXbXbXbXbXbXbX",
"bXbXbXbXbXbXbXbXbXbXbXbXbXbX    =  .I.7XgXsX0X9XtXpX7XR.7.k         : +.0.).+X2X1X7X6X4X(.9.n X     bXbXbXbXbXbXbXbXbXbXbXbXbXbX",
"bXbXbXbXbXbXbXbXbXbXbXbXbXbX    = ..H.<XtX7XoXoX1X9X7XR.3.g         h @.t._.|.,X<X<X3X@X_.9.n O     bXbXbXbXbXbXbXbXbXbXbXbXbXbX",
"bXbXbXbXbXbXbXbXbXbXbXbXbXbX    < X.Y.&X7XR.L.G.U.&XeXoXG...h = < c m &.1.t.).}.OX1X2X@X(.9.n O     bXbXbXbXbXbXbXbXbXbXbXbXbXbX",
"bXbXbXbXbXbXbXbXbXbXbXbXbXbX    < <.R.qX>XG. .m 7.R.1X<X`.y.1.%.8.q.7.#.C +.7.I.oX8X6X@X(.1.j X     bXbXbXbXbXbXbXbXbXbXbXbXbXbX",
"bXbXbXbXbXbXbXbXbXbXbXbXbXbX    < 3.R.7XE.7.= X b L.<X0X3X`.~._.[._.t.V + X b w.OXuXuX4X(.1.l -     bXbXbXbXbXbXbXbXbXbXbXbXbXbX",
"bXbXbXbXbXbXbXbXbXbXbXbXbXbX    o X.T.3XU.m     = w.>XsXwX|. X XrX Xi.j     = 3.E.uXiX6X'.9.n X     bXbXbXbXbXbXbXbXbXbXbXbXbXbX",
"bXbXbXbXbXbXbXbXbXbXbXbXbXbX      +.P.{.P.j     o w.<XsXuX3X|.4X4X Xp.3     X <.E.tXkXiX[.e.m X         bXbXbXbXbXbXbXbXbXbXbXbX",
"bXbXbXbXbXbXbXbXbXbXbXbXbXbX      m t.`.i.j     , w.>XpXtX2XOX+X X_.u.4     = 3.E.uXjXrX'.e.m X         + bXbXbXbXbXbXbXbXbXbXbX",
"bXbXbXbXbXbXbXbXbXbXbXbXbXbX    3 @.~._.~.#.- = m L.<XtXaX7X<X,X4X[.t.V = o b r.oXtXwX|./.9.C &         X bXbXbXbXbXbXbXbXbXbXbX",
"bXbXbXbXbXbXbXbXbXbXbXbXbX= h b X.w.).].).8. . .3.W.1XtXaXtXqX0X6X,X).w. ...8.U.,X2X}.J.1.+.M r 9 @ .       bXbXbXbXbXbXbXbXbXbX",
"bXbXbXbXbXbXbXbXbXbXbXbX  h o.r.U.E.OXOX].T.L.L.U.E.<XqXtXaXpXsXsXtX3XR.I.L.U.}.4X}.G.o.h : u P R t @     bXbXbXbXbXbXbXbXbXbXbX",
"bXbXbXbXbXbXbXbXbXbXbX    c w.R.7XtX8X<X&X>X>X&X&X&X1X1X7XqX0XtX9X9XqX&X&X&X,X#X X~.o.h   # P Q E R 9     bXbXbXbXbXbXbXbXbXbXbX",
"bXbXbXbXbXbXbXbXbXbX      v w.OXsXgX0XeX1X7X8X0X0X8X2X>XE.R.U.Y.Y.T.E.3X9X0X6X+X~.9.j   . q T h.l.R r     bXbXbXbXbXbXbXbXbXbXbX",
"bXbXbXbXbXbXbXbXbXbX      g 8.].wXjXwX5X3X2X6XwXwXwX5X].J.1. .n n ..w.].6XwX,X).%.C * 9 e P h.j.l.R r     bXbXbXbXbXbXbXbXbXbXbX",
"bXbXbXbXbXbXbXbXbXbX      k %./.#X5X4X X{.{.{. X4X5X X).9.j .       n t.[.#X`.8.g @ 9 J W h.j.j.Q J 9     bXbXbXbXbXbXbXbXbXbXbX",
"bXbXbXbXbXbXbXbXbXbXbX    k &.J.'.[._.(./././.(.'.'.(.t.@.,         k %.~.(.y.b .   8 R h.Z.j.j.E y $     bXbXbXbXbXbXbXbXbXbXbX",
"bXbXbXbXbXbXbXbXbXbXbX    k &.i.(.^.e.9.9.q.0.u.u.u.0.%. .b f f , f b X.9.1.| ;     e E j.Z.Z.j.E J $     bXbXbXbXbXbXbXbXbXbXbX",
"bXbXbXbXbXbXbXbXbXbXbXbXbXbXbXbXbX&.V n C #.$.$.D C l | O.4.K.K.K.K.4.3. .j -       e W z.Z.Z.j.E J $     bXbXbXbXbXbXbXbXbXbXbX",
"bXbXbXbXbXbXbXbXbXbXbXbXbXbXbXbXbXbX  + < v A S a @ . f 2..X-XlX;X-X.X4.b         & t R h.j.C.j.E J $     bXbXbXbXbXbXbXbXbXbXbX",
"bXbXbXbXbXbXbXbXbXbXbXbXbXbXbXbXbXbX    . 4 N B $ .   , 5.$XzXcXcXzX=X5.f         & s W Q j.j.j.E J $     bXbXbXbXbXbXbXbXbXbXbX",
"bXbXbXbXbXbXbXbXbXbXbXbXbXbXbXbXbXbX    + 4 N M $ .   , 5.$XzXvXvXzX=X5.f         6 s R Q j.x.l.R u $     bXbXbXbXbXbXbXbXbXbXbX",
"bXbXbXbXbXbXbXbXbXbXbXbXbXbXbXbXbXbX    + d F F r @   h 4.$XlXcXcXlX$X5.c         & s W h.z.z.~ R t $     bXbXbXbXbXbXbXbXbXbXbX",
"bXbXbXbXbXbXbXbXbXbXbXbXbXbXbXbXbXbX    > v D S a @   h 2..X;XzXzX;X.X4.c         & y W ^ z.k.~ L 0 %     bXbXbXbXbXbXbXbXbXbXbX",
"bXbXbXbXbXbXbXbXbXbXbXbXbXbXbXbXbXbX    & N D D a @   h 2.Q.:XxX:X:XQ.6.c         & s W l.x.x.~ L t @     bXbXbXbXbXbXbXbXbXbXbX",
"bXbXbXbXbXbXbXbXbXbXbXbXbXbXbXbXbXbX    > B D D a     ; o.W.*XfXfX*XW.3.h         & y R ~ x.x.k.L t @ X     bXbXbXbXbXbXbXbXbXbX",
"bXbXbXbXbXbXbXbXbXbXbXbXbXbXbXbXbXbX    > B D S a     = ..G.+XwX6X@XP.&.<         & t L ~ k.k.k.! y @     bXbXbXbXbXbXbXbXbXbXbX",
"bXbXbXbXbXbXbXbXbXbXbXbXbXbXbXbXbXbX    6 v S S M $ + > V q.^.'._.^.0.#.5 +       + 0 J L ! ! ! J t @     bXbXbXbXbXbXbXbXbXbXbX",
"bXbXbXbXbXbXbXbXbXbXbXbXbXbXbXbXbXbX    O a S D S M 4 4 C $.*.>.>.*.$.Z B 4 > o   + @ 0 p J J u t 0 @   bXbXbXbXbXbXbXbXbXbXbXbX",
"bXbXbXbXbXbXbXbXbXbXbXbXbXbXbXbXbXbX    + 4 F } } } S N M k k 3 h k v N Z F B 2 +     @ * $ $ $ @ @ + bXbXbXbXbXbXbXbXbXbXbXbXbX",
"bXbXbXbXbXbXbXbXbXbXbXbXbXbXbXbXbXbX    o 2 B S } } D N 4 O         O M S D F 4 +         X         bXbXbXbXbXbXbXbXbXbXbXbXbXbX",
"bXbXbXbXbXbXbXbXbXbXbXbXbXbXbXbXbXbX    o > 5 v N A A B >             5 B F B >                   bXbXbXbXbXbXbXbXbXbXbXbXbXbXbX",
"bXbXbXbXbXbXbXbXbXbXbXbXbXbXbXbXbXbXbXbXo o o 1 1 1 1 1 o             o 2 1 1 o                 bXbXbXbXbXbXbXbXbXbXbXbXbXbXbXbX",
"bXbXbXbXbXbXbXbXbXbXbXbXbXbXbXbXbXbXbXbXbX    X o o o o                   + X               bXbXbXbXbXbXbXbXbXbXbXbXbXbXbXbXbXbX",
"bXbXbXbXbXbXbXbXbXbXbXbXbXbXbXbXbXbXbXbXbX.   .   .         X   X X           . . .         bXbXbXbXbXbXbXbXbXbXbXbXbXbXbXbXbXbX",
"bXbXbXbXbXbXbXbXbXbXbXbXbXbXbXbXbXbXbXbXbX8 q w w w w q # .   X       % * i i p i i * +     bXbXbXbXbXbXbXbXbXbXbXbXbXbXbXbXbXbX",
"bXbXbXbXbXbXbXbXbXbXbXbXbXbXbXbXbXbXbX  # G I U a.a.U H w @         + i p / ' ` ) z i O     bXbXbXbXbXbXbXbXbXbXbXbXbXbXbXbXbXbX",
"bXbXbXbXbXbXbXbXbXbXbXbXbXbXbXbXbXbX    7 G a.g.B.g.f.Y G #         % p ( ] ;.;.:.) p %     bXbXbXbXbXbXbXbXbXbXbXbXbXbXbXbXbXbX",
"bXbXbXbXbXbXbXbXbXbXbXbXbXbXbXbXbXbX    # G c.g.V.V.g.Y G $         * z ` ;.D.D.;.` z *     bXbXbXbXbXbXbXbXbXbXbXbXbXbXbXbXbXbX",
"bXbXbXbXbXbXbXbXbXbXbXbXbXbXbXbXbXbX    * K { b.M.M.v.{ K @       bXbXbXbXbXbXbXbXbXbXbXbXbXbXbXbXbXbXbXbXbXbXbXbXbXbXbXbXbXbXbX",
"bXbXbXbXbXbXbXbXbXbXbXbXbXbXbXbXbXbX    @ p ( n.b.S.[ ( i %     bXbXbXbXbXbXbXbXbXbXbXbXbXbXbXbXbXbXbXbXbXbXbXbXbXbXbXbXbXbXbXbX",
"bXbXbXbXbXbXbXbXbXbXbXbXbXbXbXbXbXbX    % p _ :.;.;.] / i O     bXbXbXbXbXbXbXbXbXbXbXbXbXbXbXbXbXbXbXbXbXbXbXbXbXbXbXbXbXbXbXbX",
"bXbXbXbXbXbXbXbXbXbXbXbXbXbXbXbXbXbX    X x _ -.:.,.-.z i .     bXbXbXbXbXbXbXbXbXbXbXbXbXbXbXbXbXbXbXbXbXbXbXbXbXbXbXbXbXbXbXbX"
};
