/* XPM */
static char * r3_xpm[] = {
"64 64 521 2",
"  	c None",
". 	c #9E7466",
"+ 	c #FFEC44",
"@ 	c #DB965E",
"# 	c #FFEF43",
"$ 	c #FFF442",
"% 	c #FFEE44",
"& 	c #FEEC44",
"* 	c #FEEB45",
"= 	c #FFED44",
"- 	c #FEEB44",
"; 	c #B98363",
"> 	c #D6945F",
", 	c #FFF641",
"' 	c #FDE846",
") 	c #EDC451",
"! 	c #E1A759",
"~ 	c #DD9D5C",
"{ 	c #F9DE48",
"] 	c #FFF143",
"^ 	c #FFF242",
"/ 	c #FFF043",
"( 	c #FFEF44",
"_ 	c #987167",
": 	c #A27765",
"< 	c #FFF541",
"[ 	c #F4D24C",
"} 	c #E4AF57",
"| 	c #DA975E",
"1 	c #D68D61",
"2 	c #D89260",
"3 	c #DB995E",
"4 	c #D89160",
"5 	c #F0CA4F",
"6 	c #FAE247",
"7 	c #FCE646",
"8 	c #F0C94F",
"9 	c #ECC052",
"0 	c #E6B256",
"a 	c #E4AD57",
"b 	c #EABD53",
"c 	c #F5D54B",
"d 	c #FFF342",
"e 	c #997167",
"f 	c #B17F63",
"g 	c #D58C62",
"h 	c #FAE148",
"i 	c #E8B854",
"j 	c #D68C61",
"k 	c #D9935F",
"l 	c #DA965E",
"m 	c #D9945F",
"n 	c #FBE347",
"o 	c #E9B954",
"p 	c #E2A959",
"q 	c #D79060",
"r 	c #DEA15B",
"s 	c #E5B156",
"t 	c #F8DE49",
"u 	c #9D7466",
"v 	c #BB8463",
"w 	c #F2D14C",
"x 	c #EDC251",
"y 	c #DA955F",
"z 	c #DD9E5C",
"A 	c #E7B555",
"B 	c #FEEA45",
"C 	c #C68A61",
"D 	c #F1CC4E",
"E 	c #F3D14C",
"F 	c #D9955F",
"G 	c #E3AC58",
"H 	c #E7B455",
"I 	c #E0A45A",
"J 	c #F9DF48",
"K 	c #F8DC49",
"L 	c #EDC351",
"M 	c #D78F60",
"N 	c #DA965F",
"O 	c #1F3446",
"P 	c #336879",
"Q 	c #306073",
"R 	c #244153",
"S 	c #141527",
"T 	c #D78E61",
"U 	c #F0CA4E",
"V 	c #F4D44C",
"W 	c #DC9A5D",
"X 	c #FFF542",
"Y 	c #11152C",
"Z 	c #140B2B",
"` 	c #438285",
" .	c #59B5B3",
"..	c #408797",
"+.	c #316478",
"@.	c #1B2D3D",
"#.	c #D28F5E",
"$.	c #DD995E",
"%.	c #D9975E",
"&.	c #EEC550",
"*.	c #EBBD52",
"=.	c #D78F61",
"-.	c #FFFD3F",
";.	c #17202F",
">.	c #286A40",
",.	c #378D49",
"'.	c #256E41",
").	c #0D0B24",
"!.	c #1D2639",
"~.	c #56AAA3",
"{.	c #4B9EA3",
"].	c #59BAB7",
"^.	c #406D7B",
"/.	c #100B20",
"(.	c #172430",
"_.	c #9F7051",
":.	c #E49764",
"<.	c #DC9F5A",
"[.	c #EBBD53",
"}.	c #182C32",
"|.	c #466943",
"1.	c #79DB61",
"2.	c #337C43",
"3.	c #224144",
"4.	c #46939E",
"5.	c #468494",
"6.	c #4B768A",
"7.	c #2C4459",
"8.	c #28495D",
"9.	c #23374B",
"0.	c #100D24",
"a.	c #1E3535",
"b.	c #266840",
"c.	c #3D3438",
"d.	c #B98157",
"e.	c #E09861",
"f.	c #D9955E",
"g.	c #10132D",
"h.	c #86B259",
"i.	c #66D65F",
"j.	c #2D6C4F",
"k.	c #2F5870",
"l.	c #407B93",
"m.	c #3B738C",
"n.	c #3A5B79",
"o.	c #405C7E",
"p.	c #3D4B70",
"q.	c #20273F",
"r.	c #151628",
"s.	c #66B557",
"t.	c #29643F",
"u.	c #7E5C48",
"v.	c #E69C62",
"w.	c #D6925E",
"x.	c #0A0724",
"y.	c #5B824A",
"z.	c #4FC958",
"A.	c #3C7E5E",
"B.	c #3C717B",
"C.	c #3F879B",
"D.	c #3E738B",
"E.	c #406A87",
"F.	c #37627A",
"G.	c #2D5669",
"H.	c #346578",
"I.	c #2A3358",
"J.	c #477B46",
"K.	c #2C6440",
"L.	c #2C2B33",
"M.	c #C3835B",
"N.	c #DD9660",
"O.	c #E3AB58",
"P.	c #31585F",
"Q.	c #3D737C",
"R.	c #34523B",
"S.	c #429A5F",
"T.	c #325251",
"U.	c #32606D",
"V.	c #408D9F",
"W.	c #418A9C",
"X.	c #427B95",
"Y.	c #437490",
"Z.	c #456E8E",
"`.	c #435B80",
" +	c #47567E",
".+	c #23324A",
"++	c #101627",
"@+	c #A18844",
"#+	c #F8C158",
"$+	c #D28961",
"%+	c #DFA25B",
"&+	c #15192B",
"*+	c #488B8A",
"=+	c #62C3BB",
"-+	c #4EA599",
";+	c #438A8D",
">+	c #34687C",
",+	c #3A7F92",
"'+	c #40728C",
")+	c #2D3556",
"!+	c #292E4C",
"~+	c #2B2B4F",
"{+	c #282A4B",
"]+	c #343C5F",
"^+	c #394272",
"/+	c #18193A",
"(+	c #5C6231",
"_+	c #F6DE47",
":+	c #DB965F",
"<+	c #D79160",
"[+	c #F5D64C",
"}+	c #FBE447",
"|+	c #161D2F",
"1+	c #4A9290",
"2+	c #4A9FA7",
"3+	c #4493A0",
"4+	c #45929F",
"5+	c #4190A2",
"6+	c #366F82",
"7+	c #1C2237",
"8+	c #20313A",
"9+	c #315252",
"0+	c #30674D",
"a+	c #2C8542",
"b+	c #2A8946",
"c+	c #477D4A",
"d+	c #426A41",
"e+	c #0F1F2E",
"f+	c #110028",
"g+	c #22503A",
"h+	c #1D3D36",
"i+	c #FFFF48",
"j+	c #4C4B34",
"k+	c #E0D341",
"l+	c #E9B059",
"m+	c #D8935F",
"n+	c #FEE943",
"o+	c #FDE944",
"p+	c #DE9C5E",
"q+	c #F3DF44",
"r+	c #181B2F",
"s+	c #25354B",
"t+	c #366277",
"u+	c #3E6C89",
"v+	c #3D8396",
"w+	c #3D8395",
"x+	c #1A2839",
"y+	c #1A2331",
"z+	c #375D5B",
"A+	c #477A71",
"B+	c #3DA85B",
"C+	c #39B951",
"D+	c #35AF51",
"E+	c #4ECD58",
"F+	c #92E866",
"G+	c #49924C",
"H+	c #287E44",
"I+	c #2F8747",
"J+	c #1E2E32",
"K+	c #FFFA46",
"L+	c #B4A93D",
"M+	c #F2E441",
"N+	c #EBB955",
"O+	c #D9945E",
"P+	c #FFF5A1",
"Q+	c #FDEA54",
"R+	c #DF9D5A",
"S+	c #EFDB45",
"T+	c #969139",
"U+	c #284A5D",
"V+	c #3E778E",
"W+	c #3D7B90",
"X+	c #42879C",
"Y+	c #3D8596",
"Z+	c #3F7E93",
"`+	c #232943",
" @	c #182331",
".@	c #3F6D66",
"+@	c #427169",
"@@	c #2C544A",
"#@	c #1A2D32",
"$@	c #192131",
"%@	c #1E4C39",
"&@	c #32924A",
"*@	c #40BE54",
"=@	c #2E8947",
"-@	c #171F2F",
";@	c #FAE83F",
">@	c #FFF44E",
",@	c #FFFC5F",
"'@	c #EABB4E",
")@	c #E8B752",
"!@	c #FFFFD1",
"~@	c #FAE782",
"{@	c #EFBD4A",
"]@	c #E6D842",
"^@	c #464633",
"/@	c #15182A",
"(@	c #316577",
"_@	c #4396A7",
":@	c #326779",
"<@	c #2F6172",
"[@	c #4290A3",
"}@	c #408D9E",
"|@	c #406182",
"1@	c #242943",
"2@	c #366058",
"3@	c #43756B",
"4@	c #3E6A65",
"5@	c #3C6662",
"6@	c #1A2333",
"7@	c #161E2E",
"8@	c #14142C",
"9@	c #D6C844",
"0@	c #FFFFAC",
"a@	c #E6B562",
"b@	c #E9B851",
"c@	c #FFFFCB",
"d@	c #FDEE82",
"e@	c #FFE63C",
"f@	c #F2E344",
"g@	c #1B2435",
"h@	c #3D8091",
"i@	c #438D9F",
"j@	c #3B7889",
"k@	c #223647",
"l@	c #254352",
"m@	c #385D77",
"n@	c #43587E",
"o@	c #414D76",
"p@	c #32425C",
"q@	c #3B6760",
"r@	c #21313D",
"s@	c #C4B94B",
"t@	c #FFFFF1",
"u@	c #F1D04F",
"v@	c #F1CB37",
"w@	c #FFFFCF",
"x@	c #FDF080",
"y@	c #FFF83A",
"z@	c #BDB140",
"A@	c #0F1A2F",
"B@	c #2F7389",
"C@	c #30788E",
"D@	c #2F7A91",
"E@	c #328197",
"F@	c #1E3656",
"G@	c #161A34",
"H@	c #252E48",
"I@	c #3A476B",
"J@	c #43517A",
"K@	c #364862",
"L@	c #405272",
"M@	c #384268",
"N@	c #1B2439",
"O@	c #CBBF4D",
"P@	c #FFF76B",
"Q@	c #FEF16D",
"R@	c #FDF3A7",
"S@	c #FFF9BF",
"T@	c #FBEA4E",
"U@	c #FFFB43",
"V@	c #8A8439",
"W@	c #100F21",
"X@	c #4E4745",
"Y@	c #645B53",
"Z@	c #635C56",
"`@	c #73695C",
" #	c #75796F",
".#	c #888377",
"+#	c #514C5A",
"@#	c #161C2D",
"##	c #141C2D",
"$#	c #1E213B",
"%#	c #1B2336",
"&#	c #1F2C3E",
"*#	c #232D46",
"=#	c #25283A",
"-#	c #BBB03E",
";#	c #FFF632",
">#	c #FDF7C9",
",#	c #FFFFFF",
"'#	c #FFEF5A",
")#	c #FFF16C",
"!#	c #FFED3E",
"~#	c #162031",
"{#	c #304D66",
"]#	c #4A5774",
"^#	c #373A4B",
"/#	c #41383F",
"(#	c #594F4D",
"_#	c #504747",
":#	c #5B524B",
"<#	c #3A3743",
"[#	c #474246",
"}#	c #5B484F",
"|#	c #1C3B33",
"1#	c #33A44C",
"2#	c #3BB14F",
"3#	c #3B8A46",
"4#	c #0A1728",
"5#	c #1E2331",
"6#	c #D6C83D",
"7#	c #FFF653",
"8#	c #FEFFFF",
"9#	c #FFF594",
"0#	c #FFF489",
"a#	c #FFF8B4",
"b#	c #FFEB30",
"c#	c #171E30",
"d#	c #2A4F62",
"e#	c #2B4C65",
"f#	c #386A85",
"g#	c #33607C",
"h#	c #314E73",
"i#	c #35446F",
"j#	c #32436D",
"k#	c #242F4C",
"l#	c #33333D",
"m#	c #2C2538",
"n#	c #2C8546",
"o#	c #3AC155",
"p#	c #78CA5D",
"q#	c #374E3C",
"r#	c #3F3843",
"s#	c #39363E",
"t#	c #12192C",
"u#	c #161B2D",
"v#	c #6A665B",
"w#	c #2A2C37",
"x#	c #726F39",
"y#	c #FFF842",
"z#	c #FDF17F",
"A#	c #FFFBD6",
"B#	c #FFF48C",
"C#	c #FEFBDD",
"D#	c #FFED3B",
"E#	c #121123",
"F#	c #121526",
"G#	c #182334",
"H#	c #192736",
"I#	c #1F2A3D",
"J#	c #252D44",
"K#	c #202940",
"L#	c #262733",
"M#	c #3B383F",
"N#	c #1F2232",
"O#	c #21553B",
"P#	c #3AB051",
"Q#	c #82CA5D",
"R#	c #2E3A37",
"S#	c #635154",
"T#	c #967B6B",
"U#	c #5A4D50",
"V#	c #4C4746",
"W#	c #6E675B",
"X#	c #C9B78C",
"Y#	c #7E7360",
"Z#	c #6C6734",
"`#	c #EEDC30",
" $	c #FFFAA3",
".$	c #FEF17D",
"+$	c #FFF05E",
"@$	c #FEEE54",
"#$	c #FFF486",
"$$	c #FDEA3F",
"%$	c #FCEA45",
"&$	c #161C2E",
"*$	c #171D30",
"=$	c #161A2C",
"-$	c #151A2B",
";$	c #14192A",
">$	c #141B2E",
",$	c #10182B",
"'$	c #151B2D",
")$	c #14112B",
"!$	c #1B3333",
"~$	c #1C3033",
"{$	c #1C2130",
"]$	c #151B2E",
"^$	c #37343E",
"/$	c #38353F",
"($	c #282935",
"_$	c #998A6F",
":$	c #FAEEB3",
"<$	c #EED4A6",
"[$	c #FEE75F",
"}$	c #FFFC8F",
"|$	c #FDFCF6",
"1$	c #FFF488",
"2$	c #FEF06B",
"3$	c #FFEC3A",
"4$	c #FFF03B",
"5$	c #B8AD3F",
"6$	c #161C2F",
"7$	c #171C2E",
"8$	c #171D2F",
"9$	c #15182D",
"0$	c #000822",
"a$	c #6F6355",
"b$	c #908167",
"c$	c #BBAC8A",
"d$	c #F0DB89",
"e$	c #FFFFD5",
"f$	c #FFFCBC",
"g$	c #FFF361",
"h$	c #FFEF3F",
"i$	c #FFFD47",
"j$	c #857F3B",
"k$	c #161D2E",
"l$	c #111829",
"m$	c #383641",
"n$	c #615E31",
"o$	c #D7CA43",
"p$	c #E8D94A",
"q$	c #EFDE3A",
"r$	c #F1E03C",
"s$	c #F2E244",
"t$	c #A49B3B",
"u$	c #8E883D",
"v$	c #9C943D",
"                                                                                                                                ",
"                                                                                                                                ",
"                                                                                                                                ",
"                                                                                                                                ",
"                                                                                                                                ",
"                                                                                                                                ",
"                                                                                                                                ",
"                                                                                                                                ",
"                                                                                                                                ",
"                                                                                                                                ",
"                          . .                                                                                                   ",
"                          . . .                             +                                                                   ",
"                            . . . .         @       # $ % & #         * * + = * -                                               ",
"                                . .     ; >     , # ' ) ! )     ~ { ] ^ $ / ( $ ] = & &                                         ",
"                                    _ :       < [ } | 1 2 3 4 5 6 ^ 7 8 9 0 a b c / d / + = = = =                               ",
"                                  e f g   / h i j   k l m 0 n + ' o p   1 q q 1 4 r s t d % =   = =                             ",
"                                u v     w x                   )       y |       y   s z A B = = = = &                           ",
"                                C     6                                                 D n # = = +                             ",
"                                                                                          % + = + ] E                           ",
"                                                                                    F F   d = + = # G                           ",
"                                                                                      m k H % = = = I 4                         ",
"                                                                                        m q I J / / K F                         ",
"                                                                                          l 1 G % # L M N                       ",
"                                                                  O P Q R S                 l T U o V W F   X                   ",
"                                                              Y Z   `  ...+.@.                #.$.%.&.*.=.  -.=                 ",
"                                                          ;.>.,.'.).!.~.{.].^./.    (.          _.:.<.[.T 2 a =                 ",
"                                                            }.|.1.2.3.4.5.6.7.8.9.0.a.b.        c.d.e.f.m m | & %               ",
"                                                              g.h.i.j.k.l.m.n.o.p.q.r.s.t.        u.v.w.F q     B               ",
"                                                              x.y.z.A.B.C.D.E.F.G.H.I.J.K.        L.M.N.q O.      =             ",
"                                                            P.Q.R.S.T.U.V.W.X.Y.Z.`. +.+++          @+#+$+%+= %   +             ",
"                                                          &+*+=+-+;+>+,+'+)+!+~+{+]+^+/+            (+_+:+<+[+$ G }+            ",
"                                                          |+1+2+3+4+5+6+7+8+9+0+a+b+c+d+e+f+g+h+  i+j+k+l+m+n+o+p+q+            ",
"                                                          r+s+t+u+v+w+x+y+z+A+B+C+D+E+F+G+H+I+J+  K+L+M+N+O+P+Q+R+S+T+          ",
"                                                          U+V+W+X+Y+Z+`+ @.@+@@@#@$@%@&@*@=@-@    ;@>@,@'@)@!@~@{@]@^@          ",
"                                                        /@(@_@:@<@[@}@|@1@2@3@4@5@6@  7@(.8@        9@0@a@b@c@d@e@f@            ",
"                                                        g@h@i@j@k@l@m@n@o@p@q@3@r@                  s@t@u@v@w@x@y@z@            ",
"                                                        A@B@C@D@E@F@G@H@I@J@K@L@M@N@                O@P@Q@R@S@T@U@V@            ",
"                                                      W@X@Y@Z@`@ #.#+#@###$#%#&#*#=#                -#;#>#,#'#)#!#              ",
"                                                    ~#{#]#^#/#(#_#:#<#[#}#|#1#2#3#4#              5#6#7#8#9#0#a#b#              ",
"                                                    c#d#e#f#g#h#i#j#k#l#m#n#o#p#q#r#s#t#u#v#w#    x#y#z#A#B#C#)#D#              ",
"                                                      E#F#G#H#I#J#K#L#M#N#O#P#Q#R#S#T#U#V#W#X#Y#Z#`# $.$+$@$#$$$%$              ",
"                                                  &$&$c#*$=$=$-$;$-$>$,$'$)$!$~${$]$^$/$($_$:$<$[$}$|$1$2$3$4$5$                ",
"                                                &$&$&$&$&$&$&$&$|+6$7$8$&$7@9$9$]$    0$a$b$c$d$e$,#f$g$h$i$j$                  ",
"                                                    &$&$&$&$&$&$&$&$&$&$&$&$k$            l$m$n$o$p$q$r$s$t$                    ",
"                                                                                                    u$v$                        ",
"                                                                                                                                ",
"                                                                                                                                ",
"                                                                                                                                ",
"                                                                                                                                ",
"                                                                                                                                ",
"                                                                                                                                ",
"                                                                                                                                ",
"                                                                                                                                ",
"                                                                                                                                ",
"                                                                                                                                ",
"                                                                                                                                ",
"                                                                                                                                ",
"                                                                                                                                ",
"                                                                                                                                ",
"                                                                                                                                ",
"                                                                                                                                ",
"                                                                                                                                ",
"                                                                                                                                ",
"                                                                                                                                "};
