/* XPM */
static char *_a10e35d00c545b4a9e5c81756887441GCAGip6lPzZiJHLu[] = {
/* columns rows colors chars-per-pixel */
"64 64 7 1 ",
"  c None",
". c #F7EC9B",
"X c #D88571",
"o c #33323D",
"O c #DAAB76",
"+ c white",
"@ c #C25F62",
/* pixels */
"                                                                ",
"                                                                ",
"                                                                ",
"                                                                ",
"                                                                ",
"                                                                ",
"                                                                ",
"                                                                ",
"                                                                ",
"                                                                ",
"                                                                ",
"                                                                ",
"                                                                ",
"                                                                ",
"                                                                ",
"                                                                ",
"                                                                ",
"                                                                ",
"                                                                ",
"                                                                ",
"                           ..                                   ",
"                           ..                                   ",
"                                                                ",
"                                                                ",
"                                                                ",
"                                                                ",
"                                      XX                        ",
"                                      XX                        ",
"                                                                ",
"                                                                ",
"                                                                ",
"                            oooooooooo                          ",
"                           oXOOOOOOO.+o                         ",
"                          oXOOOOOO.O..Oo                        ",
"                          oXOOOOOOOOOOOo                        ",
"                         oXXo@@@XX@@@oOOo                       ",
"                         oXXo@@@XX@@@oO.o                       ",
"                         oXXo@@@OO@@@oOOo                       ",
"                         oXXXooOXXOooOOOo                       ",
"                          oXXXOOooOOOOOo                        ",
"                           oooXXOOOOooo                         ",
"                            o@XoOOOO@o                          ",
"                            oXXoOOoOXo                          ",
"                             oo oo oo                           ",
"                                                                ",
"                                                                ",
"                                                                ",
"                                                                ",
"                                                                ",
"                                                                ",
"                                                                ",
"                                                                ",
"                                                                ",
"                                                                ",
"                                                                ",
"                                                                ",
"                                                                ",
"                                                                ",
"                                                                ",
"                                                                ",
"                                                                ",
"                                                                ",
"                                                                ",
"                                                                "
};
