/* XPM */
static char *_d23fdd70eb64c9ab625f0936ee55d24zZor2uyalUpNQc7x[] = {
/* columns rows colors chars-per-pixel */
"64 64 6 1 ",
"  c None",
". c #F7EC9B",
"X c #DAAB76",
"o c #C25F62",
"O c #33323D",
"+ c #D88571",
/* pixels */
"                                                                ",
"                                                                ",
"                                                                ",
"                                                                ",
"                                                                ",
"                                                                ",
"                                                                ",
"                                                                ",
"                                                                ",
"                                                                ",
"                                                                ",
"                                                                ",
"                                                                ",
"                                                                ",
"                                                                ",
"                                                                ",
"                                                                ",
"                                                                ",
"                                                                ",
"                          .                                     ",
"                                                                ",
"                                                                ",
"                                     XX                         ",
"                                    XXXX                        ",
"                                    XXXX                        ",
"                                     XX                         ",
"                                                                ",
"                                                                ",
"                               o                                ",
"                                                                ",
"                                                                ",
"                            OOOOOOOOOO                          ",
"                           O+XXXXXXXX.O                         ",
"                          O+XXXXXXX.X..O                        ",
"                          O+XXXXXXXXXXXO                        ",
"                         O++XXXXOooo++ooO                       ",
"                         O++XXXXOooo++ooO                       ",
"                         O++XXXXOoooXXooO                       ",
"                         O++XXXXXOOX++XOO                       ",
"                          O++XXXXXXXOOXXO                       ",
"                           O++OOXXXXXXXO                        ",
"                            OOOoXXOXXXXO                        ",
"                              O+XXOXXOXO                        ",
"                               OOO OO O                         ",
"                                                                ",
"                                                                ",
"                                                                ",
"                                                                ",
"                                                                ",
"                                                                ",
"                                                                ",
"                                                                ",
"                                                                ",
"                                                                ",
"                                                                ",
"                                                                ",
"                                                                ",
"                                                                ",
"                                                                ",
"                                                                ",
"                                                                ",
"                                                                ",
"                                                                ",
"                                                                "
};
