/* XPM */
static char *_80bc3173b3f4a2cb8c284095e15c1148YcxzuNH17ip6FVz[] = {
/* columns rows colors chars-per-pixel */
"64 64 6 1 ",
"  c None",
". c #F7EC9B",
"X c #D88571",
"o c #33323D",
"O c #DAAB76",
"+ c #C25F62",
/* pixels */
"                                                                ",
"                                                                ",
"                                                                ",
"                                                                ",
"                                                                ",
"                                                                ",
"                                                                ",
"                                                                ",
"                                                                ",
"                                                                ",
"                                                                ",
"                                                                ",
"                                                                ",
"                                                                ",
"                                                                ",
"                                                                ",
"                                                                ",
"                                                                ",
"                                                                ",
"                                                                ",
"                                      ..                        ",
"                                      ..                        ",
"                                                                ",
"                                                                ",
"                                                                ",
"                                                                ",
"                               XX                               ",
"                               XX                               ",
"                                                                ",
"                                                                ",
"                                                                ",
"                            oooooooooo                          ",
"                           oXOOOOOOOOOo                         ",
"                          oXOOOOOOOOO.Oo                        ",
"                          oXOOOOOOOOOOOo                        ",
"                         oXXOOOOOOOo++Oo                        ",
"                         oXXOOOOOOOo+++o                        ",
"                         oXXOOOOOOOo+++o                        ",
"                         oXXOOOOOOOXooOo                        ",
"                          oXXOOOOOOOOOOo                        ",
"                           oXXXXXXoooOOo                        ",
"                            oooooo o+Oo                         ",
"                                   oXOo                         ",
"                                    oo                          ",
"                                                                ",
"                                                                ",
"                                                                ",
"                                                                ",
"                                                                ",
"                                                                ",
"                                                                ",
"                                                                ",
"                                                                ",
"                                                                ",
"                                                                ",
"                                                                ",
"                                                                ",
"                                                                ",
"                                                                ",
"                                                                ",
"                                                                ",
"                                                                ",
"                                                                ",
"                                                                "
};
