/* XPM */
static char *c6d185b0c5164e9deba378d5410e5b6bg9BLc7OMGnw0Mtpc[] = {
/* columns rows colors chars-per-pixel */
"64 64 6 1 ",
"  c None",
". c #F7EC9B",
"X c #DAAB76",
"o c #C25F62",
"O c #33323D",
"+ c #D88571",
/* pixels */
"                                                                ",
"                                                                ",
"                                                                ",
"                                                                ",
"                                                                ",
"                                                                ",
"                                                                ",
"                                                                ",
"                                                                ",
"                                                                ",
"                                                                ",
"                                                                ",
"                                                                ",
"                                                                ",
"                                                                ",
"                                                                ",
"                                                                ",
"                                                                ",
"                                                                ",
"                                       .                        ",
"                                                                ",
"                                                                ",
"                               XX                               ",
"                              XXXX                              ",
"                              XXXX                              ",
"                               XX                               ",
"                                                                ",
"                                                                ",
"                                    o                           ",
"                                                                ",
"                                                                ",
"                            OOOOOOOOOO                          ",
"                           O+XXXXXXXXXO                         ",
"                          O+XXXXXXXXXXXO                        ",
"                          O+XXXXXXXXXXXO                        ",
"                         O++XXXXXXXXXXXXO                       ",
"                         O++XXXXXXXXXXXXO                       ",
"                         O++XXXXXXXXXXXXO                       ",
"                         O++XXXXXXXXXXXXO                       ",
"                          O++XXXXXXXXXXXO                       ",
"                           O+++XXXXXXXOO                        ",
"                            OOO+++++++oO                        ",
"                              O+O++O+++O                        ",
"                               O OO OOO                         ",
"                                                                ",
"                                                                ",
"                                                                ",
"                                                                ",
"                                                                ",
"                                                                ",
"                                                                ",
"                                                                ",
"                                                                ",
"                                                                ",
"                                                                ",
"                                                                ",
"                                                                ",
"                                                                ",
"                                                                ",
"                                                                ",
"                                                                ",
"                                                                ",
"                                                                ",
"                                                                "
};
