/* XPM */
static char *_cb8ecd5f2d04481fd3e3bbb7bf97a00zAulo6ZIGa7zbPMG[] = {
/* columns rows colors chars-per-pixel */
"64 64 6 1 ",
"  c None",
". c #F7EC9B",
"X c #D88571",
"o c #33323D",
"O c #DAAB76",
"+ c #C25F62",
/* pixels */
"                                                                ",
"                                                                ",
"                                                                ",
"                                                                ",
"                                                                ",
"                                                                ",
"                                                                ",
"                                                                ",
"                                                                ",
"                                                                ",
"                                                                ",
"                                                                ",
"                                                                ",
"                                                                ",
"                                                                ",
"                                                                ",
"                                                                ",
"                                                                ",
"                                                                ",
"                                                                ",
"                              ..                                ",
"                              ..                                ",
"                                                                ",
"                                                                ",
"                                                                ",
"                                                                ",
"                                   XX                           ",
"                                   XX                           ",
"                                                                ",
"                                                                ",
"                                                                ",
"                            oooooooooo                          ",
"                           oXOOOOOOOOOo                         ",
"                          oXOOOOOOOOOOOo                        ",
"                          oXOOOOOOOOOOOo                        ",
"                         oXXOOOOOOOOOOOOo                       ",
"                         oXXOOOOOOOOOOOOo                       ",
"                         oXXOOOOOOOOOOOOo                       ",
"                         oXXOOOOOOOOOOOOo                       ",
"                          oXXOOOOOOOOOOo                        ",
"                           oooOOOOOOooo                         ",
"                            o+XXXXXX+o                          ",
"                            oXXoXXoXXo                          ",
"                             oo oo oo                           ",
"                                                                ",
"                                                                ",
"                                                                ",
"                                                                ",
"                                                                ",
"                                                                ",
"                                                                ",
"                                                                ",
"                                                                ",
"                                                                ",
"                                                                ",
"                                                                ",
"                                                                ",
"                                                                ",
"                                                                ",
"                                                                ",
"                                                                ",
"                                                                ",
"                                                                ",
"                                                                "
};
