/* XPM */
static char *b810ce031974449b94b5f5707c0c093cZItcV7x0skC7jjJL[] = {
/* columns rows colors chars-per-pixel */
"64 64 6 1 ",
"  c None",
". c #F7EC9B",
"X c #DAAB76",
"o c #C25F62",
"O c #33323D",
"+ c #D88571",
/* pixels */
"                                                                ",
"                                                                ",
"                                                                ",
"                                                                ",
"                                                                ",
"                                                                ",
"                                                                ",
"                                                                ",
"                                                                ",
"                                                                ",
"                                                                ",
"                                                                ",
"                                                                ",
"                                                                ",
"                                                                ",
"                                                                ",
"                                                                ",
"                                                                ",
"                                                                ",
"                               .                                ",
"                                                                ",
"                                                                ",
"                                  XX                            ",
"                                 XXXX                           ",
"                                 XXXX                           ",
"                                  XX                            ",
"                                                                ",
"                                                                ",
"                            o                                   ",
"                                                                ",
"                                                                ",
"                            OOOOOOOOOO                          ",
"                           O+XXXXXXXXXO                         ",
"                          O+XXXXXXXXXXXO                        ",
"                          O+XXXXXXXXXXXO                        ",
"                         O++XXXXXXXXXXXXO                       ",
"                         O++.XXXXXXXXXXXO                       ",
"                         O++XXXXXXXXXXXXO                       ",
"                         O++XXXXXXXXXXXXO                       ",
"                         O+++XXXXXXXXX+O                        ",
"                          OO+XXXXXX+++O                         ",
"                          Oo+++++++OOO                          ",
"                          O+++O++O+O                            ",
"                           OOO OO O                             ",
"                                                                ",
"                                                                ",
"                                                                ",
"                                                                ",
"                                                                ",
"                                                                ",
"                                                                ",
"                                                                ",
"                                                                ",
"                                                                ",
"                                                                ",
"                                                                ",
"                                                                ",
"                                                                ",
"                                                                ",
"                                                                ",
"                                                                ",
"                                                                ",
"                                                                ",
"                                                                "
};
