/* XPM */
static char *_521d9802c804b7be80d37e8b193a531tebf1yHBdQEPMFoP[] = {
/* columns rows colors chars-per-pixel */
"64 64 6 1 ",
"  c None",
". c #F7EC9B",
"X c #D88571",
"o c #33323D",
"O c #DAAB76",
"+ c #C25F62",
/* pixels */
"                                                                ",
"                                                                ",
"                                                                ",
"                                                                ",
"                                                                ",
"                                                                ",
"                                                                ",
"                                                                ",
"                                                                ",
"                                                                ",
"                                                                ",
"                                                                ",
"                                                                ",
"                                                                ",
"                                                                ",
"                                                                ",
"                                                                ",
"                                                                ",
"                                                                ",
"                                                                ",
"                                   ..                           ",
"                                   ..                           ",
"                                                                ",
"                                                                ",
"                                                                ",
"                                                                ",
"                           XX                                   ",
"                           XX                                   ",
"                                                                ",
"                                                                ",
"                                                                ",
"                            oooooooooo                          ",
"                           oO.OOOOOOOOo                         ",
"                          oX..OOOOOOOOOo                        ",
"                          oXOOOOOOOOOOOo                        ",
"                          oX++oOOOOOOOOOo                       ",
"                          o+++oO.OOOOOOOo                       ",
"                          o+++oOOOOOOOOOo                       ",
"                          oXooXOOOOOOOOOo                       ",
"                          oXOOOOOOOOOOXo                        ",
"                          oXOoooXXXXXXo                         ",
"                           oOXo oooooo                          ",
"                           oXXo                                 ",
"                            oo                                  ",
"                                                                ",
"                                                                ",
"                                                                ",
"                                                                ",
"                                                                ",
"                                                                ",
"                                                                ",
"                                                                ",
"                                                                ",
"                                                                ",
"                                                                ",
"                                                                ",
"                                                                ",
"                                                                ",
"                                                                ",
"                                                                ",
"                                                                ",
"                                                                ",
"                                                                ",
"                                                                "
};
