/* XPM */
static char *_d9aee89f1154c1be539fc57aac134f4ZLsDvye1yfIjnfB1[] = {
/* columns rows colors chars-per-pixel */
"64 64 7 1 ",
"  c None",
". c #F7EC9B",
"X c #DAAB76",
"o c #C25F62",
"O c #33323D",
"+ c #D88571",
"@ c white",
/* pixels */
"                                                                ",
"                                                                ",
"                                                                ",
"                                                                ",
"                                                                ",
"                                                                ",
"                                                                ",
"                                                                ",
"                                                                ",
"                                                                ",
"                                                                ",
"                                                                ",
"                                                                ",
"                                                                ",
"                                                                ",
"                                                                ",
"                                                                ",
"                                                                ",
"                                                                ",
"                                     .                          ",
"                                                                ",
"                                                                ",
"                            XX                                  ",
"                           XXXX                                 ",
"                           XXXX                                 ",
"                            XX                                  ",
"                                                                ",
"                                                                ",
"                                      o                         ",
"                                                                ",
"                                                                ",
"                            OOOOOOOOOO                          ",
"                           O+XX.@XXXXXO                         ",
"                          O+X.X..XXXXXXO                        ",
"                          O+XXXXXXXXXXXO                        ",
"                         Ooo++oooOXXXXXXO                       ",
"                         Ooo++oooOX.XXXXO                       ",
"                         OooXXoooOXXXXXXO                       ",
"                         OO+++XOOXXXXXXXO                       ",
"                         O++OOXXXXXXXX+O                        ",
"                          O+XXXXXXOO++O                         ",
"                          O+XXXOXXoOOO                          ",
"                          O+OXXOXX+O                            ",
"                           O OO OOO                             ",
"                                                                ",
"                                                                ",
"                                                                ",
"                                                                ",
"                                                                ",
"                                                                ",
"                                                                ",
"                                                                ",
"                                                                ",
"                                                                ",
"                                                                ",
"                                                                ",
"                                                                ",
"                                                                ",
"                                                                ",
"                                                                ",
"                                                                ",
"                                                                ",
"                                                                ",
"                                                                "
};
