/* XPM */
static char * counter_background_xpm[] = {
"64 64 5 1",
" 	c None",
".	c #161C2E",
"+	c #425062",
"@	c #4A6982",
"#	c #4F7585",
"                                                                ",
"                                                                ",
"                                                                ",
"                                                                ",
"                                                                ",
"                                                                ",
"     ....................    ................................   ",
"     ........................................+++.............   ",
"    ...++++++++++++++++@@@............#######+++++............  ",
"    ...++++++++++++++++@@@@###################@++++@@@@@@@#...  ",
"    ..++++++++++++++++@@@@#####################@@+++@@@@@@@...  ",
"    ..++++++++++++++++@@@@###############@@@####@+++@@@@@@.+..  ",
"    ..++++++++++++++++@@@#####@##########@@@@####@@@@@@@@@.+..  ",
"    ..++++++++++++++++@@@####@@@##########@@@@####@@@@@@@.++..  ",
"    ..+++++++++++++++++@@###@@@@@##########@@@@####@@@@@@.++..  ",
"    ..++++++++++++++++++####@@@@@@##########@@@@####@@@@.+++.   ",
"    ..++++++++++++++++++###@@@@@@@###########@@@@####@@@.++..   ",
"    ..++++++++++++++++#####@@@@@@@@###########@@@@####@.+++..   ",
"    ..++++++++++++++++@######@@@@@@############@@@@###@.++..    ",
"    ..++++++++++++++++@@######@@@@@#############@@@@##.+++..    ",
"    ..++++++++++++++++@@@######@@@@##############@@@@..++..     ",
"    ..++++++++++++++++#@@@######@@################@@@.+++..     ",
"    ..++++++++++++++++#@@@@#########################..++..      ",
"    ...+++++++++++++++###@@@@##################@@@#..+++..      ",
"    ....++++++++++++++####@@@@#################@@@#..++..       ",
"    ....++++++++++++++#####@@########@@@@@@@##@@@##..++..       ",
"    .....+++++++++++++################@@@@@@##@@@#..++..        ",
"    .....+++++++++++++#################@@@@@#@@@##..++..        ",
"    .+++++++++++++++++##################@@@@@@@@#..++..         ",
"    .+++++++++++++++++##################@@@@@@@@#...+..         ",
"    ..++++++++++++++++@##################@@@@@@##......         ",
"    ..++++++++++++++++@###################@@@@@###....          ",
"    ..++++++++++++++++@@@########@@@######@@@@@###....          ",
"    ..++++++++++++++++@@@@#######@@@@#####@@@@@@@##....         ",
"    ..++++++++++++++++@@@@########@@@@###@@@#@@@@@##...         ",
"    ..++++++++++++++++##@@@@#######@@@@#@@@####@@@##....        ",
"    ..++++++++++++++++##@@@@########@@@@@@@##########....       ",
"    ..++++++++++++++++@##############@@@@@@#########++...       ",
"    ..+++++++++++++++++@###############@@@@@########+++...      ",
"    ..++++++++++++++++++@###############@@@@@######++++#..      ",
"    ..++++++++++++++++++@@################@@@@@####+++##...     ",
"    ..++++++++++++++++@@@@#################@@@@@######++#...    ",
"    ..++++++++++++++++@@@@@#################@@@@######++##...   ",
"    ..++++++++++++++++@@@@@@@@################@@@@##@######..   ",
"    ..++++++++++++++++#@@@@@@@@@#############++@@@@@@######...  ",
"    ..++++++++++++++++##@@@@@@@@@###########+++#@@@@@@######..  ",
"    ..+++++++++++++++++##################@@+++#####@@@@@#####.. ",
"    ...++++++++++++++++##################@++++#######@@@#####.. ",
"    ....................................#@+++#................. ",
"    ........................................................... ",
"    ...+++++++++++++++++++++++++++++++++++++++++++++++++++++... ",
"    ...++++++++++++++++++++++++++++++++++++++++++++++++++++.... ",
"     ..........................................++++++.........  ",
"      .......................................................   ",
"                                                                ",
"                                                                ",
"                                                                ",
"                                                                ",
"                                                                ",
"                                                                ",
"                                                                ",
"                                                                ",
"                                                                ",
"                                                                "};
