/* XPM */
static char * 0_xpm[] = {
"64 64 388 2",
"  	c None",
". 	c #24293D",
"+ 	c #24283D",
"@ 	c #23283C",
"# 	c #22273B",
"$ 	c #23283D",
"% 	c #1D2338",
"& 	c #4C4A5D",
"* 	c #565365",
"= 	c #565366",
"- 	c #5D596B",
"; 	c #3D3D51",
"> 	c #171E32",
", 	c #3C3D51",
"' 	c #545164",
") 	c #383A4D",
"! 	c #2D3144",
"~ 	c #404053",
"{ 	c #6C6678",
"] 	c #847A8B",
"^ 	c #756D7F",
"/ 	c #5A5769",
"( 	c #2E3145",
"_ 	c #161D31",
": 	c #7C7385",
"< 	c #3B3C50",
"[ 	c #1A2135",
"} 	c #393B4E",
"| 	c #7A7183",
"1 	c #71697B",
"2 	c #736B7D",
"3 	c #5E596C",
"4 	c #272B3F",
"5 	c #2C2F43",
"6 	c #292D41",
"7 	c #3F4053",
"8 	c #6F687A",
"9 	c #3B3C4F",
"0 	c #1E2338",
"a 	c #726A7C",
"b 	c #726B7D",
"c 	c #6F6879",
"d 	c #696374",
"e 	c #6A6475",
"f 	c #70697B",
"g 	c #1F2539",
"h 	c #25293D",
"i 	c #192034",
"j 	c #1C2236",
"k 	c #11192E",
"l 	c #37384C",
"m 	c #7B7284",
"n 	c #786F80",
"o 	c #686276",
"p 	c #676278",
"q 	c #6E677D",
"r 	c #6D677D",
"s 	c #6A657B",
"t 	c #726B80",
"u 	c #736B7C",
"v 	c #2D3044",
"w 	c #2D3145",
"x 	c #5C586A",
"y 	c #5C586B",
"z 	c #37394D",
"A 	c #35374B",
"B 	c #454558",
"C 	c #414154",
"D 	c #434255",
"E 	c #524F62",
"F 	c #625E74",
"G 	c #7C7280",
"H 	c #8A7D82",
"I 	c #857980",
"J 	c #84787F",
"K 	c #887B80",
"L 	c #827781",
"M 	c #6A6479",
"N 	c #404156",
"O 	c #857B8C",
"P 	c #645F71",
"Q 	c #36384C",
"R 	c #1B2135",
"S 	c #3A3B4F",
"T 	c #6E687A",
"U 	c #7C7384",
"V 	c #5F5B6D",
"W 	c #5D596D",
"X 	c #A3908E",
"Y 	c #BFA592",
"Z 	c #B9A191",
"` 	c #B8A091",
" .	c #C1A794",
"..	c #AC968D",
"+.	c #756C7C",
"@.	c #70697C",
"#.	c #787081",
"$.	c #303346",
"%.	c #5A5668",
"&.	c #766E82",
"*.	c #676173",
"=.	c #A18F89",
"-.	c #B9A091",
";.	c #B39A8E",
">.	c #B69F90",
",.	c #B7A091",
"'.	c #B49C8F",
").	c #B69D8F",
"!.	c #AF9A8E",
"~.	c #867B86",
"{.	c #48485E",
"].	c #212639",
"^.	c #21263A",
"/.	c #2A2E42",
"(.	c #333548",
"_.	c #4C4B60",
":.	c #797081",
"<.	c #AD968E",
"[.	c #CBB99C",
"}.	c #C5BA9E",
"|.	c #B49D8F",
"1.	c #B0978D",
"2.	c #C0B199",
"3.	c #CDC0A0",
"4.	c #BAA291",
"5.	c #807480",
"6.	c #5B586E",
"7.	c #605B6C",
"8.	c #635E70",
"9.	c #34374A",
"0.	c #282D42",
"a.	c #716A7B",
"b.	c #AB928C",
"c.	c #D8CEA6",
"d.	c #D7D5AB",
"e.	c #B39C8F",
"f.	c #AC918A",
"g.	c #CDC5A3",
"h.	c #DFDCAE",
"i.	c #BAA191",
"j.	c #80737F",
"k.	c #5C5A6F",
"l.	c #5D596A",
"m.	c #615D6F",
"n.	c #25293C",
"o.	c #3C3D52",
"p.	c #746C7E",
"q.	c #A38D8A",
"r.	c #CDC09F",
"s.	c #D1C9A5",
"t.	c #B69E90",
"u.	c #B0958C",
"v.	c #CABD9F",
"w.	c #D5CCA6",
"x.	c #AF998E",
"y.	c #827683",
"z.	c #4A495F",
"A.	c #23283B",
"B.	c #22273C",
"C.	c #191F34",
"D.	c #454458",
"E.	c #6E677A",
"F.	c #9B8B88",
"G.	c #C5AC96",
"H.	c #BBA392",
"I.	c #B19D90",
"J.	c #756D7C",
"K.	c #6A6477",
"L.	c #2B2F43",
"M.	c #504E61",
"N.	c #404154",
"O.	c #5A586D",
"P.	c #7C7180",
"Q.	c #85777F",
"R.	c #7C727E",
"S.	c #7D727E",
"T.	c #766B7B",
"U.	c #696378",
"V.	c #6F697C",
"W.	c #424256",
"X.	c #555265",
"Y.	c #625D70",
"Z.	c #3D3E52",
"`.	c #21263B",
" +	c #676172",
".+	c #776F84",
"++	c #696477",
"@+	c #857981",
"#+	c #867981",
"$+	c #877B82",
"%+	c #817780",
"&+	c #70697A",
"*+	c #817789",
"=+	c #474659",
"-+	c #151C31",
";+	c #21273B",
">+	c #2C3044",
",+	c #615C6D",
"'+	c #6B657A",
")+	c #7F747F",
"!+	c #B79F91",
"~+	c #BCA492",
"{+	c #A8948C",
"]+	c #6F687C",
"^+	c #4B4A5C",
"/+	c #4D4C5F",
"(+	c #7A7182",
"_+	c #766D7C",
":+	c #766E7C",
"<+	c #766D7B",
"[+	c #79707F",
"}+	c #3C3D50",
"|+	c #464557",
"1+	c #786F82",
"2+	c #676277",
"3+	c #686278",
"4+	c #666176",
"5+	c #6D677B",
"6+	c #313447",
"7+	c #525064",
"8+	c #7E7485",
"9+	c #71697A",
"0+	c #766E7F",
"a+	c #776E80",
"b+	c #3D3F54",
"c+	c #1B1F32",
"d+	c #1A1C27",
"e+	c #1B1C28",
"f+	c #1E2234",
"g+	c #4B4A5D",
"h+	c #716A7C",
"i+	c #6E6779",
"j+	c #6A6476",
"k+	c #37394C",
"l+	c #1A1D2D",
"m+	c #1B1C27",
"n+	c #111117",
"o+	c #25293B",
"p+	c #3B4463",
"q+	c #343B56",
"r+	c #1C1D28",
"s+	c #1A1C29",
"t+	c #414257",
"u+	c #736C7D",
"v+	c #625E71",
"w+	c #303348",
"x+	c #151720",
"y+	c #232737",
"z+	c #3A4260",
"A+	c #363D59",
"B+	c #1D1F2C",
"C+	c #191A25",
"D+	c #282C3F",
"E+	c #353C57",
"F+	c #3E4768",
"G+	c #3A4361",
"H+	c #32374F",
"I+	c #1A2034",
"J+	c #343648",
"K+	c #797082",
"L+	c #7A7283",
"M+	c #22283C",
"N+	c #353C56",
"O+	c #3D4666",
"P+	c #3C4464",
"Q+	c #30374F",
"R+	c #222636",
"S+	c #15151D",
"T+	c #3F4869",
"U+	c #353C58",
"V+	c #39415E",
"W+	c #3E4767",
"X+	c #323A56",
"Y+	c #36394E",
"Z+	c #575467",
"`+	c #6D6678",
" @	c #696375",
".@	c #30354C",
"+@	c #38415F",
"@@	c #3D4665",
"#@	c #373F5B",
"$@	c #363E5A",
"%@	c #424C6F",
"&@	c #2A2F44",
"*@	c #14141C",
"=@	c #313851",
"-@	c #3C4463",
";@	c #373E5B",
">@	c #3C4563",
",@	c #303854",
"'@	c #514E60",
")@	c #1E253B",
"!@	c #3A425F",
"~@	c #39415F",
"{@	c #38405C",
"]@	c #3C4564",
"^@	c #282C40",
"/@	c #14151C",
"(@	c #323852",
"_@	c #333953",
":@	c #2A2E43",
"<@	c #3E4665",
"[@	c #2F3752",
"}@	c #272C40",
"|@	c #6D6677",
"1@	c #555163",
"2@	c #21273E",
"3@	c #30354D",
"4@	c #2B3045",
"5@	c #373F5C",
"6@	c #3E4869",
"7@	c #272B3E",
"8@	c #343B55",
"9@	c #3C4565",
"0@	c #323953",
"a@	c #282B3E",
"b@	c #404155",
"c@	c #272C41",
"d@	c #38405D",
"e@	c #2E344B",
"f@	c #3E4868",
"g@	c #343C56",
"h@	c #3B4362",
"i@	c #373E5A",
"j@	c #1C2132",
"k@	c #333952",
"l@	c #2F354D",
"m@	c #323952",
"n@	c #39425F",
"o@	c #1B1D28",
"p@	c #25293A",
"q@	c #3D4767",
"r@	c #3A4261",
"s@	c #242839",
"t@	c #24283A",
"u@	c #2A2F43",
"v@	c #333A54",
"w@	c #3B4462",
"x@	c #1B1D29",
"y@	c #262A3C",
"z@	c #3F496A",
"A@	c #38415E",
"B@	c #323851",
"C@	c #394260",
"D@	c #353D58",
"E@	c #30364E",
"F@	c #2B2F45",
"G@	c #282D40",
"H@	c #363C58",
"I@	c #181922",
"J@	c #161720",
"K@	c #212433",
"L@	c #38405E",
"M@	c #2B2F44",
"N@	c #232636",
"O@	c #1D1E2B",
"P@	c #232637",
"Q@	c #171821",
"R@	c #14141B",
"S@	c #1C1E2A",
"T@	c #202231",
"U@	c #212434",
"V@	c #13131A",
"W@	c #111016",
"X@	c #1F212F",
"Y@	c #181924",
"Z@	c #171822",
"`@	c #16161F",
" #	c #1F2230",
".#	c #121218",
"+#	c #2F344C",
"@#	c #181822",
"##	c #15151E",
"$#	c #1E212F",
"%#	c #111015",
"&#	c #272C3F",
"*#	c #181923",
"=#	c #1F2130",
"-#	c #313750",
";#	c #181A24",
">#	c #171721",
",#	c #191A24",
"'#	c #242739",
")#	c #434D71",
"!#	c #1A1B26",
"~#	c #333A55",
"{#	c #16171F",
"]#	c #171720",
"                                                                                                                                ",
"                                                                                                                                ",
"                                                                                                                                ",
"                                                                                                                                ",
"                                                                                                                                ",
"                                                                                                                                ",
"                                                                                                                                ",
"                                                                                                                                ",
"                                                                                                                                ",
"                                                                                                                                ",
"                                                                                                                                ",
"                                                                                                                                ",
"                                                                                                                                ",
"                                                                                                                                ",
"                                                                                                                                ",
"                                                                                                                                ",
"                                                    . + @ #       $                                                             ",
"                                                  % & * = - ; > , ' )                                                           ",
"                                                ! ~ { ] ^ / ( _ ) : < >                                                         ",
"                                              [ } | 1 2 3 4 5 6 7 8 9 >                                                         ",
"                                              0 } a b 8 c d e d 8 f 9 g h #                                                     ",
"                                          i j k l m n o p q r s t u v w x y z                                                   ",
"                                        A B B C D E F G H I J K L M N - O P Q                                                   ",
"                                      R S 2 T U V 6 W X Y Z `  ...+.@.#.= #                                                     ",
"                                          $.6 %.&.*.=.-.;.>.,.'.).!.~.{.].^.4 /.6                                               ",
"                                              (._.:.<.[.}.|.1.2.3.4.5.6.7.8.9.#                                                 ",
"                                                0.a.b.c.d.e.f.g.h.i.j.k.l.m.S                                                   ",
"                                              n.o.p.q.r.s.t.u.v.w.x.y.z.A.B.                                                    ",
"                                            C.D.^ p.E.F.G.H.-.G.I.J.K.:.- 6                                                     ",
"                                          L.M.U a N.O.P.Q.R.R.S.T.U.V.- W.                                                      ",
"                                          L.X.Y.Z.`. +.+++@+#+$+%+&+*+=+-+                                                      ",
"                                            ;+@ `.>+,+'+)+!+,.~+{+T ]+^+@                                                       ",
"                                                    4 /+(+_+:+<+[+1 }+#                                                         ",
"                                                    C.|+1+2+3+4+5+8 6+                                                          ",
"                                                    @ 7+8+&+9+c 0+a+b+c+                                                        ",
"                                              d+d+e+f+g+h+i+8 i+h+j+k+l+m+e+                                                    ",
"                                            n+o+p+q+r+s+t+i+f u+v+w+x+y+z+A+B+                                                  ",
"                                          C+D+E+F+G+H+I+J+K+a L+*.].M+N+O+P+Q+R+S+                                              ",
"                                          C+A+T+U+V+W+X+Y+Z+`+ @g+.@+@@@#@$@%@&@*@                                              ",
"                                          C+=@-@#@;@$@>@,@@  @'@)@!@~@$@#@{@]@^@/@                                              ",
"                                          C+(@F+_@:@q+<@[@}@|@1@2@V+p+3@4@5@F+^@/@                                              ",
"                                          C+(@6@(@7@8@9@0@a@b@k+c@d@p+e@6 5@F+^@/@                                              ",
"                                          C+(@f@0@6 g@h@i@e@j@].k@d@h@l@&@5@F+^@/@                                              ",
"                                          C+(@f@m@6 E+~@z+n@o@p@q@{@r@l@:@5@F+^@/@                                              ",
"                                          C+(@f@m@6 E+~@z+V+e+s@O+{@r@l@:@5@F+^@/@                                              ",
"                                          C+(@f@m@6 E+n@z+d@o@t@9@{@G+l@:@5@F+^@/@                                              ",
"                                          C+(@f@m@6 E+n@z+d@e+t@9@{@G+l@:@5@F+^@/@                                              ",
"                                          C+(@f@m@6 E+n@z+d@e+t@9@{@G+l@:@5@F+^@/@                                              ",
"                                          C+(@f@m@6 E+n@z+d@e+t@9@{@G+l@:@5@F+^@/@                                              ",
"                                          C+(@F+m@6 E+n@n@5@e+s@-@{@r@3@u@#@F+^@/@                                              ",
"                                          C+=@T+v@7@g@~@G+w@x@y@z@{@G+e@6 A@F+D+/@                                              ",
"                                          C+0@F+B@:@E+C@~@D@e+y+z+{@r@E@F@$@6@G@*@                                              ",
"                                          C+$@H@4@5@5@p+B@d+I@J@K@d@C@L@8@M@]@4@*@                                              ",
"                                            N@O@P@G+V+h@l@S+Q@R@S@d@~@w@g@O@T@U@                                                ",
"                                            V@W@X@d@d@O+8@Y@Z@`@ #{@V+h@B@Q@W@                                                  ",
"                                              .# #G+~@~@+#@#@###$#V+~@p+=@C+                                                    ",
"                                              %#T@]@9@&#Q@*#C+*@=#G+~@G+-#;#                                                    ",
"                                              >#,#'#9@:@W@;#,#Z@C+N@A+)#8@,#                                                    ",
"                                              !#`@*@4@o+`@*#*#C+`@R@7@~#D+*#                                                    ",
"                                              I@Y@,#{#]#Y@*#*#*#Y@C+]###J@*#                                                    ",
"                                                  *#Z@I@*#*#*#*#*#*#@#Z@Z@                                                      ",
"                                                                                                                                ",
"                                                                                                                                ",
"                                                                                                                                "};
