/* XPM */
static char * 1_xpm[] = {
"64 64 391 2",
"  	c None",
". 	c #24293D",
"+ 	c #24283D",
"@ 	c #23283C",
"# 	c #22273B",
"$ 	c #23283D",
"% 	c #1D2338",
"& 	c #4C4A5D",
"* 	c #565365",
"= 	c #565366",
"- 	c #5D596B",
"; 	c #3D3D51",
"> 	c #171E32",
", 	c #3C3D51",
"' 	c #545164",
") 	c #383A4D",
"! 	c #2D3144",
"~ 	c #404053",
"{ 	c #6C6678",
"] 	c #847A8B",
"^ 	c #756D7F",
"/ 	c #5A5769",
"( 	c #2E3145",
"_ 	c #161D31",
": 	c #7C7385",
"< 	c #3B3C50",
"[ 	c #1A2135",
"} 	c #393B4E",
"| 	c #7A7183",
"1 	c #71697B",
"2 	c #736B7D",
"3 	c #5E596C",
"4 	c #272B3F",
"5 	c #2C2F43",
"6 	c #292D41",
"7 	c #3F4053",
"8 	c #6F687A",
"9 	c #3B3C4F",
"0 	c #1E2338",
"a 	c #726A7C",
"b 	c #726B7D",
"c 	c #6F6879",
"d 	c #696374",
"e 	c #6A6475",
"f 	c #70697B",
"g 	c #1F2539",
"h 	c #25293D",
"i 	c #192034",
"j 	c #1C2236",
"k 	c #11192E",
"l 	c #37384C",
"m 	c #7B7284",
"n 	c #786F80",
"o 	c #686276",
"p 	c #676278",
"q 	c #6E677D",
"r 	c #6D677D",
"s 	c #6A657B",
"t 	c #726B80",
"u 	c #736B7C",
"v 	c #2D3044",
"w 	c #2D3145",
"x 	c #5C586A",
"y 	c #5C586B",
"z 	c #37394D",
"A 	c #35374B",
"B 	c #454558",
"C 	c #414154",
"D 	c #434255",
"E 	c #524F62",
"F 	c #625E74",
"G 	c #7C7280",
"H 	c #8A7D82",
"I 	c #857980",
"J 	c #84787F",
"K 	c #887B80",
"L 	c #827781",
"M 	c #6A6479",
"N 	c #404156",
"O 	c #857B8C",
"P 	c #645F71",
"Q 	c #36384C",
"R 	c #1B2135",
"S 	c #3A3B4F",
"T 	c #6E687A",
"U 	c #7C7384",
"V 	c #5F5B6D",
"W 	c #5D596D",
"X 	c #A3908E",
"Y 	c #BFA592",
"Z 	c #B9A191",
"` 	c #B8A091",
" .	c #C1A794",
"..	c #AC968D",
"+.	c #756C7C",
"@.	c #70697C",
"#.	c #787081",
"$.	c #303346",
"%.	c #5A5668",
"&.	c #766E82",
"*.	c #676173",
"=.	c #A18F89",
"-.	c #B9A091",
";.	c #B39A8E",
">.	c #B69F90",
",.	c #B7A091",
"'.	c #B49C8F",
").	c #B69D8F",
"!.	c #AF9A8E",
"~.	c #867B86",
"{.	c #48485E",
"].	c #212639",
"^.	c #21263A",
"/.	c #2A2E42",
"(.	c #333548",
"_.	c #4C4B60",
":.	c #797081",
"<.	c #AD968E",
"[.	c #CBB99C",
"}.	c #C5BA9E",
"|.	c #B49D8F",
"1.	c #B0978D",
"2.	c #C0B199",
"3.	c #CDC0A0",
"4.	c #BAA291",
"5.	c #807480",
"6.	c #5B586E",
"7.	c #605B6C",
"8.	c #635E70",
"9.	c #34374A",
"0.	c #282D42",
"a.	c #716A7B",
"b.	c #AB928C",
"c.	c #D8CEA6",
"d.	c #D7D5AB",
"e.	c #B39C8F",
"f.	c #AC918A",
"g.	c #CDC5A3",
"h.	c #DFDCAE",
"i.	c #BAA191",
"j.	c #80737F",
"k.	c #5C5A6F",
"l.	c #5D596A",
"m.	c #615D6F",
"n.	c #25293C",
"o.	c #3C3D52",
"p.	c #746C7E",
"q.	c #A38D8A",
"r.	c #CDC09F",
"s.	c #D1C9A5",
"t.	c #B69E90",
"u.	c #B0958C",
"v.	c #CABD9F",
"w.	c #D5CCA6",
"x.	c #AF998E",
"y.	c #827683",
"z.	c #4A495F",
"A.	c #23283B",
"B.	c #22273C",
"C.	c #191F34",
"D.	c #454458",
"E.	c #6E677A",
"F.	c #9B8B88",
"G.	c #C5AC96",
"H.	c #BBA392",
"I.	c #B19D90",
"J.	c #756D7C",
"K.	c #6A6477",
"L.	c #2B2F43",
"M.	c #504E61",
"N.	c #404154",
"O.	c #5A586D",
"P.	c #7C7180",
"Q.	c #85777F",
"R.	c #7C727E",
"S.	c #7D727E",
"T.	c #766B7B",
"U.	c #696378",
"V.	c #6F697C",
"W.	c #424256",
"X.	c #555265",
"Y.	c #625D6F",
"Z.	c #3D3E51",
"`.	c #676172",
" +	c #777084",
".+	c #696477",
"++	c #857981",
"@+	c #867981",
"#+	c #877B82",
"$+	c #817780",
"%+	c #70697A",
"&+	c #817889",
"*+	c #474659",
"=+	c #151C30",
"-+	c #21273B",
";+	c #615C6E",
">+	c #6B657A",
",+	c #7F757F",
"'+	c #B79F91",
")+	c #BCA492",
"!+	c #A8948C",
"~+	c #6E687C",
"{+	c #4C4A5C",
"]+	c #282C40",
"^+	c #4D4B5E",
"/+	c #7A7182",
"(+	c #766D7C",
"_+	c #766E7C",
":+	c #766D7B",
"<+	c #79707F",
"[+	c #23293E",
"}+	c #0F0D10",
"|+	c #0F0E13",
"1+	c #191F32",
"2+	c #4A4A5E",
"3+	c #676277",
"4+	c #686278",
"5+	c #666176",
"6+	c #6D677B",
"7+	c #6E6779",
"8+	c #34374C",
"9+	c #111626",
"0+	c #100D0F",
"a+	c #121218",
"b+	c #1E212E",
"c+	c #232636",
"d+	c #222535",
"e+	c #212538",
"f+	c #71697A",
"g+	c #766E7F",
"h+	c #766E80",
"i+	c #3C3D50",
"j+	c #1E2234",
"k+	c #242636",
"l+	c #191A24",
"m+	c #171821",
"n+	c #2A2F44",
"o+	c #424C6F",
"p+	c #3A4361",
"q+	c #272D43",
"r+	c #49475A",
"s+	c #716A7C",
"t+	c #6A6476",
"u+	c #36384B",
"v+	c #2A324B",
"w+	c #414A6B",
"x+	c #3D4666",
"y+	c #212434",
"z+	c #15151D",
"A+	c #191A25",
"B+	c #30364E",
"C+	c #38405D",
"D+	c #3A425F",
"E+	c #2C324A",
"F+	c #3C3D4F",
"G+	c #605B6D",
"H+	c #2F3246",
"I+	c #313853",
"J+	c #38415E",
"K+	c #3A4260",
"L+	c #272B3E",
"M+	c #14151D",
"N+	c #353C57",
"O+	c #3E4767",
"P+	c #363E5A",
"Q+	c #3F4766",
"R+	c #222A42",
"S+	c #323345",
"T+	c #797182",
"U+	c #666072",
"V+	c #2F3752",
"W+	c #3E4766",
"X+	c #373F5B",
"Y+	c #404A6C",
"Z+	c #292E42",
"`+	c #14141C",
" @	c #313851",
".@	c #3C4564",
"+@	c #363D58",
"@@	c #333953",
"#@	c #303852",
"$@	c #36394F",
"%@	c #575467",
"&@	c #6D6678",
"*@	c #696375",
"=@	c #4C4A5E",
"-@	c #30354C",
";@	c #343C59",
">@	c #363E59",
",@	c #333A53",
"'@	c #383F5C",
")@	c #3C4565",
"!@	c #282C3F",
"~@	c #14151C",
"{@	c #323852",
"]@	c #3E4869",
"^@	c #282B3F",
"/@	c #343B55",
"(@	c #3F4867",
"_@	c #2F3753",
":@	c #514E60",
"<@	c #1D253B",
"[@	c #39425F",
"}@	c #2E334B",
"|@	c #373F5C",
"1@	c #3E4768",
"2@	c #3E4868",
"3@	c #323952",
"4@	c #343B56",
"5@	c #3E4666",
"6@	c #272C40",
"7@	c #6D6677",
"8@	c #555163",
"9@	c #21273E",
"0@	c #39415E",
"a@	c #3C4463",
"b@	c #2F344C",
"c@	c #323953",
"d@	c #282B3E",
"e@	c #404155",
"f@	c #37394C",
"g@	c #272C41",
"h@	c #3B4463",
"i@	c #2F354C",
"j@	c #2A2E43",
"k@	c #3B4362",
"l@	c #373E5A",
"m@	c #2E344B",
"n@	c #1C2132",
"o@	c #333952",
"p@	c #39415F",
"q@	c #1B1D28",
"r@	c #25293A",
"s@	c #3D4767",
"t@	c #38405C",
"u@	c #3A4261",
"v@	c #2F354D",
"w@	c #1B1C28",
"x@	c #242839",
"y@	c #24283A",
"z@	c #30354D",
"A@	c #2A2F43",
"B@	c #313750",
"C@	c #3F4869",
"D@	c #333A54",
"E@	c #272A3D",
"F@	c #2E334A",
"G@	c #292C40",
"H@	c #272C3F",
"I@	c #3B4462",
"J@	c #1B1D29",
"K@	c #262A3C",
"L@	c #3F496A",
"M@	c #404A6B",
"N@	c #292D40",
"O@	c #353D58",
"P@	c #232737",
"Q@	c #26293B",
"R@	c #292E43",
"S@	c #14141B",
"T@	c #1C1D2A",
"U@	c #171720",
"V@	c #212433",
"W@	c #1A1C27",
"X@	c #181922",
"Y@	c #161720",
"Z@	c #1A1B26",
"`@	c #181A24",
" #	c #1C1E2A",
".#	c #100F14",
"+#	c #1F212F",
"@#	c #171822",
"##	c #1F2230",
"$#	c #181924",
"%#	c #16161F",
"&#	c #111117",
"*#	c #181822",
"=#	c #15151E",
"-#	c #1E212F",
";#	c #111016",
">#	c #202231",
",#	c #181923",
"'#	c #1F2130",
")#	c #171721",
"!#	c #242739",
"~#	c #363D59",
"{#	c #434D71",
"]#	c #2B3045",
"^#	c #25293B",
"/#	c #333A55",
"(#	c #16171F",
"                                                                                                                                ",
"                                                                                                                                ",
"                                                                                                                                ",
"                                                                                                                                ",
"                                                                                                                                ",
"                                                                                                                                ",
"                                                                                                                                ",
"                                                                                                                                ",
"                                                                                                                                ",
"                                                                                                                                ",
"                                                                                                                                ",
"                                                                                                                                ",
"                                                                                                                                ",
"                                                                                                                                ",
"                                                                                                                                ",
"                                                                                                                                ",
"                                                    . + @ #       $                                                             ",
"                                                  % & * = - ; > , ' )                                                           ",
"                                                ! ~ { ] ^ / ( _ ) : < >                                                         ",
"                                              [ } | 1 2 3 4 5 6 7 8 9 >                                                         ",
"                                              0 } a b 8 c d e d 8 f 9 g h #                                                     ",
"                                          i j k l m n o p q r s t u v w x y z                                                   ",
"                                        A B B C D E F G H I J K L M N - O P Q                                                   ",
"                                      R S 2 T U V 6 W X Y Z `  ...+.@.#.= #                                                     ",
"                                          $.6 %.&.*.=.-.;.>.,.'.).!.~.{.].^.4 /.6                                               ",
"                                              (._.:.<.[.}.|.1.2.3.4.5.6.7.8.9.#                                                 ",
"                                                0.a.b.c.d.e.f.g.h.i.j.k.l.m.S                                                   ",
"                                              n.o.p.q.r.s.t.u.v.w.x.y.z.A.B.                                                    ",
"                                            C.D.^ p.E.F.G.H.-.G.I.J.K.:.- 6                                                     ",
"                                          L.M.U a N.O.P.Q.R.R.S.T.U.V.- W.                                                      ",
"                                          L.X.Y.Z.^.`. +.+++@+#+$+%+&+*+=+                                                      ",
"                                            -+$ -+v ;+>+,+'+,.)+!+8 ~+{+$                                                       ",
"                                                    ]+^+/+(+_+:+<+1 < [+                                                        ",
"                                                }+|+1+2+^ 3+4+5+6+7+8+9+0+a+                                                    ",
"                                              b+c+d+e+' U %+f+c g+h+i+j+k+d+l+                                                  ",
"                                            m+n+o+p+q+r+b T 8 7+s+t+u+v+w+x+y+z+                                                ",
"                                          A+B+p+C+C+D+E+F+E.f p.G+H+I+D+C+J+K+L+M+                                              ",
"                                          A+N+O+P+K+Q+R+S+T+a m U+e+V+W+C+X+Y+Z+`+                                              ",
"                                          A+ @.@+@@@C+#@$@%@&@*@=@-@;@>@,@'@)@!@~@                                              ",
"                                          A+{@]@{@^@/@(@_@@ *@:@<@[@.@}@6 |@1@]+~@                                              ",
"                                          A+{@2@3@]+4@5@V+6@7@8@9@0@a@b@/.|@1@]+~@                                              ",
"                                          A+{@2@c@6 4@.@c@d@e@f@g@C+h@i@j@|@1@]+~@                                              ",
"                                          A+{@2@3@6 4@k@l@m@n@].o@C+k@i@j@|@1@]+~@                                              ",
"                                          A+{@2@3@6 N+p@K+[@q@r@s@t@u@v@j@|@1@]+~@                                              ",
"                                          A+{@2@3@6 N+p@K+0@w@x@x+t@u@v@j@|@1@]+~@                                              ",
"                                          A+{@2@3@6 N+[@K+C+q@y@)@t@p+v@j@|@1@]+~@                                              ",
"                                          A+{@2@3@6 N+[@K+C+w@y@)@t@p+v@j@|@1@]+~@                                              ",
"                                          A+{@2@3@6 N+[@K+C+w@y@)@t@p+v@j@|@1@]+~@                                              ",
"                                          A+{@1@3@6 N+p@K+C+w@y@)@t@u@z@A@X+1@]+~@                                              ",
"                                          A+B@C@D@E@4@K+[@|@w@x@a@t@p+F@G@0@O+H@M+                                              ",
"                                          A+N+x+B+m@P+C+k@I@J@K@L@t@p@D@F@D@M@j@`+                                              ",
"                                          A+3@F@N@K+p@X+[@O@w@P@u@C+|@k@O@Q@/@R@S@                                              ",
"                                            T@U@V@p@0@k@{@W@X@Y@V@C+0@k@D@Z@`@ #                                                ",
"                                              .#+#p@0@k@v@z+m+S@ #C+p@h@ @@#|+                                                  ",
"                                                ##p@C+x+/@$#@#%###t@0@a@ @A+                                                    ",
"                                              &###u@p@p@b@*#*#=#-#0@p@h@ @`@                                                    ",
"                                              ;#>#.@)@H@m+,#A+`+'#p+p@p+B@`@                                                    ",
"                                              )#l+!#)@j@;#`@l+@#A+c+~#{#/@l+                                                    ",
"                                              Z@%#`+]#^#%#,#,#A+%#S@L+/#!@,#                                                    ",
"                                              X@$#l+(#U@$#,#,#,#$#A+U@=#Y@,#                                                    ",
"                                                  ,#@#X@,#,#,#,#,#,#*#@#@#                                                      ",
"                                                                                                                                ",
"                                                                                                                                ",
"                                                                                                                                "};
