/* XPM */
static char * 10_xpm[] = {
"64 64 308 2",
"  	c None",
". 	c #21263A",
"+ 	c #23283C",
"@ 	c #24283D",
"# 	c #2A2D41",
"$ 	c #21273B",
"% 	c #22273B",
"& 	c #292D41",
"* 	c #545164",
"= 	c #5F5A6D",
"- 	c #4C4B5E",
"; 	c #2C3044",
"> 	c #1D2337",
", 	c #181F33",
"' 	c #2A2E42",
") 	c #535063",
"! 	c #5F5B6D",
"~ 	c #393A4E",
"{ 	c #4B4A5D",
"] 	c #7A7183",
"^ 	c #686274",
"/ 	c #35374B",
"( 	c #404154",
"_ 	c #4C4A5D",
": 	c #797182",
"< 	c #887D8E",
"[ 	c #6F687A",
"} 	c #5B5769",
"| 	c #5E5A6C",
"1 	c #393B4E",
"2 	c #2E3145",
"3 	c #1C2236",
"4 	c #4F4D60",
"5 	c #676174",
"6 	c #2D3145",
"7 	c #625D70",
"8 	c #7E7587",
"9 	c #6F687B",
"0 	c #6B6578",
"a 	c #6E6779",
"b 	c #4A495C",
"c 	c #1B2135",
"d 	c #21263B",
"e 	c #605B6D",
"f 	c #4E4C5F",
"g 	c #141B30",
"h 	c #24293D",
"i 	c #736B7D",
"j 	c #6C6678",
"k 	c #696375",
"l 	c #6E677A",
"m 	c #6E677C",
"n 	c #6D667B",
"o 	c #3B3C50",
"p 	c #71697B",
"q 	c #736C7E",
"r 	c #48475A",
"s 	c #514F62",
"t 	c #766E80",
"u 	c #766E7F",
"v 	c #6D667A",
"w 	c #83777F",
"x 	c #A3908B",
"y 	c #A08F8A",
"z 	c #534F59",
"A 	c #2C2F43",
"B 	c #454558",
"C 	c #6A6476",
"D 	c #887D8F",
"E 	c #817788",
"F 	c #70697B",
"G 	c #6C6578",
"H 	c #70697A",
"I 	c #605C75",
"J 	c #908285",
"K 	c #C4A994",
"L 	c #BA9F90",
"M 	c #464659",
"N 	c #656072",
"O 	c #6D6678",
"P 	c #70687A",
"Q 	c #6D6679",
"R 	c #928385",
"S 	c #BAA292",
"T 	c #B6A192",
"U 	c #635E70",
"V 	c #504E60",
"W 	c #1C2237",
"X 	c #625D6F",
"Y 	c #787081",
"Z 	c #696477",
"` 	c #A1908A",
" .	c #B59B8E",
"..	c #BAA794",
"+.	c #D4CDA7",
"@.	c #202539",
"#.	c #323549",
"$.	c #5D596B",
"%.	c #776F81",
"&.	c #746C7D",
"*.	c #6A6478",
"=.	c #AA978D",
"-.	c #BB9E8F",
";.	c #BBA996",
">.	c #DDDDAE",
",.	c #645E71",
"'.	c #6C6577",
").	c #736C7D",
"!.	c #7A7283",
"~.	c #716A7C",
"{.	c #6F6879",
"].	c #AA968D",
"^.	c #BCA191",
"/.	c #B8A493",
"(.	c #D1C4A2",
"_.	c #6E687A",
":.	c #716A7B",
"<.	c #6D677A",
"[.	c #A08E8A",
"}.	c #BBA392",
"|.	c #B39C8F",
"1.	c #AD968C",
"2.	c #5C586B",
"3.	c #7C7385",
"4.	c #726A7C",
"5.	c #756D7F",
"6.	c #756D7E",
"7.	c #696378",
"8.	c #9D8B88",
"9.	c #B29C8F",
"0.	c #756C7B",
"a.	c #36384B",
"b.	c #645F71",
"c.	c #7F7687",
"d.	c #575467",
"e.	c #47475A",
"f.	c #797082",
"g.	c #776F80",
"h.	c #565366",
"i.	c #3A3C4F",
"j.	c #414154",
"k.	c #645F75",
"l.	c #847985",
"m.	c #847981",
"n.	c #6B667A",
"o.	c #3C3E53",
"p.	c #37394D",
"q.	c #5D596C",
"r.	c #323448",
"s.	c #25293D",
"t.	c #585467",
"u.	c #7C7384",
"v.	c #20263A",
"w.	c #4C4A5C",
"x.	c #625E72",
"y.	c #6B667B",
"z.	c #343649",
"A.	c #131B30",
"B.	c #2B2F43",
"C.	c #262A3F",
"D.	c #524F62",
"E.	c #474659",
"F.	c #7D7485",
"G.	c #3D3E51",
"H.	c #282C40",
"I.	c #1F2539",
"J.	c #7B7284",
"K.	c #1D1F2B",
"L.	c #282C3F",
"M.	c #22273A",
"N.	c #24293C",
"O.	c #313447",
"P.	c #6B6577",
"Q.	c #83788A",
"R.	c #121118",
"S.	c #1A1C27",
"T.	c #2F344C",
"U.	c #323850",
"V.	c #2C3045",
"W.	c #272A3D",
"X.	c #282B3F",
"Y.	c #2B2E41",
"Z.	c #2F3246",
"`.	c #7E7486",
" +	c #49485B",
".+	c #14141C",
"++	c #212433",
"@+	c #3A4260",
"#+	c #3C4565",
"$+	c #313750",
"%+	c #292D40",
"&+	c #2A2F43",
"*+	c #35374A",
"=+	c #676173",
"-+	c #7E7586",
";+	c #262A3C",
">+	c #39425F",
",+	c #38405D",
"'+	c #39415E",
")+	c #373F5C",
"!+	c #373E5A",
"~+	c #30364E",
"{+	c #24283A",
"]+	c #2B2F42",
"^+	c #555265",
"/+	c #1F2439",
"(+	c #13131A",
"_+	c #2B3045",
":+	c #444F73",
"<+	c #373F5B",
"[+	c #394260",
"}+	c #38405C",
"|+	c #2E354E",
"1+	c #242A3F",
"2+	c #3E3E52",
"3+	c #171821",
"4+	c #1F2230",
"5+	c #2F354D",
"6+	c #3B4463",
"7+	c #373E59",
"8+	c #262839",
"9+	c #1D2234",
"0+	c #181924",
"a+	c #15151D",
"b+	c #202231",
"c+	c #38415E",
"d+	c #38405E",
"e+	c #3C4564",
"f+	c #171822",
"g+	c #242839",
"h+	c #3A4361",
"i+	c #383F5C",
"j+	c #313851",
"k+	c #181923",
"l+	c #1A1B26",
"m+	c #282D41",
"n+	c #363E5A",
"o+	c #373E5B",
"p+	c #3B4362",
"q+	c #2C3147",
"r+	c #343A55",
"s+	c #3E4768",
"t+	c #191A24",
"u+	c #16171F",
"v+	c #333A55",
"w+	c #3F486A",
"x+	c #353D58",
"y+	c #3A4261",
"z+	c #2F354C",
"A+	c #343B56",
"B+	c #3E4767",
"C+	c #181A24",
"D+	c #1B1D29",
"E+	c #2E334A",
"F+	c #3C4463",
"G+	c #111117",
"H+	c #1F212F",
"I+	c #39415F",
"J+	c #2B2F44",
"K+	c #2E3349",
"L+	c #3B4462",
"M+	c #323852",
"N+	c #161720",
"O+	c #121218",
"P+	c #353C58",
"Q+	c #16161F",
"R+	c #191A25",
"S+	c #1E202E",
"T+	c #353C57",
"U+	c #282D40",
"V+	c #171720",
"W+	c #121219",
"X+	c #202332",
"Y+	c #131219",
"Z+	c #1C1E2A",
"`+	c #2F344B",
" @	c #2C3046",
".@	c #3D4665",
"+@	c #333953",
"@@	c #292E42",
"#@	c #15161E",
"$@	c #191B25",
"%@	c #424C6F",
"&@	c #292D42",
"*@	c #2E344B",
"=@	c #2B3046",
"-@	c #3D4666",
";@	c #171721",
">@	c #323851",
",@	c #2A2F44",
"'@	c #14151C",
")@	c #1E202D",
"!@	c #2D3349",
"~@	c #31374F",
"{@	c #1C1D2A",
"]@	c #212333",
"^@	c #414B6E",
"/@	c #1C1E2B",
"(@	c #121117",
"_@	c #363D59",
":@	c #363E59",
"<@	c #1B1C28",
"[@	c #3E4869",
"}@	c #1F2130",
"|@	c #323952",
"1@	c #2D3249",
"2@	c #13131B",
"3@	c #14141B",
"                                                                                                                                ",
"                                                                                                                                ",
"                                                                                                                                ",
"                                                                                                                                ",
"                                                                                                                                ",
"                                                                                                                                ",
"                                                                                                                                ",
"                                                                                                                                ",
"                                                                                                                                ",
"                                                                                                                                ",
"                                                                                                                                ",
"                                                                                                                                ",
"                                                                                                                                ",
"                                                                                                                                ",
"                                                                                                                                ",
"                                                                                                                                ",
"                                                            . + @       # @ + + $ %                                             ",
"                                                          & * = - ; > , ' ) * * ! = ~                                           ",
"                                                          ' { ] ^ + / ( _ : < [ } | 1                                           ",
"                                                  & 2 2     3 4 5 6 7 8 9 0 a b c d                                             ",
"                                                  ' e f g h } i j k [ l m n o %                                                 ",
"                                                  ' p q r s [ t [ u v w x y z                                                   ",
"                                                  A B C D E F G H a I J K L                                                     ",
"                                              & &   $ M a N O F [ P Q R S T                                                     ",
"                                              6 + % U V W ' X Y Z l `  ...+.                                                    ",
"                                              @.#.$.%.N b s k &.*.l =.-.;.>.                                                    ",
"                                                ~ ,.'.).!.: ~.{.*.Q ].^./.(.                                                    ",
"                                                  % | : '.Q _.:.<.F [.}.|.1.                                                    ",
"                                                  % 2.3.p O a 4.5.6.7.8.9.0.                                                    ",
"                                                a.b.c.d.e.f.g.h.i.j.k.l.m.n.o.                                                  ",
"                                                p.2.q.r.s.t.u.f g v.w.x.y.6.z.A.                                                ",
"                                                  % % B.C.+ X D.+ A > E.F.4.G.%                                                 ",
"                                                          H.2 6 & ' I._ J.l i b d                                               ",
"                                                        K.L.M.N.B.' & O.b P.Q.f .                                               ",
"                                                      R.S.T.U.V.W.X.Y.c Z.).`. +$                                               ",
"                                                      .+++@+#+$+%+&+V.h *+=+-+- .                                               ",
"                                                    .+;+>+,+'+)+!+!+'+~+{+]+p ^+/+                                              ",
"                                                    (+_+:+)+<+'+[+>+@+}+|+1+1 2+                                                ",
"                                                    3+4+5+,+'+)+)+)+!+6+7+8+9+                                                  ",
"                                                    0+a+b+c+@+)+,+d+<+e+$+f+                                                    ",
"                                                    R.g+h+,+,+i+,+[+)+e+j+k+                                                    ",
"                                                  l+m+n+e+,+o+p+)+q+r+s+$+t+                                                    ",
"                                                  u+v+w+x+,+y+n+z+q+A+B+$+C+                                                    ",
"                                                  D+j+6+)+,+'+E+_+@+d+F+j+C+                                                    ",
"                                              G+H+!+I+<+>+@+J+K+I+,+)+L+M+C+N+                                                  ",
"                                              O+b+#+y+c+P+q+$+}+I+,+n+B+n+t+Q+R+                                                ",
"                                                S+,+I+I+T+q+$+)+I+,+c+P+U+0+V+C+k+                                              ",
"                                              W+X+@+@+o+[+@+J+E+I+}+e+L.Y+k+0+k+k+                                              ",
"                                            .+Z+E+@+'+<+,+,+'+`+ @,+.@U+.+k+k+k+                                                ",
"                                          R+H.+@M+q+}+p+!+)+6+z+& ,+.@@@#@k+0+                                                  ",
"                                          $@x+%@A+q+5+!+h+>+6+T.&@,+#+& a+k+                                                    ",
"                                          0+j+p+d+>+J+*@d+n+,+T.=@,+-@@@a+k+                                                    ",
"                                          ;@>@#+<+d+,+5+X.&@X.~+,+i+B+,@'@k+k+k+                                                ",
"                                        )@!@!+I+)+,+h+x+~@>@~@P+p+)+& {@f+k+k+k+                                                ",
"                                      G+]@^@p+n+d+,+)+I+p+h+p+)+@+6+/@G+l+k+k+                                                  ",
"                                      (@4+n+I+,+,+,+,+,+i+}+)+,+@+_@4+#@t+k+k+k+                                                ",
"                                          Z+P+#+:@,+,+,+,+)+_@#+T+<@;@C+k+k+k+k+k+                                              ",
"                                          Q+S+P+B+!+<+o+,+e+[@$+)@#@3+R+  k+k+k+k+                                              ",
"                                          R+(+}@|@6+6+#+,+1@5+X+W+R+t+    k+k+k+k+                                              ",
"                                            <@2@)@_@P+}+*@#@3@k+R+k+k+k+                                                        ",
"                                                  <@S.<@l+f+3+k+k+                                                              ",
"                                                                                                                                ",
"                                                                                                                                ",
"                                                                                                                                "};
