/* XPM */
static char *result[] = {
/* columns rows colors chars-per-pixel */
"32 48 7 1 ",
"  c #181923",
". c #292D41",
"X c #38405D",
"o c #6F687A",
"O c #B59E90",
"+ c #D8D4AA",
"@ c None",
/* pixels */
"@@@@@@@@@@@@@@@@@@@@@@@@@@@@@@@@",
"@@@@@@@@@@@@@@@@@@@@@@@@@@@@@@@@",
"@@@@@@@@@@@@@@@@@@@@@@@@@@@@@@@@",
"@@@@@@@@@@@@@@@@@@@@@@@@@@@@@@@@",
"@@@@@@@@@@@@@@@@@@@@@@@@@@@@@@@@",
"@@@@@@@@@@@@@@@@@@@@@@@@@@@@@@@@",
"@@@@@@@@@@@@@@@@@@@@@@@@@@@@@@@@",
"@@@@@@@@@@@@@@@@@@@@@@@@@@@@@@@@",
"@@@@@@@@@@@@@@@@@@@@@@@@@@@@@@@@",
"@@@@@@@@@@@@@@@@@@@@@@@@@@@@@@@@",
"@@@@@@@@@@@@@@@@@@@@@@@@@@@@@@@@",
"@@@@@@@@@@@@@@@..@@.....@@@@@@@@",
"@@@@@@@@@@@@@@.oo...oooo.@@@@@@@",
"@@@@@@@@@@@..@@.o.oooo..@@@@@@@@",
"@@@@@@@@@@@.o..oooooo.@@@@@@@@@@",
"@@@@@@@@@@@.oooooooOO@@@@@@@@@@@",
"@@@@@@@@@@.@.ooooooOO@@@@@@@@@@@",
"@@@@@@@@@@..o..oooOO+@@@@@@@@@@@",
"@@@@@@@@@@.oooooooOO+@@@@@@@@@@@",
"@@@@@@@@@@@.ooooooOOO@@@@@@@@@@@",
"@@@@@@@@@@@.oooooooOo@@@@@@@@@@@",
"@@@@@@@@@@.oo.oo..ooo.@@@@@@@@@@",
"@@@@@@@@@@@....o...oo.@@@@@@@@@@",
"@@@@@@@@@@@@@ .....ooo.@@@@@@@@@",
"@@@@@@@@@@@@@@......oo.@@@@@@@@@",
"@@@@@@@@@@@@@ ......oo.@@@@@@@@@",
"@@@@@@@@@@@@@ XX.....o.@@@@@@@@@",
"@@@@@@@@@@@@ XXXXXX...@@@@@@@@@@",
"@@@@@@@@@@@@ .XXXXXX @@@@@@@@@@@",
"@@@@@@@@@@@ .XXXXXXX @@@@@@@@@@@",
"@@@@@@@@@@ XXXXXX.XX @@@@@@@@@@@",
"@@@@@@@@@ XXXXX..XXX @@@@@@@@@@@",
"@@@@@@@@@ XXXX.XXXXX   @@@@@@@@@",
"@@@@@@@@@ XXX.XXXXXX XX @@@@@@@@",
"@@@@@@@@@ XXX.XXXXXX XX @@@@@@@@",
"@@@@@@@@@@ XXX.XXXX    @@@@@@@@@",
"@@@@@@@@@@ XXX.XXXX  @@@@@@@@@@@",
"@@@@@@@@@ X.XX.XXXXX @@@@@@@@@@@",
"@@@@@@@@@ XX..XXXXXX @@@@@@@@@@@",
"@@@@@@@@ XXXXXXXXXXX @@@@@@@@@@@",
"@@@@@@@@ XXXXXXXXXXX @@@@@@@@@@@",
"@@@@@@@@ XXXXXXXXXXX @@@@@@@@@@@",
"@@@@@@@@ XXXXXXXXXX  @@@@@@@@@@@",
"@@@@@@@@  XXXXXXXXX   @@@@@@@@@@",
"@@@@@@@@@  XXXXX      @@@@@@@@@@",
"@@@@@@@@@@@          @@@@@@@@@@@",
"@@@@@@@@@@@@@@@@@@@@@@@@@@@@@@@@",
"@@@@@@@@@@@@@@@@@@@@@@@@@@@@@@@@"
};
