/* XPM */
static char * 11_xpm[] = {
"64 64 319 2",
"  	c None",
". 	c #303347",
"+ 	c #2F3246",
"@ 	c #2E3145",
"# 	c #252A3E",
"$ 	c #292D41",
"% 	c #2E3245",
"& 	c #5D596C",
"* 	c #7A7283",
"= 	c #5A5669",
"- 	c #2B2F43",
"; 	c #23283C",
"> 	c #1D2337",
", 	c #676173",
"' 	c #6A6476",
") 	c #726B7D",
"! 	c #736B7D",
"~ 	c #3A3B4F",
"{ 	c #1B2135",
"] 	c #1F2439",
"^ 	c #34364A",
"/ 	c #645F71",
"( 	c #686274",
"_ 	c #20263A",
": 	c #434357",
"< 	c #5B5769",
"[ 	c #5D596A",
"} 	c #766E7F",
"| 	c #897E8F",
"1 	c #645F72",
"2 	c #404053",
"3 	c #454458",
"4 	c #36384C",
"5 	c #3B3C50",
"6 	c #38394D",
"7 	c #2C3044",
"8 	c #565365",
"9 	c #696375",
"0 	c #414154",
"a 	c #6B6577",
"b 	c #7E7587",
"c 	c #6E687D",
"d 	c #676277",
"e 	c #595669",
"f 	c #3D3E51",
"g 	c #11182D",
"h 	c #191F34",
"i 	c #2A2E42",
"j 	c #6E687A",
"k 	c #21263A",
"l 	c #7B7283",
"m 	c #6D6679",
"n 	c #746C7E",
"o 	c #6F687A",
"p 	c #6D6677",
"q 	c #786F7E",
"r 	c #37384B",
"s 	c #676174",
"t 	c #797182",
"u 	c #615C6F",
"v 	c #666173",
"w 	c #71697B",
"x 	c #716A7B",
"y 	c #6A6479",
"z 	c #8D7F83",
"A 	c #B69F91",
"B 	c #B19B8F",
"C 	c #5A5769",
"D 	c #8C8192",
"E 	c #807688",
"F 	c #716A7C",
"G 	c #6C6678",
"H 	c #70697B",
"I 	c #5F5B75",
"J 	c #8D8084",
"K 	c #C2A794",
"L 	c #B69C8E",
"M 	c #262A3E",
"N 	c #4F4D60",
"O 	c #4E4D5F",
"P 	c #7D737F",
"Q 	c #9D8A88",
"R 	c #B9A392",
"S 	c #BFAE98",
"T 	c #2B2E42",
"U 	c #262B3F",
"V 	c #313447",
"W 	c #575467",
"X 	c #1B2136",
"Y 	c #625D6F",
"Z 	c #787081",
"` 	c #696377",
" .	c #6E677A",
"..	c #AB978D",
"+.	c #BB9F90",
"@.	c #BAA895",
"#.	c #DBD8AC",
"$.	c #1C2236",
"%.	c #37394D",
"&.	c #746D7E",
"*.	c #6E6779",
"=.	c #6B6579",
"-.	c #A6948C",
";.	c #B89D8F",
">.	c #BBA995",
",.	c #D9D7AB",
"'.	c #333549",
").	c #4B495D",
"!.	c #756D7F",
"~.	c #766E80",
"{.	c #6F6879",
"].	c #6C6578",
"^.	c #AD988D",
"/.	c #BEA492",
"(.	c #B49F91",
"_.	c #C9B69B",
":.	c #5B576A",
"<.	c #7D7486",
"[.	c #6D6779",
"}.	c #736C7D",
"|.	c #746C7F",
"1.	c #8F8084",
"2.	c #B49D8F",
"3.	c #B59D90",
"4.	c #998585",
"5.	c #655F72",
"6.	c #6C6577",
"7.	c #6A6475",
"8.	c #615D76",
"9.	c #948486",
"0.	c #A8948C",
"a.	c #6C667A",
"b.	c #82788A",
"c.	c #474659",
"d.	c #36384B",
"e.	c #4D4C5F",
"f.	c #25293E",
"g.	c #635E72",
"h.	c #7B7282",
"i.	c #756C7C",
"j.	c #70697C",
"k.	c #3A3C50",
"l.	c #35374B",
"m.	c #444457",
"n.	c #434356",
"o.	c #2F3348",
"p.	c #252A40",
"q.	c #414155",
"r.	c #776F81",
"s.	c #535164",
"t.	c #171D32",
"u.	c #38394C",
"v.	c #545266",
"w.	c #70697D",
"x.	c #746C7D",
"y.	c #323448",
"z.	c #0F172C",
"A.	c #192034",
"B.	c #1A2136",
"C.	c #242737",
"D.	c #212435",
"E.	c #514F62",
"F.	c #48475A",
"G.	c #817788",
"H.	c #4D4B5E",
"I.	c #34374A",
"J.	c #1B1D28",
"K.	c #2A2D41",
"L.	c #24283D",
"M.	c #7F7687",
"N.	c #4E4C5F",
"O.	c #292E42",
"P.	c #282D41",
"Q.	c #282C41",
"R.	c #7F7587",
"S.	c #4C4A5D",
"T.	c #1E202E",
"U.	c #272B3E",
"V.	c #282C3F",
"W.	c #292C40",
"X.	c #292D42",
"Y.	c #2D3045",
"Z.	c #1D2338",
"`.	c #313448",
" +	c #48485B",
".+	c #21273B",
"++	c #101015",
"@+	c #1A1B26",
"#+	c #2F344C",
"$+	c #31364F",
"%+	c #2A2F44",
"&+	c #272A3D",
"*+	c #282B3F",
"=+	c #292C3F",
"-+	c #252A3D",
";+	c #545164",
">+	c #7E7486",
",+	c #504E61",
"'+	c #20253A",
")+	c #15151D",
"!+	c #212434",
"~+	c #3A4260",
"{+	c #3C4565",
"]+	c #313750",
"^+	c #292D40",
"/+	c #2A2F43",
"(+	c #24293D",
"_+	c #5F5B6D",
":+	c #525062",
"<+	c #1E2438",
"[+	c #14151C",
"}+	c #272C3F",
"|+	c #3B4463",
"1+	c #38405D",
"2+	c #38415E",
"3+	c #373F5C",
"4+	c #373E5A",
"5+	c #30354D",
"6+	c #262A3C",
"7+	c #2D3145",
"8+	c #14141C",
"9+	c #212332",
"0+	c #353C58",
"a+	c #38405C",
"b+	c #39425F",
"c+	c #39415E",
"d+	c #39415F",
"e+	c #2E344B",
"f+	c #1F212F",
"g+	c #191D2D",
"h+	c #1A1C27",
"i+	c #232637",
"j+	c #30364E",
"k+	c #373F5B",
"l+	c #3D4666",
"m+	c #323953",
"n+	c #161720",
"o+	c #1B1C28",
"p+	c #363D58",
"q+	c #3A4361",
"r+	c #363E5A",
"s+	c #3C4564",
"t+	c #191A25",
"u+	c #1D1F2C",
"v+	c #363E59",
"w+	c #383F5C",
"x+	c #353D58",
"y+	c #333953",
"z+	c #3E4868",
"A+	c #181A24",
"B+	c #222636",
"C+	c #3C4464",
"D+	c #3A4362",
"E+	c #2F354D",
"F+	c #2D3349",
"G+	c #313851",
"H+	c #363D59",
"I+	c #424C6F",
"J+	c #373E5B",
"K+	c #394260",
"L+	c #38405E",
"M+	c #323952",
"N+	c #191A24",
"O+	c #282C40",
"P+	c #3C4463",
"Q+	c #181924",
"R+	c #181923",
"S+	c #1B1D29",
"T+	c #2C3046",
"U+	c #30374F",
"V+	c #181922",
"W+	c #3B4462",
"X+	c #2A2E43",
"Y+	c #414B6D",
"Z+	c #2C3147",
"`+	c #3E4869",
" @	c #343B56",
".@	c #171822",
"+@	c #4D5A83",
"@@	c #242738",
"#@	c #2E334A",
"$@	c #24283A",
"%@	c #0D0B0E",
"&@	c #343C56",
"*@	c #282B3E",
"=@	c #343B55",
"-@	c #121218",
";@	c #171721",
">@	c #15161E",
",@	c #16161F",
"'@	c #0C0B0E",
")@	c #262A3D",
"!@	c #272B3D",
"~@	c #111116",
"{@	c #3E4768",
"]@	c #2B3046",
"^@	c #333A54",
"/@	c #2E334B",
"(@	c #353C57",
"_@	c #2C3148",
":@	c #26293B",
"<@	c #2D3249",
"[@	c #30364F",
"}@	c #3A4261",
"|@	c #313850",
"1@	c #3E4767",
"2@	c #3B4362",
"3@	c #2F354C",
"4@	c #343C57",
"5@	c #3D4665",
"6@	c #404A6C",
"7@	c #121118",
"8@	c #13131A",
"9@	c #1F2230",
"0@	c #13131B",
"a@	c #1E202D",
"b@	c #25293B",
"c@	c #121219",
"d@	c #171821",
"                                                                                                                                ",
"                                                                                                                                ",
"                                                                                                                                ",
"                                                                                                                                ",
"                                                                                                                                ",
"                                                                                                                                ",
"                                                                                                                                ",
"                                                                                                                                ",
"                                                                                                                                ",
"                                                                                                                                ",
"                                                                                                                                ",
"                                                                                                                                ",
"                                                                                                                                ",
"                                                                                                                                ",
"                                                                                                                                ",
"                                                            . + @     # $ % + + . .                                             ",
"                                                          $ & * = - ; > . , ' , ) ! ~ {                                         ",
"                                                  $ ]       ^ / ( _ : < [ } | 1 2 3 4                                           ",
"                                                  $ 5 6     7 8 9 0 a b c d e f g h                                             ",
"                                                  i j = k + ( l m n o p q q r                                                   ",
"                                                  i s t u v o w o x y z A B                                                     ",
"                                                $   + C D E F G H o I J K L                                                     ",
"                                              - M   ^ 3 N O 9 ! m o P Q R S                                                     ",
"                                              T U V w W X i Y Z `  ...+.@.#.                                                    ",
"                                              $.%.H &.a v ( *.x =. .-.;.>.,.                                                    ",
"                                                '.).s !.n ~.w {.` ].^./.(._.                                                    ",
"                                                  h :.<.o ].[.}.|.!.1.2.3.4.                                                    ",
"                                                  '.5.n ( w H 6.9 7.8.9.0.a.                                                    ",
"                                              { 6 }.b.c.d.!.t e.f.@ g.h.i.j.k.$.                                                ",
"                                                l.m.n.o.p.q.r.s.t.; u.v.w.x.y.z.                                                ",
"                                                  A.B.C.D._ E.c.M 7 A.F.G.w H.I.                                                ",
"                                                        J.- U # i K.L.F.H *.M.N.k                                               ",
"                                                          O.P.Q.$ $ i # ~ a R.S.k                                               ",
"                                                        T.U.V.W.i X.Y.Z.`.} b  +.+                                              ",
"                                                      ++@+#+$+%+&+*+=+-+`.;+>+,+'+                                              ",
"                                                      )+!+~+{+]+^+/+%+- (+.+_+:+<+                                              ",
"                                                    [+}+|+1+2+3+4+4+2+5+6+X.7++                                                 ",
"                                                    8+9+0+a+1+2+b+c+b+d+e+f+g+                                                  ",
"                                                    h+i+j+1+c+k+1+d+4+l+m+n+                                                    ",
"                                                  o+6+p+q+1+1+c+1+r+4+s+]+t+                                                    ",
"                                                u+v+1+w+1+w+c+s+x+$ y+z+]+A+                                                    ",
"                                            )+B+]+C+D+k+c+q+E+/+F+G+H+l+]+A+                                                    ",
"                                            8+/+I+r+J+K+1+G+F+%+E+q+L+|+M+N+                                                    ",
"                                            [+O+s+a+a+b+y+$ x+s+c+a+k+P+m+Q+R+S+h+                                              ",
"                                            [+O+s+a+~+5+T+r+c+L+1+1+k+P+U+V+%+W+#+t+                                            ",
"                                            8+X+Y+3+q+Z+$ s+~+k+1+1+r+`+ @.@M++@r+t+                                            ",
"                                            )+@@M+1+~+y+#@y+k+c+1+1+c+H+V.R+$@e+O+t+                                            ",
"                                              %@u+~+d+q+&@*@=@q+3+a+s+}+-@R+;@>@,@                                              ",
"                                              '@u+|+b+d+=@$  @q+3+a+s+}+-@R+                                                    ",
"                                            ,@)@e+Z+k+`+&@!@=@q+3+1+c+H+O+Q+                                                    ",
"                                            ~@O.{@]@5+^@j+/@H+d+a+1+r+`+(@N+                                                    ",
"                                            .@O.l+d+_@:@<@b+d+w+1+1+k+C+]+A+                                                    ",
"                                          t+[@}@a+1+k+H+k+L+1+1+1+1+k+{+G+A+                                                    ",
"                                          t+ @{@r+1+d+~+d+1+1+1+1+1+k+C+U+A+                                                    ",
"                                          t+|@|+3+1+a+3+a+1+1+1+1+1+4+1@=@A+                                                    ",
"                                          t+^@{+k+1+1+1+1+1+1+1+1+1+3+2@3@A+                                                    ",
"                                          t+4@5@v+1+1+1+1+1+1+a+k+k+q+%+.@R+                                                    ",
"                                          R+f+(@{@4+J+3+k+k+4+K+{+|+6@X+7@R+N+                                                  ",
"                                          V+8@9@M+|+s+2@|+|+l+ @Z+F+j+@@;@R+R+R+                                                ",
"                                            o+0@a@H+v+ @(@(@1+b@c@,@,@d@R+R+R+                                                  ",
"                                                  o+o+h+h+h+o+t+d@.@.@V+R+R+                                                    ",
"                                                                                                                                ",
"                                                                                                                                ",
"                                                                                                                                "};
