/* XPM */
static char * 12_xpm[] = {
"64 64 305 2",
"  	c None",
". 	c #192034",
"+ 	c #191F34",
"@ 	c #1B2136",
"# 	c #1C2237",
"$ 	c #292D41",
"% 	c #35374B",
"& 	c #454558",
"* 	c #404053",
"= 	c #3F4053",
"- 	c #3E3F52",
"; 	c #1C2236",
"> 	c #3C3D51",
", 	c #434356",
"' 	c #424256",
") 	c #1B2135",
"! 	c #3A3B4F",
"~ 	c #736B7D",
"{ 	c #71697B",
"] 	c #7D7485",
"^ 	c #756D7F",
"/ 	c #3B3C50",
"( 	c #2A2E42",
"_ 	c #2B2E42",
": 	c #272C40",
"< 	c #645E71",
"[ 	c #867B8D",
"} 	c #5B5769",
"| 	c #303346",
"1 	c #575467",
"2 	c #807687",
"3 	c #716A7B",
"4 	c #6A6475",
"5 	c #726B7C",
"6 	c #545164",
"7 	c #23283C",
"8 	c #676173",
"9 	c #1F2539",
"0 	c #24293D",
"a 	c #313346",
"b 	c #47475A",
"c 	c #676278",
"d 	c #6C667C",
"e 	c #756E81",
"f 	c #6F6879",
"g 	c #575366",
"h 	c #6B6477",
"i 	c #645F71",
"j 	c #081126",
"k 	c #4D4B5E",
"l 	c #2A2D41",
"m 	c #3C3D4D",
"n 	c #8B7E84",
"o 	c #8C7E84",
"p 	c #766D7A",
"q 	c #6E677A",
"r 	c #786F81",
"s 	c #6E6779",
"t 	c #7B7284",
"u 	c #3E3E52",
"v 	c #323448",
"w 	c #676274",
"x 	c #746C7E",
"y 	c #B9A091",
"z 	c #C1A793",
"A 	c #918285",
"B 	c #656077",
"C 	c #6F687A",
"D 	c #6D6679",
"E 	c #776F81",
"F 	c #787082",
"G 	c #766E80",
"H 	c #595568",
"I 	c #B49B8F",
"J 	c #BDA492",
"K 	c #8D7F84",
"L 	c #625E76",
"M 	c #70697A",
"N 	c #70697B",
"O 	c #776E80",
"P 	c #83798B",
"Q 	c #4E4C5F",
"R 	c #20253A",
"S 	c #CABFA0",
"T 	c #BAA593",
"U 	c #AA938B",
"V 	c #918385",
"W 	c #6B6578",
"X 	c #766E7F",
"Y 	c #383A4D",
"Z 	c #303347",
"` 	c #49485B",
" .	c #161D32",
"..	c #2D3044",
"+.	c #DEDEAF",
"@.	c #BBA996",
"#.	c #BDA090",
"$.	c #AE998E",
"%.	c #696377",
"&.	c #776E7F",
"*.	c #655F72",
"=.	c #393B4E",
"-.	c #5E5A6C",
";.	c #776F80",
">.	c #2C3044",
",.	c #252A3E",
"'.	c #D5CFA7",
").	c #BAA794",
"!.	c #B99E8F",
"~.	c #A6938C",
"{.	c #6C6579",
"].	c #BDA694",
"^.	c #B29D8F",
"/.	c #BFA593",
"(.	c #AA968C",
"_.	c #6C6678",
":.	c #70687A",
"<.	c #6D6779",
"[.	c #635E70",
"}.	c #333549",
"|.	c #84767F",
"1.	c #B69E90",
"2.	c #A8948B",
"3.	c #7A707D",
"4.	c #6D6678",
"5.	c #6C6577",
"6.	c #7F7587",
"7.	c #595668",
"8.	c #404159",
"9.	c #696479",
"0.	c #988787",
"a.	c #8C7E86",
"b.	c #615D76",
"c.	c #575466",
"d.	c #545163",
"e.	c #625D6F",
"f.	c #726B7D",
"g.	c #4B4A5D",
"h.	c #313347",
"i.	c #37394C",
"j.	c #746C7D",
"k.	c #6D667A",
"l.	c #70697C",
"m.	c #5C5869",
"n.	c #181E33",
"o.	c #6A6476",
"p.	c #2B2F42",
"q.	c #3A3C4F",
"r.	c #1A2035",
"s.	c #131A2F",
"t.	c #34364A",
"u.	c #766E81",
"v.	c #4B495D",
"w.	c #272B3F",
"x.	c #282D41",
"y.	c #1D2337",
"z.	c #555265",
"A.	c #2F3246",
"B.	c #22273B",
"C.	c #605C6E",
"D.	c #817788",
"E.	c #4B4A5C",
"F.	c #2B2F43",
"G.	c #393B4F",
"H.	c #3D3E52",
"I.	c #23283D",
"J.	c #21263A",
"K.	c #4F4D60",
"L.	c #847A8B",
"M.	c #5F5A6D",
"N.	c #23283B",
"O.	c #212639",
"P.	c #21263B",
"Q.	c #4A495C",
"R.	c #7D7486",
"S.	c #1E2438",
"T.	c #2C2F43",
"U.	c #292D40",
"V.	c #282C40",
"W.	c #2D3247",
"X.	c #2B2F44",
"Y.	c #1B1D28",
"Z.	c #15151D",
"`.	c #7E7586",
" +	c #202539",
".+	c #2A2E41",
"++	c #282C3F",
"@+	c #262A3C",
"#+	c #2F344C",
"$+	c #3A4361",
"%+	c #383F5C",
"&+	c #1C1E2A",
"*+	c #0E0D11",
"=+	c #3E3E51",
"-+	c #282B3E",
";+	c #2C3148",
">+	c #353C56",
",+	c #333953",
"'+	c #323852",
")+	c #363D59",
"!+	c #3A4362",
"~+	c #39415F",
"{+	c #232637",
"]+	c #14151D",
"^+	c #20263B",
"/+	c #282E44",
"(+	c #373E58",
"_+	c #3B4462",
":+	c #3A4260",
"<+	c #39415E",
"[+	c #373F5C",
"}+	c #414B6E",
"|+	c #282D40",
"1+	c #14141C",
"2+	c #24283B",
"3+	c #373E5A",
"4+	c #373F5B",
"5+	c #38405C",
"6+	c #38405D",
"7+	c #363E5A",
"8+	c #3C4564",
"9+	c #272C3F",
"0+	c #1A1B26",
"a+	c #323952",
"b+	c #343B56",
"c+	c #292C40",
"d+	c #2A2F44",
"e+	c #14141B",
"f+	c #171821",
"g+	c #313750",
"h+	c #3C4565",
"i+	c #394260",
"j+	c #313851",
"k+	c #31364F",
"l+	c #202332",
"m+	c #191A25",
"n+	c #343A55",
"o+	c #323851",
"p+	c #232636",
"q+	c #1B1C28",
"r+	c #181A24",
"s+	c #2E344B",
"t+	c #26293B",
"u+	c #181923",
"v+	c #2F354C",
"w+	c #3C4464",
"x+	c #30374F",
"y+	c #353C58",
"z+	c #2E334A",
"A+	c #2F344B",
"B+	c #3A4261",
"C+	c #3B4463",
"D+	c #2C3046",
"E+	c #333A54",
"F+	c #3D4665",
"G+	c #191B25",
"H+	c #161720",
"I+	c #363D58",
"J+	c #272B3E",
"K+	c #3E4868",
"L+	c #353C57",
"M+	c #15161E",
"N+	c #191A24",
"O+	c #353D58",
"P+	c #333A53",
"Q+	c #2C3146",
"R+	c #1C1D2A",
"S+	c #181924",
"T+	c #39425F",
"U+	c #2D3148",
"V+	c #363E59",
"W+	c #30364E",
"X+	c #131219",
"Y+	c #3D4666",
"Z+	c #38405E",
"`+	c #1E212E",
" @	c #171822",
".@	c #2C3248",
"+@	c #2A2E43",
"@@	c #38415E",
"#@	c #2C3147",
"$@	c #14151C",
"%@	c #1E212F",
"&@	c #242738",
"*@	c #2D3248",
"=@	c #404A6C",
"-@	c #292E42",
";@	c #13131A",
">@	c #323953",
",@	c #212433",
"'@	c #272B3D",
")@	c #1F2230",
"!@	c #373E5B",
"~@	c #25293B",
"{@	c #0F0E12",
"]@	c #16161F",
"^@	c #1C1D29",
"/@	c #3B4362",
"(@	c #3E4768",
"_@	c #2E344C",
":@	c #343B55",
"<@	c #333A55",
"[@	c #1A1C27",
"}@	c #1A1C28",
"|@	c #1B1D29",
"                                                                                                                                ",
"                                                                                                                                ",
"                                                                                                                                ",
"                                                                                                                                ",
"                                                                                                                                ",
"                                                                                                                                ",
"                                                                                                                                ",
"                                                                                                                                ",
"                                                                                                                                ",
"                                                                                                                                ",
"                                                                                                                                ",
"                                                                                                                                ",
"                                                                                                                                ",
"                                                                                                                                ",
"                                                                                                                                ",
"                                                                                                                                ",
"                                                                                                                                ",
"                                          . + @ @ # $         @                                                                 ",
"                                        % & & * = - $ ;     > , '                                                               ",
"                                      ) ! ~ { { ] ^ / ( _ : < [ } $                                                             ",
"                                          | ( 1 2 3 4 5 6 7 8 6 9       0 $                                                     ",
"                                              a b c d e f g h i & @ j ' k l                                                     ",
"                                                m n o p q r s t s u v w x (                                                     ",
"                                                  y z A B s C D C E F G H (                                                     ",
"                                                  I J K L M M s N O P Q R   ( $                                                 ",
"                                                  S T U V C W X i Y Z ` Q  .7 ..                                                ",
"                                                  +.@.#.$.q %.&.*.=...-.;.& >.,.                                                ",
"                                                  '.).!.~.q {.M N X E N N ~ ! +                                                 ",
"                                                  ].^./.(._.%.:.:.{ <.G [.}.                                                    ",
"                                                  |.1.2.3.r F x 4.5.~ 6.7.+                                                     ",
"                                                8.9.0.a.b.c.d.e.x X 7.8 f.g.h.                                                  ",
"                                              . i.j.k.l.m.7 n.g.t o.p.q.^ :.Y r.                                                ",
"                                              s.t.f.u.v.w.x.y.z.:.A.0 p.Z Z                                                     ",
"                                            B.' C.C D.E.) F.w.G.H.I.                                                            ",
"                                            J.K.L._.M.u w.( F.N.O.l                                                             ",
"                                            P.Q.R.C h.S.T.U.V.( W.X.Y.Z.                                                        ",
"                                            P.` `.f.%  +.+++@+#+$+%+&+*+                                                        ",
"                                            9 6 t =+-+;+>+,+'+)+!+~+'+{+]+                                                      ",
"                                            y.Q.g.^+/+(+_+:+$+<+[+<+}+|+1+                                                      ",
"                                                2+l 3+$+4+5+%+6+%+7+8+9+1+                                                      ",
"                                                  0+a+8+4+6+4+:+b+c+:+d+e+                                                      ",
"                                                  f+g+h+4+6+i+:+3+j+k+l+e+                                                      ",
"                                                  m+j+8+[+6+n+b+:+$+o+p+q+                                                      ",
"                                                  r+j+8+6+6+$ s+$+[+:+)+t+u+                                                    ",
"                                                  r+j+8+6+6+$ v+w+[+4+8+x+r+                                                    ",
"                                                  r+j+8+[+6+y+z+A+B+6+8+,+m+                                                    ",
"                                                1+r+'+8+4+6+C+,+D+E+7+F+x+f+                                                    ",
"                                              G+H+r+,+C+4+6+4+C+I+J+a+K+j+0+                                                    ",
"                                              G+H+r+a+_+4+6+4+C+I+J+,+8+L+V.q+M+                                                ",
"                                                e+N+O+K+7+%+C+P+D+E+7+!+<+Q+R+H+                                                ",
"                                                  S+9+y+~+T+b+U+#+:+_+V+W+++N+                                                  ",
"                                                  u+X+|+Y+7+( W+C+[+Z+W+U.X.`+ @                                                ",
"                                                  u+e+.@B++@,+Z+@@6+#@#+6+7+:+9+$@                                              ",
"                                                  u+ @%@&@t+5+Y+$+_+V.*@8+<+=@-@$@                                              ",
"                                                  u+m+;@G+v+'+g+o+o+s+>@@@4+w+V.$@                                              ",
"                                                  u+m+1+,@:+z+'@$ $ )+$+[+%+Y+|+$@                                              ",
"                                                    m+Z.)@6+6+)+7+7+6+Z+6+%+Y+$ M+                                              ",
"                                                    m+]+,@h+_+[+<+<+[+!@4+3+F+~@{@                                              ",
"                                                    G+]@^@z+i+8+$+/@C+C+C+_+(@'+{+                                              ",
"                                                        ]@]@_@Z+:@L+L+L+L+L+<@:+j+m+                                            ",
"                                                           @0+Y.[@}@}@}@}@q+[@|@q+u+                                            ",
"                                                                                                                                ",
"                                                                                                                                ",
"                                                                                                                                "};
