/* XPM */
static char * 13_xpm[] = {
"64 64 330 2",
"  	c None",
". 	c #22273B",
"+ 	c #21273B",
"@ 	c #23283C",
"# 	c #24283D",
"$ 	c #2A2D41",
"% 	c #21263A",
"& 	c #393A4E",
"* 	c #5F5A6D",
"= 	c #5F5B6D",
"- 	c #545164",
"; 	c #535063",
"> 	c #2A2E42",
", 	c #181F33",
"' 	c #1D2337",
") 	c #2C3044",
"! 	c #4C4B5E",
"~ 	c #292D41",
"{ 	c #393B4E",
"] 	c #5E5A6C",
"^ 	c #5B5769",
"/ 	c #6F687A",
"( 	c #887D8E",
"_ 	c #797182",
": 	c #4C4A5D",
"< 	c #404154",
"[ 	c #35374B",
"} 	c #686274",
"| 	c #7A7183",
"1 	c #4B4A5D",
"2 	c #21263B",
"3 	c #1B2135",
"4 	c #4A495C",
"5 	c #6E6779",
"6 	c #6B6578",
"7 	c #6F687B",
"8 	c #7E7587",
"9 	c #625D70",
"0 	c #2D3145",
"a 	c #676174",
"b 	c #4F4D60",
"c 	c #1C2236",
"d 	c #2E3145",
"e 	c #3B3C50",
"f 	c #6D667B",
"g 	c #6E677C",
"h 	c #6E677A",
"i 	c #696375",
"j 	c #6C6678",
"k 	c #736B7D",
"l 	c #24293D",
"m 	c #141B30",
"n 	c #4E4C5F",
"o 	c #605B6D",
"p 	c #534F59",
"q 	c #A08F8A",
"r 	c #A3908B",
"s 	c #83777F",
"t 	c #6D667A",
"u 	c #766E7F",
"v 	c #766E80",
"w 	c #514F62",
"x 	c #48475A",
"y 	c #736C7E",
"z 	c #71697B",
"A 	c #BA9F90",
"B 	c #C4A994",
"C 	c #908285",
"D 	c #605C75",
"E 	c #70697A",
"F 	c #6C6578",
"G 	c #70697B",
"H 	c #817788",
"I 	c #887D8F",
"J 	c #6A6476",
"K 	c #454558",
"L 	c #2C2F43",
"M 	c #B6A192",
"N 	c #BAA292",
"O 	c #928385",
"P 	c #6D6679",
"Q 	c #70687A",
"R 	c #6D6678",
"S 	c #656072",
"T 	c #464659",
"U 	c #D4CDA7",
"V 	c #BAA794",
"W 	c #B59B8E",
"X 	c #A1908A",
"Y 	c #696477",
"Z 	c #787081",
"` 	c #625D6F",
" .	c #1C2237",
"..	c #504E60",
"+.	c #635E70",
"@.	c #DDDDAE",
"#.	c #BBA996",
"$.	c #BB9E8F",
"%.	c #AA978D",
"&.	c #6A6478",
"*.	c #746C7D",
"=.	c #776F81",
"-.	c #5D596B",
";.	c #323549",
">.	c #202539",
",.	c #D1C4A2",
"'.	c #B8A493",
").	c #BCA191",
"!.	c #AA968D",
"~.	c #6F6879",
"{.	c #716A7C",
"].	c #7A7283",
"^.	c #736C7D",
"/.	c #6C6577",
"(.	c #645E71",
"_.	c #AD968C",
":.	c #B39C8F",
"<.	c #BBA392",
"[.	c #A08E8A",
"}.	c #6D677A",
"|.	c #716A7B",
"1.	c #6E687A",
"2.	c #756C7B",
"3.	c #B29C8F",
"4.	c #9D8B88",
"5.	c #696378",
"6.	c #756D7E",
"7.	c #756D7F",
"8.	c #726A7C",
"9.	c #7C7385",
"0.	c #5C586B",
"a.	c #3C3E53",
"b.	c #6B667A",
"c.	c #847981",
"d.	c #847985",
"e.	c #645F75",
"f.	c #414154",
"g.	c #3A3C4F",
"h.	c #565366",
"i.	c #776F80",
"j.	c #797082",
"k.	c #47475A",
"l.	c #575467",
"m.	c #7F7687",
"n.	c #645F71",
"o.	c #36384B",
"p.	c #131B30",
"q.	c #343649",
"r.	c #6B667B",
"s.	c #625E72",
"t.	c #4C4A5C",
"u.	c #20263A",
"v.	c #7C7384",
"w.	c #585467",
"x.	c #25293D",
"y.	c #323448",
"z.	c #5D596C",
"A.	c #37394D",
"B.	c #3D3E51",
"C.	c #7D7485",
"D.	c #474659",
"E.	c #524F62",
"F.	c #262A3F",
"G.	c #2B2F43",
"H.	c #7B7284",
"I.	c #1F2539",
"J.	c #282C40",
"K.	c #83788A",
"L.	c #6B6577",
"M.	c #313447",
"N.	c #24293C",
"O.	c #22273A",
"P.	c #282C3F",
"Q.	c #1D1F2B",
"R.	c #49485B",
"S.	c #7E7486",
"T.	c #2F3246",
"U.	c #2B2E41",
"V.	c #282B3F",
"W.	c #272A3D",
"X.	c #2C3045",
"Y.	c #323850",
"Z.	c #2F344C",
"`.	c #1A1C27",
" +	c #121118",
".+	c #7E7586",
"++	c #676173",
"@+	c #35374A",
"#+	c #2A2F43",
"$+	c #292D40",
"%+	c #313750",
"&+	c #3C4565",
"*+	c #3A4260",
"=+	c #212433",
"-+	c #14151C",
";+	c #1F2439",
">+	c #555265",
",+	c #2B2F42",
"'+	c #24283A",
")+	c #30364E",
"!+	c #39415E",
"~+	c #373E5A",
"{+	c #363E5A",
"]+	c #383F5C",
"^+	c #38415E",
"/+	c #38405C",
"(+	c #15161E",
"_+	c #3E3E52",
":+	c #242A3F",
"<+	c #2E354E",
"[+	c #394260",
"}+	c #38405D",
"|+	c #39425F",
"1+	c #40496B",
"2+	c #272C3F",
"3+	c #191A25",
"4+	c #2C3147",
"5+	c #1C1E2A",
"6+	c #1D2234",
"7+	c #262839",
"8+	c #3B4462",
"9+	c #373F5B",
"0+	c #39415F",
"a+	c #38405E",
"b+	c #373E5B",
"c+	c #323953",
"d+	c #3A4361",
"e+	c #25293B",
"f+	c #1C1E2B",
"g+	c #3D4666",
"h+	c #2A2F44",
"i+	c #1B1D28",
"j+	c #171822",
"k+	c #343B55",
"l+	c #272B3E",
"m+	c #434D71",
"n+	c #14141C",
"o+	c #181923",
"p+	c #3E4768",
"q+	c #333A53",
"r+	c #343B56",
"s+	c #3C4564",
"t+	c #343A55",
"u+	c #262A3C",
"v+	c #414B6D",
"w+	c #191A24",
"x+	c #31374F",
"y+	c #404A6B",
"z+	c #26293B",
"A+	c #3C4665",
"B+	c #353C57",
"C+	c #222536",
"D+	c #363D59",
"E+	c #14141B",
"F+	c #181A24",
"G+	c #313851",
"H+	c #3A4261",
"I+	c #2F344B",
"J+	c #353D58",
"K+	c #3B4463",
"L+	c #323952",
"M+	c #333A54",
"N+	c #13131A",
"O+	c #2E344B",
"P+	c #313751",
"Q+	c #3E4767",
"R+	c #2B3046",
"S+	c #191B25",
"T+	c #353C58",
"U+	c #323852",
"V+	c #3D4767",
"W+	c #181924",
"X+	c #14151D",
"Y+	c #333953",
"Z+	c #363D58",
"`+	c #3E4868",
" @	c #323851",
".@	c #1A1B26",
"+@	c #111016",
"@@	c #181922",
"#@	c #232738",
"$@	c #292E42",
"%@	c #373F5C",
"&@	c #2E334A",
"*@	c #343C56",
"=@	c #30364F",
"-@	c #16161F",
";@	c #15151D",
">@	c #212434",
",@	c #2D3248",
"'@	c #1B1D29",
")@	c #3B4362",
"!@	c #2D3249",
"~@	c #252839",
"{@	c #2B3045",
"]@	c #1D202D",
"^@	c #424C6F",
"/@	c #2B2F44",
"(@	c #2C3148",
"_@	c #1E212F",
":@	c #121218",
"<@	c #3F4869",
"[@	c #202231",
"}@	c #161720",
"|@	c #1F2230",
"1@	c #242739",
"2@	c #30374F",
"3@	c #191B26",
"4@	c #171821",
"5@	c #3F486A",
"6@	c #171721",
"7@	c #222535",
"8@	c #131319",
"9@	c #1D1F2C",
"0@	c #13131B",
"a@	c #3C4463",
"b@	c #292E43",
"c@	c #181822",
"d@	c #242738",
"e@	c #434D70",
"f@	c #282D41",
"g@	c #111117",
"h@	c #1A1B27",
"i@	c #404A6C",
"j@	c #3C4464",
"k@	c #232637",
"l@	c #171720",
"m@	c #363E59",
"n@	c #1B1C28",
"o@	c #1A1C28",
"                                                                                                                                ",
"                                                                                                                                ",
"                                                                                                                                ",
"                                                                                                                                ",
"                                                                                                                                ",
"                                                                                                                                ",
"                                                                                                                                ",
"                                                                                                                                ",
"                                                                                                                                ",
"                                                                                                                                ",
"                                                                                                                                ",
"                                                                                                                                ",
"                                                                                                                                ",
"                                                                                                                                ",
"                                                                                                                                ",
"                                                                                                                                ",
"                                          . + @ @ # $       # @ %                                                               ",
"                                        & * = - - ; > , ' ) ! * - ~                                                             ",
"                                        { ] ^ / ( _ : < [ @ } | 1 >                                                             ",
"                                          2 3 4 5 6 7 8 9 0 a b c     d d ~                                                     ",
"                                              . e f g h / i j k ^ l m n o >                                                     ",
"                                                p q r s t u / v / w x y z >                                                     ",
"                                                  A B C D 5 E F G H I J K L                                                     ",
"                                                  M N O P Q / G R S 5 T +   ~ ~                                                 ",
"                                                  U V W X h Y Z ` >  ...+.. @ 0                                                 ",
"                                                  @.#.$.%.h &.*.i w 4 S =.-.;.>.                                                ",
"                                                  ,.'.).!.P &.~.{._ ].^./.(.&                                                   ",
"                                                  _.:.<.[.G }.|.1.P /._ ] .                                                     ",
"                                                  2.3.4.5.6.7.8.5 R z 9.0..                                                     ",
"                                                a.b.c.d.e.f.g.h.i.j.k.l.m.n.o.                                                  ",
"                                              p.q.6.r.s.t.u.m n v.w.x.y.z.0.A.                                                  ",
"                                              . B.8.C.D.' L @ E.` @ F.G.. .                                                     ",
"                                            2 4 k h H.: I.> ~ 0 d J.                                                            ",
"                                            % n K.L.4 M.~ > G.N.O.P.Q.                                                          ",
"                                            + R.S.^.T.3 U.V.W.X.Y.Z.`. +                                                        ",
"                                            % ! .+++@+l X.#+$+%+&+*+=+-+                                                        ",
"                                            ;+>+z ,+'+)+!+~+{+]+^+/+!+~ -+(+                                                    ",
"                                              _+{ :+<+/+[+!+[+^+}+|+1+2+3+4+5+                                                  ",
"                                                6+7+~+8+9+0+/+a+b+c+d+e+f+g+h+i+                                                ",
"                                                  j+%+&+b+b+9+d+k+l+}+2+3+9+m+~ n+                                              ",
"                                                  o+%+p+q+h+r+s+t+P.!+u+o+|+v+2+-+                                              ",
"                                                  w+x+y+t+z+q+A+k+~ B+{+~ C+D+h+E+                                              ",
"                                                  F+G+H+)+I+J+K+k+~ L+v+M+N+r+O+N+                                              ",
"                                                  F+k+P+$+*+!+[+r+~ M+Q+)+o+)+R+N+                                              ",
"                                                  S+T+U+J.!+!+|+r+~ M+V+L+W+o+5+                                                ",
"                                                  X+W.Y+r+}+9+K+Z+W.L+`+ @.@+@                                                  ",
"                                                @@#@$@B+d+/+*+%@%+&@*@p+=@-@                                                    ",
"                                              ;@>@s+K+}+}+}+0+,@> |+^+K+L+'@                                                    ",
"                                            X+l+0+}+}+}+)@[+!@~@{@a+0+%@0+{+]@E+`.                                              ",
"                                            n+h+^@a+d+Y+/@(@x+L+k+}+a+%@0+8+M+_@:@                                              ",
"                                            ;@u+]+k+B+=@/@4+]+s+0+}+}+}+%@~+<@L+[@                                              ",
"                                            }@|@~ u+1@2@s+|+}+%@}+}+}+}+}+}+D+g+r+3+                                            ",
"                                            o+w+3@3+-@$@K+}+}+}+}+}+}+}+}+}+9+&+Y+3+                                            ",
"                                            o+j+4@4@N+{@5@%@/+}+}+}+}+}+}+}+%@K+G+3+                                            ",
"                                            o+o+w+w+6@7@ @]+a+}+}+}+}+}+}+}+{+p+r+3+                                            ",
"                                          o+o+o+o+o+S+8@9@0+H+9+}+}+}+}+}+}+%@d+=@3+                                            ",
"                                          o+o+o+o+o+3+0@|@)@d+9+}+}+}+}+}+/+a@b@j+                                              ",
"                                                    W+c@.@d@r+0+{+9+9+%@b+{+e@f@g@                                              ",
"                                                    o+h@E+-+L+i@*+K+K+)@s+j@2@k@l@                                              ",
"                                                          3+Z.}+r+B+B+r+{+m@9@                                                  ",
"                                                            `.n@o@o@o@`.n@n@                                                    ",
"                                                                                                                                ",
"                                                                                                                                ",
"                                                                                                                                "};
