/* XPM */
static char * 14_xpm[] = {
"64 64 338 2",
"  	c None",
". 	c #303347",
"+ 	c #2F3246",
"@ 	c #2E3245",
"# 	c #292D41",
"$ 	c #252A3E",
"% 	c #2E3145",
"& 	c #1B2135",
"* 	c #3A3B4F",
"= 	c #736B7D",
"- 	c #726B7D",
"; 	c #676173",
"> 	c #6A6476",
", 	c #1D2337",
"' 	c #23283C",
") 	c #2B2F43",
"! 	c #5A5669",
"~ 	c #7A7283",
"{ 	c #5D596C",
"] 	c #36384C",
"^ 	c #454458",
"/ 	c #404053",
"( 	c #645F72",
"_ 	c #897E8F",
": 	c #766E7F",
"< 	c #5D596A",
"[ 	c #5B5769",
"} 	c #434357",
"| 	c #20263A",
"1 	c #686274",
"2 	c #645F71",
"3 	c #34364A",
"4 	c #1F2439",
"5 	c #191F34",
"6 	c #11182D",
"7 	c #3D3E51",
"8 	c #595669",
"9 	c #676277",
"0 	c #6E687D",
"a 	c #7E7587",
"b 	c #6B6577",
"c 	c #414154",
"d 	c #696375",
"e 	c #565365",
"f 	c #2C3044",
"g 	c #38394D",
"h 	c #3B3C50",
"i 	c #37384B",
"j 	c #786F7E",
"k 	c #6D6677",
"l 	c #6F687A",
"m 	c #746C7E",
"n 	c #6D6679",
"o 	c #7B7283",
"p 	c #21263A",
"q 	c #6E687A",
"r 	c #2A2E42",
"s 	c #B19B8F",
"t 	c #B69F91",
"u 	c #8D7F83",
"v 	c #6A6479",
"w 	c #716A7B",
"x 	c #71697B",
"y 	c #666173",
"z 	c #615C6F",
"A 	c #797182",
"B 	c #676174",
"C 	c #B69C8E",
"D 	c #C2A794",
"E 	c #8D8084",
"F 	c #5F5B75",
"G 	c #70697B",
"H 	c #6C6678",
"I 	c #716A7C",
"J 	c #807688",
"K 	c #8C8192",
"L 	c #5A5769",
"M 	c #BFAE98",
"N 	c #B9A392",
"O 	c #9D8A88",
"P 	c #7D737F",
"Q 	c #4E4D5F",
"R 	c #4F4D60",
"S 	c #262A3E",
"T 	c #DBD8AC",
"U 	c #BAA895",
"V 	c #BB9F90",
"W 	c #AB978D",
"X 	c #6E677A",
"Y 	c #696377",
"Z 	c #787081",
"` 	c #625D6F",
" .	c #1B2136",
"..	c #575467",
"+.	c #313447",
"@.	c #262B3F",
"#.	c #2B2E42",
"$.	c #D9D7AB",
"%.	c #BBA995",
"&.	c #B89D8F",
"*.	c #A6948C",
"=.	c #6B6579",
"-.	c #6E6779",
";.	c #746D7E",
">.	c #37394D",
",.	c #1C2236",
"'.	c #C9B69B",
").	c #B49F91",
"!.	c #BEA492",
"~.	c #AD988D",
"{.	c #6C6578",
"].	c #6F6879",
"^.	c #766E80",
"/.	c #756D7F",
"(.	c #4B495D",
"_.	c #333549",
":.	c #998585",
"<.	c #B59D90",
"[.	c #B49D8F",
"}.	c #8F8084",
"|.	c #746C7F",
"1.	c #736C7D",
"2.	c #6D6779",
"3.	c #7D7486",
"4.	c #5B576A",
"5.	c #6C667A",
"6.	c #A8948C",
"7.	c #948486",
"8.	c #615D76",
"9.	c #6A6475",
"0.	c #6C6577",
"a.	c #655F72",
"b.	c #3A3C50",
"c.	c #70697C",
"d.	c #756C7C",
"e.	c #7B7282",
"f.	c #635E72",
"g.	c #25293E",
"h.	c #4D4C5F",
"i.	c #36384B",
"j.	c #474659",
"k.	c #82788A",
"l.	c #0F172C",
"m.	c #323448",
"n.	c #746C7D",
"o.	c #70697D",
"p.	c #545266",
"q.	c #38394C",
"r.	c #171D32",
"s.	c #535164",
"t.	c #776F81",
"u.	c #414155",
"v.	c #252A40",
"w.	c #2F3348",
"x.	c #434356",
"y.	c #444457",
"z.	c #35374B",
"A.	c #34374A",
"B.	c #4D4B5E",
"C.	c #817788",
"D.	c #48475A",
"E.	c #192034",
"F.	c #514F62",
"G.	c #212435",
"H.	c #242737",
"I.	c #1A2136",
"J.	c #4E4C5F",
"K.	c #7F7687",
"L.	c #24283D",
"M.	c #2A2D41",
"N.	c #1B1D28",
"O.	c #4C4A5D",
"P.	c #7F7587",
"Q.	c #282C41",
"R.	c #282D41",
"S.	c #292E42",
"T.	c #21273B",
"U.	c #48485B",
"V.	c #313448",
"W.	c #1D2338",
"X.	c #2D3045",
"Y.	c #292D42",
"Z.	c #292C40",
"`.	c #282C3F",
" +	c #272B3E",
".+	c #1E202D",
"++	c #20253A",
"@+	c #504E61",
"#+	c #7E7486",
"$+	c #545164",
"%+	c #252A3D",
"&+	c #292C3F",
"*+	c #282B3F",
"=+	c #272A3D",
"-+	c #2A2F44",
";+	c #30364F",
">+	c #2F344C",
",+	c #1A1B26",
"'+	c #13131A",
")+	c #1E2438",
"!+	c #525062",
"~+	c #5F5B6D",
"{+	c #24293D",
"]+	c #2A2F43",
"^+	c #292D40",
"/+	c #313750",
"(+	c #3C4565",
"_+	c #394260",
":+	c #222535",
"<+	c #16161F",
"[+	c #191A25",
"}+	c #1A1C27",
"|+	c #2D3145",
"1+	c #262A3C",
"2+	c #30364D",
"3+	c #38405E",
"4+	c #363E5A",
"5+	c #383F5C",
"6+	c #38415E",
"7+	c #38405D",
"8+	c #3A4361",
"9+	c #232738",
"0+	c #1B1D29",
"a+	c #353D58",
"b+	c #222534",
"c+	c #111016",
"d+	c #191D2D",
"e+	c #1F212F",
"f+	c #2E344B",
"g+	c #3A4261",
"h+	c #3B4463",
"i+	c #373F5C",
"j+	c #3F496A",
"k+	c #262A3D",
"l+	c #1C1E2B",
"m+	c #3D4665",
"n+	c #1E212E",
"o+	c #0B090C",
"p+	c #161720",
"q+	c #323953",
"r+	c #3E4768",
"s+	c #353C57",
"t+	c #333953",
"u+	c #38405C",
"v+	c #3C4464",
"w+	c #25293A",
"x+	c #373F5B",
"y+	c #2B3046",
"z+	c #31374F",
"A+	c #3E4869",
"B+	c #343B55",
"C+	c #3D4666",
"D+	c #25293B",
"E+	c #424C6E",
"F+	c #2A2E43",
"G+	c #171821",
"H+	c #181A24",
"I+	c #30374F",
"J+	c #242839",
"K+	c #191A24",
"L+	c #3A4260",
"M+	c #39415F",
"N+	c #30364E",
"O+	c #191B26",
"P+	c #353C58",
"Q+	c #2B2F45",
"R+	c #333A54",
"S+	c #343B56",
"T+	c #232636",
"U+	c #404A6C",
"V+	c #2C3248",
"W+	c #2E334A",
"X+	c #373E5A",
"Y+	c #40496B",
"Z+	c #14141B",
"`+	c #434D70",
" @	c #252839",
".@	c #3A4362",
"+@	c #181924",
"@@	c #3F4869",
"#@	c #2F354D",
"$@	c #15161E",
"%@	c #111117",
"&@	c #1E202E",
"*@	c #3B4462",
"=@	c #323952",
"-@	c #171822",
";@	c #313851",
">@	c #2C3147",
",@	c #3B4362",
"'@	c #3C4564",
")@	c #2C3146",
"!@	c #181923",
"~@	c #101015",
"{@	c #121118",
"]@	c #202332",
"^@	c #434E72",
"/@	c #3E4767",
"(@	c #323851",
"_@	c #2D3349",
":@	c #2F344B",
"<@	c #15151D",
"[@	c #14151D",
"}@	c #1F2230",
"|@	c #363D59",
"1@	c #39415E",
"2@	c #30354E",
"3@	c #282C40",
"4@	c #2E3349",
"5@	c #1C1E2A",
"6@	c #0D0C10",
"7@	c #1C1D29",
"8@	c #1D1F2C",
"9@	c #1D1E2B",
"0@	c #39425F",
"a@	c #232737",
"b@	c #171721",
"c@	c #131319",
"d@	c #414B6D",
"e@	c #14141C",
"f@	c #16161E",
"g@	c #272C3F",
"h@	c #14151C",
"i@	c #212434",
"j@	c #121218",
"k@	c #100F14",
"l@	c #171720",
"m@	c #1D1F2B",
"n@	c #2F354C",
"o@	c #15151E",
"p@	c #363E59",
"q@	c #434D71",
"r@	c #1A1B27",
"s@	c #3C4463",
"t@	c #2B3045",
"u@	c #292E43",
"v@	c #181922",
"w@	c #1B1C28",
"                                                                                                                                ",
"                                                                                                                                ",
"                                                                                                                                ",
"                                                                                                                                ",
"                                                                                                                                ",
"                                                                                                                                ",
"                                                                                                                                ",
"                                                                                                                                ",
"                                                                                                                                ",
"                                                                                                                                ",
"                                                                                                                                ",
"                                                                                                                                ",
"                                                                                                                                ",
"                                                                                                                                ",
"                                                                                                                                ",
"                                          . . + + @ # $     % + .                                                               ",
"                                      & * = - ; > ; . , ' ) ! ~ { #                                                             ",
"                                        ] ^ / ( _ : < [ } | 1 2 3       4 #                                                     ",
"                                          5 6 7 8 9 0 a b c d e f     g h #                                                     ",
"                                                i j j k l m n o 1 + p ! q r                                                     ",
"                                                  s t u v w l x l y z A B r                                                     ",
"                                                  C D E F l G H I J K L +   #                                                   ",
"                                                  M N O P l n = d Q R ^ 3   S )                                                 ",
"                                                  T U V W X Y Z ` r  ...x +.@.#.                                                ",
"                                                  $.%.&.*.X =.w -.1 y b ;.G >.,.                                                ",
"                                                  '.).!.~.{.Y ].x ^.m /.B (._.                                                  ",
"                                                  :.<.[.}./.|.1.2.{.l 3.4.5                                                     ",
"                                                  5.6.7.8.9.d 0.G x 1 m a._.                                                    ",
"                                              ,.b.c.d.e.f.% g.h.A /.i.j.k.1.g &                                                 ",
"                                              l.m.n.o.p.q.' r.s.t.u.v.w.x.y.z.                                                  ",
"                                              A.B.x C.D.E.f S j.F.| G.H.I.E.                                                    ",
"                                            p J.K.-.G D.L.M.r $ @.) N.                                                          ",
"                                            p O.P.b * $ r # # Q.R.S.                                                            ",
"                                            T.U.a : V.W.X.Y.r Z.`. +.+                                                          ",
"                                            ++@+#+$+V.%+&+*+=+-+;+>+,+'+                                                        ",
"                                            )+!+~+T.{+) -+]+^+/+(+_+:+<+[+}+                                                    ",
"                                              + |+Y.1+2+3+4+4+5+6+7+8+9+0+a+b+c+                                                ",
"                                                d+e+f+6+g+h+g+3+i+i+j+k+l+m+n+o+                                                ",
"                                                  p+q+r+s+t+4+6+7+u+v+w+0+x+y+}+                                                ",
"                                                  [+z+A+t+ +B+8+i+u+C+D+,+u+E+F+G+                                              ",
"                                                  H+I+j+B+ +B+8+i+i+C+J+K+L+h+M+N+[+                                            ",
"                                                  O+P+4+Q+R+i+7+7+L+_+S+S.T+z+U+R+[+                                            ",
"                                                  <+V+z+W+8+M+7+X+R+s+Y+B+Z+y+`+q+[+                                            ",
"                                                  N. @B+.@i+x+.@S+ +q+r+N++@W+@@#@[+                                            ",
"                                          $@p+%@&@4+i+x+7+5+x+*@a+ +=@A+I+-@;@W+p+                                              ",
"                                        e+y+>@S.>+,@g+M+8+8+'@t+)@R+4+(+/+!@i+>@~@                                              ",
"                                      {@]@^@U+/@m+7+M+s+z+(@t+_@:@g+7+v+/+<@ +F+[@                                              ",
"                                      %@}@a+x+|@4+x+1@2@*+Y. +(@*@5+x+h+R+0+<@<@                                                ",
"                                          N.3@4@Q+y+]+/+u+4+4+i+6+7+7+u+M+x+5@6@                                                ",
"                                            7@8@9@9@,+y+'@0@L+1@u+7+7+i+M+*@R+a@<@                                              ",
"                                            b@p+b@p+c@]+/@x+i+7+7+7+7+7+i+4+d@F+e@                                              ",
"                                            H+H+K+H+f@g@M+7+7+7+7+7+7+7+7+u+'@3@h@                                              ",
"                                            !@!@!@!@K+p+i@u+0@i+7+7+7+7+7+5+C+# $@                                              ",
"                                            !@!@!@!@O+j@.+(+g+4+7+7+7+7+7+5+/@k+k@                                              ",
"                                            !@!@!@!@K+l@m@_@_+8+x+7+7+7+7+u+,@>+]@                                              ",
"                                            !@!@!@!@!@[+<+<+n@,@7+7+7+7+7+7+X+/@S+[+                                            ",
"                                          !@!@!@!@!@!@!@!@-@p+y+C+x+i+7+7+7+4+h+=@[+                                            ",
"                                          !@!@!@!@!@!@!@+@H+o@[+]+'@L+p@x+x+8+q@s+[+                                            ",
"                                          !@!@!@!@!@!@!@!@!@r@e@!@_@L+'@s@'@n@t@u@[+                                            ",
"                                          !@!@!@!@!@      !@!@O+b@$@W+7+P+|@&@{@b@                                              ",
"                                                            !@!@v@-@,+w@}+w@                                                    ",
"                                                                                                                                ",
"                                                                                                                                ",
"                                                                                                                                "};
