/* XPM */
static char * 15_xpm[] = {
"64 64 313 2",
"  	c None",
". 	c #192034",
"+ 	c #191F34",
"@ 	c #1B2136",
"# 	c #1C2237",
"$ 	c #292D41",
"% 	c #35374B",
"& 	c #454558",
"* 	c #404053",
"= 	c #3F4053",
"- 	c #3E3F52",
"; 	c #1C2236",
"> 	c #3C3D51",
", 	c #434356",
"' 	c #424256",
") 	c #1B2135",
"! 	c #3A3B4F",
"~ 	c #736B7D",
"{ 	c #71697B",
"] 	c #7D7485",
"^ 	c #756D7F",
"/ 	c #3B3C50",
"( 	c #2A2E42",
"_ 	c #2B2E42",
": 	c #272C40",
"< 	c #645E71",
"[ 	c #867B8D",
"} 	c #5B5769",
"| 	c #303346",
"1 	c #575467",
"2 	c #807687",
"3 	c #716A7B",
"4 	c #6A6475",
"5 	c #726B7C",
"6 	c #545164",
"7 	c #23283C",
"8 	c #676173",
"9 	c #1F2539",
"0 	c #24293D",
"a 	c #313346",
"b 	c #47475A",
"c 	c #676278",
"d 	c #6C667C",
"e 	c #756E81",
"f 	c #6F6879",
"g 	c #575366",
"h 	c #6B6477",
"i 	c #645F71",
"j 	c #081126",
"k 	c #4D4B5E",
"l 	c #2A2D41",
"m 	c #3C3D4D",
"n 	c #8B7E84",
"o 	c #8C7E84",
"p 	c #766D7A",
"q 	c #6E677A",
"r 	c #786F81",
"s 	c #6E6779",
"t 	c #7B7284",
"u 	c #3E3E52",
"v 	c #323448",
"w 	c #676274",
"x 	c #746C7E",
"y 	c #B9A091",
"z 	c #C1A793",
"A 	c #918285",
"B 	c #656077",
"C 	c #6F687A",
"D 	c #6D6679",
"E 	c #776F81",
"F 	c #787082",
"G 	c #766E80",
"H 	c #595568",
"I 	c #B49B8F",
"J 	c #BDA492",
"K 	c #8D7F84",
"L 	c #625E76",
"M 	c #70697A",
"N 	c #70697B",
"O 	c #776E80",
"P 	c #83798B",
"Q 	c #4E4C5F",
"R 	c #20253A",
"S 	c #CABFA0",
"T 	c #BAA593",
"U 	c #AA938B",
"V 	c #918385",
"W 	c #6B6578",
"X 	c #766E7F",
"Y 	c #383A4D",
"Z 	c #303347",
"` 	c #49485B",
" .	c #161D32",
"..	c #2D3044",
"+.	c #DEDEAF",
"@.	c #BBA996",
"#.	c #BDA090",
"$.	c #AE998E",
"%.	c #696377",
"&.	c #776E7F",
"*.	c #655F72",
"=.	c #393B4E",
"-.	c #5E5A6C",
";.	c #776F80",
">.	c #2C3044",
",.	c #252A3E",
"'.	c #D5CFA7",
").	c #BAA794",
"!.	c #B99E8F",
"~.	c #A6938C",
"{.	c #6C6579",
"].	c #BDA694",
"^.	c #B29D8F",
"/.	c #BFA593",
"(.	c #AA968C",
"_.	c #6C6678",
":.	c #70687A",
"<.	c #6D6779",
"[.	c #635E70",
"}.	c #333549",
"|.	c #84767F",
"1.	c #B69E90",
"2.	c #A8948B",
"3.	c #7A707D",
"4.	c #6D6678",
"5.	c #6C6577",
"6.	c #7F7587",
"7.	c #595668",
"8.	c #404159",
"9.	c #696479",
"0.	c #988787",
"a.	c #8C7E86",
"b.	c #615D76",
"c.	c #575466",
"d.	c #545163",
"e.	c #625D6F",
"f.	c #666173",
"g.	c #726B7D",
"h.	c #4B4A5D",
"i.	c #313347",
"j.	c #37394C",
"k.	c #746C7D",
"l.	c #6D667A",
"m.	c #70697C",
"n.	c #5C5869",
"o.	c #181E33",
"p.	c #6A6476",
"q.	c #2B2F43",
"r.	c #1A2035",
"s.	c #131A2F",
"t.	c #34364A",
"u.	c #766E81",
"v.	c #4B495D",
"w.	c #272B3F",
"x.	c #282D41",
"y.	c #1D2337",
"z.	c #565366",
"A.	c #6F697B",
"B.	c #2F3246",
"C.	c #252A3F",
"D.	c #22273B",
"E.	c #605C6E",
"F.	c #817788",
"G.	c #1B2236",
"H.	c #282C41",
"I.	c #38394C",
"J.	c #3C3C4F",
"K.	c #212639",
"L.	c #1F2130",
"M.	c #21263A",
"N.	c #4F4D60",
"O.	c #847A8B",
"P.	c #5F5B6D",
"Q.	c #3D3E51",
"R.	c #25293C",
"S.	c #282C3F",
"T.	c #282C3E",
"U.	c #293049",
"V.	c #31364E",
"W.	c #1A1B25",
"X.	c #21263B",
"Y.	c #4A495C",
"Z.	c #7D7486",
"`.	c #2E3146",
" +	c #2A2F43",
".+	c #282C40",
"++	c #323851",
"@+	c #3E4766",
"#+	c #3A4260",
"$+	c #212433",
"%+	c #15161E",
"&+	c #7E7587",
"*+	c #323446",
"=+	c #272E46",
"-+	c #3B4360",
";+	c #373E5A",
">+	c #363E5A",
",+	c #373F5C",
"'+	c #39415E",
")+	c #38405D",
"!+	c #3A4261",
"~+	c #262A3D",
"{+	c #14141C",
"]+	c #545265",
"^+	c #7A7182",
"/+	c #333850",
"(+	c #363E5B",
"_+	c #3A4360",
":+	c #39425F",
"<+	c #373F5B",
"[+	c #3F4869",
"}+	c #292E43",
"|+	c #14151D",
"1+	c #181923",
"2+	c #4A495B",
"3+	c #20263B",
"4+	c #333C59",
"5+	c #3C4462",
"6+	c #39415F",
"7+	c #38405E",
"8+	c #3B4362",
"9+	c #292E42",
"0+	c #24283C",
"a+	c #2A2D40",
"b+	c #353C57",
"c+	c #394260",
"d+	c #373E5B",
"e+	c #38405C",
"f+	c #383F5C",
"g+	c #3B4463",
"h+	c #1A1B26",
"i+	c #313851",
"j+	c #3E4768",
"k+	c #333A54",
"l+	c #2A2E43",
"m+	c #343B56",
"n+	c #3C4564",
"o+	c #121218",
"p+	c #181924",
"q+	c #171821",
"r+	c #30374F",
"s+	c #3E4869",
"t+	c #323952",
"u+	c #343A55",
"v+	c #3C4565",
"w+	c #272B3E",
"x+	c #343B55",
"y+	c #191A25",
"z+	c #313750",
"A+	c #3F496A",
"B+	c #323953",
"C+	c #40496B",
"D+	c #363D59",
"E+	c #191A24",
"F+	c #16161F",
"G+	c #181A24",
"H+	c #3D4667",
"I+	c #323852",
"J+	c #333A53",
"K+	c #3D4666",
"L+	c #161720",
"M+	c #191B26",
"N+	c #2B2F44",
"O+	c #333953",
"P+	c #3E4767",
"Q+	c #353D58",
"R+	c #272A3D",
"S+	c #3D4767",
"T+	c #2E344B",
"U+	c #2F354D",
"V+	c #3B4462",
"W+	c #3E4868",
"X+	c #1A1C27",
"Y+	c #222535",
"Z+	c #3A4361",
"`+	c #1B1D29",
" @	c #30364E",
".@	c #1E212F",
"+@	c #242738",
"@@	c #30364F",
"#@	c #1E202D",
"$@	c #282B3E",
"%@	c #3D4665",
"&@	c #1D1F2B",
"*@	c #0D0C10",
"=@	c #1B1C28",
"-@	c #363E59",
";@	c #2B3046",
">@	c #212434",
",@	c #15151D",
"'@	c #14151C",
")@	c #100F14",
"!@	c #212332",
"~@	c #404A6B",
"{@	c #1C1E2B",
"]@	c #2E334A",
"^@	c #2C3148",
"/@	c #181922",
"(@	c #121219",
"_@	c #282D40",
":@	c #171822",
"<@	c #222636",
"[@	c #414B6D",
"}@	c #2B3146",
"|@	c #14141B",
"1@	c #171721",
"2@	c #2C3147",
"3@	c #2D3349",
"4@	c #3C4463",
"5@	c #202332",
"6@	c #16171F",
"7@	c #353C58",
"8@	c #13131A",
"                                                                                                                                ",
"                                                                                                                                ",
"                                                                                                                                ",
"                                                                                                                                ",
"                                                                                                                                ",
"                                                                                                                                ",
"                                                                                                                                ",
"                                                                                                                                ",
"                                                                                                                                ",
"                                                                                                                                ",
"                                                                                                                                ",
"                                                                                                                                ",
"                                                                                                                                ",
"                                                                                                                                ",
"                                                                                                                                ",
"                                                                                                                                ",
"                                                                                                                                ",
"                                          . + @ @ # $         @                                                                 ",
"                                        % & & * = - $ ;     > , '                                                               ",
"                                      ) ! ~ { { ] ^ / ( _ : < [ } $                                                             ",
"                                          | ( 1 2 3 4 5 6 7 8 6 9       0 $                                                     ",
"                                              a b c d e f g h i & @ j ' k l                                                     ",
"                                                m n o p q r s t s u v w x (                                                     ",
"                                                  y z A B s C D C E F G H (                                                     ",
"                                                  I J K L M M s N O P Q R   ( $                                                 ",
"                                                  S T U V C W X i Y Z ` Q  .7 ..                                                ",
"                                                  +.@.#.$.q %.&.*.=...-.;.& >.,.                                                ",
"                                                  '.).!.~.q {.M N X E N N ~ ! +                                                 ",
"                                                  ].^./.(._.%.:.:.{ <.G [.}.                                                    ",
"                                                  |.1.2.3.r F x 4.5.~ 6.7.+                                                     ",
"                                                8.9.0.a.b.c.d.e.x X H f.g.h.i.                                                  ",
"                                              . j.k.l.m.n.7 o.h.t p.q./ ^ :.Y r.                                                ",
"                                              s.t.g.u.v.w.x.y.z.A.B.C.>.B.Z                                                     ",
"                                            D.' E.C F.h.G.q.H.I.J.K.L.L.                                                        ",
"                                            M.N.O._.P.Q.R.S.T.C.U.V.W.                                                          ",
"                                            X.Y.Z.C | 9 `. +.+++@+#+$+%+                                                        ",
"                                            X.` &+g.*+=+-+;+>+,+'+)+!+~+{+                                                      ",
"                                            9 ]+^+u /+(+_+'+:+'+,+<+[+}+|+1+                                                    ",
"                                            y.Y.2+3+4+5+<+6+)+,+7+6+8+9+%+1+                                                    ",
"                                                0+a+b+c+,+d+e+7+f+>+g+9+{+1+                                                    ",
"                                                  h+i+j+k+l+m+n+m+( )+l+o+1+p+1+                                                ",
"                                                  q+r+s+t+S.u+v+k+w+x+,+.+p+q+y+                                                ",
"                                                  y+z+A+x+S.u+v+x+$ B+C+D+E+F+h+                                                ",
"                                                  G+z+H+I+l+m+n+x+$ J+K+i+G+L+M+                                                ",
"                                                  G+J+k+N+<+)+#+m+$ O+P+t+G+L+M+                                                ",
"                                                  G+Q+z+R+#+6+6+m+$ k+S+B+M+L+y+                                                ",
"                                                  E+T+k+U+)+f+V+Q+w+t+W+i+F+%+X+                                                ",
"                                                  1+Y+k+Z+)+)+6+k+l+k+K+J+`+q+E+                                                ",
"                                                  q+Y+O+c+)+V+ @l+<+'+f+6+d+.@o+                                                ",
"                                                  +@U+f+7+f+@@T+x+:+6+d+Z+v+$+o+                                                ",
"                                                #@l+<+!+'+#+$@T+%@,+f+f+#+'+&@*@                                                ",
"                                              %+=@N+-@6+7+>+;@ @c+)+)+,+c+6+>@,@                                                ",
"                                              o+.@,+e+Z+Q+$ k+:+e+)+)+)+)+e+!+w.'@                                              ",
"                                              )@!@[+~@++N+++7+c+e+)+)+)+)+,+~@9+{+                                              ",
"                                              {+{@]@T+^@++Z+'+,+)+)+)+)+)+e+n+.+'@                                              ",
"                                              E+/@F+(@w+V+)+)+)+)+)+)+)+)+f+K+_@'@                                              ",
"                                                  :@1+F+<@8+c+>+,+,+)+)+)+e+v+S.|+                                              ",
"                                                    y+F+L++@)+j+g+n+)+d+<+>+[@}@|@                                              ",
"                                                      h+1@'@S.z+2@3@)+v+4@g+t+5@L+                                              ",
"                                                        p+y+L+6@{+%+T+e+7@D+#@8@h+                                              ",
"                                                            :@:@:@:@h+=@X+=@                                                    ",
"                                                                                                                                ",
"                                                                                                                                ",
"                                                                                                                                "};
