/* XPM */
static char *result[] = {
/* columns rows colors chars-per-pixel */
"32 48 7 1 ",
"  c #181923",
". c #292D41",
"X c #38405D",
"o c #6F687A",
"O c #B59E90",
"+ c #D8D4AA",
"@ c None",
/* pixels */
"@@@@@@@@@@@@@@@@@@@@@@@@@@@@@@@@",
"@@@@@@@@@@@@@@@@@@@@@@@@@@@@@@@@",
"@@@@@@@@@@@@@@@@@@@@@@@@@@@@@@@@",
"@@@@@@@@@@@@@@@@@@@@@@@@@@@@@@@@",
"@@@@@@@@@@@@@@@@@@@@@@@@@@@@@@@@",
"@@@@@@@@@@@@@@@@@@@@@@@@@@@@@@@@",
"@@@@@@@@@@@@@@@@@@@@@@@@@@@@@@@@",
"@@@@@@@@@@@@@@@@@@@@@@@@@@@@@@@@",
"@@@@@@@@@@@@@@@@@@@@@@@@@@@@@@@@",
"@@@@@@@@@@@@@@@@@@@@@@@@@@@@@@@@",
"@@@@@@@@@@@@@@@@@@@@@@@@@@@@@@@@",
"@@@@@@@@@@@@@@@@@@@@@@@@@@@@@@@@",
"@@@@@@@@.....@@..@@@@@@@@@@@@@@@",
"@@@@@@@.oooo...oo.@@@@@@@@@@@@@@",
"@@@@@@@@..oooo.o.@@..@@@@@@@@@@@",
"@@@@@@@@@@.oooooo..o.@@@@@@@@@@@",
"@@@@@@@@@@@OOooooooo.@@@@@@@@@@@",
"@@@@@@@@@@@OOoooooo.@.@@@@@@@@@@",
"@@@@@@@@@@@+OOooo..o..@@@@@@@@@@",
"@@@@@@@@@@@+OOooooooo.@@@@@@@@@@",
"@@@@@@@@@@@OOOoooooo.@@@@@@@@@@@",
"@@@@@@@@@@@oOooooooo.@@@@@@@@@@@",
"@@@@@@@@@@.ooo..oo.oo.@@@@@@@@@@",
"@@@@@@@@@@.oo...o....@@@@@@@@@@@",
"@@@@@@@@@.ooo.....@@@@@@@@@@@@@@",
"@@@@@@@@@.oo...... @@@@@@@@@@@@@",
"@@@@@@@@@.oo....XX @@@@@@@@@@@@@",
"@@@@@@@@@.o..XXXXXX @@@@@@@@@@@@",
"@@@@@@@@@@..XXXXXXX @@@@@@@@@@@@",
"@@@@@@@@@@@ XXXXXX  @@@@@@@@@@@@",
"@@@@@@@@@@@ XXXXXXX @@@@@@@@@@@@",
"@@@@@@@@@@@ XX.XXXXX @@@@@@@@@@@",
"@@@@@@@@@@@ XXX.XXXX @@@@@@@@@@@",
"@@@@@@@@@@  XXXX.XXXX @@@@@@@@@@",
"@@@@@@@@@   XXXXX.XXX @@@@@@@@@@",
"@@@@@@@@@    XXX.XXXX @@@@@@@@@@",
"@@@@@@@@@@   XX.XXXXX. @@@@@@@@@",
"@@@@@@@@@@@  XX.XXXX.XX @@@@@@@@",
"@@@@@@@@@@@  XX.XXX.XXX @@@@@@@@",
"@@@@@@@@@@   XXX...XXXX @@@@@@@@",
"@@@@@@@@@@    XXXXXXXXXX @@@@@@@",
"@@@@@@@@@@    XXXXXXXXXX @@@@@@@",
"@@@@@@@@@      XXXXXXXX @@@@@@@@",
"@@@@@@@@@   @   XXXXXX  @@@@@@@@",
"@@@@@@@@@@@@@     XXX  @@@@@@@@@",
"@@@@@@@@@@@@@@@      @@@@@@@@@@@",
"@@@@@@@@@@@@@@@@@@@@@@@@@@@@@@@@",
"@@@@@@@@@@@@@@@@@@@@@@@@@@@@@@@@"
};
