/* XPM */
static char * 16_xpm[] = {
"64 64 308 2",
"  	c None",
". 	c #22273B",
"+ 	c #21273B",
"@ 	c #23283C",
"# 	c #24283D",
"$ 	c #2A2D41",
"% 	c #21263A",
"& 	c #393A4E",
"* 	c #5F5A6D",
"= 	c #5F5B6D",
"- 	c #545164",
"; 	c #535063",
"> 	c #2A2E42",
", 	c #181F33",
"' 	c #1D2337",
") 	c #2C3044",
"! 	c #4C4B5E",
"~ 	c #292D41",
"{ 	c #393B4E",
"] 	c #5E5A6C",
"^ 	c #5B5769",
"/ 	c #6F687A",
"( 	c #887D8E",
"_ 	c #797182",
": 	c #4C4A5D",
"< 	c #404154",
"[ 	c #35374B",
"} 	c #686274",
"| 	c #7A7183",
"1 	c #4B4A5D",
"2 	c #21263B",
"3 	c #1B2135",
"4 	c #4A495C",
"5 	c #6E6779",
"6 	c #6B6578",
"7 	c #6F687B",
"8 	c #7E7587",
"9 	c #625D70",
"0 	c #2D3145",
"a 	c #676174",
"b 	c #4F4D60",
"c 	c #1C2236",
"d 	c #2E3145",
"e 	c #3B3C50",
"f 	c #6D667B",
"g 	c #6E677C",
"h 	c #6E677A",
"i 	c #696375",
"j 	c #6C6678",
"k 	c #736B7D",
"l 	c #24293D",
"m 	c #141B30",
"n 	c #4E4C5F",
"o 	c #605B6D",
"p 	c #534F59",
"q 	c #A08F8A",
"r 	c #A3908B",
"s 	c #83777F",
"t 	c #6D667A",
"u 	c #766E7F",
"v 	c #766E80",
"w 	c #514F62",
"x 	c #48475A",
"y 	c #736C7E",
"z 	c #71697B",
"A 	c #BA9F90",
"B 	c #C4A994",
"C 	c #908285",
"D 	c #605C75",
"E 	c #70697A",
"F 	c #6C6578",
"G 	c #70697B",
"H 	c #817788",
"I 	c #887D8F",
"J 	c #6A6476",
"K 	c #454558",
"L 	c #2C2F43",
"M 	c #B6A192",
"N 	c #BAA292",
"O 	c #928385",
"P 	c #6D6679",
"Q 	c #70687A",
"R 	c #6D6678",
"S 	c #656072",
"T 	c #464659",
"U 	c #D4CDA7",
"V 	c #BAA794",
"W 	c #B59B8E",
"X 	c #A1908A",
"Y 	c #696477",
"Z 	c #787081",
"` 	c #625D6F",
" .	c #1C2237",
"..	c #504E60",
"+.	c #635E70",
"@.	c #DDDDAE",
"#.	c #BBA996",
"$.	c #BB9E8F",
"%.	c #AA978D",
"&.	c #6A6478",
"*.	c #746C7D",
"=.	c #776F81",
"-.	c #5D596B",
";.	c #323549",
">.	c #202539",
",.	c #D1C4A2",
"'.	c #B8A493",
").	c #BCA191",
"!.	c #AA968D",
"~.	c #6F6879",
"{.	c #716A7C",
"].	c #7A7283",
"^.	c #736C7D",
"/.	c #6C6577",
"(.	c #645E71",
"_.	c #AD968C",
":.	c #B39C8F",
"<.	c #BBA392",
"[.	c #A08E8A",
"}.	c #6D677A",
"|.	c #716A7B",
"1.	c #6E687A",
"2.	c #756C7B",
"3.	c #B29C8F",
"4.	c #9D8B88",
"5.	c #696378",
"6.	c #756D7E",
"7.	c #756D7F",
"8.	c #726A7C",
"9.	c #7C7385",
"0.	c #5C586B",
"a.	c #3C3E53",
"b.	c #6B667A",
"c.	c #847981",
"d.	c #847985",
"e.	c #645F75",
"f.	c #414154",
"g.	c #3A3C4F",
"h.	c #565366",
"i.	c #776F80",
"j.	c #797082",
"k.	c #47475A",
"l.	c #575467",
"m.	c #7F7687",
"n.	c #645F71",
"o.	c #36384B",
"p.	c #131B30",
"q.	c #343649",
"r.	c #6B667B",
"s.	c #625E72",
"t.	c #4C4A5C",
"u.	c #20263A",
"v.	c #7C7384",
"w.	c #585467",
"x.	c #25293D",
"y.	c #323448",
"z.	c #5D596C",
"A.	c #37394D",
"B.	c #3D3E51",
"C.	c #7D7485",
"D.	c #474659",
"E.	c #524F62",
"F.	c #262A3F",
"G.	c #2B2F43",
"H.	c #7B7284",
"I.	c #1F2539",
"J.	c #282C40",
"K.	c #83788A",
"L.	c #6B6577",
"M.	c #313447",
"N.	c #24293C",
"O.	c #22273A",
"P.	c #282C3F",
"Q.	c #1D1F2B",
"R.	c #49485B",
"S.	c #7E7486",
"T.	c #2F3246",
"U.	c #2B2E41",
"V.	c #282B3F",
"W.	c #272A3D",
"X.	c #2C3045",
"Y.	c #323850",
"Z.	c #2F344C",
"`.	c #1A1C27",
" +	c #121118",
".+	c #7E7586",
"++	c #676173",
"@+	c #35374A",
"#+	c #2A2F43",
"$+	c #292D40",
"%+	c #313750",
"&+	c #3C4565",
"*+	c #3A4260",
"=+	c #212433",
"-+	c #14141C",
";+	c #1F2439",
">+	c #555265",
",+	c #2B2F42",
"'+	c #24283A",
")+	c #30364E",
"!+	c #39415E",
"~+	c #373E5A",
"{+	c #373F5C",
"]+	c #38405D",
"^+	c #39425F",
"/+	c #262A3C",
"(+	c #3E3E52",
"_+	c #242A3F",
":+	c #2E354E",
"<+	c #38405C",
"[+	c #394260",
"}+	c #373F5B",
"|+	c #444F73",
"1+	c #2B3045",
"2+	c #13131A",
"3+	c #1D2234",
"4+	c #262839",
"5+	c #373E59",
"6+	c #3B4463",
"7+	c #2F354D",
"8+	c #1F2230",
"9+	c #171821",
"0+	c #171822",
"a+	c #3C4564",
"b+	c #38405E",
"c+	c #38415E",
"d+	c #202231",
"e+	c #15151D",
"f+	c #181924",
"g+	c #181923",
"h+	c #313851",
"i+	c #383F5C",
"j+	c #3A4361",
"k+	c #242839",
"l+	c #191A24",
"m+	c #3E4768",
"n+	c #343A55",
"o+	c #2C3147",
"p+	c #3B4362",
"q+	c #373E5B",
"r+	c #363E5A",
"s+	c #282D41",
"t+	c #1A1B26",
"u+	c #181A24",
"v+	c #3E4767",
"w+	c #343B56",
"x+	c #2F354C",
"y+	c #3A4261",
"z+	c #353D58",
"A+	c #3F486A",
"B+	c #333A55",
"C+	c #16171F",
"D+	c #3C4463",
"E+	c #2E334A",
"F+	c #1B1D29",
"G+	c #161720",
"H+	c #323852",
"I+	c #3B4462",
"J+	c #39415F",
"K+	c #2E3349",
"L+	c #2B2F44",
"M+	c #1F212F",
"N+	c #111117",
"O+	c #191A25",
"P+	c #16161F",
"Q+	c #353C58",
"R+	c #121218",
"S+	c #171720",
"T+	c #282D40",
"U+	c #353C57",
"V+	c #1E202E",
"W+	c #131219",
"X+	c #202332",
"Y+	c #121219",
"Z+	c #3D4665",
"`+	c #2C3046",
" @	c #2F344B",
".@	c #1C1E2A",
"+@	c #15161E",
"@@	c #292E42",
"#@	c #333953",
"$@	c #292D42",
"%@	c #424C6F",
"&@	c #191B25",
"*@	c #3D4666",
"=@	c #2B3046",
"-@	c #2E344B",
";@	c #14151C",
">@	c #2A2F44",
",@	c #323851",
"'@	c #171721",
")@	c #1C1D2A",
"!@	c #31374F",
"~@	c #2D3349",
"{@	c #1E202D",
"]@	c #1C1E2B",
"^@	c #414B6E",
"/@	c #212333",
"(@	c #363D59",
"_@	c #121117",
":@	c #1B1C28",
"<@	c #363E59",
"[@	c #3E4869",
"}@	c #2D3249",
"|@	c #323952",
"1@	c #1F2130",
"2@	c #14141B",
"3@	c #13131B",
"                                                                                                                                ",
"                                                                                                                                ",
"                                                                                                                                ",
"                                                                                                                                ",
"                                                                                                                                ",
"                                                                                                                                ",
"                                                                                                                                ",
"                                                                                                                                ",
"                                                                                                                                ",
"                                                                                                                                ",
"                                                                                                                                ",
"                                                                                                                                ",
"                                                                                                                                ",
"                                                                                                                                ",
"                                                                                                                                ",
"                                                                                                                                ",
"                                          . + @ @ # $       # @ %                                                               ",
"                                        & * = - - ; > , ' ) ! * - ~                                                             ",
"                                        { ] ^ / ( _ : < [ @ } | 1 >                                                             ",
"                                          2 3 4 5 6 7 8 9 0 a b c     d d ~                                                     ",
"                                              . e f g h / i j k ^ l m n o >                                                     ",
"                                                p q r s t u / v / w x y z >                                                     ",
"                                                  A B C D 5 E F G H I J K L                                                     ",
"                                                  M N O P Q / G R S 5 T +   ~ ~                                                 ",
"                                                  U V W X h Y Z ` >  ...+.. @ 0                                                 ",
"                                                  @.#.$.%.h &.*.i w 4 S =.-.;.>.                                                ",
"                                                  ,.'.).!.P &.~.{._ ].^./.(.&                                                   ",
"                                                  _.:.<.[.G }.|.1.P /._ ] .                                                     ",
"                                                  2.3.4.5.6.7.8.5 R z 9.0..                                                     ",
"                                                a.b.c.d.e.f.g.h.i.j.k.l.m.n.o.                                                  ",
"                                              p.q.6.r.s.t.u.m n v.w.x.y.z.0.A.                                                  ",
"                                              . B.8.C.D.' L @ E.` @ F.G.. .                                                     ",
"                                            2 4 k h H.: I.> ~ 0 d J.                                                            ",
"                                            % n K.L.4 M.~ > G.N.O.P.Q.                                                          ",
"                                            + R.S.^.T.3 U.V.W.X.Y.Z.`. +                                                        ",
"                                            % ! .+++@+l X.#+$+%+&+*+=+-+                                                        ",
"                                            ;+>+z ,+'+)+!+~+~+{+!+]+^+/+-+                                                      ",
"                                              (+{ _+:+<+*+^+[+!+}+{+|+1+2+                                                      ",
"                                                3+4+5+6+~+{+{+{+!+]+7+8+9+                                                      ",
"                                                  0+%+a+}+b+]+{+*+c+d+e+f+                                                      ",
"                                                  g+h+a+{+[+]+i+]+]+j+k+ +                                                      ",
"                                                  l+%+m+n+o+{+p+q+]+a+r+s+t+                                                    ",
"                                                  u+%+v+w+o+x+r+y+]+z+A+B+C+                                                    ",
"                                                  u+h+D+b+*+1+E+!+]+{+6+h+F+                                                    ",
"                                                G+u+H+I+{+]+J+K+L+*+^+}+J+~+M+N+                                                ",
"                                              O+P+l+r+v+r+]+J+<+%+o+Q+c+y+&+d+R+                                                ",
"                                            g+u+S+f+T+Q+c+]+J+{+%+o+U+J+J+]+V+                                                  ",
"                                            g+g+f+g+W+P.a+<+J+E+L+*+[+q+*+*+X+Y+                                                ",
"                                              g+g+g+-+T+Z+]+`+ @!+]+]+}+!+*+E+.@-+                                              ",
"                                                f+g++@@@Z+]+~ x+6+{+~+p+<+o+H+#@J.O+                                            ",
"                                                  g+e+~ &+]+$@Z.6+^+j+~+7+o+w+%@z+&@                                            ",
"                                                  g+e+@@*@]+=@Z.]+r+b+-@L+^+b+p+h+f+                                            ",
"                                              g+g+g+;@>@v+i+]+)+V.$@V.7+]+b+}+&+,@'@                                            ",
"                                              g+g+g+0+)@~ {+p+Q+!@,@!@z+j+]+{+J+~+~@{@                                          ",
"                                                g+g+t+N+]@6+*+{+p+j+p+J+{+]+b+r+p+^@/@N+                                        ",
"                                              g+g+g+l++@8+(@*+]+{+<+i+]+]+]+]+]+J+r+8+_@                                        ",
"                                            g+g+g+g+g+u+'@:@U+&+(@{+]+]+]+]+<@&+Q+.@                                            ",
"                                            g+g+g+g+  O+9++@{@%+[@a+]+q+}+~+v+Q+V+P+                                            ",
"                                            g+g+g+g+    l+O+Y+X+7+}@]+&+6+6+|@1@2+O+                                            ",
"                                                      g+g+g+O+g+2@+@-@<+Q+(@{@3@:@                                              ",
"                                                            g+g+9+0+t+:@`.:@                                                    ",
"                                                                                                                                ",
"                                                                                                                                ",
"                                                                                                                                "};
