/* XPM */
static char * 17_xpm[] = {
"64 64 319 2",
"  	c None",
". 	c #303347",
"+ 	c #2F3246",
"@ 	c #2E3245",
"# 	c #292D41",
"$ 	c #252A3E",
"% 	c #2E3145",
"& 	c #1B2135",
"* 	c #3A3B4F",
"= 	c #736B7D",
"- 	c #726B7D",
"; 	c #676173",
"> 	c #6A6476",
", 	c #1D2337",
"' 	c #23283C",
") 	c #2B2F43",
"! 	c #5A5669",
"~ 	c #7A7283",
"{ 	c #5D596C",
"] 	c #36384C",
"^ 	c #454458",
"/ 	c #404053",
"( 	c #645F72",
"_ 	c #897E8F",
": 	c #766E7F",
"< 	c #5D596A",
"[ 	c #5B5769",
"} 	c #434357",
"| 	c #20263A",
"1 	c #686274",
"2 	c #645F71",
"3 	c #34364A",
"4 	c #1F2439",
"5 	c #191F34",
"6 	c #11182D",
"7 	c #3D3E51",
"8 	c #595669",
"9 	c #676277",
"0 	c #6E687D",
"a 	c #7E7587",
"b 	c #6B6577",
"c 	c #414154",
"d 	c #696375",
"e 	c #565365",
"f 	c #2C3044",
"g 	c #38394D",
"h 	c #3B3C50",
"i 	c #37384B",
"j 	c #786F7E",
"k 	c #6D6677",
"l 	c #6F687A",
"m 	c #746C7E",
"n 	c #6D6679",
"o 	c #7B7283",
"p 	c #21263A",
"q 	c #6E687A",
"r 	c #2A2E42",
"s 	c #B19B8F",
"t 	c #B69F91",
"u 	c #8D7F83",
"v 	c #6A6479",
"w 	c #716A7B",
"x 	c #71697B",
"y 	c #666173",
"z 	c #615C6F",
"A 	c #797182",
"B 	c #676174",
"C 	c #B69C8E",
"D 	c #C2A794",
"E 	c #8D8084",
"F 	c #5F5B75",
"G 	c #70697B",
"H 	c #6C6678",
"I 	c #716A7C",
"J 	c #807688",
"K 	c #8C8192",
"L 	c #5A5769",
"M 	c #BFAE98",
"N 	c #B9A392",
"O 	c #9D8A88",
"P 	c #7D737F",
"Q 	c #4E4D5F",
"R 	c #4F4D60",
"S 	c #262A3E",
"T 	c #DBD8AC",
"U 	c #BAA895",
"V 	c #BB9F90",
"W 	c #AB978D",
"X 	c #6E677A",
"Y 	c #696377",
"Z 	c #787081",
"` 	c #625D6F",
" .	c #1B2136",
"..	c #575467",
"+.	c #313447",
"@.	c #262B3F",
"#.	c #2B2E42",
"$.	c #D9D7AB",
"%.	c #BBA995",
"&.	c #B89D8F",
"*.	c #A6948C",
"=.	c #6B6579",
"-.	c #6E6779",
";.	c #746D7E",
">.	c #37394D",
",.	c #1C2236",
"'.	c #C9B69B",
").	c #B49F91",
"!.	c #BEA492",
"~.	c #AD988D",
"{.	c #6C6578",
"].	c #6F6879",
"^.	c #766E80",
"/.	c #756D7F",
"(.	c #4B495D",
"_.	c #333549",
":.	c #998585",
"<.	c #B59D90",
"[.	c #B49D8F",
"}.	c #8F8084",
"|.	c #746C7F",
"1.	c #736C7D",
"2.	c #6D6779",
"3.	c #7D7486",
"4.	c #5B576A",
"5.	c #6C667A",
"6.	c #A8948C",
"7.	c #948486",
"8.	c #615D76",
"9.	c #6A6475",
"0.	c #6C6577",
"a.	c #655F72",
"b.	c #3A3C50",
"c.	c #70697C",
"d.	c #756C7C",
"e.	c #7B7282",
"f.	c #635E72",
"g.	c #25293E",
"h.	c #4D4C5F",
"i.	c #36384B",
"j.	c #474659",
"k.	c #82788A",
"l.	c #0F172C",
"m.	c #323448",
"n.	c #746C7D",
"o.	c #70697D",
"p.	c #545266",
"q.	c #38394C",
"r.	c #171D32",
"s.	c #535164",
"t.	c #776F81",
"u.	c #414155",
"v.	c #252A40",
"w.	c #2F3348",
"x.	c #434356",
"y.	c #444457",
"z.	c #35374B",
"A.	c #34374A",
"B.	c #4D4B5E",
"C.	c #817788",
"D.	c #48475A",
"E.	c #192034",
"F.	c #514F62",
"G.	c #212435",
"H.	c #242737",
"I.	c #1A2136",
"J.	c #4E4C5F",
"K.	c #7F7687",
"L.	c #24283D",
"M.	c #2A2D41",
"N.	c #1B1D28",
"O.	c #4C4A5D",
"P.	c #7F7587",
"Q.	c #282C41",
"R.	c #282D41",
"S.	c #292E42",
"T.	c #21273B",
"U.	c #48485B",
"V.	c #313448",
"W.	c #1D2338",
"X.	c #2D3045",
"Y.	c #292D42",
"Z.	c #292C40",
"`.	c #282C3F",
" +	c #272B3E",
".+	c #1E202E",
"++	c #20253A",
"@+	c #504E61",
"#+	c #7E7486",
"$+	c #545164",
"%+	c #252A3D",
"&+	c #292C3F",
"*+	c #282B3F",
"=+	c #272A3D",
"-+	c #2A2F44",
";+	c #31364F",
">+	c #2F344C",
",+	c #1A1B26",
"'+	c #101015",
")+	c #1E2438",
"!+	c #525062",
"~+	c #5F5B6D",
"{+	c #24293D",
"]+	c #2A2F43",
"^+	c #292D40",
"/+	c #313750",
"(+	c #3C4565",
"_+	c #3A4260",
":+	c #212434",
"<+	c #15151D",
"[+	c #2D3145",
"}+	c #262A3C",
"|+	c #30354D",
"1+	c #38415E",
"2+	c #373E5A",
"3+	c #373F5C",
"4+	c #38405D",
"5+	c #3B4463",
"6+	c #272C3F",
"7+	c #14151C",
"8+	c #191D2D",
"9+	c #1F212F",
"0+	c #2E344B",
"a+	c #39415F",
"b+	c #39425F",
"c+	c #39415E",
"d+	c #38405C",
"e+	c #353C58",
"f+	c #212332",
"g+	c #14141C",
"h+	c #161720",
"i+	c #323953",
"j+	c #3D4666",
"k+	c #373F5B",
"l+	c #30364E",
"m+	c #232637",
"n+	c #1A1C27",
"o+	c #191A25",
"p+	c #3C4564",
"q+	c #363E5A",
"r+	c #3A4361",
"s+	c #363D58",
"t+	c #1B1C28",
"u+	c #181A24",
"v+	c #3E4868",
"w+	c #333953",
"x+	c #353D58",
"y+	c #383F5C",
"z+	c #363E59",
"A+	c #1D1F2C",
"B+	c #363D59",
"C+	c #313851",
"D+	c #2D3349",
"E+	c #2F354D",
"F+	c #3A4362",
"G+	c #3C4464",
"H+	c #222636",
"I+	c #191A24",
"J+	c #323952",
"K+	c #38405E",
"L+	c #394260",
"M+	c #373E5B",
"N+	c #424C6F",
"O+	c #1B1D29",
"P+	c #181923",
"Q+	c #181924",
"R+	c #3C4463",
"S+	c #282C40",
"T+	c #3B4462",
"U+	c #181922",
"V+	c #30374F",
"W+	c #2C3046",
"X+	c #4D5A83",
"Y+	c #171822",
"Z+	c #343B56",
"`+	c #3E4869",
" @	c #2C3147",
".@	c #414B6D",
"+@	c #2A2E43",
"@@	c #24283A",
"#@	c #2E334A",
"$@	c #242738",
"%@	c #16161F",
"&@	c #15161E",
"*@	c #171721",
"=@	c #121218",
"-@	c #343B55",
";@	c #282B3E",
">@	c #343C56",
",@	c #0D0B0E",
"'@	c #0C0B0E",
")@	c #272B3D",
"!@	c #262A3D",
"~@	c #353C57",
"{@	c #2E334B",
"]@	c #333A54",
"^@	c #2B3046",
"/@	c #3E4768",
"(@	c #111116",
"_@	c #2D3249",
":@	c #26293B",
"<@	c #2C3148",
"[@	c #3A4261",
"}@	c #30364F",
"|@	c #3E4767",
"1@	c #313850",
"2@	c #2F354C",
"3@	c #3B4362",
"4@	c #3D4665",
"5@	c #343C57",
"6@	c #121118",
"7@	c #404A6C",
"8@	c #1F2230",
"9@	c #13131A",
"0@	c #171821",
"a@	c #121219",
"b@	c #25293B",
"c@	c #1E202D",
"d@	c #13131B",
"                                                                                                                                ",
"                                                                                                                                ",
"                                                                                                                                ",
"                                                                                                                                ",
"                                                                                                                                ",
"                                                                                                                                ",
"                                                                                                                                ",
"                                                                                                                                ",
"                                                                                                                                ",
"                                                                                                                                ",
"                                                                                                                                ",
"                                                                                                                                ",
"                                                                                                                                ",
"                                                                                                                                ",
"                                                                                                                                ",
"                                          . . + + @ # $     % + .                                                               ",
"                                      & * = - ; > ; . , ' ) ! ~ { #                                                             ",
"                                        ] ^ / ( _ : < [ } | 1 2 3       4 #                                                     ",
"                                          5 6 7 8 9 0 a b c d e f     g h #                                                     ",
"                                                i j j k l m n o 1 + p ! q r                                                     ",
"                                                  s t u v w l x l y z A B r                                                     ",
"                                                  C D E F l G H I J K L +   #                                                   ",
"                                                  M N O P l n = d Q R ^ 3   S )                                                 ",
"                                                  T U V W X Y Z ` r  ...x +.@.#.                                                ",
"                                                  $.%.&.*.X =.w -.1 y b ;.G >.,.                                                ",
"                                                  '.).!.~.{.Y ].x ^.m /.B (._.                                                  ",
"                                                  :.<.[.}./.|.1.2.{.l 3.4.5                                                     ",
"                                                  5.6.7.8.9.d 0.G x 1 m a._.                                                    ",
"                                              ,.b.c.d.e.f.% g.h.A /.i.j.k.1.g &                                                 ",
"                                              l.m.n.o.p.q.' r.s.t.u.v.w.x.y.z.                                                  ",
"                                              A.B.x C.D.E.f S j.F.| G.H.I.E.                                                    ",
"                                            p J.K.-.G D.L.M.r $ @.) N.                                                          ",
"                                            p O.P.b * $ r # # Q.R.S.                                                            ",
"                                            T.U.a : V.W.X.Y.r Z.`. +.+                                                          ",
"                                            ++@+#+$+V.%+&+*+=+-+;+>+,+'+                                                        ",
"                                            )+!+~+T.{+) -+]+^+/+(+_+:+<+                                                        ",
"                                              + [+Y.}+|+1+2+2+3+1+4+5+6+7+                                                      ",
"                                                8+9+0+a+b+c+b+1+4+d+e+f+g+                                                      ",
"                                                  h+i+j+2+a+4+k+c+4+l+m+n+                                                      ",
"                                                  o+/+p+2+q+4+c+4+4+r+s+}+t+                                                    ",
"                                                  u+/+v+w+# x+p+c+y+4+y+4+z+A+                                                  ",
"                                                  u+/+j+B+C+D+]+E+r+c+k+F+G+/+H+<+                                              ",
"                                                  I+J+5+K+r+E+-+D+C+4+L+M+q+N+]+g+                                              ",
"                                            n+O+P+Q+i+R+k+d+c+p+x+# w+b+d+d+p+S+7+                                              ",
"                                          o+>+T+-+U+V+R+k+4+4+K+c+q+W+|+_+d+p+S+7+                                              ",
"                                          o+q+X+J+Y+Z+`+q+4+4+k+_+p+#  @r+3+.@+@g+                                              ",
"                                          o+S+0+@@P+`.B+c+4+4+c+k+w+#@w+_+4+J+$@<+                                              ",
"                                            %@&@*@P+=@6+p+d+3+r+-@;@>@r+a+_+A+,@                                                ",
"                                                  P+=@6+p+d+3+r+Z+# -@a+b+5+A+'@                                                ",
"                                                  Q+S+B+c+4+3+r+-@)@>@`+k+ @0+!@%@                                              ",
"                                                  I+~@`+q+4+d+a+B+{@l+]@|+^@/@S.(@                                              ",
"                                                  u+/+G+k+4+4+y+a+b+_@:@<@a+j+S.Y+                                              ",
"                                                  u+C+(+k+4+4+4+4+K+k+B+k+4+d+[@}@o+                                            ",
"                                                  u+V+G+k+4+4+4+4+4+a+_+a+4+q+/@Z+o+                                            ",
"                                                  u+-@|@2+4+4+4+4+4+d+3+d+4+3+5+1@o+                                            ",
"                                                  u+2@3@3+4+4+4+4+4+4+4+4+4+k+(+]@o+                                            ",
"                                                  P+Y+-+r+k+k+d+4+4+4+4+4+4+z+4@5@o+                                            ",
"                                                I+P+6@+@7@5+(+L+2+k+k+3+M+2+/@~@9+P+                                            ",
"                                              P+P+P+*@$@l+D+ @Z+j+5+5+3@p+5+J+8@9@U+                                            ",
"                                                P+P+P+0@%@%@a@b@4+~@~@Z+z+B+c@d@t+                                              ",
"                                                  P+P+U+Y+Y+0@o+t+n+n+n+t+t+                                                    ",
"                                                                                                                                ",
"                                                                                                                                ",
"                                                                                                                                "};
