/* XPM */
static char * 19_xpm[] = {
"64 64 389 2",
"  	c None",
". 	c #1C2237",
"+ 	c #1B2236",
"@ 	c #191F34",
"# 	c #3C3D50",
"$ 	c #3F4053",
"% 	c #404154",
"& 	c #454458",
"* 	c #383A4D",
"= 	c #37394C",
"- 	c #3F3F53",
"; 	c #34364A",
"> 	c #2F3246",
", 	c #666073",
"' 	c #7F7687",
") 	c #766E80",
"! 	c #6E687A",
"~ 	c #37384C",
"{ 	c #181E33",
"] 	c #787082",
"^ 	c #3B3C50",
"/ 	c #171E32",
"( 	c #1B2135",
"_ 	c #38394D",
": 	c #6A6476",
"< 	c #70697B",
"[ 	c #787081",
"} 	c #615C6F",
"| 	c #2A2E42",
"1 	c #24293D",
"2 	c #1B2136",
"3 	c #726B7D",
"4 	c #3B3C4F",
"5 	c #1E2338",
"6 	c #3A3B4F",
"7 	c #776F81",
"8 	c #726A7C",
"9 	c #71697B",
"0 	c #696374",
"a 	c #514F61",
"b 	c #575465",
"c 	c #615C6E",
"d 	c #6F687A",
"e 	c #1C2236",
"f 	c #192034",
"g 	c #12192E",
"h 	c #776F80",
"i 	c #756D7E",
"j 	c #696376",
"k 	c #6B657A",
"l 	c #746C81",
"m 	c #726B80",
"n 	c #6F697E",
"o 	c #756E81",
"p 	c #716A7B",
"q 	c #313447",
"r 	c #272B3F",
"s 	c #444457",
"t 	c #35374B",
"u 	c #303347",
"v 	c #313448",
"w 	c #292D41",
"x 	c #3D3D51",
"y 	c #696375",
"z 	c #756D7C",
"A 	c #736B7A",
"B 	c #726A79",
"C 	c #766D7D",
"D 	c #6F687B",
"E 	c #34374B",
"F 	c #49485B",
"G 	c #84798B",
"H 	c #736C7D",
"I 	c #1A2035",
"J 	c #736B7D",
"K 	c #545163",
"L 	c #55536A",
"M 	c #97888B",
"N 	c #B69F8F",
"O 	c #AE998E",
"P 	c #AC978D",
"Q 	c #B7A091",
"R 	c #A2908B",
"S 	c #6A6479",
"T 	c #615D72",
"U 	c #7A7182",
"V 	c #333649",
"W 	c #36384C",
"X 	c #6A6475",
"Y 	c #756D80",
"Z 	c #504E60",
"` 	c #8B7D7F",
" .	c #B39B90",
"..	c #B89E8F",
"+.	c #BBA392",
"@.	c #BBA091",
"#.	c #B3998D",
"$.	c #9D8B88",
"%.	c #837886",
"&.	c #575469",
"*.	c #2A2E41",
"=.	c #181F33",
"-.	c #1F2539",
";.	c #2D3144",
">.	c #282C40",
",.	c #121A2E",
"'.	c #3E3F51",
").	c #5F5B6F",
"!.	c #7B7283",
"~.	c #B29B90",
"{.	c #C5B097",
"].	c #BAAA96",
"^.	c #B39C8F",
"/.	c #B1998E",
"(.	c #B8A694",
"_.	c #C3B199",
":.	c #BDA492",
"<.	c #847882",
"[.	c #4D4C63",
"}.	c #414153",
"|.	c #4B495C",
"1.	c #252A3E",
"2.	c #2B2E42",
"3.	c #161D30",
"4.	c #2F3248",
"5.	c #A7908B",
"6.	c #D4C9A4",
"7.	c #D5D1A9",
"8.	c #B49D8F",
"9.	c #AD928A",
"0.	c #CCC2A2",
"a.	c #DBD7AB",
"b.	c #B69E90",
"c.	c #7C707D",
"d.	c #666277",
"e.	c #746C7D",
"f.	c #716A7C",
"g.	c #3A3B4E",
"h.	c #2E3248",
"i.	c #AC948D",
"j.	c #D6CAA4",
"k.	c #D2CFA8",
"l.	c #AC918A",
"m.	c #C9C0A1",
"n.	c #DBD6AB",
"o.	c #BAA291",
"p.	c #867884",
"q.	c #46475D",
"r.	c #262B3E",
"s.	c #0F172C",
"t.	c #635E71",
"u.	c #7F7380",
"v.	c #AC9D90",
"w.	c #CEB99C",
"x.	c #BFA593",
"y.	c #BBA191",
"z.	c #CDB69B",
"A.	c #C0AF98",
"B.	c #877B81",
"C.	c #6C6578",
"D.	c #4A495C",
"E.	c #24283D",
"F.	c #676174",
"G.	c #7D7385",
"H.	c #565365",
"I.	c #5C5971",
"J.	c #837681",
"K.	c #9D8987",
"L.	c #958686",
"M.	c #998686",
"N.	c #887880",
"O.	c #666177",
"P.	c #6A6578",
"Q.	c #6F6779",
"R.	c #585568",
"S.	c #2D3145",
"T.	c #2B2F43",
"U.	c #7C7385",
"V.	c #4E4C5F",
"W.	c #23283C",
"X.	c #625D6E",
"Y.	c #696477",
"Z.	c #726B7B",
"`.	c #70697A",
" +	c #47465A",
".+	c #181F34",
"++	c #303346",
"@+	c #323448",
"#+	c #696274",
"$+	c #726B81",
"%+	c #7A707C",
"&+	c #B49D90",
"*+	c #B9A191",
"=+	c #A5918B",
"-+	c #6E6779",
";+	c #7B7386",
">+	c #4D4B5D",
",+	c #1F2438",
"'+	c #565367",
")+	c #7D7381",
"!+	c #8E8084",
"~+	c #8F8084",
"{+	c #908184",
"]+	c #8B7D84",
"^+	c #4A495D",
"/+	c #35374A",
"(+	c #161D31",
"_+	c #464658",
":+	c #645F76",
"<+	c #625E75",
"[+	c #6B657B",
"}+	c #4C4B5E",
"|+	c #6F6879",
"1+	c #393B4E",
"2+	c #1D2338",
"3+	c #22283E",
"4+	c #4E4C60",
"5+	c #7E7586",
"6+	c #6D6678",
"7+	c #746C7E",
"8+	c #3A3B50",
"9+	c #121117",
"0+	c #121219",
"a+	c #161721",
"b+	c #2A2C3C",
"c+	c #504F63",
"d+	c #70687A",
"e+	c #666174",
"f+	c #424356",
"g+	c #21222F",
"h+	c #13131C",
"i+	c #131218",
"j+	c #121218",
"k+	c #121118",
"l+	c #1E202D",
"m+	c #232636",
"n+	c #222535",
"o+	c #242635",
"p+	c #161B2D",
"q+	c #323548",
"r+	c #797182",
"s+	c #655F72",
"t+	c #1B2030",
"u+	c #222536",
"v+	c #212434",
"w+	c #171821",
"x+	c #2A2F44",
"y+	c #414A6D",
"z+	c #3B4362",
"A+	c #3E4766",
"B+	c #2C334D",
"C+	c #38394C",
"D+	c #5B5769",
"E+	c #2C3044",
"F+	c #343C59",
"G+	c #3E4767",
"H+	c #3B4463",
"I+	c #3A4261",
"J+	c #404A6C",
"K+	c #343B56",
"L+	c #191A25",
"M+	c #30364E",
"N+	c #3A4361",
"O+	c #38405E",
"P+	c #39415E",
"Q+	c #3A4260",
"R+	c #313852",
"S+	c #2E3145",
"T+	c #686274",
"U+	c #282D43",
"V+	c #373F5B",
"W+	c #39415F",
"X+	c #383F5C",
"Y+	c #3D4666",
"Z+	c #333953",
"`+	c #353C57",
" @	c #3E4768",
".@	c #363D59",
"+@	c #373F5C",
"@@	c #373E5B",
"#@	c #3D4564",
"$@	c #2F3854",
"%@	c #1C243A",
"&@	c #363E5A",
"*@	c #38405D",
"=@	c #323952",
"-@	c #313851",
";@	c #39425F",
">@	c #3A4360",
",@	c #313953",
"'@	c #292D40",
")@	c #545165",
"!@	c #454457",
"~@	c #262B40",
"{@	c #38405C",
"]@	c #323851",
"^@	c #3C4565",
"/@	c #373E5A",
"(@	c #353D58",
"_@	c #2A2E43",
":@	c #23273B",
"<@	c #24283C",
"[@	c #2E334A",
"}@	c #38415E",
"|@	c #343A55",
"1@	c #3F4869",
"2@	c #323953",
"3@	c #323852",
"4@	c #1B1D29",
"5@	c #242839",
"6@	c #2B2F45",
"7@	c #3D4767",
"8@	c #343B55",
"9@	c #3E4869",
"0@	c #272B3E",
"a@	c #1A1B26",
"b@	c #25283A",
"c@	c #2E344B",
"d@	c #3C4665",
"e@	c #202332",
"f@	c #3E4868",
"g@	c #1C1E2A",
"h@	c #3C4564",
"i@	c #30354D",
"j@	c #262A3C",
"k@	c #100F14",
"l@	c #1A1C27",
"m@	c #25293A",
"n@	c #2F354D",
"o@	c #282D40",
"p@	c #15161E",
"q@	c #3D4667",
"r@	c #14141B",
"s@	c #282D41",
"t@	c #14151C",
"u@	c #15151D",
"v@	c #292E42",
"w@	c #30364F",
"x@	c #2F344C",
"y@	c #282C3F",
"z@	c #333A55",
"A@	c #3F496A",
"B@	c #191A24",
"C@	c #13131A",
"D@	c #3D4665",
"E@	c #404A6B",
"F@	c #292E43",
"G@	c #14141C",
"H@	c #181923",
"I@	c #2C3147",
"J@	c #14151D",
"K@	c #424C6F",
"L@	c #333A54",
"M@	c #282B3E",
"N@	c #2A3045",
"O@	c #171720",
"P@	c #181924",
"Q@	c #2F344B",
"R@	c #3C4463",
"S@	c #222636",
"T@	c #222534",
"U@	c #111117",
"V@	c #31374F",
"W@	c #242637",
"X@	c #232738",
"Y@	c #0E0D11",
"Z@	c #1F2230",
"`@	c #202331",
" #	c #212433",
".#	c #1C1E2B",
"+#	c #191B26",
"@#	c #191B25",
"##	c #171822",
"$#	c #1B1C28",
"%#	c #313750",
"&#	c #181A24",
"*#	c #15151E",
"=#	c #131319",
"-#	c #343C56",
";#	c #101015",
">#	c #2B3046",
",#	c #2D3349",
"'#	c #30374F",
")#	c #161720",
"!#	c #2E344A",
"~#	c #181822",
"{#	c #16161F",
"]#	c #16161E",
"^#	c #1A1C28",
"                                                                                                                                ",
"                                                                                                                                ",
"                                                                                                                                ",
"                                                                                                                                ",
"                                                                                                                                ",
"                                                                                                                                ",
"                                                                                                                                ",
"                                                                                                                                ",
"                                                                                                                                ",
"                                                                                                                                ",
"                                                                                                                                ",
"                                                                                                                                ",
"                                                                                                                                ",
"                                                                                                                                ",
"                                                                                                                                ",
"                                                                                                                                ",
"                                                                                                                                ",
"                                                    . . + @       .                                                             ",
"                                                    # $ % & *   = - ;                                                           ",
"                                                  > , ' ) ! ~ { # ] ^ /                                                         ",
"                                              ( _ : < [ } | 1 2 = 3 4 /                                                         ",
"                                              5 6 7 8 9 0 a b b c d # e . f                                                     ",
"                                              g ~ h i j k l m n o p q r s s t                                                   ",
"                                          u v w x y ! p z A A B C D E F G H * I                                                 ",
"                                      ( 6 J < 3 K w L M N O P Q R S T U : V                                                     ",
"                                        W & - X Y Z `  ...+.+.@.#.$.%.&.*.=.-.;.>.                                              ",
"                                          @ ,.'.).!.~.{.].^./.(._.:.<.[.}.|.u 1.2.                                              ",
"                                              3.4.8 5.6.7.8.9.0.a.b.c.d.e.f.g.                                                  ",
"                                              3.h.8 i.j.k.^.l.m.n.o.p.q.r.u                                                     ",
"                                            s.g.t.[ u.v.w.x.y.z.A.B.9 C.D.E.                                                    ",
"                                            # F.G.H.I.J.K.L.L.M.N.O.P.Q.R.S.                                                    ",
"                                          T.c U.V.W.X.] Y.p p Z.Z.`.G. +.+                                                      ",
"                                            ++@+>.w #+$+%+&+&+*+=+-+;+>+,+                                                      ",
"                                                    # '+)+!+~+{+]+< ^+/+                                                        ",
"                                                    (+_+] :+:+<+[+< u                                                           ",
"                                                    W.}+!.`.`.|+i 3 1+2+                                                        ",
"                                                    3+4+5+-+d 6+7+) 8+                                                          ",
"                                                9+0+a+b+c+6+d+p e+f+g+h+i+j+j+j+k+                                              ",
"                                              l+m+n+o+p+q+) f.r+s+,+t+o+n+n+n+u+v+                                              ",
"                                            w+x+y+z+A+B+C+: < 3 D+E+F+G+z+H+I+J+K+L+                                            ",
"                                          L+M+N+O+P+P+Q+R+S+T+K U+V+W+P+P+O+X+Y+Z+L+                                            ",
"                                          L+`+ @.@+@@@#@$@W.|+K %@Q+Q+&@*@I++@H+=@L+                                            ",
"                                          L+-@H+X+;@*@>@,@'@)@!@~@{@P+;@*@-@`+Y+]@L+                                            ",
"                                          L+=@^@/@@@+@Q+(@_@:@<@[@*@}@W+|@w =@1@2@L+                                            ",
"                                          L+3@ @Z+_@`+;@W+V+4@5@H+{@Q+M+6@&@V+7@8@L+                                            ",
"                                          L+3@9@3@0@K+;@Q+P+a@b@G+{@N+c@w W+d@c@e@                                              ",
"                                          L+3@f@2@w `+W+N+z+g@5@h@{@Q+i@x+V+1@j@k@                                              ",
"                                          L+3@f@=@w `+Q+P+(@l@m@^@{@N+n@| +@ @o@p@                                              ",
"                                          L+3@f@=@w 8@q@-@l@r@s@H+{@H+n@w +@ @>.t@                                              ",
"                                          L+3@f@=@w 8@7@n@u@0+v@h@*@w@x@8@X+^@y@t@                                              ",
"                                          L+-@G+=@w z@A@z@B@C@o@D@O+0@c@Y+V+E@F@G@                                              ",
"                                          L+=@A@Z+>.8@h@c@H@C@s@^@*@I@c@}@O+Q+0@J@                                              ",
"                                          L+8@K@L@M@/@N@O@P@u@o@H+*@P+Q@[@R@S@G@                                                ",
"                                            T@T@j@2@1@>.U@B@u@>.H+{@H+V@W@X@B@                                                  ",
"                                            G@Y@Z@G+8@`@w+P@u@>.H+*@{@@@>.J@                                                    ",
"                                              k+ #.@.#C@+#H@J@s@h@*@/@Y+2@@#                                                    ",
"                                              ##B@$#B@H@L+H@G@x+f@V+.@R@%#&#                                                    ",
"                                              B@##*#G@=#G@H@H@l@>.Y+Y+A@-#B@                                                    ",
"                                              P@##L+X@v@u+H@B@;#B@>#,#'#s@H@                                                    ",
"                                              +#)#&#%#1@!#~#      p@{#]#)#H@                                                    ",
"                                              H@H@H@^#g@l@H@        ######                                                      ",
"                                                                                                                                ",
"                                                                                                                                ",
"                                                                                                                                "};
