/* XPM */
static char * 2_xpm[] = {
"64 64 377 2",
"  	c None",
". 	c #2E3145",
"+ 	c #2E3245",
"@ 	c #2F3246",
"# 	c #303347",
"$ 	c #25293D",
"% 	c #5B5769",
"& 	c #6E6779",
"* 	c #6B6577",
"= 	c #6F687A",
"- 	c #3C3D50",
"; 	c #191F34",
"> 	c #3E3F52",
", 	c #696375",
"' 	c #3A3B4F",
") 	c #34364A",
"! 	c #555265",
"~ 	c #7F7687",
"{ 	c #6B6477",
"] 	c #262B3F",
"^ 	c #151D31",
"/ 	c #36384B",
"( 	c #787082",
"_ 	c #3B3C50",
": 	c #171E32",
"< 	c #1B2136",
"[ 	c #7D7485",
"} 	c #726A7C",
"| 	c #716A7B",
"1 	c #615D6F",
"2 	c #37384C",
"3 	c #3F3F52",
"4 	c #4F4D5F",
"5 	c #181F33",
"6 	c #383A4D",
"7 	c #736B7D",
"8 	c #6C6678",
"9 	c #6F687B",
"0 	c #746D7F",
"a 	c #736C7E",
"b 	c #716A7D",
"c 	c #766E80",
"d 	c #70697B",
"e 	c #23283C",
"f 	c #313448",
"g 	c #22273B",
"h 	c #24293D",
"i 	c #393A4E",
"j 	c #787081",
"k 	c #766E7F",
"l 	c #6A6479",
"m 	c #6C657A",
"n 	c #6C667A",
"o 	c #696378",
"p 	c #736B7C",
"q 	c #746C7E",
"r 	c #70687A",
"s 	c #1B2135",
"t 	c #5F5A6D",
"u 	c #5E5A6C",
"v 	c #5C586A",
"w 	c #4A495C",
"x 	c #58556D",
"y 	c #8A7D86",
"z 	c #A2908A",
"A 	c #9B8A88",
"B 	c #9A8987",
"C 	c #938586",
"D 	c #676278",
"E 	c #514F64",
"F 	c #70697A",
"G 	c #7B7284",
"H 	c #4B4A5D",
"I 	c #313447",
"J 	c #393B4E",
"K 	c #595568",
"L 	c #786F81",
"M 	c #6C6578",
"N 	c #37394D",
"O 	c #716974",
"P 	c #AC9690",
"Q 	c #BEA391",
"R 	c #BDA493",
"S 	c #BCA492",
"T 	c #C1A693",
"U 	c #B1988D",
"V 	c #877A81",
"W 	c #7B7283",
"X 	c #3F3F53",
"Y 	c #21263B",
"Z 	c #4B495C",
"` 	c #6E677C",
" .	c #AF998F",
"..	c #BFA794",
"+.	c #B39E91",
"@.	c #B39D8F",
"#.	c #B39C8F",
"$.	c #B39E90",
"%.	c #BBA593",
"&.	c #BBA291",
"*.	c #867A84",
"=.	c #44455C",
"-.	c #282C3F",
";.	c #323549",
">.	c #2C2F43",
",.	c #282C40",
"'.	c #292D41",
").	c #252A3D",
"!.	c #3B3D52",
"~.	c #A8918C",
"{.	c #CFC1A0",
"].	c #CFC7A4",
"^.	c #B49D90",
"/.	c #AF948B",
"(.	c #C7BB9E",
"_.	c #D5CDA6",
":.	c #B69E90",
"<.	c #7C717D",
"[.	c #666277",
"}.	c #746C7D",
"|.	c #716A7C",
"1.	c #38394D",
"2.	c #1D2337",
"3.	c #282C42",
"4.	c #AE958D",
"5.	c #DACFA7",
"6.	c #D5D4AA",
"7.	c #B29B8F",
"8.	c #AB9089",
"9.	c #CBC4A2",
"0.	c #DFDCAE",
"a.	c #BDA492",
"b.	c #847782",
"c.	c #4E4E64",
"d.	c #3E3E51",
"e.	c #49485B",
"f.	c #303346",
"g.	c #4E4D61",
"h.	c #776F80",
"i.	c #928186",
"j.	c #BEB098",
"k.	c #D1C3A1",
"l.	c #BBA292",
"m.	c #B79C8F",
"n.	c #CCBB9D",
"o.	c #CCBFA0",
"p.	c #9D8B88",
"q.	c #7A707F",
"r.	c #58566A",
"s.	c #333548",
"t.	c #202539",
"u.	c #545164",
"v.	c #7E7586",
"w.	c #686274",
"x.	c #625E75",
"y.	c #8D7E83",
"z.	c #B49C8F",
"A.	c #AD988E",
"B.	c #AC978D",
"C.	c #9E8A88",
"D.	c #6A6478",
"E.	c #686277",
"F.	c #7A7182",
"G.	c #635D70",
"H.	c #2C3043",
"I.	c #2B2F43",
"J.	c #5F5B6D",
"K.	c #867C8D",
"L.	c #605C6E",
"M.	c #5D596D",
"N.	c #797080",
"O.	c #726A7A",
"P.	c #6E677A",
"Q.	c #6D6679",
"R.	c #4E4C5F",
"S.	c #424255",
"T.	c #474659",
"U.	c #6A6474",
"V.	c #756E83",
"W.	c #716979",
"X.	c #A08E89",
"Y.	c #A18E8A",
"Z.	c #A4918B",
"`.	c #958686",
" +	c #6F6879",
".+	c #81788A",
"++	c #1C2236",
"@+	c #2D3044",
"#+	c #514F61",
"$+	c #615D71",
"%+	c #807580",
"&+	c #A8948C",
"*+	c #9D8C89",
"=+	c #434356",
"-+	c #1A2035",
";+	c #48475A",
">+	c #797083",
",+	c #676277",
"'+	c #686278",
")+	c #666176",
"!+	c #333549",
"~+	c #1F2439",
"{+	c #6D6779",
"]+	c #726A7D",
"^+	c #35374A",
"/+	c #111015",
"(+	c #13131A",
"_+	c #21273B",
":+	c #565469",
"<+	c #6E6778",
"[+	c #756D7F",
"}+	c #797082",
"|+	c #3F4157",
"1+	c #191D2E",
"2+	c #121014",
"3+	c #121218",
"4+	c #1E202D",
"5+	c #232637",
"6+	c #222535",
"7+	c #1C1F2D",
"8+	c #3B3B4C",
"9+	c #625D71",
"0+	c #585567",
"a+	c #2B2C3C",
"b+	c #1B1F2E",
"c+	c #242737",
"d+	c #191A24",
"e+	c #171821",
"f+	c #2A2F43",
"g+	c #434E71",
"h+	c #3A4361",
"i+	c #20222F",
"j+	c #121624",
"k+	c #373A4F",
"l+	c #71697B",
"m+	c #625D70",
"n+	c #141620",
"o+	c #292D40",
"p+	c #414B6D",
"q+	c #3D4666",
"r+	c #212434",
"s+	c #15151D",
"t+	c #191A25",
"u+	c #30364E",
"v+	c #38405E",
"w+	c #38405D",
"x+	c #39415D",
"y+	c #242B42",
"z+	c #37374A",
"A+	c #655F71",
"B+	c #262A3D",
"C+	c #2D344D",
"D+	c #3A425F",
"E+	c #38415E",
"F+	c #3A4260",
"G+	c #272B3E",
"H+	c #14151D",
"I+	c #353C57",
"J+	c #3E4767",
"K+	c #363E5A",
"L+	c #3C4564",
"M+	c #373F5C",
"N+	c #333850",
"O+	c #414155",
"P+	c #5D596B",
"Q+	c #383A4F",
"R+	c #343A54",
"S+	c #394160",
"T+	c #3C4463",
"U+	c #373F5B",
"V+	c #404A6C",
"W+	c #292E42",
"X+	c #14141C",
"Y+	c #313851",
"Z+	c #363D59",
"`+	c #333953",
" @	c #353C58",
".@	c #3E4665",
"+@	c #2F3854",
"@@	c #6D6678",
"#@	c #524F61",
"$@	c #1A2239",
"%@	c #343B55",
"&@	c #333A54",
"*@	c #383F5C",
"=@	c #3C4565",
"-@	c #14151C",
";@	c #323852",
">@	c #3E4869",
",@	c #282B3F",
"'@	c #343B56",
")@	c #3D4665",
"!@	c #303852",
"~@	c #2A2E41",
"{@	c #645E71",
"]@	c #504D5F",
"^@	c #242A40",
"/@	c #38405C",
"(@	c #3B4463",
"_@	c #2E344B",
":@	c #3E4768",
"<@	c #3E4868",
"[@	c #323952",
"}@	c #333A55",
"|@	c #282B3E",
"1@	c #2F3247",
"2@	c #2B2F42",
"3@	c #2A2F44",
"4@	c #2F344C",
"5@	c #2A2E42",
"6@	c #323953",
"7@	c #3A4261",
"8@	c #333A53",
"9@	c #1A1D2C",
"0@	c #222638",
"a@	c #383F5B",
"b@	c #2F354D",
"c@	c #2A2E43",
"d@	c #39415F",
"e@	c #1B1C27",
"f@	c #25293A",
"g@	c #39425F",
"h@	c #394260",
"i@	c #1B1D29",
"j@	c #25283A",
"k@	c #1B1C28",
"l@	c #24283A",
"m@	c #30354D",
"n@	c #313750",
"o@	c #3F4869",
"p@	c #272A3D",
"q@	c #242839",
"r@	c #2E334A",
"s@	c #292C40",
"t@	c #39415E",
"u@	c #272C3F",
"v@	c #3B4362",
"w@	c #3B4462",
"x@	c #262A3C",
"y@	c #3F496A",
"z@	c #404A6B",
"A@	c #353D58",
"B@	c #232737",
"C@	c #26293B",
"D@	c #292E43",
"E@	c #14141B",
"F@	c #1C1D2A",
"G@	c #171720",
"H@	c #212433",
"I@	c #1A1C27",
"J@	c #181922",
"K@	c #161720",
"L@	c #1A1B26",
"M@	c #181A24",
"N@	c #1C1E2A",
"O@	c #100F14",
"P@	c #1F212F",
"Q@	c #171822",
"R@	c #0F0E13",
"S@	c #1F2230",
"T@	c #181924",
"U@	c #16161F",
"V@	c #111117",
"W@	c #181822",
"X@	c #15151E",
"Y@	c #1E212F",
"Z@	c #111016",
"`@	c #202231",
" #	c #181923",
".#	c #1F2130",
"+#	c #171721",
"@#	c #242739",
"##	c #232636",
"$#	c #434D71",
"%#	c #2B3045",
"&#	c #25293B",
"*#	c #16171F",
"                                                                                                                                ",
"                                                                                                                                ",
"                                                                                                                                ",
"                                                                                                                                ",
"                                                                                                                                ",
"                                                                                                                                ",
"                                                                                                                                ",
"                                                                                                                                ",
"                                                                                                                                ",
"                                                                                                                                ",
"                                                                                                                                ",
"                                                                                                                                ",
"                                                                                                                                ",
"                                                                                                                                ",
"                                                                                                                                ",
"                                                    . + @ #       +                                                             ",
"                                                  $ % & * = - ; > , '                                                           ",
"                                                ) ! = ~ { > ] ^ / ( _ :                                                         ",
"                                              < ' [ } | 1 2 3 3 4 & _ ;                                                         ",
"                                              5 6 } 7 8 9 0 a b c d 2 e f #                                                     ",
"                                          g h ; i j k * l m n o b p . i q r 6 s                                                 ",
"                                        i t u v w i x y z A B z C D E F G H I                                                   ",
"                                        J u K L M N O P Q R S T U V W { X 5                                                     ",
"                                          Y < Z ` k  ...+.@.#.$.%.&.*.=.-.;.>.,.'.                                              ",
"                                              ).!.q ~.{.].^./.(._.:.<.[.}.|.1.2.                                                ",
"                                                3.| 4.5.6.7.8.9.0.a.b.c.d.e.i                                                   ",
"                                              f.g.h.i.j.k.l.m.n.o.p.q.r.s.t.                                                    ",
"                                            ,.u.v.w.x.y.z.A.B.z.C.D.E.F.G.H.                                                    ",
"                                          I.J.K.L.. M.N.O.P.P.& Q.Q.c R.'.                                                      ",
"                                            S.T.I h U.V.W.X.Y.Z.`. +.+w ;                                                       ",
"                                            5 s ++@+#+$+%+&+&+B.*+= M.=+$                                                       ",
"                                                    -+;+>+,+'+)+` |.!+                                                          ",
"                                                    ~+;+( Q.{+8 ]+= ^+                                                          ",
"                                                /+(+_+:+v.= = <+[+}+|+1+2+3+                                                    ",
"                                              4+5+6+7+8+9+& = r 8 0+a+b+c+6+d+                                                  ",
"                                            e+f+g+h+i+j+k+} l+c m+h n+o+p+q+r+s+                                                ",
"                                          t+u+h+v+w+x+y+z+[+|.( A+B+C+D+v+E+F+G+H+                                              ",
"                                          t+I+J+K+F+L+M+N+O+, P+Q+R+S+T+E+U+V+W+X+                                              ",
"                                          t+Y+L+Z+`+ @.@+@t.@@#@$@h+F+%@&@*@=@-.-@                                              ",
"                                          t+;@>@;@,@'@)@!@~@{@]@^@/@(@_@'.M+:@,.-@                                              ",
"                                          t+;@<@[@,.'@L+}@|@1@2@3@w+(@4@5@M+:@,.-@                                              ",
"                                          t+;@<@6@'.I+7@w+8@9@0@a@w+h+b@c@M+:@,.-@                                              ",
"                                          t+;@<@[@'.I+d@h+h+e@f@<@/@F+b@c@M+:@,.-@                                              ",
"                                          t+;@<@[@'.I+g@h@w+i@j@L+/@h+b@c@M+:@,.-@                                              ",
"                                          t+;@<@[@'.I+g@F+w+k@l@=@/@h+b@c@M+:@,.-@                                              ",
"                                          t+;@<@[@'.I+g@F+w+k@l@=@/@h+b@c@M+:@,.-@                                              ",
"                                          t+;@<@[@'.I+g@F+w+k@l@=@/@h+b@c@M+:@,.-@                                              ",
"                                          t+;@<@[@'.I+g@F+w+k@l@=@/@h+b@c@M+:@,.-@                                              ",
"                                          t+;@:@[@'.I+d@F+w+k@l@=@/@7@m@f+U+:@,.-@                                              ",
"                                          t+n@o@&@p@'@F+g@M+k@q@T+/@h+r@s@t@J+u@H+                                              ",
"                                          t+I+q+u+_@K+w+v@w@i@x@y@/@d@&@r@&@z@c@X+                                              ",
"                                          t+[@r@o+F+d@U+g@A@k@B@7@w+M+v@A@C@%@D@E@                                              ",
"                                            F@G@H@d@t@v@;@I@J@K@H@w+t@v@&@L@M@N@                                                ",
"                                              O@P@d@t@v@b@s+e+E@N@w+d@(@Y+Q@R@                                                  ",
"                                                S@d@w+q+%@T@Q@U@S@/@t@T+Y+t+                                                    ",
"                                              V@S@7@d@d@4@W@W@X@Y@t@d@(@Y+M@                                                    ",
"                                              Z@`@L+=@u@e+ #t+X+.#h+d@h+n@M@                                                    ",
"                                              +#d+@#=@c@Z@M@d+Q@t+##Z+$#%@d+                                                    ",
"                                              L@U@X+%#&#U@ # #t+U@E@G+}@-. #                                                    ",
"                                              J@T@d+*#G@T@ # # #T@t+G@X@K@ #                                                    ",
"                                                   #Q@J@ # # # # # #W@Q@Q@                                                      ",
"                                                                                                                                ",
"                                                                                                                                ",
"                                                                                                                                "};
