/* XPM */
static char * 20_xpm[] = {
"64 64 408 2",
"  	c None",
". 	c #24293D",
"+ 	c #24283D",
"@ 	c #23283C",
"# 	c #22273B",
"$ 	c #23283D",
"% 	c #1D2338",
"& 	c #4C4A5D",
"* 	c #565365",
"= 	c #565366",
"- 	c #5D596B",
"; 	c #3D3D51",
"> 	c #171E32",
", 	c #3C3D51",
"' 	c #545164",
") 	c #383A4D",
"! 	c #2D3144",
"~ 	c #404053",
"{ 	c #6C6678",
"] 	c #847A8B",
"^ 	c #756D7F",
"/ 	c #5A5769",
"( 	c #2E3145",
"_ 	c #161D31",
": 	c #7C7385",
"< 	c #3B3C50",
"[ 	c #1A2135",
"} 	c #393B4E",
"| 	c #7A7183",
"1 	c #71697B",
"2 	c #736B7D",
"3 	c #5E596C",
"4 	c #272B3F",
"5 	c #2C2F43",
"6 	c #292D41",
"7 	c #3F4053",
"8 	c #6F687A",
"9 	c #3B3C4F",
"0 	c #1E2338",
"a 	c #726A7C",
"b 	c #726B7D",
"c 	c #6F6879",
"d 	c #696374",
"e 	c #6A6475",
"f 	c #70697B",
"g 	c #1F2539",
"h 	c #25293D",
"i 	c #192034",
"j 	c #1C2236",
"k 	c #11192E",
"l 	c #37384C",
"m 	c #7B7284",
"n 	c #786F80",
"o 	c #686276",
"p 	c #676278",
"q 	c #6E677D",
"r 	c #6D677D",
"s 	c #6A657B",
"t 	c #726B80",
"u 	c #736B7C",
"v 	c #2D3044",
"w 	c #2D3145",
"x 	c #5C586A",
"y 	c #5C586B",
"z 	c #37394D",
"A 	c #35374B",
"B 	c #454558",
"C 	c #414154",
"D 	c #434255",
"E 	c #524F62",
"F 	c #625E74",
"G 	c #7C7280",
"H 	c #8A7D82",
"I 	c #857980",
"J 	c #84787F",
"K 	c #887B80",
"L 	c #827781",
"M 	c #6A6479",
"N 	c #404156",
"O 	c #857B8C",
"P 	c #645F71",
"Q 	c #36384C",
"R 	c #1B2135",
"S 	c #3A3B4F",
"T 	c #6E687A",
"U 	c #7C7384",
"V 	c #5F5B6D",
"W 	c #5D596D",
"X 	c #A3908E",
"Y 	c #BFA592",
"Z 	c #B9A191",
"` 	c #B8A091",
" .	c #C1A794",
"..	c #AC968D",
"+.	c #756C7C",
"@.	c #70697C",
"#.	c #787081",
"$.	c #303346",
"%.	c #5A5668",
"&.	c #766E82",
"*.	c #676173",
"=.	c #A18F89",
"-.	c #B9A091",
";.	c #B39A8E",
">.	c #B69F90",
",.	c #B7A091",
"'.	c #B49C8F",
").	c #B69D8F",
"!.	c #AF9A8E",
"~.	c #867B86",
"{.	c #48485E",
"].	c #212639",
"^.	c #21263A",
"/.	c #2A2E42",
"(.	c #333548",
"_.	c #4C4B60",
":.	c #797081",
"<.	c #AD968E",
"[.	c #CBB99C",
"}.	c #C5BA9E",
"|.	c #B49D8F",
"1.	c #B0978D",
"2.	c #C0B199",
"3.	c #CDC0A0",
"4.	c #BAA291",
"5.	c #807480",
"6.	c #5B586E",
"7.	c #605B6C",
"8.	c #635E70",
"9.	c #34374A",
"0.	c #282D42",
"a.	c #716A7B",
"b.	c #AB928C",
"c.	c #D8CEA6",
"d.	c #D7D5AB",
"e.	c #B39C8F",
"f.	c #AC918A",
"g.	c #CDC5A3",
"h.	c #DFDCAE",
"i.	c #BAA191",
"j.	c #80737F",
"k.	c #5C5A6F",
"l.	c #5D596A",
"m.	c #615D6F",
"n.	c #25293C",
"o.	c #3C3D52",
"p.	c #746C7E",
"q.	c #A38D8A",
"r.	c #CDC09F",
"s.	c #D1C9A5",
"t.	c #B69E90",
"u.	c #B0958C",
"v.	c #CABD9F",
"w.	c #D5CCA6",
"x.	c #AF998E",
"y.	c #827683",
"z.	c #4A495F",
"A.	c #23283B",
"B.	c #22273C",
"C.	c #191F34",
"D.	c #454458",
"E.	c #6E677A",
"F.	c #9B8B88",
"G.	c #C5AC96",
"H.	c #BBA392",
"I.	c #B19D90",
"J.	c #756D7C",
"K.	c #6A6477",
"L.	c #2B2F43",
"M.	c #504E61",
"N.	c #404154",
"O.	c #5A586D",
"P.	c #7C7180",
"Q.	c #85777F",
"R.	c #7C727E",
"S.	c #7D727E",
"T.	c #766B7B",
"U.	c #696378",
"V.	c #6F697C",
"W.	c #424256",
"X.	c #555265",
"Y.	c #625D70",
"Z.	c #3D3E52",
"`.	c #21263B",
" +	c #676172",
".+	c #776F84",
"++	c #696477",
"@+	c #857981",
"#+	c #867981",
"$+	c #877B82",
"%+	c #817780",
"&+	c #70697A",
"*+	c #817789",
"=+	c #474659",
"-+	c #151C31",
";+	c #21273B",
">+	c #2C3044",
",+	c #615C6D",
"'+	c #6B657A",
")+	c #7F747F",
"!+	c #B79F91",
"~+	c #BCA492",
"{+	c #A8948C",
"]+	c #6F687C",
"^+	c #4B4A5C",
"/+	c #272C3F",
"(+	c #4D4B5F",
"_+	c #7A7182",
":+	c #766D7C",
"<+	c #766E7C",
"[+	c #766D7B",
"}+	c #79707F",
"|+	c #3B3D50",
"1+	c #191F33",
"2+	c #464658",
"3+	c #776F81",
"4+	c #676277",
"5+	c #686278",
"6+	c #666176",
"7+	c #6D677B",
"8+	c #323447",
"9+	c #242A3F",
"0+	c #4F4E61",
"a+	c #7F7587",
"b+	c #71697A",
"c+	c #766E7F",
"d+	c #776F80",
"e+	c #3B3D51",
"f+	c #1E253C",
"g+	c #1F2336",
"h+	c #464558",
"i+	c #6E6779",
"j+	c #6B6477",
"k+	c #343649",
"l+	c #181D2F",
"m+	c #15161E",
"n+	c #16161F",
"o+	c #16161E",
"p+	c #1D202F",
"q+	c #736C7D",
"r+	c #303347",
"s+	c #191B27",
"t+	c #15151D",
"u+	c #16171F",
"v+	c #191A25",
"w+	c #292E42",
"x+	c #2C3248",
"y+	c #2A2F44",
"z+	c #2B3146",
"A+	c #2F344A",
"B+	c #1C2237",
"C+	c #343548",
"D+	c #797082",
"E+	c #7A7283",
"F+	c #212538",
"G+	c #2F3449",
"H+	c #2B3045",
"I+	c #2D334A",
"J+	c #222535",
"K+	c #191B25",
"L+	c #353D58",
"M+	c #434E71",
"N+	c #3D4666",
"O+	c #3F4868",
"P+	c #323A55",
"Q+	c #36394E",
"R+	c #575467",
"S+	c #6D6678",
"T+	c #696375",
"U+	c #4B4A5D",
"V+	c #30354C",
"W+	c #38405E",
"X+	c #3F4869",
"Y+	c #3E4768",
"Z+	c #424C6F",
"`+	c #2F354D",
" @	c #1F212F",
".@	c #181924",
"+@	c #323851",
"@@	c #3A4361",
"#@	c #353C58",
"$@	c #373F5C",
"%@	c #363E5A",
"&@	c #3C4563",
"*@	c #303854",
"=@	c #514E60",
"-@	c #1E253B",
";@	c #3A425F",
">@	c #39415F",
",@	c #373E5B",
"'@	c #373F5B",
")@	c #363D59",
"!@	c #353C57",
"~@	c #171821",
"{@	c #333A55",
"]@	c #333953",
"^@	c #39415E",
"/@	c #38405D",
"(@	c #3C4462",
"_@	c #303853",
":@	c #272C40",
"<@	c #6D6677",
"[@	c #555163",
"}@	c #21273E",
"|@	c #39425F",
"1@	c #2A2E43",
"2@	c #3E4869",
"3@	c #323953",
"4@	c #1E202E",
"5@	c #2E344B",
"6@	c #2E334A",
"7@	c #3A4260",
"8@	c #333A54",
"9@	c #282B3E",
"0@	c #404155",
"a@	c #37394C",
"b@	c #272C41",
"c@	c #343B56",
"d@	c #272B3E",
"e@	c #323852",
"f@	c #313851",
"g@	c #111117",
"h@	c #202332",
"i@	c #3E4868",
"j@	c #3C4565",
"k@	c #2D3249",
"l@	c #2B3046",
"m@	c #38415E",
"n@	c #1C2132",
"o@	c #333952",
"p@	c #394260",
"q@	c #121117",
"r@	c #202231",
"s@	c #3B4463",
"t@	c #2D3349",
"u@	c #2B2F45",
"v@	c #1B1D28",
"w@	c #25293A",
"x@	c #3D4767",
"y@	c #282C40",
"z@	c #323952",
"A@	c #3A4261",
"B@	c #1B1C28",
"C@	c #242839",
"D@	c #3B4362",
"E@	c #282B3F",
"F@	c #25283A",
"G@	c #3C4564",
"H@	c #2C3046",
"I@	c #3C4464",
"J@	c #2D3248",
"K@	c #2F344B",
"L@	c #3D4667",
"M@	c #1F2230",
"N@	c #30354D",
"O@	c #383F5C",
"P@	c #30364E",
"Q@	c #1C1E2A",
"R@	c #343A55",
"S@	c #2B2F44",
"T@	c #262A3C",
"U@	c #2A2F43",
"V@	c #373E5A",
"W@	c #3F496B",
"X@	c #212433",
"Y@	c #1E212E",
"Z@	c #232738",
"`@	c #232637",
" #	c #15151E",
".#	c #3B4462",
"+#	c #282D41",
"@#	c #1A1B27",
"##	c #0F0E13",
"$#	c #1E212F",
"%#	c #14141B",
"&#	c #1A1B26",
"*#	c #121219",
"=#	c #181A24",
"-#	c #13131A",
";#	c #282D40",
">#	c #3D4665",
",#	c #2C3147",
"'#	c #25293B",
")#	c #3D4565",
"!#	c #181922",
"~#	c #181923",
"{#	c #13141B",
"]#	c #38405C",
"^#	c #404A6B",
"/#	c #111016",
"(#	c #191A24",
"_#	c #161720",
":#	c #212434",
"<#	c #313750",
"[#	c #191B26",
"}#	c #1C1E2B",
"|#	c #0F0F13",
"1#	c #212534",
"2#	c #1B1D29",
"3#	c #121218",
"4#	c #14151D",
"5#	c #171822",
"6#	c #434D70",
"7#	c #343B55",
"8#	c #14141C",
"9#	c #282C3F",
"0#	c #171720",
"a#	c #1A1C27",
"                                                                                                                                ",
"                                                                                                                                ",
"                                                                                                                                ",
"                                                                                                                                ",
"                                                                                                                                ",
"                                                                                                                                ",
"                                                                                                                                ",
"                                                                                                                                ",
"                                                                                                                                ",
"                                                                                                                                ",
"                                                                                                                                ",
"                                                                                                                                ",
"                                                                                                                                ",
"                                                                                                                                ",
"                                                                                                                                ",
"                                                                                                                                ",
"                                                    . + @ #       $                                                             ",
"                                                  % & * = - ; > , ' )                                                           ",
"                                                ! ~ { ] ^ / ( _ ) : < >                                                         ",
"                                              [ } | 1 2 3 4 5 6 7 8 9 >                                                         ",
"                                              0 } a b 8 c d e d 8 f 9 g h #                                                     ",
"                                          i j k l m n o p q r s t u v w x y z                                                   ",
"                                        A B B C D E F G H I J K L M N - O P Q                                                   ",
"                                      R S 2 T U V 6 W X Y Z `  ...+.@.#.= #                                                     ",
"                                          $.6 %.&.*.=.-.;.>.,.'.).!.~.{.].^.4 /.6                                               ",
"                                              (._.:.<.[.}.|.1.2.3.4.5.6.7.8.9.#                                                 ",
"                                                0.a.b.c.d.e.f.g.h.i.j.k.l.m.S                                                   ",
"                                              n.o.p.q.r.s.t.u.v.w.x.y.z.A.B.                                                    ",
"                                            C.D.^ p.E.F.G.H.-.G.I.J.K.:.- 6                                                     ",
"                                          L.M.U a N.O.P.Q.R.R.S.T.U.V.- W.                                                      ",
"                                          L.X.Y.Z.`. +.+++@+#+$+%+&+*+=+-+                                                      ",
"                                            ;+@ `.>+,+'+)+!+,.~+{+T ]+^+@                                                       ",
"                                                    /+(+_+:+<+[+}+1 |+#                                                         ",
"                                                    1+2+3+4+5+6+7+8 8+                                                          ",
"                                                    9+0+a+&+b+c c+d+e+f+                                                        ",
"                                                    g+h+p.i+8 i+a j+k+l+                                                        ",
"                                            m+n+o+o+n+p+N i+f q+Y.r+s+t+u+m+m+                                                  ",
"                                          v+w+x+y+z+A+B+C+D+a E+*.F+9+G+H+H+I+J+                                                ",
"                                          K+L+M+N+N+O+P+Q+R+S+T+U+V+W+X+N+Y+Z+`+ @                                              ",
"                                          .@+@@@#@$@%@&@*@@ T+=@-@;@>@,@'@)@L+Y+!@v+                                            ",
"                                          ~@{@]@H+^@/@(@_@:@<@[@}@^@^@|@!@1@]@2@3@v+                                            ",
"                                        4@5@>@6@w+^@W+7@8@9@0@a@b@/@^@7@c@d@e@Y+f@v+                                            ",
"                                      g@h@i@j@k@l@^@m@m@'@5@n@].o@/@/@p@!@w+]@Y+e@v+                                            ",
"                                      q@r@>@s@t@u@^@^@'@@@|@v@w@x@/@$@@@!@y@z@i@e@v+                                            ",
"                                      q@r@A@s@k@H+^@^@'@@@^@B@C@N+/@,@D@)@E@e@2@e@v+                                            ",
"                                      q@r@>@s@t@u@^@^@'@A@/@v@F@G@$@s@8@H@]@%@G@f@v+                                            ",
"                                      g@h@N+I@J@u@^@^@'@A@/@B@C@N+|@c@J@K@7@$@L@!@v+                                            ",
"                                      q@M@'@s@5@H+^@^@'@@@>@v@C@N+'@1@N@s@O@/@@@P@v+                                            ",
"                                          Q@$@R@S@^@^@,@D@D@v@T@>@U@z@^@$@V@W@H+~@                                              ",
"                                          n+X@Y@Z@^@^@7@c@`@ #U@'@F@)@x@.#N++#@#                                                ",
"                                          v+t+##$#>@^@s@P@%#q@y+|@5@N@e@+@5@&#                                                  ",
"                                              *#M@p@^@s@z@=#-#;#>#>@,#/.'#n+                                                    ",
"                                              g@M@p@W+)#8@!#-#;#.#/@)@@@P@~#                                                    ",
"                                              g@M@|@D@t@ @~#{#H+X+O@]#Y+]@v+                                                    ",
"                                              q@ @>@^#T@/#(#_#:#f@O@'@s@<#=#                                                    ",
"                                              /#M@A@@@'#n+~#[#-#}#^@>@s@f@=#                                                    ",
"                                              |#1#s@J+n+[#~#v+%#$#@@>@@@<#=#                                                    ",
"                                              t+2#Z@=#3#4#~#(#5#v+`@%@6#7#(#                                                    ",
"                                              v+~@8#_#J+C@!#5#&# #8#T@c@9#~#                                                    ",
"                                              ~#=#(#8#,#7#5#_#    v+0# #_#~#                                                    ",
"                                                  ~#!#a#B@~#        5#5#5#                                                      ",
"                                                                                                                                ",
"                                                                                                                                ",
"                                                                                                                                "};
