/* XPM */
static char * 21_xpm[] = {
"64 64 381 2",
"  	c None",
". 	c #2E3145",
"+ 	c #2E3245",
"@ 	c #2F3246",
"# 	c #303347",
"$ 	c #25293D",
"% 	c #5B5769",
"& 	c #6E6779",
"* 	c #6B6577",
"= 	c #6F687A",
"- 	c #3C3D50",
"; 	c #191F34",
"> 	c #3E3F52",
", 	c #696375",
"' 	c #3A3B4F",
") 	c #34364A",
"! 	c #555265",
"~ 	c #7F7687",
"{ 	c #6B6477",
"] 	c #262B3F",
"^ 	c #151D31",
"/ 	c #36384B",
"( 	c #787082",
"_ 	c #3B3C50",
": 	c #171E32",
"< 	c #1B2136",
"[ 	c #7D7485",
"} 	c #726A7C",
"| 	c #716A7B",
"1 	c #615D6F",
"2 	c #37384C",
"3 	c #3F3F52",
"4 	c #4F4D5F",
"5 	c #181F33",
"6 	c #383A4D",
"7 	c #736B7D",
"8 	c #6C6678",
"9 	c #6F687B",
"0 	c #746D7F",
"a 	c #736C7E",
"b 	c #716A7D",
"c 	c #766E80",
"d 	c #70697B",
"e 	c #23283C",
"f 	c #313448",
"g 	c #22273B",
"h 	c #24293D",
"i 	c #393A4E",
"j 	c #787081",
"k 	c #766E7F",
"l 	c #6A6479",
"m 	c #6C657A",
"n 	c #6C667A",
"o 	c #696378",
"p 	c #736B7C",
"q 	c #746C7E",
"r 	c #70687A",
"s 	c #1B2135",
"t 	c #5F5A6D",
"u 	c #5E5A6C",
"v 	c #5C586A",
"w 	c #4A495C",
"x 	c #58556D",
"y 	c #8A7D86",
"z 	c #A2908A",
"A 	c #9B8A88",
"B 	c #9A8987",
"C 	c #938586",
"D 	c #676278",
"E 	c #514F64",
"F 	c #70697A",
"G 	c #7B7284",
"H 	c #4B4A5D",
"I 	c #313447",
"J 	c #393B4E",
"K 	c #595568",
"L 	c #786F81",
"M 	c #6C6578",
"N 	c #37394D",
"O 	c #716974",
"P 	c #AC9690",
"Q 	c #BEA391",
"R 	c #BDA493",
"S 	c #BCA492",
"T 	c #C1A693",
"U 	c #B1988D",
"V 	c #877A81",
"W 	c #7B7283",
"X 	c #3F3F53",
"Y 	c #21263B",
"Z 	c #4B495C",
"` 	c #6E677C",
" .	c #AF998F",
"..	c #BFA794",
"+.	c #B39E91",
"@.	c #B39D8F",
"#.	c #B39C8F",
"$.	c #B39E90",
"%.	c #BBA593",
"&.	c #BBA291",
"*.	c #867A84",
"=.	c #44455C",
"-.	c #282C3F",
";.	c #323549",
">.	c #2C2F43",
",.	c #282C40",
"'.	c #292D41",
").	c #252A3D",
"!.	c #3B3D52",
"~.	c #A8918C",
"{.	c #CFC1A0",
"].	c #CFC7A4",
"^.	c #B49D90",
"/.	c #AF948B",
"(.	c #C7BB9E",
"_.	c #D5CDA6",
":.	c #B69E90",
"<.	c #7C717D",
"[.	c #666277",
"}.	c #746C7D",
"|.	c #716A7C",
"1.	c #38394D",
"2.	c #1D2337",
"3.	c #282C42",
"4.	c #AE958D",
"5.	c #DACFA7",
"6.	c #D5D4AA",
"7.	c #B29B8F",
"8.	c #AB9089",
"9.	c #CBC4A2",
"0.	c #DFDCAE",
"a.	c #BDA492",
"b.	c #847782",
"c.	c #4E4E64",
"d.	c #3E3E51",
"e.	c #49485B",
"f.	c #303346",
"g.	c #4E4D61",
"h.	c #776F80",
"i.	c #928186",
"j.	c #BEB098",
"k.	c #D1C3A1",
"l.	c #BBA292",
"m.	c #B79C8F",
"n.	c #CCBB9D",
"o.	c #CCBFA0",
"p.	c #9D8B88",
"q.	c #7A707F",
"r.	c #58566A",
"s.	c #333548",
"t.	c #202539",
"u.	c #545164",
"v.	c #7E7586",
"w.	c #686274",
"x.	c #625E75",
"y.	c #8D7E83",
"z.	c #B49C8F",
"A.	c #AD988E",
"B.	c #AC978D",
"C.	c #9E8A88",
"D.	c #6A6478",
"E.	c #686277",
"F.	c #7A7182",
"G.	c #635D70",
"H.	c #2C3043",
"I.	c #2B2F43",
"J.	c #5F5B6D",
"K.	c #867C8D",
"L.	c #605C6E",
"M.	c #5D596D",
"N.	c #797080",
"O.	c #726A7A",
"P.	c #6E677A",
"Q.	c #6D6679",
"R.	c #4E4C5F",
"S.	c #424255",
"T.	c #474659",
"U.	c #6A6474",
"V.	c #756E83",
"W.	c #716979",
"X.	c #A08E89",
"Y.	c #A18E8A",
"Z.	c #A4918B",
"`.	c #958686",
" +	c #6F6879",
".+	c #81788A",
"++	c #1C2236",
"@+	c #2D3044",
"#+	c #514F61",
"$+	c #615D71",
"%+	c #807580",
"&+	c #A8948C",
"*+	c #9D8C89",
"=+	c #434356",
"-+	c #1A2035",
";+	c #48475A",
">+	c #797083",
",+	c #676277",
"'+	c #686278",
")+	c #666176",
"!+	c #333649",
"~+	c #20253A",
"{+	c #6D6779",
"]+	c #35384B",
"^+	c #131219",
"/+	c #13131A",
"(+	c #111016",
"_+	c #1C2132",
":+	c #535064",
"<+	c #6D6778",
"[+	c #797082",
"}+	c #151927",
"|+	c #131116",
"1+	c #121218",
"2+	c #121219",
"3+	c #212433",
"4+	c #232637",
"5+	c #222535",
"6+	c #282E44",
"7+	c #43445A",
"8+	c #605B6D",
"9+	c #575467",
"0+	c #383C53",
"a+	c #222534",
"b+	c #232636",
"c+	c #1E202D",
"d+	c #1B1D29",
"e+	c #353C57",
"f+	c #40496B",
"g+	c #3A4261",
"h+	c #3B4463",
"i+	c #3E4665",
"j+	c #252C45",
"k+	c #323447",
"l+	c #776F81",
"m+	c #303853",
"n+	c #3E4766",
"o+	c #3B4362",
"p+	c #414B6D",
"q+	c #2A2F44",
"r+	c #171821",
"s+	c #121117",
"t+	c #1F2230",
"u+	c #363E5A",
"v+	c #39415F",
"w+	c #38405E",
"x+	c #38405D",
"y+	c #39415E",
"z+	c #3D4563",
"A+	c #262D45",
"B+	c #363749",
"C+	c #756E7F",
"D+	c #655F70",
"E+	c #262A3D",
"F+	c #3C4563",
"G+	c #3A4361",
"H+	c #30364E",
"I+	c #191A25",
"J+	c #202332",
"K+	c #3D4767",
"L+	c #3A4260",
"M+	c #39425F",
"N+	c #383F5C",
"O+	c #39405D",
"P+	c #353D59",
"Q+	c #333951",
"R+	c #414155",
"S+	c #5D596B",
"T+	c #383B4F",
"U+	c #343A54",
"V+	c #363E5B",
"W+	c #394260",
"X+	c #373E5A",
"Y+	c #3E4767",
"Z+	c #202231",
"`+	c #343B56",
" @	c #333A55",
".@	c #373F5C",
"+@	c #2F3854",
"@@	c #6D6678",
"#@	c #524F61",
"$@	c #1A2239",
"%@	c #373F5B",
"&@	c #333953",
"*@	c #363D58",
"=@	c #3C4564",
"-@	c #313851",
";@	c #2D3248",
">@	c #2A2E43",
",@	c #38415E",
"'@	c #3A4360",
")@	c #313853",
"!@	c #2A2E41",
"~@	c #645E71",
"{@	c #504D5F",
"]@	c #242A40",
"^@	c #343C56",
"/@	c #282B3F",
"(@	c #323852",
"_@	c #3E4869",
":@	c #2D3249",
"<@	c #2B2F44",
"[@	c #282B3E",
"}@	c #2F3247",
"|@	c #2B2F42",
"1@	c #323952",
"2@	c #3E4868",
"3@	c #2D3349",
"4@	c #2B3045",
"5@	c #333A53",
"6@	c #1A1D2C",
"7@	c #222638",
"8@	c #383F5B",
"9@	c #363E59",
"0@	c #272B3E",
"a@	c #323851",
"b@	c #373E5B",
"c@	c #1B1C27",
"d@	c #25293A",
"e@	c #313750",
"f@	c #2E334A",
"g@	c #3D4666",
"h@	c #25283A",
"i@	c #38405C",
"j@	c #2F344B",
"k@	c #2D3148",
"l@	c #1B1C28",
"m@	c #24283A",
"n@	c #3C4565",
"o@	c #2F354C",
"p@	c #292D40",
"q@	c #3F496A",
"r@	c #31374F",
"s@	c #2E344B",
"t@	c #242839",
"u@	c #343B55",
"v@	c #3F486A",
"w@	c #1F212F",
"x@	c #2C3248",
"y@	c #3F4869",
"z@	c #333A54",
"A@	c #272A3D",
"B@	c #242738",
"C@	c #3B4462",
"D@	c #0D0C10",
"E@	c #171720",
"F@	c #1B1D28",
"G@	c #3E4768",
"H@	c #2C3147",
"I@	c #1C1E2B",
"J@	c #0F0F13",
"K@	c #161720",
"L@	c #26293B",
"M@	c #171822",
"N@	c #1E202E",
"O@	c #181924",
"P@	c #282D41",
"Q@	c #16161F",
"R@	c #14141C",
"S@	c #2F354D",
"T@	c #353D58",
"U@	c #262A3C",
"V@	c #14141B",
"W@	c #181922",
"X@	c #191B26",
"Y@	c #202331",
"Z@	c #25293B",
"`@	c #191B25",
" #	c #15161E",
".#	c #1E212F",
"+#	c #181A24",
"@#	c #13131B",
"##	c #1A1C27",
"$#	c #414A6D",
"%#	c #2F364D",
"&#	c #0F0F14",
"*#	c #212434",
"=#	c #1A1B27",
"-#	c #181923",
";#	c #191A24",
">#	c #1C1E2A",
"                                                                                                                                ",
"                                                                                                                                ",
"                                                                                                                                ",
"                                                                                                                                ",
"                                                                                                                                ",
"                                                                                                                                ",
"                                                                                                                                ",
"                                                                                                                                ",
"                                                                                                                                ",
"                                                                                                                                ",
"                                                                                                                                ",
"                                                                                                                                ",
"                                                                                                                                ",
"                                                                                                                                ",
"                                                                                                                                ",
"                                                                                                                                ",
"                                                                                                                                ",
"                                                                                                                                ",
"                                                                                                                                ",
"                                                    . + @ #       +                                                             ",
"                                                  $ % & * = - ; > , '                                                           ",
"                                                ) ! = ~ { > ] ^ / ( _ :                                                         ",
"                                              < ' [ } | 1 2 3 3 4 & _ ;                                                         ",
"                                              5 6 } 7 8 9 0 a b c d 2 e f #                                                     ",
"                                          g h ; i j k * l m n o b p . i q r 6 s                                                 ",
"                                        i t u v w i x y z A B z C D E F G H I                                                   ",
"                                        J u K L M N O P Q R S T U V W { X 5                                                     ",
"                                          Y < Z ` k  ...+.@.#.$.%.&.*.=.-.;.>.,.'.                                              ",
"                                              ).!.q ~.{.].^./.(._.:.<.[.}.|.1.2.                                                ",
"                                                3.| 4.5.6.7.8.9.0.a.b.c.d.e.i                                                   ",
"                                              f.g.h.i.j.k.l.m.n.o.p.q.r.s.t.                                                    ",
"                                            ,.u.v.w.x.y.z.A.B.z.C.D.E.F.G.H.                                                    ",
"                                          I.J.K.L.. M.N.O.P.P.& Q.Q.c R.'.                                                      ",
"                                            S.T.I h U.V.W.X.Y.Z.`. +.+w ;                                                       ",
"                                            5 s ++@+#+$+%+&+&+B.*+= M.=+$                                                       ",
"                                                    -+;+>+,+'+)+` |.!+                                                          ",
"                                                    ~+e.j Q.{+8 b = ]+                                                          ",
"                                            ^+/+(+/+_+:+~ = = <+k [+_ }+|+1+2+                                                  ",
"                                            3+4+3+5+6+7+8+& = d * 9+0+h a+5+b+c+                                                ",
"                                          d+e+f+g+h+i+j+k+} |.l+8+e m+n+o+o+p+q+r+                                              ",
"                                      s+t+u+v+w+x+y+z+A+B+C+|.( D+E+m+F+x+x+x+G+H+I+                                            ",
"                                      s+J+K+L+x+M+N+O+P+Q+R+, S+T+U+V+x+x+W+X+Y+e+I+                                            ",
"                                      s+Z+v+L+`+ @x+.@i++@t.@@#@$@G+L+x+%@&@*@=@-@I+                                            ",
"                                      s+Z+g+h+;@>@y+,@'@)@!@~@{@]@x+y+L+^@/@(@_@(@I+                                            ",
"                                      s+Z+g+h+:@<@y+x+L+`+[@}@|@q+x+y+M+`+'.1@2@(@I+                                            ",
"                                      s+Z+g+h+3@4@y+y+x+y+5@6@7@8@x+.@h+9@0@a@_@a@I+                                            ",
"                                      s+Z+g+h+3@4@,@y+b@o+G+c@d@_@x+x+u+e@f@`+g@a@I+                                            ",
"                                      s+Z+g+h+:@<@v+v+%@g+x+d+h@=@i@o+j@'.v+,@=@5@I+                                            ",
"                                      s+Z+v+h+k@q+L+v+%@G+x+l@m@n@i@h+o@p@x+%@g@e+I+                                            ",
"                                      s+J+q@g+`+r@s@9@,@L+x+l@t@g@x+H+o@u@u+v@H+w@                                              ",
"                                        c+x@y+y@z@A@`+W+W+x+l@B@g@w+0@f@y@C@z@3+D@                                              ",
"                                          E@o@n@z@'.e+v+L+v+F@m@G@x+H@f@v+b@I@J@                                                ",
"                                            K@x@g+p@e+w+L+o+d+L@y@i@x+a@L@d+M@M@                                                ",
"                                              N@B@[@`+_@%@b+O@l@P@%@g+v+4@Q@R@                                                  ",
"                                                I+S@N+T@U@V@W@^+d+C@y+=@u@X@                                                    ",
"                                              1+Y@G+G@Z@^+I+`@ #.#T@y+=@e@+#                                                    ",
"                                              s+w@v+v@-.@#O@O@O@r+##z@$#%#+#                                                    ",
"                                              &#*#G@4@=#-#-#-#;#r+ #>#e+X+;#                                                    ",
"                                              2+N@H@I+2+=#-#-#-#+#I+1+5+4@-#                                                    ",
"                                              ;#M@ #-#          -#-#I+M@Q@-#                                                    ",
"                                              -#-#                  -#W@M@                                                      ",
"                                                                                                                                ",
"                                                                                                                                ",
"                                                                                                                                "};
