/* XPM */
static char *result[] = {
/* columns rows colors chars-per-pixel */
"32 48 7 1 ",
"  c #181923",
". c #292D41",
"X c #38405D",
"o c #6F687A",
"O c #B59E90",
"+ c #D8D4AA",
"@ c None",
/* pixels */
"@@@@@@@@@@@@@@@@@@@@@@@@@@@@@@@@",
"@@@@@@@@@@@@@@@@@@@@@@@@@@@@@@@@",
"@@@@@@@@@@@@@@@@@@@@@@@@@@@@@@@@",
"@@@@@@@@@@@@@@@@@@@@@@@@@@@@@@@@",
"@@@@@@@@@@@@@@@@@@@@@@@@@@@@@@@@",
"@@@@@@@@@@@@@@@@@@@@@@@@@@@@@@@@",
"@@@@@@@@@@@@@@@@@@@@@@@@@@@@@@@@",
"@@@@@@@@@@@@@@@@@@@@@@@@@@@@@@@@",
"@@@@@@@@@@@@@@@@@@@@@@@@@@@@@@@@",
"@@@@@@@@@@@@@@@@@@@@@@@@@@@@@@@@",
"@@@@@@@@@@@@@@@@@@@@@@@@@@@@@@@@",
"@@@@@@@@@@@@@@@@@@@@@@@@@@@@@@@@",
"@@@@@@@@@@@@@@@@@@@@@@@@@@@@@@@@",
"@@@@@@@@@@@@...@@.@@@@@@@@@@@@@@",
"@@@@@@@@@@@.ooo..o.@@@@@@@@@@@@@",
"@@@@@@@@@@.ooo...o.@@@@@@@@@@@@@",
"@@@@@@@@@@.ooooooo...@@@@@@@@@@@",
"@@@@@@@@...ooooooo.oo.@@@@@@@@@@",
"@@@@@@@.ooo.oOOOOooo.@@@@@@@@@@@",
"@@@@@@@@..ooOOOOOOo....@@@@@@@@@",
"@@@@@@@@@@.oO+OO+Oooo.@@@@@@@@@@",
"@@@@@@@@@@.oO+OO+Oo..@@@@@@@@@@@",
"@@@@@@@@@.oooOOOOooo.@@@@@@@@@@@",
"@@@@@@@@.oo.ooooooo.@@@@@@@@@@@@",
"@@@@@@@@@...ooOOOoo.@@@@@@@@@@@@",
"@@@@@@@@@@@@.ooooo.@@@@@@@@@@@@@",
"@@@@@@@@@@@@.ooooo.@@@@@@@@@@@@@",
"@@@@@@@@@   .ooooo.  @@@@@@@@@@@",
"@@@@@@@@ XXXX.ooo.XXX @@@@@@@@@@",
"@@@@@@@ XXXXX.ooo.XXXX @@@@@@@@@",
"@@@@@@@ XXXXXX.o.XXXXX @@@@@@@@@",
"@@@@@@@ XX.XXX.o.XX.XX @@@@@@@@@",
"@@@@@@@ XXX.XX...XX.XX @@@@@@@@@",
"@@@@@@@@ XX.XXX XXX.XX @@@@@@@@@",
"@@@@@@@@ XX.XXX XXX.XX @@@@@@@@@",
"@@@@@@@@ XX.XXX XXX.XX @@@@@@@@@",
"@@@@@@@@ XXX.XX XXX.XX @@@@@@@@@",
"@@@@@@@@ XXX.XX  XX.XX @@@@@@@@@",
"@@@@@@@@@ X.XXX  XX.XX @@@@@@@@@",
"@@@@@@@@@@ .XXX  XXX  @@@@@@@@@@",
"@@@@@@@@@@ XXX    XX @@@@@@@@@@@",
"@@@@@@@@@@ XX     XX @@@@@@@@@@@",
"@@@@@@@@@@ XX      X @@@@@@@@@@@",
"@@@@@@@@@@ X         @@@@@@@@@@@",
"@@@@@@@@@@   @@  XX  @@@@@@@@@@@",
"@@@@@@@@@@ @@@@@    @@@@@@@@@@@@",
"@@@@@@@@@@@@@@@@@@@@@@@@@@@@@@@@",
"@@@@@@@@@@@@@@@@@@@@@@@@@@@@@@@@"
};
