/* XPM */
static char * 22_xpm[] = {
"64 64 393 2",
"  	c None",
". 	c #1C2237",
"+ 	c #1B2236",
"@ 	c #191F34",
"# 	c #3C3D50",
"$ 	c #3F4053",
"% 	c #404154",
"& 	c #454458",
"* 	c #383A4D",
"= 	c #37394C",
"- 	c #3F3F53",
"; 	c #34364A",
"> 	c #2F3246",
", 	c #666073",
"' 	c #7F7687",
") 	c #766E80",
"! 	c #6E687A",
"~ 	c #37384C",
"{ 	c #181E33",
"] 	c #787082",
"^ 	c #3B3C50",
"/ 	c #171E32",
"( 	c #1B2135",
"_ 	c #38394D",
": 	c #6A6476",
"< 	c #70697B",
"[ 	c #787081",
"} 	c #615C6F",
"| 	c #2A2E42",
"1 	c #24293D",
"2 	c #1B2136",
"3 	c #726B7D",
"4 	c #3B3C4F",
"5 	c #1E2338",
"6 	c #3A3B4F",
"7 	c #776F81",
"8 	c #726A7C",
"9 	c #71697B",
"0 	c #696374",
"a 	c #514F61",
"b 	c #575465",
"c 	c #615C6E",
"d 	c #6F687A",
"e 	c #1C2236",
"f 	c #192034",
"g 	c #12192E",
"h 	c #776F80",
"i 	c #756D7E",
"j 	c #696376",
"k 	c #6B657A",
"l 	c #746C81",
"m 	c #726B80",
"n 	c #6F697E",
"o 	c #756E81",
"p 	c #716A7B",
"q 	c #313447",
"r 	c #272B3F",
"s 	c #444457",
"t 	c #35374B",
"u 	c #303347",
"v 	c #313448",
"w 	c #292D41",
"x 	c #3D3D51",
"y 	c #696375",
"z 	c #756D7C",
"A 	c #736B7A",
"B 	c #726A79",
"C 	c #766D7D",
"D 	c #6F687B",
"E 	c #34374B",
"F 	c #49485B",
"G 	c #84798B",
"H 	c #736C7D",
"I 	c #1A2035",
"J 	c #736B7D",
"K 	c #545163",
"L 	c #55536A",
"M 	c #97888B",
"N 	c #B69F8F",
"O 	c #AE998E",
"P 	c #AC978D",
"Q 	c #B7A091",
"R 	c #A2908B",
"S 	c #6A6479",
"T 	c #615D72",
"U 	c #7A7182",
"V 	c #333649",
"W 	c #36384C",
"X 	c #6A6475",
"Y 	c #756D80",
"Z 	c #504E60",
"` 	c #8B7D7F",
" .	c #B39B90",
"..	c #B89E8F",
"+.	c #BBA392",
"@.	c #BBA091",
"#.	c #B3998D",
"$.	c #9D8B88",
"%.	c #837886",
"&.	c #575469",
"*.	c #2A2E41",
"=.	c #181F33",
"-.	c #1F2539",
";.	c #2D3144",
">.	c #282C40",
",.	c #121A2E",
"'.	c #3E3F51",
").	c #5F5B6F",
"!.	c #7B7283",
"~.	c #B29B90",
"{.	c #C5B097",
"].	c #BAAA96",
"^.	c #B39C8F",
"/.	c #B1998E",
"(.	c #B8A694",
"_.	c #C3B199",
":.	c #BDA492",
"<.	c #847882",
"[.	c #4D4C63",
"}.	c #414153",
"|.	c #4B495C",
"1.	c #252A3E",
"2.	c #2B2E42",
"3.	c #161D30",
"4.	c #2F3248",
"5.	c #A7908B",
"6.	c #D4C9A4",
"7.	c #D5D1A9",
"8.	c #B49D8F",
"9.	c #AD928A",
"0.	c #CCC2A2",
"a.	c #DBD7AB",
"b.	c #B69E90",
"c.	c #7C707D",
"d.	c #666277",
"e.	c #746C7D",
"f.	c #716A7C",
"g.	c #3A3B4E",
"h.	c #2E3248",
"i.	c #AC948D",
"j.	c #D6CAA4",
"k.	c #D2CFA8",
"l.	c #AC918A",
"m.	c #C9C0A1",
"n.	c #DBD6AB",
"o.	c #BAA291",
"p.	c #867884",
"q.	c #46475D",
"r.	c #262B3E",
"s.	c #0F172C",
"t.	c #635E71",
"u.	c #7F7380",
"v.	c #AC9D90",
"w.	c #CEB99C",
"x.	c #BFA593",
"y.	c #BBA191",
"z.	c #CDB69B",
"A.	c #C0AF98",
"B.	c #877B81",
"C.	c #6C6578",
"D.	c #4A495C",
"E.	c #24283D",
"F.	c #676174",
"G.	c #7D7385",
"H.	c #565365",
"I.	c #5C5971",
"J.	c #837681",
"K.	c #9D8987",
"L.	c #958686",
"M.	c #998686",
"N.	c #887880",
"O.	c #666177",
"P.	c #6A6578",
"Q.	c #6F6779",
"R.	c #585568",
"S.	c #2D3145",
"T.	c #2B2F43",
"U.	c #7C7385",
"V.	c #4E4C5F",
"W.	c #23283C",
"X.	c #625D6E",
"Y.	c #696477",
"Z.	c #726B7B",
"`.	c #70697A",
" +	c #47465A",
".+	c #181F34",
"++	c #303346",
"@+	c #323448",
"#+	c #696274",
"$+	c #726B81",
"%+	c #7A707C",
"&+	c #B49D90",
"*+	c #B9A191",
"=+	c #A5918B",
"-+	c #6E6779",
";+	c #7B7386",
">+	c #4D4B5D",
",+	c #1F2438",
"'+	c #3C3C50",
")+	c #565367",
"!+	c #7D7381",
"~+	c #8E8084",
"{+	c #8F8084",
"]+	c #908184",
"^+	c #8B7D84",
"/+	c #4A495D",
"(+	c #35374A",
"_+	c #161D32",
":+	c #464558",
"<+	c #787083",
"[+	c #645F76",
"}+	c #625E75",
"|+	c #6B657B",
"1+	c #21263A",
"2+	c #4C4B5E",
"3+	c #6F6879",
"4+	c #393A4E",
"5+	c #1B2034",
"6+	c #16161F",
"7+	c #15151D",
"8+	c #1D2133",
"9+	c #525064",
"0+	c #7B7284",
"a+	c #6D6678",
"b+	c #746C7E",
"c+	c #756D7F",
"d+	c #171A29",
"e+	c #16161D",
"f+	c #15161E",
"g+	c #13131B",
"h+	c #282D40",
"i+	c #2D334A",
"j+	c #2A2F44",
"k+	c #2B3146",
"l+	c #313852",
"m+	c #373B52",
"n+	c #4C4B5D",
"o+	c #6D6779",
"p+	c #655F71",
"q+	c #424255",
"r+	c #353A53",
"s+	c #2E354D",
"t+	c #2C3146",
"u+	c #2C3147",
"v+	c #1A1C27",
"w+	c #232636",
"x+	c #38405D",
"y+	c #404A6C",
"z+	c #3C4564",
"A+	c #3D4666",
"B+	c #404868",
"C+	c #222A42",
"D+	c #303143",
"E+	c #7A7183",
"F+	c #645E6F",
"G+	c #1F2437",
"H+	c #2F3753",
"I+	c #3E4768",
"J+	c #1C1E2A",
"K+	c #121117",
"L+	c #202332",
"M+	c #3D4767",
"N+	c #39425F",
"O+	c #363E5A",
"P+	c #373F5C",
"Q+	c #373F5B",
"R+	c #3B4360",
"S+	c #2B324B",
"T+	c #5C586A",
"U+	c #2C3044",
"V+	c #313954",
"W+	c #3A4360",
"X+	c #373E5B",
"Y+	c #373E5A",
"Z+	c #292E42",
"`+	c #14141C",
" @	c #202331",
".@	c #3B4362",
"+@	c #38405E",
"@@	c #39415F",
"#@	c #383F5C",
"$@	c #38405C",
"%@	c #3A425F",
"&@	c #2E3145",
"*@	c #686274",
"=@	c #282D43",
"-@	c #39415E",
";@	c #3E4767",
">@	c #282D41",
",@	c #14151C",
"'@	c #202231",
")@	c #2F354D",
"!@	c #2E344B",
"~@	c #3A4361",
"{@	c #3D4563",
"]@	c #2F3854",
"^@	c #1C243A",
"/@	c #3A4260",
"(@	c #3B4463",
"_@	c #323851",
":@	c #2F344C",
"<@	c #30364E",
"[@	c #333A54",
"}@	c #313853",
"|@	c #292D40",
"1@	c #545165",
"2@	c #454457",
"3@	c #262B40",
"4@	c #2E334A",
"5@	c #3E4868",
"6@	c #1F2231",
"7@	c #343B56",
"8@	c #282B3E",
"9@	c #343B55",
"0@	c #3B4464",
"a@	c #353C57",
"b@	c #2A2E43",
"c@	c #23273B",
"d@	c #24283C",
"e@	c #3B4462",
"f@	c #2A2F43",
"g@	c #1C1D29",
"h@	c #323953",
"i@	c #333953",
"j@	c #394260",
"k@	c #1B1D29",
"l@	c #242839",
"m@	c #161720",
"n@	c #313851",
"o@	c #3E4869",
"p@	c #323952",
"q@	c #343C56",
"r@	c #25283A",
"s@	c #3A4261",
"t@	c #1A1B26",
"u@	c #323852",
"v@	c #272B3E",
"w@	c #363D59",
"x@	c #3C4463",
"y@	c #191A25",
"z@	c #1B1C28",
"A@	c #25293A",
"B@	c #2B3045",
"C@	c #262A3C",
"D@	c #3F4869",
"E@	c #363E59",
"F@	c #282C3F",
"G@	c #1E202D",
"H@	c #181922",
"I@	c #3D4665",
"J@	c #272C3F",
"K@	c #0F0E12",
"L@	c #1C1D2A",
"M@	c #3C4665",
"N@	c #2D3349",
"O@	c #434D70",
"P@	c #111016",
"Q@	c #353C58",
"R@	c #272B3D",
"S@	c #353D58",
"T@	c #1F2230",
"U@	c #111117",
"V@	c #30354D",
"W@	c #2B2F44",
"X@	c #181923",
"Y@	c #1D1F2B",
"Z@	c #101015",
"`@	c #3C4565",
" #	c #171720",
".#	c #191B26",
"+#	c #232637",
"@#	c #0E0D11",
"##	c #121218",
"$#	c #262A3D",
"%#	c #14141B",
"&#	c #15151E",
"*#	c #424C6F",
"=#	c #191B25",
"-#	c #1F212F",
";#	c #25293B",
">#	c #121219",
",#	c #191A24",
"'#	c #181924",
")#	c #171721",
"!#	c #181A24",
"~#	c #2E344C",
"{#	c #0F0F13",
"]#	c #212434",
"^#	c #2B3046",
"/#	c #1A1B27",
"(#	c #171822",
"_#	c #1E202E",
":#	c #13131A",
"                                                                                                                                ",
"                                                                                                                                ",
"                                                                                                                                ",
"                                                                                                                                ",
"                                                                                                                                ",
"                                                                                                                                ",
"                                                                                                                                ",
"                                                                                                                                ",
"                                                                                                                                ",
"                                                                                                                                ",
"                                                                                                                                ",
"                                                                                                                                ",
"                                                                                                                                ",
"                                                                                                                                ",
"                                                                                                                                ",
"                                                                                                                                ",
"                                                                                                                                ",
"                                                    . . + @       .                                                             ",
"                                                    # $ % & *   = - ;                                                           ",
"                                                  > , ' ) ! ~ { # ] ^ /                                                         ",
"                                              ( _ : < [ } | 1 2 = 3 4 /                                                         ",
"                                              5 6 7 8 9 0 a b b c d # e . f                                                     ",
"                                              g ~ h i j k l m n o p q r s s t                                                   ",
"                                          u v w x y ! p z A A B C D E F G H * I                                                 ",
"                                      ( 6 J < 3 K w L M N O P Q R S T U : V                                                     ",
"                                        W & - X Y Z `  ...+.+.@.#.$.%.&.*.=.-.;.>.                                              ",
"                                          @ ,.'.).!.~.{.].^./.(._.:.<.[.}.|.u 1.2.                                              ",
"                                              3.4.8 5.6.7.8.9.0.a.b.c.d.e.f.g.                                                  ",
"                                              3.h.8 i.j.k.^.l.m.n.o.p.q.r.u                                                     ",
"                                            s.g.t.[ u.v.w.x.y.z.A.B.9 C.D.E.                                                    ",
"                                            # F.G.H.I.J.K.L.L.M.N.O.P.Q.R.S.                                                    ",
"                                          T.c U.V.W.X.] Y.p p Z.Z.`.G. +.+                                                      ",
"                                            ++@+>.w #+$+%+&+&+*+=+-+;+>+,+                                                      ",
"                                                    '+)+!+~+{+]+^+< /+(+                                                        ",
"                                                    _+:+<+[+[+}+|+< u                                                           ",
"                                                    1+2+!.`.`.3+i 3 4+5+                                                        ",
"                                            6+6+7+6+8+9+0+-+d a+b+c+^ d+e+f+                                                    ",
"                                          g+h+i+j+k+l+m+n+o+< 8 p+q+r+s+t+u+v+                                                  ",
"                                        v+w+x+y+z+A+B+C+D+h f.E+F+G+H+B+I+I+>.J+                                                ",
"                                      K+L+M+N+O+P+Q+R+S+_ : < 3 T+U+V+W+X+Y+y+Z+`+                                              ",
"                                      K+ @.@N++@@@#@$@%@l+&@*@K =@Q++@-@@@#@;@>@,@                                              ",
"                                      K+'@-@.@)@!@~@x+{@]@W.3+K ^@/@(@_@:@P+A+>.,@                                              ",
"                                      K+L+A+(@<@u+[@Q+.@}@|@1@2@3@#@(@4@>.P+5@>.,@                                              ",
"                                      K+6@Q+x+(@7@8@9@0@a@b@c@d@4@x+e@)@f@P+I+>.,@                                              ",
"                                          g@h@I+i@>.a@j@@@Q+k@l@(@$@~@)@b@P+I+>.,@                                              ",
"                                          m@n@o@p@Z+q@-@~@/@v+r@I+$@s@)@b@P+I+>.,@                                              ",
"                                          t@p@5@u@v@w@~@@@x+k@l@x@$@~@)@b@P+I+>.,@                                              ",
"                                          y@u@I+i@b@9@+@/@x+z@A@A+$@s@)@b@P+I+>.,@                                              ",
"                                          y@n@(@$@O+B@<@z+x+v+C@D@$@/@)@b@P+I+>.,@                                              ",
"                                          y@E@;@$@(@F@u+A+x+G@H@Z+x+(@)@f@O+I@F@,@                                              ",
"                                          y@J@w@.@u@4@i@e@#@'@K@L@P+M@N@w s@O@w ,@                                              ",
"                                            P@h+Q@R@S@/@N+-@T@U@L+-@z+V@W@a@/@v@`+                                              ",
"                                              X@Y@>.O+x+@@~@L+Z@ @~@/@N+p@k@y@k@                                                ",
"                                              K@k@7@P+`@P+w+y@ #.#+#p@D@p@6+@#                                                  ",
"                                              ##L+(@s@7@$#%#6+v+&#%#n@*#)@=#                                                    ",
"                                              U@-#@@;@;#>#y@,#'#)#!#4@o@n@!#                                                    ",
"                                              K+-#-@D@F@g+'#X@X@X@y@m@~#O+!#                                                    ",
"                                              {#]#5@^#/#X@X@X@!#(#g+@#v+w+X@                                                    ",
"                                              >#_#u+y@>#v+X@!# #z@C@f@G@:#X@                                                    ",
"                                              ,#(#f+X@      .#7+_#X+`@h+6+X@                                                    ",
"                                              X@X@            (#,#k@J+.#H@                                                      ",
"                                                                                                                                ",
"                                                                                                                                ",
"                                                                                                                                "};
