/* XPM */
static char * 23_xpm[] = {
"64 64 399 2",
"  	c None",
". 	c #24293D",
"+ 	c #24283D",
"@ 	c #23283C",
"# 	c #22273B",
"$ 	c #23283D",
"% 	c #1D2338",
"& 	c #4C4A5D",
"* 	c #565365",
"= 	c #565366",
"- 	c #5D596B",
"; 	c #3D3D51",
"> 	c #171E32",
", 	c #3C3D51",
"' 	c #545164",
") 	c #383A4D",
"! 	c #2D3144",
"~ 	c #404053",
"{ 	c #6C6678",
"] 	c #847A8B",
"^ 	c #756D7F",
"/ 	c #5A5769",
"( 	c #2E3145",
"_ 	c #161D31",
": 	c #7C7385",
"< 	c #3B3C50",
"[ 	c #1A2135",
"} 	c #393B4E",
"| 	c #7A7183",
"1 	c #71697B",
"2 	c #736B7D",
"3 	c #5E596C",
"4 	c #272B3F",
"5 	c #2C2F43",
"6 	c #292D41",
"7 	c #3F4053",
"8 	c #6F687A",
"9 	c #3B3C4F",
"0 	c #1E2338",
"a 	c #726A7C",
"b 	c #726B7D",
"c 	c #6F6879",
"d 	c #696374",
"e 	c #6A6475",
"f 	c #70697B",
"g 	c #1F2539",
"h 	c #25293D",
"i 	c #192034",
"j 	c #1C2236",
"k 	c #11192E",
"l 	c #37384C",
"m 	c #7B7284",
"n 	c #786F80",
"o 	c #686276",
"p 	c #676278",
"q 	c #6E677D",
"r 	c #6D677D",
"s 	c #6A657B",
"t 	c #726B80",
"u 	c #736B7C",
"v 	c #2D3044",
"w 	c #2D3145",
"x 	c #5C586A",
"y 	c #5C586B",
"z 	c #37394D",
"A 	c #35374B",
"B 	c #454558",
"C 	c #414154",
"D 	c #434255",
"E 	c #524F62",
"F 	c #625E74",
"G 	c #7C7280",
"H 	c #8A7D82",
"I 	c #857980",
"J 	c #84787F",
"K 	c #887B80",
"L 	c #827781",
"M 	c #6A6479",
"N 	c #404156",
"O 	c #857B8C",
"P 	c #645F71",
"Q 	c #36384C",
"R 	c #1B2135",
"S 	c #3A3B4F",
"T 	c #6E687A",
"U 	c #7C7384",
"V 	c #5F5B6D",
"W 	c #5D596D",
"X 	c #A3908E",
"Y 	c #BFA592",
"Z 	c #B9A191",
"` 	c #B8A091",
" .	c #C1A794",
"..	c #AC968D",
"+.	c #756C7C",
"@.	c #70697C",
"#.	c #787081",
"$.	c #303346",
"%.	c #5A5668",
"&.	c #766E82",
"*.	c #676173",
"=.	c #A18F89",
"-.	c #B9A091",
";.	c #B39A8E",
">.	c #B69F90",
",.	c #B7A091",
"'.	c #B49C8F",
").	c #B69D8F",
"!.	c #AF9A8E",
"~.	c #867B86",
"{.	c #48485E",
"].	c #212639",
"^.	c #21263A",
"/.	c #2A2E42",
"(.	c #333548",
"_.	c #4C4B60",
":.	c #797081",
"<.	c #AD968E",
"[.	c #CBB99C",
"}.	c #C5BA9E",
"|.	c #B49D8F",
"1.	c #B0978D",
"2.	c #C0B199",
"3.	c #CDC0A0",
"4.	c #BAA291",
"5.	c #807480",
"6.	c #5B586E",
"7.	c #605B6C",
"8.	c #635E70",
"9.	c #34374A",
"0.	c #282D42",
"a.	c #716A7B",
"b.	c #AB928C",
"c.	c #D8CEA6",
"d.	c #D7D5AB",
"e.	c #B39C8F",
"f.	c #AC918A",
"g.	c #CDC5A3",
"h.	c #DFDCAE",
"i.	c #BAA191",
"j.	c #80737F",
"k.	c #5C5A6F",
"l.	c #5D596A",
"m.	c #615D6F",
"n.	c #25293C",
"o.	c #3C3D52",
"p.	c #746C7E",
"q.	c #A38D8A",
"r.	c #CDC09F",
"s.	c #D1C9A5",
"t.	c #B69E90",
"u.	c #B0958C",
"v.	c #CABD9F",
"w.	c #D5CCA6",
"x.	c #AF998E",
"y.	c #827683",
"z.	c #4A495F",
"A.	c #23283B",
"B.	c #22273C",
"C.	c #191F34",
"D.	c #454458",
"E.	c #6E677A",
"F.	c #9B8B88",
"G.	c #C5AC96",
"H.	c #BBA392",
"I.	c #B19D90",
"J.	c #756D7C",
"K.	c #6A6477",
"L.	c #2B2F43",
"M.	c #504E61",
"N.	c #404154",
"O.	c #5A586D",
"P.	c #7C7180",
"Q.	c #85777F",
"R.	c #7C727E",
"S.	c #7D727E",
"T.	c #766B7B",
"U.	c #696378",
"V.	c #6F697C",
"W.	c #424256",
"X.	c #555265",
"Y.	c #625D70",
"Z.	c #3D3E52",
"`.	c #21263B",
" +	c #676172",
".+	c #776F84",
"++	c #696477",
"@+	c #857981",
"#+	c #867981",
"$+	c #877B82",
"%+	c #817780",
"&+	c #70697A",
"*+	c #817789",
"=+	c #474659",
"-+	c #151C31",
";+	c #21273B",
">+	c #2C3044",
",+	c #615C6D",
"'+	c #6B657A",
")+	c #7F747F",
"!+	c #B79F91",
"~+	c #BCA492",
"{+	c #A8948C",
"]+	c #6F687C",
"^+	c #4B4A5C",
"/+	c #4D4C5F",
"(+	c #7A7182",
"_+	c #766D7C",
":+	c #766E7C",
"<+	c #766D7B",
"[+	c #79707F",
"}+	c #3C3D50",
"|+	c #1A2136",
"1+	c #464658",
"2+	c #776F82",
"3+	c #676277",
"4+	c #686278",
"5+	c #666176",
"6+	c #6D677B",
"7+	c #323448",
"8+	c #1F2436",
"9+	c #7E7586",
"0+	c #71697A",
"a+	c #766E7F",
"b+	c #776E80",
"c+	c #181C2C",
"d+	c #1A1C27",
"e+	c #1B1D28",
"f+	c #1A1B26",
"g+	c #1B1C28",
"h+	c #4D4C61",
"i+	c #6E6779",
"j+	c #6A6476",
"k+	c #3A3C52",
"l+	c #1C2030",
"m+	c #1B1C26",
"n+	c #171720",
"o+	c #2F364D",
"p+	c #38405D",
"q+	c #343B55",
"r+	c #353C57",
"s+	c #39415E",
"t+	c #2C324B",
"u+	c #3C3C4F",
"v+	c #605B6D",
"w+	c #2F3246",
"x+	c #323954",
"y+	c #38405C",
"z+	c #343C56",
"A+	c #353D58",
"B+	c #39415F",
"C+	c #272B3E",
"D+	c #14151C",
"E+	c #1E202D",
"F+	c #2C3248",
"G+	c #3D4665",
"H+	c #3A4361",
"I+	c #3B4463",
"J+	c #3F4766",
"K+	c #222A42",
"L+	c #323345",
"M+	c #797182",
"N+	c #666072",
"O+	c #212538",
"P+	c #2E3652",
"Q+	c #40496A",
"R+	c #38405E",
"S+	c #31374F",
"T+	c #3E4767",
"U+	c #2B3045",
"V+	c #15151E",
"W+	c #121117",
"X+	c #202332",
"Y+	c #3F496A",
"Z+	c #394260",
"`+	c #373E5B",
" @	c #373F5B",
".@	c #303751",
"+@	c #363A4F",
"@@	c #575467",
"#@	c #6D6678",
"$@	c #696375",
"%@	c #4C4A5E",
"&@	c #30354C",
"*@	c #333B56",
"=@	c #3B4462",
"-@	c #333A54",
";@	c #26293B",
">@	c #373E5A",
",@	c #101015",
"'@	c #202231",
")@	c #39425F",
"!@	c #373F5C",
"~@	c #3D4563",
"{@	c #303854",
"]@	c #514E60",
"^@	c #1D253B",
"/@	c #3A425F",
"(@	c #383F5C",
"_@	c #2C3147",
":@	c #171821",
"<@	c #3A4261",
"[@	c #2E344B",
"}@	c #3C4462",
"|@	c #303853",
"1@	c #272C40",
"2@	c #6D6677",
"3@	c #555163",
"4@	c #21273E",
"5@	c #333953",
"6@	c #3C4565",
"7@	c #30364E",
"8@	c #191A25",
"9@	c #2D3248",
"0@	c #2A2E43",
"a@	c #3A4260",
"b@	c #282B3E",
"c@	c #404155",
"d@	c #37394C",
"e@	c #272C41",
"f@	c #323852",
"g@	c #404A6C",
"h@	c #2C3148",
"i@	c #2B2F44",
"j@	c #2E334B",
"k@	c #1C2132",
"l@	c #333952",
"m@	c #323953",
"n@	c #3D4767",
"o@	c #313750",
"p@	c #2C3046",
"q@	c #25293A",
"r@	c #323952",
"s@	c #3E4868",
"t@	c #363E5A",
"u@	c #242839",
"v@	c #3D4666",
"w@	c #313850",
"x@	c #2B3046",
"y@	c #25283A",
"z@	c #282C40",
"A@	c #1B1D29",
"B@	c #161720",
"C@	c #2F354D",
"D@	c #3B4362",
"E@	c #3C4564",
"F@	c #2E334A",
"G@	c #1C1E2A",
"H@	c #272B3D",
"I@	c #353C58",
"J@	c #2A2F44",
"K@	c #242738",
"L@	c #333A53",
"M@	c #191A24",
"N@	c #1D1F2C",
"O@	c #262A3D",
"P@	c #404A6B",
"Q@	c #313851",
"R@	c #0E0D11",
"S@	c #191B25",
"T@	c #2D3349",
"U@	c #1D202D",
"V@	c #121218",
"W@	c #1F2230",
"X@	c #100F14",
"Y@	c #181A24",
"Z@	c #111117",
"`@	c #323851",
" #	c #181923",
".#	c #14151D",
"+#	c #3C4463",
"@#	c #15151D",
"##	c #171721",
"$#	c #15161E",
"%#	c #181924",
"&#	c #2D3249",
"*#	c #3F4869",
"=#	c #30374F",
"-#	c #2E344C",
";#	c #181822",
">#	c #16161F",
",#	c #1F212F",
"'#	c #3E4869",
")#	c #2A2F43",
"!#	c #0F0F13",
"~#	c #212434",
"{#	c #2B3146",
"]#	c #14141B",
"^#	c #131319",
"/#	c #222636",
"(#	c #121219",
"_#	c #1E202E",
":#	c #13131A",
"<#	c #1C1D29",
"[#	c #171822",
"}#	c #191B26",
"|#	c #14141C",
"1#	c #202331",
"2#	c #212332",
"                                                                                                                                ",
"                                                                                                                                ",
"                                                                                                                                ",
"                                                                                                                                ",
"                                                                                                                                ",
"                                                                                                                                ",
"                                                                                                                                ",
"                                                                                                                                ",
"                                                                                                                                ",
"                                                                                                                                ",
"                                                                                                                                ",
"                                                                                                                                ",
"                                                                                                                                ",
"                                                                                                                                ",
"                                                                                                                                ",
"                                                                                                                                ",
"                                                    . + @ #       $                                                             ",
"                                                  % & * = - ; > , ' )                                                           ",
"                                                ! ~ { ] ^ / ( _ ) : < >                                                         ",
"                                              [ } | 1 2 3 4 5 6 7 8 9 >                                                         ",
"                                              0 } a b 8 c d e d 8 f 9 g h #                                                     ",
"                                          i j k l m n o p q r s t u v w x y z                                                   ",
"                                        A B B C D E F G H I J K L M N - O P Q                                                   ",
"                                      R S 2 T U V 6 W X Y Z `  ...+.@.#.= #                                                     ",
"                                          $.6 %.&.*.=.-.;.>.,.'.).!.~.{.].^.4 /.6                                               ",
"                                              (._.:.<.[.}.|.1.2.3.4.5.6.7.8.9.#                                                 ",
"                                                0.a.b.c.d.e.f.g.h.i.j.k.l.m.S                                                   ",
"                                              n.o.p.q.r.s.t.u.v.w.x.y.z.A.B.                                                    ",
"                                            C.D.^ p.E.F.G.H.-.G.I.J.K.:.- 6                                                     ",
"                                          L.M.U a N.O.P.Q.R.R.S.T.U.V.- W.                                                      ",
"                                          L.X.Y.Z.`. +.+++@+#+$+%+&+*+=+-+                                                      ",
"                                            ;+@ `.>+,+'+)+!+,.~+{+T ]+^+@                                                       ",
"                                                    4 /+(+_+:+<+[+1 }+#                                                         ",
"                                                    |+1+2+3+4+5+6+8 7+                                                          ",
"                                                    8+M.9+&+0+c a+b+9 c+                                                        ",
"                                            d+e+f+g+].h+1 T 8 i+a.j+k+l+m+g+g+d+                                                ",
"                                          n+o+p+q+r+s+t+u+E.f p.v+w+x+y+z+A+B+C+D+                                              ",
"                                        E+F+B+G+H+I+J+K+L+M+a m N+O+P+Q+R+S+T+U+V+                                              ",
"                                      W+X+Y+Z+`+R+ @s+.@+@@@#@$@%@&@*@=@-@;@>@6 ,@                                              ",
"                                      W+'@B+)@`+ @p+!@~@{@@ $@]@^@/@)@)@r+6 (@_@:@                                              ",
"                                      W+'@<@I+[@_@s+p+}@|@1@2@3@4@s+s+Z+r+6 5@6@7@8@                                            ",
"                                      W+'@<@I+9@0@p+p+a@-@b@c@d@e@p+s+a@r+6 f@g@q+8@                                            ",
"                                      W+'@<@I+h@i@H+s+p+ @j@k@].l@p+p+a@r+6 m@n@o@8@                                            ",
"                                      W+'@<@I+[@p@ @s+!@H+)@e+q@n@p+!@<@r+6 r@s@f@8@                                            ",
"                                      W+'@B+B+B+r@6 t@a@B+s+g+u@v@p+!@<@r+6 m@T+w@8@                                            ",
"                                      W+X+Y+B+p+p+o@x@5@v@p+g+y@6@p+!@<@r+z@S+g@r+8@                                            ",
"                                        E+F+Z+a@p+H+[@9@!@p+A@u@6@p+!@a@r+0@!@B+6 8@                                            ",
"                                          B@C@D@p+p+E@F@U+s+G@u@6@p+!@H+z+H@I@C+W+                                              ",
"                                            :@J@Y+B+E@F@U+s+G@K@E@p+ @I+L@f+M@f+:@                                              ",
"                                              N@O@9@_@[@>@!@d+C+P@p+>@E@Q@:@R@                                                  ",
"                                                S@T@_@r@T+D@N@U@m@p+(@E@Q@8@                                                    ",
"                                              V@X+=@I+!@s+A+W@X@N@p+B+I+Q@Y@                                                    ",
"                                              Z@W@a@B+D@`@d+ #.#E+!@s++#Q@Y@                                                    ",
"                                              Z@W@B+R+D@C@@###$#'@E@B+H+`@Y@                                                    ",
"                                              Z@W@)@p+6@q+%#:@n+A@&#R+*#=#Y@                                                    ",
"                                              Z@W@)@a@a@-#;#B@f+>#$#&#*#Q@Y@                                                    ",
"                                              W+,#s+'#)#B@ # # # #%#$#[@t@Y@                                                    ",
"                                              !#~#s@{# #$# # #Y@:@]#^#U@/# #                                                    ",
"                                              (#_#_@M@:#<# #%#B@<#O@U@@#V+ #                                                    ",
"                                              M@[#$# #      }#|#1#(@2#|#f+ #                                                    ",
"                                               # #            [#M@A@M@[#                                                        ",
"                                                                                                                                ",
"                                                                                                                                ",
"                                                                                                                                "};
