/* XPM */
static char * 24_xpm[] = {
"64 64 263 2",
"  	c None",
". 	c #2E3145",
"+ 	c #2E3245",
"@ 	c #303346",
"# 	c #2F3246",
"$ 	c #2D3044",
"% 	c #1E2338",
"& 	c #4F4D60",
"* 	c #645F71",
"= 	c #2A2E41",
"- 	c #1E2438",
"; 	c #514E61",
"> 	c #736C7E",
", 	c #676173",
"' 	c #70697B",
") 	c #464559",
"! 	c #192034",
"~ 	c #545164",
"{ 	c #6E6779",
"] 	c #202539",
"^ 	c #1C2236",
"/ 	c #2B2F43",
"( 	c #4D4C5F",
"_ 	c #756D7F",
": 	c #7D7485",
"< 	c #666173",
"[ 	c #4A495C",
"} 	c #2A2E42",
"| 	c #1F2539",
"1 	c #514F61",
"2 	c #6C6578",
"3 	c #414154",
"4 	c #424256",
"5 	c #37394C",
"6 	c #404154",
"7 	c #6D6679",
"8 	c #6C6678",
"9 	c #676174",
"0 	c #2B2E42",
"a 	c #303347",
"b 	c #22273B",
"c 	c #4C4B5E",
"d 	c #787082",
"e 	c #746C7E",
"f 	c #766E7F",
"g 	c #6F687A",
"h 	c #786F81",
"i 	c #605C6E",
"j 	c #292D41",
"k 	c #21263A",
"l 	c #4B495C",
"m 	c #7A7183",
"n 	c #272C40",
"o 	c #444457",
"p 	c #71697B",
"q 	c #6C6577",
"r 	c #7B7284",
"s 	c #686274",
"t 	c #252A3E",
"u 	c #1C2237",
"v 	c #23283C",
"w 	c #21273B",
"x 	c #37394D",
"y 	c #5B576A",
"z 	c #827889",
"A 	c #5E5A6C",
"B 	c #736B7D",
"C 	c #6E687A",
"D 	c #766E80",
"E 	c #535063",
"F 	c #38394D",
"G 	c #5B586A",
"H 	c #615C6F",
"I 	c #555265",
"J 	c #10182D",
"K 	c #21263B",
"L 	c #6D6678",
"M 	c #776F81",
"N 	c #7E7486",
"O 	c #5C586A",
"P 	c #565366",
"Q 	c #282C40",
"R 	c #2D3144",
"S 	c #2C2F43",
"T 	c #776F80",
"U 	c #696375",
"V 	c #34364A",
"W 	c #1A2035",
"X 	c #24293D",
"Y 	c #4B4A5D",
"Z 	c #645E71",
"` 	c #323448",
" .	c #434356",
"..	c #3E3F52",
"+.	c #666073",
"@.	c #6D6779",
"#.	c #797082",
"$.	c #5A5669",
"%.	c #3F3F53",
"&.	c #1B2136",
"*.	c #3B3D50",
"=.	c #726B7D",
"-.	c #3F4053",
";.	c #22283C",
">.	c #313448",
",.	c #625D6F",
"'.	c #48475A",
").	c #35374B",
"!.	c #817788",
"~.	c #605B6E",
"{.	c #6B6577",
"].	c #807688",
"^.	c #4E4C5F",
"/.	c #1F2439",
"(.	c #3D3E51",
"_.	c #464659",
":.	c #5D596B",
"<.	c #797182",
"[.	c #615C6E",
"}.	c #404053",
"|.	c #1D2237",
"1.	c #7E7587",
"2.	c #585567",
"3.	c #726A7C",
"4.	c #2D3145",
"5.	c #191F33",
"6.	c #383A4D",
"7.	c #716A7C",
"8.	c #7D7486",
"9.	c #504E60",
"0.	c #282D41",
"a.	c #272B40",
"b.	c #414155",
"c.	c #20263A",
"d.	c #2E3247",
"e.	c #292F47",
"f.	c #313549",
"g.	c #49485B",
"h.	c #47475A",
"i.	c #282C3F",
"j.	c #24283B",
"k.	c #1C2134",
"l.	c #292C3F",
"m.	c #34374C",
"n.	c #202333",
"o.	c #1C1D29",
"p.	c #202334",
"q.	c #1D2236",
"r.	c #1E2337",
"s.	c #25283B",
"t.	c #2E344B",
"u.	c #2F354C",
"v.	c #32374F",
"w.	c #2C3148",
"x.	c #1F2437",
"y.	c #262B3F",
"z.	c #232535",
"A.	c #181923",
"B.	c #1B1D29",
"C.	c #1E202D",
"D.	c #2D3146",
"E.	c #292D40",
"F.	c #2D3349",
"G.	c #39425F",
"H.	c #394260",
"I.	c #3A4361",
"J.	c #373E5A",
"K.	c #2C3045",
"L.	c #2D3249",
"M.	c #1B1C28",
"N.	c #1A1B26",
"O.	c #1B1D28",
"P.	c #191A25",
"Q.	c #30364F",
"R.	c #38405C",
"S.	c #343B56",
"T.	c #373F5B",
"U.	c #38405E",
"V.	c #38415E",
"W.	c #38405D",
"X.	c #373E5B",
"Y.	c #343C57",
"Z.	c #15161E",
"`.	c #414B6E",
" +	c #3B4462",
".+	c #39415F",
"++	c #3A4260",
"@+	c #39415E",
"#+	c #3B4362",
"$+	c #424C6F",
"%+	c #272B3E",
"&+	c #101015",
"*+	c #323952",
"=+	c #323851",
"-+	c #373F5C",
";+	c #383F5C",
">+	c #2E344C",
",+	c #202332",
"'+	c #313750",
")+	c #3E4767",
"!+	c #333B55",
"~+	c #2A2E43",
"{+	c #30364E",
"]+	c #2B3045",
"^+	c #3C4564",
"/+	c #333953",
"(+	c #292E42",
"_+	c #2F344B",
":+	c #3B4463",
"<+	c #2B3146",
"[+	c #2B2F44",
"}+	c #2C3046",
"|+	c #30354D",
"1+	c #2A2F44",
"2+	c #3C4463",
"3+	c #14141C",
"4+	c #2F354D",
"5+	c #16161F",
"6+	c #1F212F",
"7+	c #31374F",
"8+	c #191924",
"9+	c #242839",
"0+	c #3E4868",
"a+	c #353C58",
"b+	c #0E0D11",
"c+	c #111016",
"d+	c #1F2130",
"e+	c #3F496A",
"f+	c #121117",
"g+	c #0E0D10",
"h+	c #1D1F2D",
"i+	c #292D42",
"j+	c #13131A",
"k+	c #15151D",
"l+	c #232738",
"m+	c #232737",
"n+	c #232637",
"o+	c #1D202D",
"p+	c #171822",
"q+	c #363E5A",
"r+	c #3F4869",
"s+	c #363D59",
"t+	c #161720",
"u+	c #191A24",
"v+	c #14151C",
"w+	c #2F344C",
"x+	c #282D40",
"y+	c #3D4666",
"z+	c #14151D",
"A+	c #424D70",
"B+	c #40496B",
"C+	c #2E344A",
"D+	c #222535",
"E+	c #171720",
"F+	c #262A3D",
"G+	c #181822",
"H+	c #181924",
"I+	c #232636",
"J+	c #3C4565",
"K+	c #212434",
"L+	c #212534",
"M+	c #121218",
"N+	c #121219",
"                                                                                                                                ",
"                                                                                                                                ",
"                                                                                                                                ",
"                                                                                                                                ",
"                                                                                                                                ",
"                                                                                                                                ",
"                                                                                                                                ",
"                                                                                                                                ",
"                                                                                                                                ",
"                                                                                                                                ",
"                                                                                                                                ",
"                                                                                                                                ",
"                                                                                                                                ",
"                                                                                                                                ",
"                                                                                                                                ",
"                                                                                                                                ",
"                                                                                                                                ",
"                                                                                                                                ",
"                                                                                                                                ",
"                                                      . +     @ @ + # $                                                         ",
"                                                    % & * = - ; > , ' ) !                                                       ",
"                                                    % ~ { ] ^ / ( _ : < [ }                                                     ",
"                                                    | 1 2 3 4 5 6 7 8 : 9 0                                                     ",
"                                              # a . b c d > e f _ g 8 h i j                                                     ",
"                                            k l m * n o m ' ' p ' g q r s t u v w                                               ",
"                                              x y z A A B { { { { C D E F ~ G H I /                                             ",
"                                              J K ; e D L g g g g C M ( 3 N s O P /                                             ",
"                                          j Q a R S H _ L g g g g g { B T U V W X                                               ",
"                                            b Y m { g g g g g g g g L h Z `                                                     ",
"                                               .o ..+._ @.g g g g g L #.$.^                                                     ",
"                                              W v %.s e @.g g g g g L h L o X                                                   ",
"                                              &.*.B =.{ g g g g g g ' U { d -.;.                                                ",
"                                                  >.,.M L 7 g g g C T '.).f !.[ K                                               ",
"                                                  t ~.D @.h ' {.L { ].^./.(._.(.                                                ",
"                                                  t :.].{.P @.<.e { [.}.t |.!                                                   ",
"                                                  >.,.1.E v 2.' 8 3.)./.4.                                                      ",
"                                              5.6.7.8.9.t 0.a a.b._ (.c.d.                                                      ",
"                                              e.f.g.h.a b i.j.k.l.4 m.n.o.                                                      ",
"                                              o.p.q.r.s.S t.u.v.w.x.y.z.A.                                                      ",
"                                            B.A.C.D.d.E.F.G.H.I.J.K.j L.j M.N.O.                                                ",
"                                          P.Q.R.S.T.T.J.T.U.U.V.W.X.J.T.J.Y.U.Q Z.                                              ",
"                                          P.S.`. +.+.+++.+W.W.R.W.G.++@+.+#+$+%+&+                                              ",
"                                          P.*+T.=+W.W.-+R.W.W.W.W.;+-+U.@+T.H.>+,+                                              ",
"                                          P.S.'+j @+@+R.W.W.W.W.W.W.W.-+T.W.X.)+S.P.                                            ",
"                                          P.!+'+~+@+@+R.W.W.W.W.W.W.I.{+]+W.W.^+/+P.                                            ",
"                                          P.T.S.(+@+@+R.W.W.W.W.W.W.I._+j W.W.:+*+P.                                            ",
"                                          P.<+[+}+V.@+R.W.W.W.W.W.W.I.|+1+W.W.2+*+P.                                            ",
"                                            3+C.{+W.@+R.W.W.W.W.W.W.I.4+~+W.W.2+*+P.                                            ",
"                                            5+6+7+W.@+R.W.W.W.W.W.W.I.4+~+W.W. +=+P.                                            ",
"                                              8+9+.+G.-+W.W.W.W.W.W.I.4+~+W.-+0+a+P.                                            ",
"                                              b+C.H.++-+W.W.W.W.W.W.I.4+~+-+++S.(+P.                                            ",
"                                              c+d+H.++-+W.W.W.W.W.W.I.u.} W.e+%+f+                                              ",
"                                              g+h+++++-+W.W.W.W.W.W.I.t.i+++$+(+j+                                              ",
"                                            k+l+=+W.V.W.W.W.W.W.W.W.W.J.u.m+n+o+p+                                              ",
"                                            3+~+`.-+R.W.W.W.W.W.W.W.q+r+s+k+b+t+u+                                              ",
"                                            v+Q ^+R.W.W.W.W.W.W.W.W.-+I.w+P.                                                    ",
"                                            v+x+y+;+W.W.W.W.W.W.R.T.I.]+p+A.                                                    ",
"                                            z+i.^+R.W.W.W.W.-+q+W.:+A+j c+                                                      ",
"                                            3+1+B+T.-+W.-+R.++y+V.F.C+D+E+                                                      ",
"                                            k+F+I.U.@+@+.+@+a+W.w+5+j+G+H+                                                      ",
"                                            u+t+I+J+y+++y+:+K+G+M.p+                                                            ",
"                                                u+D+D+L+I+D+A.f+                                                                ",
"                                                  M+M+N+f+M+A.                                                                  ",
"                                                                                                                                "};
