/* XPM */
static char * 25_xpm[] = {
"64 64 258 2",
"  	c None",
". 	c #1C2236",
"+ 	c #1A2035",
"@ 	c #1C2237",
"# 	c #3B3C4F",
"$ 	c #3E3F52",
"% 	c #404054",
"& 	c #444457",
"* 	c #35374B",
"= 	c #1E2338",
"- 	c #545164",
"; 	c #6F687A",
"> 	c #262B3F",
", 	c #1D2337",
"' 	c #4A495C",
") 	c #787081",
"! 	c #756D7F",
"~ 	c #827889",
"{ 	c #4F4D60",
"] 	c #525063",
"^ 	c #6A6476",
"/ 	c #22273C",
"( 	c #21263B",
"_ 	c #22273B",
": 	c #3A3B4F",
"< 	c #70697B",
"[ 	c #746C7E",
"} 	c #726B7D",
"| 	c #5B576A",
"1 	c #2A2E42",
"2 	c #192034",
"3 	c #514F62",
"4 	c #716A7C",
"5 	c #565366",
"6 	c #585467",
"7 	c #514E61",
"8 	c #555265",
"9 	c #6E6779",
"0 	c #6D6678",
"a 	c #7B7284",
"b 	c #645E71",
"c 	c #2C2F43",
"d 	c #3D3E51",
"e 	c #464559",
"f 	c #20263A",
"g 	c #48475A",
"h 	c #7A7183",
"i 	c #776F80",
"j 	c #776F81",
"k 	c #797183",
"l 	c #786F81",
"m 	c #6B6577",
"n 	c #656072",
"o 	c #24293D",
"p 	c #4B495C",
"q 	c #82788A",
"r 	c #766E7F",
"s 	c #35374A",
"t 	c #49485B",
"u 	c #726A7C",
"v 	c #5D596B",
"w 	c #303346",
"x 	c #2C3043",
"y 	c #313448",
"z 	c #23283C",
"A 	c #424256",
"B 	c #696375",
"C 	c #797082",
"D 	c #2D3044",
"E 	c #666173",
"F 	c #766E80",
"G 	c #625D6F",
"H 	c #2B2F43",
"I 	c #292D41",
"J 	c #2E3145",
"K 	c #383A4D",
"L 	c #6C6678",
"M 	c #585567",
"N 	c #7F7587",
"O 	c #3F3F53",
"P 	c #3B3C50",
"Q 	c #404053",
"R 	c #645F71",
"S 	c #736B7D",
"T 	c #575467",
"U 	c #11192D",
"V 	c #1B2236",
"W 	c #202539",
"X 	c #4E4C5F",
"Y 	c #24283D",
"Z 	c #34364A",
"` 	c #2B2F42",
" .	c #635E70",
"..	c #776E80",
"+.	c #23283D",
"@.	c #191F34",
"#.	c #2C3044",
"$.	c #5E596C",
"%.	c #5E5A6C",
"&.	c #807788",
"*.	c #5F5A6D",
"=.	c #464558",
"-.	c #272B3F",
";.	c #7C7384",
">.	c #4C4A5D",
",.	c #21263A",
"'.	c #615C6E",
").	c #6D6679",
"!.	c #504E61",
"~.	c #303347",
"{.	c #2F3246",
"].	c #5A5669",
"^.	c #857A8C",
"/.	c #676173",
"(.	c #404154",
"_.	c #6A6376",
":.	c #6D6779",
"<.	c #4D4C5F",
"[.	c #323448",
"}.	c #272C40",
"|.	c #313447",
"1.	c #434356",
"2.	c #20253A",
"3.	c #595568",
"4.	c #605B6D",
"5.	c #37394D",
"6.	c #726A7D",
"7.	c #424255",
"8.	c #1E2438",
"9.	c #282C40",
"0.	c #272B3E",
"a.	c #2B2E42",
"b.	c #32354A",
"c.	c #272B40",
"d.	c #292E43",
"e.	c #151825",
"f.	c #1F2437",
"g.	c #292E44",
"h.	c #2A2E41",
"i.	c #272B3D",
"j.	c #282B3E",
"k.	c #292C3F",
"l.	c #272A3E",
"m.	c #2A2F44",
"n.	c #212433",
"o.	c #1D1E2A",
"p.	c #282B3D",
"q.	c #2E344B",
"r.	c #2E344C",
"s.	c #2D3249",
"t.	c #2A2D40",
"u.	c #2A2D41",
"v.	c #222535",
"w.	c #1B1C27",
"x.	c #171821",
"y.	c #1F212F",
"z.	c #2D3148",
"A.	c #2C3146",
"B.	c #282C3F",
"C.	c #2E334A",
"D.	c #39425F",
"E.	c #394260",
"F.	c #3A4362",
"G.	c #363E5A",
"H.	c #2A2F43",
"I.	c #292D40",
"J.	c #1B1C28",
"K.	c #1A1B26",
"L.	c #1A1C27",
"M.	c #111117",
"N.	c #262A3C",
"O.	c #3A4260",
"P.	c #373E5B",
"Q.	c #373F5B",
"R.	c #38405E",
"S.	c #38415E",
"T.	c #38405D",
"U.	c #373E5A",
"V.	c #373F5C",
"W.	c #343B56",
"X.	c #39415E",
"Y.	c #262A3D",
"Z.	c #353C57",
"`.	c #3C4565",
" +	c #39415F",
".+	c #38405C",
"++	c #3D4666",
"@+	c #3E4768",
"#+	c #191A25",
"$+	c #171720",
"%+	c #353D58",
"&+	c #404A6C",
"*+	c #383F5C",
"=+	c #323852",
"-+	c #333A55",
";+	c #40496B",
">+	c #363D59",
",+	c #1C1D2A",
"'+	c #323953",
")+	c #3A4361",
"!+	c #343C56",
"~+	c #282B3F",
"{+	c #323952",
"]+	c #313850",
"^+	c #121117",
"/+	c #1F2230",
"(+	c #2C3147",
"_+	c #3A4261",
":+	c #3E4868",
"<+	c #202331",
"[+	c #3C4564",
"}+	c #2A2E43",
"|+	c #2D3349",
"1+	c #2B3046",
"2+	c #313851",
"3+	c #3B4362",
"4+	c #2B2F45",
"5+	c #3F4869",
"6+	c #1C1E2A",
"7+	c #31374F",
"8+	c #313750",
"9+	c #3F496A",
"0+	c #343B55",
"a+	c #171721",
"b+	c #2B2F44",
"c+	c #363D58",
"d+	c #202332",
"e+	c #14141B",
"f+	c #1D1F2C",
"g+	c #191A24",
"h+	c #15161E",
"i+	c #13131A",
"j+	c #111016",
"k+	c #30364F",
"l+	c #0E0D11",
"m+	c #1D1F2D",
"n+	c #3E4767",
"o+	c #15151D",
"p+	c #212434",
"q+	c #2F354C",
"r+	c #181A24",
"s+	c #14151C",
"t+	c #2B3045",
"u+	c #171822",
"v+	c #181923",
"w+	c #14141C",
"x+	c #292E42",
"y+	c #404A6B",
"z+	c #3B4463",
"A+	c #282D40",
"B+	c #1C1E2B",
"C+	c #191B26",
"D+	c #161720",
"E+	c #444E72",
"F+	c #242839",
"G+	c #2C3248",
"H+	c #2B3146",
"I+	c #0E0C10",
"                                                                                                                                ",
"                                                                                                                                ",
"                                                                                                                                ",
"                                                                                                                                ",
"                                                                                                                                ",
"                                                                                                                                ",
"                                                                                                                                ",
"                                                                                                                                ",
"                                                                                                                                ",
"                                                                                                                                ",
"                                                                                                                                ",
"                                                                                                                                ",
"                                                                                                                                ",
"                                                                                                                                ",
"                                                                                                                                ",
"                                                                                                                                ",
"                                                                                                                                ",
"                                                        .       + . @                                                           ",
"                                                      # $     % & $ % *                                                         ",
"                                                    = - ; > , ' ) ! ~ { >                                                       ",
"                                                    = ] ^ / ( _ : < [ } | 1                                                     ",
"                                                2 , ( 3 4 5 6 7 8 9 0 a b c                                                     ",
"                                              d e d f g h i j k l ; m a n o                                                     ",
"                                            ( p q r s t ) 0 0 0 9 ; 9 u v w x y w                                               ",
"                                              z A h 9 B < ; ; ; ; 9 C g D E ; F G H                                             ",
"                                          I J 2 + K L ) L ; ; ; ; ; [ | M N - O &                                               ",
"                                          I > P t Q R S 9 ; ; ; ; ; 0 j F T 1 U V                                               ",
"                                            W X l 9 ; ; ; ; ; ; ; ; 0 ) v Y                                                     ",
"                                              Z ` 1  ...0 ; ; ; ; ; 0 ) v +.                                                    ",
"                                              @.#.| 9 < 9 ; ; ; ; ; 0 F [ M I                                                   ",
"                                                P  .9 < 9 9 ; ; ; ; } $.%.&.8 Z                                                 ",
"                                                  z *.C 0 < ; ; ; 9 a =.-.R ;.>.,.                                              ",
"                                                  1 '.F 0 [ ; L ).9 ;.!.,.J ~.{.                                                ",
"                                                  f ].^./.(._.N F :.<.[.}.                                                      ",
"                                                |.g 9 u 1.2.' 3.4.F * . D                                                       ",
"                                              . 5.6.! 7.8.c 9.+ * ^ d _ #.                                                      ",
"                                              0.a.b.y 1 }.1 I c.1 {.1 d.                                                        ",
"                                                  e.f.g.h.i.j.k.l.+.m.n.                                                        ",
"                                                  o.p.I 9.q.q.r.s.t.u.v.w.                                                      ",
"                                              x.y.z.A.B.C.D.E.F.G.H.I.s.I J.K.L.                                                ",
"                                            M.N.O.P.Q.G.Q.R.R.S.T.P.U.V.U.W.X.Y.M.                                              ",
"                                          L.9.Z.`. + +O. +T.T..+T.D.O.X.O.++@+Z.B.#+                                            ",
"                                          $+%+&+G.*+*+*+.+T.T.T.T.*+V.R.G.=+-+;+>+#+                                            ",
"                                          ,+'+)+G.T.T.T.T.T.T.T.T.T.V.)+!+~+{+@+]+#+                                            ",
"                                      ^+/+Q.F.q.(+X.X..+T.T.T.T.T.T.*+_+Z.9.{+:+=+#+                                            ",
"                                      ^+<+[+[+(+}+X. +.+T.T.T.T.T.T.*+_+Z.I '+:+=+#+                                            ",
"                                      ^+<+[+[+|+1+X.X..+T.T.T.T.T.T.*+_+Z.I '+@+2+#+                                            ",
"                                      ^+/+Q.3+C.4+X.X..+T.T.T.T.T.T.*+_+Z.I {+5+'+#+                                            ",
"                                          6+W.7+H.X.X..+T.T.T.T.T.T.*+_+Z.I 8+9+0+#+                                            ",
"                                          a+Q.Z.I X.X..+T.T.T.T.T.T.*+)+W.B.O.W./+                                              ",
"                                          L.H.b+s.S.X..+T.T.T.T.T.T.*+E.c+H.C.d+^+                                              ",
"                                            e+f+q.R.X..+T.T.T.T.T.T.V.E.>+9.g+h+K.                                              ",
"                                              i+d+D.O.V.T.T.T.T.T.T.Q.[+=+K.                                                    ",
"                                              j+y.E.O.V.T.T.T.T.T.T.Q.[+k+x.                                                    ",
"                                              l+m+E.O.V.T.T.T.T.T.T.U.n+W.#+                                                    ",
"                                              o+p+ +E.V.T.T.T.T.T.T.V.3+q+r+                                                    ",
"                                            s+-._+.+T.T.T.T.T.T.T.T.)+t+u+v+                                                    ",
"                                            w+x+y+V.T.T.T.T.T.T.V.U.&+x+j+                                                      ",
"                                            s+9.[+.+T.T.T.T.T.Q. +z+0+n.x.                                                      ",
"                                            s+A+++*+T.T.T.T.S.X.O.%+B+e+C+                                                      ",
"                                            s+9.[+Q.Q.V.Q.V.D.;+W.J.D+v+v+                                                      ",
"                                            s+x+E+`.++`.5+++i.d+p+                                                              ",
"                                              F+|+1+1+t+G+H+K.I+                                                                ",
"                                              h+h+h+h+h+h+h+                                                                    "};
