/* XPM */
static char * 26_xpm[] = {
"64 64 252 2",
"  	c None",
". 	c #23283C",
"+ 	c #22273B",
"@ 	c #23283D",
"# 	c #464659",
"$ 	c #524F62",
"% 	c #2B2F43",
"& 	c #1E2338",
"* 	c #4D4B5E",
"= 	c #5E5A6C",
"- 	c #535063",
"; 	c #575467",
"> 	c #3D3E51",
", 	c #555265",
"' 	c #726A7C",
") 	c #1B2136",
"! 	c #3C3D50",
"~ 	c #686274",
"{ 	c #797082",
"] 	c #857A8C",
"^ 	c #5A5669",
"/ 	c #37394D",
"( 	c #1E2438",
"_ 	c #514F62",
": 	c #696375",
"< 	c #2D3145",
"[ 	c #2E3245",
"} 	c #252A3E",
"| 	c #35374B",
"1 	c #6D6779",
"2 	c #6E6779",
"3 	c #7A7283",
"4 	c #656072",
"5 	c #2A2E42",
"6 	c #24293D",
"7 	c #22273C",
"8 	c #504E61",
"9 	c #756D7F",
"0 	c #686275",
"a 	c #6F687A",
"b 	c #6D6679",
"c 	c #786F81",
"d 	c #605B6E",
"e 	c #2C2F43",
"f 	c #21263A",
"g 	c #615C6F",
"h 	c #21263B",
"i 	c #444457",
"j 	c #7B7283",
"k 	c #746D7E",
"l 	c #766E80",
"m 	c #6B6477",
"n 	c #7E7486",
"o 	c #6A6376",
"p 	c #131B2F",
"q 	c #181F34",
"r 	c #454458",
"s 	c #746C7E",
"t 	c #817788",
"u 	c #48475B",
"v 	c #525063",
"w 	c #766E7F",
"x 	c #6C6678",
"y 	c #6D6678",
"z 	c #726B7C",
"A 	c #625D70",
"B 	c #4B495C",
"C 	c #404154",
"D 	c #424256",
"E 	c #424255",
"F 	c #121A2E",
"G 	c #2F3246",
"H 	c #797182",
"I 	c #303347",
"J 	c #736C7E",
"K 	c #625D6F",
"L 	c #292D41",
"M 	c #1D2337",
"N 	c #645F71",
"O 	c #776F81",
"P 	c #70697B",
"Q 	c #323548",
"R 	c #676174",
"S 	c #5B5769",
"T 	c #6A6476",
"U 	c #71697B",
"V 	c #6E687A",
"W 	c #787081",
"X 	c #444357",
"Y 	c #4C4A5D",
"Z 	c #635E70",
"` 	c #6B6577",
" .	c #716A7C",
"..	c #1C2236",
"+.	c #20253A",
"@.	c #2B2F42",
"#.	c #645E71",
"$.	c #323448",
"%.	c #1A2035",
"&.	c #36384C",
"*.	c #726B7D",
"=.	c #313448",
"-.	c #34364A",
";.	c #49485B",
">.	c #514F61",
",.	c #807688",
"'.	c #6E677A",
").	c #7F7587",
"!.	c #20263A",
"~.	c #474659",
"{.	c #7A7183",
"].	c #5F5B6D",
"^.	c #2E3145",
"/.	c #635D70",
"(.	c #7D7485",
"_.	c #3D3E52",
":.	c #262A3E",
"<.	c #37394C",
"[.	c #615C6E",
"}.	c #4F4D60",
"|.	c #393B4E",
"1.	c #1F2438",
"2.	c #645F72",
"3.	c #2C3044",
"4.	c #585467",
"5.	c #38394D",
"6.	c #24293E",
"7.	c #272B3F",
"8.	c #202538",
"9.	c #282D41",
"0.	c #292D40",
"a.	c #2A2E41",
"b.	c #282C40",
"c.	c #292C3F",
"d.	c #171923",
"e.	c #24283A",
"f.	c #2B3045",
"g.	c #282C3F",
"h.	c #2B2F45",
"i.	c #212433",
"j.	c #15161E",
"k.	c #191A25",
"l.	c #13131A",
"m.	c #0E0D11",
"n.	c #14141C",
"o.	c #212332",
"p.	c #282B3D",
"q.	c #272A3D",
"r.	c #292E42",
"s.	c #333A54",
"t.	c #343B55",
"u.	c #31374F",
"v.	c #282B3E",
"w.	c #26293B",
"x.	c #1E202D",
"y.	c #14151D",
"z.	c #171821",
"A.	c #222535",
"B.	c #25293B",
"C.	c #313750",
"D.	c #30354E",
"E.	c #2C3147",
"F.	c #3A4361",
"G.	c #3B4462",
"H.	c #383F5C",
"I.	c #2E344B",
"J.	c #2D3248",
"K.	c #30364E",
"L.	c #242839",
"M.	c #181822",
"N.	c #181924",
"O.	c #343B56",
"P.	c #414A6C",
"Q.	c #39425F",
"R.	c #39415E",
"S.	c #39415F",
"T.	c #394260",
"U.	c #373F5C",
"V.	c #38405D",
"W.	c #3A4362",
"X.	c #3C4564",
"Y.	c #171721",
"Z.	c #323952",
"`.	c #3D4667",
" +	c #38415E",
".+	c #38405E",
"++	c #3B4362",
"@+	c #272B3E",
"#+	c #1E202E",
"$+	c #2E344C",
"%+	c #373E5A",
"&+	c #3A4260",
"*+	c #353D58",
"=+	c #2D3249",
"-+	c #3D4565",
";+	c #2A2F44",
">+	c #111117",
",+	c #202332",
"'+	c #3E4868",
")+	c #38405C",
"!+	c #333953",
"~+	c #373F5B",
"{+	c #272A3C",
"]+	c #363E5A",
"^+	c #14141B",
"/+	c #121117",
"(+	c #202231",
"_+	c #282B3F",
":+	c #343C56",
"<+	c #353C57",
"[+	c #202331",
"}+	c #3A4261",
"|+	c #2A2F43",
"1+	c #3D4666",
"2+	c #3B4463",
"3+	c #2B3046",
"4+	c #1F2231",
"5+	c #333A55",
"6+	c #1C1D29",
"7+	c #313851",
"8+	c #3E4767",
"9+	c #1D1F2C",
"0+	c #181923",
"a+	c #161720",
"b+	c #1E212E",
"c+	c #191B26",
"d+	c #222534",
"e+	c #2F344C",
"f+	c #3D4665",
"g+	c #121218",
"h+	c #111016",
"i+	c #1F2230",
"j+	c #3C4565",
"k+	c #181A24",
"l+	c #1D202D",
"m+	c #2E334A",
"n+	c #373E5B",
"o+	c #363E59",
"p+	c #2F354C",
"q+	c #3C4464",
"r+	c #2A2E43",
"s+	c #191A24",
"t+	c #424C6F",
"u+	c #3D4767",
"v+	c #272B3D",
"w+	c #232636",
"x+	c #1D1F2D",
"y+	c #2C3248",
"z+	c #2B3146",
"A+	c #0D0C0F",
"B+	c #13131B",
"C+	c #16161E",
"                                                                                                                                ",
"                                                                                                                                ",
"                                                                                                                                ",
"                                                                                                                                ",
"                                                                                                                                ",
"                                                                                                                                ",
"                                                                                                                                ",
"                                                                                                                                ",
"                                                                                                                                ",
"                                                                                                                                ",
"                                                                                                                                ",
"                                                                                                                                ",
"                                                                                                                                ",
"                                                                                                                                ",
"                                                                                                                                ",
"                                                                                                                                ",
"                                                      . .       + @ .                                                           ",
"                                                      # $ % & * = - ; >                                                         ",
"                                                    & , ' + ) ! ~ { ] ^ /                                                       ",
"                                                    ( _ : < [ } | 1 2 3 4 5                                                     ",
"                                                + 6 7 8 9 0 : ~ : a b c d e                                                     ",
"                                            f # g 8 h i j k 9 l 9 a m n o + p ) q                                               ",
"                                            f r s t u v w x y y b a z A B C D # E                                               ",
"                                              F G : w ' 2 a a a a 2 H # I 9 J s K %                                             ",
"                                          L 5 } M L N O y a a a a a P : y O E L Q                                               ",
"                                            6 i R S T U V a a a a a y W 1 X }                                                   ",
"                                              Y Z ^ `  .2 a a a a a y { ^ ..                                                    ",
"                                              . +.@.#.l y a a a a a y c #.$.                                                    ",
"                                              %.&.P *.2 a a a a a a 2  .w T =.                                                  ",
"                                                -.;.~ s b y V a a a s >.;.,.'.E +                                               ",
"                                                  f = W 1 9 P 1 2 2 ).;.!.8 A ~.!.                                              ",
"                                                  5 d {.x : a  .P V  .Y . 6 +                                                   ",
"                                                  . S ] ].^./.(.s 2 _.:.5                                                       ",
"                                                <.[.{ g $.. ! _.}.{ |.M e                                                       ",
"                                              1.-.2.A &.( 3.} q ^.4.5.6.                                                        ",
"                                                7.8.+ 9.@.0.a.e L 6 b.c.                                                        ",
"                                                  d.e.f.0.g.g.g.g.b.h.i.j.k.                                                    ",
"                                            l.m.n.o.p.q.r.s.s.t.u.v.q.w.x.y.z.                                                  ",
"                                            A.i.B.C.D.E.C.F.F.G.H.I.J.u.K.L.M.l.                                                ",
"                                          N.O.P.Q.R.S.T.R.H.H.U.V.S.Q.V.W.X.A.n.                                                ",
"                                          Y.Z.`.U.V.V. +V.V.V.V.V..+.+V.R.T.++@+y.                                              ",
"                                        #+$+%+V.V.&+V.H.V.V.V.V.V.V.U.S.*+=+-+;+n.                                              ",
"                                      >+,+'+F.)+%+!+~+R.V.V.V.V.V.V.U.F.O.{+]+;+^+                                              ",
"                                      /+(+S.R.&+s._+:+F.U.V.V.V.V.V.H.&+<+L V.;+^+                                              ",
"                                      /+[+&+S.&+s.b.<+}+H.V.V.V.V.V.H.}+<+b.V.;+^+                                              ",
"                                      /+(+S.R.&+s.L <+}+H.V.V.V.V.V.H.}+<+b.~+|+^+                                              ",
"                                      /+,+1+&+S.s.L <+}+H.V.V.V.V.V.H.F.O.g.2+3+^+                                              ",
"                                      /+4+~+V.F.5+L <+}+H.V.V.V.V.V.H.&+<+L <+r.^+                                              ",
"                                          6+7+8+s.L <+}+H.V.V.V.V.V.H.S.%+f.9+0+                                                ",
"                                          a+%+X.|+@+<+F.U.V.V.V.V.V.~+2+s.b+l.                                                  ",
"                                          c+r.@+d+e+~+S.)+V.V.V.V.V.~+f+C.a+                                                    ",
"                                          0+z.g+[+F.&+U.V.V.V.V.V.V.~+X.7+k.                                                    ",
"                                              h+i+&+&+U.V.V.V.V.V.V.~+j+7+k+                                                    ",
"                                              /+i+S.&+U.V.V.V.V.V.V.~+j+7+k+                                                    ",
"                                              >+i+Q.&+U.V.V.V.V.V.V.~+j+7+k+                                                    ",
"                                              >+i+Q.&+U.V.V.V.V.V.V.~+j+7+k+                                                    ",
"                                              >+i+R.Q.U.V.V.V.V.V.V.~+j+7+k+                                                    ",
"                                              >+4+8+++~+V.V.V.V.V.V.~+2+C.k+                                                    ",
"                                                l+m+n+S.)+V.)+H.)+)+o+'+t.k+                                                    ",
"                                                  a+C.f+~+V.R.R.R.R..+F.p+k+                                                    ",
"                                                  0+C.2+o+U.F.q+G.++P.r+z.                                                      ",
"                                                  s+:+t+u+1+v+i+w+A.w+x+                                                        ",
"                                                  k+L y+E.z+c+A+B+g+g+                                                          ",
"                                                    j.C+j.j.                                                                    "};
