/* XPM */
static char * 27_xpm[] = {
"64 64 257 2",
"  	c None",
". 	c #2E3145",
"+ 	c #2E3245",
"@ 	c #303346",
"# 	c #2F3246",
"$ 	c #2D3044",
"% 	c #1E2338",
"& 	c #4F4D60",
"* 	c #645F71",
"= 	c #2A2E41",
"- 	c #1E2438",
"; 	c #514E61",
"> 	c #736C7E",
", 	c #676173",
"' 	c #70697B",
") 	c #464559",
"! 	c #192034",
"~ 	c #545164",
"{ 	c #6E6779",
"] 	c #202539",
"^ 	c #1C2236",
"/ 	c #2B2F43",
"( 	c #4D4C5F",
"_ 	c #756D7F",
": 	c #7D7485",
"< 	c #666173",
"[ 	c #4A495C",
"} 	c #2A2E42",
"| 	c #1F2539",
"1 	c #514F61",
"2 	c #6C6578",
"3 	c #414154",
"4 	c #424256",
"5 	c #37394C",
"6 	c #404154",
"7 	c #6D6679",
"8 	c #6C6678",
"9 	c #676174",
"0 	c #2B2E42",
"a 	c #303347",
"b 	c #22273B",
"c 	c #4C4B5E",
"d 	c #787082",
"e 	c #746C7E",
"f 	c #766E7F",
"g 	c #6F687A",
"h 	c #786F81",
"i 	c #605C6E",
"j 	c #292D41",
"k 	c #21263A",
"l 	c #4B495C",
"m 	c #7A7183",
"n 	c #272C40",
"o 	c #444457",
"p 	c #71697B",
"q 	c #6C6577",
"r 	c #7B7284",
"s 	c #686274",
"t 	c #252A3E",
"u 	c #1C2237",
"v 	c #23283C",
"w 	c #21273B",
"x 	c #37394D",
"y 	c #5B576A",
"z 	c #827889",
"A 	c #5E5A6C",
"B 	c #736B7D",
"C 	c #6E687A",
"D 	c #766E80",
"E 	c #535063",
"F 	c #38394D",
"G 	c #5B586A",
"H 	c #615C6F",
"I 	c #555265",
"J 	c #10182D",
"K 	c #21263B",
"L 	c #6D6678",
"M 	c #776F81",
"N 	c #7E7486",
"O 	c #5C586A",
"P 	c #565366",
"Q 	c #282C40",
"R 	c #2D3144",
"S 	c #2C2F43",
"T 	c #776F80",
"U 	c #696375",
"V 	c #34364A",
"W 	c #1A2035",
"X 	c #24293D",
"Y 	c #4B4A5D",
"Z 	c #645E71",
"` 	c #323448",
" .	c #434356",
"..	c #3E3F52",
"+.	c #666073",
"@.	c #6D6779",
"#.	c #797082",
"$.	c #5A5669",
"%.	c #3F3F53",
"&.	c #1B2136",
"*.	c #3B3D50",
"=.	c #726B7D",
"-.	c #3F4053",
";.	c #22283C",
">.	c #313448",
",.	c #625D6F",
"'.	c #48475A",
").	c #35374B",
"!.	c #817788",
"~.	c #605B6E",
"{.	c #6B6577",
"].	c #807688",
"^.	c #4E4C5F",
"/.	c #1F2439",
"(.	c #3D3E51",
"_.	c #464659",
":.	c #5D596B",
"<.	c #797182",
"[.	c #615C6E",
"}.	c #404054",
"|.	c #1D2237",
"1.	c #7E7587",
"2.	c #585567",
"3.	c #726A7C",
"4.	c #1F2438",
"5.	c #393A4E",
"6.	c #504E61",
"7.	c #25293E",
"8.	c #262B3F",
"9.	c #3D3E52",
"0.	c #2B2F42",
"a.	c #23273B",
"b.	c #4B4B60",
"c.	c #48475B",
"d.	c #2F3245",
"e.	c #424255",
"f.	c #262B41",
"g.	c #24293C",
"h.	c #171B2B",
"i.	c #1D2336",
"j.	c #282D42",
"k.	c #282B3E",
"l.	c #292C3F",
"m.	c #2B2E41",
"n.	c #272B3F",
"o.	c #20263A",
"p.	c #282C41",
"q.	c #262839",
"r.	c #1A1B25",
"s.	c #272A3C",
"t.	c #2B3045",
"u.	c #2A2F43",
"v.	c #2A2E43",
"w.	c #2B2F44",
"x.	c #212434",
"y.	c #181922",
"z.	c #171822",
"A.	c #1A1B26",
"B.	c #15151E",
"C.	c #191A25",
"D.	c #272A3D",
"E.	c #26293C",
"F.	c #373F5B",
"G.	c #38405D",
"H.	c #343B55",
"I.	c #282C3F",
"J.	c #232637",
"K.	c #16171F",
"L.	c #15151D",
"M.	c #121118",
"N.	c #1F2230",
"O.	c #313750",
"P.	c #343A55",
"Q.	c #323851",
"R.	c #343B56",
"S.	c #394260",
"T.	c #3A4261",
"U.	c #333953",
"V.	c #323852",
"W.	c #353C57",
"X.	c #2D3249",
"Y.	c #25293A",
"Z.	c #16161F",
"`.	c #202331",
" +	c #404A6B",
".+	c #3A4361",
"++	c #3A4260",
"@+	c #383F5C",
"#+	c #373F5C",
"$+	c #39415F",
"%+	c #3D4665",
"&+	c #444F74",
"*+	c #121117",
"=+	c #3D4667",
"-+	c #353D58",
";+	c #363E5A",
">+	c #38405C",
",+	c #363D58",
"'+	c #3B4362",
")+	c #323953",
"!+	c #3E4869",
"~+	c #333A54",
"{+	c #3C4565",
"]+	c #30364E",
"^+	c #313851",
"/+	c #3E4768",
"(+	c #272B3E",
"_+	c #3E4868",
":+	c #343C56",
"<+	c #31374F",
"[+	c #323952",
"}+	c #3E4767",
"|+	c #313850",
"1+	c #38415E",
"2+	c #404A6C",
"3+	c #2F344C",
"4+	c #242839",
"5+	c #212433",
"6+	c #373E5B",
"7+	c #1A1B27",
"8+	c #100F14",
"9+	c #363D59",
"0+	c #1E202E",
"a+	c #100F15",
"b+	c #181822",
"c+	c #181923",
"d+	c #1E202D",
"e+	c #1F212F",
"f+	c #111016",
"g+	c #131219",
"h+	c #1E212E",
"i+	c #3B4463",
"j+	c #39425F",
"k+	c #161720",
"l+	c #111117",
"m+	c #3C4564",
"n+	c #181A24",
"o+	c #3C4464",
"p+	c #191A24",
"q+	c #353C58",
"r+	c #38405E",
"s+	c #181924",
"t+	c #3D4666",
"u+	c #13131A",
"v+	c #262A3C",
"w+	c #343C57",
"x+	c #39415E",
"y+	c #171821",
"z+	c #1A1C27",
"A+	c #1B1D28",
"B+	c #2E334A",
"C+	c #434D71",
"D+	c #202332",
"E+	c #2E344B",
"F+	c #2B3146",
"G+	c #0E0C10",
"H+	c #15161E",
"                                                                                                                                ",
"                                                                                                                                ",
"                                                                                                                                ",
"                                                                                                                                ",
"                                                                                                                                ",
"                                                                                                                                ",
"                                                                                                                                ",
"                                                                                                                                ",
"                                                                                                                                ",
"                                                                                                                                ",
"                                                                                                                                ",
"                                                                                                                                ",
"                                                                                                                                ",
"                                                                                                                                ",
"                                                                                                                                ",
"                                                                                                                                ",
"                                                                                                                                ",
"                                                                                                                                ",
"                                                                                                                                ",
"                                                      . +     @ @ + # $                                                         ",
"                                                    % & * = - ; > , ' ) !                                                       ",
"                                                    % ~ { ] ^ / ( _ : < [ }                                                     ",
"                                                    | 1 2 3 4 5 6 7 8 : 9 0                                                     ",
"                                              # a . b c d > e f _ g 8 h i j                                                     ",
"                                            k l m * n o m ' ' p ' g q r s t u v w                                               ",
"                                              x y z A A B { { { { C D E F ~ G H I /                                             ",
"                                              J K ; e D L g g g g C M ( 3 N s O P /                                             ",
"                                          j Q a R S H _ L g g g g g { B T U V W X                                               ",
"                                            b Y m { g g g g g g g g L h Z `                                                     ",
"                                               .o ..+._ @.g g g g g L #.$.^                                                     ",
"                                              W v %.s e @.g g g g g L h L o X                                                   ",
"                                              &.*.B =.{ g g g g g g ' U { d -.;.                                                ",
"                                                  >.,.M L 7 g g g C T '.).f !.[ K                                               ",
"                                                  t ~.D @.h ' {.L { ].^./.(._.(.                                                ",
"                                                  t :.].{.P @.<.e { [.}.t |.!                                                   ",
"                                                  >.,.1.E v 2.' 8 3.).4.$                                                       ",
"                                                5.' : 6.7.Q @ 8.6 _ 9.| 0.                                                      ",
"                                              a.# b.c.d.b / 8././ e.@ f.                                                        ",
"                                                g.h.i.j.0.k.l.m.n.o.p.q.                                                        ",
"                                                  r.s.t.Q u.u.u.v.} w.x.y.z.                                                    ",
"                                            A.B.C.D.j E.t.F.F.G.H.I.D.j J.K.L.                                                  ",
"                                            M.N.O.H.P.Q.R.S.S.T.G.U.V.W.P.X.X.Y.Z.                                              ",
"                                            `.Q. +.+++.+S.@+@+#+G.++.+$+++%+&+Q *+                                              ",
"                                          C.R.=+-+;+#+>+>+G.G.G.G.>+@+G.F.,+'+u.z.                                              ",
"                                          C.)+!+U.v.W.++@+G.G.G.G.G.@+++W.v.~+{+]+C.                                            ",
"                                          C.^+/+V.(+R..+#+G.G.G.G.G.#+.+W.I.O. +H.C.                                            ",
"                                          C.V._+)+j W.++@+G.G.G.G.G.#+.+:+I.~+_+<+C.                                            ",
"                                          C.V._+[+j W.T.@+G.G.G.G.G.@+++W.v.^+}+)+C.                                            ",
"                                          C.|+}+)+j W.T.@+G.G.G.G.G.G.G.1+#+v.R.;+C.                                            ",
"                                          C.W.2+O.j W.T.@+G.G.G.G.G.G.@+$+++3+4+5+                                              ",
"                                          C.j $+6+Q :+.+@+G.G.G.G.G.G.>+$+G.u.7+8+                                              ",
"                                            *+(+9+j W.++@+G.G.G.G.G.G.#+++S.0+a+                                                ",
"                                            b+c+d+w.;+$+@+G.G.G.G.G.G.#+++S.e+f+                                                ",
"                                                g+h+~+i+F.G.G.G.G.G.G.#+++j+N.*+                                                ",
"                                                  k+O.%+F.G.G.G.G.G.G.#+++j+N.l+                                                ",
"                                                  C.^+m+F.G.G.G.G.G.G.#+++j+N.l+                                                ",
"                                                  n+O.o+F.G.G.G.G.G.G.#+++j+N.l+                                                ",
"                                                  p+q+/+-+F.G.G.G.G.G.#+j+r+N.l+                                                ",
"                                                  s+(+G.{+i+G.#+G.G.G.;+.+t+N.l+                                                ",
"                                                  c+u+v+G.w+G.x+G.G.r+x+j+9+e+l+                                                ",
"                                                    y+A.C.z+W.t+-+F.$+2+H.A+                                                    ",
"                                                            d+B+C+=+(+D+x.                                                      ",
"                                                              `.E+F+z+G+                                                        ",
"                                                                H+H+                                                            "};
