/* XPM */
static char * 28_xpm[] = {
"64 64 263 2",
"  	c None",
". 	c #1C2236",
"+ 	c #1A2035",
"@ 	c #1C2237",
"# 	c #3B3C4F",
"$ 	c #3E3F52",
"% 	c #404054",
"& 	c #444457",
"* 	c #35374B",
"= 	c #1E2338",
"- 	c #545164",
"; 	c #6F687A",
"> 	c #262B3F",
", 	c #1D2337",
"' 	c #4A495C",
") 	c #787081",
"! 	c #756D7F",
"~ 	c #827889",
"{ 	c #4F4D60",
"] 	c #525063",
"^ 	c #6A6476",
"/ 	c #22273C",
"( 	c #21263B",
"_ 	c #22273B",
": 	c #3A3B4F",
"< 	c #70697B",
"[ 	c #746C7E",
"} 	c #726B7D",
"| 	c #5B576A",
"1 	c #2A2E42",
"2 	c #192034",
"3 	c #514F62",
"4 	c #716A7C",
"5 	c #565366",
"6 	c #585467",
"7 	c #514E61",
"8 	c #555265",
"9 	c #6E6779",
"0 	c #6D6678",
"a 	c #7B7284",
"b 	c #645E71",
"c 	c #2C2F43",
"d 	c #3D3E51",
"e 	c #464559",
"f 	c #20263A",
"g 	c #48475A",
"h 	c #7A7183",
"i 	c #776F80",
"j 	c #776F81",
"k 	c #797183",
"l 	c #786F81",
"m 	c #6B6577",
"n 	c #656072",
"o 	c #24293D",
"p 	c #4B495C",
"q 	c #82788A",
"r 	c #766E7F",
"s 	c #35374A",
"t 	c #49485B",
"u 	c #726A7C",
"v 	c #5D596B",
"w 	c #303346",
"x 	c #2C3043",
"y 	c #313448",
"z 	c #23283C",
"A 	c #424256",
"B 	c #696375",
"C 	c #797082",
"D 	c #2D3044",
"E 	c #666173",
"F 	c #766E80",
"G 	c #625D6F",
"H 	c #2B2F43",
"I 	c #292D41",
"J 	c #2E3145",
"K 	c #383A4D",
"L 	c #6C6678",
"M 	c #585567",
"N 	c #7F7587",
"O 	c #3F3F53",
"P 	c #3B3C50",
"Q 	c #404053",
"R 	c #645F71",
"S 	c #736B7D",
"T 	c #575467",
"U 	c #11192D",
"V 	c #1B2236",
"W 	c #202539",
"X 	c #4E4C5F",
"Y 	c #24283D",
"Z 	c #34364A",
"` 	c #2B2F42",
" .	c #635E70",
"..	c #776E80",
"+.	c #23283D",
"@.	c #191F34",
"#.	c #2C3044",
"$.	c #5E596C",
"%.	c #5E5A6C",
"&.	c #807788",
"*.	c #5F5A6D",
"=.	c #464558",
"-.	c #272B3F",
";.	c #7C7384",
">.	c #4C4A5D",
",.	c #21263A",
"'.	c #615C6E",
").	c #6D6679",
"!.	c #504E61",
"~.	c #303347",
"{.	c #2F3246",
"].	c #5A5669",
"^.	c #857A8C",
"/.	c #676173",
"(.	c #404154",
"_.	c #6A6376",
":.	c #6D6779",
"<.	c #4D4C5F",
"[.	c #313347",
"}.	c #48475B",
"|.	c #434356",
"1.	c #4B495D",
"2.	c #595668",
"3.	c #605B6E",
"4.	c #34374A",
"5.	c #1C2337",
"6.	c #303449",
"7.	c #38394D",
"8.	c #424255",
"9.	c #1E2438",
"0.	c #282C40",
"a.	c #1A2034",
"b.	c #292C3F",
"c.	c #2C3148",
"d.	c #2C3045",
"e.	c #272C40",
"f.	c #282C3F",
"g.	c #272B3E",
"h.	c #25293D",
"i.	c #2D3147",
"j.	c #212433",
"k.	c #161720",
"l.	c #16161F",
"m.	c #15161E",
"n.	c #111117",
"o.	c #16161E",
"p.	c #1C1E2C",
"q.	c #202538",
"r.	c #212639",
"s.	c #242739",
"t.	c #2B2F44",
"u.	c #333A54",
"v.	c #363C57",
"w.	c #30364E",
"x.	c #212538",
"y.	c #262A3D",
"z.	c #242636",
"A.	c #2B3045",
"B.	c #2E344B",
"C.	c #212534",
"D.	c #212434",
"E.	c #252839",
"F.	c #31364D",
"G.	c #32374E",
"H.	c #2E3248",
"I.	c #31374F",
"J.	c #3A4361",
"K.	c #3B4362",
"L.	c #38405D",
"M.	c #30354C",
"N.	c #2E334A",
"O.	c #333953",
"P.	c #3C4565",
"Q.	c #424C6F",
"R.	c #2F354D",
"S.	c #1F212F",
"T.	c #1B1D29",
"U.	c #353C57",
"V.	c #40496B",
"W.	c #39415F",
"X.	c #39425F",
"Y.	c #39415E",
"Z.	c #383F5C",
"`.	c #373F5C",
" +	c #38415E",
".+	c #38405C",
"++	c #363D59",
"@+	c #3E4767",
"#+	c #191A25",
"$+	c #121117",
"%+	c #1F2230",
"&+	c #363E5A",
"*+	c #38405E",
"=+	c #373F5B",
"-+	c #333A53",
";+	c #202332",
">+	c #3D4767",
",+	c #3A4260",
"'+	c #394260",
")+	c #343B56",
"!+	c #3D4666",
"~+	c #323851",
"{+	c #202231",
"]+	c #333A55",
"^+	c #272A3D",
"/+	c #3E4869",
"(+	c #3A4261",
"_+	c #3B4463",
":+	c #2D3248",
"<+	c #2A2E43",
"[+	c #323953",
"}+	c #3E4868",
"|+	c #323852",
"1+	c #2D3249",
"2+	c #323952",
"3+	c #2D3349",
"4+	c #2B2F45",
"5+	c #313851",
"6+	c #202331",
"7+	c #3F496A",
"8+	c #3D4665",
"9+	c #3C4564",
"0+	c #343C56",
"a+	c #434D71",
"b+	c #343B55",
"c+	c #1B1C28",
"d+	c #242839",
"e+	c #30354D",
"f+	c #2A2F44",
"g+	c #373E5A",
"h+	c #232637",
"i+	c #222534",
"j+	c #212333",
"k+	c #14141C",
"l+	c #100F15",
"m+	c #131319",
"n+	c #1A1B26",
"o+	c #191B26",
"p+	c #212332",
"q+	c #313750",
"r+	c #3A4362",
"s+	c #1A1C27",
"t+	c #232738",
"u+	c #14141B",
"v+	c #15151D",
"w+	c #171720",
"x+	c #191B25",
"y+	c #181A24",
"z+	c #3C4464",
"A+	c #191A24",
"B+	c #3F4869",
"C+	c #353D58",
"D+	c #181924",
"E+	c #262A3C",
"F+	c #181923",
"G+	c #131219",
"H+	c #353C58",
"I+	c #0F0E12",
"J+	c #3C4463",
"K+	c #282D41",
"L+	c #2B3046",
"M+	c #2C3147",
"N+	c #1E212E",
"                                                                                                                                ",
"                                                                                                                                ",
"                                                                                                                                ",
"                                                                                                                                ",
"                                                                                                                                ",
"                                                                                                                                ",
"                                                                                                                                ",
"                                                                                                                                ",
"                                                                                                                                ",
"                                                                                                                                ",
"                                                                                                                                ",
"                                                                                                                                ",
"                                                                                                                                ",
"                                                                                                                                ",
"                                                                                                                                ",
"                                                                                                                                ",
"                                                                                                                                ",
"                                                        .       + . @                                                           ",
"                                                      # $     % & $ % *                                                         ",
"                                                    = - ; > , ' ) ! ~ { >                                                       ",
"                                                    = ] ^ / ( _ : < [ } | 1                                                     ",
"                                                2 , ( 3 4 5 6 7 8 9 0 a b c                                                     ",
"                                              d e d f g h i j k l ; m a n o                                                     ",
"                                            ( p q r s t ) 0 0 0 9 ; 9 u v w x y w                                               ",
"                                              z A h 9 B < ; ; ; ; 9 C g D E ; F G H                                             ",
"                                          I J 2 + K L ) L ; ; ; ; ; [ | M N - O &                                               ",
"                                          I > P t Q R S 9 ; ; ; ; ; 0 j F T 1 U V                                               ",
"                                            W X l 9 ; ; ; ; ; ; ; ; 0 ) v Y                                                     ",
"                                              Z ` 1  ...0 ; ; ; ; ; 0 ) v +.                                                    ",
"                                              @.#.| 9 < 9 ; ; ; ; ; 0 F [ M I                                                   ",
"                                                P  .9 < 9 9 ; ; ; ; } $.%.&.8 Z                                                 ",
"                                                  z *.C 0 < ; ; ; 9 a =.-.R ;.>.,.                                              ",
"                                                  1 '.F 0 [ ; L ).9 ;.!.,.J ~.{.                                                ",
"                                                  f ].^./.(._.N F :.<.y -.                                                      ",
"                                                [.}.9 u |.f 1.2.3.F 4.5.6.                                                      ",
"                                              @ 7.4 ! 8.9.` 0.a.s ^ $ ,.b.                                                      ",
"                                              c.d.y [.H e.f.g.h.0.{.i.j.k.l.m.                                                  ",
"                                            n.o.p.q.r.s.t.u.u.v.w.x.y.z.j.A.B.C.                                                ",
"                                            D.j.E.F.G.H.I.J.J.K.L.M.N.B.O.P.Q.R.S.                                              ",
"                                          T.U.V.W.W.W.X.Y.Z.Z.`.L.W.W.W. +.+++@+U.#+                                            ",
"                                      $+%+&+W.*+L.*+*+*+L.L.L.L.L.*+*+L. +W.=+P.-+#+                                            ",
"                                      $+;+>+,+L.'+L.L.L.L.L.L.L.L.L.`.W.++N.)+!+~+#+                                            ",
"                                      $+{+W.,+)+]+L.L.L.L.L.L.L.L.L.`.J.)+^+~+/+~+#+                                            ",
"                                      $+{+(+_+:+<+Y.Y..+L.L.L.L.L.L.Z.,+U.I [+}+|+#+                                            ",
"                                      $+{+(+_+1+t.Y.Y..+L.L.L.L.L.L.Z.(+U.I 2+}+|+#+                                            ",
"                                      $+{+(+_+3+A.Y.Y..+L.L.L.L.L.L.Z.(+U.I 2+}+|+#+                                            ",
"                                      $+{+,+_+3+4+Y.Y..+L.L.L.L.L.L.Z.(+U.I |+@+5+#+                                            ",
"                                      $+6+K._+1+A.Y.Y..+L.L.L.L.L.L.Z.(+U.I O.7+2+#+                                            ",
"                                      $+;+8+9+:+A.Y.Y..+L.L.L.L.L.L.Z.J.0+0.)+a+b+#+                                            ",
"                                        c+d+++e+f+Y.Y..+L.L.L.L.L.L..+W.g+i.h+D.i+                                              ",
"                                          l.++b+I *+Y.L.L.L.L.L.L.L.`.K.b+j+k+l+m+                                              ",
"                                          n+|+e+A.X.W..+L.L.L.L.L.L.=+9+~+n+                                                    ",
"                                            o+p+q+r+W.`.L.L.L.L.L.L.L.L.Y.&+S.                                                  ",
"                                              s+S.t+U.J.`.L.L.L.L.L.L.=+J.8+%+n.                                                ",
"                                              #+u+v+2+9+=+L.L.L.L.L.L.`.X.*+%+n.                                                ",
"                                              n+w+x+O._+=+L.L.L.L.L.L.`.,+X.%+n.                                                ",
"                                                  y+q+z+=+L.L.L.L.L.L.`.,+X.%+n.                                                ",
"                                                  A+++B+C+=+L.L.L.L.L.`.,+X.%+n.                                                ",
"                                                  D+E+&+8+K. +.+L.L.L.`.,+X.%+n.                                                ",
"                                                  F+G+g.L.H+`.L.L.L.L.`.,+X.%+n.                                                ",
"                                                      c+#+c+2+J.&+`.`.g+Y.Y.%+n.                                                ",
"                                                        I+l.u.a+J+!+!+9+7+B+%+n.                                                ",
"                                                          x+K+1+A.L+L+L+M+M+N+                                                  ",
"                                                            m.m.m.m.m.m.m.m.                                                    "};
