/* XPM */
static char * 29_xpm[] = {
"64 64 252 2",
"  	c None",
". 	c #23283C",
"+ 	c #22273B",
"@ 	c #23283D",
"# 	c #464659",
"$ 	c #524F62",
"% 	c #2B2F43",
"& 	c #1E2338",
"* 	c #4D4B5E",
"= 	c #5E5A6C",
"- 	c #535063",
"; 	c #575467",
"> 	c #3D3E51",
", 	c #555265",
"' 	c #726A7C",
") 	c #1B2136",
"! 	c #3C3D50",
"~ 	c #686274",
"{ 	c #797082",
"] 	c #857A8C",
"^ 	c #5A5669",
"/ 	c #37394D",
"( 	c #1E2438",
"_ 	c #514F62",
": 	c #696375",
"< 	c #2D3145",
"[ 	c #2E3245",
"} 	c #252A3E",
"| 	c #35374B",
"1 	c #6D6779",
"2 	c #6E6779",
"3 	c #7A7283",
"4 	c #656072",
"5 	c #2A2E42",
"6 	c #24293D",
"7 	c #22273C",
"8 	c #504E61",
"9 	c #756D7F",
"0 	c #686275",
"a 	c #6F687A",
"b 	c #6D6679",
"c 	c #786F81",
"d 	c #605B6E",
"e 	c #2C2F43",
"f 	c #21263A",
"g 	c #615C6F",
"h 	c #21263B",
"i 	c #444457",
"j 	c #7B7283",
"k 	c #746D7E",
"l 	c #766E80",
"m 	c #6B6477",
"n 	c #7E7486",
"o 	c #6A6376",
"p 	c #131B2F",
"q 	c #181F34",
"r 	c #454458",
"s 	c #746C7E",
"t 	c #817788",
"u 	c #48475B",
"v 	c #525063",
"w 	c #766E7F",
"x 	c #6C6678",
"y 	c #6D6678",
"z 	c #726B7C",
"A 	c #625D70",
"B 	c #4B495C",
"C 	c #404154",
"D 	c #424256",
"E 	c #424255",
"F 	c #121A2E",
"G 	c #2F3246",
"H 	c #797182",
"I 	c #303347",
"J 	c #736C7E",
"K 	c #625D6F",
"L 	c #292D41",
"M 	c #1D2337",
"N 	c #645F71",
"O 	c #776F81",
"P 	c #70697B",
"Q 	c #323548",
"R 	c #676174",
"S 	c #5B5769",
"T 	c #6A6476",
"U 	c #71697B",
"V 	c #6E687A",
"W 	c #787081",
"X 	c #444357",
"Y 	c #4C4A5D",
"Z 	c #635E70",
"` 	c #6B6577",
" .	c #716A7C",
"..	c #1C2236",
"+.	c #20253A",
"@.	c #2B2F42",
"#.	c #645E71",
"$.	c #323448",
"%.	c #1A2035",
"&.	c #36384C",
"*.	c #726B7D",
"=.	c #313448",
"-.	c #34364A",
";.	c #49485B",
">.	c #514F61",
",.	c #807688",
"'.	c #6E677A",
").	c #7F7587",
"!.	c #20263A",
"~.	c #474659",
"{.	c #7A7183",
"].	c #5F5B6D",
"^.	c #2E3145",
"/.	c #635D70",
"(.	c #7D7485",
"_.	c #3E3E52",
":.	c #2A2E41",
"<.	c #37384C",
"[.	c #615C6E",
"}.	c #3C3D51",
"|.	c #3E3F52",
"1.	c #383A4D",
"2.	c #1E2439",
"3.	c #303449",
"4.	c #22283F",
"5.	c #35384C",
"6.	c #615D6F",
"7.	c #1E2337",
"8.	c #24283B",
"9.	c #171D31",
"0.	c #2D3043",
"a.	c #585467",
"b.	c #3A3C50",
"c.	c #212536",
"d.	c #232534",
"e.	c #26293A",
"f.	c #262A3D",
"g.	c #282C3F",
"h.	c #2A2F43",
"i.	c #2B3044",
"j.	c #2D3146",
"k.	c #2A2E43",
"l.	c #292E43",
"m.	c #212332",
"n.	c #15161F",
"o.	c #16161F",
"p.	c #15151D",
"q.	c #1B1D29",
"r.	c #272B3F",
"s.	c #272C40",
"t.	c #25293B",
"u.	c #2B3045",
"v.	c #373F5B",
"w.	c #38405D",
"x.	c #333A55",
"y.	c #262A3E",
"z.	c #232637",
"A.	c #14151D",
"B.	c #191A25",
"C.	c #292E42",
"D.	c #2C3147",
"E.	c #2D3349",
"F.	c #343A54",
"G.	c #343B55",
"H.	c #323952",
"I.	c #343B56",
"J.	c #394260",
"K.	c #3A4260",
"L.	c #353C57",
"M.	c #333A54",
"N.	c #2B3046",
"O.	c #2C3248",
"P.	c #25293A",
"Q.	c #353D58",
"R.	c #424C70",
"S.	c #3A4361",
"T.	c #39425F",
"U.	c #383F5C",
"V.	c #373F5C",
"W.	c #39415F",
"X.	c #3C4565",
"Y.	c #444F74",
"Z.	c #282C40",
"`.	c #121117",
" +	c #323851",
".+	c #3B4462",
"++	c #363E5A",
"@+	c #38405C",
"#+	c #3B4463",
"$+	c #171822",
"%+	c #3C4464",
"&+	c #373E5B",
"*+	c #39415E",
"=+	c #30364F",
"-+	c #3D4667",
";+	c #2F344C",
">+	c #3E4767",
",+	c #38405E",
"'+	c #323953",
")+	c #2E344B",
"!+	c #313851",
"~+	c #313750",
"{+	c #2F354D",
"]+	c #3C4463",
"^+	c #313751",
"/+	c #2F344B",
"(+	c #292D42",
"_+	c #38415E",
":+	c #2E334A",
"<+	c #363D59",
"[+	c #272A3D",
"}+	c #3E4768",
"|+	c #343C57",
"1+	c #323852",
"2+	c #3F496A",
"3+	c #333953",
"4+	c #343C56",
"5+	c #434D71",
"6+	c #222536",
"7+	c #2F354C",
"8+	c #2C3045",
"9+	c #222534",
"0+	c #212534",
"a+	c #13141B",
"b+	c #242738",
"c+	c #100F15",
"d+	c #13131A",
"e+	c #1A1C27",
"f+	c #14141C",
"g+	c #1F212F",
"h+	c #111117",
"i+	c #1F2130",
"j+	c #181923",
"k+	c #1F2230",
"l+	c #3C4564",
"m+	c #191A24",
"n+	c #181A24",
"o+	c #373E5A",
"p+	c #30364E",
"q+	c #191B25",
"r+	c #3D4665",
"s+	c #171821",
"t+	c #272B3E",
"u+	c #444F73",
"v+	c #3D4666",
"w+	c #414B6E",
"x+	c #1E212F",
"y+	c #242839",
"z+	c #2D3249",
"A+	c #2D334A",
"B+	c #212434",
"C+	c #15161E",
"                                                                                                                                ",
"                                                                                                                                ",
"                                                                                                                                ",
"                                                                                                                                ",
"                                                                                                                                ",
"                                                                                                                                ",
"                                                                                                                                ",
"                                                                                                                                ",
"                                                                                                                                ",
"                                                                                                                                ",
"                                                                                                                                ",
"                                                                                                                                ",
"                                                                                                                                ",
"                                                                                                                                ",
"                                                                                                                                ",
"                                                                                                                                ",
"                                                      . .       + @ .                                                           ",
"                                                      # $ % & * = - ; >                                                         ",
"                                                    & , ' + ) ! ~ { ] ^ /                                                       ",
"                                                    ( _ : < [ } | 1 2 3 4 5                                                     ",
"                                                + 6 7 8 9 0 : ~ : a b c d e                                                     ",
"                                            f # g 8 h i j k 9 l 9 a m n o + p ) q                                               ",
"                                            f r s t u v w x y y b a z A B C D # E                                               ",
"                                              F G : w ' 2 a a a a 2 H # I 9 J s K %                                             ",
"                                          L 5 } M L N O y a a a a a P : y O E L Q                                               ",
"                                            6 i R S T U V a a a a a y W 1 X }                                                   ",
"                                              Y Z ^ `  .2 a a a a a y { ^ ..                                                    ",
"                                              . +.@.#.l y a a a a a y c #.$.                                                    ",
"                                              %.&.P *.2 a a a a a a 2  .w T =.                                                  ",
"                                                -.;.~ s b y V a a a s >.;.,.'.E +                                               ",
"                                                  f = W 1 9 P 1 2 2 ).;.!.8 A ~.!.                                              ",
"                                                  5 d {.x : a  .P V  .Y . 6 +                                                   ",
"                                                  . S ] ].^./.(.s 2 _.} :.                                                      ",
"                                                <.g H [.Q @ }.|.8 { 1.2.3.                                                      ",
"                                              4.5.A 6./ 7.:.8.9.0.a.b.c.d.                                                      ",
"                                              e.f.+ + g.% h.i.j.k.. l.m.n.                                                      ",
"                                            o.p.q.r.s.t.u.v.v.w.x.y.f.L z.o.A.                                                  ",
"                                          B.C.D.E.F.G.H.I.J.J.K.w.F.H.L.M.N.O.P.o.                                              ",
"                                          B.Q.R.S.K.K.S.T.U.U.V.w.K.S.W.K.X.Y.Z.`.                                              ",
"                                          B. +.+++@+@+U.@+w.w.w.w.@+U.w.w.v.#+l.$+                                              ",
"                                          B.H.%+&+w.w.w.w.w.w.w.w.w.w.*+W.w.V.S.=+B.                                            ",
"                                          B.H.-+*+w.w.w.w.w.w.w.w.w.J.H.;+w.V.>+I.B.                                            ",
"                                          B.M.,+'+w.w.w.w.w.w.w.w.w.S.)+Z.U.,+.+!+B.                                            ",
"                                          B.I.~+L *+*+@+w.w.w.w.w.w.S.{+k.w.w.]+H.B.                                            ",
"                                          B.I.^+5 *+*+@+w.w.w.w.w.w.S./+(+W._+#+H.B.                                            ",
"                                          B.I. +k.*+*+@+w.w.w.w.w.w._+++~+:+I.-+H.B.                                            ",
"                                          B.G.~+k.*+*+@+w.w.w.w.w.w.V.#+<+[+!+}+!+B.                                            ",
"                                          B.|+1+k.*+*+@+w.w.w.w.w.w.U.K.I.L M.2+H.B.                                            ",
"                                          B.<+3+(+*+*+@+w.w.w.w.w.w.U.S.4+Z.I.5+G.B.                                            ",
"                                            6+f.7+,+*+w.w.w.w.w.w.w.U.T.++8+z.9+0+                                              ",
"                                            a+B.u.,+W.U.w.w.w.w.w.w.V.S.L.b+o.c+d+                                              ",
"                                            e+f+g+W.K.V.w.w.w.w.w.w.v.X.~+$+                                                    ",
"                                              h+i+T.K.V.w.w.w.w.w.w.v.X.!+j+                                                    ",
"                                                k+,+T.U.w.w.w.w.w.w.v.l+!+m+                                                    ",
"                                              h+k+X.S.v.w.w.w.w.w.w.v.X.!+n+                                                    ",
"                                              h+g+o+W.w.w.w.w.w.w.w.v.X.!+n+                                                    ",
"                                                  q.H.l+v.w.w.w.w.w.v.X.!+n+                                                    ",
"                                                  o.p+l+v.w.w.w.w.w.v.X.!+n+                                                    ",
"                                                  q+x.}+o+w.w.w.w.w.v.l+~+n+                                                    ",
"                                                  n+{+S.V.w.w.w.w.w.v.r+1+n+                                                    ",
"                                                    s+L #+v.v.V.V.V.<+}+G.n+                                                    ",
"                                                    h+t+u+r+v+v+v+r+w+7+x+                                                      ",
"                                                      y+z+N.N.N.N.N.A+B+                                                        ",
"                                                        C+C+C+C+C+C+C+                                                          "};
