/* XPM */
static char * 3_xpm[] = {
"64 64 374 2",
"  	c None",
". 	c #2E3145",
"+ 	c #2E3245",
"@ 	c #2F3246",
"# 	c #303347",
"$ 	c #25293D",
"% 	c #5B5769",
"& 	c #6E6779",
"* 	c #6B6577",
"= 	c #6F687A",
"- 	c #3C3D50",
"; 	c #191F34",
"> 	c #3E3F52",
", 	c #696375",
"' 	c #3A3B4F",
") 	c #34364A",
"! 	c #555265",
"~ 	c #7F7687",
"{ 	c #6B6477",
"] 	c #262B3F",
"^ 	c #151D31",
"/ 	c #36384B",
"( 	c #787082",
"_ 	c #3B3C50",
": 	c #171E32",
"< 	c #1B2136",
"[ 	c #7D7485",
"} 	c #726A7C",
"| 	c #716A7B",
"1 	c #615D6F",
"2 	c #37384C",
"3 	c #3F3F52",
"4 	c #4F4D5F",
"5 	c #181F33",
"6 	c #383A4D",
"7 	c #736B7D",
"8 	c #6C6678",
"9 	c #6F687B",
"0 	c #746D7F",
"a 	c #736C7E",
"b 	c #716A7D",
"c 	c #766E80",
"d 	c #70697B",
"e 	c #23283C",
"f 	c #313448",
"g 	c #22273B",
"h 	c #24293D",
"i 	c #393A4E",
"j 	c #787081",
"k 	c #766E7F",
"l 	c #6A6479",
"m 	c #6C657A",
"n 	c #6C667A",
"o 	c #696378",
"p 	c #736B7C",
"q 	c #746C7E",
"r 	c #70687A",
"s 	c #1B2135",
"t 	c #5F5A6D",
"u 	c #5E5A6C",
"v 	c #5C586A",
"w 	c #4A495C",
"x 	c #58556D",
"y 	c #8A7D86",
"z 	c #A2908A",
"A 	c #9B8A88",
"B 	c #9A8987",
"C 	c #938586",
"D 	c #676278",
"E 	c #514F64",
"F 	c #70697A",
"G 	c #7B7284",
"H 	c #4B4A5D",
"I 	c #313447",
"J 	c #393B4E",
"K 	c #595568",
"L 	c #786F81",
"M 	c #6C6578",
"N 	c #37394D",
"O 	c #716974",
"P 	c #AC9690",
"Q 	c #BEA391",
"R 	c #BDA493",
"S 	c #BCA492",
"T 	c #C1A693",
"U 	c #B1988D",
"V 	c #877A81",
"W 	c #7B7283",
"X 	c #3F3F53",
"Y 	c #21263B",
"Z 	c #4B495C",
"` 	c #6E677C",
" .	c #AF998F",
"..	c #BFA794",
"+.	c #B39E91",
"@.	c #B39D8F",
"#.	c #B39C8F",
"$.	c #B39E90",
"%.	c #BBA593",
"&.	c #BBA291",
"*.	c #867A84",
"=.	c #44455C",
"-.	c #282C3F",
";.	c #323549",
">.	c #2C2F43",
",.	c #282C40",
"'.	c #292D41",
").	c #252A3D",
"!.	c #3B3D52",
"~.	c #A8918C",
"{.	c #CFC1A0",
"].	c #CFC7A4",
"^.	c #B49D90",
"/.	c #AF948B",
"(.	c #C7BB9E",
"_.	c #D5CDA6",
":.	c #B69E90",
"<.	c #7C717D",
"[.	c #666277",
"}.	c #746C7D",
"|.	c #716A7C",
"1.	c #38394D",
"2.	c #1D2337",
"3.	c #282C42",
"4.	c #AE958D",
"5.	c #DACFA7",
"6.	c #D5D4AA",
"7.	c #B29B8F",
"8.	c #AB9089",
"9.	c #CBC4A2",
"0.	c #DFDCAE",
"a.	c #BDA492",
"b.	c #847782",
"c.	c #4E4E64",
"d.	c #3E3E51",
"e.	c #49485B",
"f.	c #303346",
"g.	c #4E4D61",
"h.	c #776F80",
"i.	c #928186",
"j.	c #BEB098",
"k.	c #D1C3A1",
"l.	c #BBA292",
"m.	c #B79C8F",
"n.	c #CCBB9D",
"o.	c #CCBFA0",
"p.	c #9D8B88",
"q.	c #7A707F",
"r.	c #58566A",
"s.	c #333548",
"t.	c #202539",
"u.	c #545164",
"v.	c #7E7586",
"w.	c #686274",
"x.	c #625E75",
"y.	c #8D7E83",
"z.	c #B49C8F",
"A.	c #AD988E",
"B.	c #AC978D",
"C.	c #9E8A88",
"D.	c #6A6478",
"E.	c #686277",
"F.	c #7A7182",
"G.	c #635D70",
"H.	c #2C3043",
"I.	c #2B2F43",
"J.	c #5F5B6D",
"K.	c #867C8D",
"L.	c #605C6E",
"M.	c #5D596D",
"N.	c #797080",
"O.	c #726A7A",
"P.	c #6E677A",
"Q.	c #6D6679",
"R.	c #4E4C5F",
"S.	c #424255",
"T.	c #474659",
"U.	c #6A6474",
"V.	c #756E83",
"W.	c #716979",
"X.	c #A08E89",
"Y.	c #A18E8A",
"Z.	c #A4918B",
"`.	c #958686",
" +	c #6F6879",
".+	c #81788A",
"++	c #1C2236",
"@+	c #2D3044",
"#+	c #514F61",
"$+	c #615D71",
"%+	c #807580",
"&+	c #A8948C",
"*+	c #9D8C89",
"=+	c #434356",
"-+	c #1A2035",
";+	c #48475A",
">+	c #797083",
",+	c #676277",
"'+	c #686278",
")+	c #666176",
"!+	c #333549",
"~+	c #1F2439",
"{+	c #6D6779",
"]+	c #726A7D",
"^+	c #35374A",
"/+	c #111016",
"(+	c #13131A",
"_+	c #555368",
":+	c #7F7586",
"<+	c #6E6778",
"[+	c #756D7F",
"}+	c #797082",
"|+	c #3E4056",
"1+	c #181D2D",
"2+	c #121015",
"3+	c #121218",
"4+	c #1E202D",
"5+	c #232636",
"6+	c #222535",
"7+	c #1F2233",
"8+	c #3C3C4E",
"9+	c #575467",
"0+	c #2E3041",
"a+	c #1E2131",
"b+	c #191A24",
"c+	c #171821",
"d+	c #2A2E43",
"e+	c #434E72",
"f+	c #3A4361",
"g+	c #1D1E2A",
"h+	c #111421",
"i+	c #383B51",
"j+	c #71697B",
"k+	c #635E71",
"l+	c #252A3F",
"m+	c #11121B",
"n+	c #272A3C",
"o+	c #414C6E",
"p+	c #3D4665",
"q+	c #212434",
"r+	c #15151D",
"s+	c #191A25",
"t+	c #30364E",
"u+	c #39425F",
"v+	c #3B4362",
"w+	c #38405D",
"x+	c #1C1D27",
"y+	c #141724",
"z+	c #3E4057",
"A+	c #676275",
"B+	c #2A2F45",
"C+	c #12131C",
"D+	c #252839",
"E+	c #3D4666",
"F+	c #38415E",
"G+	c #394260",
"H+	c #272B3E",
"I+	c #14151D",
"J+	c #353C57",
"K+	c #3D4767",
"L+	c #373F5B",
"M+	c #323952",
"N+	c #1F2230",
"O+	c #1F202C",
"P+	c #424256",
"Q+	c #6A6476",
"R+	c #605C6F",
"S+	c #333445",
"T+	c #1B1C27",
"U+	c #262A3D",
"V+	c #363E59",
"W+	c #3A4260",
"X+	c #404A6C",
"Y+	c #292E42",
"Z+	c #14141C",
"`+	c #313851",
" @	c #3C4565",
".@	c #353C58",
"+@	c #333953",
"@@	c #31364D",
"#@	c #181C2B",
"$@	c #20263B",
"%@	c #555266",
"&@	c #141A2D",
"*@	c #212433",
"=@	c #383F5B",
"-@	c #3A4261",
";@	c #323852",
">@	c #383F5C",
",@	c #14151C",
"'@	c #3E4868",
")@	c #282B3F",
"!@	c #333A54",
"~@	c #3E4767",
"{@	c #333B57",
"]@	c #2A2D41",
"^@	c #645E71",
"/@	c #252B41",
"(@	c #3B4462",
"_@	c #3C4463",
":@	c #2D3349",
"<@	c #373F5C",
"[@	c #3E4768",
"}@	c #343B56",
"|@	c #282B3E",
"1@	c #2B2E42",
"2@	c #2A2F44",
"3@	c #39415E",
"4@	c #3B4463",
"5@	c #2F344C",
"6@	c #2A2E42",
"7@	c #323953",
"8@	c #333A53",
"9@	c #1A1D2C",
"0@	c #222638",
"a@	c #2F354D",
"b@	c #39415F",
"c@	c #25293A",
"d@	c #38405C",
"e@	c #1B1D29",
"f@	c #25283A",
"g@	c #3C4564",
"h@	c #1B1C28",
"i@	c #24283A",
"j@	c #30354D",
"k@	c #2A2F43",
"l@	c #313750",
"m@	c #3F4869",
"n@	c #272A3D",
"o@	c #242839",
"p@	c #2E334A",
"q@	c #292C40",
"r@	c #272C3F",
"s@	c #2E344B",
"t@	c #363E5A",
"u@	c #262A3C",
"v@	c #3F496A",
"w@	c #404A6B",
"x@	c #292D40",
"y@	c #353D58",
"z@	c #232737",
"A@	c #26293B",
"B@	c #343B55",
"C@	c #292E43",
"D@	c #14141B",
"E@	c #1C1D2A",
"F@	c #171720",
"G@	c #1A1C27",
"H@	c #181922",
"I@	c #161720",
"J@	c #1A1B26",
"K@	c #181A24",
"L@	c #1C1E2A",
"M@	c #100F14",
"N@	c #1F212F",
"O@	c #171822",
"P@	c #0F0E13",
"Q@	c #181924",
"R@	c #16161F",
"S@	c #111117",
"T@	c #181822",
"U@	c #15151E",
"V@	c #1E212F",
"W@	c #202231",
"X@	c #181923",
"Y@	c #1F2130",
"Z@	c #171721",
"`@	c #242739",
" #	c #363D59",
".#	c #434D71",
"+#	c #2B3045",
"@#	c #25293B",
"##	c #333A55",
"$#	c #16171F",
"                                                                                                                                ",
"                                                                                                                                ",
"                                                                                                                                ",
"                                                                                                                                ",
"                                                                                                                                ",
"                                                                                                                                ",
"                                                                                                                                ",
"                                                                                                                                ",
"                                                                                                                                ",
"                                                                                                                                ",
"                                                                                                                                ",
"                                                                                                                                ",
"                                                                                                                                ",
"                                                                                                                                ",
"                                                                                                                                ",
"                                                    . + @ #       +                                                             ",
"                                                  $ % & * = - ; > , '                                                           ",
"                                                ) ! = ~ { > ] ^ / ( _ :                                                         ",
"                                              < ' [ } | 1 2 3 3 4 & _ ;                                                         ",
"                                              5 6 } 7 8 9 0 a b c d 2 e f #                                                     ",
"                                          g h ; i j k * l m n o b p . i q r 6 s                                                 ",
"                                        i t u v w i x y z A B z C D E F G H I                                                   ",
"                                        J u K L M N O P Q R S T U V W { X 5                                                     ",
"                                          Y < Z ` k  ...+.@.#.$.%.&.*.=.-.;.>.,.'.                                              ",
"                                              ).!.q ~.{.].^./.(._.:.<.[.}.|.1.2.                                                ",
"                                                3.| 4.5.6.7.8.9.0.a.b.c.d.e.i                                                   ",
"                                              f.g.h.i.j.k.l.m.n.o.p.q.r.s.t.                                                    ",
"                                            ,.u.v.w.x.y.z.A.B.z.C.D.E.F.G.H.                                                    ",
"                                          I.J.K.L.. M.N.O.P.P.& Q.Q.c R.'.                                                      ",
"                                            S.T.I h U.V.W.X.Y.Z.`. +.+w ;                                                       ",
"                                            5 s ++@+#+$+%+&+&+B.*+= M.=+$                                                       ",
"                                                    -+;+>+,+'+)+` |.!+                                                          ",
"                                                    ~+;+( Q.{+8 ]+= ^+                                                          ",
"                                                /+(+t._+:+= = <+[+}+|+1+2+3+                                                    ",
"                                              4+5+6+7+8+1 & = F 8 9+0+a+5+6+b+                                                  ",
"                                            c+d+e+f+g+h+i+|.j+k k+l+m+n+o+p+q+r+                                                ",
"                                          s+t+u+v+w+x+y+z+[+| h.A+B+C+D+E+F+G+H+I+                                              ",
"                                          s+J+K+L+G+M+N+O+P+Q+R+S+T+U+V+W+L+X+Y+Z+                                              ",
"                                          s+`+ @.@+@E+@@#@$@{+%@&@*@=@-@;@>@ @-.,@                                              ",
"                                          s+;@'@;@)@!@~@{@]@^@4 /@(@_@:@'.<@[@,.,@                                              ",
"                                          s+;@'@M+,.}@ @}@|@@ 1@2@3@4@5@6@<@[@,.,@                                              ",
"                                          s+;@'@7@'.J+W+>@8@9@0@L+<@f+a@d+<@[@,.,@                                              ",
"                                          s+;@'@M+'.J+b@f+f+T+c@'@d@W+a@d+<@[@,.,@                                              ",
"                                          s+;@'@M+'.J+u+G+w+e@f@g@d@f+a@d+<@[@,.,@                                              ",
"                                          s+;@'@M+'.J+u+W+w+h@i@ @d@f+a@d+<@[@,.,@                                              ",
"                                          s+;@'@M+'.J+u+W+w+h@i@ @d@f+a@d+<@[@,.,@                                              ",
"                                          s+;@'@M+'.J+u+W+w+h@i@ @d@f+a@d+<@[@,.,@                                              ",
"                                          s+;@'@M+'.J+u+W+w+h@i@ @d@f+a@d+<@[@,.,@                                              ",
"                                          s+;@[@M+'.J+b@W+w+h@i@ @d@-@j@k@L+[@,.,@                                              ",
"                                          s+l@m@!@n@}@W+u+<@h@o@_@d@f+p@q@3@~@r@I+                                              ",
"                                          s+J+E+t+s@t@w+v+(@e@u@v@d@b@!@p@!@w@d+Z+                                              ",
"                                          s+M+p@x@W+b@L+u+y@h@z@-@w+<@v+y@A@B@C@D@                                              ",
"                                            E@F@*@b@3@v+;@G@H@I@*@w+3@v+!@J@K@L@                                                ",
"                                              M@N@b@3@v+a@r+c+D@L@w+b@4@`+O@P@                                                  ",
"                                                N+b@w+E+B@Q@O@R@N+d@3@_@`+s+                                                    ",
"                                              S@N+-@b@b@5@T@T@U@V@3@b@4@`+K@                                                    ",
"                                              /+W@g@ @r@c+X@s+Z+Y@f+b@f+l@K@                                                    ",
"                                              Z@b+`@ @d+/+K@b+O@s+5+ #.#B@b+                                                    ",
"                                              J@R@Z++#@#R@X@X@s+R@D@H+##-.X@                                                    ",
"                                              H@Q@b+$#F@Q@X@X@X@Q@s+F@U@I@X@                                                    ",
"                                                  X@O@H@X@X@X@X@X@X@T@O@O@                                                      ",
"                                                                                                                                ",
"                                                                                                                                ",
"                                                                                                                                "};
