/* XPM */
static char * 4_xpm[] = {
"64 64 373 2",
"  	c None",
". 	c #2E3145",
"+ 	c #2E3245",
"@ 	c #2F3246",
"# 	c #303347",
"$ 	c #25293D",
"% 	c #5B5769",
"& 	c #6E6779",
"* 	c #6B6577",
"= 	c #6F687A",
"- 	c #3C3D50",
"; 	c #191F34",
"> 	c #3E3F52",
", 	c #696375",
"' 	c #3A3B4F",
") 	c #34364A",
"! 	c #555265",
"~ 	c #7F7687",
"{ 	c #6B6477",
"] 	c #262B3F",
"^ 	c #151D31",
"/ 	c #36384B",
"( 	c #787082",
"_ 	c #3B3C50",
": 	c #171E32",
"< 	c #1B2136",
"[ 	c #7D7485",
"} 	c #726A7C",
"| 	c #716A7B",
"1 	c #615D6F",
"2 	c #37384C",
"3 	c #3F3F52",
"4 	c #4F4D5F",
"5 	c #181F33",
"6 	c #383A4D",
"7 	c #736B7D",
"8 	c #6C6678",
"9 	c #6F687B",
"0 	c #746D7F",
"a 	c #736C7E",
"b 	c #716A7D",
"c 	c #766E80",
"d 	c #70697B",
"e 	c #23283C",
"f 	c #313448",
"g 	c #22273B",
"h 	c #24293D",
"i 	c #393A4E",
"j 	c #787081",
"k 	c #766E7F",
"l 	c #6A6479",
"m 	c #6C657A",
"n 	c #6C667A",
"o 	c #696378",
"p 	c #736B7C",
"q 	c #746C7E",
"r 	c #70687A",
"s 	c #1B2135",
"t 	c #5F5A6D",
"u 	c #5E5A6C",
"v 	c #5C586A",
"w 	c #4A495C",
"x 	c #58556D",
"y 	c #8A7D86",
"z 	c #A2908A",
"A 	c #9B8A88",
"B 	c #9A8987",
"C 	c #938586",
"D 	c #676278",
"E 	c #514F64",
"F 	c #70697A",
"G 	c #7B7284",
"H 	c #4B4A5D",
"I 	c #313447",
"J 	c #393B4E",
"K 	c #595568",
"L 	c #786F81",
"M 	c #6C6578",
"N 	c #37394D",
"O 	c #716974",
"P 	c #AC9690",
"Q 	c #BEA391",
"R 	c #BDA493",
"S 	c #BCA492",
"T 	c #C1A693",
"U 	c #B1988D",
"V 	c #877A81",
"W 	c #7B7283",
"X 	c #3F3F53",
"Y 	c #21263B",
"Z 	c #4B495C",
"` 	c #6E677C",
" .	c #AF998F",
"..	c #BFA794",
"+.	c #B39E91",
"@.	c #B39D8F",
"#.	c #B39C8F",
"$.	c #B39E90",
"%.	c #BBA593",
"&.	c #BBA291",
"*.	c #867A84",
"=.	c #44455C",
"-.	c #282C3F",
";.	c #323549",
">.	c #2C2F43",
",.	c #282C40",
"'.	c #292D41",
").	c #252A3D",
"!.	c #3B3D52",
"~.	c #A8918C",
"{.	c #CFC1A0",
"].	c #CFC7A4",
"^.	c #B49D90",
"/.	c #AF948B",
"(.	c #C7BB9E",
"_.	c #D5CDA6",
":.	c #B69E90",
"<.	c #7C717D",
"[.	c #666277",
"}.	c #746C7D",
"|.	c #716A7C",
"1.	c #38394D",
"2.	c #1D2337",
"3.	c #282C42",
"4.	c #AE958D",
"5.	c #DACFA7",
"6.	c #D5D4AA",
"7.	c #B29B8F",
"8.	c #AB9089",
"9.	c #CBC4A2",
"0.	c #DFDCAE",
"a.	c #BDA492",
"b.	c #847782",
"c.	c #4E4E64",
"d.	c #3E3E51",
"e.	c #49485B",
"f.	c #303346",
"g.	c #4E4D61",
"h.	c #776F80",
"i.	c #928186",
"j.	c #BEB098",
"k.	c #D1C3A1",
"l.	c #BBA292",
"m.	c #B79C8F",
"n.	c #CCBB9D",
"o.	c #CCBFA0",
"p.	c #9D8B88",
"q.	c #7A707F",
"r.	c #58566A",
"s.	c #333548",
"t.	c #202539",
"u.	c #545164",
"v.	c #7E7586",
"w.	c #686274",
"x.	c #625E75",
"y.	c #8D7E83",
"z.	c #B49C8F",
"A.	c #AD988E",
"B.	c #AC978D",
"C.	c #9E8A88",
"D.	c #6A6478",
"E.	c #686277",
"F.	c #7A7182",
"G.	c #635D70",
"H.	c #2C3043",
"I.	c #2B2F43",
"J.	c #5F5B6D",
"K.	c #867C8D",
"L.	c #605C6E",
"M.	c #5D596D",
"N.	c #797080",
"O.	c #726A7A",
"P.	c #6E677A",
"Q.	c #6D6679",
"R.	c #4E4C5F",
"S.	c #424255",
"T.	c #474659",
"U.	c #6A6474",
"V.	c #756E83",
"W.	c #716979",
"X.	c #A08E89",
"Y.	c #A18E8A",
"Z.	c #A4918B",
"`.	c #958686",
" +	c #6F6879",
".+	c #81788A",
"++	c #1C2236",
"@+	c #514F61",
"#+	c #615C71",
"$+	c #807580",
"%+	c #A8948C",
"&+	c #9D8C89",
"*+	c #444356",
"=+	c #252A3E",
"-+	c #1A2035",
";+	c #48475A",
">+	c #797083",
",+	c #676277",
"'+	c #686278",
")+	c #666176",
"!+	c #333649",
"~+	c #1E2438",
"{+	c #6D6779",
"]+	c #35374B",
"^+	c #181E32",
"/+	c #23293F",
"(+	c #504E62",
"_+	c #817789",
":+	c #6E6778",
"<+	c #797183",
"[+	c #3B3D51",
"}+	c #1D2130",
"|+	c #3B3B4E",
"1+	c #635E70",
"2+	c #585467",
"3+	c #2E3041",
"4+	c #171A28",
"5+	c #1A1B26",
"6+	c #1B1D28",
"7+	c #1A1C27",
"8+	c #181820",
"9+	c #141928",
"0+	c #373A4F",
"a+	c #71697B",
"b+	c #625E71",
"c+	c #24293E",
"d+	c #141622",
"e+	c #181921",
"f+	c #1B1D29",
"g+	c #1B1C28",
"h+	c #111117",
"i+	c #25293B",
"j+	c #3B4463",
"k+	c #343B56",
"l+	c #1B1C26",
"m+	c #141725",
"n+	c #3E4057",
"o+	c #756D7F",
"p+	c #676275",
"q+	c #2A2F45",
"r+	c #12131C",
"s+	c #232635",
"t+	c #3A4260",
"u+	c #363D59",
"v+	c #1D1F2C",
"w+	c #191A25",
"x+	c #353C57",
"y+	c #3E4767",
"z+	c #3A4361",
"A+	c #323952",
"B+	c #1F2230",
"C+	c #1F202C",
"D+	c #424256",
"E+	c #6A6476",
"F+	c #605C6F",
"G+	c #333445",
"H+	c #1B1C27",
"I+	c #262A3D",
"J+	c #363E59",
"K+	c #3C4565",
"L+	c #3C4464",
"M+	c #30374F",
"N+	c #222636",
"O+	c #15151D",
"P+	c #3F4869",
"Q+	c #353C58",
"R+	c #39415E",
"S+	c #3E4868",
"T+	c #30354C",
"U+	c #181C2B",
"V+	c #20263B",
"W+	c #555266",
"X+	c #141A2D",
"Y+	c #212433",
"Z+	c #373E5A",
"`+	c #363E5A",
" @	c #424C6F",
".@	c #2A2F44",
"+@	c #14141C",
"@@	c #313851",
"#@	c #3C4463",
"$@	c #373F5B",
"%@	c #373E5B",
"&@	c #3C4564",
"*@	c #333C58",
"=@	c #2A2D41",
"-@	c #645E71",
";@	c #252B41",
">@	c #3B4462",
",@	c #39425F",
"'@	c #38405C",
")@	c #14151C",
"!@	c #323852",
"~@	c #3E4768",
"{@	c #333953",
"]@	c #2A2E43",
"^@	c #282B3E",
"/@	c #2B2E42",
"(@	c #30354D",
"_@	c #2B3045",
":@	c #373F5C",
"<@	c #3E4869",
"[@	c #272B3E",
"}@	c #3A4261",
"|@	c #383F5C",
"1@	c #333A53",
"2@	c #1A1D2C",
"3@	c #222638",
"4@	c #3A4362",
"5@	c #2F344B",
"6@	c #292D40",
"7@	c #323953",
"8@	c #39415F",
"9@	c #25293A",
"0@	c #394260",
"a@	c #38405D",
"b@	c #25283A",
"c@	c #2F354D",
"d@	c #24283A",
"e@	c #242839",
"f@	c #2A2F43",
"g@	c #333A54",
"h@	c #343C56",
"i@	c #262A3C",
"j@	c #3F496A",
"k@	c #2E344B",
"l@	c #38415E",
"m@	c #323851",
"n@	c #353D58",
"o@	c #232737",
"p@	c #30364E",
"q@	c #2B2F45",
"r@	c #282D40",
"s@	c #363C58",
"t@	c #181922",
"u@	c #161720",
"v@	c #38405E",
"w@	c #343B55",
"x@	c #2B2F44",
"y@	c #232636",
"z@	c #1D1E2B",
"A@	c #232637",
"B@	c #3B4362",
"C@	c #171821",
"D@	c #14141B",
"E@	c #1C1E2A",
"F@	c #202231",
"G@	c #212434",
"H@	c #13131A",
"I@	c #111016",
"J@	c #1F212F",
"K@	c #3D4666",
"L@	c #181924",
"M@	c #171822",
"N@	c #16161F",
"O@	c #121218",
"P@	c #2F344C",
"Q@	c #181822",
"R@	c #15151E",
"S@	c #1E212F",
"T@	c #111015",
"U@	c #272C3F",
"V@	c #181923",
"W@	c #1F2130",
"X@	c #313750",
"Y@	c #181A24",
"Z@	c #171721",
"`@	c #191A24",
" #	c #242739",
".#	c #434D71",
"+#	c #333A55",
"@#	c #16171F",
"##	c #171720",
"                                                                                                                                ",
"                                                                                                                                ",
"                                                                                                                                ",
"                                                                                                                                ",
"                                                                                                                                ",
"                                                                                                                                ",
"                                                                                                                                ",
"                                                                                                                                ",
"                                                                                                                                ",
"                                                                                                                                ",
"                                                                                                                                ",
"                                                                                                                                ",
"                                                                                                                                ",
"                                                                                                                                ",
"                                                                                                                                ",
"                                                    . + @ #       +                                                             ",
"                                                  $ % & * = - ; > , '                                                           ",
"                                                ) ! = ~ { > ] ^ / ( _ :                                                         ",
"                                              < ' [ } | 1 2 3 3 4 & _ ;                                                         ",
"                                              5 6 } 7 8 9 0 a b c d 2 e f #                                                     ",
"                                          g h ; i j k * l m n o b p . i q r 6 s                                                 ",
"                                        i t u v w i x y z A B z C D E F G H I                                                   ",
"                                        J u K L M N O P Q R S T U V W { X 5                                                     ",
"                                          Y < Z ` k  ...+.@.#.$.%.&.*.=.-.;.>.,.'.                                              ",
"                                              ).!.q ~.{.].^./.(._.:.<.[.}.|.1.2.                                                ",
"                                                3.| 4.5.6.7.8.9.0.a.b.c.d.e.i                                                   ",
"                                              f.g.h.i.j.k.l.m.n.o.p.q.r.s.t.                                                    ",
"                                            ,.u.v.w.x.y.z.A.B.z.C.D.E.F.G.H.                                                    ",
"                                          I.J.K.L.. M.N.O.P.P.& Q.Q.c R.'.                                                      ",
"                                            S.T.I h U.V.W.X.Y.Z.`. +.+w ;                                                       ",
"                                            5 s ++. @+#+$+%+%+B.&+= M.*+=+                                                      ",
"                                                    -+;+>+,+'+)+` |.!+                                                          ",
"                                                    ~+e.L Q.{+8 b = ]+^+                                                        ",
"                                                    /+(+_+= = :+k <+[+                                                          ",
"                                                    }+|+1+& = F 8 2+3+4+                                                        ",
"                                              5+6+7+8+9+0+|.a+k b+c+d+e+f+g+                                                    ",
"                                            h+i+j+k+l+m+n+o+| h.p+q+r+s+t+u+v+                                                  ",
"                                          w+-.x+y+z+A+B+C+D+E+F+G+H+I+J+K+L+M+N+O+                                              ",
"                                          w+u+P+Q+R+S+T+U+V+{+W+X+Y+Z+y+Z+`+ @.@+@                                              ",
"                                          w+@@#@$@%@`+&@*@=@-@4 ;@>@,@J+$@'@&@,.)@                                              ",
"                                          w+!@~@{@]@k+K+k+^@@ /@.@R+j+(@_@:@~@,.)@                                              ",
"                                          w+!@<@!@[@k+}@|@1@2@3@$@:@4@5@6@:@~@,.)@                                              ",
"                                          w+!@S+7@'.x+8@z+z+H+9@S+'@t+(@.@:@~@,.)@                                              ",
"                                          w+!@S+A+'.x+,@0@a@f+b@&@'@z+c@]@:@~@,.)@                                              ",
"                                          w+!@S+A+'.x+,@t+a@g+d@K+'@z+c@]@:@~@,.)@                                              ",
"                                          w+!@S+A+'.x+,@t+a@g+d@K+'@z+c@]@:@~@,.)@                                              ",
"                                          w+!@S+A+'.x+,@t+a@g+d@K+'@z+c@]@:@~@,.)@                                              ",
"                                          w+!@S+A+'.x+,@t+a@g+d@K+'@z+c@]@:@~@,.)@                                              ",
"                                          w+!@S+A+'.x+,@t+a@g+d@K+'@z+c@]@:@~@,.)@                                              ",
"                                          w+!@~@A+'.x+,@,@:@g+e@#@'@}@(@f@$@~@,.)@                                              ",
"                                          w+@@P+g@[@h@8@z+>@f+i@j@'@z+k@'.l@~@-.)@                                              ",
"                                          w+7@~@m@]@x+0@8@n@g+o@t+'@}@p@q@`+<@r@+@                                              ",
"                                          w+`+s@_@:@:@j+m@7+t@u@Y+a@0@v@w@x@&@_@+@                                              ",
"                                            y@z@A@z+R+B@c@O+C@D@E@a@8@>@h@z@F@G@                                                ",
"                                            H@I@J@a@a@K@w@L@M@N@B+'@R+B@m@C@I@                                                  ",
"                                              O@B+z+8@8@P@Q@Q@R@S@R+8@j+@@w+                                                    ",
"                                              T@F@&@K+U@C@V@w++@W@z+8@z+X@Y@                                                    ",
"                                              Z@`@ #K+]@I@Y@`@M@w+y@u+.#w@`@                                                    ",
"                                              5+N@+@_@i+N@V@V@w+N@D@[@+#-.V@                                                    ",
"                                              t@L@`@@###L@V@V@V@L@w+##R@u@V@                                                    ",
"                                                  V@M@t@V@V@V@V@V@V@Q@M@M@                                                      ",
"                                                                                                                                ",
"                                                                                                                                ",
"                                                                                                                                "};
