/* XPM */
static char * 6_xpm[] = {
"64 64 305 2",
"  	c None",
". 	c #1B2136",
"+ 	c #292D41",
"@ 	c #1C2237",
"# 	c #191F34",
"$ 	c #192034",
"% 	c #424256",
"& 	c #434356",
"* 	c #3C3D51",
"= 	c #1C2236",
"- 	c #3E3F52",
"; 	c #3F4053",
"> 	c #404053",
", 	c #454558",
"' 	c #35374B",
") 	c #5B5769",
"! 	c #867B8D",
"~ 	c #645E71",
"{ 	c #272C40",
"] 	c #2B2E42",
"^ 	c #2A2E42",
"/ 	c #3B3C50",
"( 	c #756D7F",
"_ 	c #7D7485",
": 	c #71697B",
"< 	c #736B7D",
"[ 	c #3A3B4F",
"} 	c #1B2135",
"| 	c #24293D",
"1 	c #1F2539",
"2 	c #545164",
"3 	c #676173",
"4 	c #23283C",
"5 	c #726B7C",
"6 	c #6A6475",
"7 	c #716A7B",
"8 	c #807687",
"9 	c #575467",
"0 	c #303346",
"a 	c #2A2D41",
"b 	c #4D4B5E",
"c 	c #081126",
"d 	c #645F71",
"e 	c #6B6477",
"f 	c #575366",
"g 	c #6F6879",
"h 	c #756E81",
"i 	c #6C667C",
"j 	c #676278",
"k 	c #47475A",
"l 	c #313346",
"m 	c #746C7E",
"n 	c #676274",
"o 	c #323448",
"p 	c #3E3E52",
"q 	c #6E6779",
"r 	c #7B7284",
"s 	c #786F81",
"t 	c #6E677A",
"u 	c #766D7A",
"v 	c #8C7E84",
"w 	c #8B7E84",
"x 	c #3C3D4D",
"y 	c #595568",
"z 	c #766E80",
"A 	c #787082",
"B 	c #776F81",
"C 	c #6F687A",
"D 	c #6D6679",
"E 	c #656077",
"F 	c #918285",
"G 	c #C1A793",
"H 	c #B9A091",
"I 	c #20253A",
"J 	c #4E4C5F",
"K 	c #83798B",
"L 	c #776E80",
"M 	c #70697B",
"N 	c #70697A",
"O 	c #625E76",
"P 	c #8D7F84",
"Q 	c #BDA492",
"R 	c #B49B8F",
"S 	c #2D3044",
"T 	c #161D32",
"U 	c #49485B",
"V 	c #303347",
"W 	c #383A4D",
"X 	c #766E7F",
"Y 	c #6B6578",
"Z 	c #918385",
"` 	c #AA938B",
" .	c #BAA593",
"..	c #CABFA0",
"+.	c #252A3E",
"@.	c #2C3044",
"#.	c #776F80",
"$.	c #5E5A6C",
"%.	c #393B4E",
"&.	c #655F72",
"*.	c #776E7F",
"=.	c #696377",
"-.	c #AE998E",
";.	c #BDA090",
">.	c #BBA996",
",.	c #DEDEAF",
"'.	c #6C6579",
").	c #A6938C",
"!.	c #B99E8F",
"~.	c #BAA794",
"{.	c #D5CFA7",
"].	c #333549",
"^.	c #635E70",
"/.	c #6D6779",
"(.	c #70687A",
"_.	c #6C6678",
":.	c #AA968C",
"<.	c #BFA593",
"[.	c #B29D8F",
"}.	c #BDA694",
"|.	c #595668",
"1.	c #7F7587",
"2.	c #6C6577",
"3.	c #6D6678",
"4.	c #7A707D",
"5.	c #A8948B",
"6.	c #B69E90",
"7.	c #84767F",
"8.	c #313347",
"9.	c #4B4A5D",
"0.	c #726B7D",
"a.	c #625D6F",
"b.	c #545163",
"c.	c #575466",
"d.	c #615D76",
"e.	c #8C7E86",
"f.	c #988787",
"g.	c #696479",
"h.	c #404159",
"i.	c #1A2035",
"j.	c #3A3C4F",
"k.	c #2B2F42",
"l.	c #6A6476",
"m.	c #181E33",
"n.	c #5C5869",
"o.	c #70697C",
"p.	c #6D667A",
"q.	c #746C7D",
"r.	c #37394C",
"s.	c #2F3246",
"t.	c #555265",
"u.	c #1D2337",
"v.	c #282D41",
"w.	c #272B3F",
"x.	c #4B495D",
"y.	c #766E81",
"z.	c #34364A",
"A.	c #131A2F",
"B.	c #23283D",
"C.	c #3D3E52",
"D.	c #393B4F",
"E.	c #2B2F43",
"F.	c #4B4A5C",
"G.	c #817788",
"H.	c #605C6E",
"I.	c #22273B",
"J.	c #212639",
"K.	c #23283B",
"L.	c #5F5A6D",
"M.	c #847A8B",
"N.	c #4F4D60",
"O.	c #21263A",
"P.	c #15151D",
"Q.	c #1B1D28",
"R.	c #2B2F44",
"S.	c #2D3247",
"T.	c #282C40",
"U.	c #292D40",
"V.	c #2C2F43",
"W.	c #1E2438",
"X.	c #7D7486",
"Y.	c #4A495C",
"Z.	c #21263B",
"`.	c #0E0D11",
" +	c #1C1E2A",
".+	c #383F5C",
"++	c #3A4361",
"@+	c #2F344C",
"#+	c #262A3C",
"$+	c #282C3F",
"%+	c #2A2E41",
"&+	c #202539",
"*+	c #7E7586",
"=+	c #14151D",
"-+	c #232637",
";+	c #323852",
">+	c #39415F",
",+	c #3A4362",
"'+	c #363D59",
")+	c #333953",
"!+	c #353C56",
"~+	c #2C3148",
"{+	c #282B3E",
"]+	c #3E3E51",
"^+	c #14141C",
"/+	c #282D40",
"(+	c #414B6E",
"_+	c #39415E",
":+	c #373F5C",
"<+	c #3A4260",
"[+	c #3B4462",
"}+	c #373E58",
"|+	c #282E44",
"1+	c #20263B",
"2+	c #272C3F",
"3+	c #3C4564",
"4+	c #363E5A",
"5+	c #38405D",
"6+	c #38405C",
"7+	c #373F5B",
"8+	c #373E5A",
"9+	c #24283B",
"0+	c #14141B",
"a+	c #2A2F44",
"b+	c #292C40",
"c+	c #343B56",
"d+	c #323952",
"e+	c #1A1B26",
"f+	c #202332",
"g+	c #31364F",
"h+	c #313851",
"i+	c #394260",
"j+	c #3C4565",
"k+	c #313750",
"l+	c #171821",
"m+	c #1B1C28",
"n+	c #232636",
"o+	c #323851",
"p+	c #343A55",
"q+	c #191A25",
"r+	c #181923",
"s+	c #26293B",
"t+	c #2E344B",
"u+	c #181A24",
"v+	c #30374F",
"w+	c #3C4464",
"x+	c #2F354C",
"y+	c #3A4261",
"z+	c #2F344B",
"A+	c #2E334A",
"B+	c #353C58",
"C+	c #3D4665",
"D+	c #333A54",
"E+	c #2C3046",
"F+	c #3B4463",
"G+	c #3E4868",
"H+	c #272B3E",
"I+	c #363D58",
"J+	c #161720",
"K+	c #191B25",
"L+	c #15161E",
"M+	c #353C57",
"N+	c #1C1D2A",
"O+	c #2C3146",
"P+	c #333A53",
"Q+	c #353D58",
"R+	c #191A24",
"S+	c #30364E",
"T+	c #363E59",
"U+	c #2D3148",
"V+	c #39425F",
"W+	c #181924",
"X+	c #171822",
"Y+	c #1E212E",
"Z+	c #38405E",
"`+	c #3D4666",
" @	c #131219",
".@	c #14151C",
"+@	c #2C3147",
"@@	c #38415E",
"#@	c #2A2E43",
"$@	c #2C3248",
"%@	c #292E42",
"&@	c #404A6C",
"*@	c #2D3248",
"=@	c #242738",
"-@	c #1E212F",
";@	c #323953",
">@	c #13131A",
",@	c #272B3D",
"'@	c #212433",
")@	c #1F2230",
"!@	c #0F0E12",
"~@	c #25293B",
"{@	c #373E5B",
"]@	c #3E4768",
"^@	c #3B4362",
"/@	c #1C1D29",
"(@	c #16161F",
"_@	c #333A55",
":@	c #343B55",
"<@	c #2E344C",
"[@	c #1B1D29",
"}@	c #1A1C27",
"|@	c #1A1C28",
"                                                                                                                                ",
"                                                                                                                                ",
"                                                                                                                                ",
"                                                                                                                                ",
"                                                                                                                                ",
"                                                                                                                                ",
"                                                                                                                                ",
"                                                                                                                                ",
"                                                                                                                                ",
"                                                                                                                                ",
"                                                                                                                                ",
"                                                                                                                                ",
"                                                                                                                                ",
"                                                                                                                                ",
"                                                                                                                                ",
"                                                                                                                                ",
"                                                                                                                                ",
"                                                              .         + @ . . # $                                             ",
"                                                            % & *     = + - ; > , , '                                           ",
"                                                          + ) ! ~ { ] ^ / ( _ : : < [ }                                         ",
"                                                  + |       1 2 3 4 2 5 6 7 8 9 ^ 0                                             ",
"                                                  a b % c . , d e f g h i j k l                                                 ",
"                                                  ^ m n o p q r q s t u v w x                                                   ",
"                                                  ^ y z A B C D C q E F G H                                                     ",
"                                              + ^   I J K L M q N N O P Q R                                                     ",
"                                              S 4 T J U V W d X Y C Z `  ...                                                    ",
"                                              +.@., #.$.S %.&.*.=.t -.;.>.,.                                                    ",
"                                              # [ < M M B X M N '.t ).!.~.{.                                                    ",
"                                                  ].^.z /.: (.(.=._.:.<.[.}.                                                    ",
"                                                  # |.1.< 2.3.m A s 4.5.6.7.                                                    ",
"                                                8.9.0.3 |.X m a.b.c.d.e.f.g.h.                                                  ",
"                                              i.W (.( j.k.l.r 9.m.4 n.o.p.q.r.$                                                 ",
"                                                  V V k.| s.(.t.u.v.w.x.y.0.z.A.                                                ",
"                                                          B.C.D.w.E.} F.G.C H.% I.                                              ",
"                                                          a J.K.E.^ w.p L._.M.N.O.                                              ",
"                                                      P.Q.R.S.^ T.U.V.W.8.C X.Y.Z.                                              ",
"                                                      `. +.+++@+#+$+%+&+' 0.*+U Z.                                              ",
"                                                    =+-+;+>+,+'+;+)+!+~+{+]+r 2 1                                               ",
"                                                    ^+/+(+_+:+_+++<+[+}+|+1+9.Y.u.                                              ",
"                                                    ^+2+3+4+.+5+.+6+7+++8+a 9+                                                  ",
"                                                    0+a+<+b+c+<+7+5+7+3+d+e+                                                    ",
"                                                    0+f+g+h+8+<+i+5+7+j+k+l+                                                    ",
"                                                    m+n+o+++<+c+p+5+:+3+h+q+                                                    ",
"                                                  r+s+'+<+:+++t++ 5+5+3+h+u+                                                    ",
"                                                  u+v+3+7+:+w+x++ 5+5+3+h+u+                                                    ",
"                                                  q+)+3+5+y+z+A+B+5+:+3+h+u+                                                    ",
"                                                  l+v+C+4+D+E+)+F+5+7+3+;+u+^+                                                  ",
"                                                  e+h+G+d+H+I+F+7+5+7+F+)+u+J+K+                                                ",
"                                              L+m+T.M+3+)+H+I+F+7+5+7+[+d+u+J+K+                                                ",
"                                              J+N+O+_+,+4+D+E+P+F+.+4+G+Q+R+0+                                                  ",
"                                                R+$+S+T+[+<+@+U+c+V+>+B+2+W+                                                    ",
"                                              X+Y+R.U.S+Z+:+F+S+^ 4+`+/+ @r+                                                    ",
"                                            .@2+<+4+5+@++@5+@@Z+)+#@y+$@0+r+                                                    ",
"                                            .@%@&@_+3+*@T.[+++`+6+s+=@-@X+r+                                                    ",
"                                            .@T.w+7+@@;@t+o+o+k+;+x+K+>@q+r+                                                    ",
"                                            .@/+`+.+:+++'++ + ,@A+<+'@^+q+r+                                                    ",
"                                            L++ `+.+5+Z+5+4+4+'+5+5+)@P.q+                                                      ",
"                                            !@~@C+8+7+{@:+_+_+:+[+j+'@=+q+                                                      ",
"                                            -+;+]@[+F+F+F+^@++3+i+A+/@(@K+                                                      ",
"                                          q+h+<+_@M+M+M+M+M+:@Z+<@(@(@                                                          ",
"                                          r+m+[@}@m+|@|@|@|@}@Q.e+X+                                                            ",
"                                                                                                                                ",
"                                                                                                                                ",
"                                                                                                                                "};
