/* XPM */
static char *result[] = {
/* columns rows colors chars-per-pixel */
"32 48 7 1 ",
"  c #181923",
". c #292D41",
"X c #38405D",
"o c #6F687A",
"O c #B59E90",
"+ c #D8D4AA",
"@ c None",
/* pixels */
"@@@@@@@@@@@@@@@@@@@@@@@@@@@@@@@@",
"@@@@@@@@@@@@@@@@@@@@@@@@@@@@@@@@",
"@@@@@@@@@@@@@@@@@@@@@@@@@@@@@@@@",
"@@@@@@@@@@@@@@@@@@@@@@@@@@@@@@@@",
"@@@@@@@@@@@@@@@@@@@@@@@@@@@@@@@@",
"@@@@@@@@@@@@@@@@@@@@@@@@@@@@@@@@",
"@@@@@@@@@@@@@@@@@@@@@@@@@@@@@@@@",
"@@@@@@@@@@@@@@@@@@@@@@@@@@@@@@@@",
"@@@@@@@@@@@@@@@@@@@@@@@@@@@@@@@@",
"@@@@@@@@@@@@@@@@@@@@@@@@@@@@@@@@",
"@@@@@@@@@@@@@@@@@@@@@@@@@@@@@@@@",
"@@@@@@@@@@@@@@@@@@@@@@@@@@@@@@@@",
"@@@@@@@@@@@@@@@..@@.....@@@@@@@@",
"@@@@@@@@@@@@@@.oo...oooo.@@@@@@@",
"@@@@@@@@@@@..@@.o.oooo..@@@@@@@@",
"@@@@@@@@@@@.o..oooooo.@@@@@@@@@@",
"@@@@@@@@@@@.oooooooOO@@@@@@@@@@@",
"@@@@@@@@@@.@.ooooooOO@@@@@@@@@@@",
"@@@@@@@@@@..o..oooOO+@@@@@@@@@@@",
"@@@@@@@@@@.oooooooOO+@@@@@@@@@@@",
"@@@@@@@@@@@.ooooooOOO@@@@@@@@@@@",
"@@@@@@@@@@@.oooooooOo@@@@@@@@@@@",
"@@@@@@@@@@.oo.oo..ooo.@@@@@@@@@@",
"@@@@@@@@@@@....o...oo.@@@@@@@@@@",
"@@@@@@@@@@@@@@.....ooo.@@@@@@@@@",
"@@@@@@@@@@@@@ ......oo.@@@@@@@@@",
"@@@@@@@@@@@@@ XX....oo.@@@@@@@@@",
"@@@@@@@@@@@  XXXXXX..o.@@@@@@@@@",
"@@@@@@@@@@ X XXXXXXX..@@@@@@@@@@",
"@@@@@@@@@ XX X.XXXXX @@@@@@@@@@@",
"@@@@@@@@@ XX X.XX.XX @@@@@@@@@@@",
"@@@@@@@@@ X XX.XX.XX @@@@@@@@@@@",
"@@@@@@@@@ X XX.XXX.X @@@@@@@@@@@",
"@@@@@@@@@@  XX.XXX.X @@@@@@@@@@@",
"@@@@@@@@@@@ XX.XXXX. @@@@@@@@@@@",
"@@@@@@@@@@@ XXX.XXXXX @@@@@@@@@@",
"@@@@@@@@@  XXXX..XXXXX @@@@@@@@@",
"@@@@@@@@@ XXXXXXX..XXX @@@@@@@@@",
"@@@@@@@@ XXXXXXXXXX... @@@@@@@@@",
"@@@@@@@@ XXXXXXXXXX    @@@@@@@@@",
"@@@@@@@@ XXXXXXXXXX    @@@@@@@@@",
"@@@@@@@@ XXXXXXXXX      @@@@@@@@",
"@@@@@@@@@ XXXXXXXX      @@@@@@@@",
"@@@@@@@@@ XXXXXXX   @@@@@@@@@@@@",
"@@@@@@@@@@ XXXXXX @@@@@@@@@@@@@@",
"@@@@@@@@@@@      @@@@@@@@@@@@@@@",
"@@@@@@@@@@@@@@@@@@@@@@@@@@@@@@@@",
"@@@@@@@@@@@@@@@@@@@@@@@@@@@@@@@@"
};
