/* XPM */
static char * 7_xpm[] = {
"64 64 330 2",
"  	c None",
". 	c #21263A",
"+ 	c #23283C",
"@ 	c #24283D",
"# 	c #2A2D41",
"$ 	c #21273B",
"% 	c #22273B",
"& 	c #292D41",
"* 	c #545164",
"= 	c #5F5A6D",
"- 	c #4C4B5E",
"; 	c #2C3044",
"> 	c #1D2337",
", 	c #181F33",
"' 	c #2A2E42",
") 	c #535063",
"! 	c #5F5B6D",
"~ 	c #393A4E",
"{ 	c #4B4A5D",
"] 	c #7A7183",
"^ 	c #686274",
"/ 	c #35374B",
"( 	c #404154",
"_ 	c #4C4A5D",
": 	c #797182",
"< 	c #887D8E",
"[ 	c #6F687A",
"} 	c #5B5769",
"| 	c #5E5A6C",
"1 	c #393B4E",
"2 	c #2E3145",
"3 	c #1C2236",
"4 	c #4F4D60",
"5 	c #676174",
"6 	c #2D3145",
"7 	c #625D70",
"8 	c #7E7587",
"9 	c #6F687B",
"0 	c #6B6578",
"a 	c #6E6779",
"b 	c #4A495C",
"c 	c #1B2135",
"d 	c #21263B",
"e 	c #605B6D",
"f 	c #4E4C5F",
"g 	c #141B30",
"h 	c #24293D",
"i 	c #736B7D",
"j 	c #6C6678",
"k 	c #696375",
"l 	c #6E677A",
"m 	c #6E677C",
"n 	c #6D667B",
"o 	c #3B3C50",
"p 	c #71697B",
"q 	c #736C7E",
"r 	c #48475A",
"s 	c #514F62",
"t 	c #766E80",
"u 	c #766E7F",
"v 	c #6D667A",
"w 	c #83777F",
"x 	c #A3908B",
"y 	c #A08F8A",
"z 	c #534F59",
"A 	c #2C2F43",
"B 	c #454558",
"C 	c #6A6476",
"D 	c #887D8F",
"E 	c #817788",
"F 	c #70697B",
"G 	c #6C6578",
"H 	c #70697A",
"I 	c #605C75",
"J 	c #908285",
"K 	c #C4A994",
"L 	c #BA9F90",
"M 	c #464659",
"N 	c #656072",
"O 	c #6D6678",
"P 	c #70687A",
"Q 	c #6D6679",
"R 	c #928385",
"S 	c #BAA292",
"T 	c #B6A192",
"U 	c #635E70",
"V 	c #504E60",
"W 	c #1C2237",
"X 	c #625D6F",
"Y 	c #787081",
"Z 	c #696477",
"` 	c #A1908A",
" .	c #B59B8E",
"..	c #BAA794",
"+.	c #D4CDA7",
"@.	c #202539",
"#.	c #323549",
"$.	c #5D596B",
"%.	c #776F81",
"&.	c #746C7D",
"*.	c #6A6478",
"=.	c #AA978D",
"-.	c #BB9E8F",
";.	c #BBA996",
">.	c #DDDDAE",
",.	c #645E71",
"'.	c #6C6577",
").	c #736C7D",
"!.	c #7A7283",
"~.	c #716A7C",
"{.	c #6F6879",
"].	c #AA968D",
"^.	c #BCA191",
"/.	c #B8A493",
"(.	c #D1C4A2",
"_.	c #6E687A",
":.	c #716A7B",
"<.	c #6D677A",
"[.	c #A08E8A",
"}.	c #BBA392",
"|.	c #B39C8F",
"1.	c #AD968C",
"2.	c #5C586B",
"3.	c #7C7385",
"4.	c #726A7C",
"5.	c #756D7F",
"6.	c #756D7E",
"7.	c #696378",
"8.	c #9D8B88",
"9.	c #B29C8F",
"0.	c #756C7B",
"a.	c #36384B",
"b.	c #645F71",
"c.	c #7F7687",
"d.	c #575467",
"e.	c #47475A",
"f.	c #797082",
"g.	c #776F80",
"h.	c #565366",
"i.	c #3A3C4F",
"j.	c #414154",
"k.	c #645F75",
"l.	c #847985",
"m.	c #847981",
"n.	c #6B667A",
"o.	c #3C3E53",
"p.	c #37394D",
"q.	c #5D596C",
"r.	c #323448",
"s.	c #25293D",
"t.	c #585467",
"u.	c #7C7384",
"v.	c #20263A",
"w.	c #4C4A5C",
"x.	c #625E72",
"y.	c #6B667B",
"z.	c #343649",
"A.	c #131B30",
"B.	c #2B2F43",
"C.	c #262A3F",
"D.	c #524F62",
"E.	c #474659",
"F.	c #7D7485",
"G.	c #3D3E51",
"H.	c #282C40",
"I.	c #1F2539",
"J.	c #7B7284",
"K.	c #1D1F2B",
"L.	c #282C3F",
"M.	c #22273A",
"N.	c #24293C",
"O.	c #313447",
"P.	c #6B6577",
"Q.	c #83788A",
"R.	c #121118",
"S.	c #1A1C27",
"T.	c #2F344C",
"U.	c #323850",
"V.	c #2C3045",
"W.	c #272A3D",
"X.	c #282B3F",
"Y.	c #2B2E41",
"Z.	c #2F3246",
"`.	c #7E7486",
" +	c #49485B",
".+	c #14151C",
"++	c #212433",
"@+	c #3A4260",
"#+	c #3C4565",
"$+	c #313750",
"%+	c #292D40",
"&+	c #2A2F43",
"*+	c #35374A",
"=+	c #676173",
"-+	c #7E7586",
";+	c #15161E",
">+	c #39415E",
",+	c #38405C",
"'+	c #38415E",
")+	c #383F5C",
"!+	c #363E5A",
"~+	c #373E5A",
"{+	c #30364E",
"]+	c #24283A",
"^+	c #2B2F42",
"/+	c #555265",
"(+	c #1F2439",
"_+	c #1C1E2A",
":+	c #2C3147",
"<+	c #191A25",
"[+	c #272C3F",
"}+	c #40496B",
"|+	c #39425F",
"1+	c #38405D",
"2+	c #394260",
"3+	c #2E354E",
"4+	c #242A3F",
"5+	c #3E3E52",
"6+	c #1B1D28",
"7+	c #2A2F44",
"8+	c #3D4666",
"9+	c #1C1E2B",
"0+	c #25293B",
"a+	c #3A4361",
"b+	c #323953",
"c+	c #373E5B",
"d+	c #38405E",
"e+	c #39415F",
"f+	c #373F5B",
"g+	c #3B4462",
"h+	c #262839",
"i+	c #1D2234",
"j+	c #14141C",
"k+	c #434D71",
"l+	c #272B3E",
"m+	c #343B55",
"n+	c #171822",
"o+	c #414B6D",
"p+	c #181923",
"q+	c #262A3C",
"r+	c #343A55",
"s+	c #3C4564",
"t+	c #343B56",
"u+	c #333A53",
"v+	c #3E4768",
"w+	c #14141B",
"x+	c #363D59",
"y+	c #222536",
"z+	c #353C57",
"A+	c #3C4665",
"B+	c #26293B",
"C+	c #404A6B",
"D+	c #31374F",
"E+	c #191A24",
"F+	c #13131A",
"G+	c #2E344B",
"H+	c #333A54",
"I+	c #323952",
"J+	c #3B4463",
"K+	c #353D58",
"L+	c #2F344B",
"M+	c #3A4261",
"N+	c #313851",
"O+	c #181A24",
"P+	c #2B3046",
"Q+	c #3E4767",
"R+	c #313751",
"S+	c #181924",
"T+	c #3D4767",
"U+	c #323852",
"V+	c #353C58",
"W+	c #191B25",
"X+	c #111016",
"Y+	c #1A1B26",
"Z+	c #323851",
"`+	c #3E4868",
" @	c #363D58",
".@	c #333953",
"+@	c #14151D",
"@@	c #16161F",
"#@	c #30364F",
"$@	c #343C56",
"%@	c #2E334A",
"&@	c #373F5C",
"*@	c #292E42",
"=@	c #232738",
"-@	c #181922",
";@	c #1B1D29",
">@	c #2D3248",
",@	c #212434",
"'@	c #15151D",
")@	c #1D202D",
"!@	c #2B3045",
"~@	c #252839",
"{@	c #2D3249",
"]@	c #3B4362",
"^@	c #121218",
"/@	c #1E212F",
"(@	c #2C3148",
"_@	c #2B2F44",
":@	c #424C6F",
"<@	c #202231",
"[@	c #3F4869",
"}@	c #30374F",
"|@	c #242739",
"1@	c #1F2230",
"2@	c #161720",
"3@	c #191B26",
"4@	c #3F486A",
"5@	c #171821",
"6@	c #222535",
"7@	c #171721",
"8@	c #1D1F2C",
"9@	c #131319",
"0@	c #292E43",
"a@	c #3C4463",
"b@	c #13131B",
"c@	c #111117",
"d@	c #282D41",
"e@	c #434D70",
"f@	c #242738",
"g@	c #181822",
"h@	c #171720",
"i@	c #232637",
"j@	c #3C4464",
"k@	c #404A6C",
"l@	c #1A1B27",
"m@	c #363E59",
"n@	c #1B1C28",
"o@	c #1A1C28",
"                                                                                                                                ",
"                                                                                                                                ",
"                                                                                                                                ",
"                                                                                                                                ",
"                                                                                                                                ",
"                                                                                                                                ",
"                                                                                                                                ",
"                                                                                                                                ",
"                                                                                                                                ",
"                                                                                                                                ",
"                                                                                                                                ",
"                                                                                                                                ",
"                                                                                                                                ",
"                                                                                                                                ",
"                                                                                                                                ",
"                                                                                                                                ",
"                                                            . + @       # @ + + $ %                                             ",
"                                                          & * = - ; > , ' ) * * ! = ~                                           ",
"                                                          ' { ] ^ + / ( _ : < [ } | 1                                           ",
"                                                  & 2 2     3 4 5 6 7 8 9 0 a b c d                                             ",
"                                                  ' e f g h } i j k [ l m n o %                                                 ",
"                                                  ' p q r s [ t [ u v w x y z                                                   ",
"                                                  A B C D E F G H a I J K L                                                     ",
"                                              & &   $ M a N O F [ P Q R S T                                                     ",
"                                              6 + % U V W ' X Y Z l `  ...+.                                                    ",
"                                              @.#.$.%.N b s k &.*.l =.-.;.>.                                                    ",
"                                                ~ ,.'.).!.: ~.{.*.Q ].^./.(.                                                    ",
"                                                  % | : '.Q _.:.<.F [.}.|.1.                                                    ",
"                                                  % 2.3.p O a 4.5.6.7.8.9.0.                                                    ",
"                                                a.b.c.d.e.f.g.h.i.j.k.l.m.n.o.                                                  ",
"                                                p.2.q.r.s.t.u.f g v.w.x.y.6.z.A.                                                ",
"                                                  % % B.C.+ X D.+ A > E.F.4.G.%                                                 ",
"                                                          H.2 6 & ' I._ J.l i b d                                               ",
"                                                        K.L.M.N.B.' & O.b P.Q.f .                                               ",
"                                                      R.S.T.U.V.W.X.Y.c Z.).`. +$                                               ",
"                                                      .+++@+#+$+%+&+V.h *+=+-+- .                                               ",
"                                                  ;+.+& >+,+'+)+!+~+>+{+]+^+p /+(+                                              ",
"                                                _+:+<+[+}+|+1+'+2+>+2+,+3+4+1 5+                                                ",
"                                              6+7+8+9+0+a+b+c+d+,+e+f+g+~+h+i+                                                  ",
"                                            j+& k+f+<+[+1+l+m+a+f+c+c+#+$+n+                                                    ",
"                                            .+[+o+|+p+q+>+L.r+s+t+7+u+v+$+p+                                                    ",
"                                            w+7+x+y+& !+z+& m+A+u+B+r+C+D+E+                                                    ",
"                                            F+G+t+F+H+o+I+& m+J+K+L+{+M+N+O+                                                    ",
"                                            F+P+{+p+{+Q+H+& t+2+>+@+%+R+m+O+                                                    ",
"                                              _+p+S+I+T+H+& t+|+>+>+H.U+V+W+                                                    ",
"                                                X+Y+Z+`+I+W. @J+f+1+t+.@W.+@                                                    ",
"                                                  @@#@v+$@%@$+&@@+,+a+z+*@=@-@                                                  ",
"                                                  ;@I+J+'+|+' >@e+1+1+1+J+s+,@'@                                                ",
"                                            S.w+)@!+e+&@e+d+!@~@{@2+]@1+1+1+e+l++@                                              ",
"                                            ^@/@H+g+e+&@d+1+m+I+D+(@_@.@a+d+:@7+j+                                              ",
"                                            <@I+[@~+&@1+1+1+e+s+)+:+_@#@z+m+)+q+'@                                              ",
"                                          <+t+8+x+1+1+1+1+1+1+&@1+|+s+}@|@q+& 1@2@                                              ",
"                                          <+.@#+f+1+1+1+1+1+1+1+1+1+J+*@@@<+3@E+p+                                              ",
"                                          <+N+J+&@1+1+1+1+1+1+1+,+&@4@!@F+5@5@n+p+                                              ",
"                                          <+t+v+!+1+1+1+1+1+1+1+d+)+Z+6@7@E+E+p+p+                                              ",
"                                          <+#@a+&@1+1+1+1+1+1+f+M+e+8@9@W+p+p+p+p+p+                                            ",
"                                            n+0@a@,+1+1+1+1+1+f+a+]@1@b@<+p+p+p+p+p+                                            ",
"                                            c@d@e@!+c+&@f+f+!+e+t+f@Y+g@S+                                                      ",
"                                            h@i@}@j@s+]@J+J+@+k@I+.+w+l@p+                                                      ",
"                                                8@m@!+t+z+z+t+1+T.<+                                                            ",
"                                                  n@n@S.o@o@o@n@S.                                                              ",
"                                                                                                                                ",
"                                                                                                                                ",
"                                                                                                                                "};
