/* XPM */
static char * 8_xpm[] = {
"64 64 338 2",
"  	c None",
". 	c #303347",
"+ 	c #2F3246",
"@ 	c #2E3145",
"# 	c #252A3E",
"$ 	c #292D41",
"% 	c #2E3245",
"& 	c #5D596C",
"* 	c #7A7283",
"= 	c #5A5669",
"- 	c #2B2F43",
"; 	c #23283C",
"> 	c #1D2337",
", 	c #676173",
"' 	c #6A6476",
") 	c #726B7D",
"! 	c #736B7D",
"~ 	c #3A3B4F",
"{ 	c #1B2135",
"] 	c #1F2439",
"^ 	c #34364A",
"/ 	c #645F71",
"( 	c #686274",
"_ 	c #20263A",
": 	c #434357",
"< 	c #5B5769",
"[ 	c #5D596A",
"} 	c #766E7F",
"| 	c #897E8F",
"1 	c #645F72",
"2 	c #404053",
"3 	c #454458",
"4 	c #36384C",
"5 	c #3B3C50",
"6 	c #38394D",
"7 	c #2C3044",
"8 	c #565365",
"9 	c #696375",
"0 	c #414154",
"a 	c #6B6577",
"b 	c #7E7587",
"c 	c #6E687D",
"d 	c #676277",
"e 	c #595669",
"f 	c #3D3E51",
"g 	c #11182D",
"h 	c #191F34",
"i 	c #2A2E42",
"j 	c #6E687A",
"k 	c #21263A",
"l 	c #7B7283",
"m 	c #6D6679",
"n 	c #746C7E",
"o 	c #6F687A",
"p 	c #6D6677",
"q 	c #786F7E",
"r 	c #37384B",
"s 	c #676174",
"t 	c #797182",
"u 	c #615C6F",
"v 	c #666173",
"w 	c #71697B",
"x 	c #716A7B",
"y 	c #6A6479",
"z 	c #8D7F83",
"A 	c #B69F91",
"B 	c #B19B8F",
"C 	c #5A5769",
"D 	c #8C8192",
"E 	c #807688",
"F 	c #716A7C",
"G 	c #6C6678",
"H 	c #70697B",
"I 	c #5F5B75",
"J 	c #8D8084",
"K 	c #C2A794",
"L 	c #B69C8E",
"M 	c #262A3E",
"N 	c #4F4D60",
"O 	c #4E4D5F",
"P 	c #7D737F",
"Q 	c #9D8A88",
"R 	c #B9A392",
"S 	c #BFAE98",
"T 	c #2B2E42",
"U 	c #262B3F",
"V 	c #313447",
"W 	c #575467",
"X 	c #1B2136",
"Y 	c #625D6F",
"Z 	c #787081",
"` 	c #696377",
" .	c #6E677A",
"..	c #AB978D",
"+.	c #BB9F90",
"@.	c #BAA895",
"#.	c #DBD8AC",
"$.	c #1C2236",
"%.	c #37394D",
"&.	c #746D7E",
"*.	c #6E6779",
"=.	c #6B6579",
"-.	c #A6948C",
";.	c #B89D8F",
">.	c #BBA995",
",.	c #D9D7AB",
"'.	c #333549",
").	c #4B495D",
"!.	c #756D7F",
"~.	c #766E80",
"{.	c #6F6879",
"].	c #6C6578",
"^.	c #AD988D",
"/.	c #BEA492",
"(.	c #B49F91",
"_.	c #C9B69B",
":.	c #5B576A",
"<.	c #7D7486",
"[.	c #6D6779",
"}.	c #736C7D",
"|.	c #746C7F",
"1.	c #8F8084",
"2.	c #B49D8F",
"3.	c #B59D90",
"4.	c #998585",
"5.	c #655F72",
"6.	c #6C6577",
"7.	c #6A6475",
"8.	c #615D76",
"9.	c #948486",
"0.	c #A8948C",
"a.	c #6C667A",
"b.	c #82788A",
"c.	c #474659",
"d.	c #36384B",
"e.	c #4D4C5F",
"f.	c #25293E",
"g.	c #635E72",
"h.	c #7B7282",
"i.	c #756C7C",
"j.	c #70697C",
"k.	c #3A3C50",
"l.	c #35374B",
"m.	c #444457",
"n.	c #434356",
"o.	c #2F3348",
"p.	c #252A40",
"q.	c #414155",
"r.	c #776F81",
"s.	c #535164",
"t.	c #171D32",
"u.	c #38394C",
"v.	c #545266",
"w.	c #70697D",
"x.	c #746C7D",
"y.	c #323448",
"z.	c #0F172C",
"A.	c #192034",
"B.	c #1A2136",
"C.	c #242737",
"D.	c #212435",
"E.	c #514F62",
"F.	c #48475A",
"G.	c #817788",
"H.	c #4D4B5E",
"I.	c #34374A",
"J.	c #1B1D28",
"K.	c #2A2D41",
"L.	c #24283D",
"M.	c #7F7687",
"N.	c #4E4C5F",
"O.	c #292E42",
"P.	c #282D41",
"Q.	c #282C41",
"R.	c #7F7587",
"S.	c #4C4A5D",
"T.	c #1E202D",
"U.	c #272B3E",
"V.	c #282C3F",
"W.	c #292C40",
"X.	c #292D42",
"Y.	c #2D3045",
"Z.	c #1D2338",
"`.	c #313448",
" +	c #48485B",
".+	c #21273B",
"++	c #13131A",
"@+	c #1A1B26",
"#+	c #2F344C",
"$+	c #30364F",
"%+	c #2A2F44",
"&+	c #272A3D",
"*+	c #282B3F",
"=+	c #292C3F",
"-+	c #252A3D",
";+	c #545164",
">+	c #7E7486",
",+	c #504E61",
"'+	c #20253A",
")+	c #1A1C27",
"!+	c #191A25",
"~+	c #16161F",
"{+	c #222535",
"]+	c #394260",
"^+	c #3C4565",
"/+	c #313750",
"(+	c #292D40",
"_+	c #2A2F43",
":+	c #24293D",
"<+	c #5F5B6D",
"[+	c #525062",
"}+	c #1E2438",
"|+	c #111016",
"1+	c #222534",
"2+	c #353D58",
"3+	c #1B1D29",
"4+	c #232738",
"5+	c #3A4361",
"6+	c #38405D",
"7+	c #38415E",
"8+	c #383F5C",
"9+	c #363E5A",
"0+	c #38405E",
"a+	c #30364D",
"b+	c #262A3C",
"c+	c #2D3145",
"d+	c #0B090C",
"e+	c #1E212E",
"f+	c #3D4665",
"g+	c #1C1E2B",
"h+	c #262A3D",
"i+	c #3F496A",
"j+	c #373F5C",
"k+	c #3A4261",
"l+	c #3B4463",
"m+	c #2E344B",
"n+	c #1F212F",
"o+	c #191D2D",
"p+	c #2B3046",
"q+	c #373F5B",
"r+	c #25293A",
"s+	c #3C4464",
"t+	c #38405C",
"u+	c #333953",
"v+	c #353C57",
"w+	c #3E4768",
"x+	c #323953",
"y+	c #161720",
"z+	c #171821",
"A+	c #2A2E43",
"B+	c #424C6E",
"C+	c #25293B",
"D+	c #3D4666",
"E+	c #343B55",
"F+	c #3E4869",
"G+	c #31374F",
"H+	c #30364E",
"I+	c #39415F",
"J+	c #3A4260",
"K+	c #191A24",
"L+	c #242839",
"M+	c #30374F",
"N+	c #181A24",
"O+	c #333A54",
"P+	c #404A6C",
"Q+	c #232636",
"R+	c #343B56",
"S+	c #2B2F45",
"T+	c #353C58",
"U+	c #191B26",
"V+	c #434D70",
"W+	c #14141B",
"X+	c #40496B",
"Y+	c #373E5A",
"Z+	c #2E334A",
"`+	c #2C3248",
" @	c #2F354D",
".@	c #3F4869",
"+@	c #181924",
"@@	c #3A4362",
"#@	c #252839",
"$@	c #313851",
"%@	c #171822",
"&@	c #323952",
"*@	c #3B4462",
"=@	c #1E202E",
"-@	c #111117",
";@	c #15161E",
">@	c #101015",
",@	c #2C3147",
"'@	c #181923",
")@	c #2C3146",
"!@	c #3C4564",
"~@	c #3B4362",
"{@	c #14151D",
"]@	c #15151D",
"^@	c #2F344B",
"/@	c #2D3349",
"(@	c #323851",
"_@	c #3E4767",
":@	c #434E72",
"<@	c #202332",
"[@	c #121118",
"}@	c #30354E",
"|@	c #39415E",
"1@	c #363D59",
"2@	c #1F2230",
"3@	c #0D0C10",
"4@	c #1C1E2A",
"5@	c #2E3349",
"6@	c #282C40",
"7@	c #232737",
"8@	c #39425F",
"9@	c #1D1E2B",
"0@	c #1D1F2C",
"a@	c #1C1D29",
"b@	c #14141C",
"c@	c #414B6D",
"d@	c #131319",
"e@	c #171721",
"f@	c #14151C",
"g@	c #272C3F",
"h@	c #16161E",
"i@	c #212434",
"j@	c #100F14",
"k@	c #121218",
"l@	c #1D1F2B",
"m@	c #171720",
"n@	c #2F354C",
"o@	c #434D71",
"p@	c #363E59",
"q@	c #15151E",
"r@	c #292E43",
"s@	c #2B3045",
"t@	c #3C4463",
"u@	c #1A1B27",
"v@	c #1B1C28",
"w@	c #181922",
"                                                                                                                                ",
"                                                                                                                                ",
"                                                                                                                                ",
"                                                                                                                                ",
"                                                                                                                                ",
"                                                                                                                                ",
"                                                                                                                                ",
"                                                                                                                                ",
"                                                                                                                                ",
"                                                                                                                                ",
"                                                                                                                                ",
"                                                                                                                                ",
"                                                                                                                                ",
"                                                                                                                                ",
"                                                                                                                                ",
"                                                            . + @     # $ % + + . .                                             ",
"                                                          $ & * = - ; > . , ' , ) ! ~ {                                         ",
"                                                  $ ]       ^ / ( _ : < [ } | 1 2 3 4                                           ",
"                                                  $ 5 6     7 8 9 0 a b c d e f g h                                             ",
"                                                  i j = k + ( l m n o p q q r                                                   ",
"                                                  i s t u v o w o x y z A B                                                     ",
"                                                $   + C D E F G H o I J K L                                                     ",
"                                              - M   ^ 3 N O 9 ! m o P Q R S                                                     ",
"                                              T U V w W X i Y Z `  ...+.@.#.                                                    ",
"                                              $.%.H &.a v ( *.x =. .-.;.>.,.                                                    ",
"                                                '.).s !.n ~.w {.` ].^./.(._.                                                    ",
"                                                  h :.<.o ].[.}.|.!.1.2.3.4.                                                    ",
"                                                  '.5.n ( w H 6.9 7.8.9.0.a.                                                    ",
"                                              { 6 }.b.c.d.!.t e.f.@ g.h.i.j.k.$.                                                ",
"                                                l.m.n.o.p.q.r.s.t.; u.v.w.x.y.z.                                                ",
"                                                  A.B.C.D._ E.c.M 7 A.F.G.w H.I.                                                ",
"                                                        J.- U # i K.L.F.H *.M.N.k                                               ",
"                                                          O.P.Q.$ $ i # ~ a R.S.k                                               ",
"                                                        T.U.V.W.i X.Y.Z.`.} b  +.+                                              ",
"                                                      ++@+#+$+%+&+*+=+-+`.;+>+,+'+                                              ",
"                                                  )+!+~+{+]+^+/+(+_+%+- :+.+<+[+}+                                              ",
"                                              |+1+2+3+4+5+6+7+8+9+9+0+a+b+X.c++                                                 ",
"                                              d+e+f+g+h+i+j+j+0+k+l+k+7+m+n+o+                                                  ",
"                                              )+p+q+3+r+s+t+6+7+9+u+v+w+x+y+                                                    ",
"                                            z+A+B+t+@+C+D+t+j+5+E+U.u+F+G+!+                                                    ",
"                                          !+H+I+l+J+K+L+D+j+j+5+E+U.E+i+M+N+                                                    ",
"                                          !+O+P+G+Q+O.R+]+J+6+6+j+O+S+9+T+U+                                                    ",
"                                          !+x+V+p+W+E+X+v+O+Y+6+I+5+Z+G+`+~+                                                    ",
"                                          !+ @.@Z++@H+w+x+U.R+@@q+j+@@E+#@J.                                                    ",
"                                            y+Z+$@%@M+F+&@U.2+*@q+8+6+q+j+9+=@-@y+;@                                            ",
"                                            >@,@j+'@/+^+9+O+)@u+!@5+5+I+k+~@#+O.,@p+n+                                          ",
"                                            {@A+U.]@/+s+6+k+^@/@u+(@G+v+I+6+f+_@P+:@<@[@                                        ",
"                                              ]@]@3+O+l+q+8+*@(@U.X.*+}@|@q+9+1@q+2+2@-@                                        ",
"                                              3@4@q+I+t+6+6+7+j+9+9+t+/+_+p+S+5@6@J.                                            ",
"                                            ]@7@O+*@I+j+6+6+t+|@J+8@!@p+@+9@9@0@a@                                              ",
"                                            b@A+c@9+j+6+6+6+6+6+j+q+_@_+d@y+e@y+e@                                              ",
"                                            f@6@!@t+6+6+6+6+6+6+6+6+I+g@h@N+K+N+N+                                              ",
"                                            ;@$ D+8+6+6+6+6+6+j+8@t+i@y+K+'@'@'@'@                                              ",
"                                            j@h+_@8+6+6+6+6+6+9+k+^+T.k@U+'@'@'@'@                                              ",
"                                            <@#+~@t+6+6+6+6+q+5+]+/@l@m@K+'@'@'@'@                                              ",
"                                          !+R+_@Y+6+6+6+6+6+6+~@n@~+~+!+'@'@'@'@'@                                              ",
"                                          !+&@l+9+6+6+6+j+q+D+p+y+%@'@'@'@'@'@'@'@'@                                            ",
"                                          !+v+o@5+q+q+p@J+!@_+!+q@N++@'@'@'@'@'@'@'@                                            ",
"                                          !+r@s@n@!@t@!@J+/@'@b@u@'@'@'@'@'@'@'@'@'@                                            ",
"                                            e@[@=@1@T+6+Z+;@e@U+'@'@      '@'@'@'@'@                                            ",
"                                                  v@)+v@@+%@w@'@'@                                                              ",
"                                                                                                                                ",
"                                                                                                                                ",
"                                                                                                                                "};
