/* XPM */
static char * 9_xpm[] = {
"64 64 313 2",
"  	c None",
". 	c #1B2136",
"+ 	c #292D41",
"@ 	c #1C2237",
"# 	c #191F34",
"$ 	c #192034",
"% 	c #424256",
"& 	c #434356",
"* 	c #3C3D51",
"= 	c #1C2236",
"- 	c #3E3F52",
"; 	c #3F4053",
"> 	c #404053",
", 	c #454558",
"' 	c #35374B",
") 	c #5B5769",
"! 	c #867B8D",
"~ 	c #645E71",
"{ 	c #272C40",
"] 	c #2B2E42",
"^ 	c #2A2E42",
"/ 	c #3B3C50",
"( 	c #756D7F",
"_ 	c #7D7485",
": 	c #71697B",
"< 	c #736B7D",
"[ 	c #3A3B4F",
"} 	c #1B2135",
"| 	c #24293D",
"1 	c #1F2539",
"2 	c #545164",
"3 	c #676173",
"4 	c #23283C",
"5 	c #726B7C",
"6 	c #6A6475",
"7 	c #716A7B",
"8 	c #807687",
"9 	c #575467",
"0 	c #303346",
"a 	c #2A2D41",
"b 	c #4D4B5E",
"c 	c #081126",
"d 	c #645F71",
"e 	c #6B6477",
"f 	c #575366",
"g 	c #6F6879",
"h 	c #756E81",
"i 	c #6C667C",
"j 	c #676278",
"k 	c #47475A",
"l 	c #313346",
"m 	c #746C7E",
"n 	c #676274",
"o 	c #323448",
"p 	c #3E3E52",
"q 	c #6E6779",
"r 	c #7B7284",
"s 	c #786F81",
"t 	c #6E677A",
"u 	c #766D7A",
"v 	c #8C7E84",
"w 	c #8B7E84",
"x 	c #3C3D4D",
"y 	c #595568",
"z 	c #766E80",
"A 	c #787082",
"B 	c #776F81",
"C 	c #6F687A",
"D 	c #6D6679",
"E 	c #656077",
"F 	c #918285",
"G 	c #C1A793",
"H 	c #B9A091",
"I 	c #20253A",
"J 	c #4E4C5F",
"K 	c #83798B",
"L 	c #776E80",
"M 	c #70697B",
"N 	c #70697A",
"O 	c #625E76",
"P 	c #8D7F84",
"Q 	c #BDA492",
"R 	c #B49B8F",
"S 	c #2D3044",
"T 	c #161D32",
"U 	c #49485B",
"V 	c #303347",
"W 	c #383A4D",
"X 	c #766E7F",
"Y 	c #6B6578",
"Z 	c #918385",
"` 	c #AA938B",
" .	c #BAA593",
"..	c #CABFA0",
"+.	c #252A3E",
"@.	c #2C3044",
"#.	c #776F80",
"$.	c #5E5A6C",
"%.	c #393B4E",
"&.	c #655F72",
"*.	c #776E7F",
"=.	c #696377",
"-.	c #AE998E",
";.	c #BDA090",
">.	c #BBA996",
",.	c #DEDEAF",
"'.	c #6C6579",
").	c #A6938C",
"!.	c #B99E8F",
"~.	c #BAA794",
"{.	c #D5CFA7",
"].	c #333549",
"^.	c #635E70",
"/.	c #6D6779",
"(.	c #70687A",
"_.	c #6C6678",
":.	c #AA968C",
"<.	c #BFA593",
"[.	c #B29D8F",
"}.	c #BDA694",
"|.	c #595668",
"1.	c #7F7587",
"2.	c #6C6577",
"3.	c #6D6678",
"4.	c #7A707D",
"5.	c #A8948B",
"6.	c #B69E90",
"7.	c #84767F",
"8.	c #313347",
"9.	c #4B4A5D",
"0.	c #726B7D",
"a.	c #666173",
"b.	c #625D6F",
"c.	c #545163",
"d.	c #575466",
"e.	c #615D76",
"f.	c #8C7E86",
"g.	c #988787",
"h.	c #696479",
"i.	c #404159",
"j.	c #1A2035",
"k.	c #2B2F43",
"l.	c #6A6476",
"m.	c #181E33",
"n.	c #5C5869",
"o.	c #70697C",
"p.	c #6D667A",
"q.	c #746C7D",
"r.	c #37394C",
"s.	c #2F3246",
"t.	c #252A3F",
"u.	c #6F697B",
"v.	c #565366",
"w.	c #1D2337",
"x.	c #282D41",
"y.	c #272B3F",
"z.	c #4B495D",
"A.	c #766E81",
"B.	c #34364A",
"C.	c #131A2F",
"D.	c #1F2130",
"E.	c #212639",
"F.	c #3C3C4F",
"G.	c #38394C",
"H.	c #282C41",
"I.	c #1B2236",
"J.	c #817788",
"K.	c #605C6E",
"L.	c #22273B",
"M.	c #1A1B25",
"N.	c #31364E",
"O.	c #293049",
"P.	c #282C3E",
"Q.	c #282C3F",
"R.	c #25293C",
"S.	c #3D3E51",
"T.	c #5F5B6D",
"U.	c #847A8B",
"V.	c #4F4D60",
"W.	c #21263A",
"X.	c #15161E",
"Y.	c #212433",
"Z.	c #3A4260",
"`.	c #3E4766",
" +	c #323851",
".+	c #282C40",
"++	c #2A2F43",
"@+	c #2E3146",
"#+	c #7D7486",
"$+	c #4A495C",
"%+	c #21263B",
"&+	c #14141C",
"*+	c #262A3D",
"=+	c #3A4261",
"-+	c #38405D",
";+	c #39415E",
">+	c #373F5C",
",+	c #363E5A",
"'+	c #373E5A",
")+	c #3B4360",
"!+	c #272E46",
"~+	c #323446",
"{+	c #7E7587",
"]+	c #181923",
"^+	c #14151D",
"/+	c #292E43",
"(+	c #3F4869",
"_+	c #373F5B",
":+	c #39425F",
"<+	c #3A4360",
"[+	c #363E5B",
"}+	c #333850",
"|+	c #7A7182",
"1+	c #545265",
"2+	c #292E42",
"3+	c #3B4362",
"4+	c #39415F",
"5+	c #38405E",
"6+	c #3C4462",
"7+	c #333C59",
"8+	c #20263B",
"9+	c #4A495B",
"0+	c #3B4463",
"a+	c #383F5C",
"b+	c #38405C",
"c+	c #373E5B",
"d+	c #394260",
"e+	c #353C57",
"f+	c #2A2D40",
"g+	c #24283C",
"h+	c #181924",
"i+	c #121218",
"j+	c #2A2E43",
"k+	c #343B56",
"l+	c #3C4564",
"m+	c #333A54",
"n+	c #3E4768",
"o+	c #313851",
"p+	c #1A1B26",
"q+	c #191A25",
"r+	c #171821",
"s+	c #343B55",
"t+	c #272B3E",
"u+	c #3C4565",
"v+	c #343A55",
"w+	c #323952",
"x+	c #3E4869",
"y+	c #30374F",
"z+	c #16161F",
"A+	c #191A24",
"B+	c #363D59",
"C+	c #40496B",
"D+	c #323953",
"E+	c #3F496A",
"F+	c #313750",
"G+	c #191B26",
"H+	c #161720",
"I+	c #181A24",
"J+	c #3D4666",
"K+	c #333A53",
"L+	c #323852",
"M+	c #3D4667",
"N+	c #3E4767",
"O+	c #333953",
"P+	c #2B2F44",
"Q+	c #3D4767",
"R+	c #272A3D",
"S+	c #353D58",
"T+	c #1A1C27",
"U+	c #3E4868",
"V+	c #3B4462",
"W+	c #2F354D",
"X+	c #2E344B",
"Y+	c #1B1D29",
"Z+	c #3A4361",
"`+	c #222535",
" @	c #1E212F",
".@	c #30364E",
"+@	c #30364F",
"@@	c #242738",
"#@	c #0D0C10",
"$@	c #1D1F2B",
"%@	c #3D4665",
"&@	c #282B3E",
"*@	c #1E202D",
"=@	c #15151D",
"-@	c #212434",
";@	c #2B3046",
">@	c #363E59",
",@	c #1B1C28",
"'@	c #14151C",
")@	c #404A6B",
"!@	c #212332",
"~@	c #100F14",
"{@	c #2C3148",
"]@	c #2E334A",
"^@	c #1C1E2B",
"/@	c #282D40",
"(@	c #121219",
"_@	c #181922",
":@	c #222636",
"<@	c #171822",
"[@	c #14141B",
"}@	c #2B3146",
"|@	c #414B6D",
"1@	c #202332",
"2@	c #3C4463",
"3@	c #2D3349",
"4@	c #2C3147",
"5@	c #171721",
"6@	c #13131A",
"7@	c #353C58",
"8@	c #16171F",
"                                                                                                                                ",
"                                                                                                                                ",
"                                                                                                                                ",
"                                                                                                                                ",
"                                                                                                                                ",
"                                                                                                                                ",
"                                                                                                                                ",
"                                                                                                                                ",
"                                                                                                                                ",
"                                                                                                                                ",
"                                                                                                                                ",
"                                                                                                                                ",
"                                                                                                                                ",
"                                                                                                                                ",
"                                                                                                                                ",
"                                                                                                                                ",
"                                                                                                                                ",
"                                                              .         + @ . . # $                                             ",
"                                                            % & *     = + - ; > , , '                                           ",
"                                                          + ) ! ~ { ] ^ / ( _ : : < [ }                                         ",
"                                                  + |       1 2 3 4 2 5 6 7 8 9 ^ 0                                             ",
"                                                  a b % c . , d e f g h i j k l                                                 ",
"                                                  ^ m n o p q r q s t u v w x                                                   ",
"                                                  ^ y z A B C D C q E F G H                                                     ",
"                                              + ^   I J K L M q N N O P Q R                                                     ",
"                                              S 4 T J U V W d X Y C Z `  ...                                                    ",
"                                              +.@., #.$.S %.&.*.=.t -.;.>.,.                                                    ",
"                                              # [ < M M B X M N '.t ).!.~.{.                                                    ",
"                                                  ].^.z /.: (.(.=._.:.<.[.}.                                                    ",
"                                                  # |.1.< 2.3.m A s 4.5.6.7.                                                    ",
"                                                8.9.0.a.y X m b.c.d.e.f.g.h.i.                                                  ",
"                                              j.W (.( / k.l.r 9.m.4 n.o.p.q.r.$                                                 ",
"                                                  V s.@.t.s.u.v.w.x.y.z.A.0.B.C.                                                ",
"                                                      D.D.E.F.G.H.k.I.9.J.C K.% L.                                              ",
"                                                        M.N.O.t.P.Q.R.S.T._.U.V.W.                                              ",
"                                                      X.Y.Z.`. +.+++@+1 0 C #+$+%+                                              ",
"                                                    &+*+=+-+;+>+,+'+)+!+~+0.{+U %+                                              ",
"                                                  ]+^+/+(+_+>+;+:+;+<+[+}+p |+1+1                                               ",
"                                                  ]+X.2+3+4+5+>+-+4+_+6+7+8+9+$+w.                                              ",
"                                                  ]+&+2+0+,+a+5+b+c+>+d+e+f+g+                                                  ",
"                                              ]+h+]+i+j+-+^ k+l+k+j+m+n+o+p+                                                    ",
"                                              q+r+h+.+>+s+t+m+u+v+Q.w+x+y+r+                                                    ",
"                                              p+z+A+B+C+D++ s+u+v+Q.s+E+F+q+                                                    ",
"                                              G+H+I+o+J+K++ s+l+k+j+L+M+F+I+                                                    ",
"                                              G+H+I+w+N+O++ k+Z.-+_+P+m+K+I+                                                    ",
"                                              q+H+G+D+Q+m++ k+4+4+Z.R+F+S+I+                                                    ",
"                                              T+X.z+o+U+w+t+S+V+a+-+W+m+X+A+                                                    ",
"                                              A+r+Y+K+J+m+j+m+4+-+-+Z+m+`+]+                                                    ",
"                                              i+ @c+4+a+;+_+j+.@V+-+d+O+`+r+                                                    ",
"                                              i+Y.u+Z+c+4+:+s+X++@a+5+a+W+@@                                                    ",
"                                              #@$@;+Z.a+a+>+%@X+&@Z.;+=+_+j+*@                                                  ",
"                                              =@-@4+d+>+-+-+d+.@;@,+5+4+>@P+,@X.                                                ",
"                                            '@y.=+b+-+-+-+-+b+:+m++ S+Z+b+>+ @i+                                                ",
"                                            &+2+)@>+-+-+-+-+b+d+5+ +P+ +)@(+!@~@                                                ",
"                                            '@.+l+b+-+-+-+-+-+>+;+Z+ +{@X+]@^@&+                                                ",
"                                            '@/@J+a+-+-+-+-+-+-+-+-+V+t+(@z+_@A+                                                ",
"                                            ^+Q.u+b+-+-+-+>+>+,+d+3+:@z+]+<@                                                    ",
"                                            [@}@|@,+_+c+-+l+0+n+-+@@H+z+q+                                                      ",
"                                            H+1@w+0+2@u+-+3@4@F+Q.'@5@p+                                                        ",
"                                            p+6@*@B+7@b+X+X.&+8@H+q+h+                                                          ",
"                                                  ,@T+,@p+<@<@<@<@                                                              ",
"                                                                                                                                ",
"                                                                                                                                ",
"                                                                                                                                "};
