/* XPM */
static char *cd8dfc4f95a64f1093346dc261abc671r2PQXM8ubjQzlH2q[] = {
/* columns rows colors chars-per-pixel */
"64 64 120 2 ",
"   c None",
".  c #000000",
"X  c #000713",
"o  c #000A17",
"O  c #000C1B",
"+  c #000F21",
"@  c #00122D",
"#  c #001734",
"$  c #001836",
"%  c #001A3A",
"&  c #001E44",
"*  c #002047",
"=  c #00214B",
"-  c #002655",
";  c #00265A",
":  c #00285A",
">  c #002D63",
",  c #002E69",
"<  c #00316D",
"1  c #013474",
"2  c #00367C",
"3  c #02397D",
"4  c #30455F",
"5  c #334965",
"6  c #364E6B",
"7  c #37506E",
"8  c #3B5574",
"9  c #3E5877",
"0  c #3F5B7E",
"q  c #003B83",
"w  c #083E80",
"e  c #003F89",
"r  c #084082",
"t  c #02418C",
"y  c #09458E",
"u  c #194D8D",
"i  c #034595",
"p  c #094893",
"a  c #034799",
"s  c #044A9D",
"d  c #134D94",
"f  c #1E589F",
"g  c #2C5689",
"h  c #385B85",
"j  c #245794",
"k  c #044CA4",
"l  c #054FA9",
"z  c #0550AB",
"x  c #0854AF",
"c  c #1D59A0",
"v  c #0655B5",
"b  c #0B56B2",
"n  c #0657B8",
"m  c #0759BC",
"M  c #205AA1",
"N  c #326DB3",
"B  c #3D72B3",
"V  c #3771B8",
"C  c #3B75BB",
"Z  c #3E78BF",
"A  c #415E82",
"S  c #436186",
"D  c #45648A",
"F  c #48678F",
"G  c #4A6B93",
"H  c #456C9C",
"J  c #4C6E98",
"K  c #4F729D",
"L  c #446EA0",
"P  c #4770A2",
"I  c #4874AA",
"U  c #5175A1",
"Y  c #587DAB",
"T  c #4676B1",
"R  c #4779B6",
"E  c #075BC1",
"W  c #085DC3",
"Q  c #0962CC",
"!  c #0A66D4",
"~  c #0B6ADD",
"^  c #0C6EE4",
"/  c #0E70E5",
"(  c #0D72EB",
")  c #0E76F3",
"_  c #0F7DFF",
"`  c #107EFF",
"'  c #427DC4",
"]  c #1081FF",
"[  c #4480C7",
"{  c #4481C9",
"}  c #538ED4",
"|  c #5D97DD",
" . c #6B9AD4",
".. c #6D9ED9",
"X. c #639DE3",
"o. c #68A2EA",
"O. c #6BA6EE",
"+. c #72A3E0",
"@. c #72A4E2",
"#. c #73A5E3",
"$. c #73A6E5",
"%. c #79AEF0",
"&. c #80B9FF",
"*. c #82BBFF",
"=. c #83BCFF",
"-. c #83BDFF",
";. c #84BDFF",
":. c #84BEFF",
">. c #85BEFF",
",. c #85C1FF",
"<. c #86C0FF",
"1. c #87C0FF",
"2. c #86C1FF",
"3. c #89C2FF",
"4. c #89C4FF",
"5. c #8AC5FF",
"6. c #8BC6FF",
"7. c #8AC7FF",
"8. c #8BC7FF",
"9. c #8DC8FF",
/* pixels */
"                                                                                                                                ",
"                                                                                                                                ",
"                                                                                                                                ",
"                                                                                                                                ",
"                                                                                                                                ",
"                                                                                                                                ",
"                                                                                                                                ",
"                                                                                                                                ",
"                                                                                                                                ",
"                                                                                                                                ",
"                                                            .                                                                   ",
"                                                          X h 8                                                                 ",
"                                                        . X I A .                                                               ",
"                                                        O @ L %.7                                                               ",
"                                                      . O # H 7.0 .                                                             ",
"                                                      % = @ H ,.$.7                                                             ",
"                                                    . = : @ H :.,.A .                                                           ",
"                                                    $ 1 : @ H ,.-.@.7                                                           ",
"                                                  . = e : @ L } } 7.S .                                                         ",
"                                                  $ 1 q : @ P ' y } @.7                                                         ",
"                                                . = q q : @ P [ 1 C 9.D .                                                       ",
"                                                $ < q q : @ P [ 2 d } +.6                                                       ",
"                                              . = m l q : @ P [ 2 2 V 7.F .                                                     ",
"                                              $ , ! m q : @ P [ 2 2 C 3...6                                                     ",
"                                            . = v ) v 3 : @ P [ 2 q d } 7.G .                                                   ",
"                                            $ < ! ] ^ l - @ P [ 2 q 1 N ,...6                                                   ",
"                                          . = q Q _ ] m - @ P [ 2 q M X.*.,.J .                                                 ",
"                                          # s a Q _ ` m - @ P ' 2 2 C ,.*.*. .5                                                 ",
"                                        . - ~ ~ / _ ` m - @ P [ 2 2 V :.*.*.,.K .                                               ",
"                                        # < ! ] _ _ ` m - @ P [ 2 f X.*.*.*.*. .5                                               ",
"                                      . - q l / _ _ ` m - @ P [ 1 Z ,.*.*.*.*.,.U .                                             ",
"                                      # < q 2 ! ] ` ] m - @ P ' 1 Z 3.:.:.-.*.*. .4                                             ",
"                                    . : q 3 2 l W W x 2 & @ H o.c c [ ' ' | ,.:.7.Y .                                           ",
"                                    . w E m E i 3 3 > - : - T O.j ; ; ; , u T [ [ g X                                           ",
"                                    . b ] ] ^ a 3 q q q q q [ ' - # # # = : - , q : O                                           ",
"                                    . b ] ~ i l a q q q q 2 [ [ ; # $ $ # - 1 - 1 - .                                           ",
"                                      1 / z s Q k q q q q , R [ ; # $ $ # = 1 > $ $                                             ",
"                                      . t s ~ v 3 q q q q = H [ ; # # # $ # - 2 # .                                             ",
"                                        # < v s q q q 3 s , H [ ; & - = # # = > %                                               ",
"                                        . - q q q q q a ^ i H [ ; : e > # $ $ + .                                               ",
"                                          % 1 q q q 2 Q ] t H [ ; : q > # $ # O                                                 ",
"                                          . - q q q i ~ ] t H [ - : q < & $ + .                                                 ",
"                                          . - q q 3 Q ` ] t H [ ; : q q > $ + .                                                 ",
"                                            % 1 q i ~ _ ] t H [ - : q q > # O                                                   ",
"                                            . - q Q ` _ ] t H [ - : q q > O .                                                   ",
"                                              & 1 Q _ _ ] t H [ - : q q : o                                                     ",
"                                              . : ^ _ _ ] t H [ ; : q q = .                                                     ",
"                                                w / _ _ ] t H [ - : q 1 %                                                       ",
"                                                . p ] _ ] t H [ - - e * .                                                       ",
"                                                  3 ( _ ] t H [ > > 2 %                                                         ",
"                                                  . y ] ] t H [ 2 e & .                                                         ",
"                                                    3 ( ] t H [ 2 2 %                                                           ",
"                                                    . y ] t H [ q & .                                                           ",
"                                                      3 _ t H [ 1 %                                                             ",
"                                                      . y i H { % .                                                             ",
"                                                        r e P ' #                                                               ",
"                                                          $ B 9                                                                 ",
"                                                            .                                                                   ",
"                                                                                                                                ",
"                                                                                                                                ",
"                                                                                                                                ",
"                                                                                                                                ",
"                                                                                                                                ",
"                                                                                                                                "
};
