/* XPM */
static char *_8a2e58b4ef14e2bbd4dfb26161d7c94iWXM7DovhUVp9LtH[] = {
/* columns rows colors chars-per-pixel */
"65 65 141 2 ",
"   c None",
".  c #14131A",
"X  c #1E1724",
"o  c #1E1825",
"O  c #1E1C2A",
"+  c #211D2B",
"@  c #341A26",
"#  c #331C2B",
"$  c #211E31",
"%  c #23212E",
"&  c #242233",
"*  c #292635",
"=  c #272438",
"-  c #292739",
";  c #2D2B3D",
":  c #322435",
">  c #392332",
",  c #3B2638",
"<  c #312C3E",
"1  c #392B3D",
"2  c #4B1B28",
"3  c #551D2C",
"4  c #5B1A29",
"5  c #7E1E34",
"6  c #472435",
"7  c #482232",
"8  c #462A3F",
"9  c #49283C",
"0  c #50273B",
"q  c #53283D",
"w  c #66273B",
"e  c #712235",
"r  c #75263A",
"t  c #7E233D",
"y  c #2F2D40",
"u  c #312E41",
"i  c #333344",
"p  c #393446",
"a  c #373648",
"s  c #38374A",
"d  c #373849",
"f  c #3A3B4D",
"g  c #3D3F50",
"h  c #432D40",
"j  c #413446",
"k  c #40384A",
"l  c #4E394B",
"z  c #5F3B4E",
"x  c #5F3D50",
"c  c #7C2640",
"v  c #742E45",
"b  c #7D2841",
"n  c #6A3D52",
"m  c #3E4253",
"M  c #414455",
"N  c #4A4456",
"B  c #4F4857",
"V  c #45475A",
"C  c #474A5D",
"Z  c #534153",
"A  c #694856",
"S  c #6D4D5B",
"D  c #65515E",
"F  c #6A505E",
"G  c #4A4E62",
"H  c #4F5268",
"J  c #52556C",
"K  c #861C2E",
"L  c #971D34",
"P  c #AB1E36",
"I  c #852138",
"U  c #94263E",
"Y  c #A2243A",
"T  c #B82037",
"R  c #BA263D",
"E  c #B6283F",
"W  c #C21F36",
"Q  c #D51F38",
"!  c #D91F38",
"~  c #C82037",
"^  c #C5223E",
"/  c #CE2038",
"(  c #D32039",
")  c #DB213C",
"_  c #E3213E",
"`  c #E9203E",
"'  c #802841",
"]  c #942742",
"[  c #8F3045",
"{  c #913C4E",
"}  c #9C3D54",
"|  c #A72B43",
" . c #AB2843",
".. c #B32B46",
"X. c #AC324D",
"o. c #B8354C",
"O. c #B9384F",
"+. c #C92442",
"@. c #D62444",
"#. c #DF2644",
"$. c #DE3C4F",
"%. c #E62344",
"&. c #EC2344",
"*. c #EC2748",
"=. c #F22244",
"-. c #F22141",
";. c #FA2244",
":. c #FF2245",
">. c #FE2245",
",. c #FF2246",
"<. c #FD2245",
"1. c #FF2446",
"2. c #FE2245",
"3. c #F6334F",
"4. c #FF3451",
"5. c #FE3A56",
"6. c #9C4156",
"7. c #975F69",
"8. c #A4646D",
"9. c #B66F76",
"0. c #BC6E74",
"q. c #BD757B",
"w. c #FF405A",
"e. c #FF596B",
"r. c #FF6874",
"t. c #FE707A",
"y. c #FD767E",
"u. c #FF757E",
"i. c #FF7980",
"p. c #FF7F85",
"a. c #EB8687",
"s. c #EA8587",
"d. c #ED8688",
"f. c #FF8488",
"g. c #F68B8C",
"h. c #F98D8E",
"j. c #FF8F8F",
"k. c #FF908F",
"l. c #FF9090",
"z. c #FF9392",
"x. c #FF9090",
/* pixels */
"                                                                                                                                  ",
"                                                                                                                                  ",
"                                                                                                                                  ",
"                                                                                                                                  ",
"                                                                                                                                  ",
"                                                                                                                                  ",
"                                                        a               ;                                                         ",
"                                                      u f       :.:.      V                                                       ",
"                                                    ; a     ( -.&.:.:.    s J                                                     ",
"                                                    ; g   Q / )           y M J                                                   ",
"                                                    a M   -.)             u m H                                                   ",
"                                                    d M   ` -.            u m H                                                   ",
"                                                    a M x ( -.            i M H                                                   ",
"                                                    ; M m R `             f M H                                                   ",
"                                                    * a M Z ! `         p M V J                                                   ",
"                                                    o * a M             f M G                                                     ",
"                                                      + ; a M g     i f M C J                                                     ",
"                                                        & ; a g f f M M C J                                                       ",
"                                                          % * a M M V G J                                                         ",
"                                                            o * a M V                                                             ",
"                                                        .   & * ; a M M d ;                                                       ",
"                                                      % & * * - ; ; d i d f i                                                     ",
"                                                      & ; * & - * * ; ; a M i         )                                           ",
"                                          ( )         % * + * 8 o.7.p ; ; m a         _ ;.                                        ",
"                                          &.:.      + & + & - ] e.h.D i ; a f                                                     ",
"                                          :.        % % % * 9 %.i.l.q.s ; ; a ;                                                   ",
"                                    _ (             * O & ; U 1.y.l.d.S y ; ; a                                                   ",
"                                                    + % * < +.` $.t.w.} i ; - ;                                                   ",
"                                                  O X O + ; r / ( :.*.n f - * i ;                                                 ",
"                                                  & + & + % > P ) :. .i ; - i m i                                                 ",
"                                                  & * & & * & e ) =.0 ; ; i z [ j                                                 ",
"                                                & & & & & + & 1 U ' < ; i N E ) l S                                               ",
"                                                3 * & & & & + % - ; ; i M N #.&.l 8.                                              ",
"                                              ) 4 T I * 7 * * & - ; i f M N X.v a l s.l.                                          ",
"                                            :.P O I ^ : 6 * & * * - f g M M m d y j d.l.                                          ",
"                                          :.:.P O & : * & & & & * - f M g f f f y < 0.l.j.                                        ",
"                                        ;.:.:.L % & & & & & & & * * d m f m m d ; ; A g.l.f.                                      ",
"                                        ( -.%.@ % & * & & * & - * * i M M M m i ; ; ; 0.p.5.                                      ",
"                                        / ( 5 O & * & * * - * - ; 1 d g f g f i ; - ; O.4.:.                                      ",
"                                        / / 3 O & & & - * * * < { 0.B f f M ; ; ; ; ; t ;.:.                                      ",
"                                          W 2 % & & & * * * & c 5.j.9.d M a ; ; ; ; ; 1 @.                                        ",
"                                          K O & & & & & & & , +.5.k.s.F M a ; ; ; ; ; ; b                                         ",
"                                          # & & & * & & & & q -.3.y.r.6.m i ; ; u u ; ; h                                         ",
"                                          & & & & - & & & & 1 Y ( -.*.n i i ; ; ; y ; ; -                                         ",
"                                        ; & & & & & * & & & - w ~ ` ..M i ; ; ; ; y ; ; ;                                         ",
"                                        ; * * * * * * & & & * - r | h f a u ; ; ; y i i ; ;                                       ",
"                                      ; * ; * * * * & & * - - - < k - ; ; ; u u ; ; u u ; - -                                     ",
"                                    ; * & ; * * - * & & - & ; - - ; ; i a i u i ; ; ; ; ; & & -                                   ",
"                                  ; - & - ; & * ; & * * & & ; - ; d i s u i u i ; ; ; ; - $ $ & -                                 ",
"                                ; ; & & * - * - - & - * & & ; - u M ; u ; i u i u u ; ; = $ $ $ & -                               ",
"                              ; ; & & & & & & & & & * & & & ; - u M ; ; ; i u ; ; ; y - & & $ $ & & -                             ",
"                            ; ; & & & * * & & & & & & & & & ; * ; f ; ; ; i a ; ; ; y ; & & $ $ & & & -                           ",
"                          ; - & & & * ; - & & & & & & * & & - + + + + ; y u f ; u i ; - & & & $ & & $ & -                         ",
"                        ; = & & & * * ; & & * & & & & * & & - & O X + ; y y a f i u ; & & & & & & & $ $ & -                       ",
"                      ; * & & & & & ; - & & & - & & & & & - & & $ o o * y ; ; u ; ; = & & & & & & & & $ $ & ;                     ",
"                    ; = & & & & & = ; * * & & * & & * & & - & & O o o & y y u ; ; ; & & & & & & & & & & $ & -                     ",
"                      & & & & & & ; * * & & & * - & & & & ; & $ o o o & y u i ; ; - & & & $ $ $ & & & & & & ;                     ",
"                              & & - & * * & & & * * & & & ; & O o o o & ; ; ; ; ; = & & & & $ $ & & &                             ",
"                                      & & & & & & & & & ; - $ o o o o o ; ; ; ; ; & & & &   &                                     ",
"                                              * & & & * ; - $ o o o o o ; ; ; ; ; & &                                             ",
"                                                        ; - $ O o o o o ; ;                                                       ",
"                                                          & & + o o o o                                                           ",
"                                                            $ + o o o o                                                           ",
"                                                              + o o o                                                             ",
"                                                                                                                                  "
};
