/* XPM */
static char *_2ceda49b5794f1d964ece5f5520d0a5CizfYbdhyxzpcjBV[] = {
/* columns rows colors chars-per-pixel */
"65 65 174 2 ",
"   c #1F273E",
".  c #122241",
"X  c #252F47",
"o  c #2D3345",
"O  c #2E364D",
"+  c #343441",
"@  c #363A4E",
"#  c #3D3E4D",
"$  c #2C3753",
"%  c #2F3854",
"&  c #2E3958",
"*  c #353B54",
"=  c #3C3F52",
"-  c #333E59",
";  c #3D4156",
":  c #37415D",
">  c #3D425B",
",  c #3B4461",
"<  c #44414E",
"1  c #434454",
"2  c #4B4A55",
"3  c #43465C",
"4  c #484658",
"5  c #45495D",
"6  c #4B4B5C",
"7  c #584F54",
"8  c #534E5A",
"9  c #4F505E",
"0  c #55515E",
"q  c #5A545D",
"w  c #6C5C5E",
"e  c #424760",
"r  c #464A61",
"t  c #4B4D62",
"y  c #4B4F6A",
"u  c #504F62",
"i  c #4E5165",
"p  c #4F5269",
"a  c #535365",
"s  c #5A5664",
"d  c #5C5965",
"f  c #545569",
"g  c #58576A",
"h  c #56586C",
"j  c #5D5B6C",
"k  c #555972",
"l  c #5D5C71",
"z  c #605764",
"x  c #645D66",
"c  c #6B5E63",
"v  c #625E6D",
"b  c #685F6C",
"n  c #625E71",
"m  c #6B6166",
"M  c #64616E",
"N  c #6A636D",
"B  c #6F686E",
"V  c #73666D",
"C  c #7A676C",
"Z  c #75686F",
"A  c #656273",
"S  c #6B6574",
"D  c #6E6975",
"F  c #67647A",
"G  c #6C6679",
"H  c #6E6A7A",
"J  c #716675",
"K  c #726B76",
"L  c #7A6D75",
"P  c #716779",
"I  c #746C7B",
"U  c #796E7C",
"Y  c #737176",
"T  c #7C7176",
"R  c #76717C",
"E  c #7E757F",
"W  c #7C767E",
"Q  c #7E757E",
"!  c #7A727D",
"~  c #7D787E",
"^  c #826E75",
"/  c #837376",
"(  c #83757A",
")  c #82747C",
"_  c #80767F",
"`  c #82767E",
"'  c #86777C",
"]  c #82757D",
"[  c #8C777D",
"{  c #83787E",
"}  c #8B7A7C",
"|  c #897B7F",
" . c #8B7A7E",
".. c #8F807F",
"X. c #9C847F",
"o. c #776E80",
"O. c #776F80",
"+. c #796E80",
"@. c #757081",
"#. c #777181",
"$. c #7A7180",
"%. c #7B7380",
"&. c #7F7280",
"*. c #7D7082",
"=. c #7B7481",
"-. c #7C7580",
";. c #7F7480",
":. c #7D7680",
">. c #7C7582",
",. c #7E7583",
"<. c #7D7782",
"1. c #7F7783",
"2. c #7E7584",
"3. c #7D7482",
"4. c #7D7880",
"5. c #7E7982",
"6. c #7C7488",
"7. c #827581",
"8. c #827681",
"9. c #837783",
"0. c #847780",
"q. c #807785",
"w. c #827683",
"e. c #817983",
"r. c #877982",
"t. c #847B83",
"y. c #867A83",
"u. c #807A84",
"i. c #807B86",
"p. c #847B84",
"a. c #847A86",
"s. c #827E86",
"d. c #847D87",
"f. c #837A84",
"g. c #887981",
"h. c #887C85",
"j. c #8B7D86",
"k. c #8A7D84",
"l. c #867F8A",
"z. c #857B89",
"x. c #8F7F8A",
"c. c #8B7E8A",
"v. c #927E82",
"b. c #987E85",
"n. c #858084",
"m. c #8C8186",
"M. c #8C828A",
"N. c #938385",
"B. c #908284",
"V. c #938285",
"C. c #9B8586",
"Z. c #9D8986",
"A. c #91818B",
"S. c #968588",
"D. c #92838D",
"F. c #93848A",
"G. c #99878A",
"H. c #99868A",
"J. c #968B8B",
"K. c #95888E",
"L. c #9F8A88",
"P. c #9E888A",
"I. c #99898E",
"U. c #9C8A8C",
"Y. c #938591",
"T. c #9D8C91",
"R. c #9E9191",
"E. c #9D9093",
"W. c #A18C8C",
"Q. c #A7918D",
"!. c #A9918B",
"~. c #A28F91",
"^. c #A69291",
"/. c #AA9192",
/* pixels */
"P F a f a A 7.H j T ( M K U S U P I I D ! I ! z.f.-.$.2.-.Q -.p.I D K I ` -.Q I H K.K K Q y.j.i > u a x | ! j ` S K v y.4.-.-.I I ",
"A h 6 M d f G @.! K I f L I S I K K K K ! R ! ! s.d.! R -.-.-.R S I D K ! ! R A K K K ! S -.H G j d V.K P.Q L G.S D I e.Y ! I I A ",
"I K K Q M J S A f 5 I L P H F H I D 9.G n A R ! f.-.S I ! ! 2.-.I U Q ! Q ! ! Q $.G =.P %.Q P t 5 V.I.S ! 0.S F R A I y.-.S K ! ! ",
"e.I j j v N v v ! S Q R i D Q I ! Q $.I S S G D I $.v ! I ! -.R K M D -.! R ! $.F S -.7.%.o.A n S.E.Q p g.L p S F y 7.Q -.K S I l ",
"y.I j a K K ` ! N | I A I W.K K k.-.I I A j A A A U S Q I S I G P S A S I ! K U o.K Q I P A S c.D.Q S v P.a j Q 5 ` A.! I K I ! A ",
"$.j a B n.K S S L j.Q S f r u N S H S U g ! ` K k.` v S P A P D I S v g ! ! S %.%.K K I K J K 9.S ! A Q m.S Q v v S c.7.K S I I 2.",
"H S N T { Q D L ! I G A n 6 j ! R R Q Q K Q H U c.y.j A K a S ! L U P K ! I %.$.-.q.$.I $.S I H -.7.-.Q K S A ` h.S j.7.! K ! I -.",
"A Q h.R Q %.z.y.e.y.%.K c.0.K K =.4.e.H f.D 4.k.7.! H 0.h.A K ` 9.2.-.Q Q 7.9.$.%.9.f.S S I I I -.9.$.! Q S P H S S ` J R ! S I -.",
"J 7.$.I S K ! A P -.9.%.9.f.! u.m.! S p.! P 7.d.=.n y l a I L ] ! Q -.I I 5.! ! I -.z.S Q -.! -.-.-.! -.I I -.d.S a ! S K M I $.I ",
"I I I P v v S S S ` 7.%.I I f.d.! A S K.D -.! I I j u v K ` ! J U s.f.$.Q =.Q ! I %.-.K R R ! ! ! ! ! I P D K D f.K Q P 0.M A H D ",
"7.! I $.z.7.L I I f.5.2.K I ! G S ! -.e.R Q I P I I ` h.K.-.! ! ! ! -.$.G P I S S ! ! D D 7.A D ! -.e.I J I ! -.-.D M ! P A I Q ! ",
"S S 2.9.6.$.I ! ! -.2.I H P G P c.k.f.! K ! I S P %.f.I c.I n 7.2.I %.o.I A %.%.I ! I D S j I 7.! -.-.! -.2.$.f.-.! ! R %.Q M.z.p.",
"K I ! -.2.G %.c.f.-.I ! H J K -.9.7.I K K U I ! I I R I K l A 4.I I n h r S F.-.{ ! -.R I ! Q ! S I ! I I U $.z.-.! Q Q I I c.I I ",
"K P ! ! I D h.c.5.-.$.R U I I $.! I K K K P P S g ! -.P j a p.d.=.A n t V.W.K R e.R I S S j g f a S ! P R R P d.f.e.R I $.p.Q I K ",
"P P $.f.I Q ! ! -.$.I I I -.R ! I ! I I I P A t K d.-.S S e.F.4.H A j M ^.! S I R I I -.A A S S v J ] ! e.-.Q %.=.! -.$.-.d.I ! ! ",
"R S -.-.! -.! ! R K R P I I I 4.I K J %.I U P I k.R K ! H I A j i 5 L G.K.f.I ! D L U I %.M.P K v v.k.-.z.f.-.I n 7.2.! I I I -.-.",
"I v R -.! -.-.! I D I I K K R -.7.I A -.S A Q ! R I ! j A I A f a J W.T.z.-.%.R I I I G U q.P K ! 7.9.I -.f.I j U P S S D S ! M.-.",
"S S -.Q $.! ! -.! I ! ! D S U ! p.P P $.P U -.I ! A l A E.I j v [ b.L ! I I ! ! ! I S G 9.o.G D { y.K ! -.R H f I ! N ! S j Q -.M.",
"=.H f v I -.G -.I P I K S A %.9.%.I f.2.H K ! ! I p 3 : i 3 g S j.7.$.! I Q I $.I I A I 9.2.! ! e.I I ! p.$.P n M M M H S S y.I I ",
"f.R v ^ 9.J J 0.%.o.K K D S 7.f.z.2.M.H g I h.A - g n 5 M v L G.S I 4.! e.%.o.2.%.$.l y.-.P I ! ! ! S ! 2.2.I I A A.j P H K H G G ",
"! R L U a S I I U %.U ! R e.M.! 9.z.2.H S S k.r t A K H ! f e.Q S v F D ! I P ! I R R ! ! I S $.S S K K A I I P P H i j M v L K v ",
"M.D A g v S d.9.9.K ! ! ! I R R I $.I P -.9.I I L j.` 5 M S S I m.f M T D I A S S K ! I L Q I I I e.Q I v J J K j g g v N S K P I ",
"g A f ` ` j.e.F $.I U D I R Q R I U I K A U I Q ! d.A A R S Q f f a K K S %.j S K I e.! -.! I H $.p.e.R L ] ! I A M - a ; x ! D S ",
"t A G A > y - S ! S K Q e.d.f.4.! ! D K P %.-.7.%.-.$.K.n I , t I A o.n S L A K ! ! Q K 4.! -.-.M.5.I P S n S S M t ; s d C v.f g ",
"5 5 3 * * t 0  .m.I S K I P -.$.I P S L I K -.I I P U S I A a J I P %.A J K $.I 9.7.y.K R I ! ! e.I D a f ! S j 3 ; x  .' V.y.D F ",
"@ 1 8 8 w / !.K j A G y.! M H G K I ! ! ! D K K D ! I I $.l 3 O L 9.9.I L L ! I ! %.! K ! ! I D K I A j y.Q S K t 1 Z.U.k.Q H k - ",
"N d L v.C.^.k.K S N y.7.$.S P S P P I H ! ! 4.I -.2.7.I G f . q k.! I ! Q $.I ! P ! I ! I Q I D I -.$.A D K Q 4.h K C.-.r $ & r a ",
"C.k.` /.M.=.! I j V.v ! R I A j K P ! P I s.! H $.z.%.P Q A X 2 < ` L K ! $.2.z.I o.%.$.$.I R Q 9.2.R F M.` p.! A v.y.F a ; x 6 c ",
"F.M.k.T.H A K f T Q S n.~ g f K ` j.$.U @.! I I D f.I I ! A * o w | -.f.$.-.%.I I 2.%.%.P -.S P -.U I -.D.k.d.S k.k.I v M ; Z | T ",
"e.K.c.S A L v M h.D S n.I t 0.k.y.! Q j -.H D S 7.7.I ! K S S 1 q L 9.5.4.-.S S ! I I -.-.I S S H K $.I 9.! I ! 7.P P ] n T L K y.",
"R S ! I ! K S y.k.I Q ! S S ` ` U 7.J { 4.D A S I H S A A R P S 5 / 7.=.4.f.I K P R I -.=.S Q S S ! -.I P D I I K S S A 7.I f g M.",
"S I ! A I $.K -.L %.! I ! K F.p.I R e.S P ! G K S S P v A I f K M.h.T.M.4.f.f.4.f.! R ! R Q Q -.! v 4.$.-.I 7.%.%.! P P I I U C.P ",
"Q ! S L L S P Q L ! P f.-.P M.H A ~ ! Q s.e.H -.4.A M a j S v ! =.2.p.u.R -.5.-.4.Q ! -.I P $.H p R M.p.I Q 9.2.=.$.I S %.9.0.I n ",
"7.R e.A D ! ~ s.-.I R I ! K I S n S K e.e.! ! Q I v 6 1 4 g ` I ! I I ~ 4.~ -.R 4.f.! I I S A t e.I.! A S ! I I I K S ! ! Q R A K ",
"$.! P i K R 4.d.-.! D S Q S S j j J Q I ! R I K A S t N 8 2 D Q S D I ! K R 4.! 2.d.-.! S v S e.I v ! S K I -.I ! P P I ! ! S n K ",
"j I n 3 K P I 4.f.z.$.9.p.%.9.S S K e.H I D H n A i t r ; Z g ! U P ! Q I ! f.f.-.-.$.I S e.I R S L S S ! 7.-.5.K P $.I 4.! D ! K.",
"j I A i S G I -.f.>.H p.I I %.D ! K L S K S p y > t v f K * 8 k.G Q ` Q ! I U 2.z.! I K K R F =.p.v t v L p.f.! D P I l S D ! -.M.",
"Q L Q A K J j 0.I f A k.P L %.R R R L Q k.j g 5 1 C.y.S K 3 ( K D -.Q A A g I z.z.I K I I A ! k.g A J K U $.I A S %.I t g -.Q I S ",
"H S ! S K K ( Q i t ! { K I ! R R =.P I I ! M 6 X.G.y 3 6 x x T e.P I p j K D 4.z.U I K K I -.Q v { -.S U I n A h.! S j V.m.I ! ! ",
"A M S A S K.I j t d B.R I o.2.I f.=.I K S I j C.h.j f T K j j v.Q P I ! K I ` y.f.%.$.! -.-.9.%.S ! i v Q S h P.7.I G e.A.S -.G U ",
"H Q P D M.M.j K j K G.G Q U G U ! 9.U n v K I j A ` Q L s v L Q -.K -.f.F Q 0.D P U -.%.-.z.%.P P Q L v ` P p.Q I =.$.H e I 9.I %.",
"! 7.! D F.R f v t h.M.Q ` ! A I -.I R A H K a j a L g i j a | y.e.! f.@.A 0.R S L S K ! I U U K S Q 9.-.y.h I S S h t : > L 7.z.$.",
"I ! 4.R ! A K v M k.-.! ! n n Q 7.-.Q A j S P g.0.D K t A S y.j.! K I ! Q ! I ! I A K ! I P A K S J j R D S v f A a g S a M 7.! I ",
"R I ! S R A 0.U ! I 7.I S A y.A.y.I I l e.K.-.p.L ! v K S S P U -.~ ! %.9.! I S l K D I 9.R K I I P S ! j ! K 5 M j t 3 v S M.e.S ",
"S I D S Q n 0.P S R ! S P d.z.9.P K P I ` e.f.! A I 7.I n A S R -.! ! I 2.p.$.D I S K A A A D I f A I ! Y ! S I Q n s 0 Z y.S.4.~ ",
"S ! Q S U J A P I S J L 7.R f.f.P 2.%.%.! I $.! ! A A ! S S S Q s.! R ! -.9.@.K L I g.f g.-.f.A A Q A M R R I K l n L V L C.k.H I ",
"I %.%.K I o.U -.I A K ! I R ! 2.H ! $.R I ! %.I A M ! y.e.H K K.f.! K I 9.2.! d.I S n A y.K D H L A - K Q K D I S K K g C.| A S K ",
"S U 9.-.$.-.7.%.I %.f.f.I P I I ! I ! 4.-.$.! P I ` U -.-.A A.x.2.R D %.z.R 7.! H I %.A A g j a g * = d S H Q %.P L I S k.H ! Q ~ ",
"I ! e.-.-.! -.9.%.! ! I I H I -.7.$.! ! U K I P K K -.R D Q e.2.%.P D I #.s.P A -.I A : I S O @ 8 6 6 1 ; 3 I K ! P %.! P f.d.s.S ",
"! K K K R ! f.I 9.-.2.$.H I ! ! ! $.-.! -.I I I I S I ! -.p.I 9.-.I P S h A G S A A a 3 a O O 2 2 @   q s q j j S ! Q S D 7.-.R -.",
"K D ! ! -.R -.I $.G P 4.Y ! Q S M ! I ! -.I I f.D g ` e.I S U I ! P ! l t 0.A.e.I S f 9 1 o q m #   + 1 6 0 s M ! Q D K L ! ! R ! ",
"-.9.7.%.I I 2.-.A : r j H U P n S M i R 9.2.j R R K 7.! D =.f.~ ! K I a s V.K R m.v f f K d 0 0 8 c 7 m O c Q.m.j.Q ! -.I I R $.Y.",
"I o.2.! I U H H I t t 6 5 f r a I g K ` I l j I A A P P P f.! ! Y K K a ( L K ! K I L g s d c b z c c 0 2 2 v h.p.! f.%.S I %.P 9.",
"f.9.%.$.! I I ! H t K q = s 4 M K.A ` S j K ] v j K P S A R ! ! I Q P K D t v U K j n g f ! v v M g d m 0 q ..F.o.! I S ! f.f.! I ",
"I z.$.I ! $.! ~ I K K v d K N Q.D j A A P K j K h.! ! D { ! ! ! ! H @.y.f t ( P A S t t j H A K ` v K / 4 !.C.p.l j A Q 4.5.-.R I ",
"%.$.! K -.$.-.K -.! f S D L ^ P.A M A I I I j.k.! ! I Q h.P z.H l I %.7.h M S.h S P t j v j I L P ! 7.! v  .j.G S K Q y.! ~ R ! ! ",
"$.$.K I I I I K Q K M R ! g.v.K S K Q k.! P I -.-.! ! R $.f.f.f f A 0.%.A S j A v > > j 0 ( y.I S ! S g.K Q %.n I S k.` -.-.I ! K ",
"! -.Q R P o.I I K K R ! 0.0.I K S M I ` ! P %.$.2.-.! -.%.U I A K v Q U J A N j f S L L L W.` R ! H I Q L %.G 9.k.! I -.-.I U %.P ",
"! ! 4.-.I S ! I K I I ! I I I I I K R ! 4.-.K I I K U %.$.P A S n F I ! u | S M A L ! ( C.Q D A R H 7.Q I K 7.f.R A v ` P $.I I I ",
"I K ! -.! P $.P H I K -.P U U S I I 4.! R U K S I I I I $.I A A S p.7.S K I I f j j.T.A.k.K G h R A P A I K U ! A j d.S R z.2.R K ",
"D K -.R R I I A v A D I S 7.A r t j D 4.4.R K I U I K ! I I ! -.~ G F ! K I P t C.Q H f.4.2.I a A A m.! H S U -.I S 7.! p.%.-.4.Q ",
"K U -.H G 9.K I D j K P -.4.I ; N ! l =.I I ! ! P P P ! %.$.! S G 7.~.p.i J %.Q G.f 7.$.j f.R a ( N.! r 5 ( ! ! A p.0.I f.%.$.! ! ",
"K H I H p.d.I P h v ! z.d.! 4.I L h.f.A.P D I ! K P ! I I @.I K p.7.S S i D j t g j S f I K.Q N K A f > K Q j A I I S S f.f.! ! -.",
"%.I U H A A A P 3 f A I I I I -.! h.%.-.R I -.5.-.4.f.f.I I I 9.! D K S G e.I M Q M t Q g.f.F S S 3 r > M F j Q U H H G c.-.$.! I ",
"%.$.! j M I ! A % 4 a g K $.U I -.I I -.R -.! -.s.Q -.-.P I 7.z.I S 0.S -.f.G e.m.D m.! S S S ' j - O 3 S I I y.P 7.F ! j.f.4.K U "
};
