/* XPM */
static char *_48cc77dc1ac452694a5dcdead3962bcTUF3VXx7lmMJCPxT[] = {
/* columns rows colors chars-per-pixel */
"32 32 153 2 ",
"   c #8E6748",
".  c #8E6C4F",
"X  c #937154",
"o  c #9B7656",
"O  c #977558",
"+  c #9D7B5D",
"@  c #A07C5C",
"#  c #9E7E63",
"$  c #A07F60",
"%  c #A38364",
"&  c #A68568",
"*  c #A6896B",
"=  c #AC8C6D",
"-  c #B18F6F",
";  c #AE8F71",
":  c #AF9377",
">  c #AD937A",
",  c #B49576",
"<  c #B19579",
"1  c #B5997B",
"2  c #BA9A7C",
"3  c #C09E7C",
"4  c #B89C82",
"5  c #B49F88",
"6  c #BDA184",
"7  c #BDA68C",
"8  c #BCA88F",
"9  c #BDAC94",
"0  c #BBACA2",
"q  c #C3A686",
"w  c #C8A686",
"e  c #C9A886",
"r  c #C1A689",
"t  c #C6A98B",
"y  c #CAAC8C",
"u  c #C4AD93",
"i  c #CBAE90",
"p  c #C1AF9A",
"a  c #C7B093",
"s  c #CCB294",
"d  c #C4B29B",
"f  c #CDB599",
"g  c #CCB89F",
"h  c #D1B495",
"j  c #D1B699",
"k  c #D2BA9D",
"l  c #C8B7A3",
"z  c #C6B9A6",
"x  c #CBB9A1",
"c  c #CABEAB",
"v  c #D3BDA2",
"b  c #D2BFAA",
"n  c #CEC2AF",
"m  c #D6C1A6",
"M  c #D9C2A6",
"N  c #D6C3AB",
"B  c #D9C5AC",
"V  c #DBC8AE",
"C  c #CBC3B4",
"Z  c #D4C6B2",
"A  c #D8C7B1",
"S  c #DBCBB4",
"D  c #D3CBBB",
"F  c #DCCEB9",
"G  c #DDD1BD",
"H  c #E1D2B7",
"J  c #E1D4BE",
"K  c #D2CDC1",
"L  c #DFD4C0",
"P  c #DDD5C3",
"I  c #DED4C2",
"U  c #DFD5C2",
"Y  c #DFD6C2",
"T  c #DFD6C3",
"R  c #DBD4C5",
"E  c #DFD6C4",
"W  c #DFD6C5",
"Q  c #DFD6C6",
"!  c #DFD7C6",
"~  c #DDD4C2",
"^  c #DFD8C7",
"/  c #D8D5CA",
"(  c #DFD8C8",
")  c #DFDCCF",
"_  c #DDD9CC",
"`  c #E0D6C2",
"'  c #E1D6C2",
"]  c #E0D6C3",
"[  c #E0D7C3",
"{  c #E0D4C2",
"}  c #E0D7C4",
"|  c #E0D6C5",
" . c #E0D7C6",
".. c #E1D6C2",
"X. c #E3D8C3",
"o. c #E1D9C5",
"O. c #E3D9C5",
"+. c #E1D8C7",
"@. c #E1D9C7",
"#. c #E2DAC6",
"$. c #E3DAC7",
"%. c #E4D9C5",
"&. c #E2D9C5",
"*. c #E0D9C9",
"=. c #E1DAC8",
"-. c #E2DAC8",
";. c #E2DAC9",
":. c #E0D9CA",
">. c #E1DBCA",
",. c #E3DCCA",
"<. c #E3DCCB",
"1. c #E3DDCB",
"2. c #E4DCC8",
"3. c #E0DBCD",
"4. c #E1DCCD",
"5. c #E3DCCD",
"6. c #E3DDCD",
"7. c #E3DDCE",
"8. c #E2DDCF",
"9. c #E3DECE",
"0. c #E3DFCF",
"q. c #E0DCCE",
"w. c #E4DDCC",
"e. c #E5DECC",
"r. c #E4DECD",
"t. c #E6DFCE",
"y. c #E2DBCB",
"u. c #E0DCD0",
"i. c #E0DCD1",
"p. c #E2DFD2",
"a. c #E6E0CF",
"s. c #E8E1CE",
"d. c #E5E1D2",
"f. c #E2E0D5",
"g. c #E3E1D5",
"h. c #E1E0D6",
"j. c #E7E2D4",
"k. c #E4E1D6",
"l. c #E4E2D5",
"z. c #EAE5D5",
"x. c #E7E5D8",
"c. c #E7E7DB",
"v. c #E2E4DE",
"b. c #E4E6DE",
"n. c #E5E4DA",
"m. c #E9E7DA",
"M. c #E7E8DF",
"N. c #E9EADE",
"B. c #E4E6E1",
"V. c #E6E9E3",
"C. c #E7E9E3",
"Z. c #E5E8E4",
"A. c #EBECE3",
/* pixels */
"v t ; + % t j v N S F j y F N J G F F S f F x.m.:.Z v G F F X.S ",
"F H M y 3 s S B S $.v f m G S G ` 0.G m v :.d.e.:.Z A G F G 1.G ",
"G B k k y j G G 0.A v 0.G F N G G 0.A f G a.,.$.| F Z G F F $.J ",
"B k M B M B I I N k k.C.! ~ N F F ` k S e.e.` G F G F ,.G F %.J ",
"v B V S S F G s e F b.C.0.N v G J F j G e.G F B G S S ,.F I e.G ",
"M m V F F F F y k F | ` v f F v s 1 d F J J F S I Z V I F $.0.| ",
"N v V I F F m s V S N ; 1 G k.b   O 7 v F G F S I ~ k G F I :.I ",
"k v | i.G ` v m $.$.s # n ~ ) ( % X q f G F F B 0.G , s v S F v ",
"k M ! ! :.3.F N $.x < 5 9 D h.h.s o , S F F F :.k.: # u N s j h ",
"S S S F 0.h.F v N X > D d R v.i.S M s v F S ` x.s X 4 u ~ 6 e M ",
"B S G G :.:.N k 6 + r Z c Z b.p.i.$.S y M $.l.,.j + > u u * h m ",
"N F ` G G | k v r + q v 8 Z p.:.n.k.v y i ` ` F S t % @ @ 2 v k ",
"N G $.` ` 1.N v j + + % 1 J | | 0.C.v s t m F F S B B y h B S v ",
"N L 0.G ` e.N B N q q s V G ` I I x.G j s e B S S B B k B G $.F ",
"G G S I | 1.N m S v B k B F ` F ~ n.G F s e v B S S k m F B G ( ",
"g 7 f J G ` v V N F m v B S G F _ n.N N f y M G F N f F ! G F G ",
"+ , v G F B f F F G k m B S G ( v.C.b v v e B G F S s S _ ( F f ",
"+ u N ` N j F I d.:.m v S F I i.B.Z.Z k k y N I F G m N 3.3.F s ",
"- 1 v F k S G F A.x.V v V F I i.n.R s v s h B F G G S k i.x.S j ",
"e q v k M G B x.A.x.X.F V G $.G 3.N N N q h v S G $.F f x.N.G v ",
"k f v k G N ^ A.z.s.` F S $.` S I N G k y m N S G 0.v v A.:.B m ",
"M f k N N B x.d.$.X.G S G ` $.G F N F s v F S F $.0.f :.x.F S F ",
"J m B m s | x.0.I ` S G :.:.:.S v f S m F G I G ,.S v h.0.0.| ` ",
"N F J q = N k.! J G N I :.G G B s N G S ! ( ^ F v y B G G :.e.$.",
"k V V & < l B.! G S m $.G S V N j G G g I I $.x = 6 v B G G :.:.",
"k B k 1 & 0 i.B B s N e.F F S B f v I s N :.` , = a y M G G 0.e.",
"J m u D F 0.2.k j s h $.` ` ` B k s G B s I I 6 , 6 t M F :.b.e.",
"V u C / _ R ! S h V m v $.` ` B s v S F f v h.! 6 $ f F G :.k.2.",
"d C K / D c D f j v S h m G $.v s G B m s f C.p.* + d F $.:.d.S ",
"C C K _ z 9 d 6 k m S N y V S y N F m m f f M.x.t . , G ` | z.6 ",
"8 D K _ p 9 : u k S S B y j e S F S B B v v b.C.J < 1 F F G %.f ",
"; c C l 7 * r m m B S S s B s F G S V S k N C.A.i.m f G G G J B "
};
