/* XPM */
static char *_66cacc518a54fa49004f0371585442aiVA3O1ZQujxUFT2t[] = {
/* columns rows colors chars-per-pixel */
"32 32 181 2 ",
"   c None",
".  c #353D36",
"X  c #343E38",
"o  c #364236",
"O  c #384436",
"+  c #34443B",
"@  c #3B4539",
"#  c #35493E",
"$  c #3D4B39",
"%  c #404D37",
"&  c #424D3A",
"*  c #494E3B",
"=  c #44533A",
"-  c #4E553D",
";  c #4C5C3C",
":  c #52553E",
">  c #535E3D",
",  c #4E603E",
"<  c #55643E",
"1  c #55683F",
"2  c #586A3E",
"3  c #5E713F",
"4  c #3F5543",
"5  c #435641",
"6  c #435A44",
"7  c #4C5D45",
"8  c #435C48",
"9  c #565D42",
"0  c #5B5D41",
"q  c #4B6243",
"w  c #4D6649",
"e  c #516742",
"r  c #5D7343",
"t  c #5F7F4E",
"y  c #626342",
"u  c #656C45",
"i  c #696C44",
"p  c #617440",
"a  c #687447",
"s  c #667B41",
"d  c #6C7A44",
"f  c #6A734A",
"g  c #647B49",
"h  c #697F4A",
"j  c #727C45",
"k  c #717C49",
"l  c #5D8057",
"z  c #6C8043",
"x  c #66814B",
"c  c #6D874A",
"v  c #6D8B4F",
"b  c #728A45",
"n  c #7B8048",
"m  c #738C4E",
"M  c #7C894B",
"N  c #7B9346",
"B  c #76924D",
"V  c #7C944D",
"C  c #668353",
"Z  c #6F8F52",
"A  c #708F5B",
"S  c #6E9054",
"D  c #739452",
"F  c #7C9751",
"G  c #749956",
"H  c #7B9C52",
"J  c #7CA55D",
"K  c #7FAB5F",
"L  c #759A62",
"P  c #7DA565",
"I  c #7CA961",
"U  c #848D4E",
"Y  c #85954B",
"T  c #8D944E",
"R  c #839F4E",
"E  c #8C9B4D",
"W  c #929E4D",
"Q  c #859956",
"!  c #8F9A54",
"~  c #949E55",
"^  c #84A04E",
"/  c #8CA44C",
"(  c #8FAC4E",
")  c #92A54E",
"_  c #99A74F",
"`  c #92A94D",
"'  c #9AAB4F",
"]  c #96B44E",
"[  c #99B74F",
"{  c #9BB94F",
"}  c #82A453",
"|  c #8AA450",
" . c #86A956",
".. c #8CAC54",
"X. c #82A75A",
"o. c #85AE5C",
"O. c #8BAE5B",
"+. c #95A150",
"@. c #9EA352",
"#. c #92AC54",
"$. c #9DAC52",
"%. c #99A558",
"&. c #93AD5D",
"*. c #9CAF5E",
"=. c #8EB356",
"-. c #8BB059",
";. c #93B454",
":. c #9BB654",
">. c #9CB851",
",. c #93B25A",
"<. c #9CB25B",
"1. c #A3A553",
"2. c #A1AF54",
"3. c #A3AB5E",
"4. c #A3B656",
"5. c #ABB656",
"6. c #A0B951",
"7. c #A1B853",
"8. c #A2B952",
"9. c #A5BA51",
"0. c #A5B953",
"q. c #A5BA53",
"w. c #A7BB53",
"e. c #A6BA51",
"r. c #A2B854",
"t. c #A3B952",
"y. c #A8B953",
"u. c #AABA53",
"i. c #ABB954",
"p. c #ABBA54",
"a. c #ACB954",
"s. c #ADB857",
"d. c #AFB857",
"f. c #ABB954",
"g. c #A1B25B",
"h. c #A2B559",
"j. c #A1B658",
"k. c #A0B45B",
"l. c #A4B658",
"z. c #A5B55A",
"x. c #A3B15D",
"c. c #A2B35C",
"v. c #A1B05F",
"b. c #A3B05E",
"n. c #A2B25E",
"m. c #A4B45D",
"M. c #A3B45B",
"N. c #A8B658",
"B. c #ABB759",
"V. c #ABB75A",
"C. c #AFB758",
"Z. c #ABB55C",
"A. c #AEB859",
"S. c #B2B257",
"D. c #B2BA56",
"F. c #B1B258",
"G. c #B0B65C",
"H. c #B0B858",
"J. c #B4B959",
"K. c #BABA59",
"L. c #81A665",
"P. c #8EA667",
"I. c #81A962",
"U. c #8EAC61",
"Y. c #87A568",
"T. c #8FA568",
"R. c #90A667",
"E. c #93AB60",
"W. c #91AA63",
"Q. c #95AB61",
"!. c #96AB61",
"~. c #94AB63",
"^. c #94AC60",
"/. c #97AD62",
"(. c #92AB62",
"). c #9AAD60",
"_. c #9BAE60",
"`. c #9BAC61",
"'. c #9FB160",
"]. c #A3AE61",
"[. c #A5B060",
/* pixels */
"  < & . 5 7 : y & 7 i < - > q + 0 f f 9 u n * i < = 0 y   ; ;   ",
"# x / N ) $.@.1.M ~ S.' ' #.( E @.G.5.@.F.a.) $.` ..@.@.k B 3   ",
"6 D ;.=.>.u.>.:.>.7.0.r.,.-.;.0.0.:.:.>.0.0.:.-.-.:.u.>. . .s   ",
"= b ^ #.&.&.o.o.-.-.=.,.O.-.,.&.&.o.-.-.-.;.-.O.,.&.&.O.o.o.r   ",
"0 M ! *.!.&.<.;.-.,.:.<.*.<.<.W.<.,.,.o.:.:.<.).x.^.^.<.,.-.Q : ",
"* / ;.o.o.-.,.r.{ 7.u.u.:.-.o.o.,.<.>.>.0.a.7.;.o.o.o.,.h.>.R * ",
"< ..;.;.;.,.,.,.,.-.;.:.{ :.:.,.;.,.,.-.-.;.>.{ ;.;.,.,.,.,.H = ",
"; V O.!.!.g.H.:.:.<.:.O.O.W.!.).N.N.:.:.r.;.O.O.!.!.<.a.h.:.M . ",
"; +.x.'.l.l.<.a.0.i.x.<.x.x.<.N.h.z.i.0.N.*.x.x.'.x.4.<.N.0._ : ",
"2 ;.-.o.o.o.=.;.:.:.7.>.,.-.o.o.-.;.;.;.>.7.>.,.o.o.o.=.;.;.m , ",
"z 4.h.=.o.o.o.X.I I ;.D.A.:.-.o.o.o.X.I o.>.J.l.,.o.o.o.X.J t 1 ",
"y 5.>.=.o.L.R.R._.).4.D.a.:.-.I.Y.T.!._.*.i.D.0.;.o.L.P.T.! a ; ",
"< E :.>.>.4.a.i.u.D.D.a.r.:.>.7.i.a.i.a.J.D.i.:.>.>.4.a.i.u.W 0 ",
"= R -.o.:.N.;.=.;.;.:.;.-.o.-.4.r.,.;.;.;.:.,.-.o.,.i.;.=.;.B X ",
"8 A &.h.W.W.O.o.o.-.,.,.&.&.x.U.^.o.o.o.-.,.&.&.<.^.U.&.o.o.D $ ",
", B <.^.U.,.<.:.;.:.4.r.<.<.U.U.,.<.;.;.r.4.h.<.&.U.&.<.:.;.#.< ",
"p ] ;.=.=.-.<.h.>.:.N.0.:.;.;.-.,.<.r.:.>.i.7.;.;.=.-.,.h.>.c = ",
"= ^ ..O.,.,.<.O.-.o.,.;.[ ;.,.O.:.,.-.o.-.;.;.;.,.,.,.:.-.-.Z & ",
": j U ].].V.J.a.7.i.<.&.W._.].Z.G.J.0.0.N.&.W.W.].].N.J.A.7.E * ",
"d 2.,.U.,.,.O.r.7.u.N.r.h.,.O.;.-.,.0.7.i.l.4.<.U.,.;.O.<.0.) = ",
"b ;.,.=.o.-.;.;.-.-.>.7.<.,.-.o.=.;.=.-.;.{ 7.,.,.-.-.;.;.=.} ; ",
"e M :.-.I I P P I.P ;.D.D.;.o.I I P P L.o.N.K.4.-.K I P L C m r ",
"w F ;.;.,.W.[.].Z.Z.a.a.u.{ ;.O.).[.Z.G.Z.a.a.0.>.,.W.].3.1.T @ ",
"< #.,.;.>.u.7.>.7.u.a.N.:.,.;.0.u.7.>.7.a.i.r.,.,.:.u.0.7.7.` * ",
"X c ..-.,.<.-.-.=.-.=.,.-.o.O.,.,.-.-.=.-.;.=.-.o.&.<.-.-.=.} = ",
"u T %.Z.!.^.<.-.o.,.;.,.).<.x.W.*.,.-.o.,.:.*.).b.).W.<.,.-.G 4 ",
"> ` ,.o.o.-.<.:.>.7.i.N.:.-.o.o.,.<.>.:.0.i.7.;.o.o.o.<.:.>.B O ",
"> | ;.;.;.,.,.<.;.,.:.7.{ ;.>.,.,.<.,.,.,.:.>.{ ;.;.,.,.<.<.V = ",
"9 @.,.&.&.,.N.,.,.,.;.,.,.&.&.&.r.h.,.,.,.;.,.,.&.&.&.N.,.o.B   ",
"0 Y N.N.V.A.Z.H.0.a.x.)._.[.b.A.N.Z.a.u.N.*.)._.[.Z.A.Z.z.P l   ",
"  b b x D D H ^ / Y 7.` Y X.J v v } / W $.:.m h Z S H Z g B g   ",
"        4 + % ; ; O s = = q e + o & @ @ < r # + $ + = o   = ;   "
};
