/* XPM */
static char *af437badee794021d9dc3e2d7ac40db4TuOXW65kAow3mD2p[] = {
/* columns rows colors chars-per-pixel */
"32 48 137 2 ",
"   c #344036",
".  c #3B4837",
"X  c #34443B",
"o  c #3B4638",
"O  c #3D4A3A",
"+  c #3E523E",
"@  c #414D39",
"#  c #44543B",
"$  c #4E573D",
"%  c #45583F",
"&  c #4C5B3D",
"*  c #52573D",
"=  c #575A3F",
"-  c #5C5B3F",
";  c #52623D",
":  c #59673F",
">  c #5A6D3F",
",  c #5F733F",
"<  c #425240",
"1  c #4B5C45",
"2  c #525640",
"3  c #555E43",
"4  c #5A5B40",
"5  c #4D6342",
"6  c #536743",
"7  c #5E6545",
"8  c #546C45",
"9  c #596D40",
"0  c #566F48",
"q  c #5B7546",
"w  c #5E7847",
"e  c #57734B",
"r  c #5E7A4A",
"t  c #646B44",
"y  c #6B7A44",
"u  c #607748",
"i  c #69734A",
"p  c #667E48",
"a  c #737846",
"s  c #727A48",
"d  c #7C7E49",
"f  c #6E8245",
"g  c #67864F",
"h  c #6D8149",
"j  c #758546",
"k  c #7A8447",
"l  c #788B46",
"z  c #76834D",
"x  c #7C824B",
"c  c #738B4B",
"v  c #788D49",
"b  c #7D9047",
"n  c #7D9048",
"m  c #668750",
"M  c #748A50",
"N  c #779353",
"B  c #7B9553",
"V  c #7D9B55",
"C  c #7FAA61",
"Z  c #83864C",
"A  c #848D4B",
"S  c #8A8D4F",
"D  c #809349",
"F  c #8C964D",
"G  c #8D9451",
"H  c #819F55",
"J  c #8B9B50",
"K  c #939950",
"L  c #8FA54D",
"P  c #93A44E",
"I  c #98A54E",
"U  c #93AB4E",
"Y  c #9BB84F",
"T  c #85A155",
"R  c #8AA454",
"E  c #84AD5C",
"W  c #8BAE5C",
"Q  c #92A750",
"!  c #9DA653",
"~  c #93AC51",
"^  c #9BAB51",
"/  c #94A65D",
"(  c #93AE5D",
")  c #9BAE5E",
"_  c #8EB257",
"`  c #8CB159",
"'  c #93B455",
"]  c #9BB654",
"[  c #9DB852",
"{  c #90B258",
"}  c #93B259",
"|  c #96B359",
" . c #93B05D",
".. c #95B05C",
"X. c #98B358",
"o. c #9BB25B",
"O. c #9CB359",
"+. c #98B459",
"@. c #9DB558",
"#. c #9EB458",
"$. c #9AB25C",
"%. c #9EB15D",
"&. c #A0A852",
"*. c #A0AC54",
"=. c #A7AF55",
"-. c #A0AF5E",
";. c #A1B553",
":. c #A1B753",
">. c #A7B753",
",. c #A3B755",
"<. c #A2B557",
"1. c #A5B656",
"2. c #A8B153",
"3. c #ACB156",
"4. c #A9B756",
"5. c #ACB757",
"6. c #AFB756",
"7. c #A3B952",
"8. c #A4B853",
"9. c #A7B854",
"0. c #A8B954",
"q. c #ACB955",
"w. c #A3B45A",
"e. c #AAB65A",
"r. c #ACB858",
"t. c #B1B956",
"y. c #B2B959",
"u. c #84A665",
"i. c #88A764",
"p. c #84A962",
"a. c #8AA962",
"s. c #93AB61",
"d. c #94AB62",
"f. c #96AD61",
"g. c #9BAE61",
"h. c #9EB060",
"j. c #A0AF60",
/* pixels */
"1 2 - 4 @ < 3 t t ; $ $ & 5 < O = t i i 7 3 t s a * = t : & # 3 ",
"z x Z x t i z S A j j j v c h y d S G G Z x S K F j k A l f h x ",
"*.! &.! F J ! 3.2.^ ^ ~ ~ ~ P P ! =.5.4.*.! 3.5.4.^ ^ ^ U ~ ~ ! ",
">.] ] ] ] ] ;.9.8.] ' } ` } ] ;.>.;.] ] ] ] 8.0.9.] ' } _ } ] >.",
"@.' ' ' ' ' ' ' X.' } ` ` } +.] @.' _ _ ' ' ' X.X.' } ` ` } X.@.",
"( W ` ` ` ` ` _ } } ( ( } | ( ( ( ( ` ` ` ` ` _ } } W ( } ..( ( ",
"( $.| } ` ` } X.O.X.) ) %.%.f.s.) X.| } ` ` | X.O.X.) ) %.$.f.f.",
" .X.@.X.' ' ] ,.1.,.O.X... .W W ..O.@.X.' ' ] ,.1.,.O.| ..( W W ",
"` X.@.] ] [ [ 9.9.8.] ' ` ` W W } X.@.] ] ] ] 9.0.7.] ' _ ` W W ",
"} | X.| } } ` ' X.[ Y ] ' ' ' _ ' | | | } } } ' ] [ Y Y ' ' ' _ ",
"X.w.@.| | } | ' ' ' ' ' | | | | @.w.@.| } } | ' ' ' ' ' ' | | | ",
"w.r.4.] X.] ,.] | ( ( ( f.f.g.%.4.e.e.] X.] ,.@.| ( ( ( ( f.g.%.",
"w.w.4.0.8.8.4.w.%.%.) ) ) h.w.4.w.w.4.0.8.8.4.w.%.%.%.) %.%.w.4.",
"| | ] ;.7.7.9.1.,.@.O.$... .| X.| | ] 7.7.7.9.1.,.@.O.$.....| | ",
"W _ } ' ' ' ' ] 7.7.X.} ` E E E ` ` } ' ' } X.] 7.7.X.} ` E E E ",
"E W E E E E E } ,.q.r.w.} ` E E E W E E E E E ' 7.q.r.@.} ` E E ",
"p.i.i.i.i.i.a.O.9.t.q.1.' ` E p.p.i.i.i.i.i.W X.9.t.q.;.' ` E p.",
"i.d.d.f.g.g.w.1.q.q.q.7.' _ W p.a.d.d.g.g.-.w.4.q.t.0.7.' _ W p.",
"w.4.4.4.0.q.y.t.t.q.9.7.] ] ] ] w.4.1.1.4.q.y.t.q.q.9.] ] ] ] ] ",
"9.;.] ] 7.7.9.9.9.] X.} } ' X.9.9.,.] ] 7.7.9.9.9.] X.} } ' ] 9.",
"w.' _ _ ' ' ' ' ' ' ` W W ` X.w.@.' _ _ ' ' ' ' ' } ` W W ` | w.",
"( ( W ` W ` ` } } } ( ( ( X.( s.( ( ` ` E ` ` } } } ( ( X.$.( ( ",
"( ..| } ` ` } X.X.X.$.) $.) s.a.( ..| _ ` ` | X.X.X.$.( $.( s.s.",
"| O.] X.' X.] ,.1.,.@.X...( W W | @.@.X.' ' ] ,.1.,.@.X...( W W ",
"} X.@.] ] ] ] 9.9.8.] ' } } _ ` | X.@.] ] ] ] 9.9.7.] ' } } _ ` ",
"} X.X.| ' } } X.] [ Y ' ' } _ _ | | X.| } } } X.] [ [ ' ' } _ ` ",
"X.@.X.} } ` ` } } ' ' ' ' | | | X.@.X.} ` ` } } } ' ' ' ' ' | | ",
"e.r.r.1.,.;.1.O.( ( ( f.) ) w.w.e.r.r.,.,.,.1.O.( ( ( ( ) -.-.w.",
"w.w.4.9.8.0.0.4.O.$.) g.g.g.%.w.w.w.4.9.8.8.0.4.O.$.) g.g.g.%.w.",
"} } | ] [ 7.1.1.,.,.w.X. .W } } } } | ] 7.7.1.1.1.1.w.X. .` } } ",
"_ ' ' ' } } } ] [ ,.] | } ` ` ` _ ' ' ' } ` ' ] 7.,.] | } ` W ` ",
"E E E E E E E ' 7.0.1.] } ` E E E E E E E E E ' 7.q.1.@.} W E E ",
"p.u.u.u.i.p.i.| 0.t.t.1.' W E C p.u.u.u.i.i.i.X.0.y.t.,.} W E C ",
"s.g.g.g.w.w.w.e.q.q.q.8.] ' ` W f.g.g.j.w.w.e.e.q.t.0.7.] ' ` a.",
"w.4.4.4.4.q.5.q.q.0.9.] ' ' X.@.w.4.4.1.4.5.y.q.q.0.;.X.' ' X.O.",
"9.7.] ] [ 7.9.9.9.,.X.} } ' ] 8.9.,.] ] ] [ 9.9.9.,.X.} } ' ] 8.",
"O.} ` _ ' } } ' ' } _ ` ` ` | O.X.} ` _ } } } ' ' } _ ` ` ` | O.",
")  .` ` ` ` ` } } } ( ( ..$.( ( (  .` ` ` ` ` } } } ( ( ....( ) ",
"( $.| ` ` ` | X.] O.) ) %.%.f.s.( $.| } ` ` | X.@.O.) ) %.%.f.s.",
" .X.] X.] ] ] 9.9.,.X.|  .W W W } X.@.] ] ] ;.9.9.,.X.| ( W W W ",
"} X.@.] ] ] ] ,.9.7.[ ' ' _ ` ` } X.O.] X.X.X.,.8.7.[ ' } _ _ ` ",
"| X.X.| ' } } X.] ] [ ' ' ' ' } | X.$.X.| } } ' ] [ ] ' ' ' ' } ",
"X.w.@.| } } | ' ' } } } ( ( ( ( O.w.@.| } } | ' ' ' } } ( ( ( ( ",
"4.e.e.w.] ;.w.O.X.( ( ) ) ) %.w.4.e.e.;.[ ] w.O.| ( ( ) g.h.%.w.",
"w.w.4.4.>.>.1.w.) ) / ) ) ) w.,.w.w.4.4.>.>.4.w.) / / / / ) -.w.",
"V H R L U L P ] ] Q J T E E V B N V R Q I I ^ ] ~ D M c N B V T ",
"8 w p f j y y D b f y p g m r 8 8 q p y y y j n v u 6 6 0 e e r ",
"X . # & & @ @ , > # # & 5 5 % X   . @ . o @ ; > 9 + X X o X X # "
};
