/* XPM */
static char *f65f8b870eaa48d8c68a34676aaebf95c9nRhHj6PLQHAS1H[] = {
/* columns rows colors chars-per-pixel */
"64 64 151 2 ",
"   c #333B46",
".  c #363D4C",
"X  c #393F4D",
"o  c #3E4553",
"O  c #3F4955",
"+  c #3F4658",
"@  c #404757",
"#  c #424A56",
"$  c #404558",
"%  c #454C5A",
"&  c #484F5D",
"*  c #475059",
"=  c #4A525D",
"-  c #474E60",
";  c #494E61",
":  c #4D5562",
">  c #4F5962",
",  c #505665",
"<  c #525B65",
"1  c #555D69",
"2  c #585E6C",
"3  c #576067",
"4  c #57616A",
"5  c #5A646D",
"6  c #5E686F",
"7  c #5D6671",
"8  c #5E6972",
"9  c #606B6F",
"0  c #606672",
"q  c #626B74",
"w  c #656E79",
"e  c #696F7A",
"r  c #657076",
"t  c #667079",
"y  c #677079",
"u  c #66707A",
"i  c #67717A",
"p  c #67717B",
"a  c #65727A",
"s  c #66737B",
"d  c #667179",
"f  c #697078",
"g  c #687178",
"h  c #697279",
"j  c #69707A",
"k  c #68717A",
"l  c #68727B",
"z  c #69727B",
"x  c #6B727A",
"c  c #6A737A",
"v  c #6C737B",
"b  c #69747A",
"n  c #6B747B",
"m  c #6A757B",
"M  c #69717C",
"N  c #68707D",
"B  c #68727C",
"V  c #69737C",
"C  c #69737D",
"Z  c #6B727C",
"A  c #6A737C",
"S  c #6A727D",
"D  c #6B717F",
"F  c #6B737E",
"G  c #6D737F",
"H  c #6A747D",
"J  c #6B747D",
"K  c #6B767C",
"L  c #6A747E",
"P  c #6B757E",
"I  c #6B757F",
"U  c #69767E",
"Y  c #6A777F",
"T  c #6D747C",
"R  c #6C757C",
"E  c #6C777D",
"W  c #6D747E",
"Q  c #6C757E",
"!  c #6C747F",
"~  c #6C767F",
"^  c #6D767F",
"/  c #6E777E",
"(  c #6A737D",
")  c #6D787E",
"_  c #6E797F",
"`  c #6D7580",
"'  c #6C7680",
"]  c #6D7780",
"[  c #6D7781",
"{  c #6F7680",
"}  c #6E7780",
"|  c #6E7681",
" . c #6E7482",
".. c #6D7681",
"X. c #6B7880",
"o. c #6E7881",
"O. c #6F7881",
"+. c #6F7A80",
"@. c #6E7882",
"#. c #6F7982",
"$. c #6F7882",
"%. c #707781",
"&. c #707682",
"*. c #707782",
"=. c #707980",
"-. c #717A81",
";. c #707B81",
":. c #707982",
">. c #707883",
",. c #707A83",
"<. c #717A83",
"1. c #717C82",
"2. c #727D83",
"3. c #707A84",
"4. c #717B84",
"5. c #727B84",
"6. c #737B86",
"7. c #747A86",
"8. c #757B87",
"9. c #727C85",
"0. c #737C85",
"q. c #737D86",
"w. c #757E85",
"e. c #747D86",
"r. c #747C87",
"t. c #757E87",
"y. c #727B84",
"u. c #787F87",
"i. c #757B89",
"p. c #757D88",
"a. c #747C89",
"s. c #767F88",
"d. c #767E89",
"f. c #767E89",
"g. c #787F8A",
"h. c #778087",
"j. c #778089",
"k. c #77818A",
"l. c #77808A",
"z. c #798289",
"x. c #78808B",
"c. c #79828B",
"v. c #7A838A",
"b. c #7A808C",
"n. c #7A828D",
"m. c #7B838E",
"M. c #7A828C",
"N. c #7D8590",
"B. c #7F8591",
"V. c #7E8492",
"C. c #7D8592",
/* pixels */
"w w w G 4 Z Z z z W W 6 4 L W W Z { { -.r.c.i.7 > = = < 6 q q y z z y Z Z y y y Z Z z Z y z w w > 5 7 6 7 q 5 5 7 8 q q q q q q ",
"y w &.q q Z y z z -.z 0 { W W L L W { r.c.y < > = , 7 q 8 g z z y w L Z L z y L L Z Z y z y w z 4 1 7 5 q 6 5 6 7 7 7 8 q q w q ",
"w Z 7.2 W z z w z -.q y Z Z W W { -.d.d.n.1 = = < q q q q r L z y y z L L Z z Z z Z z Z L L w L 6 1 8 w q 4 5 5 6 7 q 7 7 q q w ",
"W Z 4 w Z z y w z z 8 Z W W W W q.j.j.n.N.7 > 7 8 8 q q 8 y L L L y y y L z L z Z L L L L L w Z 1 7 w Z 5 4 5 6 6 8 8 q q w q w ",
"0 4 w z y z w g L g 8 { L { { { d.c.N.{ 7 2 > 8 q q q q g L y Z L y z L L L L { { { Z y X.y L 6 1 y Z q 4 4 5 6 q 8 q w q q Z w ",
"q z z y z z g z L 5 q { { O.W r.c.d.q 1 1 > < q q q 8 q n L Z L L L W { L W L L L O.L W L L w 5 Z Z z 5 4 5 6 8 8 q q 7 q w 7 5 ",
"z z Z z z z w z z 4 { { { { { N.d.5 2 1 > 1 q q q q q y L L L L L n L L W O.O.O.O.W L { y { 6 w Z w 7 1 5 4 5 6 5 6 7 q q 1 8 L ",
"z y w z z w z n w 6 W Z Z 6.n.r.7 1 , > 5 q 7 q q q y L L W L L n n L O.O.{ L O.W O.O.Z 6.Z w q 7 5 4 1 4 5 6 5 7 7 q w < 7 L z ",
"z w q e y y z z z 5 O.6.d.i.e 1 > > < q q q q q w Z W W y L ) W W { W W O.{ ) L q.O.L r.Z < = * % # = 4 4 5 5 5 7 8 w 5 1 Z w w ",
"e e e w w z z z q 6 n.6.Z 7 < > < 8 q q q q q q y L { z z L O.) O.W W q.O.O.2.-.O.W r.q * * = > = > < 4 4 4 5 6 7 q q > q z w w ",
"w w z w w Z v W 0 e Z 7 5 > > 8 q q q q q q y Z L { L { L O.{ O.O.{ { { q.O.6.O.-.q.5 * , < 1 < < < 5 4 7 5 7 q q 7 > % q w w w ",
"w w w w z z v &.e 1 7 1 > < q 7 q q q q q w L y L L y W -.O.O.-.-.6.O.-.-.O.O.d.7.7 * < 4 < < < , 5 7 < > > > < , # % 1 w w q w ",
"q q w w z z Z { 7 1 > = 4 q 8 q 8 q q q q L L L Z L L { { O.6.O.W 2.q.-.2.O.-.7.q : < 1 < < < < 4 q 7 = = > < = * 1 q w w q w w ",
"q q w y z z &.q < , 8 8 q 8 q q q q q y Z L L B O.{ L L O.O.O.-.O.6.-.W -.q.d.e 1 > 4 1 < 4 1 < 5 8 q q w w q q q w q w q q q w ",
"w q w z v v W 2 , 5 6 7 8 8 q 8 w q Z z Z Z { Z { { Z { 6.6.O.O.6.-.@.{ &.e w 2 * 4 1 1 4 1 1 4 8 q q q q q q q w q q w q q q q ",
"q q w G v <.Z < 1 8 7 8 8 q q q q z w w w w w e e e w w 6.6.{ -.6.6.&.w < & % % 1 4 4 < 4 4 < 5 q q q q 8 q q q q q q q q q q q ",
"w w G &.&.q 7 , 2 8 q q q q w q 0 5 < > > > = = = = > = < 1 7 { { 0 = # * , < 4 4 4 4 4 1 4 5 q q q q 7 6 q q q q q q w q q q q ",
"W &.G w 2 , ; : 4 1 2 5 7 7 7 7 , * = > > = = , < < 1 < < = * 1 > X = 4 4 5 4 4 5 4 4 4 5 5 q 7 8 7 6 q q q 8 6 q q q 8 q q w z ",
"w 7 , ; : : , < > > > = > < 1 = > 4 6 6 5 4 1 4 4 4 < 1 4 5 1 : @ < 7 1 4 4 4 4 5 5 4 5 6 5 7 8 8 7 7 q 8 8 q 8 q 8 q q q e { { ",
": % ; : < 1 , 1 7 8 8 6 4 > = 1 q 8 7 4 4 4 1 1 4 4 1 4 4 4 5 > : 7 4 5 5 5 5 6 5 5 5 5 6 6 6 7 8 7 8 q 8 8 8 7 q q q y W G 0 < ",
"% = > > = > 6 8 8 8 7 8 q 7 8 8 8 8 6 4 4 4 4 4 5 5 5 4 5 5 7 % 1 5 5 5 6 5 5 5 5 5 5 6 6 6 6 6 5 7 8 8 7 8 q q y W W w 5 > = = ",
"q 8 7 5 5 q q 8 q 8 8 7 8 8 8 8 q 5 5 5 5 5 4 4 5 5 5 5 5 5 & = 5 5 5 5 5 5 6 5 6 5 5 6 6 5 6 5 4 6 6 7 q w Z W z 7 < = = > < 4 ",
"q q q 8 q q 8 q 8 8 q q q q q q 4 1 5 4 4 5 5 5 5 5 5 5 < % & 5 6 6 6 6 6 7 6 5 7 7 5 5 6 8 q w w q q z Z Z 7 < * # % * 1 q q q ",
"8 q q q 8 q q 8 q q q q q q q < > 5 4 4 4 5 5 5 5 5 7 4 # > 7 7 6 6 6 6 5 6 6 7 7 4 5 q q q 7 7 q q q 7 < % # # , 7 5 5 q 8 8 8 ",
"q q q q q q q q w q q q q q 1 = 5 5 5 6 5 5 6 5 5 6 7 > * 7 7 7 7 7 7 7 6 7 7 6 8 5 2 1 : % % # o # % # O % = < q 8 8 q q q 7 8 ",
"q q q 8 q q q q q 6 7 8 8 1 > 5 5 5 5 6 6 7 6 6 7 8 q = , 8 6 7 7 7 7 7 q 6 q q 8 7 & + # - $ . o + @ % > 7 7 q 8 7 8 8 q q 8 q ",
"q q q q w w q 8 7 8 6 1 , = 1 5 4 5 6 6 5 7 6 8 q q 5 % 1 8 6 7 8 8 q 7 q q q 7 6 q 5 : > # o * = = < 5 q 8 q q q q q 8 8 q q q ",
"w w q 7 w w 7 7 8 1 < < 1 5 5 5 6 7 6 6 8 8 6 8 6 q > % 5 8 7 6 8 q q q q q q q 8 8 7 < # # = > * , 8 8 8 8 8 8 q q 8 q q q q q ",
"q y q w r 5 7 q < , 5 5 5 5 5 4 5 q 8 8 7 q 8 q q 8 < % 6 q q 7 q q 0 q q q q q q q > + = > = = , 8 8 6 7 q q q q q q q q q w q ",
"y w y w 5 5 8 4 > 7 5 5 5 7 7 6 8 8 q q q q q 8 4 1 , % 6 q 7 q q q q q q q w q w 5 # = > = = < 8 8 q 8 8 q q q q q q q q w w w ",
"g n z 6 8 7 w > 1 5 5 7 5 7 8 8 8 8 8 7 7 5 5 1 < 1 > % 5 w q q w w w w q w 7 7 7 : % , = = < q 6 8 q q q q q w q q 8 q w w q q ",
"Z Z 7 8 8 q q = 4 6 5 5 5 5 7 7 5 5 5 4 1 4 4 1 4 < % % 2 7 5 5 7 5 < 1 1 1 , > : # = , > , 7 7 8 q 8 q q 6 q w w y y w y y y y ",
"8 5 7 8 8 q 7 > 5 5 5 5 5 5 5 5 5 5 5 5 4 4 1 < < : % + % % % % = % % % % # % % * = , , > 4 8 8 8 q q q q 8 q w y z 8 6 q w w 8 ",
"8 8 8 r w 8 > < 6 5 5 5 5 5 5 5 5 6 4 5 5 4 > > : + . o # = > > > > > , > > , 4 < < < , < 6 8 8 8 8 q q q w q q 8 8 8 7 7 8 7 8 ",
"8 8 w y 5 > 5 7 6 6 6 5 5 5 5 5 5 4 5 7 5 < % X .   # = < 4 4 4 4 1 1 4 1 1 < < , < < , 5 8 8 8 8 8 q q q 8 8 q q 8 q 8 8 8 7 8 ",
"8 8 w 5 > 6 6 5 6 8 5 8 5 5 7 8 6 5 q 7 < # o @ # > 1 4 4 3 1 4 < 1 4 1 < < 1 < < < < 6 8 8 8 q q q q y q 8 q q q 8 q 8 7 8 8 8 ",
"8 7 q < 6 7 5 q 8 7 8 7 5 6 7 8 7 q q > % = 4 4 5 4 4 4 4 4 4 4 4 4 4 4 4 4 4 1 < < 5 8 8 7 6 q q q w 8 5 q q q 8 q 8 7 8 8 7 7 ",
"7 8 q 5 q 7 7 7 6 6 8 5 8 q 8 8 7 w < % < 5 4 4 4 4 4 4 4 5 4 4 4 5 4 4 4 4 4 1 < 5 6 8 q q q q 8 q 6 q 8 8 q 8 8 q 8 8 7 8 8 8 ",
"8 q q 5 8 7 7 8 6 q 8 8 q q 8 8 w w = < 5 4 4 4 4 4 4 4 5 5 5 5 4 4 5 4 4 4 < 1 5 q q q q q q q q q 8 q 8 q q q q 8 8 8 8 q q q ",
"8 y Z 7 8 q 8 q q q q 6 6 q q y { 2 = 5 4 4 4 4 4 5 5 5 4 5 5 5 5 4 4 4 4 4 4 6 8 w q q w q q q q q w q q q q q q q q 8 8 q q q ",
"q Z W 7 q q q 8 q q q 8 8 q w O.w : 1 5 4 4 5 5 5 5 5 5 5 6 6 5 5 5 5 5 5 5 6 q q q q 6 9 q q q q q q q q q 8 q 8 8 q q 8 8 6 7 ",
"q 6.w < q q q q q w q 8 q 6 Z -.4 > 5 4 5 5 6 5 5 5 5 6 5 7 7 7 5 5 5 5 5 8 q y w q q q q q q q q q q q q q 6 8 8 8 q q 8 5 8 8 ",
"{ q < 7 w w q w q q q q w q { W = < 5 5 4 5 5 5 6 7 6 6 8 6 5 7 6 5 6 5 q g w q q q q q q q q w q q q q q q 8 8 8 8 q q 8 8 q q ",
"4 < q w w q q q q q r q w w 6.7 * 5 5 5 5 5 5 6 6 7 8 6 7 4 4 1 6 7 6 q g g w q g w q q q q q q q q q q q q q q q q 8 q q w y -.",
"q w w q w q y q q r q q g y 7., > 5 5 5 5 5 5 6 6 6 5 5 4 4 4 1 < 7 w q q r q q q w w w q q q q 8 8 q q q q q 6 w n W { { -.j.q ",
"y q w y g r y y r r y y g { G = 4 5 5 5 7 7 7 6 5 6 6 5 5 5 4 5 > 7 z q q q q q w g w w q q q q q y y w w y L O.W w z y q w 4 4 ",
"y w w w y y y z y y y y g O.5 = 5 6 5 8 8 8 8 7 7 6 5 5 5 5 5 5 q w g g q q w w w g q q q g q y W W { { { e 7 7 1 5 1 < 6 6 5 g ",
"z y y y z w w Z z y z y 6.O., < q q q q q q 8 q 7 7 5 6 6 6 5 6 w g g g g g g g g g q q q y z y 5 < 1 5 1 5 5 w z Z Z { O.{ z y ",
"z z n z y s Z Z z y Z d.g.0 = = w q q q q q q q 8 6 8 8 7 6 4 5 g q g w q q g g w y z z W Z < < 7 w 8 5 w L L L L L { L W L y w ",
"Z Z y g n z Z L -.q.c.6.< = < > w q q q w q q q 8 q q q 5 q 6 6 g g g g q g y y 8 w { Z 7 > 5 z L L Z W W z L L { L Z { z y z y ",
"y z y Z W W 6.d.j.n.w < < 5 7 = q y w w y w q q q q q 6 q y q 6 q g g g y q < = # % : % % 6 L y Z w w Z L y L O.W z L L y y y y ",
"W O.6.6.r.r.n.m.n.q = 4 q q < > L w y y y y y w q q q w y 6 q 1 y y z w 4 % # % < < - : w w y Z Z Z Z Z L L W L W W L z z y Z { ",
"r.c.m.n.m.c.e 0 7 = 1 q 7 q = 7 L y z Z y y z w q w z g q 6 q < 7 7 < = # % < q y y q q Z w w Z Z L L W Z L W Z { -.Z y O.2.h.h.",
"j.r.Z 7 4 < < < < 1 q q 8 q = q L L L L Z y y Z Z q q q 8 q q % % # # % < 4 q g w w q y z y y L L L L { { { O.O.O.O.W y 2.h.u.u.",
"6.2 = > 6 q q q q q q 8 8 7 < L W L L L W z z z w q q q q Z 1 < 7 > < 8 q w q w w w q w z y L z L Z O.W O.O.O.6.q.{ y z -.h.g.m.",
"1 : = 7 q q 8 q q 8 8 q q , w O.L { { { W Z w q q q q q z -.; 2 q q q q q q w q q q y w L y q Z Z L { L O.O.O.O.O.z Z { d.c.g.z ",
"1 1 7 q q q q q q q q q > 5 6.{ { O.{ { W w q w w w w z 6.q % 0 8 8 8 q q q w q q y y Z w y w Z n L L Z { O.q.q.-.W r.j.{ 0 , = ",
"q 0 q q q q q q q q w < < { { O.O.O.{ W z w w w z z y L r.< & q 8 8 7 8 q q w q w w w w w Z 6.d.j.r.j.j.d.n.n.m.c.c.6.q = & > 5 ",
"q 7 q q q 7 q w q 7 2 < { 6.O.O.6.W z w y z z z y y z W r.> > q 8 8 8 q q q w y Z L W { 6.6.w q q w Z { 6.d.N.d.q < = * , 4 q q ",
"q q w y w z w w q 1 1 { O.-.q.d.W w q z L L Z Z z y Z -.6.= > w q q q q w w 8 w w q 7 7 2 > # # : = # % = = 1 > : : 1 6 q q q 7 ",
"w w q y w w q 6 4 < Z -.O.O.W z 6 w W Z Z Z Z Z Z z z -.d.2 % < < , > > > : # + @ # # # # % > 7 w 5 , 5 4 < * 1 1 5 7 6 6 6 q q ",
"w 6 6 q 6 q 4 6 q L 6.q.L z q 6 z L W Z Z Z z Z y Z r.d.w = % > < < < < : # - < 7 7 e e w w e q w 4 1 5 5 6 w q w 7 7 8 7 6 q q ",
"q q w w z 6 6 W O.O.6.L Z w 6 z W W L L W W { W -.c.{ 1 % % 4 q 7 7 7 7 7 7 w L Z Z y y Z Z q w 5 > 5 5 5 8 w 7 Z 5 q 6 4 q q q ",
"q w w w w 4 W W L L W z 5 4 W L Z Z W W O.6.r.j.r.5 : & > 6 q y e w w q Z Z y z z Z z y y y q z > < 7 7 7 q w 1 4 6 8 8 q q q w "
};
