/* XPM */
static char *bcc416e9267d4164cb533d3b7bb444f8onyukw1B7TCru053[] = {
/* columns rows colors chars-per-pixel */
"64 64 169 2 ",
"   c #8A654E",
".  c #8F694F",
"X  c #866554",
"o  c #8F6750",
"O  c #8E6951",
"+  c #936D54",
"@  c #977057",
"#  c #97725B",
"$  c #9C755C",
"%  c #9E785F",
"&  c #A1775D",
"*  c #A1795F",
"=  c #9F7760",
"-  c #9F7961",
";  c #9E7A68",
":  c #A47C63",
">  c #A87F66",
",  c #A78067",
"<  c #AA8167",
"1  c #A78169",
"2  c #AD846B",
"3  c #B1876D",
"4  c #B2896E",
"5  c #AC8770",
"6  c #AF8970",
"7  c #B58B72",
"8  c #B98E74",
"9  c #B69077",
"0  c #BC9176",
"q  c #BF947A",
"w  c #BF947B",
"e  c #BF957B",
"r  c #BE947A",
"t  c #BE9479",
"y  c #BA947C",
"u  c #BD957C",
"i  c #BD957D",
"p  c #BF957C",
"a  c #BE9379",
"s  c #C19277",
"d  c #C09379",
"f  c #C0947A",
"g  c #C1947A",
"h  c #C0957A",
"j  c #C1957A",
"k  c #C0947B",
"l  c #C0957B",
"z  c #C0967B",
"x  c #C1967B",
"c  c #C2967B",
"v  c #C0957C",
"b  c #C1957C",
"n  c #C1957D",
"m  c #C0967C",
"M  c #C1967C",
"N  c #C0977D",
"B  c #C1977D",
"V  c #C2967C",
"C  c #C3967C",
"Z  c #C2977C",
"A  c #C3967D",
"S  c #C2977D",
"D  c #C3977D",
"F  c #C1977E",
"G  c #C2967E",
"H  c #C2977E",
"J  c #C3977E",
"K  c #C4977C",
"L  c #C4977D",
"P  c #C4977E",
"I  c #C5977E",
"U  c #C2967C",
"Y  c #C3987D",
"T  c #C3997D",
"R  c #C0987E",
"E  c #C1987E",
"W  c #C0987F",
"Q  c #C2987E",
"!  c #C3987E",
"~  c #C3997E",
"^  c #C2987F",
"/  c #C3987F",
"(  c #C3997F",
")  c #C4987E",
"_  c #C5987E",
"`  c #C4997E",
"'  c #C5997E",
"]  c #C4987F",
"[  c #C4997F",
"{  c #C5997F",
"}  c #C6997F",
"|  c #C49A7E",
" . c #C49A7F",
".. c #C59A7F",
"X. c #C59B7F",
"o. c #C69A7F",
"O. c #C69B7F",
"+. c #C4997E",
"@. c #C89A7F",
"#. c #B39486",
"$. c #BD9982",
"%. c #B89589",
"&. c #C29781",
"*. c #C39A80",
"=. c #C49880",
"-. c #C49980",
";. c #C59980",
":. c #C69980",
">. c #C49A80",
",. c #C59A80",
"<. c #C49B80",
"1. c #C59B80",
"2. c #C49A81",
"3. c #C69A80",
"4. c #C79A80",
"5. c #C69B80",
"6. c #C79B80",
"7. c #C69A81",
"8. c #C69B81",
"9. c #C79B81",
"0. c #C59D80",
"q. c #C69C80",
"w. c #C69C81",
"e. c #C49C82",
"r. c #C49D83",
"t. c #C69C82",
"y. c #C79C82",
"u. c #C79D82",
"i. c #C79C83",
"p. c #C69E84",
"a. c #C79E85",
"s. c #C69B81",
"d. c #C89B81",
"f. c #C89B82",
"g. c #C89C81",
"h. c #C89C82",
"j. c #C99C82",
"k. c #C89C83",
"l. c #C99D83",
"z. c #C89E83",
"x. c #C89D84",
"c. c #CA9D84",
"v. c #C89E84",
"b. c #CA9F84",
"n. c #CB9E86",
"m. c #C99D83",
"M. c #CAA087",
"N. c #CBA087",
"B. c #CDA187",
"V. c #CCA186",
"C. c #CAA288",
"Z. c #CCA289",
"A. c #CDA38A",
"S. c #CDA48B",
"D. c #CEA48A",
"F. c #CFA48C",
"G. c #CEA68C",
"H. c #CFA78C",
"J. c #CDA38A",
"K. c #D0A387",
"L. c #D0A68E",
"P. c #D2A58B",
"I. c #D3A88D",
"U. c #D2A990",
"Y. c #D5AB91",
"T. c #D7AB91",
"R. c #D9AD93",
"E. c #DCB096",
"W. c #DEB39B",
/* pixels */
"x.>.>.Y m q 4 1 $.>.Y 0 a a 0 0 m [ [ [ m m a 8 a 0 0 m m m m [ >.m 8 2 1 7 8 8 8 q q 8 2 3 7 7 8 2 2 j G.C.2 0 8 2 8 a >.>.[ >.",
">.>.Y [ j 8 K 2 0 Y 0 a q 0 0 0 0 m [ [ [ a 8 a a 0 0 [ [ [ [ Y b.i.3 2 4 7 7 8 0 q 0 0 a.8 2 7 4 4 a q G.T.D.2 : 4 a [ b.[ >.j ",
"m >.>.[ 0 q m 2 y q 0 m 0 8 8 8 q Y >.x.0 7 u a 0 0 a [ >.i.[ [ 8 3 3 3 3 4 4 8 b.>.u C.P.U.u , 3 a Y q m x.i.2 > a Y i.>.m >.[ ",
"m i.i.q a q 0 2 u 0 0 a 0 a 0 7 7 j >.7 1 u a a a a j [ >.>.[ q 2 8 4 4 3 4 8 j x.N.Z.G.D.N.i.0 d m Y >.i.Y 8 : 8 m m [ m q >.>.",
">.i.m a a a 4 2 u 8 0 m m a a j 8 2 , 2 0 a 0 a a a m Y >.[ [ 2 2 8 7 7 7 8 a [ x.N.i.a.Y 0 m b.>.x.>.>.Y a 2 8 m m Y >.Y a m >.",
">.[ j a 0 a 2 9 0 7 Y >.a a a a 0 q Y B.j 0 a 0 0 j m i.Y 2 : : 0 0 7 8 7 8 j [ f.b.i.8 0 [ b.b.b.[ [ Y a 8 0 q m Y >.>.m m [ 0 ",
"q [ j a 8 1 : 1 4 Y [ j a a 0 0 0 7 = 4 2 : 8 a a m >.0 2 3 2 1 i.0 7 7 8 K [ [ [ b.Y a [ [ [ >.>.m m q 8 8 a q m Y >.>.j Y [ q ",
"[ 4 2 8 0 % + 1 i.f.m a a a 0 0 4 : 7 8 2 2 : 2 m Y 2 2 0 q 0 7 a.a 7 8 m K K K j 0 0 f.>.>.[ [ j j q 0 4 a a j Y >.[ Y m m >.*.",
"x.[ 1 + * 2 8 [ [ [ m a 0 a q 2 1 Y x.N.N.b.m 7 : + 4 a 0 0 0 : 0 a 8 m [ m K m m j 8 >.b.>.[ j a a a 0 7 7 a j Y [ [ >.[ Y m >.",
"i.[ 3 . 2 m m j [ [ j a a 0 0 > e.x.>.b.i.>.[ [ j 2 8 0 0 a 2 % 2 7 8 m m m m j a a q [ >.[ [ d 0 a q a a 8 4 j [ >.x.x.Y >.0 i.",
"Y 8 + 1 a.j j [ [ j 0 0 0 0 3 3 x.>.b.b.>.[ [ j j [ 4 4 q 4 : m 4 3 0 j [ m j 0 0 0 q >.[ m j a 0 a j a a K 7 8 n.K.x.m Y q 8 i.",
"0 % # >.K m K [ [ j a 0 8 4 1 m i.b.x.b.m [ [ K >.[ j : 4 % 8 a.8 m [ [ [ K j j j 0 a Y [ j a 0 0 d j j j j 0 8 K.Y a Y q u >.m ",
"4 + 2 i.m m [ [ m d j a 0 4 0 >.n.n.x.[ d j j b.B.b.b.0 @ , *.a 0 j m [ [ m j a q 7 a [ m j a 8 0 a j m j a 0 Y x.m >.m 8 Y q a ",
"8 : 0 [ m m [ [ j j q 0 0 a a q N.x.[ a j j K b.b.b.K.0 $ a a 8 j m [ [ [ j a a 0 4 a m j a 0 8 8 0 j j j m m a m >.>.8 8 a a 0 ",
", 7 j [ m m [ B.[ a a 8 a a a j Y Y j a 0 0 [ [ @.B.0 $ 8 [ 8 8 m m [ [ [ d a a 8 8 a a q 8 7 8 8 0 j j j K [ [ j 0 7 : : > 2 4 ",
"8 8 q q j m [ Y a 8 8 8 a m j j K j j 0 0 j j [ b.B.+ 2 x.q 7 0 K m [ [ m a a 0 8 a a a 8 4 8 8 8 0 j m m m >.>.[ K : + : 7 0 0 ",
"a q [ j 0 a q 0 8 8 4 7 8 4 4 8 0 j j j j m m V.P.3 $ m a 0 8 a K m m m j a 8 4 8 8 a 0 4 8 8 a 0 0 K K m m [ [ [ [ : : 8 q a j ",
"d [ [ [ j 0 a a 0 0 0 8 8 8 0 4 8 a a q m j Y b.8 $ 8 m a a a a m K m j a a 2 4 8 8 0 8 8 0 8 8 8 d [ [ m m m m [ q $ : 7 a a a ",
"m [ K j 0 j a 7 7 7 8 8 a j 8 8 j j 0 8 a 8 2 1 % 7 q j j j j j m m j a a 8 3 8 8 7 7 8 8 8 8 0 a j K m m m m m m a = 2 0 d j j ",
"j q d q m a 8 8 8 8 8 0 m 8 0 [ [ @.b.[ q 0 1 O : 7 m K K K j j j m j q a 8 a 8 4 3 7 0 7 8 a a j j m m m m j j j m : 2 j j m m ",
"0 j m Y m 8 8 0 0 0 0 a 0 0 [ [ >.b.[ 0 8 8 0 0 : 4 m [ [ [ K m K j a q 0 8 8 8 4 3 8 8 8 j [ 0 0 j m j q j m q 0 8 : 8 q j j j ",
"m K [ [ a 7 a 0 8 7 8 7 7 j [ [ b.m 7 8 d m j >.7   : K j K [ b.[ a a a 0 8 7 8 3 4 8 0 j [ >.[ 0 j j j m q 7 3 3 4 0 a a j j j ",
"m [ [ m 8 8 0 0 7 7 0 8 0 m [ f.j 8 a K m j j [ : : % % : j [ j 8 q a a 8 7 8 7 3 8 8 0 m b.b.a 8 j Y j 3 : 2 8 a m q a a j j m ",
"j 8 8 8 7 7 8 8 8 8 0 a j [ >.[ 0 m m m q q m a : Y Y 3 % , Y a j q a a 8 8 8 2 7 8 8 a [ n.Y 8 q m 4 % : 8 8 8 m m a a a q j m ",
"4 8 0 3 4 8 8 8 8 0 j a j [ f.j m [ m q a m m 1 7 N.q a 8 % + > < 7 8 0 8 8 8 4 8 8 8 a f.>.m 8 4 : % 4 a a a a a a q a a a a 8 ",
"q m j 7 0 K j a 0 j j j d [ a 0 >.[ j 0 8 8 7 % 7 *.a 0 8 8 , + 1 8 8 0 8 8 7 8 8 8 8 0 [ Y i.1 + : 7 a 0 a a 0 0 0 a 0 0 8 2 7 ",
"a a 0 3 8 m [ [ K K j j j a 8 [ m 3 3 3 4 a a.Z.>.q a 8 8 8 8 1 % 4 8 a 8 8 8 8 8 8 8 0 q *.Y + : 7 4 8 0 0 0 0 a a 0 0 0 4 7 q ",
"0 [ 0 2 4 0 K K K K K j a 2 8 7 7 7 8 q [ x.>.>.[ a q 0 8 8 7 8 : * d a 8 8 8 8 0 8 0 0 q >.1 . , 3 3 8 8 8 8 8 8 0 0 8 3 8 0 0 ",
"x.D.4 2 4 s K K K K 0 7 4 8 8 0 j j j m j j m >.j 8 a 0 8 7 4 7 7 3 8 8 8 8 7 8 0 0 0 0 q a + O : 4 7 8 8 8 8 7 7 8 8 2 4 j 8 8 ",
"*.Y : 3 4 j K K K K K K [ [ [ m j a a j j j m m 0 8 8 8 7 4 4 4 3 8 0 0 8 7 7 8 0 0 0 0 a 7 4 % + 3 m m q 8 8 7 4 7 4 7 0 a 0 2 ",
"> : 3 7 8 K K K K K K K j j 0 q j a a a Y m q a a 0 8 7 7 4 4 4 3 8 q 0 8 8 8 8 a a a j a 7 m j 2 % 2 7 7 j 0 8 7 7 8 8 8 a q 8 ",
"2 : 8 j [ K K I @.[ [ K m a 8 8 a a j 8 q i.a a 0 8 8 7 8 4 2 3 4 8 a 8 8 8 8 a a a j m 8 8 u >.b.0 3 , : : 3 8 a 8 8 7 8 8 0 0 ",
": 8 j [ [ [ [ [ [ [ [ m j a 8 8 a a a q 7 7 a 8 8 7 8 8 8 8 4 3 7 8 0 8 0 a a a a j m m 7 8 j >.b.B.Z.K.B.a = + * 1 7 8 8 8 0 0 ",
"8 a j [ [ >.>.[ [ m K j a a a 8 a a a q 7 # 8 0 0 0 7 8 8 7 7 7 8 a a 0 a m j q q m [ 8 8 a j >.x.x.N.Z.D.R.u % 8 1 , 1 2 4 8 2 ",
"0 0 q [ >.>.[ [ K m j d a a a 8 0 a 0 0 2 r.0 u a.0 7 7 7 7 8 8 8 a 0 a 0 m m m j m 0 0 8 8 q >.x.n.Z.Z.I.R.D.4 I.I.N.7 7 7 : 7 ",
"8 0 j Y j j j m K j d d a a a 3 8 a 8 8 a Y *.q a.0 7 7 7 7 8 8 8 0 a m a a m q q 8 8 u 0 7 q >.x.B.Z.Z.I.T.B.a 0 *.N.I.I.D.q : ",
"2 8 8 8 j >.m 0 m j a a a a 0 7 9 2 4 q a 8 Y 0 2 a 8 7 7 8 8 8 8 a m m m a a j 8 7 m a 8 2 j b.x.B.x.b.B.K.x.>.[ 0 x.D.N.N.a O ",
"0 8 8 q [ Y a 8 m j j a a a q 4 % $ a a 8 2 8 0 , : 1 8 0 8 8 7 8 a j m m j 8 7 3 a j a 7 8 Y b.N.B.b.[ b.P.x.d d j B.N.>.[ q $ ",
"u 0 0 m [ j a 8 m m j q a m x.2 + j m 0 8 4 8 0 0 4 : % 1 3 8 8 q a a m m a a 1 3 q m 0 0 u >.b.B.b.x.B.B.x.[ j j q m Y [ m a , ",
"a 8 a >.>.>.4 : >.[ >.Y Y >.i.# 2 x.0 a 0 3 8 0 0 0 8 3 : & + : y a.Y m a 0 0 8 8 j m a u m b.b.b.>.m [ B.n.[ j j q q q Y >.8 8 ",
"8 0 >.>.[ [ 8 % 8 x.i.>.Y Y a + Y m a a j 8 8 j j 0 8 8 j q 2 $ @ = : 7 a a a 0 8 m m m m 0 [ f.K m a a m b.[ m m j Y m a 8 , Y ",
"8 a >.>.[ >.b.m : , u i.*.i.: $ N.a a a Y 0 8 m j m >.[ [ [ i.b.% + + + % 1 7 0 4 m [ [ 0 1 2 j m a 8 0 0 q q [ [ Y >.i.i.7 4 Y ",
"8 a >.>.>.f.>.x.N.2 # : 1 : + 8 a.a a a [ a 0 j j [ >.>.>.i.i.Y = q 8 4 3 1 > > : 2 : * $ : < 2 4 3 4 3 4 4 8 j [ [ >.>.[ 3 0 q ",
"0 a >.b.b.b.>.[ b.x.7 * $ + $ N.S.a a a q 8 0 0 0 j >.b.x.x.N.3 2 u 8 8 7 8 8 8 0 [ 1 % 1 0 j j a 8 0 0 0 8 8 j [ >.[ [ 0 2 q 0 ",
"0 a [ b.N.b.f.[ m j [ m Y 4 O 2 6 7 0 q a a Y q 0 0 Y >.i.Z.N.: 0 0 8 8 7 7 8 q m [ 8 + 4 8 q m m a m j j j m [ >.[ j [ 4 4 q a ",
"j m [ >.N.x.b.b.[ Y [ >.8 % 1 2 4 2 , : : , 2 2 2 [ [ >.[ *.1 2 0 8 8 8 8 8 q m j >.> $ : 7 j m m j d a a j m [ [ j m 0 3 u Y j ",
"m >.Y i.B.x.b.>.[ [ >.8 2 7 2 K x.f.[ 0 3 1 2 , % 1 >.[ [ 4 > 8 8 8 8 8 0 Y m 0 m 2 $ Y 1 1 [ [ m j j j a j [ [ j a m 7 8 >.Y m ",
"q u m x.b.n.f.[ [ j 3 8 Y a 0 >.>.>.>.b.n.B.K.B.b.7 2 3 2 2 8 7 8 7 8 0 Y [ j 0 7 O 7 a 8 7 8 [ [ K m q 8 q m a a j j 8 8 [ [ m ",
"Y [ >.b.>.>.[ [ a , 7 m Y Y Y [ >.>.[ [ f.f.f.b.B.I.8 4 8 7 8 8 8 8 8 q Y m m 7 % : m 8 8 a 0 0 q j j 8 0 m a a a a a 7 8 >.Y m ",
">.>.>.>.[ m [ 8 : 7 q m Y Y m [ >.b.f.[ [ >.b.b.i.0 3 7 8 7 7 7 0 0 a q Y Y 2 1 8 7 a 0 0 a [ >.a 0 2 2 a a a a a a a 8 7 [ Y >.",
"[ [ >.[ q m 0 : 8 a a j m m m [ f.f.f.[ b.B.b.[ 0 8 a a a 8 8 0 0 0 a Y Y 2 3 a 8 2 a 0 a j [ m [ m K q 8 8 0 j j a j 1 2 [ [ [ ",
"[ [ >.m 0 0 & 7 0 a a a m Y m K [ [ [ b.I.B.[ [ [ m a a a a 0 0 0 Y [ 0 7 i.a 0 4 2 q a a q j m [ [ >.[ K 0 4 4 0 q 2 + 4 m [ >.",
"K [ [ j j $ : 0 8 8 8 8 a m j j m m >.K.K.f.[ [ K j a a a q q 0 q B.8 + 7 C.u q 1 2 a 0 a a j f.b.b.>.[ K [ [ 0 2 : + : 8 a m Y ",
"m j a q 2 : 0 8 8 8 8 8 8 0 a a m m K f.f.f.[ [ m j d q j j j 0 Y j $ 7 = $ , 2 , 7 m m j Y [ b.n.b.>.[ [ m [ >.m : , 3 8 0 j [ ",
"3 2 % $ + + : 0 0 7 7 7 7 8 a a a j j K >.[ [ K j j a q j j j m 8 * 7 [ 8 8 , * % u i.i.i.i.i.x.B.b.>.[ m Y Y m 3 , 3 8 a a j 0 ",
"8 q 0 4 2 : $ % 2 8 7 7 8 0 8 8 0 j m m [ 7 K K j j j j m m m 8 : 8 >.m 2 2 0 a 2 : 8 i.b.[ i.B.B.n.i.[ m m m 8 2 3 8 a 0 2 $ % ",
"a q Y B.B.B.B.Y 2 3 7 8 8 8 8 0 a j m m [ 2 q >.m j j j j m 0 > m >.m m 7 2 8 8 0 + . : Y b.b.B.B.b.>.m m m j 4 2 8 a j > : $ 1 ",
"0 q B.T.K.K.B.B.Z.8 1 < > 7 0 d d m m K j 8 7 m m m m m j a 2 0 Y >.m j 0 7 7 8 2 + $ + $ 8 N.N.b.b.[ j m j 8 8 8 a m 4 : 7 2 7 ",
"a b.K.R.R.R.K.B.q , 4 : 8 7 0 j j m m m q b.[ m q q j q a 7 8 u m [ [ m a 2 4 8 % @ q , * $ , j [ f.[ m j 0 0 a a m 0 : 2 8 8 a ",
"i.B.K.I.E.W.P.Y 2 3 : i.8 7 0 m K m [ a m >.K [ K j j a 8 8 a a j m [ >.q 2 4 3   ; K.N.N.Y $ & [ [ b.>.a 0 a a q Y 2 > 3 8 8 >.",
"x.B.K.R.E.R.f.7 7 1 u >.8 8 d m K [ [ q m [ [ m m m j a 0 0 0 0 q Y >.i.m 2 4 < X %.P.I.Z.i.q o > i.i.7 0 a a q m a : 2 7 a [ i.",
"f.f.n.I.I.P.[ 4 = 4 i.a a a d [ [ K K m m Y m m m j a a a m j a q j >.>.q 2 1 @ 5 G.P.B.m 0 0 2 + % % 4 Y a a q Y 2 : 7 8 [ b.>.",
">.>.[ [ [ Y j > ; &.j [ j a a m [ [ [ [ u m m m j a a 0 q m j m Y m m j 0 1 % 1 j B.x.m 0 8 8 8 a : + 2 m j q m a : 2 7 q b.>.>.",
"[ j [ >.m j 0 # #.e.[ [ q a 0 a K [ [ [ q m m a 0 a 0 a m m m Y Y j 0 0 2 : 2 8 0 Y j a 0 8 8 7 8 0 2 : 2 8 m Y 7 : 4 8 f.>.>.>."
};
