/* XPM */
static char *_1d83c033391436ba5380adc48fb8e2ee4HdngvUEcgQ5imj[] = {
/* columns rows colors chars-per-pixel */
"64 64 183 2 ",
"   c #1F1D17",
".  c #1F1F19",
"X  c #24241D",
"o  c #252A1E",
"O  c #262520",
"+  c #272D22",
"@  c #2B2D24",
"#  c #302F27",
"$  c #302F2A",
"%  c #273020",
"&  c #2D3425",
"*  c #2E3B24",
"=  c #2F3028",
"-  c #2E3F28",
";  c #313527",
":  c #313C26",
">  c #33352B",
",  c #38372D",
"<  c #343B2B",
"1  c #393C2E",
"2  c #363631",
"3  c #363A31",
"4  c #3B3D32",
"5  c #2E4124",
"6  c #324426",
"7  c #344B26",
"8  c #384D26",
"9  c #35432A",
"0  c #39442D",
"q  c #364B2A",
"w  c #3A4B2D",
"e  c #365526",
"r  c #395527",
"t  c #365229",
"y  c #3B522C",
"u  c #3E5B2C",
"i  c #3D4333",
"p  c #3D4B32",
"a  c #3F4239",
"s  c #3E5231",
"d  c #3F5931",
"f  c #3F612C",
"g  c #40542E",
"h  c #415C2E",
"j  c #414436",
"k  c #424C35",
"l  c #434539",
"z  c #48473C",
"x  c #454B3B",
"c  c #494D3E",
"v  c #435334",
"b  c #485436",
"n  c #445B33",
"m  c #495C36",
"M  c #46533A",
"N  c #48543B",
"B  c #49523E",
"V  c #4A523F",
"C  c #4B513F",
"Z  c #49543D",
"A  c #4A553D",
"S  c #4B553E",
"D  c #4C563F",
"F  c #4A533D",
"G  c #465A38",
"H  c #47593C",
"J  c #475A3A",
"K  c #4A583B",
"L  c #49583E",
"P  c #495A3F",
"I  c #4A5A3F",
"U  c #4D593E",
"Y  c #4D5A3F",
"T  c #4C5E3D",
"R  c #4C5C3E",
"E  c #4B5B3C",
"W  c #505D3E",
"Q  c #42642F",
"!  c #466134",
"~  c #496334",
"^  c #4A6535",
"/  c #476830",
"(  c #4E6A37",
")  c #476239",
"_  c #4E673B",
"`  c #4C633B",
"'  c #4F6B3D",
"]  c #4F6B3D",
"[  c #506933",
"{  c #50643E",
"}  c #526C3C",
"|  c #567436",
" . c #56713E",
".. c #464740",
"X. c #474A41",
"o. c #4A4B40",
"O. c #4B4E40",
"+. c #4E4E44",
"@. c #4A4D42",
"#. c #4C4D48",
"$. c #4B5140",
"%. c #4C5240",
"&. c #4D5142",
"*. c #4D5243",
"=. c #4B5741",
"-. c #4D5541",
";. c #4D5641",
":. c #4E5740",
">. c #4C5742",
",. c #4F5544",
"<. c #4F5745",
"1. c #4D5442",
"2. c #4E5A41",
"3. c #4F5942",
"4. c #4D5941",
"5. c #4D5C41",
"6. c #4F5D40",
"7. c #4F5D43",
"8. c #4F5D44",
"9. c #4D5B42",
"0. c #4F5149",
"q. c #525347",
"w. c #515746",
"e. c #515545",
"r. c #515D43",
"t. c #505945",
"y. c #515B45",
"u. c #525C46",
"i. c #515D45",
"p. c #515C45",
"a. c #525248",
"s. c #52544A",
"d. c #545C4A",
"f. c #5A5B4E",
"g. c #5A5D4D",
"h. c #565D50",
"j. c #5A5D52",
"k. c #4E6143",
"l. c #4E6242",
"z. c #516440",
"x. c #546743",
"c. c #526247",
"v. c #546346",
"b. c #506544",
"n. c #556547",
"m. c #526344",
"M. c #526841",
"N. c #546D40",
"B. c #546B44",
"V. c #586E47",
"C. c #536349",
"Z. c #546549",
"A. c #55644A",
"S. c #59654C",
"D. c #576A4C",
"F. c #566A49",
"G. c #596B4C",
"H. c #557046",
"J. c #5A7144",
"K. c #5E714A",
"L. c #5D6354",
"P. c #5D6B53",
"I. c #5F6459",
"U. c #5E6859",
"Y. c #616556",
"T. c #626B54",
"R. c #626659",
"E. c #646B5C",
"W. c #67705B",
"Q. c #69735B",
"!. c #666C61",
"~. c #6A6E63",
"^. c #6C7365",
"/. c #6E7669",
"(. c #717767",
"). c #707D67",
"_. c #71756E",
"`. c #747B6C",
"'. c #787D70",
"]. c #7B8474",
"[. c #7E8876",
"{. c #858C7E",
"}. c #88967D",
/* pixels */
"G v p w q q % @ , i j c L L ,.u.D c i w 9 , x f.a.& , o.a.+.x 4 , > i Y v.r.S k , 0 < 0 w 9 : : 9 p w y q q v b k x j k _ N.] M.",
"M p p w 0 q 5 @ , k k B 8.H l.6.B x k w 9 9 ; l ; X > l x v w < , 1 x 3.r.u.,.x 4 , , ; y q 9 < 9 q u h q q y v v 4 j M x.b.R R ",
"M n v 9 9 q y < 4 x x N S 6.m.L M H v q 9 9 9 i ; @ < i 9 y < 0 k x S ,.y.e.&.x l 4 4 , q w y q w y u u y : < i j i x ,.3.&.x x ",
"v n p < ; 9 h v c c S 6.n.D.Z.H H k 0 9 9 w p x i < : 9 : < 9 0 p b Y 3.y.&.@.@.c l i w g q q 8 u n w y y < & > i x ,.y.,.c l j ",
"j j 4 , & n ~ m 3.&.x =.C.Z.m.H G s p w w w 0 x 9 q u q & 9 8 u n n E k x c c c c k i < : * q 7 y u u y < ; , x c 1.&.,.B x l l ",
"j i 4 , 1 ` R ~ m.,.c B m.l.` H v y p p p 0 ; > i y 0 w q y u y w k k x x l x n n w w w 9 : 7 6 q r y y p i k 3.,.y.,.,.c l j i ",
"j 4 , j x 3.C.m.m.u.3.L l.l.R ` v p p p p k i p k k v v h y q 9 0 d.4 j ,.,.E ` ` p v / q : * 6 8 8 y n E b H L 6.8.u.u.,.l j i ",
"4 , i c ,.y.C.Z.Z.Z.l.L R _ 6.R J G H M k i p p j x S b 0 9 0 0 N S.k p c ,.L R E 0 y y 9 q 9 0 q w n E E G v c 5.l.8.y.@.l l j ",
"i l c ,.u.u.C.m.b.b.m.l.R l.m.l.` G N H k k i 4 l &.r.m 1 0 0 k K M w w x ,.u.3.k i s p y n v i 0 k E ` R M M L 5.l.8.1.c c l j ",
"x c ,.u.m.m.Z.l.] V.V.V.m.=.8.L G E S x k w 9 k &.e.3.x k w 0 i c 3 < i x ,.u.3.x j x L s G ^ k i x B r.m.6.6.l.l.l.<.O.@.c c x ",
",.3.3.m.m.B.b.L R B.F.F.Z.3.L H M k x x x i p 3.e.y.,.x < & : k l , 4 l D u.N.R x l 1.8.=.H ! p 3 B 3.l.V.F.m.x.k.6.u.,.y.,.y.B ",
"m.=.3.u.b.b.6.x x G H n.n.L v s p *.l x B 6.3.t.y.y.,.x > < < i > > l ,.m.b.` x 4 4 c y.1.x B G j c Y ` b.F.Z.Z.m.l.k.C.C.C.u.u.",
"m.=.R S R R S l l y.c _  .M p p =./.U.l x 6.u.u.d.d.y.=.j 1 1 1 & > M { m._ G i j.4 , l X.@.,.} ~ B 6.l.b.F.P.Z.k.l.l.m.Z.Z.C.n.",
"m.=.R B B S Y x y.`./.K.| ` v M j./.].s.4 =.m.Z.Z.8.H R S x i 0 0 0 v ` 6.S i x ^.@.X.x 4 c 1.K E 1.m.m.l.L x k H ) ` m.A.Z.M.l.",
"l.L G M ` l.Y L 3./.E.E.J.} ` Y f.`.`.s.i 3.u.8.6.i p s k p 0 0 w y v 1.1.x 4 x ^.j.s.3 @ , N ` 1.u.Z.Z.l.i 3 4 i s J k.F.x.H.B.",
"` R L l.b.n.m.m.k U.~.W.F.` _ R ,.R.I.l i Y S k i t q 9 q 0 p v v g n x x l 3 > O.4 # > f.l 0 x y.u.m.L M 4 i j i i S 6.F.B.B.B.",
"m.m.m.F.F.F.v.t.i l `.E.n.b v m x @.k % 9 x k j 0 t u - % : w y v p H x x l 4 @ O 4 *.0.c l $ j y.v.l.H l i 4 4 l c 3.6.m.N.' b.",
"V.V.V.F.G.S.u.D j 0 d.<.k w 0 w i i * & i j j i > 9 r & % % : s n v x x x l 4 l *.s.f.0.3 j @ l y.u.3.B l 4 i j x c 3.3.=.M.x.F.",
"F.G.G.S.d.y.x k v 0 9 i 0 y : % n ! w 0 j i i 0 0 y 8 % 5 6 s n G k x x x x Y.L.a.X...X.2 > 4 &.,.u.y.@.l l l b S 1.B S ,.=.m.F.",
"G.Z.r.u.c l i v n w : d p u 9 9 ! ( n p p 0 p w p q 9 9 q t q p v v j j i x ~.a.#.@...@   , i x &.u.A.u.e.y.,.L 3.=.k B 3.=.3.Z.",
"C.C.c c ,.j i w y y p u w w 0 k B w 0 q 8 y w 1 < 0 9 0 < < < , v E x 4 , q.s...a.X.O . @ & , l ,.r.S.S.S.S.S.u.B B x B L L B u.",
"N ^.I.c 4 , i i i p b v w i i l o., ; q q s w 0 < 1 0 0 , > , i x E H l 4 x j l 3 X X @ @ > 1 i N 6.R S Z.C.C.Z.<.=.=.P R =.8.8.",
"k y.s.x e.d.x 1.i p y s p i x 1.j & 0 w w w w 9 0 0 9 , ; 3 i x 1.S B x x i O @ X @ > 0 6 0 0 p E _ n b M 3.u.S.G.C.5.H =.6.Z.m.",
"p k l c Q.U.l i 4 i w y d E ` M , 9 n u w 9 9 9 0 1 4 4 3 4 x 1.,.3.,.B x r.M ; 0 < q q q 0 y v _ _ v k M 3.Z.G.G.D.A.8.6.6.L v ",
"w 0 i l ,.d.&.i 0 0 v G ! E p p i p v i i , < 1 0 1 i j i j =.u.C.t.c M b E v 0 9 9 9 w w 0 p H M x i i k L m.B.B.x.l.l.L G n d ",
"q y 9 4 1.D.m.G y 0 q n p 0 i v v 1 w m i i 4 , , , 4 i 4 j &.A.A.3.x k n n s 9 y y 9 w s p 3 x u.Z.t.B x H l.] ( _ H R L v y w ",
"7 r q p R H.b.v i 9 < y 0 0 p s n 0 v ` x l 4 3 , , k v p M ,.y.u.D j i w h y 6 7 6 9 p p i i D Z.Z.S.F.=.=.C.V.B.{ E G n n y 6 ",
"8 y 9 q H ,.x p i p p q q p i i p 0 x x.K l , 4 , 1 q w k v R x N v i 1 y u q 8 8 9 w & ; , k N r.Z.u.3.B =.=.<.C.B.R H n y r 8 ",
"6 8 & @ 3 x @.E k a i w 0 3 j x v 0 ,.m.M i 4 , ; ; j k w k m v k i w : 6 6 6 6 5 6 9 % : 1 k N S ,.,.f.(.d.a l ,.6.b.E G 0 6 9 ",
"9 9 9 > , j x O.x 4 4 4 4 4 x B N 3.d.L k j 1 ; j E.`.j.p 0 m n p 0 0 : % * t 8 8 6 : & < k D 6.B L.].Y.!.E.,.*.*.@.c p w 0 u t ",
"y q 9 0 , < , l @.l , 4 j x &.,.u.C.u.F.t.j 4 &.(.'.j.0.@.i w m w p 9 * 6 6 8 u r 6 : < i N 3.,.s.~.R.g.g.d.,.*.a.@.> k ^ n ! 7 ",
"u u 8 & : 0 4 4 4 j l x x c ,.t.u.S `.`.,.4 j.R.j.0.@.o.i : & i 0 0 : * q 7 6 7 5 6 9 0 k N 6.x a.s.f.S.e.,.e.*.s.a < ` ~ h 6 * ",
"w u y & & : i , 4 c &.e.y.y.t.u.,.j U.f.,.4 j.R.@.#.@.> O > > @ @ q g q * 7 5 % 9 q y p p k k o.s.e.u.d.d.d.s.s.@.> 4 k q q 9 9 ",
"k 0 u % + & 9 i &.y.y.u.d.u.Y ,.&.l l 1.*.3 a.s.@.#.4   , c l > & u n q % * @ : 0 w y v v p i @.f.d.e.&.S @.*.*.4 > 4 i 6 6 q y ",
"r.m h * + & p x <.Z.C.m.m.3.m.B x x c x x 4 j @...3 X > L.l 1 q u g ~ R , * : 0 i p p v s w 1 j l l s.N ( R ,.x , ; i i w : q ` ",
"m.^ ! q i p M m.D.A.y.u.u.R Y N l l l x k i ; , , ; @.j l 4 6 8 g n v U.c * v k i i k k p w 0 , ; < k G ^ D @.j , j x i p q v u.",
"B.m n i b M 5.F.A.@.l x c ) E x l l l j i i i < & q.g.@.> @ 9 u g n x U.c 1 x B x i j i i w < & ; 9 y y k l j j c x j j p p v T.",
"{ n m R 3.6.5.B x 4 i i v n v j j j i i i p p w 0 S t.e.4 * u g m v.E.E.x i x B x i 4 j i < 9 : : y y 9 k x c &.c k k i p p G b.",
"{ L N.N.r.D x i 1 0 0 i d Q n p i 0 0 i k n } b x l.M.x < 9 w E ` T.L.&.j x B B l j 4 4 , ; 0 8 ; 8 r w k x B &.c v v p y v b b ",
"m.C.J.{ ,.x i i 9 9 q 0 M ` n y 9 0 p k n ^ { x S R x.x : 0 q p b W e.c l x x x l j 4 , < 9 q 9 : 9 y p k N B &.B k j w y 0 i x ",
"6.V.N.` k p 1 0 9 : q 0 i i s w : w v E m ` S S ` ` D x < q 0 1 i x s.c B v x x l j i , < 9 y 6 6 s b v x B B B K m m i 1 > 4 M ",
"Y b.b.v k 0 9 9 1 < 9 1 * * < : 0 n v M H L R E E D *.x < < 1 j N &.&.&.Y [ B B x x j , ; 9 q : w p p x x N N Y S N i , , 1 k N ",
"B S Y x j 4 1 < & ; ; 9 6 q 9 p y n p p x L L S B c ,.c 0 : k k D y.y.y.y.` E Y S k 0 < : q & @ < 1 < j c c B L S M j i i j x S ",
"B E x j i 4 , ; , < & 9 y ^ y w w w w p k M B 1.c c x 0 w < i k Y Z.A.C.A.u.E E E v w y 8 6 @ & < ; > x l x x x Y x j j j j x c ",
"R v j j 4 4 0 , ; & * q n w w 9 9 9 w d i k x B c x i G y 0 0 x ,.u.C.A.A.u.B v k p w q : o o o @ < j x x c x N T l l j l c c B ",
",.j j j 0 0 p 6 & : * * 9 6 6 < 9 q w n s i x c x j x L n E y.h.I.I.d.u.S.<.x i i 1 6 & * * < < ; x c x x c c K N l l l c c ,.B ",
"x j l i i 0 9 9 7 6 : 7 y 8 6 6 9 r q q v p x x i l x 3.{ b.U.f.R.I.=.u.u.B x i i y y q y w n m 3.,.x l x x c E b j j l @.,.3.,.",
"x l l j j w q 9 y 9 9 q e 6 6 9 : q 6 9 s v H H k x 1.6.` r.!.j.E.s.x A.u.R x i p v w * 6 w v G n G j x c x x n v j j x &.u.,.&.",
"l j l j i q u w y 0 < 5 r 8 * : 9 9 9 9 0 E _ R M 3.=.B i i E.U.R.@.,.A.3.b i k V.G.S 1 ; p L E ( ^ v x c S ) n q 4 x c ,.y.,.x ",
"j R.`.!.v v w y 9 9 : 8 f t 7 : > 9 y p p R m.3.B S ,.c l l E.j.o.i c x k k S.[.}.).u.l i i i U.P.v E E 3.1.H h 9 9 x x S ,.c l ",
"a.{.j.O.1 ; 9 9 9 q r r 7 w y ; , 1 9 p H l.m.m.B L R B x x ,.a.l B k i 0 N `.{.].E.e.x x 4 4 y.A.A.x E R x w 6 6 7 p i M r.c 4 ",
", ~.j.4 O O < < w w q 8 @ : y 1 4 i i k 3.k.m.m.B B 6.3.L L S c x M k 0 9 C.`.`.Q.u.,.1.k x @.l x E.l p v 0 6 6 6 6 0 k N m.v.c ",
"i 4 j X O < p w q 9 q 6 ; q u 0 4 i j c 3.k.Z.Z.B S m.m.m.u.S M M k p 1 0 T.T.Q.T.S v p g y.@., ; i k p y y q q q w p v H r.Z.C.",
"C.4 @ 9 i k p w : p q < 4 p y 0 4 i j c 3.y.m.m.B 6.m.m.m.8.S H R k i , i e.p.T v < 0 s B a.*.l < k 0 y u h u y y r s d n ` m.Z.",
"Z.<.S R b v w 9 q 0 < , 4 i v i 4 i x ,.y.u.m.m.3.u.m.m.8.6.x p E E b i j l x b ! v : * 1 4 , @ i v < y u r r y r y 9 9 w ) ` m.",
"Z.u.H ` J s p q 6 : ; 4 i i p l j x D e.u.n.b.R L S 3.,.6.=.k p b n h y i 0 i v v v 6 & , i i k 3.b w 9 6 6 y 9 9 q 9 9 p d G u.",
"m.m.L N x B i 9 i i I.I.4 l l x c B 3.u.v.R _ H H n x c c x i i 0 w 9 h w 0 w v H 0 : 1 x d.P.S.M v w 9 : q u q * y h w x G.F.<.",
"l.] 6.x d.!.3 4 p h._.s.l l &.@.&.,.3.u.S b ~ v k k k x l i 4 4 9 9 < y w , p c i 1 1 i 1.S.G.C.l i 0 9 y f Q 8 y y h v M ^.^.u.",
"R _ =.x ^.^.4 , k x O.z l x e.3.6.6.S x p p p p k x x x x j j w w y w s w y i l i 1 i M m.G.P.y.k p 0 w u u u 6 6 ! ~ v M L.d.y.",
"l.` B k o.*.j @ l 4 3 4 x &.y.u.m.R S k 0 9 w w i j M E K x k 0 w 0 w h k v x l l l B m.F.Z.y.t.E 0 w y u u 8 * 9 ! n n m n i B ",
"^ n n w : 1 > @ l l j x c &.y.u.m.L H k w u q 9 i i k T W c i > , > 9 y v N c B x B y.u.y.B x i k p : d w r 9 0 k v k k v v w b ",
"k ! h y q 6 @ > i 4 4 j l 1.y.t.6.B x k n y 1 4 , j x v.f.a.j $ j , < 0 n Y ,.c x x c c x k i < w q q r y 9 q v v l x i i i i i ",
"x v w q r 6 : > 3 4 4 j x B 3.3.B B x n y 9 &.s.4 > l d.j.*.o.2 > j : < N D c N v i 0 1 k i 9 9 q u 8 9 6 7 y k S c c 1 0 k j j ",
"u.k p w t : * ; @ 3 i l x c ,.6.S B M y 0 , e.L.*.@ 3 +.q.+.l i = @ & i D S c k k 0 < 0 i 1 1 0 w y q 9 8 q s k x ,.l 0 n R m.v."
};
