/* XPM */
static char *cf6d3037d05b48548f270c7793a40b06P7MJRQQFeOdfLAU2[] = {
/* columns rows colors chars-per-pixel */
"65 65 170 2 ",
"   c #0A061B",
".  c #0E0A1E",
"X  c #110C1F",
"o  c #0E0B21",
"O  c #120E24",
"+  c #120F28",
"@  c #141126",
"#  c #16132A",
"$  c #19162C",
"%  c #1B192E",
"&  c #1A1731",
"*  c #1D1B32",
"=  c #1F1E39",
"-  c #211E35",
";  c #221F39",
":  c #232036",
">  c #25223B",
",  c #29263E",
"<  c #2C293F",
"1  c #262541",
"2  c #292641",
"3  c #272840",
"4  c #2C2A44",
"5  c #2E2D4A",
"6  c #302D46",
"7  c #312E4A",
"8  c #2F304C",
"9  c #323047",
"0  c #34324D",
"q  c #38344F",
"w  c #393A4F",
"e  c #2F3150",
"r  c #353452",
"t  c #393653",
"y  c #373854",
"u  c #3A3A56",
"i  c #3A3759",
"p  c #373959",
"a  c #3C3C5A",
"s  c #3E3E60",
"d  c #413E5C",
"f  c #413F61",
"g  c #3E4056",
"h  c #3E415D",
"j  c #3E4162",
"k  c #41415E",
"l  c #434463",
"z  c #494767",
"x  c #454965",
"c  c #494865",
"v  c #494A65",
"b  c #46466A",
"n  c #49476B",
"m  c #464B6E",
"M  c #46496B",
"N  c #4B4A68",
"B  c #494B6B",
"V  c #494969",
"C  c #484C6A",
"Z  c #494C6C",
"A  c #4C4E6D",
"S  c #4F4E6E",
"D  c #4A4C6C",
"F  c #4E516D",
"G  c #4F516F",
"H  c #4D526F",
"J  c #50506F",
"K  c #50506E",
"L  c #4B4E71",
"P  c #4F5270",
"I  c #4E5273",
"U  c #4E5478",
"Y  c #525370",
"T  c #515272",
"R  c #525474",
"E  c #545E76",
"W  c #545975",
"Q  c #515778",
"!  c #535679",
"~  c #565878",
"^  c #575E7A",
"/  c #575C7C",
"(  c #555A7B",
")  c #595D7D",
"_  c #5A607D",
"`  c #5C627E",
"'  c #5C627B",
"]  c #60677F",
"[  c #575F84",
"{  c #5C5F80",
"}  c #595D81",
"|  c #566183",
" . c #5F6486",
".. c #5D6383",
"X. c #5B6984",
"o. c #5F6788",
"O. c #5E6689",
"+. c #5F688D",
"@. c #5E688A",
"#. c #636486",
"$. c #616286",
"%. c #626984",
"&. c #606689",
"*. c #666F8E",
"=. c #636B8C",
"-. c #67738C",
";. c #6C708A",
":. c #656E92",
">. c #696F92",
",. c #667191",
"<. c #657090",
"1. c #667192",
"2. c #697494",
"3. c #6C7696",
"4. c #6B7494",
"5. c #6E7893",
"6. c #6E779B",
"7. c #6E7A9B",
"8. c #757E96",
"9. c #70779B",
"0. c #737D9F",
"q. c #717D9C",
"w. c #787F9E",
"e. c #6F7FA0",
"r. c #737FA0",
"t. c #73809E",
"y. c #7A849E",
"u. c #7482A2",
"i. c #7786A5",
"p. c #7482A1",
"a. c #7A85A3",
"s. c #7B89A5",
"d. c #7481A9",
"f. c #7887AA",
"g. c #7E8DAB",
"h. c #7C90AC",
"j. c #7F91B0",
"k. c #808EAB",
"l. c #8490A9",
"z. c #8391AC",
"x. c #8492AB",
"c. c #8294B2",
"v. c #8796B2",
"b. c #8496B4",
"n. c #8394B1",
"m. c #8995B1",
"M. c #869CB6",
"N. c #8A9CBD",
"B. c #909EBC",
"V. c #93A1B3",
"C. c #92A6BF",
"Z. c #8FA6CE",
"A. c #90A3C2",
"S. c #95ABC5",
"D. c #99ABC1",
"F. c #90ACCE",
"G. c #9CACC8",
"H. c #95B1C9",
"J. c #9CB4CD",
"K. c #A3B9D4",
"L. c #ACBDD6",
"P. c #A1B7DF",
"I. c #ABBFD8",
"U. c #ACC2D7",
"Y. c #AEC7DF",
"T. c #AFC8E0",
"R. c #B5CCE3",
"E. c #B7D2E6",
"W. c #BDD3E5",
"Q. c #C7DEEF",
/* pixels */
"7 t d P <.u.c.b.i.<._ F t 2 > $ - # $ $ ; , v a $ # $ $ # # * 2 1 + E 4.%.l.0.*. .{ ) ( F a 0 , $ % # @ $ % % $ @ X , a 4 * $ , 0 ",
"7 t d l T / o.<.2.z.v.` t 4 # @ $ # @ # & h x r > $ $ # # # & : & . > 5 o : z N a z T A J c 0 > % @ , 5 - % % $ $ 9 N 0 2 : % 2 5 ",
"- t u N c a a 2 x L.h O * 0 $ o # * r F 4 r p 5 > & # # $ # # $ : * ^ m # O : 5 O 4 k l z l 0 : # , W l u - $ $ r N u $ - : $ , > ",
"2 t t d c a r - a p   $ $ 5 l , # * 5 a 0 & > > % # $ % % % @ : j *.0.m * @ * 4 O > > 7 a r 2 * O a A p 2 % @ * r > > * * * $ > - ",
"7 0 q t u a 5 & C : # % $ 0 #.T & $ @ > 2 5 , $ @ # $ $ $ $ $ * & 1 +.! = & Z 9 O : > 4 5 , ; * @ * y 2 $ $ $ * 2 : * $ # # # 2 4 ",
"2 6 7 0 q 5 : # x l o % $ 0 ! l & : O $ $ 5 r # O > > * % * $ > O = :.:.d.[ ..a o $ ; 2 , > 2 * # @ # * * $ $ # @ o @ * > # O - > ",
", 4 2 4 - $ > 8 U w.0 $ - a D N r * # @ # 2 2 * : * 4 2 > * # p l ..2.j I ! W T > # * > > > : * $ $ # # @ # $ O $ W 8.V.y.~ r * * ",
"> 2 > * 9 *.X.l j ..=.W l 9 a ! l 1 $ # $ 2 p & 0 - 4 : ; @ , y o.6.Z @ @ a A z l * # : > ; * & $ % % @ O @ # w %.g.s.x.8.( k 0 * ",
"$ ; * 2  .0 o O # 9 l l ; O @ L L 1 * $ = > 0 @ % r 4 $ # # y r j U 2 @ # * > % @ # $ * * & $ # $ O O o > v $ ' 4.<.u.a.a.a ; r 5 ",
"O # $ > &   # # @ O @ # O $ @ b ! r : & > 2 k @ @ # ; * # # > C y 1 * $ # $ @ $ $ @ @ # $ $ # $ - x 0 q ` 5., : L ! ..W W u . $ ; ",
"- @ $ > > # $ $ * $ @ $ $ # # 5 5 # O : , 1 k 1 @ % * , $ - ; # * * # # $ $ # , ; $ , $ @ @ # @ O x } W ) F 2 $ a C ( Q b l , O - ",
"7 $ # & ; * * * $ # # $ $ $ # O O # @ * 4 5 z N @ * * 5 $ 2 p 2 @ @ # # $ $ % 9 - 0 2 $ O # * : 2 r 1 3 y d p u u l a 2 4 a l u u ",
"l # # # # , * O @ @ # # # # $ $ % # % u 1 : p k # @ , y # 2 l p @ # # # # O , 5 4 1 # @ @ * l k a 5 # . 2 r 0 r u 0 @ . X : L A ) ",
"5 # # # # - r * # # # $ $ $ % $ # 2 r ; > 4 5 , @ @ r 4 # 5 ! N * O @ # * 0 h > * # # $ # 1 r 0 u > $ * 5 0 7 7 0 7 * @ $ O m ( N ",
"4 @ & $ $ O > 2 $ * # # $ $ # - , 7 7 4 > 4 a k @ # u * $ * 1 s a 4 5 0 r y , $ $ # # # # - 5 5 4 & & t r 7 r 4 > > * $ O * ! / P ",
"p # # $ * * 2 9 1 > > @ # @ * u 7 4 2 7 0 4 a > @ r p & @ r b l u l d r 2 * $ # O # # # # @ $ : * # > 0 0 ; 5 > 4 0 l 4 $ a L I L ",
"0 $ $ # # , 2 : , & 5 2 % - t 0 7 t 0 7 u 5 $ @ $ 4 0 ; # 0 P a r r , & & & # O # @ O O * > $ # * > 4 7 0 0 - $ 7 z k * y a r u a ",
"$ $ $ # # # # # @ O $ 5 7 r 7 , 7 7 7 4 4 - # $ $ @ > 2 $ * > ; * $ # $ $ # @ # # , a a 0 , $ * , , 2 4 0 6 % $ $ > : ; t a * @ $ ",
"* * * $ O @ * * * * * $ $ * - ; 2 2 - ; 2 5 * # $ $ % 1 * # $ % $ $ % # @ @ # # * D l a : # @ * ; 2 t y 5 2 2 - # * * 2 t u * # $ ",
"$ $ O # h ^ N d t 7 4 7 ; $ $ # # # $ 5 u r 4 # $ % % u , # $ $ $ $ # $ # # $ $ 7 p 7 r 2 # @ % - > 7 0 > 2 6 > @ * * > r t 7 > % ",
"$ O * 3.B.9.#.R k d 2 > 7 4 > - # # 4 7 0 4 > - $ # 0 W > $ $ # $ % - * $ $ $ % 7 u p u : @ # $ * > , 4 4 7 4 , $ # > : 4 0 u 2 $ ",
"$ > g.R.I.n.g.=.N , $ O 5 r , , - $ * > , * @ 2 r ; Z 2 $ * - * $ $ $ # $ * * $ $ 4 0 5 : # $ # & > 2 7 0 0 5 > $ $ , > > 7 t 2 : ",
"* ..A.s.W P Z j .   O % 7 4 2 > * $ # # @ @ @ $ 4 r 5 @ $ * $ $ : 0 x Q / ^ C k 4 - * > > $ # @ # * > 2 4 6 > $ # # - * * , 5 4 2 ",
"4 =.6...=.! j * u 5 $ c r 4 , > * # % % @ $ * $ 0 r & $ % @ 0 W C &.a.i.7...N u t 9 - # $ $ $ @ @ $ * * & $ $ # # # # @ @ $ - - - ",
"u &. .4.9.Z 5 * a.$.u u 5 4 , > : $ @ $ $ % - % D r * * $ u 4.) %.l.g.u.&.T l u 0 4 , $ # $ $ # @ @ $ $ # # * * > # # # @ @ @ @ @ ",
"l (  .} ! 5 .   Z } f t 5 2 > > > * % % $ % $ a N ; ; % % o.l t A D.s.o.T l u r 7 6 , * $ $ $ $ # @ @ # $ $ # % > - $ @ # # @ @ # ",
"a l / T D ; . 9 =...N r 4 , > : - - - $ $ $ 4 ! - % $ $ > W l T N *.4.N c k u t q 0 4 - % $ - - % # # # # $ # * 5 # > - # @ # @ * ",
"r l D P L # . l } ! T f 0 > * # O # $ # $ @ a a # # * % , b z ) ) g...a a u 0 0 0 6 4 > * % - : - $ $ # * # @ - 2 : @ > & # # @ - ",
"5 u l ..>.p r ( n D D 0 ; * $ O @ # $ $ @ . r r # # * $ a ..W ) 4.j.Z u u * - < 4 < , > * $ * - - - $ $ $ # O & > , % @ , > - @ * ",
"2 0 a n N l a f a i & o @ $ & @ @ # # * *   5 r $ @ @ 2 I Z ~ I g.=.F W l % @ , > - * * % % % - - : * * $ $ # # * > $ $ , ; & @ # ",
"; 4 5 7 u t u i a 2 O # $ * > & @ # $ > k : = r > - # 5 a O @ 7 7 $ $ : f 0 O * - : - % % $ % - - - - - % $ $ # $ # O # * - * # @ ",
"* > 2 4 2 0 t a l 5 + # # ; 4 5 r * * 1 0 * : p 4 a 1 @ 2 * . 9 r O % @ 5 b $ # * - * $ % $ % $ % * $ $ # $ $ $ # @ # # @ : * $ # ",
"$ ; 1 2 , 4 0 u l f : $ $ - 4 u a @ * ; @ @ 2 r * 1 * @ $ , # ] 5.# % % r A . @ O O @ $ $ % # $ * % $ % $ @ @ @ # : > * * * * $ @ ",
"$ & > > : 2 7 u l D 7 4 4 2 : r 7 o # @ O @ 2 1 $ # $ $ # 4 ; 1 ..l * 2 ( ! , * > u $ # $ % % $ : l H P C a 2 $ # ; ; * $ $ $ $ # ",
"# $ $ $ O $ 2 0 a L r > > @ * 7 7 1 * O O O * u * # @ # * p 1 * , ! N P ! ..&.b 5.Z * O @ $ $ > ( 2.u.t.4...x 5 * # $ $ @ # & $ $ ",
"# # # # 9 5 % 2 > l 5 * O , r 2 7 1 $ @ @ # O , 2 # $ $ * 2 5 1 # y D l l D L m a 5 # * 5 - @ ~ } 0.C.J.S.v.x r 5 * # $ % # # $ $ ",
"@ # $ * *.z # & p / p ; O 2 5 > ; * @ # @ # $ 5 0 - # $ : ; * 1 p a b l $ @ 4 y 9 % * 4 u - x =./ r.S.R.E.H.X.A r , & $ * % # # @ ",
", 2 > , h 5 > r h & . # $ # & & * & # O @ # > u r 5 $ $ > & $ > l j j b - $ o $ @ # 2 h y k l u ! r.K.R.R.S.j.W u 7 : # $ $ $ $ * ",
"5 > * * > * - ; 8 0 : $ # $ % # # # @ # # $ $ ; > * # @ @ * # , y 8 5 a 5 ; @ @ * & ; 5 r 2 * @ r Q v.T.R.c.0.W d 0 , $ # # - t t ",
"2 > - % # # * : 7 l ( j # @ # # o   . @ @ @ @ $ # # $ $ @ $ # , x u 5 0 * @ O , 0 r u l > > $ # y $ o &.N.&.N N k 0 , % # $ a 0 2 ",
"> : - - * - $ * 2 > % r 9 % # o $ k ' Z u 0 , : , 2 * $ * # # # * * * @ O O - y a x y a h u . a C # @ > &.5 - t a 7 > % # * r 2 2 ",
"; : * : - * @ - , 2 > $ , 4 4 g %.g.r.o./ A a 7 > $ # # $ @ # $ # O @ @ $ * 5 5 z z d 5 8.y.& 9 ( $ O * m $ - 0 0 5 > $ O * 4 : - ",
"* * 7 2 $ > * # * ; > * - w *.f.c.3.| =...D d q 6 - $ # @ 4 7 4 > - - # - 5 l z p l a 2 U I * * / x : W o.2 $ 7 7 2 : $ # $ - & * ",
"$ % , $ - > , * > > , > , ..=.+.u.0.=...^ c u y 0 4 > : * 9 4 4 2 4 : @ 7 a l l 0 u 5 $ & 2 : $ W 4.W q.&.0 . - 5 2 * # # : ; * % ",
"$ % # $ ; - , 7 - * : - > I l ) :.4. .Q x a u t t 4 > > * > > , 2 2 * & u r r k t : $ % $ a p 9 / W I o.} x * # - : $ @ # > : * % ",
"9 : @ @ $ - > $ O $ % # 2 T b l A Q b l k a q 0 6 , > * $ * , 4 , ; # % u r 4 q : @ % @ 0 P L W D r : k ! C < @ # # @ @ # % * u k ",
"4 - $ @ % , $ @ # $ $ # C b h 4.a m / O.o.z q : > , : - % $ * > ; * $ @ * * $ # @ $ # , j l j a r > %   > - # * - @ @ # @ : x ( a ",
"2 > $ O a q < < $ # # % 5 # . q f I l 0 z l 2 @ * , > : * & $ $ , > * $ @ # * * * # @ , p e r 5 > & # O > * * : - @ $ # & 2 a A 4 ",
"> - $ $ q a 0 6 $ # $ # * # O , y r # . O 5 : @ % > : * # O # # * $ # # $ # O @ @ * > @ # 0 5 , 2 @ # @ 4 ; * - $ # $ @ : 4 ; > > ",
"% * : - > 4 ; % $ # $ O 7 4 * a p u $ # @ > 0 @ % - > O y ;.t 4 * # @ $ O @ r q 0 l 2 @ @ O . o O % * $ 4 * * & u * @ $ 2 , - * % ",
", < < - % * $ $ # # @ 2 a p a > , a & # # : z # % : * # * ~ l d u 6 $ O , T z 5 5 1 # O O * 5 u D 0 $ 1 2 * * $ > 2 @ * 2 , , : > ",
"9 0 0 4 * $ % # # # # > r 4 r % $ l 7 O o y D # @ $ $ # # 1 4 0 7 4 % 5 / a * # # ; - @ 2 z A l a * $ 4 ; ; * # $ 2 * $ > , 2 6 0 ",
"0 0 % , < * * $ # $ $ # @ > 0 > - j b u k ( z l r & # # # > 2 4 4 > * A r * % # > 0 0 - l l r l r - * ; - * $ $ # > , # : , 4 0 7 ",
"0 0 6 6 6 , * $ # # $ # O y 2 a N l b y 9 r a l a : @ @ & > > > * $ r y $ * # # , r 4 2 l 7 5 4 4 : # # $ $ $ $ @ , > @ * , > 0 0 ",
"0 0 0 9 4 , * # # # # @ 4 9 - a r p l 2 o & - * $ @ O O > > ; $ , 5 D - * , - # & t 4 5 p 5 2 * $ # # # $ % $ 2 , , $ $ $ > > 4 7 ",
"0 6 q 4 4 > % # # # # & l a - r 5 0 5 , * O O O O + O # > 2 , 5 J 2 2 # > 0 ; % @ - * * * # # # # $ * $ * * $ : , > @ # # $ - 2 9 ",
"0 t 5 5 , * $ @ # $ $ 1 l 2 : r 0 r 5 , : # # # @ # # $ : > , r 0 * : > 4 0 * $ $ O # % $ & # @ # $ $ - 0 : $ $ # 2 > @ @ # % : 5 ",
"k 5 & : & $ # # $ # , h l . # $ * $ $ # # # $ $ # $ # # * * $ > - > 0 4 5 7 * $ # # # $ $ # # % $ $ $ * ; $ $ % % % 4 2 @ @ # > 0 ",
"* # @ # # @ # $ $ $ : h l @ $ $ $ $ $ # # $ $ $ $ % $ @ * > , , * > > - 4 2 - % $ $ # @ @ @ % * - * - * % % % % % * $ 7 5 @ r u , ",
"$ # # $ % @ @ $ $ # > j z - @ $ # # # # * * * $ $ $ @ # u r , - * > a u 9 * $ $ $ $ $ $ % % % % % * - - * % % - > * $ % i 7 p * % ",
"- - $ @ @ # $ % $ @ , r a a > 2 , : , - * * $ @ # # 4 d 7 # $ , 7 : * : O . $ $ # # # $ $ $ % 2 : % * * , * % % % # # @ 0 2 ; * * ",
"% $ - , 4 7 t 0 2 > $ : r k r 0 5 2 ; % $ # @ # # # 2 0 * # * > 7 > $   4 -.5...C 0 : % # $ $ & * $ $ $ % * * # # $ # h r & * * - ",
": u c z A R T a u r > & 5 2 : > * $ # # @ O $ * : - * $ O $ * * > > O m P.Y.U.C.s.o.P r , & # @ # $ % $ # $ % $ $ $ - ) 4 $ $ * % ",
"x k N } *.0.7.2...l t > $ $ $ $ # @ @ # $ $ % $ * - - - $ # * $ # @ 0 Z.F.W.Q.S.k.2.<.( u 9 * @ # $ % % * $ $ $ $ % $ ( p $ % % : ",
"0 0 l ) 2.h.M.c.t.%.c 0 > $ # $ # # # $ , : * $ $ $ $ * - @ $ 4 9 * s.e.m.G.S.g.0.4.P ! a t 9 % # % % * * % $ $ $ $ * P 2 % % % t "
};
