/* XPM */
static char *_92b3df98adb4efc99b102b45ea063058NZfu7wSfyFjx5Ig[] = {
/* columns rows colors chars-per-pixel */
"64 64 139 2 ",
"   c #1D032C",
".  c #1D0030",
"X  c #20042F",
"o  c #21082F",
"O  c #230434",
"+  c #250935",
"@  c #280A37",
"#  c #260639",
"$  c #2A063C",
"%  c #260939",
"&  c #2B0B3C",
"*  c #2D113D",
"=  c #30103F",
"-  c #2E0742",
";  c #2E0B42",
":  c #310744",
">  c #310C45",
",  c #350D4B",
"<  c #390E4E",
"1  c #2E1141",
"2  c #331245",
"3  c #381347",
"4  c #36124A",
"5  c #39124D",
"6  c #351848",
"7  c #3C1A4D",
"8  c #370D51",
"9  c #3B0E53",
"0  c #3F0F59",
"q  c #3D1353",
"w  c #3E1952",
"e  c #3E1258",
"r  c #411556",
"t  c #411A56",
"y  c #42145C",
"u  c #45165C",
"i  c #44175C",
"p  c #45155F",
"a  c #44165F",
"s  c #46175F",
"d  c #43145B",
"f  c #48165F",
"g  c #421858",
"h  c #431959",
"j  c #421A58",
"k  c #41185A",
"l  c #42185A",
"z  c #42195B",
"x  c #43195B",
"c  c #431B5A",
"v  c #45185B",
"b  c #431C5B",
"n  c #441C58",
"m  c #451D59",
"M  c #441C5A",
"N  c #451D5B",
"B  c #461C5B",
"V  c #45185D",
"C  c #46195C",
"Z  c #46195E",
"A  c #471A5F",
"S  c #461C5C",
"D  c #441A5B",
"F  c #48195F",
"G  c #481B5E",
"H  c #481B5E",
"J  c #422253",
"K  c #43205A",
"L  c #48205F",
"P  c #461360",
"I  c #461660",
"U  c #471761",
"Y  c #461264",
"T  c #461561",
"R  c #481361",
"E  c #481560",
"W  c #4A1367",
"Q  c #491466",
"!  c #4B1467",
"~  c #491663",
"^  c #461860",
"/  c #471960",
"(  c #481961",
")  c #481862",
"_  c #4C1A63",
"`  c #491C61",
"'  c #4A1D60",
"]  c #4B1E61",
"[  c #4B1E63",
"{  c #4B1867",
"}  c #4A1A66",
"|  c #4C1964",
" . c #4A1C64",
".. c #4E1F65",
"X. c #4D1D67",
"o. c #4D1E66",
"O. c #4C1E67",
"+. c #4E1F67",
"@. c #4A1B63",
"#. c #4B1168",
"$. c #4A1668",
"%. c #4C1569",
"&. c #4F156A",
"*. c #4E176A",
"=. c #4D156A",
"-. c #4E1969",
";. c #4F1A68",
":. c #4E196B",
">. c #4E1B6A",
",. c #4E1B69",
"<. c #511E69",
"1. c #501D6A",
"2. c #521D6B",
"3. c #511E6B",
"4. c #50196C",
"5. c #511A6D",
"6. c #511C6C",
"7. c #511E6D",
"8. c #521F6C",
"9. c #521D6F",
"0. c #521F6E",
"q. c #511C6C",
"w. c #531C71",
"e. c #4C2262",
"r. c #4D2363",
"t. c #4E2166",
"y. c #4D2264",
"u. c #4E2168",
"i. c #502167",
"p. c #522069",
"a. c #52236B",
"s. c #54216C",
"d. c #52246C",
"f. c #53246C",
"g. c #52246D",
"h. c #55266E",
"j. c #53226B",
"k. c #562271",
"l. c #592672",
/* pixels */
"- ; - ; + @   7 q @.[ q - $ > $ ; > D y :.W #.4.0 q , / Y $.+.q : , e r u < 5 ; ; ; q , 8 q > w e e 9 e r 9 5 % + + > : ; % % % ",
"g b q 5 % * + t j O.t.j w B B 4 5 , e.O.0.$.$.0.e e 9 [ } 0.h.d 5 w D D [ r 7 > 4 5 j r q r , r e U ~ i i j t & % % 3 > 4 4 2 2 ",
"} d.d j # + & 3 < D e 9 O.s.d.r t $ 4 q 3.Q Q 0.9 8 9 i p p r q 9 d 9 9 j - > > 5 q i i 8 , > w r :.$.R D 5 & O X O & ; w w 5 > ",
"O.d.i B 4 2 3 7 5 B j e { 3.3.d 7 O 2 5 a.:.0.d.w w e d u u v r d O._ r A g w 4 5 < v D q 8 , j U 0.4.:.[ B w w 7 2 2 $ t t 7 2 ",
"> , - 5 4 > 4 4 % ; 4 q d G [ , 3 O $ > j y 9 q > 5 , , 5 , : w i 3.3.~ e j j , , , > q e e , , 8 U P r 9 D G [ r.5 4 & & O X   ",
"; 4 5 g j q , , % & > w r H B 4 3 > 3 w j d , 5 5 w 4 , 4 g w r i a.3.U D D j > , 4 w w q q < w e A i @.A A D [ [ q w 4 2 O o   ",
"$ , < r r d , 5 $ ; > 4 4 ; & # ; ; q 5 r w 5 > , 4 ; ; : w q < < r r < < > q , , 5 q , q q , q $ g w j A 4 , , 8 8 q , > # +   ",
", g G @.U @.d r , 4 4 , , 4 4 # ; & 5 q w q , > , 5 ; > > w q q 5 w v v B > 5 q [ A e q w w , q & 4 w w w > ; 4 w , u A B 4 7 6 ",
", d i i U [ r r > , , , , , w ; > ; 4 > , , > > > 5 > > & 5 q q , < r w w # & ; D d d g > 5 e r > & % # % & > > q q d u w : 4 > ",
"y a e i r a.a.u.w q e A [ t.r.w 5 ; 4 ; , , - > > 5 & & % 7 , d v H D 5 7 % & - a y r w > w D D w 5 % % & 4 > > q q q w q > 5 , ",
"9 e d D q t.3.} q 8 e U ~ @.O., 5 2 5 4 > , w w 4 3 O & > B r ~ ~ i a B J O 4 q @./ 5 > # 4 w y r j > 4 5 5 5 5 d r w w w < r 8 ",
"9 D q , - [ ~ P y 9 0 } P i ` , 5 $ ; : ; 5 u.a., 3 O 2 4 A G s.l.i D > % O n B / [ q ; % 5 e i U G w A D d r d G , 5 > > , G r ",
"r / , 4 e O.~ U ~ Q :.{ } [ r.w w : 4 5 5 j { :.i j > n r e.[ h.d.a [ 4 5 5 r.b [ r.g 4 & 7 D @.~ { y @.Q :.:.~ O.d j , , , A d ",
"y [ - g [ } ~ ~ Q $.6.P @.q q $ 4 3 g q 5 v { { i A , H [ D , r 8 , j [ A g n > 4 , < 5 - 4 8 { $.:.P ~ { 0.w.:.Q @.t.w w , 8 , ",
"r [ w L U U Q 4.4.:.:.[ A > 3 > 3 ; w < q r O.O.D A e H @.j > w w 5 j d y j w $ , , r d r v y O.{ O./ [ e.a.s.:.} Q } e w > j d ",
"e q w d e U Q w.w.:.} e - > > > ; - w q 5 , q , , q 9 D a w # # ; > w j v , 4 $ 4 , d e e y y y y r q < > , e @.y r r w w > @.y ",
"w j e r r } @.s.0.{ [ w 4 > w w w j A w q 5 q q q r 8 i d w & & & 2 5 n n 4 2 @ 2 4 d r ~ ~ p U y d , w q 5 r A A j A g q , j.:.",
", w e d e y , i y r w > & ; w e q e w - - ; > > > w q a j q & % % % # # % % % % > 4 j d U p i @.8 w , , < < q > , ; , , > < l.:.",
"2 4 5 v e e e D w q g 3 % & w e U [ j > , 4 w w q j q d g 7 % % % % & % 2 & 2 2 4 > 5 v i U i r 8 e e @.@.} r.5 4 & w w v D t.@.",
"% & - w d y e e > ; > & O   3 w [ O.j - ; , w q , , > q w 4 # % % & ; # > > , > 2 & # 5 A y 9 e w e d @.@.[ r.5 > $ w < i d r 5 ",
"; 4 > A [ } { [ r 5 : ; & O 2 4 w w 5 - , , 5 q , 5 > 3 2 & % 2 2 & & $ 5 w q > , 5 4 4 5 w 8 q 5 w > v q d r 5 5 4 w , 8 w 7 & ",
", w r O.} P P } i j 5 ; ; & 2 % > > , , 4 4 5 q q q > 4 % & & 2 3 > 2 4 r q r q 4 4 > > , q q q > , ; w , q q 5 q , r v e g 4 + ",
"@.+.0.w.P P Y :.6.@.A ; : 3 3 $ 4 , r j 3 > j q e j - ; 2 2 + % 2 4 w B r e [ O.B ; > 5 j r d u , 4 q j e d r d d w +.{ @.[ g > ",
"y Q 4.4.~ } :.:.:.U j q 5 5 5 ; 5 5 w w ; & A r 9 e > ; > 2 % # > 5 d r r d { O.w & 4 w r r y @.u w q v w D a e e 9 } { @.@.A q ",
"y y P R y r 0 y y e e q q 5 w $ $ & 5 5 & & [ ~ e q - > > > & # > g u d D , q q , ; & > q d i { :.{ r q , , q w q 9 e r d r / y ",
"e i U @.i D 9 p y r d w q w w > > > w 7 2 4 [ { / [ < j g 5 ; 3 w g i i D , w q 5 > % 2 w v @.3.{ { 9 r w 5 w w r g j j g j [ y ",
"e D 9 q > r 0 P y r d 5 ; ; ; ; ; ; ; > & > e y i @.< r j w ; > 5 g d e r , < > & + + + # 4 , D @./ q 5 ; 5 , , q > 4 # # $ g , ",
"e j w w > j 9 :.:.y d , , 4 w w j A j w 2 4 j U U } G D d w ; > 5 g j q @.[ A w 2 + % & % 2 4 B A A w 5 5 r.L 5 w 4 1 + 4 3 w 5 ",
"d A , 5 - g e O.{ ~ i , , 8 r e / D j g 2 > d y U y i D < 5 ; 1 % % 5 q / @.@., 2 + & & ; 3 $ > ; ; $ > 5 e.e.q w # O O 7 4 , , ",
"q B , w w B q O.~ 3.O.O.t.O.O.e / d j 5 & > j r U @.i d q w & & % & 2 5 [ @.i w 4 # & 4 w n 5 4 & ; & ; > B A 5 5 ; & O 5 5 e.D ",
"$ , , 5 q w - B u O.} U @.O.a.d r > , ; & 5 D r i @., w j w $ & % % & $ w e 9 d 5 % # 2 g w , 4 ; 2 % % & > 5 w t > 4 ; 5 < @.e ",
"5 5 , w w g $ > w t.U P } i r q 5 , g w w w e d e q , w 4 t 4 2 7 2 3 4 w 9 ~ @.g ; & > q 5 > 4 & ; % & & 2 2 4 n B B A v r @.r ",
"q w , g g B > & : e.i y [ q , , q e d e q q w j < , , q ; w 5 , 4 > 5 w i p } ~ v 4 ; ; ; ; > 4 2 * % * * O + & w r i i ~ ~ U 0 ",
"w A 5 , , 5 4 4 > w y y D > > > A D U } y w q > > , > , > n g 5 > > r t.@.p { @.G g 4 & ; > > 2 O * % & * + % 2 5 q +.:.k.0.{ 0 ",
"d A , , 5 q q r 5 q q d B , 4 > A d U U i w w , ; > , 5 5 B g t 5 , i @.~ f O.u.D q w , , 5 7 7 % 7 3 3 3 2 > 3 w 8 } Q 0.0.3.i ",
"8 r > 4 < e r r 5 4 q 9 w > , $ g w i i r 8 , q : ; - q , , 5 : : , a [ [ r r 8 r 9 9 < , 5 $ : : 5 > > 4 > > , q 8 @.U P } i < ",
"w B q [ +.3.~ H q q j t.a.[ A : w g [ / +.} i D q 5 5 v r w 5 4 4 4 g r.L r g 5 [ i i j 4 t w B H t.[ u g , > 4 w 8 / y Q O.A 5 ",
"$ , , O.s.3.{ D $ ; q a.+.@.r.> ; - q e a.{ i D q , , r r w & > 2 & % & > > > > [ r e A $ 3 q e.[ } u.@.q 4 & % 5 q / i U d q $ ",
", r D u.O.a.@.G 5 , q a.3.@.a.D [ [ D 8 [ O.v g 5 q 5 w g t > 2 2 & * * 2 > B A i r v j w w 5 j A t.O.[ B 5 & % 5 q i @.[ r H w ",
"> w u i < d r r , > , H i 0 r r U / D , , w , > > q q , 7 4 O & & % % X @ # j q d D r > , 4 ; & - q 8 d A > O O 5 q e d r : j q ",
"> q d v < r r r q w j j d e / y U U d < w w 5 , > 4 5 5 3 2 * % & 3 5 7 7 $ j e D r 5 5 3 3 > 2 > w 9 d j 4 & & w w y d 7 & w 4 ",
"$ 4 w d > 5 , w 5 5 q , 8 q i p U U d w 4 : 5 , > ; ; 3 # & & % : 4 q q w > D d w , > , & & O & > w 9 D A w > > w w w 5 5 & 2 $ ",
"- > 5 r w r , 4 5 j d e i [ } y @.r w , ; > w q , > ; > 2 > 4 > 5 r @._ [ e d w w > < 4 ; ; O 2 5 5 , e r [ G e e 8 w , v v 5 - ",
"- 4 > 5 < w > , , v D d / i P U / q w 2 ; ; q q w q q w w 5 q , q r G O.t.e e e w 4 q q > 2 & 3 4 5 q w u r r U y e g , u d A q ",
", , > 5 q w $ > > , q / y P P ~ [ , 2   O & 5 w @.i U +.O.@.e w , , , , D i r 8 e q 8 w 4 4 ; & ; ; : > q D U } t., > > [ i +.} ",
"5 q > q g B 7 7 , 5 w ` @.} { @.[ q 2   * 2 5 j U Q $.4.4.3.@.w 5 4 2 $ j @.~ ~ i e 9 e , 4 ; 2 4 5 7 5 w D Q +.r.; ; , A @.+.{ ",
", w > > $ w r r , , ; , q q e e e q 2 O 2 ; - w r :.$.w.w.4.:.d w ; & ; D @.Q :.} i r e , > $ 3 5 u d r e / / e w & & & 5 , , , ",
"D e.w w $ n G @.r 5 > 5 w e e q e 4 n 7 4 ; , j { :.W w.w.4.:.D w & 2 w O.y :.+.~ r { O.r g ; B v D @.y q D D r w 2 2 % 4 > w q ",
"U O.e w $ B @./ w 5 , q e e 8 5 q , w w 4 > , j } P W :.4.{ y q > $ 5 w @.@.@.9 y p Q } e w - B G y @.r 8 A A > ; O & % > > j q ",
"~ +.O.e.- B @.r e A H O.3.j.t.8 q 5 e w 5 2 , w [ } ~ :.3.} d q 5 g B e / @.A q D / 0.0.O.t., B D @./ d e A L > ; ; ; % 2 > w q ",
"8 i @.[ - t q r r i f { 4.4.3.r 9 8 e r 3 & 7 w j d r e r r 8 , q r e r d w w # , e s.$.Q u., r d r 9 q 9 q r , > ; ; & 4 4 w < ",
"8 u ~ } > 5 w q r i d ~ 4.4.3.~ / e d r 2 # = 4 5 g w [ i @./ / @.i @.r j 5 > & q e 6.{ ~ t.> w q d 9 i d 9 w w v A B K n > w 4 ",
"9 i ~ / , 4 - > , j r 9 { 6.+.p U y r 5 2     + % 3 > [ ~ P y y y y @.e r > > , w 8 p p i H $ 3 < i y U r e e 9 i i r e 5 & 4 > ",
"a.k.+.u., 4 ; > 4 5 5 8 i } ~ R Q @.G g 3 & + + O 4 5 t.3.:.U y i y D , g w B j w , e r e g O w [ a.0.+.@.r 9 8 @.:.:.r 5 # 4 ; ",
"4.w.Q [ , 5 5 q w q , , d / Q $.{ @.[ g 3 & 2 2 & 5 , O.3.4.} U / q w - 5 q j g B w w w > w > A ~ 4.4.6.O.@.d 8 @.3.3.i j > 7 3 ",
"&.=.Y [ 8 q q d d w 5 > w / :.:.3.r d > ; > w 3 4 4 > D ~ ~ 9 e w q w ; : > > 4 4 ; > , , w r O.{ $.$.~ y [ e.8 r r ~ i v 4 2 # ",
":.:.} +., w e r w w q < j [ +.a.O.9 d < , 5 4 4 4 4 , v D H w n B w w , 5 5 , ; 5 4 r d e w r O.:.4.{ U r [ L , q d ~ i g > 2 + ",
"P P P Q , j e q d q > , q e d 8 r e e 8 5 , > 5 > > > q w q O $ > 4 : , q q w - 4 q [ D e r , G ~ U r e 9 j j > , > @.D j > *   ",
"0 Q 4.s.e j q e j w 5 j w e r q v r O.O.w 5 7 7 > 4 , H [ [ 5 3 > 4 4 > w d j , q e i i e q > g [ D e e , g A j w w @.G j > 7 2 ",
"0 { 0.s., g w e w , - g q , w - q 8 3.O.w 2 # @ ; 4 , e.[ D < 5 $ - , > w e d 8 q e i D q , , > > j d w > > 9 r 9 e 9 q w > , , ",
"r i { a.> t r G D j 5 w w 5 w & 5 8 { O.w * % 2 w w , B A t.d [ ` w q > j r { O.A w j g , v a.t., w r g 5 , i j.i.e r w e.y D y ",
"y i d L $ 3 , G i d , > q 4 5 $ w e ~ U 4 O # 3 5 q , , ; B d r @.e , > a i Q } j ; ; ; > [ a.t., , , w q , @.a.a.8 q > G d y d ",
"d D w 5 # w v s.s.3.e.5 w w w > e.+.} i n 4 2 7 q w j b & n r D i e w , q w +.+.j > ; 4 e.O.@.v , 5 > 4 q A / } +.@.[ D @.d j q ",
", q $ & O 7 9 3.6.~ v > , q 5 - [ i U / q ; ; , q q q q . 4 , d e 9 q , ; - } } r > & 3 i r 8 q > > O # > j 9 9 r y r 0 r < , $ "
};
