/* XPM */
static char *_8d67c8d5b1641e2d6a9de92f0582127IVnf8AW1B6U0xp07[] = {
/* columns rows colors chars-per-pixel */
"64 64 148 2 ",
"   c #8E7247",
".  c #8E7349",
"X  c #93764B",
"o  c #96794E",
"O  c #997B4F",
"+  c #967B51",
"@  c #9C7E52",
"#  c #9E8154",
"$  c #9E8459",
"%  c #A28356",
"&  c #A48659",
"*  c #A6895B",
"=  c #AA8B5E",
"-  c #A98A5D",
";  c #AA8C5D",
":  c #AB8C5D",
">  c #AA8D5D",
",  c #A98C5F",
"<  c #AA8C5E",
"1  c #AB8C5E",
"2  c #AB8D5E",
"3  c #AB8C5F",
"4  c #AB8D5F",
"5  c #AA8D5F",
"6  c #AB8E5F",
"7  c #AB8F5F",
"8  c #AC8C5F",
"9  c #AC8D5F",
"0  c #AD8D5F",
"q  c #AC8E5F",
"w  c #AD8E5F",
"e  c #AA8C5D",
"r  c #AE905F",
"t  c #B0905F",
"y  c #A68D61",
"u  c #A78D63",
"i  c #A68D62",
"p  c #AA8E62",
"a  c #AC8D60",
"s  c #AC8E60",
"d  c #AD8E60",
"f  c #AC8F60",
"g  c #AD8F60",
"h  c #AD8E61",
"j  c #AD8F61",
"k  c #AE8E60",
"l  c #AE8F61",
"z  c #AF8F61",
"x  c #AD8F62",
"c  c #AC8F62",
"v  c #AE8F62",
"b  c #AC8F61",
"n  c #AD9060",
"m  c #AD9061",
"M  c #AE9061",
"N  c #AE9161",
"B  c #AF9261",
"V  c #AD9062",
"C  c #AD9162",
"Z  c #AE9062",
"A  c #AF9062",
"S  c #AF9162",
"D  c #AF9163",
"F  c #AE9262",
"G  c #AB9266",
"H  c #AE9164",
"J  c #AF9164",
"K  c #AC9364",
"L  c #AE9162",
"P  c #AC9468",
"I  c #AE9569",
"U  c #AE996E",
"Y  c #B09262",
"T  c #B09263",
"R  c #B19363",
"E  c #B09164",
"W  c #B09264",
"Q  c #B19264",
"!  c #B19364",
"~  c #B09265",
"^  c #B09365",
"/  c #B19365",
"(  c #B29364",
")  c #B29465",
"_  c #B29467",
"`  c #B59766",
"'  c #B29464",
"]  c #B59867",
"[  c #B69867",
"{  c #B09569",
"}  c #B39669",
"|  c #B59B6D",
" . c #B59B6E",
".. c #B4996A",
"X. c #B99B6B",
"o. c #B59D70",
"O. c #B69E71",
"+. c #B59E72",
"@. c #B59E72",
"#. c #B89F73",
"$. c #BEA06D",
"%. c #BCA06C",
"&. c #B6A074",
"*. c #B9A272",
"=. c #B9A377",
"-. c #BBA276",
";. c #BCA674",
":. c #BFA677",
">. c #BAA274",
",. c #BBA67A",
"<. c #BEA87B",
"1. c #BEA87C",
"2. c #BEA97D",
"3. c #BEA97E",
"4. c #C2A774",
"5. c #C0AB7A",
"6. c #C0A97C",
"7. c #C1AB7D",
"8. c #BDA982",
"9. c #BEAB83",
"0. c #C2AE85",
"q. c #C2AE82",
"w. c #C6B083",
"e. c #C5B185",
"r. c #C9B486",
"t. c #C6B389",
"y. c #C8B588",
"u. c #C9B78C",
"i. c #C9B68D",
"p. c #CBB98D",
"a. c #CDBB90",
"s. c #CCBB94",
"d. c #CDBD93",
"f. c #D0BF94",
"g. c #CFC297",
"h. c #CFC09A",
"j. c #D1C096",
"k. c #D2C196",
"l. c #D0C19B",
"z. c #D5C79E",
"x. c #D3C39B",
"c. c #D9CA9F",
"v. c #DCCDA5",
"b. c #DBCFAB",
"n. c #DED1AC",
"m. c #D7CDB1",
"M. c #E3D5AC",
"N. c #E0D6B0",
/* pixels */
"# @ @ @ % * : d d d : * * & * * % % & & - * < Z O.s.O.O % Z ! d & % % % # @ # @ O o @ @ % : < 9 ! ! Z d : : - & @ + G 1.1.$ X # ",
"# @ @ @ % & : d < : : * * * : : & % & - - * Z 1.l.0.< O O & < : % # % % % @ @ O O @ O % * * < < d Z Z d 9 < - & @ + & u $ X O % ",
"& % @ # & & < d : Z ! J Z ! ! < < & & : 9 d Z <. .% @ o @ & < < % % % % % # # # # @ G <.:.*.< & & & * < < : & * * $ # + X O % % ",
"& % % % & : < d Z ! ) J : < Z d d % % T ` $.] * % @ O @ * 9 d @ @ # # % & * * - & P z.j.y.w.Z & & % & : : * & & - - - & & % % & ",
": & & % : < d d d Z J < & * : < & % % < Z T & % & % O % : : & O @ # @ # < < : : - u 8.-.:.< & % % & & 9 d : & & % & : - & % % & ",
"* * % % : : Z Z d d Z Z : * * * & & < < * # @ & & * < : % & % # @ @ @ @ * Z Z p < & # & & O @ # % & & : : & % % % % - : * & & & ",
"& & * * < Z T Z Z Z J : * & % : 9 & * < & # & * d  .a.-.% % % % % % # % & * Z ) ! : & % @ @ @ % & & & & & % % % % & - : : & % & ",
"& & : * * T ! Z < < : * - : < : : & % * - # % & p O.u.{ & % # # # # & : * & & T ! : < & % % & & & * & % % * & & & & & & # O o @ ",
"@ & % % : Z d * & * : < ! ` * & % # @ & : % # & - { &.p % # @ @ @ % * : * < 9 ) * % : : % % & < 9 < ) X.@ & * & # @ @ & & # # O ",
"@ @ & < ! T 9 * * 9 d Z 9 & & & # % % & & % @ % % - J - # % % % % % % % & & : * % % % & - * 9 ` ) ) :.) O % % # O X + * p K - # ",
"@ @ # : T ) Z Z ) ` ` ) * # & & % % # % & & % % % # & & % % & & # # # @ @ @ & & % % % % : d ) ] ) d p O O & & @ + # & - -.*.I u ",
"@ @ @ % < Z T X.4.4...) d & % & * # @ @ & & % & % # @ % % % @ O @ u I G - & # % * & % # & : T X.X.Z : % % & % # @ & *  .1.X.G * ",
"O @ % * * 9 ] ;.7.k.;.: * & & & % # @ % : & % % % @ % & & % @ @ - &.h.d.*.{ @ @ % @ @ # < 9 ) ) Z 9 * % @ % * - & # $ G } , * $ ",
"O & & % % < d X.r.v.7.- % & & & & % % % * * & : & % % : & % & & K p.n.e...- O @ % % # @ & < 9 Z * & & % @ @ & - & & + . + # +   ",
"% : * & & * - ..e.d.#.& % % & * & % % % 9 9 * * : & % * : * : * , e.q.{ , @ O # J =.} % # % * < : 9 < # % # # & & & # O .   . O ",
"% < < : & % % p O.#.J % % % & & % # @ # Z ) * * * @ % * : < < * & - - & @ O O G e.g.d...% @ & : & X...O & # @ # & & & % # @ @ % ",
"* < d & % # @ % % & & # # % % % % # % % Z ) Z 9 * % % * < < < 9 & # @ @ O X @ O.e.l.l.-.p % % * * & % @ @ # % # @ # % * & & * * ",
"T d * % % # @ @ @ @ # % % % % % # # % & r T Z 9 9 : & 9 d 9 Z Z : * # @ + O # I 1.d.0...- % & & & * & % @ # # @ O @ % * : d ) T ",
"T Z & % % % % # @ @ # & & % @ @ @ @ % % 9 T T 9 : 9 T 9 Z Z Z Z d < & # @ # @ & I =.I - # # % & & - < * & @ + & % # & * * Z ` ) ",
"` ! ! ) d d : & % @ # & % # @ @ @ @ % % * T T T 9 * T 9 : d d Z d & % # # % # # % & @ @ # % & * < d : & * & + @ @ @ & e r ' ` ` ",
"` ! ! ] ) T < % % @ % & % % % % @ @ @ & * 9 T T T T 9 & & : d d < % @ # # % % # @ @ O @ # % * : 9 ) < & & & @ O O @ & * ' ` ..` ",
"Z * % d < < : % @ O # * * % & % % # # & & : Z T ` ` r * * * * & & & % # % % % # @ @ @ # % & & : < Z : & & & # # % : * < ) ` ..] ",
"Z & @ @ % & % # O X @ & % : < & & % % & % : T Z ` ` T T < & & & % & % % % % % % % # # # & * * < Z : % & & & % & * Z Z Z T ) ! ) ",
"d & @ @ & % % # @ O # % % * 9 * & % & : : < Z T ` ` T 9 & % % & * & # % % % % % * * % % & & 9 Z Z : % % % % & & & * 9 T Z Z d 9 ",
"d % @ & * * & % # @ # % % * : ) : * : d * & r ] ] T * # O & : * < & % % & % & & & * * & % & 9 T 9 # @ # % & & @ % T ..Z : : * d ",
"< % % * < I =. .p # @ % & : : Z 9 * d 9 * 9 * T X.T % @ @ & p < Z Z < & & & % % * d : % @ # & : * @ @ @ 9 ` X @ % ) ..Z * * % : ",
"* % % * Z 3.m.7.I - # % * < 9 d 9 * : T T T * 9 ) ! : * & & < 9 Z ` 9 : & : & & * < % @ % & & & % # @ % : < @ : : : : < & & * : ",
"& % % * B y.x.<.G & & - & : d ) T & & ' ' 9 9 * 9 9 < : < < 9 T ) ) * * & * & & & % % # % & & & & @ # % & @ : d : & & & % & & * ",
"& * * % < q.w.I & % * * & : 9 T ! * 9 ` ` 9 < * : < < < < * 9 ` ) T T < - * % & I O.*.{ & # # % % % & % & & * : * % % & & & & & ",
"% & - % % - * & & * & & % % : d 9 d ` ] T & & & * Z Z 9 < 9 < T ! Z Z : & & % p 7.j.d.,.G # @ % % % : * & & % % % # % & % % & % ",
"% % : : * % & & % & & % % % % & 9 ` X.` : % % & Z X.*.] Z 9 * : ) T 9 & & % % K e.N.s.+.i @ @ % & * * & % % % % % : ) ) * O % % ",
"% & : < < < < % # & & % # @ & : T X.` T 9 # % Z *.7.a.e.*.Z : & T ) 9 * & % % % } y.=.i @ @ # & : * * & & % % # & O.f.k.e.{ % # ",
"% * 9 9 d < % @ & : * % @ @ < ..[ [ ' 9 * % - X.7.j.z.d.u.&.< * 9 T 9 < & * & % % & - # @ # # & * * * & % # # # - q.n.v.a.-.* % ",
"& 9 d 9 * * % * * : < : % % < ` [ ` ` e & % J 7.p.l.d.q.q.-.p & < 9 T Z * * * & % @ O @ % % % & * & & % % # # # * 1.d.y.7.} * % ",
"% < Z T d * & & & < d : & * : ) ` ' ' r & % ) ,.p.d.e.1.7.O.- # : T Z T 9 * * * % # @ @ # & : * & & & % % % % % % I &.O.I < * & ",
"% * d : d < % @ & - - % & * * Z ` ' ' T & # * O.1.q.1.1.1.P # # : Z 9 d < * < : & & % % % * 9 T * & & & & % & % @ # J p - % & & ",
"& * d < p * % # # % & # % & * 9 T T T 9 & % @ - ..O.O.O.{ & % & * < d < < < < : : < < * : 9 9 T 9 : < * & & # % # O @ @ @ # * & ",
"& : < d < & % # @ # % % * 9 < < r T 9 9 * & # O & p - * # # % & % & < Z ) d < < 9 d T d T T ` ` T T Z & % - & & % # O O @ % & % ",
"& & * : : % % # # & , ..q.w...< T ' T 9 * & % O O @ O X O % & % % % & Z ! < & & : Z d < d T ) ) 9 < < % % & : : * & & & & % # % ",
"& * : : * % # @ # K =.9.t.7.X.9 e T T 9 9 * % @ @ @ @ O # & % & * & & * : : % @ % : * : : 9 ! d : * & # & & : * : * * & % @ # % ",
": Z d & & & # O $ o.U P u $ * < e ' t 9 T Z * & % % % & & : 9 d : & % & & % % # % % % & : : - * : % # & % : d : : & - & % # % & ",
"% Z d : : & & O @ u * @ X O # % * T T ' ' T 9 & & & & & < Z Z * % % @ @ < I % @ # % % & : * & & % @ # % & * * * & & & * % % & & ",
"@ : : & : : & @ . + @ X O # # # % * 9 r ' T T T < : * : d Z < % % @ @ # =.j.1.- # % % % * & & % @ % % # # % % % # @ @ @ % * * # ",
"% % & & * * % # O X   O @ # # & % * 9 9 ' ` X.` r ) T d d d * % # # O * 0.l.e.- @ & % & & & % + # U o.} , # % % % & * @ & < * % ",
"& % & < < * & % @ O O @ @ @ # - : : 9 T ) ..X.r Z ` Z 9 < : % % % # O $ &.0...@ % & % & : : & @ p h.l.u.&.$ # & 8.8.&.< Z ) : % ",
"X.& * * & & & % # @ O @ @ @ # : d : & < 9 ` X.` Z T : * & % % % & % @ + * u @ % & & & * < : * % p -.O.O., O # p 9.s.i.} Z : % < ",
"%.& * * & % % # % # @ @ # # % & < * % % : X.X...Z Z * & # # % * < % % O @ @ @ & * * - : : % % * < J u - @ O # p +.u.-.p & % @ I ",
"% % & * * # @ % & # O @ # # % # & & % % @ Z ..9 9 < < < & % < X.Z O % % # % % % % * : & % % * 9 < < & # @ % & & u I - # & * & @ ",
"& & % * : & % % % @ # % % % % & p & & & O & ..- & * : : 9 : < Z # O & % % & % % # % % # % & < Z Z ! d & & & % % o   @ # : : * & ",
"* : : & * * & & # % % % % % % % & % % % % : < % & & & - < 9 9 : # @ * : % % % @ @ % & * & & < d T T T Z * % & % % @ # * : % & & ",
"Z ! : & * : * % % % % % # % * & & & p Z Z d % O * ;.*.& & : Z Z < & ) ` @ % % # # & : : * * : < d ! ) ) 9 & % % & & & - & % % * ",
"T d Z X.% # @ O # * < *.5.} % & - < { ) d : % @ ) p.&.# # : d d Z 9 Z * @ % % * % # & & : : : * 9 ..` ` T < & & & * * & & : d d ",
"Z Z ;...# X O # } w.d.M.M.p.- @ & : < d 9 : * % p J % % & * < d 9 < * % % % % & % % & & d : * * 9 ` ) ` ` T T * & % % @ & < < d ",
"d ! Z & # O @ p -.p.c.v.z.,.* X # : : < < d Z * * & & : < 9 9 9 : * % % % & % % % % * 9 d 9 : & & 9 T T T ` ` ] Z % # @ % % * 9 ",
"T d : & % # @ & J ,.p.p.=.u + O * : : < Z ! T T Z 9 Z d 9 ) T < < : % # % % & & & % : Z T T T 9 * * 9 9 T ) ` X.%.T @ @ % % : Z ",
"! ! d 9 : & & # & G -.o.p # @ - & : < d < Z ) ) ) ) ` ) ` ` ` T Z < * & % % & & % & 9 T T ! ` ` ` ' 9 9 T T ` ! $.X.+ @ % % * 9 ",
"! ) ) ! Z : % % @ @ - $ @ @ & * * : < < : < d T ` ........` ` ! Z 9 9 : & & & % % & < Z Z Z T ` ] ` T * r ) T : : & % @ @ % * * ",
"! ` ! ! T 9 * % # O O O @ # & % % * < : & p < 9 T ....` ) T Z < < T ! < & & % % % % & < Z ) ) ` ' T * * ) ` : : * % & @ @ # % * ",
"9 ` ) ! T Z < * % # @ O @ # @ @ @ * : % , q.q.} % p ` ) ) ' T Z 9 ! : % # % * * % % % % d ) ) d T 9 & 9 ! Z * : * & % @ # & * : ",
": J  ...] ! : * & % @ @ @ O O @ @ & * % I t.d.-.% : ` ` ] ` T T d & @ # & * : 9 9 9 % @ % * Z : : : < T < % & % % % % & & * & * ",
"* & - Z X.` < : & % % @ O X O @ @ & - & I t.s.G % ! ` ] ` ' T d : % # & Z ,.z.z.x.7.- @ % < 9 9 Z * * T d : : & * & # @ # # @ % ",
"* & @ & d ) Z < * & % % O O @ @ @ & - # * =.+.# # ) X.X.` ! T 9 % # # % I p.b.v.l.O.* # & Z ] ..` ' ` ` ! : & & % @ @ * & @ # % ",
"& % % % < Z Z d : % & : % % % # # & : & + @ $ @ + & Z ] ` ) Z * % % # # , -.q.1...- # O : Z ! ] ` ..` T T & % % # @ p y.y.O X O ",
"# @ & * < d d 9 Z < & * & % & & # # * - # @ @ $ * * # * Z T T < % % % % # p } p & O O @ : : < T T T T Z < & & % @ # I x.c.& X O "
};
