/* XPM */
static char *_4b27fa459e44925d3a86a57c48b2349CrZ29hza6zNjrmKz[] = {
/* columns rows colors chars-per-pixel */
"65 65 256 2 ",
"   c #030104",
".  c #0A0204",
"X  c #03050B",
"o  c #0B060B",
"O  c #06090E",
"+  c #0B090D",
"@  c #1C0303",
"#  c #12060A",
"$  c #130A0D",
"%  c #1C0B0D",
"&  c #140405",
"*  c #050A12",
"=  c #0C0C13",
"-  c #0B0E19",
";  c #060914",
":  c #130D13",
">  c #1B0D13",
",  c #130F19",
"<  c #0D1116",
"1  c #0C121B",
"2  c #09151D",
"3  c #141116",
"4  c #1D1215",
"5  c #14141B",
"6  c #1A141B",
"7  c #1C191E",
"8  c #15181E",
"9  c #1C110D",
"0  c #240303",
"q  c #2B0303",
"w  c #230C0D",
"e  c #2B0C0C",
"r  c #260908",
"t  c #330501",
"y  c #330C0B",
"u  c #3B0D0B",
"i  c #390904",
"p  c #2B100D",
"a  c #35110F",
"s  c #3C120D",
"d  c #240E12",
"f  c #2C0E12",
"g  c #370E12",
"h  c #241315",
"j  c #2B1314",
"k  c #23151A",
"l  c #2B161A",
"z  c #24191D",
"x  c #2B1A1D",
"c  c #2D1817",
"v  c #331414",
"b  c #3B1413",
"n  c #34161A",
"m  c #341B1C",
"M  c #3B1C1C",
"N  c #3A1816",
"B  c #37201E",
"V  c #0D1924",
"C  c #0E1824",
"Z  c #131621",
"A  c #131A24",
"S  c #1C1C23",
"D  c #131E29",
"F  c #1C1E29",
"G  c #191621",
"H  c #231C23",
"J  c #2B1D23",
"K  c #241B26",
"L  c #341D22",
"P  c #3C1D22",
"I  c #361E2B",
"U  c #15212C",
"Y  c #1B222C",
"T  c #1E2126",
"R  c #1B2532",
"E  c #1C2C3B",
"W  c #192834",
"Q  c #132633",
"!  c #232125",
"~  c #2C2126",
"^  c #23232B",
"/  c #2C232B",
"(  c #2D282D",
")  c #342224",
"_  c #3C2224",
"`  c #33242B",
"'  c #3C252A",
"]  c #34292D",
"[  c #3C2A2C",
"{  c #232631",
"}  c #242B34",
"|  c #2C2B34",
" . c #242D39",
".. c #2B2935",
"X. c #342C33",
"o. c #3B2D34",
"O. c #352730",
"+. c #2B323D",
"@. c #28323B",
"#. c #33333C",
"$. c #3B343B",
"%. c #383438",
"&. c #440C04",
"*. c #4B0C02",
"=. c #480602",
"-. c #540B03",
";. c #590B03",
":. c #42120C",
">. c #4C130C",
",. c #49160B",
"<. c #54120A",
"1. c #591508",
"2. c #421514",
"3. c #491614",
"4. c #4A1A14",
"5. c #441C1C",
"6. c #4B1D1C",
"7. c #441817",
"8. c #541B14",
"9. c #5C1C14",
"0. c #521D1A",
"q. c #5A1C18",
"w. c #630B02",
"e. c #691809",
"r. c #751C0C",
"t. c #761A05",
"y. c #641C13",
"u. c #691E17",
"i. c #731D12",
"p. c #49221D",
"a. c #53221D",
"s. c #5B221C",
"d. c #5A2216",
"f. c #53200F",
"g. c #7B220C",
"h. c #63231C",
"j. c #692418",
"k. c #732313",
"l. c #742B1C",
"z. c #792719",
"x. c #7E311D",
"c. c #451F21",
"v. c #432324",
"b. c #4C2423",
"n. c #43252A",
"m. c #442A2C",
"M. c #4C2B2D",
"N. c #4A2828",
"B. c #532423",
"V. c #5A2422",
"C. c #532C2C",
"Z. c #5C2B2A",
"A. c #5A2926",
"S. c #432D32",
"D. c #4C2E32",
"F. c #572E31",
"G. c #453234",
"H. c #43343A",
"J. c #4B3436",
"K. c #533233",
"L. c #573638",
"P. c #55312C",
"I. c #642A25",
"U. c #6C2B23",
"Y. c #622D2B",
"T. c #692B27",
"R. c #752C24",
"E. c #782A23",
"W. c #69332C",
"Q. c #75322A",
"!. c #7B3427",
"~. c #673836",
"^. c #763936",
"/. c #6D2F30",
"(. c #734339",
"). c #1E3041",
"_. c #233444",
"`. c #2B3543",
"'. c #263A4A",
"]. c #2B3C4C",
"[. c #293946",
"{. c #343E4C",
"}. c #3C3D4A",
"|. c #363944",
" X c #2E3F51",
".X c #443C44",
"XX c #563E41",
"oX c #2E404F",
"OX c #36414D",
"+X c #2E4252",
"@X c #334454",
"#X c #3B4653",
"$X c #3A4B5B",
"%X c #364858",
"&X c #3E505A",
"*X c #3A4E60",
"=X c #594549",
"-X c #474854",
";X c #574B56",
":X c #44515D",
">X c #4F4952",
",X c #674647",
"<X c #68555C",
"1X c #744F53",
"2X c #455664",
"3X c #545C69",
"4X c #705E67",
"5X c #5B6470",
"6X c #736469",
"7X c #841B06",
"8X c #880E00",
"9X c #8A240B",
"0X c #842B1B",
"qX c #872815",
"wX c #952D17",
"eX c #8A3219",
"rX c #98341A",
"tX c #992709",
"yX c #A7371A",
"uX c #B13715",
"iX c #852E24",
"pX c #873627",
"aX c #9C3A24",
"sX c #963826",
"dX c #863A33",
"fX c #953D31",
"gX c #A53B25",
"hX c #B13E25",
"jX c #9A412D",
"kX c #8A4538",
"lX c #984536",
"zX c #9D503C",
"xX c #AA4329",
"cX c #B54629",
"vX c #A74A36",
"bX c #B74C33",
"nX c #AA513C",
"mX c #B95539",
"MX c #BB512F",
"NX c #C65538",
"BX c #D05430",
"VX c #D5623E",
"CX c #CC613F",
"ZX c #E8633A",
"AX c #8E4D43",
"SX c #AA5A47",
"DX c #AC5442",
"FX c #B5634C",
"GX c #8B7074",
"HX c #C55E47",
"JX c #C86345",
"KX c #D76746",
"LX c #D06D52",
"PX c #E9714B",
"IX c #DD7D64",
"UX c #8C8189",
/* pixels */
"4 4 3 4 h l m L P 0.i.zXv.%.3X2X$X2X@X[.[.@X@X:X@X[.#XOX|.* S | R U 8 = X     X * A D ].@X[.%X+XV V U &X$X_.+X'.Q 2 * 1 - * - - * ",
"> 4 7 z z l j j m a.e.l.0 # | {.#X2X{.$X:X%X@X$X#X@. .F ^ : 6 6 #.{ A 5 =   X < X * X  .2X@XE D V U U [.+X).@X%X@X{.R Y E  .Y * < ",
"k 4 4 4 > d h j r 6.j.l.y @ & : ^ #XOX3X3X:X2X:X@.{ +.- 5 6 K / ..S 1 3 = X X < O O   1 +.Y * C #X:X'.E _.W [.$X'.]._._.[.E W Y 3 ",
"l 4 : $ % d j j M 6.y.e.t y r % . 7 G OX5X5X#XU +.S F X 5 / 6 = 5 - = - = * * = O < = X X X X } OX*X+X'.[.)._.).%X'.E [.]._.E A 5 ",
"h 4 3 4 l c j r 5.,.0XqX*.3.b p @ & . 3 | >X`.Y S < S = : 6 = 5 3 5 5 5 5 5 5 - O X 1 1 - C Y E %X%X%X%X@X%X#X_.'.[.]. X_.].{.5 7 ",
"h 4 4 4 c m a y u -.sXwX;.=.:.u b r d # . S S }.S       7 ^ 5 : 7 F G 5 1 G 5 - * * Z Y Y @.[.W @X].oXoX[.].].W W E @X%X_.'.{.S 3 ",
"x h % % e b 4.8.*.j.xXbXaXz.y.=.>.y y f @ 4 . $ : . . + +   X 3 S S 5 - * 5 3 = 1 Z G Y R W [.E [.'.+X@XOX].@.W %X+X'.%X*X+X`.Z + ",
"n j d r y 2.s.I.U.l.r.9XsX0Xe.w.;.<.:.s 0 w % & # % % 4 $ . : H 7 6 5 - : 5 3 : - F - A R D E E %X@X[.Q Y A D `.+X2X%X'.%X$X{. .= ",
"P N 5.5.b 7.s.8.>.h.l.pXl.pXLXvXsXk.<.>.u y j w h h c c h h h % 4 4 6 6 : 5 5 5 8 F Y A A U @.#X2XOXQ U - 1 `._.'.+X$X'.). X[.`.< ",
"B.6.6.6.2.3.B.V.6.s.I.I.q.U.pXsXvXg.e.1.<.0.6.y v v v v j n P _ J 6 6 S G 5 5 5 - G S A A U } `.@.W W Y S ..{.].+X'.'.Q ].@X[.C Z ",
"u.q.8.0.A.B.6.2.5.5.C.5.v.b.:.U.z.eXaXg.k.1.-.9.0.0.a.6.5.c.n.' ~ H S F S G 5 -   + + O O O * 1 1 - Y G G |.@X@XoX+X%XE @X+X[.U F ",
"R.Q.h.9.V.V.7.7.b b v.P ' ' y V.y.0XHXmXaXqX0Xe.9.s.a.6.5.P L ` ( / ..} ^ T G o o + X X + O X O * * 5 = : { {.$X+X@X].].2X2X@.Y S ",
"h.dXdXE.u.q.3.5.v n m _ ' v.5.a.q.dXaXxXKXNXaXe.j.I.6.5.' o.$.}...{ ....T 6 - X + = = - 7 S 5 5 < 3 # % : 6 `.%X$X%X].@X$X+., : 5 ",
"t Y.^.R.R.T.0.5.M M n B B M N.5.A.h.r.wXcXVXbXe.U.Y.b.n..X-X-X-X|.{ ^ ..F = + = o = = 5 F K 6 5 5 6 % c l # { ].@X].].].#X5 : > 5 ",
"j _ 5.5.A.Z.B.B.5.M n L ) n P M 5.Y.E.9XuXVXaXE.V.C.P ` .X-X|.|.OX#.| / H 6 6 3 = 3 3 5 F S 6 6 6 4 h m j # 5  .[.W E ].:X^ J l : ",
"J J L _ N.b.7.7.b M L ) ' n f P B.A.dX0XyXPXwXi.Y.M.m J .X-X}.|.#.#.O.h w x 7   + = = = 6 7 6 H 4 % v v j > , @.`.].@X2X{.1 $ $ : ",
"/ ( ` I _ n.P f v M ) m n n M 7.A.<.pXeXtXKXrXk.~.J.=Xo.-X-X#.-X|.%.m e C.a o * 3 5 5 7 z J J J > j B.p.0 % 5 A W W {.#X} < o + = ",
"( ~ J J ` S.' n j n x x n 5.6.0.h.dXiXaXyXtXxXeXI.1XXX$.;X}.}..Xo.l m b.6.y . } G 5 5 6 z x x l M q a.:.P k = } Y |.{.F X X : : : ",
") ~ ~ ) ' _ M v m m m n M 6.s.j.z.gX9X7XxXbXKXNXx.(.,X>X-X-X>Xo.L XX1XM 5.M ~ ( ..^ S S J ) L n i s./.u L 6 : ! ^ ^ <     : 3 $ h ",
"l J ) ` L m 5.b.M m m M 7.s.j.x.rXbXKXNXxXaXrXJXFXAX,X;X;X;XH.[ <XGXD.0 N.P H.| #.| ^ ^ / ' v.6.=.kX/.3.d > 6 + o o     = $ # d a ",
"J J J x j v 6.Z.v.P P v.C.T.dXfXgXKXKXxXE.kX!.u.AX>.r L.C.N L.6X<X<XN P.5.f H ..| ..^ ^ J ) v.0.iXfX<.5.c > 3   . o o o : $ @ y =.",
"n v j j n 5.6.5.v.L P N.F.W.^.fXgXNXxXeXY.K.,X~.V.Y.s 0 3.Z.v.<XUXS.y 4.y m.X.K ( | O./ ~ ) v.s.nXqX<.:.n h % . % % # $ % w y 4.Q.",
"i &.u 2.b.C.C.v.n c L D.L.L.W.!.gXJXlXI.J.;X=XXXN.6.^.^.6.N ' GX1X2.U.h.C.' o.( X.o.o.[ ) _ v.s.vXwXl.>.b v w w e e d w 0 y 9.U.A.",
"l.l.h.0.6.N.D.m.L ) o.=X<X1X1XkXaXLX8.M..X3X>X<XJ.M.6.Y.g N K.b &.j.iXy.F.' o.( o.o.S.' _ M 7.9.xXxXr.l.>.s q y i i t 0 i T.Q.>.q ",
"k.kXq.6.c._ S.` H.` $.4X<X1X1XkXnXSXC.o.-X}.}.>X.X=XH.=XD.b W.h.dXnXqXe.8.C.G.[ o.o.[ m.v 7.8.y.xXbXwXr.i.<.<.=.1.iXk.!.kXj.>.t y ",
"1.Q.0.6.M c [ o..X>X.X;X<X1XAXkXSXd.M..X#.-X>XK X.$.|.<X;Xm.a.*.-.jX9Xt.i.9.a.b.B.C.2.i 8.h.;.z.jXt.vXsXz.fXz.pXsXsXk.iX!.=.t b e ",
"7.B.p.p._ j ~ o.$.$.X.;X4X1XQ.AXkXb H.}.| -X%./ X.$.#..X.X] L e i =.JXNXyX9Xw.;.w.e.w.qXt.t.iXz.Q.h.h.*.j.l.-.!.k.u.>.I.^.h.>.t a ",
"_ M _ M m.L J ~ X.$.] ] L.~.dXFX~.m.$.+.$.#.H >X| X.%.X.| ^ H x a.pXLXuXBXcXNXgX7XxXKXcX9XaXiXkX^.,X5.u >.9.Q.U.q.I.N.N.A.Z.Y.3.i ",
"J l _ m m.' J H J X.$.H.L.~.pXzXF.` X.X.#.#.( $.o.] ] ] ( K z m.f.lXbXtXNXNXNXyXKXcXyXcXgXjXdX/.~.,XJ.v u B.Z.~.F.n.' [ ` M b.0.<.",
"H ~ o.) _ L x k ] H ] G.M.a.pXnX7.L J ~ ` o.o.H O.o.` h H ~ j a q.z.aXgXaXsX9XrXJX7XtXcXqXx.T.,X1XL.G.L r n n.P ' x z ( X.] m u j.",
"~ O.o.o.J J x l # 4 ) ) M.~.aXsX&.5.v.P L ` ` J H %.] J ` L y i *.lX0XpXdXQ.Q.0XrXKXhXrXfXdX^.~.=XJ.r @ c j x J ~ O.%.^ ! ^ / 5.pX",
"/ ] ~ o.J J J x k % > j K.~.jXnXj.7.a.b.M L ` ` X./ k [ S.f <.pXlXz.z.h.Z.Y.Y.s.g.JXgXgXvX!.(.,XL.j m P j ] H./ ( ( ! 7 ^ ..! v l.",
"z ~ ( / H z 4 4 l > h w v a.x.SXAX8.b M j l k O.~ 4 h j d y t.NXaXz.!.I.6.L.1XZ.e.qXgXgXfXdX/.C.j ) S.) ` o.~ o.O./ / / ! ^ K j j.",
"4 k z 4 > 6 z 4 > h x j n 5.<.l.E.y.p.N n % > ~ 4 l % w 0 t xXNXwXi.U.W.K.=X<XN.9.w.qXmX7XpX/.b.D.J.J ` H.o.o./ / ( ( ! K | ` a !.",
"J x x x x 4 > 4 J h w r m _ :.<.=.j.4.b n I k x l J x f *.e.NXtX0Xl.Y.L.D.J.m.q 9.0XwXJXMXt.Q.L.K.G.x ] H.o.o.X.( | ! ! X.~ e ,.k.",
"x x x x l k k k l h y 5.N.7.>.l.e.pXs.3.7.g y i i s _ 2.k.cXPXyXqXU.A.K._ ' j q 8.z.vXcXVXxXe.W.N.L n.' o.H.` X.( #.X.` x q &.!.0X",
"J ` ~ > # h z w w e &.<.<.-.pXIXcXwXj.<.j.;.qXrXrXg.&.=.wXKXKXyXwXz.I.A._ ' j v s 8.pXxXyXKXsXe.a.5.M.' [ H.` ] o.z ~ m &.E.DXnXr.",
"b v d > > % % w y 8.e.z.x.r.g.rXNXhXt.e.t.aXMXNXKXmX1.1.xXVXVXuXgXqXj.0.b.m.j p b a.q.kXeXgXJXeX9.A.N.M.' ' H.' S.M.e t R.jXrXwXr.",
";.=.q r d % r s ;.r.7X9XsXpXU.e.xXKXcXwX9XbXeXqXqXrXl.e.0XgXBXVXuXtXqX1.a.N.j j M 5.Z.I.R.z.aXmXj.I.A.F.n.) G.v.:.=.y.u.*.9.iXr.z.",
"fXiX9.t q b 7.*.g.cXbXvXpX9.7.>.e.MXPXcXmX0Xe.j.0Xk.kXh.E.fXxXVXBXuXhXt.9.7.w % v C.p.b.I.dXpXnXfXj.I.A.C.C.5.:.l.DXlXe.3.p.0.8.h.",
"-.pXjXjX-.=.*.e.JXxXz.9.4.b a y q.k.mX9Xw.lXQ.Q.!.d.3.B.Z.U.pXhXVXZXBXyXiXi e h x m.K.K.F.~.dXsXHXaXy./.a.8.;.nXmXrXe.>.M P _ P M ",
"3.=.e.sXvX0X0XvXrXg.&.b v w % j y q.lXsX-.u.s.^.~.C.M.D.D.B.R.sXyXPXPXBXsX=.@ % j [ L.L.D.C./.dXrXxXpXe.e.fXrXyX7Xe.>.5.) ` J H ` ",
"0 5.8.1.qXNXLXw.1.i e L B h % % v 4.y.kX8.B.b B v.m.S.H.o._ B.R.eXxXPXVXwXu.3.j c ' G.J.S.v.Z.^.fXwXbXwXyXLXrXz.*.u v m ` X.X.X.%.",
"J w e <.t.gXbXe.i j d d w % % % d 5.,.W.b P j l c x ~ O.X.[ v.0.R.t.xXBXyX0XT.C.m.' ' o.S.m.N.Z.l.sXrXPXBX8X0Xj.t e l ) X.X./ ^ ..",
"z > m s y.sXtXvX&.v v p w w % % l v a N h J k z l k J ~ ] ] ) v 6.U.0XgXcXwXy.Y.K.[ ` o.G.S.m.N.Y.e.rXKXuX7X-.b.M c j x ~ / ^ F ^ ",
"3 z L 7.y.e.gXvX:.v M v._ c % > d l J.[ K , : ~ k z J ~ J J x j M Y.j.eXxXgXg.y.b.v._ S.J.G.D.K.b.h.eXLXyXe.2.m [ ) h 4 4 H K ^ ^ ",
"+ ` P 0.;.z.SX=.M c j c l h 4 4 z H $.$.|.F + $ 4 4 h l x x J J ' v.V.l.wXNXaXi.8.7.M _ n.N.M.C.B.j.t.mXpX>.m . : 4 6 7 6 3 : : : ",
"7 4 P V.r.FXkXi n L x l k J 6 + X F #.+.{ Z = $ $ # # h J ` X.O.) ' C.s.sXHXsXiXh.6.b v N 5.6.6.s.y.nXdX&.v # S o 3 H S 6 : 6 H 6 ",
"! 4 m.0.fXSX8.N c h k x K S ~ X X 8 }  .+.^ + 7 7 > > z K ^ ..X..Xo.n.:.E.jXpXU.s.5.v v c.A.I.T.Q.9.Q.8.N m > : 7 3 5 7 7 5 5 F S ",
"3 ~ M &.0Xe.&.N h h x H S : S 3 < Y @.} } G * 8 6 3 o : ^ +.#.#.$.$.L b s.Q.W.V.6.v.v._ M 2.6.s.h.>.s.2.v x J ^ 7 3 5 G F 6 5 S S ",
"4 j u 1.7XsX>.y m x J H ! 1 G - U `.|.`. .C 1 G ^ ^ 3 - } |.#.| }.$.h P 5.b.b.5.c.n L ) l d n B M y u y v h K ^ S 5 3 G S 7 5 5 F ",
"h 0 *.x.wXLXkXt m J ~ S ^ 8 1 ; R +. .} U 1 A Y } +.S 8 @.{.`.|.}.K % _ _ L P P m w J %./ > k x m j v 5.b.j J ^ T 8 3 5 7 6 3 = - ",
"r y h.0XgXxXFX1.r 7 { S F 5 1 1 1 G O X X * Y  .} R 1 G {.#X{.-X/ # d j J J J L h $ | -X| = : z l w e B.Y.g x K T 8 3 3 5 7 6 : 5 ",
"s a./.k.z.g.xXzXb z { D ^ F 8 1 X X   X * Z  .@.@.D * G {.OX|.}.5 > ) % 4 6 k l 4 + 7 | F o + 6 4 % @ M B.q % 6 3 < = = 3 6 6 5 5 ",
"6.0.B.0.3.U.i.DX^.m ^ U } R A 1 * X - < Z R  .E `.D * 5 { Y F { 5 z z : $ 4 k k 4 # . o = : = = J k 4 9 m w > 5 = : = * - 5 5 5 5 ",
"2.b g n m p.V.9.AXN ^ W R U D Y A ; 1 ; - Y W E U 1 X + * * - S 5 6 . : 4 4 4 H : 4 : o + 3 3 = H 7 3   > > 3 5 5 7 5 5 - 5 5 - * ",
"w h l k z J n e 3.5.! U R R D A C 1 * 2 A A D A * X * < 1 ; - 1 1 - = + + 6 K S 6 H 3 : 6 3 = : + = 3 3 3 : : 5 6 7 6 5 - - - = + ",
"$ : > , 6 7 S z f n ! U R U D U A C - C U A D Z X * Z T T G Z Z A 8 5 o o 5 Y F G S 7 5 5 6 : : 5 5 5 5 5 : : = 3 5 5 5 - - = = = ",
"X o + = - 5 G S k k 6 5 U U A V A A 2 D Y A C ; * * O X X * Z A { T 5 = + 5 Y F G G F G 5 6 6 3 3 : = 3 5 5 : = 5 5 5 5 5 5 3 - * ",
"X   X X * - Z S T S : o < 8 Z A V D C A A 1 ; X X O X X X ; - - } ^ F 5 = 8 U A G 8 F F 5 : 6 3 o o + - 5 5 3 = 5 8 8 5 8 5 5 - * ",
".     X * - C Z Z A 6 o   X 1 U V A 2 1 - X * X X O * * 1 Z 1 * A G 5 5 5 G U A Y Z D R G * : > % > 3 6 5 5 : o 5 8 5 1 1 < - + O ",
".   .   O 1 1 1 2 Z : .     O 1 C C * X   X < < O X X X ; 8 Z - * * - 5 1 Z Y U R V V R F 5 > h h h k 6 6 : # + 5 8 5 1 1 1 = + + ",
"& & &     * 1 ; < = X . + $ o X < < X   . X < - O O * - 1 8 1 - * * - 5 1 Z Y U D D V D Y F z l j j h > : : $ $ : 5 Z Z 5 1 - + + ",
"@ w % .   X = * * + o . + + o   = =   . + + = X = * * * * ; ; - Z 8 5 5 5 Z U U D Q D V Y ^ k h m v h > > > % > o = 5 Z 5 - = o $ ",
"@ n %     X * * + + o .   . o       # . $ o X = - 1 1 - * * = - - - * - 8 1 A V D D D V U S 4 M b.b j w k k % h o + - 1 - * o = o "
};
