/* XPM */
static char *b7b68d5620954716a547a5ec44495e1c2192qbXOsmk2B95Q[] = {
/* columns rows colors chars-per-pixel */
"65 65 167 2 ",
"   c #040000",
".  c #0D0000",
"X  c #140000",
"o  c #1C0200",
"O  c #1F0900",
"+  c #230400",
"@  c #2B0500",
"#  c #250900",
"$  c #2C0B00",
"%  c #320600",
"&  c #3B0700",
"*  c #340C00",
"=  c #3B0C00",
"-  c #2D1100",
";  c #341200",
":  c #3B1300",
">  c #361900",
",  c #3C1A00",
"<  c #420D00",
"1  c #4A0C00",
"2  c #431400",
"3  c #4B1500",
"4  c #441A00",
"5  c #4C1B00",
"6  c #531500",
"7  c #581700",
"8  c #531C00",
"9  c #5B1D00",
"0  c #621D00",
"q  c #681D00",
"w  c #462100",
"e  c #4C2200",
"r  c #542300",
"t  c #5C2400",
"y  c #542900",
"u  c #5C2A00",
"i  c #5F3000",
"p  c #632400",
"a  c #6B2500",
"s  c #642A00",
"d  c #6C2C00",
"f  c #702600",
"g  c #732C00",
"h  c #7B2E00",
"j  c #643200",
"k  c #6C3200",
"l  c #6A3800",
"z  c #743300",
"x  c #7C3400",
"c  c #753A00",
"v  c #7C3A00",
"b  c #7D4100",
"n  c #822F00",
"m  c #833500",
"M  c #8A3500",
"N  c #843B00",
"B  c #8B3C00",
"V  c #923D00",
"C  c #9A3F00",
"Z  c #854300",
"A  c #8D4200",
"S  c #874A00",
"D  c #8E4900",
"F  c #944300",
"G  c #9B4400",
"H  c #954A00",
"J  c #9C4B00",
"K  c #975000",
"L  c #9C5200",
"P  c #A24500",
"I  c #A84700",
"U  c #A34B00",
"Y  c #AB4C00",
"T  c #B24E00",
"R  c #A45200",
"E  c #AC5300",
"W  c #A55A00",
"Q  c #AD5A00",
"!  c #B05000",
"~  c #B45000",
"^  c #B55200",
"/  c #B15500",
"(  c #B25700",
")  c #B45300",
"_  c #BA5400",
"`  c #B95600",
"'  c #BB5500",
"]  c #B45B00",
"[  c #BC5D00",
"{  c #BC5E00",
"}  c #BC5B00",
"|  c #AC6300",
" . c #B16000",
".. c #B46200",
"X. c #BC6200",
"o. c #BD6B00",
"O. c #C15600",
"+. c #C15700",
"@. c #C35A00",
"#. c #C55B00",
"$. c #C75C00",
"%. c #C35C00",
"&. c #CA5E00",
"*. c #D15F00",
"=. c #C66500",
"-. c #C66400",
";. c #C46400",
":. c #C96400",
">. c #CC6400",
",. c #C46A00",
"<. c #CD6800",
"1. c #CC6B00",
"2. c #D26400",
"3. c #D96200",
"4. c #DA6700",
"5. c #D36A00",
"6. c #D46D00",
"7. c #D36B00",
"8. c #DD6A00",
"9. c #DA6C00",
"0. c #C57300",
"q. c #CD7200",
"w. c #CB7200",
"e. c #D07100",
"r. c #D37000",
"t. c #D57200",
"y. c #D87100",
"u. c #DB7300",
"i. c #D77900",
"p. c #DE7900",
"a. c #DC7A00",
"s. c #E16C00",
"d. c #E86F00",
"f. c #E67300",
"g. c #E57700",
"h. c #E37400",
"j. c #EB7500",
"k. c #E67A00",
"l. c #E47B00",
"z. c #E97A00",
"x. c #EB7C00",
"c. c #F07600",
"v. c #F37600",
"b. c #F37C00",
"n. c #FC7C00",
"m. c #E58100",
"M. c #EE8500",
"N. c #EC8700",
"B. c #EC8300",
"V. c #E48900",
"C. c #EC8A00",
"Z. c #F78300",
"A. c #F18500",
"S. c #F58600",
"D. c #F38400",
"F. c #FD8500",
"G. c #F18A00",
"H. c #F48C00",
"J. c #F98900",
"K. c #F98F00",
"L. c #FD8B00",
"P. c #F59300",
"I. c #FB9100",
"U. c #FF9400",
"Y. c #FD9300",
"T. c #FF9D00",
"R. c #FFA400",
/* pixels */
"A ; o o o 5 N + X @ 4 t v B H s z w : m M.b : 4 4 $ @ g H e * 2 g 5 ; @ G A r : 2 : F c ; ; * @ % 4 : = 3 T a.z x ; @ 9 I T _ G B ",
"B 4 * @ 9 v > # @ ; + + A v s 5 4 : @ p <.u = s t w + 8 v u 2 8 U k - ; = G =.s t G { y # ; $ @ @ % ; 8 g %.q.v 4 5 z p G g I G B ",
"I I B 8 T i - 2 2 ; $ 3 S.y.6.v > # @ N { s : : 2 : + 3 f.t.c B z.q.; @ X * P / <.=.M.6.e $ @ @ @ $ + 2 9 v z X o 3 3._ B c 3 p d ",
"Y V #.x G y ; 2 ; $ : @ 5 v A s $ o @ N 5.A 5 @ * $ + < 6.H.f.K.U. .- o + o X : 4 = M 8./ z d 4 $ + $ * X p z X o 2 O.@.) d o + g ",
"s = 8 x P ; o * $ * @ + X < z w * * % p k.D $ # $ $ @ < :.=.S.J.I.k : o o o o o o % B ^ c.Z.U.Z O + = - + Y u o o < z M Y v o < B ",
"d G d #.U $ . + ; + = 8 u 2 4 * $ + 2 8 1.a.z # o + + + d N N x v ; + X X X + * ; = G A F &.R.o.4 $ $ + @ G k # X o @ 3 I E z F G ",
"d T 8.P P B F E F E R E X.E u * s r p s F ,.v v ; 2 2 X + * = : # o . X X o * % 3 B ` H d G B.R.Z # @ $ + 3 T v X o % v F z M &.P ",
"o % z : h ' b.p.U <.=.X.J >.y.( Q 1.,.s Y o.5 %.k.u.] 5 + % 2 - + $ $ + $ * : % 6 E z N v d E T.Z o X + @ = g } t 3 a d v 4 * 2 * ",
"+ + + C n.5.A Y <.r G U.B.,.U ] A E y.5.M.k.{ ;.A / ;.a.W 5 $ o o o o + O # $ @ @ Y N r 5 2 ^ B.H - X X o % a f.F 9 5 @ x u O + + ",
"X X % 9 B G h.B.] N ;.x.Q r : t A Y S.R.i.H d U s P L.q.y.j o X X o O o X . X 3 M J 5 8 G } m.I.S : ; # o + = 5 @   . @ N , # * + ",
"* O $ * + = C g.J y.K.=.s u 8 p N v E z.1.u G Q ; 2 H 8 x c o + o o o o @ + 8 E Z > # 0 B.] z.] , : 2 ; + + X X o @ + & v - + o @ ",
"N $ o $ % = 3 T 1.d >.y.H :.i.J >.` ` E >.} z.Z # + + o V H o O X X o + a F ' N # : : 3 %.>.H u p r ; % z k 4 : # $ + a k + @ @ 9 ",
"F s 4 X o 5 d d r + 7 K.,.Y z.g.9.M.i.J v ` :.L s r ; + 3 H # X . X + a x s a 9.Q d r 5 V Z.c V P.0.d ) y.R Y %.k * 9 v 4 5 8 8 h ",
") @.` d * 8 d 4 $ + = a.v m { ] H.C.6.9.C.` x.k.>.U N s g ( * * t a V N : = 8 9.y.t 4 d p I 9.5.B.C...] k 4 : p G _ &.P P P G Y _ ",
"%.N 9 Y v * 2 4 t t F i.k s 5 r G a.;.z.L.p.;.Q v %.g.<.l.U F U v B Y t h } 9.:.t t d s 8 d N I I.Z o o + + + $ < V 5.&.J 8 m s.c.",
"_ P G 4.E B G %.k.C.>.W : : $ : 3 u.,.v A :.<.>.@.} %.] t m d ; X o 0 z ^ 9.>.Z 9 9.=.) F N z v N 5 # + o X + + 3 ` E G N 2 p P G ",
"N Y ' ` c 4 a 2.B.m.N c : > ; @ * d y.a.H N U F &.P N t z F $ . o + + 5 T s.y.A V f.d m U d 4 4 5 , @ $ @ @ $ % G ;.Y I J 8 2 3 9 ",
"s 2 2 2 ; ; a f.A B :.J Z ; @ : t t Y x.R t r 4 N 4 * % V s $ $ # o . X & B F.( G 5.N E d m } v r > * * % 3 M 6.M.D.u.B $ o + @ p ",
": 3 m ) H ; h E t 5 P ] J U 4 d X.d ) k.H r ; ; * = : * $ @ @ * + X X O + @ P Y B >.>.} r h L.t.e ; * * + a ^ v d F Q ) u + @ $ = ",
"X 9 $.j.F $ 7 J : * 9 J 2 m { l.m.s 4 N ` J : * @ < t , + p N 5 O o + O @ o 8 z g N d 5 2 g A P k O $ * + B z 4 + $ = 9 x u + $ o ",
"@ P &.s o @ 2 ` e 2 d >.A 5 8 ) k.c r t v 2.A d D d ) N G ) Y r # + + # O X X % V w X X o g 4 9 k # ; * 6 ;.z z O + % = M Z o $ # ",
"@ m s @ X : d P F h.y.;.] t * G S.J t r @ p p.] ] 5.D.@.' 2.E r # + @ $ . X o . p x * o o 7 B x 4 O ; @ a z 9 5 + # + @ Y H o + @ ",
"+ o + + + M f.Q 8 P H F Q g E l.] t : 2 z N N s 8 $.h.G 8 B v : $ + @ # # o . o + p g m F t p z : X . o N * d $ o # o @ 8 U r o @ ",
"o + @ @ @ V f.A 5 d v B >.u.Z.R t r : p p.J ) a.v m ) G t p 4 $ # o X X + + O + o o @ 8 I G t t 8 O   2 v o t # + : @ % 8 g v # o ",
"+ + $ * < h 4.k.A M j.5.s.x.m.k 3 =.v V =.: = J E ` m P F m u + o o o O o @ @ + X X @ 4 2 m v 2 d : + N $ 2 5 X @ 2 9 t a N z # X ",
"# + + @ < p G J.J 8 B G 9.( ) Q s U J m ;.j # + $ : o 7 V G c o o o o o X + o o o o o = : h H N t + h v 5 s o X @ x ' B 2 m G ; + ",
"# o X X % 5 V ] N p T ] 9.] t %.5.` <.r 2 F : : ; # + @ g H > X o X X X o o + 2 3 a s 2 p p F Y s o a d N ; X X 0 >._ v X @ g m 4 ",
"r X X X o 8 I S.] x j...{ ] s g _ ( Y j + J t 5 > o O o 1 G - . o o @ # o % g B 8 3 a V P N 5 G U 2 v t r # o @ B s 3 A # X < G Y ",
": X X X o = h x.S.f.x.>.;.E r 8 s p H 8 B v 3 s - + X . 7 ^ r .   . % : % v d $   % a #.G B V M A 5 s 4 r O o = G 5 B s X o @ 5 G ",
"# X o X o * < %.U.J d V Q F c 4 t G J V k o * ; # + o X m G N : : 4 o < x r o 2 8 B $.^ V G v a H 8 t x d ; o & V B B * + # o = d ",
"; O o 2 5 $ 2 &.l.U B t.{ J ] z g l.S.W ; $ @ @ + o + = B Y G v 8 p w % Y J m F G _ %.` ^ A = n } d g d : + : p s 8 B $ # # @ h k ",
", $ = M J u 9 f.U %.M.U.m.U ] t.:.B.m.s $ * = : % 3 t p B I k + $ @ M U @.b.5.P g d 4 B @.N t h } v u + @ 8 B ) c 2 z # . + + x J ",
"z 4 8 ^ F.R :.H.5.M.C.j.P.%.a.N v F %.( 5 : 2 3 B F d t @ 8 z o # + o C E t d V G P z T J p &.%.&./ 5 + 3 &.` B @.} z @ + % d P J ",
"T B s g _ T.u.g.{ 5.k.b.W E R.u = d t m _ G =.N T ^ d # X X M c o @ 5 H , . o o X = 5 2 g d p 3 C B o . @ P j.G ^ ` k 8 B U O.>.v ",
"F t 4 5 a =.` F g ) u.F r 8 c ; * 8 5 3 j.L.x.%.F G 5 O * $ 9 F g N z 8 * X . X o + o + % * + @ m t .     % d p 8 8 * g H g @.4.{ ",
"d d r = 8 t U u = s.C.t ; O X o + < E 6.L.2.#.s.2.U g C ) F t 9 _ B h B t 5 8 O o # o @ * = 8 t v ; . o O X X o + $ + a N % G j.R ",
">.G P N g d d I %.,.v $ o + + + @ g %.l.F C d x G u 9 B *.>.P B v : # X   o = p * 2 8 5 g z p 2 2 4 # $ + O o o + + + 3 G P 9.=.` ",
"t 2 = I E : p / c $ O + o + o * @ x } 6.s 2 # = p t s p g M _ ' U 4 X X . X X * a t : % v p B G t 2 2 - o o O o o o o @ 8 t P 9.R ",
"5 t * 5 G z A e O # @ + + + @ : * < ) ;.J G x F B ) : = d N z d 8 # + + o . # o o o @ a F t p z v F d : + o o o o o = d p N } J 8 ",
"t + * * $ o + + @ O o + + # ; * ; o 5 z $ s c u : 4 o g 2.>.z X   . X + 8 r o + t s N @.c 4 3 : * 9 M z $ X X X o X 3 F G ;.x B z ",
"G v G %.,.: o o o * 4 : # $ # + o X 2 E > O % o o o + 0 4.N x z * + 2 8 I { p U s.b.b.u o @ 4 : 3 8 2 G x r + + X X @ 9 P _ 5 M %.",
"` B m F 5.;.H t g E <.R > $ + o @ o p X.r $ + + o X @ a 8.D o 8 v v F N h U x ) s.) O.Z # @ 9 A ` } E h.g.c 5 t : * = g Y %.t a 2.",
"` J t * F J.` E A u g <.K 4 : * + @ E H ` J A J J t $ 3 ^ { : . o * = * @ 7 v 9 v r 2 V y = ` :.Y E E z.X.5 2 g E F P A 2 a G F F ",
"8 B P F f.6.P N $ + t 9 9.H > $ % F v m J.Q v z c m s h x.d P k ; $ * * $ & ` 5.m.0.4 a =.U t.v <.I.;.d %.j + m L.k.z.p.5 @ 8 4 * ",
"o o + C :.J t M E c t v ) ,., $ F c 0 X.c > O + + * G c.l.; 7 #.k $ 2 : $ = V T.U.V.g E 2.{ ( { a.=.b @ G F z F B 9.P.6.r + + O X ",
"X = I P Y u @ * z H J H P g.W B U B 1.y X + * $ = 9 T b.( > o 0 A ; ; = & 2 J l.p.G.a.h.C.u.i.v 4 2 z c 8 T H : g k.5.y.u @ O o o ",
"o = P ) Y >.s * ; $ $ * a 9.S.c 3 / o.$ $ # $ * % g f.N $ @ + 6 A ; @ @ < 8 P >.y.I.H.%.x.5.g.Z o @ 7 ` >.l.s = ` P.V.c $ + + o o ",
"+ @ o 6 Y F.H 5 8 5 : = p I s.A : h Q ; : $ @ * % Y D.4 $ O @ V r . X o 9 G U ] c m D.i.u...{ Q c z A <.S.>.v J D 2 r $ + + + o o ",
"@ : * = 8 y.k.;.E H w * % * g } r 9 Y u @ + : = 8 G ) k +   $ U ; X X X * 4 4 t t z ;.z.K.,.( ( E 9.g.S.m.J B N @ + + O @ @ + + + ",
"- + + o 8 A ^ x.A ) ] - @ % 9 9.g I >.F # @ : = 8 Y %.J ; # + M Z # o X o + 7 F f.K 4 s F <.,.{ J A 4 8 >.X.g 5 4 @ ; 4 : * : 4 ; ",
"$ + + * d Y a. .: 7 ^ u + < T Q p ' v } c 2 t p * x &.N - ; @ 9 v - @ O @ @ C t.x.c # + $ 2 g y.k u ; o F I.j.( j > 4 : * @ : : * ",
"+ % 5 4 3 } u.A Z B &.A 5 2 O.6.t s : z 9.E y.S.} Y U 4 X X X p - X o o @ h H t s 4 o o X o U ,.` H ; o 2 z m <.b > 4 * + * t 5 $ ",
"& a A e % d T 2.9.F.M.P A 5 ) ,.5 8 5 : s 4 m F.j.2.` v X X . p e X 3 V U F y @ 8 x 4 + o @ U U L.| $ o o o + V Q ; $ + @ @ 3 s ; ",
"X * : % 8 G k 9 z G l.i.J v %.v : d U ` ) { X.y.U >.Y v X o + M 2.5 h 9.z : v F ` m.` R 5 3 :.J.L.m.D ; # $ X v H X o o % : % : O ",
". . + 6 U e . . o @ a 6.6.J U r + 0 j.y.%.j.T.,.x >.J r ; O + m >.d g ,.5 N ( U ,.D t E a.E 6.1.Z F u.X.r @ 9 U v u $ X o $ @ $ X ",
"@ @ = O...$ + + o + 2 t B m...# + + P k.N v N ` f.9.H 4 - # o f l.,.%.] F ,.: d s a Q J s E c $ 2 $ % m E N } E N J R @ @ % 9 N 4 ",
"5 t U u.k - @ $ # o @ r v 5.Q # + $ g 9.;.J Z s A x G c * 2 5 2 N 6.h.%.=.r x m.;.l.{ =.e * N / ` } r p Y <...u X . d H > @ n ,.2 ",
"<.2.>.F 4 ; = * > : : < F E v $ * G >.E ] H ] } 4 8 N N ;. .5 J =.a.] ;.X...%.,.x N %.a.> # + 2 t G 5.6.U ;.=.E k 5 9 5.j + 3 4 9 ",
"} &.J 5 @ - 2 * ; ; ; @ 2 z 1.Q F >.=.b : 2 3 x ` 5.&.6.m.C.{ 6.E I.x.R 5 g J v 8 d ..j # $ + o + * g s $ B X.H Y @.] z P 5 $ @ q ",
"d I v * 2 - * < , = r $ o 0 D.X.:.x.] , + @ : 2 A Z F z.=.M.=.v d H v H , + * $ + g c O $ + = r 8 g :.l o 0 v o @ * h { ^ J - + = ",
"+ p v : : - * @ * a B.J H Q F.I.M.T.L O X O + 2 r 5 p G ] N r x E H , z k + @ = $ B W + + @ * p U >.F.K @ 9 N ; + + % C d.` r # o ",
"o @ d : $ o o % V k.i.m.w.w.H } z.a.k d R u o @ $ : $ @ + o % %.R.P.y = A + % 2 5 B l.u X : : < 5.R.9.E : 3 N ; O @ % 7 _ z m ; o ",
". % x 8 s 5 p N U Z 9 y.J k ; 8 5.k.5.1.E ,.y # + @ % 2 - o % %.T...: + B c ; * = * a E ; = r g g.h.Z.D o 2 G 4 + @ + = %.s z , X ",
"% a m x U _ B p z 4 @ E P.A t B 9.,.F.L t 5.Q # $ + = d N k : G F.l.s * p v > $ + + % h R t s p / U t # X p v @ $ * d N z : s # X ",
"B U s $ @ a U F E ` N c A :.>.x.m.y.] Y E >.b + @ + 2 s N k : 0 5.,.j @ M A r $ + @ = B ( e = 2 8 d ; + @ M R N N F G U r = I N 8 "
};
