/* XPM */
static char *_c265883f57a463289a04646d5f8cb44UOu04U89A3Mivppe[] = {
/* columns rows colors chars-per-pixel */
"65 65 155 2 ",
"   c #734428",
".  c #7A462B",
"X  c #77482A",
"o  c #7D492C",
"O  c #7B4C32",
"+  c #7E5239",
"@  c #844E32",
"#  c #845235",
"$  c #8B5536",
"%  c #84553A",
"&  c #8C563B",
"*  c #875A3C",
"=  c #8B5A3E",
"-  c #90573A",
";  c #925A3E",
":  c #865840",
">  c #8C5D42",
",  c #925E42",
"<  c #8E6145",
"1  c #8F644B",
"2  c #946245",
"3  c #9A6446",
"4  c #946549",
"5  c #9B664A",
"6  c #96684C",
"7  c #9B6A4D",
"8  c #9C6D52",
"9  c #9F7155",
"0  c #A0674A",
"q  c #A26A4D",
"w  c #A36E53",
"e  c #A86F52",
"r  c #A47255",
"t  c #AA7456",
"y  c #A5745A",
"u  c #AC765A",
"i  c #A7795D",
"p  c #AD7A5D",
"a  c #B0775A",
"s  c #B27B5D",
"d  c #B87D5F",
"f  c #A77D64",
"g  c #AD7D62",
"h  c #B47E62",
"j  c #B87E62",
"k  c #B2805F",
"l  c #AE8163",
"z  c #AF876D",
"x  c #B58264",
"c  c #BA8365",
"v  c #B68867",
"b  c #BB8867",
"n  c #B58569",
"m  c #BE866B",
"M  c #BD8669",
"N  c #B9876E",
"B  c #BC866C",
"V  c #BD876D",
"C  c #BF876C",
"Z  c #BC8669",
"A  c #B78A6D",
"S  c #B6896A",
"D  c #BD8869",
"F  c #BE896A",
"G  c #BF886A",
"H  c #BF8A6B",
"J  c #BB886D",
"K  c #BE886C",
"L  c #BD8A6D",
"P  c #BC896E",
"I  c #BE886E",
"U  c #BF896F",
"Y  c #BD8C6E",
"T  c #BF8C6F",
"R  c #BD8A6B",
"E  c #B98A70",
"W  c #BD8B70",
"Q  c #BE8C71",
"!  c #BD8E72",
"~  c #BC8E74",
"^  c #BD8D71",
"/  c #BD9073",
"(  c #BE9174",
")  c #C08567",
"_  c #C1876A",
"`  c #C08B6B",
"'  c #C0886D",
"]  c #C18A6C",
"[  c #C08B6C",
"{  c #C28B6D",
"}  c #C08A6E",
"|  c #C18B6F",
" . c #C28A6F",
".. c #C18C6D",
"X. c #C38C6E",
"o. c #C48D6F",
"O. c #C28B6D",
"+. c #C98D6E",
"@. c #C1906F",
"#. c #C8906F",
"$. c #C08A70",
"%. c #C38B70",
"&. c #C28C70",
"*. c #C38D71",
"=. c #C18E71",
"-. c #C28F70",
";. c #C28C72",
":. c #C48C71",
">. c #C58E70",
",. c #C68F71",
"<. c #C58D72",
"1. c #C48E72",
"2. c #C58F73",
"3. c #C68E73",
"4. c #C78F74",
"5. c #C38D71",
"6. c #C98E71",
"7. c #C79072",
"8. c #C39274",
"9. c #C69376",
"0. c #C59474",
"q. c #C49274",
"w. c #C89173",
"e. c #C99274",
"r. c #CA9277",
"t. c #CB9677",
"y. c #CA9375",
"u. c #C69877",
"i. c #C69779",
"p. c #C59579",
"a. c #CB9679",
"s. c #C6997A",
"d. c #CC997A",
"f. c #CD9A7D",
"g. c #CE9B7E",
"h. c #CC9D7F",
"j. c #CD997B",
"k. c #D19779",
"l. c #D19B7D",
"z. c #C79780",
"x. c #CD9B80",
"c. c #CD9E82",
"v. c #CC9D82",
"b. c #D39E81",
"n. c #D89F82",
"m. c #CCA087",
"M. c #D2A387",
"N. c #D5A183",
"B. c #DAA486",
"V. c #D9A689",
"C. c #DDA589",
"Z. c #DFAC8F",
"A. c #DDA88C",
"S. c #E1AB8F",
"D. c #E7B092",
/* pixels */
"s x t s s s s s u a p s h p u p h c G G ,.2.,.%.=.=.P W Z i l n 4 6 y g 8 n E * y g h h h s s s u t t t t u s x P Z P B h s x p y ",
"s s s t s t j s s s s s h h p h c Z Z G ,.,.,.,.] =.J h n Q y 4 / A 4 4 > ~ % y g y h c h h h e t u u u t t s x c P =.B h h x h y ",
"s r u s s h s t h s a a s p h c Z G G ] ,.,.] ,.=.P Z Z Q y 8 c.6 2 M.7 9 > 8 f y h j n c s t t u u u u u s s x x P %.Z c c x s k ",
"$ ` u s a u s s h s u u p p h Z ] X.] 7.w.,.Z B h Z c P h 7 x.h.T p.w x 4 > B r y n j h c u q t h u u s x x x s Z P Z Z ] G h s s ",
"c x c u x h s u s s u u s s h Z o.,.,.w.w.] c Z ] c =.p w =.x 8.T 0.6 y Z.w , g h p p g p u u w p u s x c x x x P B c B ,.G s s s ",
"t.x c s t s u j a a u u a u s c ,.7.,.X.] Z c Z c ,.t 3 S.7 3 f.j.=.f.7.,.V.w , t t t t r y t t w u h c x s x c B B P =.] c h x s ",
"w l., 2 h j h u t u t u u t u h ] ,.X.Z M c M ` ,.e u C.j.,.a.] X.7.,.7.k.q t h q t t w y w w p w u h x x x c G Z P =.%.c x h p x ",
"c u h s c s t s u u u u s u u x M X.] c c c M ] e t ] s 2.,.a.w.,.t.,.t.a.u u b.w 7 w p w y i w y u p x c c Z G B %.=.Z h x s w O ",
"w.h e a.h c h t u u t u t s s s s s c c c c r.3 t B.0 q l.w.w.w.r.k.r.o.6.w.,.) C.h , w y w y r p t i t x x X.G %.%.h n j h h s n ",
"Z r.h e b.@ r x u t s t s h s e s t u c ] c 7 Z S.] n.t.] k.] y.o.w.w.o.] ] o.w., q %.& w i y i x r r u 7 k G G B Z j h h r c =.7 ",
"w.c 6.s 3 c h u s s t u s j c h u t c c c r c s u k.o.,.k.X.+.X.M ,.r.t.y.o.o.w.` u w.x , w i y y h t u t T G G j j c h j @ u 3 G ",
"X.] o.X.h e 7.c u h s t t p h h h j c ` q x B.5 r l.,.o.k.y.k.c Z ,.r.j.l.k.6.o.o.t.P 7.x 2 9 i w p u r x H c c Z h j Z ] ] 3 w.w.",
") +.6.] ,.s 3 ,.o 5 =.p s s h c h h c 3 r.B.X.N.l.7.j.a.6.y.+.O.X.0.r.r.a.k.t.o.o.Z f.2 w 8.> y g t p s p s c c h j @ t h 3 7.o.+.",
"6.) 6.) ] ,.c 7 h P u p h x c j x u 3 l.q t r.o.r.,.X.w.w.X.+.6.G r.j.r.a.k.t.w.w.] =.Z p c.Q > r g x s r s c c B Z h t q w.,.#.w.",
"+.O.X.6.o.` ,.u t T n J n g h Z u 5 T N.r n B.j.7.G a.w.X.k.y.O.c 0.j.j.a.a.r.r.t.7.X.8.p.J c.n 7 p p r t s s u & P h q 2.r.,.w.w.",
") +.X.M 6.M X.7.u 7 p.. r P g i 2 0.7.n f.r.J G c o.M c o.w.+.Z T 8.=.8.w.w.w.t.l.t.o.r.P 7.5 7 n 6 i y x r x w 5 w w ] ,.) ) X.X.",
"Z ] o.] ] o.,.] w.u 7 x g n g < p.> 7 7.G G 7.Z M M ) ` ] ] G Z J 8.7.=.,.7.r.a.l.r.w.%.7.w.Z n v.f 6 f i 7 r ,.5 p ] o.X.) ) c ) ",
"] 7.w.X.) ` ] ] o.7.p r 8.f 1 v.p.y l 0.=.] X.` ` ) M M G ` G J T 0.p.7.r.p.r.a.w.a.l.2.B ,.,.7.+ z 1 l g % i 5 h c ` ) c ) O.O.) ",
"7.p.w.o.Z Z ] o.G G 1.u 8 8 m.p./ S 8.0.7.X.M ` ] Z c c M Z Z Z T 0.p.0.p.p.7.7.b.a.j.w.w.7.Z p.( l 8 % l g , x B B ) Z ) c c c M ",
"7.r.r.,.] ` X.,.] ] a.=.4 v.O i / 8.0.8.X.X.M G X.Z c x c c Z Z T 8.p.0.p.p.,.=.,.l.,.%.] ] p.=.( % i 8 y 4 W Z Z Z Z ` ) c j j j ",
"0.7.7.8.X.X.] X.,.Z 7.7 p.f.l J 0./ 0.@.` ` ` ` ] G M c Z B B Z 8.p.p.0.s.p.7.8.l.l.f.c p.s # h.r p 8 4 7 Q J =.B Z M Z M c c Z P ",
"0.8.7.7.7.X.G G =.,.5 P p.W 9.p.s.T T H J ` ` G Z M c c Z Z B n 8.p.p.0.p.0.7.7.] j.P 2.7.P ] t p u.Y g 8.P 7.x Z Z Z Z M c c Z x ",
"8.8.8.7.=.P Z Z Z 7 a.4 8 p.1.7.8.H H b J H M G Z c Z c n n B J 8.p.8.8.0.8.7.p.p.T Z P a.f.Z w 0.n J =.T n X.c c G G G G c x x Z ",
"8.8.8.0.=.Z c Z 7 c a.g Z 9.7.p.G @.H n T X.c X.G G Z n n Z W 1.8.p.8.8.0.8.0.s.7.h =.r Z p.5 7.X.c T J b H G X.] ] G G c c c x x ",
"8.8.0.T P x 7.7 x b.j 7.,.p.=.=.X.H G G H T ` G T T T G B J 1.9.Q u.8.( s.s.8.8.T P =.& s e s X.G D M G ` X.X.G G G G G G X.G c x ",
"u.8.J J Z 7.7 x w 5 =.Z f.7.P Z X.G H T T T ` G G G G J W Q 8.p.p.8.m.8.u.S 8.Y Z J Z b.u t 7.G Z M M G G G G G G G G G G ] G c Z ",
"8.v T J 8.r u b.h r 7.p.a.] ,.P G G X.X.T T P P T J J J Q 9.p.p.p.s./ / u.u.s.n =.n f.Z 5 Z c w.x M Z Z M G G ] J J G G G G G Z G ",
"Y T J T i w A.Z 7.2.=.b.P Z ] ] P G G G G T T T G G J Q 9.p.s.p.s.Y 8.u./ 8.p 8.6 % p.2 Z w.B c c M G Z c c G ] G G G G G G G G G ",
"J J 8.p w x & f.=.=.r.2.] =.G ,.Z Z c Z P =.X.P H T Q 8.0.p.p.p.8.u.u./ s.Y Y 8.T 7.5 h %.] c %.) ` ` Z c x c G P G G G G G ` G 7.",
"J 8.x 2 M.x 8 n Q f.2.] =.Z ] G Z n c Z P =.T G T 8.0.0.p.0.p.p.p.8.8.u.Y Y p.x s.r u =.m s a.h M Z Z M c c Z G P G G G G G ] X.0.",
"7.p 8 b.P 1.7.a.9.b.Z P c x c x c c Z Z Z P T X.8.8.0.0.0.0.8.8.p.p.8.S Q n X 8.x w ,.c c %.) c c c c c Z Z J Z G Z Z G ` ` X.7.7.",
"x 4 J = 9.J Q 7.a.J p.x c X.c Z Z Z B c x Z X.0.8.7.0.8.0.8.0.8.0.p.Q Y Y n g g 5 7.h Z ] ' m c c c j c c Z x x Z c M G ` ` o.7.7.",
"4 p.n 8 J =.a.7.7.7.=.Z c c Z Z c c c x c X.7.0.7.s.0.8.8.j.X.s.u.S T 0.J 7.p.5 ` Z Z ` X.) ) c h j c m c j x c M ` c M ) ) w.,.r.",
"s.p.p.p.p.=.r.a.w.] Z Z Z c Z Z Z M c c X.7.r.j.j.X.8.r.X.j.r.0.8.Y Q = p h.3 ] Z Z ) ) ) c c c h c c Z M c c ) M ) X.O.) X.,.w.,.",
"4 i 8.Q J f.j.r.X.c j Z P c j c P G G X.r.j.l.l.b.l.r.r.s.0.J 8.Q p.n 2 =.7 h ] ) ) Z ) c c c M c c m Z ) Z ) X.6.O.6.+.w.k.o.] X.",
"8 J P Q =.0.7.7.G x c %.=.Z x Z =.G X.r.l.l.l.l.r.N.j.r.h.7.c r.h.Q 8.p.5 x ] Z ] ) Z M c c ) X.c c m Z ) ) X.+.y.6.y.y.k.l.,.` G ",
"9.9.x n ] p.7.,.G G ] %.%.%.B B ] G X.a.b.b.l.l.j.a.l.j.7.=.7.T 7 Q 8.7 Z ] o.c ] Z c M Z Z ) ] G Z M Z Z ` X.6.+.k.t.t.w.,.w.w.7.",
"= =., 2 7.] M Z ] ] ] Z B B %.] P X.7.j.b.b.l.l.l.l.j.r.r.8.0.G 2 Q 6 2 Z Z ,.c ) M M ) ` Z c c ` Z Z ` ` ] o.6.w.k.+.y.w.o.t.7.h ",
"h 2 Z ,.P 7.Z ,.] ] Z c c B %.' =.w.j.l.l.l.l.j.r.j.r.7.r.X.a.j.f.7 t u 2 c c X.Z Z Z ` ) c c j Z Z ` o.,.,.6.w.t.w.X.o.t.t.o.x 7 ",
"c s , =.P , 2.c ] B Z Z B %.%.B 7.j.N.N.l.l.l.j.j.X.j.j.c s j.a.5 x , 5 j.2 u ] ) ) ) ) M c c c M Z ] 7.y.w.w.w.o.) 6.o.w.w.s r 7.",
"s c x 3 x 2 c P c c B j B c B ,.w.j.l.l.j.B.r.r.r.j.w.r.u 3 l.3 s X.x Z G w.q u o.c x c Z Z h M j Z ` t.a.X.,.w.o.w.,.w.j.0 u q u ",
"c c G t , a.p.] c B j 2.2.h c 4.w.N.r.r.l.r.r.7.r.7.r.X.B.w.3 c G u G u c u s 0 t ] ) h s j ] x j x a.o.G t.w.w.,.X.l.w.0 x ,.& p ",
"w.x s s c ; 7.h , h B c h B 2.Z w.l.b.a.j.7.j.r.w.t 0 C.c 2 Z ] c c M M w.; - k.q q ' ] c s Z s x M c t.k.X.w.%.=.f.c 3 Z Z Z c h ",
"x ] x u c h , h w x c c j B c j 7.,.b.j.7.r.r.` k.t h x q X.c h Z c h M s ] c s ] q u ' h Z p M c M ) c X.a.2.,.l.x 5 ] @ h s c P ",
"x X.c c p Z Z , 7.=.h g 7.2.%.Z =.X.x 7.r.r.t.w.,.D.s e X.M x c u x s s c j s ) u t e 5 j c Z M o.c h s m B P b.p w r.r q c c ,.o.",
"` ` x M x p p r = p.2 , 2.x 2.c Z h j.7.j.j.$ u C.5 s M s ) M s s x s s x h j j q - ,.3 e ' c c M ) ) ` h ] b.w w Z h %.Z ] B ] ] ",
"D x X.c Z p x n i > x J g Q =.=.Z j.X.,.j.7.` ` q u Z c ` c s s x M x ) s j c j c c s %.q q B c h +.X.x j.,.7 h n . B h P P ] Z c ",
"c ` c G ] x x g g g , Q p.u B 8.=.Z p.c P N.7.5 u ] c c c x ) a h Z ` G ` s c j j s h s 4.5 w ] Z c %.w.u w Z 2.h h c %.P =.c j h ",
"J P ] G Z G c s h h x , Q 4 9 p.W J Q # 7.P 3 Z M c x x c c c s h Z ] ] o.G x h j c j h   n w y 8.1.9.r w h r c h B ,.%.Z c j h x ",
"Z Z Z Z Z G c h s c h p 7 W ( ( W J p.M.y w B Z h h j j c c c s h Z P P ] G c c c j m s x h 9.7 f z.8 y B , , Z Z ) Z c h h j c c ",
"x x x c Z G Z Z h s h x g 4 ( A % b.T , r P j s a s s s s j s s h Z Z n c c M G c a j ] p h P 8.8 : f n x x h s c x s s a s h h s ",
"x x x n Z G G ] G c p h x g > i h r = n s s h p a a a s s s s u h n n x c c Z ] c X.a c j c i   E y > % h u u h u s s s s s u t u ",
"n n x n Z Z G ] P c h x h g < y r 3 Z p c h u s s s s s s s s u c Z Z n c Z Z ` X.) c c M s c i g ~ > 8 i u p s u p s h h s u t u ",
"Z Z n x c Z G G Z h x x y 2 W y o G u p s x s h s s u u u u u p n J J n c c c M Z ) X.d t o.s x n n A 4 g g h p s s s s u t t u u ",
"n Z n x x Z P Z P Z g p 2 Q Q y t s s x s s h h s u u u u u i p n J Z n J Z x x X.` j c M s x c x 8 * 9 2 Z p p s p u u u t t t t ",
"n Z n x x Z P Z Z p p , =.y g x s x h s s h s s h p u i i i i p B J S n G G c x c M j a s ) s x x n n 8 O 7 h p p u a s s u t t p ",
"J p n n n J x Z h u 3 7.h o u x s s s s s s s s s u u u u i g x Z Z n n v n b c c s x d c x s x g Q y % n g h h i h t u u u u u i ",
"v n n x x n P p r 3 =.Z u =.h s s k s s s s s s s p i u i i g v Z Z n S S S n n s s s c s Z x t # Q > 4 7 ( i = g r h h t e r p y ",
"n v x x W J u w 2 =.h s Z s s s k k s s s s s s s p p p i p x n Z Z n J J S n x u c a a c s s u x = y x 7 2 r > g p h u h p i r u ",
"v S J l x l 5 4 f.@ , x x c s s s s s s s s s s h s p h h x n S J Z J J J v x s s s j s j x u p.u 6 p t h 8 4 8.i g u y p u x i t ",
"Y i v Y l 6 7 p.p r s s u c h x s s s s s x h s h s p h n n n S J J J J v x k p h t h j s , x p , r i x y i 7 = ( > % x x i p u p ",
"l S l v 4 4 8.h j n s x Z u t x s s s s s x s s s s p x n J n Z J J J J x k p p s x s h h ; u , h t p t y g g y > y x i i v r g i ",
"l S l * i x . i h x u s x s s h s p s s s x s s s s h n b b n b J J J n k p p p p x s h j B , g t t h u r h 8 i y < p 8.y 7 g i p ",
"n p < y Q y r h h u c s a x s h p p u u s x h s s h n J J b b J J J Z x p p p s h h t w r., i u y h u r i w i i g i > y r # l i p ",
"g < y 8.i h x s s s u h p h h p t s u u x h h h x n J n J P Z J J J h s s s x p p n & 4 y 4 p r u u r r i r u y i y g < 4 ( g i i "
};
