/* XPM */
static char *b2236f617dd7421f993e66d2cf9981ccMQREdqhXtLOooHVo[] = {
/* columns rows colors chars-per-pixel */
"65 65 253 2 ",
"   c #38251C",
".  c #3B2C2C",
"X  c #382928",
"o  c #3D312B",
"O  c #332E33",
"+  c #3B2E32",
"@  c #353135",
"#  c #3C3234",
"$  c #3C343A",
"%  c #3B373B",
"&  c #361E18",
"*  c #50261D",
"=  c #432A26",
"-  c #432D2B",
";  c #4A2A25",
":  c #44332C",
">  c #58342A",
",  c #412F34",
"<  c #423434",
"1  c #4B3B35",
"2  c #43363A",
"3  c #443B3B",
"4  c #4A3C3C",
"5  c #483735",
"6  c #563A37",
"7  c #552E28",
"8  c #673629",
"9  c #673D33",
"0  c #73392B",
"q  c #512318",
"w  c #4C423C",
"e  c #56443C",
"r  c #67423B",
"t  c #774639",
"y  c #7E402B",
"u  c #3D3B40",
"i  c #443D42",
"p  c #4A3D42",
"a  c #553C44",
"s  c #454145",
"d  c #4C4243",
"f  c #4B474A",
"g  c #564846",
"h  c #5A5554",
"j  c #534E4F",
"k  c #694745",
"l  c #774C45",
"z  c #66534C",
"x  c #7B5349",
"c  c #685756",
"v  c #795956",
"b  c #654C5A",
"n  c #75645A",
"m  c #6A6259",
"M  c #695B64",
"N  c #736A6D",
"B  c #863A2C",
"V  c #913E34",
"C  c #84412E",
"Z  c #894736",
"A  c #974939",
"S  c #99523D",
"D  c #8B503C",
"F  c #A7583E",
"G  c #895648",
"H  c #9C5543",
"J  c #9C5B4B",
"K  c #955847",
"L  c #875C54",
"P  c #985E53",
"I  c #884E43",
"U  c #A34E42",
"Y  c #A35C4C",
"T  c #AB5E4B",
"R  c #A75745",
"E  c #A75E51",
"W  c #B65A51",
"Q  c #9A624C",
"!  c #8C6256",
"~  c #9D6454",
"^  c #976659",
"/  c #A4634C",
"(  c #AD624C",
")  c #A6674B",
"_  c #B2644C",
"`  c #B5694C",
"'  c #A46553",
"]  c #AC6453",
"[  c #A46B5B",
"{  c #AC6B5B",
"}  c #A76857",
"|  c #B46B54",
" . c #BA6C54",
".. c #B46D5B",
"X. c #BC6D5A",
"o. c #B56655",
"O. c #AC725B",
"+. c #AB7158",
"@. c #B4735C",
"#. c #BC735C",
"$. c #BB785D",
"%. c #B97357",
"&. c #BD724F",
"*. c #9A6B63",
"=. c #87776A",
"-. c #8C706B",
";. c #A86E62",
":. c #BA6E61",
">. c #AB7363",
",. c #A87669",
"<. c #BB7362",
"1. c #BC7B64",
"2. c #BD7C6B",
"3. c #B47866",
"4. c #A97872",
"5. c #B57B73",
"6. c #C2745D",
"7. c #C5795D",
"8. c #C6785A",
"9. c #C46A5F",
"0. c #C37563",
"q. c #C47B63",
"w. c #C97C65",
"e. c #CB7D69",
"r. c #C57C69",
"t. c #C57266",
"y. c #95847A",
"u. c #8D837B",
"i. c #BB826B",
"p. c #B98778",
"a. c #B08878",
"s. c #C58165",
"d. c #CC8365",
"f. c #C3836B",
"g. c #CC836B",
"h. c #CC896E",
"j. c #CD8867",
"k. c #D1856B",
"l. c #D28A6C",
"z. c #D5866A",
"x. c #CD8B73",
"c. c #CC8D7A",
"v. c #C78774",
"b. c #D28672",
"n. c #D48B73",
"m. c #D98D76",
"M. c #CB917C",
"N. c #D3937C",
"B. c #D99178",
"V. c #E6967D",
"C. c #C6805E",
"Z. c #8A8789",
"A. c #948B8A",
"S. c #8D8B94",
"D. c #8B8C9C",
"F. c #888796",
"G. c #938D94",
"H. c #958F97",
"J. c #8E919A",
"K. c #93929C",
"L. c #979798",
"P. c #97928A",
"I. c #AA9789",
"U. c #B3958B",
"Y. c #B9A799",
"T. c #AEA593",
"R. c #8B8DA2",
"E. c #8B88A5",
"W. c #8B91A4",
"Q. c #8C93AA",
"!. c #8B98AB",
"~. c #9395A4",
"^. c #9699A8",
"/. c #959CB3",
"(. c #8E95AF",
"). c #9CA6B7",
"_. c #95A2AE",
"`. c #A7A9AB",
"'. c #BAADA7",
"]. c #ACB3AD",
"[. c #ACB4A9",
"{. c #B4B4AC",
"}. c #B9B8AC",
"|. c #A5ABB4",
" X c #AAACB3",
".X c #A3A9B9",
"XX c #A8B5B8",
"oX c #B4B4B3",
"OX c #BDB5B2",
"+X c #BDBABC",
"@X c #B7BAB6",
"#X c #B1AFB2",
"$X c #9EA39D",
"%X c #CA9A84",
"&X c #D59782",
"*X c #CC8B83",
"=X c #EA9B83",
"-X c #DAAC97",
";X c #CCAA93",
":X c #C8B5A8",
">X c #D6BAAA",
",X c #C3BBB5",
"<X c #C3BBBC",
"1X c #C7BAB6",
"2X c #D2BDB2",
"3X c #C4AEA4",
"4X c #E5BBA5",
"5X c #E1B49E",
"6X c #B9C1B3",
"7X c #BEC1AF",
"8X c #DBCAAC",
"9X c #D8C6A9",
"0X c #DFD1AE",
"qX c #CBC4BB",
"wX c #C7C5B6",
"eX c #D4C3B4",
"rX c #DDC4B4",
"tX c #DDCCB4",
"yX c #D3C5BB",
"uX c #DAC6BB",
"iX c #DBCBBC",
"pX c #D4CABB",
"aX c #DDD3BB",
"sX c #DDD2B6",
"dX c #C9C2AC",
"fX c #E7C6AB",
"gX c #E3D2AE",
"hX c #E5CDB4",
"jX c #EACDB3",
"kX c #E3CDBB",
"lX c #EACEB9",
"zX c #E7C5B3",
"xX c #F2CAB4",
"cX c #E4D2B5",
"vX c #E9D3B4",
"bX c #E4D2BB",
"nX c #EBD4BB",
"mX c #E9DABB",
"MX c #F3D4BD",
"NX c #A8B5C5",
"BX c #9FAEC3",
"VX c #C0BEC3",
"CX c #C8C7C3",
"ZX c #D4CBC3",
"AX c #D8C9C2",
"SX c #DDD4C4",
"DX c #D8D5C5",
"FX c #E3D4C2",
"GX c #EBD4C3",
"HX c #E1D4C9",
"JX c #E7D9C6",
"KX c #EED7C2",
"LX c #E4E1CE",
/* pixels */
"XXXXXXXX@X6X6X}.wXwXwXwX6X7X@X}.7X7X}.[.[.{.{.`.$XL.L.L.K.G.D.D.D.F.F.F.F.F.F.S.J.F.Z.S.L.L.L.H.L.H.K.~.~.~.^.|.|.|.|.|..X).BXBXNX",
"XXXXXX].].6X6X6XwXwXwXwXwXwXwX,X[.}.dXwX}.{.{.{.`.$XL.L.^.L.K.K.~.K.D.K.K.D.D.S.Z.Z.K.K.Z.Z.A.L.L.L.L.L.~.~.^.`. X X X X|.).).)..X",
"XXXX].].@XCXDXDXDXpXDXDXZXpXZXpXSXwXdXwXwXwXwXZXZXqX<XCXCXCX+XoXL.G.F.S.K.^. X+XCX+XoXoX+X+X@X{.OXOXOX@X@XoX@X+X<X,X<X+XoX|.).).).",
"@X6X@X@XwXDXLXLXSXSXSXSXSXSXSXSXJXaXaXaXJXSXpXpXZXqX,X,XoXL.N h f i % % s j M N Z.L.@XZXDXZXZXZXZXZXZXDXDXDXZXZXZXZXZXZXVX X).)..X",
"oX@X@XoXwXDXJXJXbXbXbXbXkXbXbXaX8XsXbXtXtXsXiXdX'.u.z < . # 3 p 2 # 2 3 2 # # # d w w m P.'.qXyXuXyXeXeXyXiXpXeXiXiXiXAX<X X/.)..X",
"oX@X@XoXwXDXFXsXbXcXcXcXbXbXbXkXmXmX0X8XsXbXY.=.1 : X o 3 3 2 2 4 3 4 s 4 < < < o 5 1 # o g u.:XAXkXuXeXeXeX8X9XtXtXiXAX<X X^.)..X",
"@X@X@X{.wXSXJXsXcXvXvXvXnXbXbXcXcXbXcXcXsXY.n   o o < 4 4 3 2 2 2 # # # < 2 4 g w w w w w 1 w e T.:XuXkXtX8X8X8XgX8XtXiX<X`.^.)..X",
"@X@XoX[.OXSXJXsXcXcXcXvXvXcXtXtXtXsX9XT.=.z : o : : < < # + # 3 3 2 4 s 3 # # 3 w 3 2 3 4 w 4 w 6 -.Y.2XeX9X9X9X8X9X8XiX<X`.^./.).",
"XXXX@XoXwXDXaXbXcXgXmX0XcXmX9XsXbXT.n :   : 1 X o # # $ $ $ % % % # @ @ @ @ # 3 3 3 2 % # 3 3 2 < : z T.iXdX:X0X8X8X9XpXOX^./././.",
"XXXX@X].7XDXaXcX0X0XvXcX0XcXsXaXT.m o o o X X X # # $ $ $ % $ % % @ @ @ @ @ @ % % % % % % s i 2 2 4 w z y.:XtX9X8X8XeXpX+X^./././.",
"XXXXXX].7XDXaXsX0X0X0XvX8X8XbXeXn 3 X 3 4 o o 2 # # # $ $ @ @ @ @ @ @ @ @ @ O @ @ % u u s f s i # d d # g P.dXdX9X8XeXZX+X^./././.",
"XXXXXX[.7XDXaXsXcXvXcXmX8XtXaXT.w 3 4 4 # # # # # # # $ @ O O O @ @ @ @ @ @ O O @ $ % u i f s i i s j f d n T.dXeXeXeXZX+X^.(.(./.",
"NXXXXX].@XDXaXbXcXmXcXbXtXbXeX=.w j h d + $ 3 + + # # # @ O O O # @ O X O @ @ O % % % % i s s i j i d h h m A.dX2XeXyXZX+X^.^.(./.",
"XX|.XX`.OXSXbXbXhXnXvXkXbXJX'.z c j g f p 3 3 + + + + + . O O X # . X X O # # + $ 2 2 $ 2 p d p s f f j j h u.yX2XyXeXZX<XL.~.^.(.",
".X).|.`.OXHXFXbXhXhXlXzXkXiXy.1 a , + 2 2 + . X . . . . . . . . . . . . + 5 5 + < < 2 2 4 p p p $ j f f j f N '.2XuXeXAXOXL.~.^.(.",
")._.).$XOXSXbXbXnXzXlXzXFX2Xn - + , p p , < < . . . - = = = = = X X = - : 6 5 - - : 5 5 4 a d p d j i s M j g =.2XuXeXAXOXL.~.^./.",
"_._._.^.@XSXiXkXhXhXhXGXGXT.g < 2 $ + $ < + . X & = 6 6 6 > > 7 ; = * * ; > 9 r r r 6 6 1 5 4 p p d f j j j h z Y.2X2XAXOXG.^.~./.",
"_._._.L.@XSXbXhXhXhXhXkXiXy.1 X + + # 2 < . = ; 6 k L ! ! ! ! G ! x r 8 8 t G ^ ! L L x k 6 1 5 4 4 p s f j h c Y.eX2XAX,XG.^.~.Q.",
"!.!.^.L.}.HXbXnXvXhXnXrXeXn . X X . , , - ; > 9 x ! [ ,.3.i.3.3.5.,.^ ~ ~ [ O.>.>.>.;.^ L l r 6 1 4 p p s f h c T.eXeXAX,XH.~.~.Q.",
"!.!.W.J.{.HXbXnXnXrXnXtX2Xg . . . . X = ; > t G K ~ O.1.i.i.f.i.3.3.i.i.f.i.1.$.1.3.3.,.,.^ l r 6 4 p p i s f g y.:XeXAX1XH.~.~.(.",
"(.Q.J.G.{.HXbXbXnXfXnXkX:Xe : . X X = 7 8 t K / ) %.s.h.h.x.x.v.f.s.s.s.s.d.g.d.h.f.i.i.3.O.G r > 5 4 4 p s w w n Y.2XAX1XK.R.Q.Q.",
"!.W.J.S.{.HXbXcXnXhXhXkXY.1 o X   = > r I K Q ) %.C.l.l.h.n.n.x.x.h.d.s.s.j.z.z.l.j.s.s.s.3.Q D > 7 5 2 4 s w w z Y.2XAX<XK.R.W.W.",
"Q.W.D.S.{.HXbXkXhXnXkXFXI.1 o X X 7 r G Q Q ) ` &.8.d.l.l.x.x.x.v.x.l.l.l.z.j.d.z.j.d.s.s.$.} ~ l r 6 5 4 g g e z 3XeXAX<XK.D.W.W.",
"W.R.D.G.'.HXbXkX8XnXcXKXI.1 < X ; 6 x ! Q / ) &.&.8.z.z.l.N.N.N.x.x.h.l.l.l.z.z.j.l.k.s.$...] } *.L k 1 4 g g g z :XuXAX<XK.D.Q.R.",
"R.R.K.Z.,XSXbXbXhXcXkXkXI.: 5 - ; r L G K / | %.%.7.j.h.x.N.N.c.x.x.x.n.n.h.g.g.g.d.s.s.s.1.+.~ ^ *.v 6 4 d d g z :XuXyX<XK.R.!.W.",
"R.R.K.Z.,XSXkXcXhXcXkXkXI.- - = 6 l L ! ~ { +.| $.s.n.N.N.N.&XN.N.c.x.x.x.x.h.h.N.N.x.v.i.1.3.O.^ *.L k 4 4 w e c :XuXAX<XK.D.R.W.",
"W.R.K.Z.,XSXbXbXhXhXkXtXI.= X - 6 l L ^ ^ >.3.3.f.x.&X&X&XN.M.c.&XN.c.x.x.c.x.c.f.v.c.c.v.3.>.[ ;.*.-.z 4 4 d e c :XuXZX<XK.D.R.W.",
"Q.R.~.Z.,XHXbXbXhXhXbXkXU.: - k x ! ^ ! G G ~ [ [ 3.i.v.v.c.&X&X&XN.N.N.N.N.N.c.c.M.v.v.p.5.,.;.^ ^ ! v a 4 g g n 3XuXAX,XH.D.W.R.",
"W.R.~.Z.,XSXbXbXcXcXGXkXU.6 6 v *.! I 9 8 8 8 8 * 8 0 D J { i.c.N.N.N.N.&XN.v.i.v.>.K t t t t t t t v v g g g g =.:XuXSX,XG.K.W.R.",
"R.R.D.Z.OXDXiXkXcXhXnXkXY.6 7 L G t 7 * 8 t t t 8 8 0 0 Z K } <.N.N.N.&XN.c.2.O.' I 0 8 8 0 0 8 8 8 k v c g g g P.2XiXHX,XH.~.R.W.",
"R.R.J.Z.,XDXsXkXcX9XhXkX:Xz > L G t y I ^ a.U.a.a.,.^ ~ ' } ..$.n.n.N.N.N.x.3.} [ ^ ^ [ ,.4.,.*.G l k k c g d g '.uXuXHX<X$X^.D.^.",
"W.W.K.Z.,XHXbXbXnXrXlXGXzX! r *.^ Q ~ [ ,.4.a.a.a.4.*.[ } { ..#.n.l.n.B.B.c.2.>.;.;.>.5.p.U.U.U.p.*.l k z k e z 2XkXeXHXZX`.`.J.~.",
"W.D.K.Z.1XFXkXhXlXzXrXGXzX-.r ! ^ ~ ~ ' ^ L x x l l I G K Y ] | w.k.n.n.g.q...' P P K L *.*.4.4.,.*.! L v l ; -.rXeXeXSXqX`. X_.D.",
"W.D.K.A.1XFXkXhXlXhXzXlX:XL 9 ! ' ~ I 0 8 7 * q q t P P I K Y T  .7.d.w.0...E K K P I 9 8 k l l G L ^ ^ L t 7 a.rXrXrXSXqX`. X|.^.",
"W.D.G.A.1XFXkXhXhXlXlXzXU.l 8 ^ ' ' K 0 0 t t 9 * G 5.>.J K Y T _  .7.6.X.] H A J ' G 8 * r l t t I ^ ^ L t > ,.>XrXuXAXwX`. X|..X",
"R.D.G.Z.1XFXcXcXhXlXnXzXU.t t >.:.@.' K D K G I I ^ >.} J R R F (  .7.6.| ( R H E >.' t 0 L ^ G t D K P ^ l 8 L ;X>XrXiX1X`.`. X|.",
"R.D.G.Z.1XFXcXcXhXhXnXfXU.G I :.<...{ ' ' ~ ~ ~ >.[ } ] ] T T _ _  .6.#.` ( T T ] ..[ ~ P ^ ^ G K K P ' [ I 0 l p.>XrXuXqX`.`. X|.",
"R.D.G.Z.1XbXcXcXcXgXjXfX%X~ J ..#. .| #.1.2.v.c.c.v.r.q.#._ _ o._  .6. .( T T ( #.<.2.2.i.3.[ ~ ' } :.;.} Z t G a.>XkXiXZX{.`. X|.",
"R.D.G.Z.1XbXcXcXcXgXjXfX%X+.{ X.w.q.q.q.q.h.x.x.x.x.h.q.o.T F R _ #.q.#._ T T ( 6.r.x.N.N.c.v.2...:.2.;.} Z K ^ p.fXkXiXZXOX`. X|.",
"R.D.G.Z.1XbXsXcXgXfXjXfX%X1.#.6. .7.d.q.d.B.B.n.h.l.d.6. . ._ F  .q.g.w. .( ( _  .w.b.b.v.x.v.f.r.<.<.] ] Z J P p.zXkXiXpXOX`. X`.",
"R.D.S.A.qXFXmXgXgXgXjXfX&X@.| 6.6.8.7.w.j.l.l.k.d.d.d.w. .F F ` k.q.d.m.w.T R o.6.w.k.k.n.m.n.n.0.r.X.:.] J { [ 5XjXkXFXqX{.`.`.`.",
"R.D.S.A.wXaXcX0XgXgXfX4XN.@.(  .6.6.7.7.d.k.l.l.B.m.z.7.&._ _  .d.n.B.B.e.| _ _ q.k.n.n.n.n.n.h.r.e.<.:.{ } 3.p.4XxXnXJXqX{.oX`.|.",
"R.D.F.Z.qXbXmXcXgXgXjXfX%X1.| #.$.6.7.7.d.j.n.m.n.n.d.8.6.6.6. .q.B.V.n.0.#.X.o.w.k.n.n.n.n.h.d.g.r.<.] } ' [ %XfXMXGXJXyX{.oX X X",
"D.D.F.A.qXJXKXmXcXvXjXfX;Xi.O.| $.$.7.d.d.k.n.m.V.=XV.d.6._ F A | q.w. .T ( o. .q.k.n.m.m.m.n.h.q.<.<.' ' ' P %XfXMXnXHXqX{.#X X X",
"R.R.S.A.yXJXKXnXvXjXjXfX;Xa.[ ) $.$.7.d.k.k.z.m.V.=X=Xz.6._ T F ( _ | _ R F T  .w.b.m.B.m.m.x.h.1.@...Y } ;.>.4XzXnXkXSXqX`.#X X X",
"Q.~.K.H.yXGXnXvXgXgXjXhX>X;Xp.p.i.$.$.d.k.d.k.n.n.m.m.k.w.w.d.k.0.6.w.d.0.o. .w.k.m.B.B.N.n.v.f.1.@.' J ' >.p.4XjXnXFXHXqX`. XXX|.",
"W.~.K.H.yXGXnXgXgXgXvXnXvXfX4X4Xv.1.$.q.d.w.e.k.m.b.k.d.w.q.w.g.n.k.m.B.n.w.0.e.g.n.B.B.n.v.s.1.+.+.' ' [ 5.;X4XjXnXFXHXCX]. XXX|.",
"D.D.S.P.yXGXnXhXvXhXhXhXhXzXfXfX%Xi.@.$.q.q.q.e.w.#.X.0.e.0.0.e.e.e.e.e.0.#.:.0.0.e.b.b.h.g.q.$./ O.[ i.p.%XxXjXjXnXFXHXCX`.|.|.|.",
"R.D.S.L.DXJXKXhXhXhXhXhXhXhXjXxX-Xi.$.$.%.6.q.6.#.X.<.:.:.:.X.X.9.9.9.t.0.<.<.#.r.#.0.g.r.q.#...@.Q v.xXzXzXMXjXhXbXFXSXqX].|.XXXX",
"D.D.S.H.ZXJXnXcXcXhXhXhXhXhXhXjX4XM.O.%.$. . .X.o.R A V A U W W W W W o.o.] ] ] T T o.0.6.6.#...' [ %XxXjXjXnXhXcXcXFXSXqX].|.|.XX",
"D.D.S.G.pXFXbXkXvXcXhXhXhXhXjXjXfX%XO.+.7.#. .q.6.T A B B V V V A A A A A B C Z A R _  .X.#.%...J i.-XjXlXlXvXhXcXcXbXSXqX].|.XXXX",
"R.D.S.A.qXFXbXcXcXvXjXjXhXhXjXjXfX-Xi.) $.7.#.w.w.X.E R R R R W U U U A Z B Z S R o. . .X.X.| ) Q %XfXjXlXnXhXcXcXcXbXSXqX].|.XXXX",
"R.D.S.A.qXFXmXvXcXvXjXgXhXhXhXjXfX4XM.) ) %. .6.e.0.o.Y R U R R R R R U S A H ] #.w.6.X.X.| / / 3.5XMXzXhXnXhXnXcXcXbXSXqX#X|.XXXX",
"R.D.S.H.pXFXmXvXvXvXvXcXhXhXcXjXMXxX%X+.) ` o.| #.0.<...T S A A U U H H H H ) ..0.r.X.o. .( Y O.%XfXMXzXhXkXhXvXcXcXbXSXqX#X|.XXXX",
"R.R.S.H.yXFXnXvXvXvXvXcXgXgXhXhXnX-Xp.O./ / _ _ o.X.r.b.b.g.w.w.0.X...#.1.$.1.q. .6.| ( | Y ' c.4XjXlXhXhXbXcXvXcXcXbXSXqX#X|.XXXX",
"E.D.D.H.yXFXcXcXvXvXvXcXhXhXhXhX>Xa.^ ~ K S / ( #.#.#.0.e.b.m.B.=XB.x.n.N.v.q.#.| #.o.] ..Y O.-XzXjXhXkXnXnXnXvXvXcXbXSXqX#X|.XXNX",
"W.E.F.A.qXFXcXgXfXgXvXnXcX8XkXKX3Xv *.^ } Y S R |  .#.r.g.b.n.n.B.&X&Xx.v.h.f.q...] T H J J ;.-XfXlXkXtXcXnXvXnXvXcXbXFXOXL. XNXNX",
"E.E.S.G.yXFXnXcXMXvXgX8XhXcXkXrX4.6 L L [ ' S S S R ] @.q.g.b.h.h.x.c.v.s.1.$...] R H H K G ,.xXfXbXbXkXbXbXcXvXvXvXbXFXOXH.`..X.X",
"E.E.D.P.yXFXnXvX9XgXvXhXnXGXrXY.v 5 x L ;.{ / H A A S H ( ] | | 1.f.v.i.@.+.) / S A H Y P G *.>XrXkXkXbXnXcXhXnXvXnXbXHXOXG.~./..X",
"E.E.D.G.qXiXbXcXvXnXbXrXkXkXY.=.b 6 v *.,.>.{ ] H S Z Z Z Z Z Z A H K K D Z Z Z S H E } [ G L U.rXkXkXkXbXcXhXnXvXnXnXJXOXS.W.^.).",
"E.E.F.A.qXaXnXvXhXnXkXkXJXuXy.1 c p k L 5.3.....E Y H A Z Z C B 0 0 C C y C Z S ] ] ;.' ^ L l ! >XkXkXtXbXbXcXnXvXnXnXJXOXG.W.Q.Q.",
"E.E.F.A.yXJXnXnXnXnXGXuX3XA.c . M a 6 k 4.5.2...E Y Y Y ] ] Y H J J J J K H / { ..2.2.;.*.L r k T.eXbXkXbXbXcXvXvXnXnXJXOXK.W.W.W.",
"E.E.F.G.ZXFXkX8XnX>XI.-.g . . < b b a 6 ^ 4.v.<.E Y Y ] :.1.1.<.2.:.{ ' / J / | :.r.*X5.*.x 6 g n Y.kXbXbXbXvXvXvXnXbXHXOXK.W.W.W.",
"E.E.F.G.yXiXeX:X! e &   - . X + p M b 7 k P v.2.{ E J Y ] <.r.r.2.:.{ } ' / ] ..v.c.*X4.L r 5 v - y.uXbXkXbXvXvXnXbXbXHXOXS.R.W.W.",
"E.E.F.A.1X2XT.=.n n n v v n v c M N -.-.v x 5.v.2.3...@.<.r.f.h.r.1.<.<.@...@.1.v.c.p.,.k a M c 2 g :XbXnXmXnXKXKXKXGXJXOXG.W.Q.(."
};
