/* XPM */
static char *c29a2af58005d406c423bffcd44d0d3d[] = {
/* columns rows colors chars-per-pixel */
"65 65 64 1 ",
"  c black",
". c #060606",
"X c gray3",
"o c gray6",
"O c #101010",
"+ c #161616",
"@ c #1B1B1B",
"# c gray12",
"$ c #202020",
"% c #272727",
"& c gray16",
"* c gray18",
"= c gray20",
"- c #353535",
"; c #393939",
": c #3F3F3F",
"> c #434343",
", c gray27",
"< c gray29",
"1 c gray30",
"2 c #515151",
"3 c gray33",
"4 c #5B5B5B",
"5 c gray37",
"6 c #606060",
"7 c gray40",
"8 c #686868",
"9 c #6F6F6F",
"0 c #727272",
"q c gray46",
"w c #7B7B7B",
"e c #7C7C7C",
"r c #818181",
"t c #848484",
"y c #888888",
"u c gray55",
"i c #929292",
"p c gray59",
"a c gray60",
"s c gray62",
"d c #A0A0A0",
"f c #A7A7A7",
"g c gray67",
"h c #ACACAC",
"j c #B1B1B1",
"k c #B7B7B7",
"l c gray72",
"z c gray",
"x c #C1C1C1",
"c c #C5C5C5",
"v c #CACACA",
"b c #CECECE",
"n c #D2D2D2",
"m c #D7D7D7",
"M c gray85",
"N c gray87",
"B c gray89",
"V c #E6E6E6",
"C c gray92",
"Z c #EEEEEE",
"A c #F1F1F1",
"S c #F6F6F6",
"D c #F9F9F9",
"F c white",
/* pixels */
"kMBZBABkgrqhMZDSAZzxBCVnNBnxxg8;2&,*%@$<3tlghbdrrye4&,--q44085%Ot",
"zmVCBmxwq4dVNCZASFBnvxxvCZCmvlu6573<:-%>pjfsfgyuttry04-*q65y874o9",
"7rujlazytdvmnmCDSACMmMMVZDFVvcjy,60qe,<annzvxgiwwew0972:257dw;4<=",
",4qeut9;0vMVANnMZBVmVFDDVSSMzxla5,2354dNncbnfie8ew6:=195456iy<-:=",
"42:==;*:zmBCZZNbZCDMMDZZBABxllhai1**:pnvxlxgtuadq,4672356rwyt37a4",
"-8qyw0qezmBCZSZCCZFNnZCVMBbkkkgda5-;qkkgklllfsa9;-,38eeuyauyt3plk",
"u6wtq96yzmBVZSSSVNABnNNVbvzkjhggi86immcxclgjga4--35tscMNmhteq1tgz",
"xecNbjuszmBVVCZACNZBxjlvzjkkgghhp9rmNvxlzgdfjy--10iq3qvxvl0rypapc",
"vhbMBMfalcbmBCZZNZNnvxxkkddjsdjjr6pbbclxjsddp738rw3=-exhnxukdaiel",
"dNnmNmlilxxvMVCCMNcvnzlhfusuyfcf54ivMbzfauaga8>1<,;3sMmMBbgcNaa97",
"ejjcnzuefkzcbMVCnvjlcjfjapt09lk6759ljfjgdeusgt*1;>7plvzvllhdblha3",
"usinVbjqudjlzcnNNMlhggpuuq00ii6,<<2qygjg8>qigt>:%5pphksgljjiyxxvd",
"kkjxbVmpypdfhjlzvxjpift0425ai25><46:5kk0&&15ydw;1rswtkggclzxvNxxx",
"znkdggduruipasdffsp5rdq9-:wu605,8tu9@<q=&4r42w6<9r8:$5daaasalCmln",
"knbueq0retyterupiq4>pa84=2q0uq15upgp%1t3*<ft53:2q722,*6sutyidxmzl",
"nhxzky987we0660yfy6wh6,>=35ag71eipz0-981=>y979;-,1386<;4yhcbNncbl",
"Mmbnjigt680e9q95tihbs->=-,wdj3<9qu9%;5q0r43,5yq217066>>5xVZDFVVNM",
"jclxdefj5qq98774468sz4**,6rrw6*>4>7kMSFSAAbe39e38pp855:14ykcbkjhg",
"kdlkzzlf8:5e1%181338ixy6q865q2:;<aADFFFFFFFVg516w426553<6xZmcmxhj",
"dassitw999dca>;:172<4istr04:2&::bFDZFFFDFFFSBa6r6,3367855ynmnVxmx",
"aatw8=$ekNBmxu*>21w01&34<53*&#4cDDFDDDDDDFFZABd929qw065;2ekcBvxjg",
"ksiqw34kMmmvjj;;&%3tw2;%&;;3>:zDDDDDDDDFFDAAZCbeeMa50341edllvfhgj",
"jd8w7<izbmbczdr1$-;qrq<&&#:q7dNDDDDDDDDDDAADCNmddMnNf5w1<qwtyhvvg",
"d0>054qpcMbvjas0:-:,49wiy2:4wBzDDDDDDSDDSSDAVnzlazMBvci6&53-,uifj",
"r4788fiysaggydie3-21:,sbhg25xMMMsrqumADFFSSFCbzlsdgnvviq5542<:-:a",
"13q3ukdiq98yaytu,=-;57schheynnp-&@o$gAVbVMnmMnvvkmvggbmyr517r9<1<",
"&=8-qtpfe5;7eqwe48eepjbvzgtgcl-*1<&$akkvkgy0gBVzaxnkbMvdy14eqyq,=",
"<9t2,6ri6<*=,0ryflkxvsacckpjzx4>2<O$uhCAar<@-9Ng4smzkczat72098998",
"uhd8451,;-,7rtyskggjlahnlsyfvCu,;*X.uMvbh7*%,&,d8klakCx6tr3e9173,",
"899;39>:1>9ghaggaifpausglgisxVd<= .=be *i= $&;;twpfvnAh6ur1w<:6;#",
"$*-;0t<-;4tjjihheyhdhgyiietamSnahflZNo.Xa# @*25uwehcmN53aw,068q41",
"1;<<ue4><rrfdtyh5sggffweyqezZSSCxbADj.o%jf.#35uhq7hhfw26y428,;=:>",
"83,4e490rsq7w6415tgdiuqpsarcFFDmrwAN#oO<jmbe29cz08hnftgxs,*<572;,",
"cf>6,1510j4;te03,>wp80idptq9gctzVDFzX=#@izazgtxf70pxMVSnh71qu3>ip",
"ZBzssag3ef519ys7,2=*82<edq1&%#@qkVFArh93xb8wNNBywdeacNa160we5-4gN",
"CZCmVVNlpe257rw<->,-<;=*4:;*r9 evBDFSVNMnmczzMNaphdllBp2q8567ucxB",
"MNCSZZZBztqp0002171-1*>;2;:,xi+uVVVVVVVVBkairnBdrfvzcBvp0,6uilSSN",
"MNNSCMVVMsit->e879=-3;12w61>js:izzxcvbnnbku-o>51uvbhdvvp6wpihNBNM",
"bMcBCMnZABj3,3%%*1,&<:810r>#fh#,qtskxxlkdk6.&&@1gzll0ap0eafdxAABm",
"kxbbVMnxCCVe;6<>9fj7;;3>40<%zv$>yskccksyir3 r3-6savh-*30pkflVBVFA",
"CczxlcBZZBNh>10kxbml413tq::>lDvjNNBNckkd0<@#s=18624<=:7pghxccvMFS",
"ZnMSSSFFSVnj75yljlxca>2p8;-9MCZZSSCCMjgfy1.8t+2w766,-<9ahjcnMMNSF",
"VZBBDFAZCNml7&ibhshhzi,<;->6cZZZZDFFZNbka84j5#5e9q8>:5rsjlbBZZVVC",
"SFDBZDAZCCnge:gnbhkzxs--21<*,9cANNFFSCNvlhnx;&3w0r8;<9iflxmCDDZCC",
"FFFSNMCZBbcft:qvlzMk84<:3132;+:yprijMmmMvlva*$;78w6=2esgzvmVSDDSS",
"FADFBvnCVlgsu3>gpyq1-7gkffw*=*&O%OXo*7khadjt*=:3571&4tdhxbmVZADSS",
"FFFFSNvvcsyup4&63**>pvhvMcgad41$:;;$@o&=:*,:=,1;1<;$5yfjxbmCCCAZA",
"FFFSDAvsggsps42533;7hfgdfzlpjkut=@-*==;-,-$&,;77>-&#6yfjxvMZCVCBD",
"FFDSSNbCNzdss&=<42><ikjsthbkdxvMa>&$=&>ee077<->7642-<ysgbczNAZASD",
"DFFDBVFAzjhds$*<2;=7alxlkjfxkfzclh8#@$*<3wuuy62>;&5=:eslbvzjZAASD",
"SSFFZDSjqwpph47r4:=269wffdapvkfbkdq-$%***:6wq8tsi93;-6ufvmzelFCDD",
"xmVSNCxt-Oo+;39e3*=%*0shaitszxxzfw-@:<1<,%=,-1anBb11-3ufhbc0eFFFS",
";scngdp,  X  =t89tw*-8spuildyixjt$1<#=:>41>#3scnnMr9;1ylzjzw7FAx8",
" *fft55+ .Xo:qidjgs984e<><uasrpxt3fg8$*>>,->lVmnxvbf6<whMbu<lj$..",
" $w4xg% o.o#risdjhdyu32<*<5tpfyysfgfl7;;:%,fBmbzzvVbp<6dzxr7j....",
" &tsNN3  X#=5qtfdpp808,:>64qplduhsyipr1,5*7hbMxhhxnva;;ill04i  X ",
" *6dvZa-  :3qyrat76796,->8ihhjlshfytr81=1$;lBBvbNclnk<-qsf74b  X ",
";-4vns18e97qtu07524652->iuuiiisjkrq80<<&==$tazbVzZbq61%*yk5pB$%$O",
",<zAi. ,pu0qti955257<*@-trteypihltr668r934>7tghr333:&=-#<p:rZ>:66",
"fADZ; .>e>&6rt519q82#o#;rpiqeaapghs00ir01>6gNnlepq8<&&;;$u8jDi7qq",
"ljAN#  <err3:3163-,w8;%+9ew98tdpggpya4><<rdjvbvvNzy>;3<>oaSVDFVnn",
"*dDi @ @wt1+.%:<,:wNDBzuauyie8tuuidpu32<emnbhabvzt;-1386&%fACVVxr",
"MCC5 -X*0e- o<rkkzbVZZDVbkdp915ryudq6wtwrdxljscMBx6<2=3y8X-vAZcgv",
"NZnfX796et% 6zbBbbBZACSCBMci833wse58wttewrljnncazly-==&ee3>#ea=9p",
"lmMBlzgpaa<-hcnmxkxCVNMBCMMka4%;2$-,<5344ehsvBc03&><&=*6q61>++ %y"
};
