/* XPM */
static char *e3720338c74549f3a737e628d7de5e47xGDycdnvF4pkNOWP[] = {
/* columns rows colors chars-per-pixel */
"65 65 175 2 ",
"   c #140F04",
".  c #140F09",
"X  c #151107",
"o  c #1A1306",
"O  c #15120A",
"+  c #1A160C",
"@  c #1D190E",
"#  c #171611",
"$  c #1A1711",
"%  c #1D1A14",
"&  c #1E1D18",
"*  c #211A0E",
"=  c #221D14",
"-  c #281F16",
";  c #211E19",
":  c #252116",
">  c #292316",
",  c #25221B",
"<  c #2B251B",
"1  c #2E291E",
"2  c #342914",
"3  c #392D16",
"4  c #31271B",
"5  c #322B1D",
"6  c #3A2E1B",
"7  c #3B321E",
"8  c #292621",
"9  c #2E2A21",
"0  c #332D22",
"q  c #392F22",
"w  c #352F2A",
"e  c #363125",
"r  c #3B3324",
"t  c #3F3826",
"y  c #363229",
"u  c #3B352A",
"i  c #3E392C",
"p  c #3E3B32",
"a  c #43351E",
"s  c #413625",
"d  c #433926",
"f  c #4B3D26",
"g  c #403729",
"h  c #433B2C",
"j  c #493E2C",
"k  c #443D31",
"l  c #483F30",
"z  c #47402E",
"x  c #4C412E",
"c  c #53452D",
"v  c #56492F",
"b  c #58492F",
"n  c #464133",
"m  c #4C4434",
"M  c #4F4836",
"N  c #464239",
"B  c #4C4539",
"V  c #4F4839",
"C  c #524632",
"Z  c #544934",
"A  c #5B4C34",
"S  c #504738",
"D  c #544C3B",
"F  c #5A4E3A",
"G  c #5E5136",
"H  c #57503E",
"J  c #5C513C",
"K  c #604F35",
"L  c #605037",
"P  c #63553C",
"I  c #66593E",
"U  c #695A3E",
"Y  c #554E41",
"T  c #584F40",
"R  c #575042",
"E  c #5F5645",
"W  c #5F5647",
"Q  c #5C5545",
"!  c #5C5443",
"~  c #5F5A47",
"^  c #5F5846",
"/  c #5B544A",
"(  c #5E5649",
")  c #5E5649",
"_  c #5E5849",
"`  c #625642",
"'  c #665C43",
"]  c #605845",
"[  c #615944",
"{  c #615B45",
"}  c #615947",
"|  c #675B45",
" . c #645C47",
".. c #645A44",
"X. c #6A5C42",
"o. c #6B5D43",
"O. c #645B4A",
"+. c #675C48",
"@. c #645D4A",
"#. c #635D4D",
"$. c #675F4C",
"%. c #645E4E",
"&. c #645C4A",
"*. c #6A5D4A",
"=. c #685F4E",
"-. c #6A5E49",
";. c #645F52",
":. c #6D6146",
">. c #67604E",
",. c #69614E",
"<. c #69604F",
"1. c #6C624C",
"2. c #716246",
"3. c #74664B",
"4. c #70654F",
"5. c #72654B",
"6. c #75694D",
"7. c #796B4D",
"8. c #676050",
"9. c #6B6451",
"0. c #6D6550",
"q. c #6F6452",
"w. c #6B6155",
"e. c #6B6454",
"r. c #6D6452",
"t. c #6F6856",
"y. c #6D6659",
"u. c #6E6858",
"i. c #716652",
"p. c #736852",
"a. c #706957",
"s. c #746C57",
"d. c #776C56",
"f. c #746A54",
"g. c #7A6D53",
"h. c #736C5A",
"j. c #756C5B",
"k. c #746D5A",
"l. c #796E5A",
"z. c #7C7056",
"x. c #77705D",
"c. c #79715C",
"v. c #7C725C",
"b. c #7E7564",
"n. c #7C7461",
"m. c #7F7866",
"M. c #7F7969",
"N. c #817356",
"B. c #82755B",
"V. c #85795D",
"C. c #897B5E",
"Z. c #827761",
"A. c #807766",
"S. c #817662",
"D. c #847967",
"F. c #837A64",
"G. c #897E64",
"H. c #877C68",
"J. c #867E69",
"K. c #847D6A",
"L. c #897E68",
"P. c #8A7F69",
"I. c #8C8166",
"U. c #8F836B",
"Y. c #8F846E",
"T. c #8A826C",
"R. c #928467",
"E. c #90866D",
"W. c #928A6F",
"Q. c #8D8572",
"!. c #918671",
"~. c #948973",
"^. c #988D77",
"/. c #958D78",
"(. c #9A927C",
/* pixels */
"p 0 r A.w.g g S *.P f c | [ B u r 5 1 n =.M 1 8 9 , ; ; ; = = 1 Y V Y R B p k k B D / , 0 1 1 4 r n D =.#.= % % $ 0 F.U.H J P X.3.",
"k e ( W 4 0 u r D F C | c S l r 0 0 5 1 i W 0 , 9 9 , = = 9 u r n Y B q + @ + + = i B = 9 k B D D D D b.e.: $ % % : r.^.+.3 c I G ",
"k n ( 1 0 r i g h S R O.[ M 0 0 < 0 0 q 5 l y 1 9 1 = 1 n D D M j r 1 = > , , = % y w % 0 M T D j 5 [ A.$.= $ % $ + [ Y.r.D x c c ",
"k B h 0 r 0 q e k e @ > ^ m 0 < 9 < 9 1 0 h u 1 1 = y Y +. .J J S s r 0 0 e e e 0 1 % = q r h C h h W p.u.> * y 0 h c.P.K.,.m j C ",
"n i n r e 0 1 1 9 = $ X S [ 5 : 1 9 , 1 0 l n , , y R 9.s.5.' P J z h s g i h h z M 0 % 9 5 q r r F j.j.,.$.R h H s.p.S.K.,.M > 0 ",
"n u n r r 5 > % u 1 % $ 1 u.R 0 , : : 1 5 D n , 1 B $.j.z.6.3.I A c C j h j h z D ! Y 1 ; 1 0 5 u n r.p.` | } g 7 J o.d.A.R = = , ",
"n u S 7 5 5 5 D y.> = = + Y n.+.Z J Z J H ! n , r W p.z.z.d.3.I J Z x x j x C Z J [ $.n = , ; = q B R ` O.` ! m r F | =.u.r % , w ",
"B 5 ^ D D W ! D.j.= = ; + i A.l.Z J | ` ` R n , i u.c.v.z.g.:.P P Z c c Z Z Z A F *.r.} 1 $ ; ; % e D D D D D h r m m F } 9 ; 8 w ",
"Q 5 ,.p.| P x D.h.= % % $ e n.S.C r F F C n l 1 n h.c.V.V.7.X.P J A A b F Z Z Z P ' 5.r.k % ; % % , B M n h m C x ! C W D , , 8 9 ",
"M h D J P c d l.a.o + 9 + : c.l.,.! C C h r i 0 M h.c.Z.C.N.2.X.P A v A Z v Z P I :.d.p.R = % % ; = q n Y ( h D S l h R B ; , , u ",
"r n s D J P r.S.v.r 5 W r M j.n.j.[ S y 0 1 w , n p.n.G.V.N.6.:.:.I G G v G I 2.2.6.g.z.#.: % ; ; % w N k : = = = @ * 0 w = ; % k ",
"r V q h h D j.A.B.S.,.[ j.s.,.c.p.W k % , , , 1 m h.A.P.G.B.5.d.3.X.G F Z G I 3.d.5.p.j.9., % , & ; , : : , , 1 1 0 y g D n 1 % i ",
"7 D 0 < = = Y n.f.i.| ` ` 1.| ,.,.R , % , ; ; 9 h j.T.F.r.S r C ' I P A v P | ' F j F p.p.e % ; , w u r r r r u h z M H ! ,.} r r ",
"z R r % ; ; > #.p.1.J F F *.` *.} M % ; , ; , 9 n K.r.j 4 > 1 r m 1.P c c P | j 0 1 4 h >.D @ , y k n m h j j j m D F ` ' p.c.r.n ",
"} D i ; ; ; % B +.Z ` 4 * D D F S r , , & & , 9 ( ^ 5 0 0 5 0 r g D J c G A z 0 0 5 1 1 0 R e 1 l M C F Z x j x Z J P ' 1.g.z.V.r.",
"} Q n , ; ; % 0 +.J r.r * D D M n 0 0 w 8 , , 9 D r r e 1 < 5 1 r m J F P ` r 1 0 9 0 0 0 u y r S S J ` F c c c Z A G J 3.6.z.B.v.",
"M S V w , ; = i S r 5 1 , 1 , 5 5 r g g u 9 , 0 D r r r 1 , 9 1 5 S o.J ' [ 0 1 8 1 1 0 r u e l H W | P F Z A Z c A L P X.6.N.V.F.",
"r n n e , % k R n r e 0 0 5 0 r u n n n i y , e } r r e 1 : 1 > 4 R | Z z D 0 = ; , 9 w r g u n ! *.o.P F F c A v A A P P o.7.C.G.",
"< 5 0 , = 1 ,.+.H m h r r r g j n M S V n i 9 q r.j 0 0 , , % * t ,.S :   1 B @ = 1 1 0 r g i B [ *.X.P P A c A A A A L P o.3.C.I.",
"= , = , = D p.1.| S m j h d j x C S H S M k 0 1 j.H 1 > 1 1 , r ,.c.u X % , ;.R 0 > = , 5 m g S :.:.| G A A A A A L b A U :.7.C.I.",
"% ; , , , 9.s.5.P A C x d x C x Z F F D S l w 0 j.l.o.J P ` H r.B.n.e O & , _ n.O.C C h n M u R 1.:.P P G A A A A A A P 2.3.g.B.C.",
", & ; % u j.l.2.I A C c d c C x c J J F D n 0 e j.z.g.2.o.P F S.G.r.% $ % % M S.1.Z | ` ! M r ! 1.1.X.I I P A K A c P X.3.g.g.o.d.",
"9 8 , % n m.B.N.3.X.G c f c A A I o.:.' D V 0 n r.P P I P Z J F.P.D X $ $ + h A.p.j Z F C h u ^ p.1.2.o.o.o.P P L b K | 5.,.x r r ",
"i e 9 , _ T.!.V.z.N.o.A f c F o.5.2.d.l.} D e n [ x J F F *.i.A.Z.6 + ; , + r n.u.[ Z m m 0 r ! p.d.d.5.2.1.` A A A P 5.F r > 1 < ",
"h i 0 e M.m.} s h *.3.U a x ` ` Z r h D $.W k 1 B h z h ! i.c.P.F.z + % w   g n.j.} C u r > u >.j.,.D j r n J ` c a J ' e 1 1 1 q ",
"n l e y.8.5 1 5 1 r 1.J 3 7 c S 5 1 < > 5 l R e = 5 5 = g j.f.P.B.l.$.M R W 9.x.$.D u - < = n 9.n 4 1 > < 1 h F s v X.s 1 , , 1 0 ",
"D h n #.5 r e 0 0 r D J f P C h 5 e 0 < 0 5 u B , ; , 1 = D n.F.d.5.B.*.` v.r.,.$.l = = , , Y g 5 0 < 9 9 < 1 h Z F s.h : = , 1 1 ",
"Y n h g r r 0 9 , , n H C ,.} h 1 0 0 1 1 w e g 1 ; , 8 = 5 p.i.5.5.5.` ' *.1.[ } 0 = ; & , k 0 q < = , 1 1 = g D H ! W : % , , : ",
"W n n M r u e 0 , : u r r W $.n 0 1 1 , 1 e r l 9 % ; & % , [ l.5.p.1.J ` ` 1.*._ > ; % & ; k h 0 5 1 ; = = : B D 1 o i V + % = % ",
"W M m M r u 0 1 , @ u > + g u.D e , = , 1 0 r h 9 % % % ; , M ` J F Z Z h F Z H B = % ; & = g h 0 0 1 , ; % 5 Y q X $ = y.Q 5 1 , ",
"} S m D 5 5 > @ * n R = $ % } r.h > + % @ = 5 D u % $ , 0 u n h j ` z ` x J z W n : ; & & ; B M r e w , @ : S 9.u X % = i K.s.` J ",
">.S M $.z t h S ! c.n = % O h n.[ S n e 5 r m } u $ 1 e i l h r s D m H S H n M r 1 1 ; % % B W r 1 1 > 0 M i.j.0 O % = * r.~.5.Z ",
"R R D A.Z.1.-.| c.Q.u $ $ O 5 A.c.! F +.` 1.p.+.q % 0 m D S M n s 5 r r r r r r g u q , % $ n } H S m H D +.v.r.= # % % @ R (.U.7 ",
"1 h ! 1.' | f a U.Q.i $ $ # = u.K.z.d a F J F D 0 , h &.+.[ H D S h r h j h j m D D k w ; + l $.i.o.P J j 1.Z.9., $ % % @ l (.S.+.",
"1 1 h C F A C J S.K.1 $ $ $ + R T.j.D j C A j r < 1 R 9.:.| ' J S j h z x m C F J R M u , + u ! H F F f 7 O.v.$.= % ; , X 5 T.E.Z.",
", w r r h s C l.~.K.1   , X * $.A.v.a.M s r 0 1 : i 9.1.o.:.' P C C C x c Z J J ` J M n 9 $ 0 n j F Z Z ` ,.v.9.= X % r * h P.~.v.",
"1 1 u h 1 > m p.E.F.p.j n l 9.s.c.T.u.m 1 : > : , Y p.s.3.:.o.| F C c x C F P P ' o.! V u , ; y r h h T 9.j.S.l.! S g F z.B.z.U.G.",
": = l l = = = >.F.p.v.` C | f.` r.c.q.q % , ; ; 0 Q s.v.z.6.:.U A A Z c F F P U X.6.,.D k 1 = ; > < = 5 ! 9.n.i.p.d.F c z.B.1.B.G.",
"+ 1 D i , : % l f.1.1.Z z J o.` 1.} D % ; 1 ; , u R s.v.z.7.3.P A G Z c Z A G P 3.p.,.D l 9 = ; ; $ % + < ;.q.| P ` Z C ` 1.' o.N.",
"B R S g 1 , = u f.i.1.Z x `  . .[ } i % % % % , e Q z.V.B.g.:.I P A v v v A P P :.d.i.H n 1 ; ; % $ % , = n W H F *.F D P Z ' ' 6.",
"W D M g 1 = ; 9 R D Z j j z D M m m 0 , , ; & ; 0 _ c.F.B.3.| P A A A b G b A P o.3.z.! m 1 ; ; % , 1 < < r D H F | ! n m D D Z I ",
"H g r e < ; % % _ 4 M C D M M S V h e e w 9 ; % 1 $.n.G.G.7.o.P A A c A G c c L o.g.B.*.V 1 % ; , 9 e e i i h C C C z [ g 9.g g ' ",
"z r 1 1 , = $ 0 R h S M S m M h r h n h g u 9 % , u.A.I.I.B.2.| P A c b A b A | 3.B.Z.p.D , % ; 9 y g V H S j C F J Z f.J 1.J F m ",
"5 5 > , ; $ 0 Q S z s r r r r j S D D M B n y = 5 n.Q.W.G.d.' 1.| A c c A A | -.-.z.P.K.j.e + , w i S +.[ H D j d j x C x x C F +.",
"% = , , = , W [ J D Z Z S Z J ` ' ` [  .} B u : Y K.9.D n 5 5 M ` P Z a Z ` F r 5 u M W n.#.% 8 y B &.[ ` ` J C d r r r j x Z J :.",
"& % ; , % n j.*.o.:.P J ` P X.:.:.1.p.i.r.^ g , W M 4 1 : = , > D J d 2 d D 4 = = , 5 5 h #., , i Q r.1.o.' P F x j h h C F J :.:.",
"; ; 8 8 , #.v.z.6.1.o.J A I I X.2.3.2.5.1.,.D 5 u r r 0 9 , = = M D j f Z j > = , 1 q r r g , , n &.p.s.d.:.' P Z C j C C J I 3.z.",
", , ; = 0 p.B.z.g.3.I A A P I | o.:.2.:.6.r.W 0 l r e 1 , , % = m 9.Z J 1.D : % , , , 0 r l 1 1 V $.p.l.d.3.o.G A A c c Z A P g.V.",
"9 1 8 % h n.z.g.3.:.L P A A P o.o.2.2.6.z.s.} r n r 0 , % % % : M r.x A p.! , % % % = 1 e n , , B >.j.v.l.3.| P L c A c A P U 7.V.",
"y w 9 : M F.B.g.6.2.P A c F P | o.2.3.d.g.s.W r n h 1 , % % : e D u.h g +.,.g , = $ , , r M = , n $.c.V.l.:.P A A A A A A A P 3.V.",
"k u y , M D.G.G.g.:.P A Z A A P P 2.6.g.z.j.&.r h M 1 = @ : e M 9.$.@   u c.W h 1 = = 1 i B = , n r.n.G.B.3.X.G G A v G A c P 3.C.",
"n i u : h D.F.C.z.U P G b c A P P o.3.g.Z.c.9.h r Y D M g D [ } n.h O % + 8.n.W W S h D R n = = D j.A.G.B.g.:.X.P A c A A b | g.I.",
"n i y , r D.G.C.7.U I A A A A A P U :.g.I.F.j.g 1 D D D D D Z s.p.= + $ X m D.i.S D D ! D i = , } D.K.T.B.6.3.3.o.L c c A o.7.N.R.",
"n i u , 0 A.G.V.3.I A A A A A c A U 3.z.G.T.n.n @ 0 h x r 6 | A.8.= $ $ + y c.v.H 4 j m u < % p b.x.,.! D J f.5.o.X.f f P o.g.V.d.",
"B k e , 0 K.E.C.7.U L A c b A c P 2.3.N.B.I.K.h.> = r r r C c.n.R X $ $ $ = r.S.j.m r r 0 = = B D 0 1 @ : 1 n i.5.A 6 3 F d.i.H n ",
"V k w , r T.E.G.N.2.o.A c c b P 3.6.3.1.g.1.r.n.m @ = = q n i.b.( X + $ X * 1.S.r.h > : = % : B r 0 9 ; = % 1 S ` c f F C D 1 + , ",
"D g e = S /.U.G.g.7.2.U A a A | o.d.D r 5 1 5 h B = $ $ = k $.S.p.r 1 1 > R f.n.( , % = $ $ 1 _ g 0 1 , % % 1 n +. .f d.W + % 1 9 ",
"D k 0 , n.K.*.Z C o.5.5.Z 2 a A o.m * + = , 0 q Y e $ ; % 0 } f.i.j.! n r.S.1.u.n 1 8 , & $ 1 ;.l 1 , % $ % 0 l } ,.7 1.W + ; ; ; ",
"D l 9 1 R r 5 4 1 > r D C f J F D h > % % % > 0 Q g $ ; ; 0 W 1.*.i.! D *.5.o.| h 1 9 8 , $ 9 u.B , , $ $ , r n [ +.r R t.e + $ % ",
"Q l 9 : n h 0 q , = + + [ Z 1.1.! l 0 = % % = r 9.S @ , , l O.i.o.o.` D P 1.1.o.D u y 0 8 $ e h.} e : = : u n D j.! + + D h.u = @ ",
"$.n 8 ; R n 5 < 1 = @ 0 ! x o.:.[ n 0 0 : = > h p.! > 1 1 u H *.1.1.J F H *.1.! h l i e 9 % l u.v.j.+.D S [ | *.n.e X + 1 A.s. .m ",
"} D 9 % Y D r > = = 1 B ! h J p.p.W C S g n W p.j.W 5 1 q g M n F C C d m x C n n B l u w 1 k >.f.1.' J C x P S.9.+ % % = h.B.I ` ",
"9.;.k + R [ r 5 5 5 S r.R o * g n.p.| J F F ` | *.S , 0 i n S M h s H 2 F s S S S m V n y 1 0 W ! f Z Z 6 d l.K.Y X ; ; + $.!.' 6 ",
"V Y Y = S n.} ! D [ o.l.m X 1 X M v.l.J 6 d Z d h r , u m S n D D j H z ! x D D ! J D V p 0 : l h 6 d g m [ p.A.u . ; , X B Q.i.j ",
": 5 l 5 g S.l.| F d Z F.D @ , % @ 9.A.r.F j r r 4 : 9 i S R ! D S m j j j j Z J ` | +.H n e , 0 1 0 4 h M r.S.A.k O , = X D T.z.` "
};
