/* XPM */
static char *_afd4cfdbfaf4e8dbe8a86195f68a448UCy8PhJwJlxCHb2w[] = {
/* columns rows colors chars-per-pixel */
"65 65 130 2 ",
"   c None",
".  c #010202",
"X  c #0C0303",
"o  c #040907",
"O  c #0C0806",
"+  c #03060A",
"@  c #0B070A",
"#  c #04090B",
"$  c #0D0A0B",
"%  c #140202",
"&  c #1D0202",
"*  c #130906",
"=  c #1E0905",
"-  c #12050B",
";  c #140B0B",
":  c #1B0C0A",
">  c #0A100E",
",  c #14100D",
"<  c #1D100B",
"1  c #030710",
"2  c #060C13",
"3  c #0A0F12",
"4  c #1E0F10",
"5  c #0C1113",
"6  c #161011",
"7  c #1A1111",
"8  c #1E1817",
"9  c #121519",
"0  c #15191B",
"q  c #1C1B1D",
"w  c #210001",
"e  c #200D06",
"r  c #230D0A",
"t  c #24110C",
"y  c #2B130D",
"u  c #30160D",
"i  c #32180E",
"p  c #391A0E",
"a  c #281312",
"s  c #241C1D",
"d  c #2C1F1D",
"f  c #301811",
"g  c #3C1D11",
"h  c #151D21",
"j  c #1A1D20",
"k  c #331F24",
"l  c #1B2122",
"z  c #232424",
"x  c #2D2322",
"c  c #212729",
"v  c #2A262A",
"b  c #342A2A",
"n  c #2F3335",
"m  c #363233",
"M  c #3B3434",
"N  c #373B3C",
"B  c #3C3A3B",
"V  c #441E14",
"C  c #432313",
"Z  c #7E3719",
"A  c #433636",
"S  c #423C3C",
"D  c #46423F",
"F  c #7F4831",
"G  c #344446",
"H  c #444443",
"J  c #4B4647",
"K  c #454A4C",
"L  c #534D4D",
"P  c #56504F",
"I  c #405154",
"U  c #565453",
"Y  c #575857",
"T  c #5A5B5B",
"R  c #5D605F",
"E  c #5B5D60",
"W  c #4A6265",
"Q  c #5D6162",
"!  c #5C6D71",
"~  c #616264",
"^  c #626965",
"/  c #66676A",
"(  c #646C6D",
")  c #6D706F",
"_  c #7B786E",
"`  c #746F71",
"'  c #6B7374",
"]  c #66787D",
"[  c #767475",
"{  c #7F7671",
"}  c #7E7974",
"|  c #7C7B7C",
" . c #8A401F",
".. c #8F4C26",
"X. c #8E5028",
"o. c #91532E",
"O. c #AF5C2A",
"+. c #BA5A29",
"@. c #BF672F",
"#. c #AC6132",
"$. c #BE6036",
"%. c #BB713F",
"&. c #8C6556",
"*. c #8B6858",
"=. c #8B6F5F",
"-. c #A76F43",
";. c #BD744D",
":. c #A27456",
">. c #8E6A61",
",. c #9E7F63",
"<. c #A37E6A",
"1. c #C16F43",
"2. c #A38371",
"3. c #A48474",
"4. c #7D7F81",
"5. c #86878A",
"6. c #818E8E",
"7. c #848E91",
"8. c #8D9193",
"9. c #989B9C",
"0. c #A2918B",
"q. c #A4928A",
"w. c #A4938F",
"e. c #A8948D",
"r. c #A7A19F",
"t. c #949FA1",
"y. c #97A4A6",
"u. c #9EA0A6",
"i. c #98A1A4",
"p. c #94A4A8",
/* pixels */
"                                                                                                                                  ",
"                                                                                                                                  ",
"                                                                                                                                  ",
"                                                                                            + + + o o                             ",
"                                                                                          o 9 l     .                             ",
"                                                                                          o z X.;.  +                             ",
"                                                        5 ! W ] h                         + z %.O.  +                             ",
"                                                    # + + G   I # + #                     o l       +                             ",
"                                                  # . .           + +                     o + . . o +                             ",
"                                                  o .               . +                       . .                                 ",
"                                                  o .               . .         o # + + o     o .     o o + + o +                 ",
"                                                  + . .           . . .         >       # 5 X : f O   +       5 o                 ",
"                                                  + . e %       . X : X         2 o.@.-.. . X ..$.y . o   +.1.0 #                 ",
"                                                  o . C t . # . . * C O         3 :.#.  + . O F Z = . o   1...0 o                 ",
"                                                  . . t = t O X t * y X         $ l j h o   o o X o   # 0 q j $ o                 ",
"                                                  . . g r V % X C r C O         o # # # +     o .     o o # # +                   ",
"                                                  . . y : m D H B : u X                       o .                                 ",
"                                                  o . g t } 2.e.>.y g @                       . .                                 ",
"                                                  o . p t { <.q.*.t g O                       . .                                 ",
"                                                  . . u < _ ,.0.&.t i X                       . .                                 ",
"                                                    . . o } 3.w.=.; .                         . .                                 ",
"                                                    @ . X | r.u.7.9                           . .                                 ",
"                                                    O X + H Y B n                             . .                                 ",
"                                                  O % X z M m $                               . .                                 ",
"                                              O % % % % b S M ,                               . .                                 ",
"                                            - % % % % X S T P 7 $ $                           . .                                 ",
"                                          % & & & % % O J ~ T s k - $                         . .                                 ",
"                                        O & w w & % d 8 J ~ T B b & % ;                       . .                                 ",
"                                        % & w w & % d M U Q E B ; % % % $                     j q                                 ",
"                                      X X % & & & & & x U ~ T B * % % % % -               t.' | 5.                                ",
"                                    6 : ; % % & & w & & A L T M & & & & % % $             8.) [ |                                 ",
"                                  v S M x % % % & w w & & : A 4 % & w w & % $ z         ( ( Q ` [                                 ",
"                  p.  i.        ~ R Y M q % % % & w w w & & & & & & w w & & s H Q / / / ^ Q   @ o                                 ",
"                  y.  9.8.  ( ( ~ H B q . % % & & w & & & & & & & & w w & a B N K             . .                                 ",
"                  6.' 4.( ~     K o . . . % % & & & & & & & & & & w w w & r z c               . .                                 ",
"                                  . . . X % % & & & & & & & & w w w w & & % . o               . .                                 ",
"                                  . . . . % % & & & & & & & & w w w & & & % . +               . .                                 ",
"                                  + o . o ; % & & & & & & & w w & & & & % X . #               . .                                 ",
"                                  +   +     X & & & & w w & w w & & & % % O # #               . .                                 ",
"                                      +     . X % & & & w w w w w & % X X $   #               . .                                 ",
"                                      #     o . X & & & w & & w w % O $ . o                   . .                                 ",
"                                      #       o % & & & w & & & % X o   . o                   . .                                 ",
"                                      #     # # ; & & & & & % X % ; +   . +                   . .                                 ",
"                                              3 ; & & & & % X . O   o   +                     . .                                 ",
"                                              3 X & & X X % X . X $     1                     . .                                 ",
"                                              $ % % % X . X . . X O     1                     . .                                 ",
"                                              - % X % X . X . . . -                           . .                                 ",
"                                              - X X X . . . X . . .                           . .                                 ",
"                                              $ . . X X . . X . . . +                         . .                                 ",
"                                              X . . X X . . . . . . o                         . .                                 ",
"                                              X . . . X . . . . . . o                         . .                                 ",
"                                            - X . . . X X . . . . . o                         + .                                 ",
"                                            . . . . . X X . . . . . . +                       # +                                 ",
"                                            + . . . . . . . . . . . . o                                                           ",
"                                              . . . . . . . . . . . . o                                                           ",
"                                              . . . . . . . . . . . . o                                                           ",
"                                              . . . . . . . . . . . . . #                                                         ",
"                                            o . . . . . . . . . . . . . +                                                         ",
"                                            . . . . . . . . . . . . . . o                                                         ",
"                                            . . . . . . . . . . . . . . o                                                         ",
"                                          o . . . . . . . . . . . . . . o o                                                       ",
"                                        o . . . . . . . . . . . . . . . . . o o                                                   ",
"                                  + . . . . . . . . . . . . . . . . . . . . . . .                                                 ",
"                                + . . . . . . . . . . . . . . . . . . . . . . . . o                                               ",
"                              + . . . . . . . . . . . . . . . . . . . . . . . . . .                                               "
};
