/* XPM */
static char *ed5dd3bd225143f6ea5115834bb491afCVzi4NU1n7sddkIG[] = {
/* columns rows colors chars-per-pixel */
"35 35 110 2 ",
"   c None",
".  c black",
"X  c #000001",
"o  c #000101",
"O  c #010101",
"+  c #020001",
"@  c #020101",
"#  c #030101",
"$  c #010102",
"%  c #000103",
"&  c #020102",
"*  c #010202",
"=  c #010302",
"-  c #010203",
";  c #010303",
":  c #020303",
">  c #050101",
",  c #060101",
"<  c #050102",
"1  c #050203",
"2  c #070302",
"3  c #020204",
"4  c #020304",
"5  c #020404",
"6  c #030404",
"7  c #020405",
"8  c #020406",
"9  c #0A0101",
"0  c #090102",
"q  c #0F0202",
"w  c #0D0304",
"e  c #080404",
"r  c #080504",
"t  c #0A0606",
"y  c #0C0405",
"u  c #0E0805",
"i  c #030408",
"p  c #030609",
"a  c #040408",
"s  c #0F0708",
"d  c #080809",
"f  c #0A090B",
"g  c #120103",
"h  c #110203",
"j  c #120303",
"k  c #130303",
"l  c #140303",
"z  c #170303",
"x  c #110504",
"c  c #100506",
"v  c #110607",
"b  c #160507",
"n  c #190000",
"m  c #1A0101",
"M  c #190102",
"N  c #1B0102",
"B  c #190202",
"V  c #1D0000",
"C  c #1D0001",
"Z  c #1E0100",
"A  c #1E0001",
"S  c #1E0101",
"D  c #1F0101",
"F  c #1D0201",
"G  c #1C0203",
"H  c #130A07",
"J  c #140906",
"K  c #160A07",
"L  c #140D0B",
"P  c #160D0A",
"I  c #140E0C",
"U  c #1A0909",
"Y  c #190D0D",
"T  c #1A0C0C",
"R  c #1C1411",
"E  c #1D1C1C",
"W  c #200000",
"Q  c #200101",
"!  c #200304",
"~  c #200E0E",
"^  c #24120C",
"/  c #29150F",
"(  c #241111",
")  c #271716",
"_  c #251915",
"`  c #291813",
"'  c #261E19",
"]  c #2E1D1D",
"[  c #3A281E",
"{  c #2B2224",
"}  c #312929",
"|  c #343031",
" . c #363232",
".. c #343434",
"X. c #333638",
"o. c #3C3D3E",
"O. c #482315",
"+. c #533624",
"@. c #633F28",
"#. c #694029",
"$. c #484444",
"%. c #47494B",
"&. c #5E4C44",
"*. c #59504B",
"=. c #4C5052",
"-. c #535353",
";. c #565658",
":. c #785F56",
">. c #656A6B",
",. c #7C6E68",
/* pixels */
"                                                                      ",
"                                                                      ",
"                                                                      ",
"                                                                      ",
"                                                                      ",
"                                                                      ",
"                                                                      ",
"                                                                      ",
"                                                                      ",
"                                              [                       ",
"                                              +.                      ",
"                              8     a         d                       ",
"                              u H e H   ' @.L O.I #.                  ",
"                              J ` _ ^         L                       ",
"                              J &.:./         8                       ",
"                              e *.,.R         8                       ",
"                              v | ..          8                       ",
"                          b B T $.{           %                       ",
"                          l C ) -.} k         %.                      ",
"                        | T B ! ] ( C U o.  >.;.                      ",
"                      =.E v B C C C Q ~ X.    4                       ",
"                        % w B C C Q C q       8                       ",
"                            k C Q C l e       8                       ",
"                            s C B k d         8                       ",
"                            v k 9 <           8                       ",
"                            y 9 < <           8                       ",
"                            < < < % 8         i                       ",
"                            % % % % %                                 ",
"                            % % % % %                                 ",
"                            % % % % %                                 ",
"                          % % % % % % %                               ",
"                      i % % % % % % % % %                             ",
"                                                                      ",
"                                                                      ",
"                                                                      "
};
