/* XPM */
static char *_15527127f464484a9ff678a4bf293f5DlDzam6yJe9OHpCs[] = {
/* columns rows colors chars-per-pixel */
"65 65 184 2 ",
"   c #0D050E",
".  c #10050F",
"X  c #0E0711",
"o  c #0E0A15",
"O  c #0E0C1B",
"+  c #130613",
"@  c #190717",
"#  c #130916",
"$  c #180817",
"%  c #1A0718",
"&  c #140C1B",
"*  c #190A1B",
"=  c #0B1017",
"-  c #0D111D",
";  c #13111E",
":  c #0E0E21",
">  c #130E22",
",  c #1A0E22",
"<  c #130F28",
"1  c #0E1323",
"2  c #0D1B25",
"3  c #0E1529",
"4  c #0E1B2C",
"5  c #131224",
"6  c #1A1225",
"7  c #131925",
"8  c #181827",
"9  c #14142B",
"0  c #1A152B",
"q  c #141A2C",
"w  c #1A1A2D",
"e  c #0E1E31",
"r  c #151632",
"t  c #191732",
"y  c #131834",
"u  c #151A34",
"i  c #151836",
"p  c #171A37",
"a  c #151B36",
"s  c #141B32",
"d  c #191E32",
"f  c #191F33",
"g  c #1A1B33",
"h  c #151F38",
"j  c #151D3A",
"k  c #191E38",
"l  c #1F1D3A",
"z  c #181F3C",
"x  c #1A1F3D",
"c  c #1B1E3B",
"v  c #20172D",
"b  c #201E34",
"n  c #211F3B",
"m  c #0E222B",
"M  c #0C222C",
"N  c #13202E",
"B  c #11222E",
"V  c #14222E",
"C  c #18212F",
"Z  c #0E2332",
"A  c #092A32",
"S  c #0B2A32",
"D  c #0E2934",
"F  c #0A2E34",
"G  c #0D2D34",
"H  c #0C2B34",
"J  c #0F2538",
"K  c #0F2D38",
"L  c #0F293B",
"P  c #132030",
"I  c #122331",
"U  c #142130",
"Y  c #172032",
"T  c #172234",
"R  c #172035",
"E  c #132736",
"W  c #142434",
"Q  c #132434",
"!  c #192035",
"~  c #1A2435",
"^  c #132835",
"/  c #102D36",
"(  c #142935",
")  c #1C2837",
"_  c #152039",
"`  c #15233B",
"'  c #1B263B",
"]  c #1B233B",
"[  c #142C39",
"{  c #152C3B",
"}  c #1A2B3C",
"|  c #0D313B",
" . c #0E343C",
".. c #0C323B",
"X. c #13323D",
"o. c #19313E",
"O. c #202036",
"+. c #20223B",
"@. c #191F44",
"#. c #0F2F41",
"$. c #162543",
"%. c #1B2141",
"&. c #1C2245",
"*. c #1D2546",
"=. c #1C2342",
"-. c #142D45",
";. c #152C45",
":. c #1B2844",
">. c #1C2C43",
",. c #1E264A",
"<. c #162F48",
"1. c #1F284E",
"2. c #1C2D4C",
"3. c #0C3B42",
"4. c #133345",
"5. c #1B3046",
"6. c #1B3344",
"7. c #163946",
"8. c #1D3847",
"9. c #15344B",
"0. c #1C334C",
"q. c #133A4C",
"w. c #1B3C4B",
"e. c #182F52",
"r. c #1B3554",
"t. c #133D53",
"y. c #193D53",
"u. c #173C58",
"i. c #173A58",
"p. c #193A5B",
"a. c #1C3D5C",
"s. c #212444",
"d. c #202B45",
"f. c #232649",
"g. c #202E4C",
"h. c #232B4C",
"j. c #203246",
"k. c #20334F",
"l. c #20314F",
"z. c #222B52",
"x. c #242C56",
"c. c #252C54",
"v. c #282C54",
"b. c #242E58",
"n. c #242F59",
"m. c #282F58",
"M. c #213554",
"N. c #203852",
"B. c #273059",
"V. c #2A345D",
"C. c #23395C",
"Z. c #2F3566",
"A. c #253D63",
"S. c #2B3B64",
"D. c #2F3F6F",
"F. c #0E434C",
"G. c #12404B",
"H. c #13424D",
"J. c #17414F",
"K. c #1D404F",
"L. c #0F4552",
"P. c #0D4A52",
"I. c #0E4F59",
"U. c #124253",
"Y. c #1C4252",
"T. c #174956",
"R. c #1C4856",
"E. c #164359",
"W. c #1B455B",
"Q. c #1C4C5C",
"!. c #0E545D",
"~. c #11515F",
"^. c #20435B",
"/. c #1B4E63",
"(. c #095B60",
"). c #1B5463",
"_. c #115C67",
"`. c #1E5A6A",
"'. c #234263",
"]. c #274269",
"[. c #28416B",
"{. c #215061",
"}. c #21596B",
"|. c #106974",
/* pixels */
"I.5 o 2 | S 1 O o 7 9 u _ -.u.p.e.y y 9 5 > > 9 7 I q q [ G.q q q 6 * * * * * * * * * * @ * + # & # + +     + + + # & 0 c q 2 G F ",
"D I 2 2 / S - 3 1 s &.1.&.u z z @.u 9 5 > & > 5 7 7 7 q I ^ T q g 8 * * * * * * * * * * * * + $ & # X X     + + + + # > 0 5 - 5 4 ",
"7 R 9 K  .m O q q s b.x.z.z r 9 r 9 9 > > > & > > 7 5 q E B q ! ' 0 & > & , 6 6 , , * * * * & $ & # X + . + + + + # & # # # # # # ",
"& > & B H.U q k q s *.%.u u 9 9 9 9 < > > & > & 7 q 7 5 q q q g ' 6 & & > , 6 0 6 6 , , * & & + # # + # + + + + + & & $ & & + $ # ",
"# , 0 q 5.M.g.:.h q 5 9 5 9 9 r r 9 5 > > 5 5 9 q 5 > & > 0 U R k , > & > > 6 0 0 0 0 , , * & # + + + + + + + # + & & + $ $ $ $ & ",
"& 6 g :.y.].].C.z s 9 s 9 9 9 p r 9 5 > 5 5 1 5 5 > 5 > > 6 ~ 6.t > > , , > > 0 0 0 , , , * & & # + + + + + + + & & * & & + + + + ",
"& 6 0 g k C.A.2.-.4._ $.9 9 r 9 r a s 3 7 5 5 > 6 5 & & > > 9 k 0 0 , , , , 6 0 0 0 , > & * & # # # + + + + + + , ; & & & + + $ + ",
"# & & 6 f.C.2.] I q q s s s 9 9 9 ] a 9 9 5 5 > > > & & & & > 0 w 0 6 , 6 , 0 0 0 0 , > > & & & ; 5 ; # + + + * , , 5 ; & # # $ $ ",
"# # # , 0 ] k ] x 5 5 9 a 9 q s 9 s k 9 9 5 5 & 6 5 5 > 6 8 6 6 0 0 6 , , , 6 0 , , 5 , > & & & & ; 5 # + + $ * * @ ; & & & & $ # ",
"& & $ & > 6 0 ] s.=.s.%.q 1 1 r a z k 5 > ; & & & & 6 5 6 5 6 > 0 t 0 6 6 , 6 6 , > > > > & & & & & + + + $ $ & & $ $ $ ; & & & & ",
"* * $ & 5 0 c =.s.f.c.k : : 9 s h s 9 > > 5 ; # & & & 6 , * & & * 6 6 8 6 , 6 0 , , > > > & & & & # # # # # + $ & & & ; # ; 5 & * ",
"6 * $ & q w.^.M.V.V.g 9 5 > > 5 5 5 9 9 5 5 5 # & & & & * * * & & & , , , 6 0 9 9 9 > 5 & & & & & & # # + # + $ & & # 5 7 V 8 8 6 ",
"w 6 & # } W.y.N.S.C.g > & > & > > 9 0 t 9 > 5 5 # & & & & , * & & & & * > > , 5 9 > > > & & & & & # # # # # & ; # # ; 7 8 ( 6 8 w ",
"q 5 8 8 q g d g s.f.] 5 # > 5 & & 5 w 0 9 5 5 5 # & # & & , , & > , , > & > > > 5 > : 1 : > & & # # # # # # $ # # # 7 # ; X.W ~ ~ ",
"B 5 6 7.5.q w w 6 0 0 5 7 5 5 5 # 5 t t 9 9 5 5 & & # # & & & 5 6 > 6 > & > > 5 5 5 1 1 : > & & # & # # # # # # # ; + + 7 [ } R.J.",
"7.T } Q./.~ 8 ~ } 0 , > 5 0 & ; ; 7 q 0 9 5 & & & # & # # & , 8 & 5 9 9 > 5 9 > > 5 1 5 : & O O O # # # # # # # # # + # 5 w w 0.6.",
"} >.Q.Q.>.6.} Y 6.g , > 5 5 > 6 5 5 ; 5 q 5 5 & # # > 6 6 5 0 g t w t t t 9 9 5 1 1 9 > > : O O O O o X + + # + # # + $ & w ] ] 8.",
"w 8.Q.`.j.~ 8.6.~ 6 , 6 6 # ; 5 5 7 O 5 9 & # # # # & 5 5 & 6 t ] ] 0 t p 9 > 5 3 > > 5 > : > O O O o X X + + X # & + + & 8 6 w g ",
"g >.Y.^.{.6.Q.w.Y 0 , 6 ; # # # 5 7 7 & 5 5 ; # # # # 0 t 5 5 x ] s s s r 9 9 9 9 > 9 9 > > 1 O O O # # # + X X # # & # # $ $ 6 0 ",
", 6 j.j.Q.Y.6.w w 6 6 , & & # # 5 7 5 o o O 5 7 # 6 5 n s.s.g c =.] ` r t 9 r 9 _ 9 > q s 9 q 1 O O o o o # X # # # ; ; # $ + * * ",
"* 6 b ' 8.} 6 * 6 * 6 8 5 6 * & ; 5 ; # o o o O o 5 0 g s.Z.+.p =.0.0.,.t 9 9 r s 9 5 9 s q E 4 1 O O O O # # # # $ # # & $ $ * * ",
"* 6 b 6.R.) * * * 6 , , 6 8 6 5 5 5 - o O o o o o 5 5 t f.h.0 _ ] <.a.<.u 9 9 a 9 > 9 9 s I e 1 1 : 5 : > & # # # # # # & $ & * * ",
"* * 6 ' w.w * * * * , & ; 6 6 5 5 ; o o O O # o & 9 t =.] k k R E.u.r.9.q.;.s s 5 5 3 3 9 9 > & & & > & 9 9 > & ; & # # & & & * * ",
"* * 0 ) ~ w , * , 6 * & & ; ; # ; O - - o o 5 9 7 5 5 5 5 5 q s W.t.#.q.4.{ s 9 1 1 3 1 > > O & O 1 O > 5 6 0 5 6 6 5 & * & * * * ",
"* * , ' ' w 6 , 6 6 6 * & # # # # & 5 q 9 5 k k 5 5 9 7 - 1 2 4.U.e { s q 4.s > 3 1 3 3 3 3 4 3 9 3 5 > > 5 9 9 5 9 q & * * * * * ",
"* * * 0 +.v , 6 , * , * & & # # # # 5 g q k B.s.5 9 9 O - 2 [ _.L.3 E E _ q.4.e e 1 3 4 e e 4 4 3 > 5 5 9 9 9 5 5 q w & * * * * * ",
"* 8 w 8 g 0 * * * $ * 6 ; ; & $ # # ; 9 9 q ] *.k ] k O O d I !.P.4 Z q q E 4 3 3 4 1 1 4 3 L e 9 > > 9 u t t 5 9 9 5 & * * * * & ",
"* w o.6 , * * * * @ * ; & & & # # # # ; # & 5 7 ] c.h.9 9 s q 4 | 5 - 4 J 1 O 3 3 Z 3 1 : : 4 3 9 9 9 9 9 q 9 5 5 5 9 6 & ; & & $ ",
"6 6 ~ 6 * * * * * * $ $ & & & $ + # # # o o o o O k x.=.=.] q 5 m 4 1 D - o 1 O 1 1 : - O : : : : 5 9 9 9 9 g q q q } ' q w 5 & $ ",
"8 * ; 6 * * * * * * & & * $ & & $ + # X X X o o o & t 5 p :.q 1 o 2 I m o O - O - O O O : : : O > 9 r 9 9 s R R w ! 8.} { } V & & ",
"6 * $ * * * * * * & * * * + $ & $ + +             o & 5 =.` m 2 = - ^ 2 o O 1 O - o O 1 9 5 9 9 r r h _ ` q 9 0 :.>.Y.7.W [ ( q q ",
"* $ * * $ @ * $ $ * * $ + + + # + + +           X o o d :.7 o ..S - m 4 1 2 M 1 : : O O E 9.$.$.%.z ` s s > # 5 t ~ 7.o.Y ( 8 6 q ",
"& * * * @ * * * @ @ * @ + + + $ # + +           # # 5 g k 1 m 3.(.D O 2 M F M 1 O O : : s t.t.i.r.` 9 r 9 > O 9 9 q q q q 7.^ ; 5 ",
"w , * * * * * * * * * * * + + & # # + X     + + # # 6 g t 7 7 2 3.{ - - ^ ..2 1 - 1 s z %.u $.0.2.$.r 9 5 > & 5 7 q q q q X.[ B q ",
"g , * & * * , , * * * * * $ $ & # + X   . + + + + # # & > # ; ; ; I U m M G 1 1 q 9 &.z.b.&.p r i r 9 5 > > & 5 5 5 5 7 I I V d g ",
"k > & & , , 0 6 , , * * & & & & # + # + + + + + # & & & & & # + # q 6 7 F.X.5 9 a 9 *.b.*.%.u 9 r 9 9 > > > & > & q q 5 q I q w ' ",
"w , & > > > 0 0 0 0 , , , & + # + + + # + + # + + & $ $ & $ $ $ # & > & ^ >.! ] _ s s s 9 9 9 9 r 9 < > > > > 5 7 q 7 & > 9 q q ! ",
"6 > , , & > 6 0 0 0 , , * & & $ + + + + + + # # $ * & $ $ + + + $ & 0 c 5.W.A.C.:.s 3 9 9 9 9 r p r 9 > > 5 5 1 9 5 > > > , w { ' ",
"0 > , , , , , 0 6 6 , , * * & # # + + + + + + & & & , * & + + + + 6 6 n ] 0.[.C.2.$.` a h 9 r r t r 9 > 3 1 5 5 5 5 6 > > , 6 { ! ",
"w 0 , , 0 0 0 0 0 0 > > , & & & # # # + + + + * 6 6 & & & + # $ & & 6 0 t M.A.2.{ { _ ` s 3 s 9 9 u %.q 9 5 5 > > > > & > > > 0 0 ",
"6 6 , , , , 0 0 0 6 , > & & & 6 & 8 ; + + + $ , * & 7 & ; # $ $ # # & * 0 2.:.] ] 5 5 7 s s q q q s k s 9 9 5 5 & 5 6 > & > > 6 0 ",
"g 0 6 , , , 0 , , , , > & & & & & & o + # $ & * $ $ $ & ; & $ & & & $ & & 6 w k f.x t s h q 3 9 s q ] p 5 5 5 > & 6 6 6 6 9 5 6 6 ",
"6 0 0 6 , , 0 , > > > > & & # & & # + # $ $ $ & & & & ; # ; & & * * & $ ; 6 0 k ] s.f.z.q 1 1 9 h z k 9 > & ; & # & & 5 6 , & & * ",
"& , 6 6 6 6 0 9 5 5 > > & & & & & # # # + # + $ & # # ; ; 7 5 6 * * @ $ ; q :.l.f.m.f.k 5 > 5 9 q 9 9 5 > 5 5 & & & & & & * * & & ",
"& & > , , 5 9 9 9 > > > & & & & & # # # + $ & & $ # ; 7 W q 5 w w , * + 6 y./.'.C.D.s.9 5 > > > 5 5 9 0 9 5 5 & & & # & & * * & & ",
"> > & & > > > 5 > > > 5 O & & & # # # # # $ & # # ; 7 # V V 6 w w 0 5 # 5 >.>.} h.V.g.9 # & > & > > 9 t 0 5 6 7 & # & & & * , * & ",
"> 6 5 > & > > 5 5 1 1 1 5 > & # # # # # # # # # # ; # # V 4.6.w.( 7 ; U T q q w 0 g +.w 5 & 7 5 # & 9 0 9 9 9 5 & & & # & & , 6 6 ",
"> 6 5 > > 5 5 > > 1 5 : : O # # # # # # # # # ; ; # + ; U q } R.X.E 5 } /.6.q g Y 0 6 6 5 q 6 5 & & q t 0 9 5 & & # # # # # & 6 6 ",
"6 0 0 0 9 9 9 : : 9 1 > > O O O O o # # # # # # o # # & 8 w :.} Y.} 6.Q./.8.Y C } } 6 , 6 9 6 & 5 5 7 5 0 5 5 & # # & & # 6 6 0 0 ",
"] t 0 p s 9 5 9 1 5 5 > > : : O O o X + + + + + ; $ + $ 8 g g ' } ' Y.).N.' 8.} } ~ 6 , 6 6 & 6 5 7 5 ; q 5 & & # # & 5 5 6 6 0 p ",
"] t 0 p 9 5 5 9 > > 9 > > > : O O o # # X + + + & $ + # & & 6 0 0 ' R.Q.}.+.6.R.} w 6 , 5 # # ; & 7 1 & 6 5 # o o # # & 9 6 & t c ",
"s ] s r 9 9 9 s q > 9 9 9 9 5 O O o # # # + # # # & & # # + $ , 6 w d.j.^.Q.Y.w.~ w 8 , , & # # ; 7 q ; # ; 5 7 & & # 6 c p 0 t s.",
"$.>.%.p 9 9 9 r _ 5 1 s s q q 1 O o o o # # # # # # & & & $ $ @ * , w d.6.K.} * 6 6 * 8 6 6 & # # 7 5 # o o o 5 # & 0 g x c.v.g =.",
"=.r.r.%.9 9 r s 5 5 9 q s _ _ 3 1 - - O # # # # + # # & & $ * * * , w +.8.8.0 * * 6 , 6 8 5 8 6 6 5 1 O O o o o o # 6 0 t x.f.0 k ",
"5.p.r.-._ 9 u 9 > 5 4 e s q > > O 5 5 5 9 > # # & # # # & & * * * * , O.Y.7.6 * * , 6 , & 6 6 6 8 5 - o o O # o o & 0 g s.h.c s <.",
"/.-.9.t.t.` d 9 > 3 3 1 5 : O O O & O 5 9 9 > 5 5 5 ; & & & * * * * , w } } 6 * * * * * & & 6 6 ; - o O O o O ; 5 5 5 t w 5 q s ` ",
"t.L 4._ _ s 9 5 1 3 3 1 > 1 3 1 3 1 > 5 > 5 9 5 5 5 6 & & * * * * * * ! } g w * , 6 6 * $ & # # # & ; 5 5 & # k q 5 5 5 5 5 5 q 5.",
"Z 4 ` q 4.q.q 3 3 1 e 3 4 4 4 4 9 5 > > 5 9 9 5 5 q 8 * & * * * * * * 6 ' b 6 6 6 , 6 * & & # # # # # q g q c h.9 5 9 5 - - 2 4.~.",
"L Z [ 4 E 4.J 4 4 1 1 4 4 e e 4 5 > > 9 s s 9 6 q w 6 * * $ * * * * 6 6 w b 6 * * * * & ; ; & $ # # # 9 w q *.x.k 7 k 5 O 1 I U.|.",
"m 3 1 q I 2 1 3 4 Z O 3 : e J 3 9 < 9 9 s q 9 9 5 9 6 & & * * * $ * ~ w 6 0 , * * + $ ; ; & ; & + # # & 7 5 9 q *.=.c.9 O q s D F.",
"m - 2 J - O 1 3 3 3 1 1 O : 1 1 9 9 9 9 9 s 9 5 9 q Y 5 8 6 & $ & * ~ Y * * * * * * $ & & & & & # $ # # # o o o ; k x.s.k k I 9 2 ",
"4 2 I 2 o - O O 1 : O O O : O : : 9 9 9 9 d R d q } 6.[ } ~ ; $ 5 6 6 w * * * * * * * $ & & & & $ + # # X o o o o O ] =.p s.] 7 - ",
"o 7 ^ - o - - 1 O o O > > > > > 9 r s a d d d g ' 6.7.} [ [ q 5 8 * $ * * % * * * * & * * * $ & & + $ +       X   o & 5 5 ] T m - ",
"o 2 I - O 2 2 O O O O q ` a h z u ` ` ` s > > g >.6.T.~ T ( q q q * * * * $ * * $ & * * $ + # # # + +             X # ; =.=.1 2 m ",
"M 1 2 m m M M O : O O 1 4.U.-.2.%.h r 9 5 O > 0 0 T T d T T 6 5 5 & * * * @ * * $ $ * * + + + + + + .           X # o 5 ] q o M P."
};
