/* XPM */
static char *_8486e7450c345abe2dd11c7439efedeKuTrPR6v9oaI7wIG[] = {
/* columns rows colors chars-per-pixel */
"65 65 155 2 ",
"   c #060605",
".  c #080807",
"X  c #0C0C0B",
"o  c #0F100E",
"O  c #10100F",
"+  c #141412",
"@  c #191916",
"#  c #1C1C1B",
"$  c #1F201F",
"%  c #21211E",
"&  c #1F1F20",
"*  c #242422",
"=  c #272826",
"-  c #2A2A26",
";  c #272728",
":  c #2C2C2B",
">  c #302F2A",
",  c #2F302F",
"<  c #32322D",
"1  c #2F2F30",
"2  c #2F3031",
"3  c #343433",
"4  c #383733",
"5  c #373836",
"6  c #3A3A35",
"7  c #363738",
"8  c #373839",
"9  c #3C3C3B",
"0  c #3F403F",
"q  c #43433C",
"w  c #48483F",
"e  c #3E3F40",
"r  c #3F4040",
"t  c #444443",
"y  c #474847",
"u  c #4B4B44",
"i  c #464748",
"p  c #47484A",
"a  c #4B4C4B",
"s  c #504F4C",
"d  c #515146",
"f  c #53534B",
"g  c #59594E",
"h  c #4F4F50",
"j  c #4F5051",
"k  c #515254",
"l  c #545555",
"z  c #555556",
"x  c #575757",
"c  c #535354",
"v  c #595950",
"b  c #5C5C51",
"n  c #5C5C53",
"m  c #545558",
"M  c #575758",
"N  c #565758",
"B  c #575858",
"V  c #585859",
"C  c #58585A",
"Z  c #5A5B5B",
"A  c #5B5B5C",
"S  c #5C5D5D",
"D  c #5D5E5E",
"F  c #5F5F5F",
"G  c #5B5B5C",
"H  c #5F605F",
"J  c #626256",
"K  c #616156",
"L  c #606058",
"P  c #67675B",
"I  c #63635C",
"U  c #67675C",
"Y  c #65655B",
"T  c #68685F",
"R  c #6B6B5E",
"E  c #6A6A5C",
"W  c #5F5F60",
"Q  c #5F6062",
"!  c gray38",
"~  c #656565",
"^  c #656566",
"/  c #636364",
"(  c #6C6C63",
")  c #676768",
"_  c #666768",
"`  c #676869",
"'  c #6A6B6C",
"]  c #707065",
"[  c #737367",
"{  c #747465",
"}  c #727265",
"|  c #717169",
" . c #737369",
".. c #777768",
"X. c #75756B",
"o. c #7A7A6D",
"O. c #6F6F71",
"+. c #6E6E71",
"@. c #6F7072",
"#. c #717275",
"$. c #747475",
"%. c #757577",
"&. c #737374",
"*. c #7E7E74",
"=. c #757679",
"-. c #77787A",
";. c #797A7C",
":. c #7C7C7E",
">. c #7E7D7F",
",. c #7A7A7C",
"<. c #828277",
"1. c #848478",
"2. c #89897D",
"3. c #7E7E81",
"4. c #7F8082",
"5. c #828284",
"6. c #828284",
"7. c #8C8C80",
"8. c #858589",
"9. c #858689",
"0. c #87888A",
"q. c #87888A",
"w. c #89898B",
"e. c #8B8C8D",
"r. c #8A8B8D",
"t. c #8D8E91",
"y. c #8F9091",
"u. c #939397",
"i. c #929294",
"p. c #929295",
"a. c #969799",
"s. c #96979A",
"d. c #969699",
"f. c #979899",
"g. c #97989B",
"h. c #99999B",
"j. c #99999D",
"k. c #9A9B9E",
"l. c #9A9B9D",
"z. c #9E9FA1",
"x. c #9FA0A2",
"c. c #A0A1A2",
"v. c #A4A5A7",
"b. c #A2A2A4",
"n. c #A7A7A9",
"m. c #A6A6A9",
"M. c #A7A8AA",
"N. c #AAABAD",
"B. c #AEAEB0",
"V. c #B1B2B4",
"C. c #B7B7B9",
"Z. c #BABABD",
"A. c #BFBFC2",
"S. c #C4C4C7",
"D. c #D5D6D8",
/* pixels */
"- - k 8.%.* . . 9 i 6 T g g 4 O 7 :.~ %.5 6 J T ..P d a u 6 # 3 i 6 g u u u u < X @ k l : g 6 + D 3 - # a f.i.m @ 3 q * - D &.a < ",
"u 4 + i 0.,.5 : m : a g d u + # O.D % a V * b { I g a g d u % # i 3 t 9 4 < % X # k a < I | 3 O a : 6 * # m l.c.l @ 6 u # # ~ 6 g ",
"u d q # 9 e.i.w._ : v q q # O l V 4 q + h 6 4 J a a d f g u - # t # + X X X X : V 9 < ( I 9 < X 9 - % < - + D l.s.l + 4 * # k 9 d ",
"f u u q @ * :.n.5 # 3 6 * X t ~ : | [ % - D - 6 u u d g g u : + i 5 - : - 9 l %.k @ d g 6 4 %   7 9 . @ < - @ h s.c.k @ + * e q v ",
"u u q 6 %   5 h.C # X + . ; V 5 u [ d q + t y % q t d d u u * X a ! a 8 9 3 9 :.:.- + # + X . X a 5.k + . # # # W v.c.l X 3 i 6 d ",
"- # + X X * V V ` %.k # - C 3 # 4 4 q 9 * + k 3 : q t t u q + # 9 * 6 3 4 3 + 9 l.:.* # * 3 e W %.V %.$.a # O O + ! M.s.a W a 4 3 ",
"X + * 7 7 _ ,.: : 3 a ! %.&.9 # X + O O + . : V % % - - - # X : < f v d u u : O k l.e.8.e.w.8.k.' # * 9 m &.! : X O ` f.t.h.9 @ X ",
"h i i 9 : ,.i.5 u q % * / 3.u.t./ V a 9 5 : 3 %.j # + + O X * 3 q I 9 u g u 6 @ @ :.l.u.#.' l 5.` - 6 * * q ~ 5.D 3 * -.i.N.q - 9 ",
"q 3 < - + D q.i q J q X V w.-.8.3.3.5.8.e.e.r.l.' a 9 5 5 9 a * : q 9 q u u 4 @ + -.&.q < < X a ' - u s t < % 5 ' i.3.m f.i.8.l.l ",
": u g q + 3 3.~ 3 b q X B v < 6 6 9 9 i l ` z.%.: < 3 3 < % : : X + + % - : - O * ,.~ : f 9 X a ! < g v v g u < % 6 ` r.~ - k y.5 ",
"* 4 u q # * -.O.: u 6 X k 9 q g q q 4 < O - 5.5 v v u d u : O t k 3 * # + X .   3 8.k < q < X i k 3 g g g g u u 6 X 3 H u J + a =.",
"V % q u * + ' 8.5 3 - . a * + : 6 q q * X l a 5 ~ u v b f 6 X 9 ` l V h k t t 9 / 8.9 < q < X 7 e 6 u u d a t 4 # X t 3 ( ( 6 # l ",
"! a # q 4 X k u.k + . # _ / - X + + O   - a : I f g J b u - . i l + * : < 3 i k ` i.a + : * . 9 3 3 9 9 q < # X X 9 9 3 v 9 u < + ",
"# W 9 @ < + 5 e.O.+ 9 W y l -._ 3 - ; 5 a * v S g J b u : X # _ 8.k @ - 6 3 3 < * 9 ` 9 X X X e 3 - 3 - + . + - 9 ~ a * q t u 9 * ",
"+ * / 3 + + # ,.k.4.O.5 % . 9 u.0.5.W &.V * g f n g u * . * D 8.e.n.D + < u d g w # * $.C 9 t m 9 + O X # 3 9 5 * 3 ! $ 3 u u q 3 ",
"- + : D - X # =.n.` 3 v q X 3 t.v.W # 5 ' - q g v u % . : W &.5.k -.N.D + < g f q # + S D 3 9 - 9 i 1 t t < < q 3 O a i * u t 6 3 ",
"* + + C ! a a 5.l < I I * X k i.n.t * + #.9 6 g u # X 3 ` a 9 i.t # ` v.h + 4 q % . 7 k : u u 6 # q k 5 6 v I n u @ * / : 9 q 5 : ",
"X X a ! 6 3 3 k t 3 v 6 + # @.c.t.- u X a a - 6 + X a D 9 # # r.a : % ' t.h @ % X 3 l : I ~ u J < # a < ( ( v f f 3 X i 9 # : - % ",
"+ t a - q q % * k % 6 6 X 3 -.k.` : u O - V # X @ m ` < < : + 3.k 6 : # ~ l.i X - ~ 3 t [ u g P 4 @ i 9 J b J I J q + - ~ #   .   ",
"V a * I ( d q + t 5 - * X a 5.s.0 6 q # + l * - V ` - u n < X ~ l % 4 * # ~ i.W -.a q ( d d n J < + t 6 Y T P J g q # X _ &.j a 9 ",
"V * t I u g d * # i # . # D +.w.< : : * . t _ 3._ - d X.u = X t m # X + + + k v.` 6 *.d q u g J 6 + 9 6 J P J g u : . - p t a l %.",
"_ * 5 u g g d 4 X 9 9 * a =.n.w.# X X O   3 i.` : u | w 4 + + m 5.5.l - + . # =.q v S 9 u u f f 3 O 9 3 u v g d q + # l ; * # X 9 ",
"5.5 - u d u q < X : ~ l l C #.w.-.V 9 * + 9 D @ * 3 : : + X a ! a ` 8.8.&.V l %.9 u 9 6 3 < : # O X t 3 + : q q % . i a @ * % + + ",
"$.a @ * % # + X . 9 9 - < - * - 9 a k k k -.! 3 * # + X O t l - < - - 9 D -.k.@.: < # + O X + * 5 k #.' 9 # O + . : O.h ; # .   X ",
"-.' + + # * - 3 a a - S d u q 9 3 - * # # ! &.~ ~ D a e k ` - 9 I d u 3 : * 9 ' - . + * : i t a a ~ 5.v a l 9 * 9 ' e.c.s.8.~ i 9 ",
"k.c.5.' D D V k ~ V : d d d u q q 9 : X # W W : 8 3 5 3 a ' - - f g g d u 3 X 9 ! a D V a t 5 : + a O.6 < - 9 D ` a ! e.t.N.n.8.i.",
"C.r.a t 6 3 < * * C : t g g u q 9 : X + l ' $.< u g u < O k ' + 6 a t u u 6 O - ` a 6 6 q d g 3 X ` &.q T q @ - t * : : q k k / =.",
"h.a : t v n d < + t : q g f u q < + . a a # @.V : b v d - + D i % q u u u < . 5 : < a J T T g : + %.V d ( f < + k : u u q 3 * * : ",
"%.6 v n n v a 9 O 9 9 q b u t 6 # . 5 9 % + e 5.- u b u q % # ! t % 9 q u * X 5 - n d f b g d # * %.i g ( b q O i 9 : u f t 3 # + ",
"D 3 u u g b d q + - 9 < v d t * . 5 a : g : O #.a < g g q 3 @ * / : # 3 < O + , # % % < 6 6 < O : O.9 f v g q @ - a + O # # # + * ",
"a 6 d g v g d 6 + # 9 + : q < . - k < J ..u + 9 ' * 4 4 * @ O . k %.# X X X 9 i # + + O X X X X a ` * = % % # X # ` l 9 - # + X 9 ",
"8 6 b v v u 3 + . 3 l 9 # + X * l 3 v <.J b : + ` t X X + # 3 l #.$.m t 8 5 h 8.w.` C V i h a V &.' 3 * # # # # 5 h a l V a a a O.",
"a * u d 6 # X + 5 i 5 9 a 5 - a 5 4 <.J T P q + 9 %.a i D ! l a t - a 5.9 # # _ ! t 9 t t a a ! =.k.c.u.8.-._ =.` * - - : - : 3 i ",
"a 5 + + X X 3 l 9 < q < * 5 C #.: # 4 g P J u @ * :.~ a i 9 6 3 - X a Z : t X 9 k * u q q q < @ 9 t.' l f a i ' #.* t q t q 6 * X ",
"# k - * t S &.O.* q J d % # %.$.~ 9 + : u f 6 X 5 a 4 d P ( P J < + ! q a g - # ! 3 u T T P f + i 5.3 q 4 < + 3 / - q u u u q 3 # ",
"  5 / 9 5 ! t.i.V % q u + 3 &.: 3 ' l @ + < # + k 5 ( 2.{ { P f @ - l q o.g u + 9 a : P R P f + t %.6 I u 4 X 3 ~ * q u u q 6 : # ",
"# k 5 # + 3 s.z.z.i < 6 . a l 6 3 # t h 5 + . : a 9 X.P { { P q X 9 9 f ( f 4 X - ' : q T P d O 9 ` 6 u 3 + . h &.* + : 6 5 - + . ",
"k #.e # - X V N.V.3.* # @ C q g I 6 * - l a 3 m 3 u n g P P g * + a 3 P g < X # V w.! # q J w O i m : : . # k ` / ' 3 X # + . X : ",
"# 3 ~ # * # # 3.N.n.W X : D 6 ( P g d < # 9 #.! - v u t u u 4 X : t 6 v = X * a 5.k.h.V # 6 q X t W @ X 5 / k * # a 3.a X + : e t ",
"* X D 9   + X 3 i.V.v.a t m q ..d f d 6 %   5 k # : * # + O . + a 3 < % . 5 V -.k.:.i ~ D # * X h ~ # V -.9 < I 6 @ 3 / ~ ~ i - - ",
"< X r ,.i # . . D v.V.M.v.v u g q 6 * O X * V -.* . + + * : 5 t ` : X + 9 / 8.c.~ 3 q % D k + X j 5.e.-.5 u X.I d 9 O * 3.i - u v ",
"- . r 5.-.,.C : t l.C.A.N.t q < @ X X * i ` ! k V l a i 9 9 5 : 8 ! 9 l 5.t.k.V - X.P 4 # l V i a +.%.< v *.n d g q + - ! * S g 6 ",
"% X h t * a &.5.e.v.S.D.5.* + X # 9 l l 9 3 * X a ! : < : 6 q 4 + 9 5.r.s.N.a 3 | *.f 6 X 3 V 9 < h ~ * q u g g d 6 . 9 a 3 s 6 q ",
"+ # S - * + + / B.Z.=.5.:.: 3 k ~ e 9 3 6 g 9 X 9 9 3 g u u a q : X 9 c.s.t q ( g q u + # a 3 n q # a l + - q q q - . i 9 6 i 9 6 ",
". ; a * * . 9 =.N.:.- * a e.:.a 9 < u I I n 6 O : 9 3 q t t q q q * . #.l - I g q q # + 9 3 [ 2.g q # a a + X O @ X + k < u q 9 3 ",
"X 7 9 # X * O.l.e.< ( 9 + #.t 4 v [ ( I g u 9 + - 9 4 u t t t u t 6 + : l * q u u * X 9 3 d 7.J P J < O D ' i 9 * # 9 k - t 9 6 - ",
"+ V 3 X # ' 4.O.9 v ( > + a 6 g I J J n v d q + * 9 4 u u q t u t 9 * O a : : q - . - 9 q 1.T T T b < X ! ` 9 i i i ! m # : 6 3 @ ",
"- V # + D h.t.5 v <.q 3 o i 9 q u J n J b d 6 + * 9 : q u u u q q 9 < O * a @ @ . * t % u b J P P g @ * ' 6 q 6 : * # h 3 X # * + ",
"i a X k l.s.a t 2.J d 3 + 3 : < < q q q q q < + # 9 + O @ % - : < < * X O D 5 # 5 D ` - + < f b J q X t D < ( u 6 : . : &.t # . . ",
"#.! l l.B.! < ..n d q * . 3 3 O X O O X X O X . 5 D k i 5 # + X X X . + 3 l ` ` 9 - V 5.a + # 6 u * + V 9 q n q 3 + # D ` i a i 9 ",
"9 a ' N.w.* S ~ u 9 @ . % D ~ k V a i i t e t a a 3 6 i a a i 9 5 - : 9 5 # 3 / # * # 9 %.` - o % O : / 3 b d q + X m ` - # @ ` ~ ",
"< * # D ' # % 3 - X X : 5 3 ' i.D 9 5 5 3 t O.8.a < u 6 < : = - 7 %.h % 3 * X k t + * % % k ' i + X l l 3 n 6 @ . a ' - t : + ` t ",
"I u : # 9 a * . . # 9 3 * O a z.a : q * . 9 ,.n.:.- d b b u 6 # + ` 5 u v * X C 8.D @ % < % - W ` V ,.t # * @ . t ' : t ~ + - ` : ",
"v u u 9 # - h 5 9 t - q v @ - s.-.- 6 + * / s.x.k.6 6 d g u 6 + * ~ : u 9 - X t 8.8.O.* # 3 - + k 5.u.,.9 @ . 9 ' 5 6 ( < . : y : ",
"n g d u q # # V i < v I q % O ` r.3 + + W i.5.3 =.l + # % - * . 7 V : f q - X i 8.5.z.w.3 + * X 9 @.t j -.%.! :.t - v 9 * X i t 6 ",
"b v a u q : . 5 * 3 u % + X X l l.l . t =.u.i X i 8.a & # + X . a a < g q - X D / ! v.V.i.a + + ` k 3 < * 3 -.$.# 9 3 * + + C 9 d ",
"a b d q 6 # . 9 * X   X + : i -.v.4.l 8.v.D * + 3 h.3.&.O.' k i #.9 q u t - X D i # a l.N.k.k i O.6 ( b u # - %.* X X X + 9 l - q ",
"u d t < + . * m 9 * i l Q :.e.k.N.N.i.n.i.: a X 5 r.D O.:.5.3.t.8.3 q u u * + W 9 6 - 3 =.v.u.s.k g o.b J 6 X a j : a D ` ' ,.: - ",
"3 9 * . X 5 a 9 #.y.8.w.t.i.c.Z.V.N.V.N.t v u   a ! - < 9 3 9 h =.9 < 6 - X + ~ 9 6 d : * ~ V.e.u 1.I P J q O - 8.8.-.D i : -.%.# ",
"# + . * 9 8 * + - r.v.V.C.s.5.! a 9 k.-.< I * . m i 4 f q q < X m k O X + # 9 O.9 O : u < + ~ ` d o.T R v 4 X 1 B 9 3 < < # * 5.k ",
": # a a - : f :   l C.w.~ u q q q + m ! : # . # &.9 + : 6 q q + 7 D 5 9 i k l a %.a + @ < O t V d R R J 9 # . e 5 @ 4 t q 3 + : #.",
":.' a : i ( u < O * t.O.< @ < d q @ 2 #.- + : i ' ' a + X % : + * ' ,.B 9 3 3 - : ~ ~ : O . a k u J d < + X 3 m / < + % 3 9 < O t ",
"u.O.+ - v q 6 < . 5 5.%.8.Q * + + + # :.#.! a 5 = 9 ' ' t + X   9 k : 6 g ( n u < % 9 ` a % D q : - + . + t i : ~ t.i + O - : O * ",
"' i.l + # 3 6 # X k u * 9 a ! ~ t # * ' ~ q t g u 6 : 9 l j a 9 h < n n J J g g u < X - 8.-.&.k + # * 9 / W # % % 9 ` ` 3 + X + t ",
"* 5.M.~ # # - X * V < u w < - 6 D V / ! : v o.( T ( g < * : k O.y q ( u u d f d 4 + + i ` u - a ~ V 9 B 3.=.e # : * % l 5.a # i 9 "
};
