/* XPM */
static char *_6a1ffdc57a046179b355076b0b70f25u5kYc0X24AbJLsuO[] = {
/* columns rows colors chars-per-pixel */
"65 65 185 2 ",
"   c None",
".  c #110D1E",
"X  c #140F20",
"o  c #161222",
"O  c #181425",
"+  c #1A1628",
"@  c #1C192B",
"#  c #1E1D32",
"$  c #1A1F3A",
"%  c #221E2F",
"&  c #201F31",
"*  c #1F2137",
"=  c #1E233D",
"-  c #222236",
";  c #24253C",
":  c #282738",
">  c #27283E",
",  c #29293C",
"<  c #302D3D",
"1  c #34303F",
"2  c #222740",
"3  c #262B44",
"4  c #2A2E45",
"5  c #272D49",
"6  c #2A2F4A",
"7  c #2E3046",
"8  c #2C324B",
"9  c #333346",
"0  c #30354C",
"q  c #383748",
"w  c #33384F",
"e  c #2E3452",
"r  c #313754",
"t  c #353A53",
"y  c #383D55",
"u  c #353D5D",
"i  c #353E60",
"p  c #3C4157",
"a  c #3C435D",
"s  c #37405B",
"d  c #374061",
"f  c #3B4465",
"g  c #3F4966",
"h  c #3C4668",
"j  c #3E496A",
"k  c #424254",
"l  c #42465B",
"z  c #45495F",
"x  c #4A4858",
"c  c #404761",
"v  c #424962",
"b  c #484D62",
"n  c #424D6C",
"m  c #4E5266",
"M  c #47506C",
"N  c #49526C",
"B  c #515569",
"V  c #565A6D",
"C  c #5B5C6D",
"Z  c #434F70",
"A  c #465273",
"S  c #4A5574",
"D  c #4D5975",
"F  c #4A5678",
"G  c #4E5A7A",
"H  c #535B73",
"J  c #5B5E71",
"K  c #515D7C",
"L  c #53607E",
"P  c #5C647B",
"I  c #5E6275",
"U  c #65636F",
"Y  c #6A6D7E",
"T  c #566483",
"R  c #586785",
"E  c #596887",
"W  c #586788",
"Q  c #576888",
"!  c #5C6B8A",
"~  c #636C85",
"^  c #626F8C",
"/  c #686F84",
"(  c #6F7283",
")  c #62718E",
"_  c #6B758D",
"`  c #727584",
"'  c #7C7E8D",
"]  c #72798D",
"[  c #647492",
"{  c #687793",
"}  c #6A7995",
"|  c #6D7C9A",
" . c #747F96",
".. c #717F9A",
"X. c #6F809E",
"o. c #73829D",
"O. c #79859E",
"+. c #7B8397",
"@. c #7585A1",
"#. c #7887A1",
"$. c #7A8AA5",
"%. c #7E8EA9",
"&. c #7788A4",
"*. c #7F90AB",
"=. c #82808A",
"-. c #828594",
";. c #868997",
":. c #81879D",
">. c #8A8D9B",
",. c #8E909D",
"<. c #91939F",
"1. c #838EA5",
"2. c #818FA9",
"3. c #8590A7",
"4. c #8393AC",
"5. c #8B95AB",
"6. c #8E99AE",
"7. c #9294A1",
"8. c #9B9CA6",
"9. c #929AAE",
"0. c #9B9DA9",
"q. c #9096AA",
"w. c #8797B0",
"e. c #8798B1",
"r. c #8B9BB4",
"t. c #8F9FB8",
"y. c #939DB2",
"u. c #909FB8",
"i. c #999FB1",
"p. c #9DA1AD",
"a. c #8FA0B9",
"s. c #96A1B4",
"d. c #9CA3B5",
"f. c #93A2BA",
"g. c #9BA6BA",
"h. c #9BA8BE",
"j. c #A2A6B3",
"k. c #A6A9B3",
"l. c #AAACB6",
"z. c #A3ABBD",
"x. c #ABAEBB",
"c. c #AFB1BB",
"v. c #B2B3BC",
"b. c #9DABC1",
"n. c #A3AEC2",
"m. c #A5B1C5",
"M. c #ABB3C3",
"N. c #AAB6C9",
"B. c #ADB9CB",
"V. c #B5B9C5",
"C. c #BABDC6",
"Z. c #B3BCCB",
"A. c #B9BDCA",
"S. c #B1B5C3",
"D. c #B3BFD1",
"F. c #B7C0CF",
"G. c #BBC1CE",
"H. c #B7C2D3",
"J. c #BDC5D3",
"K. c #C2C5CE",
"L. c #C7C8CE",
"P. c #C8C9CF",
"I. c #C1C7D2",
"U. c #C3CAD6",
"Y. c #CBCDD4",
"T. c #C5CDDA",
"R. c #C9CFDA",
"E. c #CDD3DD",
"W. c #D2D5DD",
"Q. c #D4D8DF",
"!. c #CED5E0",
"~. c #D2D7E1",
"^. c #D6DBE3",
"/. c #DEDEE2",
"(. c #DADDE3",
"). c #D8DEE8",
"_. c #DDE0E7",
"`. c #DEE3EA",
"'. c #E2E3E5",
"]. c #E2E5EA",
"[. c #E7E9EE",
"{. c #EAEAEC",
"}. c #E9EBEE",
"|. c #EBECF1",
" X c #F2F3F5",
/* pixels */
"        3 8 u h h f f f f f f f f f f f f f f f f f f f f f f f f f h h f f f f f f f f f f f f f f f f f f f f f f f f f         ",
"        3 6 r u u u u u u u u u u u u u u u u u u u u u u u u u u u u u u u u u u u u u u u u u u u u u u u u u u u u u u         ",
"    3 3 3 3 8 8 5 5 8 8 8 8 8 8 8 8 8 8 8 8 8 8 6 5 6 8 8 8 8 8 8 8 8 8 8 8 8 8 6 5 6 8 8 8 8 8 8 8 8 8 8 8 8 8 8 5 5 8 e u f     ",
"    3 3 3 3 3 8 b m t 3 3 3 3 3 3 3 3 3 3 3 3 6 l m p 3 3 3 3 3 3 3 3 3 3 3 3 3 p m l 6 3 3 3 3 3 3 3 3 3 3 3 3 t m b 8 8 u f     ",
"3 3 3 3 3 3 ; z 8.l.J 3 2 3 3 3 3 3 3 3 3 3 ; t ;.v.` 8 ; 3 3 3 3 3 3 3 3 3 2 6 ( v.;.t ; 3 3 3 3 3 3 3 3 3 2 3 J k.8.b 5 u f f f ",
"3 3 3 3 3 2 = B L./.` 3 ; 3 3 3 3 3 3 3 3 3 = y l.}.7.8 = 3 3 3 3 3 3 3 3 3 = 8 >.}.c.p = 3 3 3 3 3 3 3 3 3 ; 2 ( /.Y.V 3 u f f f ",
"3 3 3 3 3 2 = m L.'.` 3 ; 3 3 3 3 3 3 3 3 3 $ t l.}.7.8 = 3 3 3 3 3 3 3 3 3 = 3 >.}.v.p = 3 3 3 3 3 3 3 3 3 = = Y /.Y.V 3 u f f f ",
"3 3 3 3 3 8 a ( K.Y._ 8 3 3 3 3 3 3 3 3 3 6 y I c.Q.>.t 3 3 3 3 3 3 3 3 3 4 t B 0.^.j.b 3 3 3 3 3 3 3 3 3 3 0 b ;.E.C.H e i h f f ",
"3 3 3 3 2 z 7.K.H.h.{ n r 3 3 3 3 3 3 3 ; t -.C.J.m.O.S t 4 3 3 3 3 3 3 2 8 Y v.I.B.3.L s 8 3 3 3 3 3 3 2 3 V k.K.Z.y.! n h f f f ",
"3 3 3 3 ; m V.`.B.4.} K u 3 3 3 3 3 3 3 = p p.`.J.r.| W g 3 2 3 3 3 3 3 = 8 -.(.E.f.@.! n 8 3 3 3 3 3 3 2 3 Y Y.^.b.$.[ K n f f f ",
"3 3 3 3 2 v 5.B.b.4.} L u 3 3 3 3 3 3 3 ; t +.B.m.w.o.W g 4 2 3 3 3 3 3 ; 8 / m.N.r.@.! n 8 3 3 3 3 3 3 2 3 H g.B.f.$.[ K n f f f ",
"3 3 3 3 2 s } r.t.4.} K u 3 3 3 3 3 3 3 ; 8 ~ r.f.w.o.W g 4 2 3 3 3 3 3 2 4 H 4.f.r.$.! n 8 3 3 3 3 3 3 2 3 n &.a.r.%.[ K n f f f ",
"3 3 3 2 = t { r.t.4.} K u 3 3 3 3 3 3 3 = 8 R e.f.w.o.W g 4 3 3 3 3 3 3 = 2 D 4.f.r.&.! n 8 3 3 3 3 3 3 ; = v O.t.r.%.[ K n f f f ",
"3 3 3 8 p H  .w.r.4.| K u 3 3 3 3 3 3 4 t m _ 4.r.w.o.W g 4 3 3 3 3 3 3 w b ~ %.r.r.$.! n 8 3 3 3 3 3 3 0 l P &.r.r.%.[ K n f f f ",
"3 3 2 z ,.k.1.o.4.4.| K u 3 3 3 3 3 2 t ' l.5...%.w.@.W g 4 3 3 3 3 2 8 Y k.y.o.$.r.$.! n 8 3 3 3 3 2 3 V 0.j.O.@.w.%.[ K n f f f ",
"3 2 ; V P.].6.) @.%.} K u 3 3 3 3 3 = p x.}.z.) | %.o.W g 4 3 3 3 3 = 8 <.}.G.} } %.@.! n 8 3 3 3 3 ; 3 ` /.W.O.[ $.$.[ K n f f f ",
"3 2 = B Y.|.9.! [ } [ K u 3 3 3 3 3 $ y v. XM.! ! } [ T g 4 3 3 3 3 = 4 <. XU.{ ! } { ! n 8 3 3 3 3 = = ` '.(.O.! { { ! K n f f f ",
"3 4 t Y L.^.5.W Q ! ! K s 3 3 3 3 4 0 V v._.g.! Q ! ! T g 4 3 3 3 3 8 b 0._.Z.[ Q ! ! E M 8 3 3 3 3 8 p -.Q.T.o.Q E ! ! K n f f f ",
"2 z >.V.G.m.o.E Q ! ! L s 3 3 3 2 y ' c.G.B.1.! Q E ! Q g 4 3 3 2 8 Y k.G.Z.r.) Q E ! ! M 8 3 3 2 3 V 0.C.G.g.} Q W ! ! T n f f f ",
"; V C.`.B.4.{ E E ! E G u 3 3 3 = l k.].J.r.| ! E ! ! L g 4 3 3 = 0 >./.E.f.o.! W ! ! T n 8 3 3 ; 3 ( W.^.b.$.) W ! E Q G n f f f ",
"; b s.H.b.%.[ ! ! Q G n r 3 3 3 ; y 1.H.m.4.} ! E W K A u 3 3 3 ; 8 ] Z.B.r.o.! E E T S d 8 3 3 2 3 P M.D.f.@.) E ! T F n h f f f ",
"2 a  .t.t.4.{ ! ! T A d 8 3 3 3 2 t ) r.f.4.| ! ! Q S f e 3 3 3 2 8 P 4.f.r.@.! E E G j r 6 3 3 2 3 N %.f.r.$.[ E ! K n f f f f f ",
"2 a } r.r.4.} E Q G Z u 8 3 3 3 3 t ) r.a.4.| ! Q T A f e 3 3 3 2 8 L 4.a.r.@.! Q T F h r 6 3 3 3 3 N $.t.r.$.[ Q Q G j f f f f f ",
"2 a } r.r.4.{ ! [ ^ S d 8 3 3 3 ; 0 ~ 4.r.4.| ! ) ) K f e 3 3 3 2 8 K 2.r.r.@.! ^ [ T j r 3 3 3 ; 3 N &.r.r.$.) ! [ ! n f f f f f ",
"3 t R &.e.4.{ } g.z.^ d 8 3 - # @ 3 D o.w.w.| [ y.M. .h 3 - ; 3 3 8 N } 4.r.@.) 3.M.1.A 8 - # # * 3 v ) %.r.$.[ O.z.y.K d f h f f ",
"3 t D { %.%.[ O.E.(.+.u 6 ; @ O o & v ^ $.4.} } G.[.9.h ; @ # 3 2 4 g E o.4.| ) z.[.S.D 3 @ o O @ ; s L | 4.@.) 6._.U.~ i i d f f ",
"3 r S ! } } Q O.^.[.:.u 2 # + O o & g ! } | ! [ I. Xd.h ; + + # # - s T { | ! ! M. XA.D 3 @ o O O # t K [ | [ W 6.}.W.~ e 4 8 u h ",
"; t D ! ! ! ! 1.W.^.O.u - O O O o & v E ! ! ! o.J.].y.n 2 + o O o @ y T ! ! ! } M.].M.H 5 @ o O o O 0 K ! ! ! ) s._.U.^ e # - r d ",
"# 7 S ! Q } d.G.U.N...n > O o O o & v W W ) 6.Z.U.F.1.D 8 + o O o @ y T ! ! 1.N.U.J.y.T t @ o O o O 7 K ! E o.z.J.U.z.) s - + ; 3 ",
"o > N ! Q O.T.].Z.4.} D 4 O o O o & v W Q } Z.].U.r.o.T t @ o O o @ y T Q ^ z.].!.h.&.! a @ o O o O 8 K ! ! 6.^.(.m.%.[ n > o O + ",
"o > N ! E ..M.J.b.*.} K 7 O o O o & v E ! [ g.U.N.4.X.R t @ o O o @ y T ! ! 6.J.Z.r.@.! g & o O o O 8 K ! ! $.Z.H.f.$.[ M > o o o ",
"o > N ! ! [ 4.f.u.4.| G 4 O o O o & v E ! ^ $.r.f.w.o.T t @ o O o @ y T ! ! o.r.f.r.$.! a & o O o O 8 K ! ! } 4.f.r.%.[ M > o O O ",
"o > N ! Q ! $.r.r.4.| G 4 O o O o & v W Q ! o.r.r.w.o.T t @ o O o @ y T ! Q | 4.r.r.$.! a & o O o O 8 K ! Q [ *.r.r.%.[ M > o O O ",
"o > N ! ^ } %.r.r.4.| G 4 O o O o & v E ^ [ $.r.r.4.o.T t @ o O o @ y T ! ) o.4.r.r.$.! a & o O o O 8 K ! ) | 4.r.r.%.[ M > o O O ",
"o > M } s.z.3.$.4.4.| G 4 O o O o & g ) 6.z.6.@.4.r.@.T t @ o O o @ t W 2.z.y.$.%.r.$.! a & o O o O 7 K &.g.g.$.$.r.4.[ M > o O O ",
"o > n #.E.^.5.[ $.4.| G 4 O o O o & s } J.].g.[ o.4.@.T t @ o O o @ t ! M.].Z.} | 4.$.! a & o O o O 4 K y./.Y.O.{ 4.%.[ M > o O O ",
"o ; g #._.}.6.! } o.[ G 7 O o O o # u { R. Xz.! [ o.} T t @ o O o @ 8 R Z. XJ.{ ! o.| ! a & o O o O 4 D s.|.^.O.! | | ) M > o O O ",
"o > N 3.^._.5.E ! ! ! G 7 O o O o & g ..U.[.z.! Q ! ! T t @ o O o @ t ^ Z.}.A.{ Q ! ! E g & o O o O 7 L g.].E.O.Q ! ! ! N > o O O ",
"X q -.Z.T.Z.$.W Q ! ! K 7 O o O X : ( M.T.J.5.! Q E ! T t @ o O X @ C j.U.T.g.) Q W ! E v & o O o O x q.H.T.M.} Q Q ! ! N > o o O ",
". x v.`.Z.5.} E E ! ! D 7 O o O . 1 8.].T.u...! W ! ! L t @ o O . & =.(.!.h.@.! W ! ! W g & o O . O U Y.).m.%.[ W E ! ! M > o o O ",
". k j.T.n.%.[ ! ! W T n 3 O o O . < ,.T.B.4.} ! E E T S 0 + o O . % ` U.H.r.o.! E ! Q G t @ o O X O C V.T.f.@.) E ! Q K g - o O O ",
"X 9  .h.f.4.{ ! ! T S u > O o O X : / f.h.4.| ! ! W F f 3 + o O X @ V r.h.r.@.! E E G j 8 @ o O o O l 1.h.r.$.[ E ! T Z r & o O O ",
"o 9 _ r.r.4.} E Q K Z t - O o O . : P w.a.4.| ! Q T A d 3 + o O X @ m 4.a.r.@.! Q Q F f 6 @ O O o O p O.t.r.$.[ W Q G j e # o O O ",
"o 9 _ r.t.4.{ ! ! Q A u - O o O X : P r.f.4.| ! ! E F d 3 + o O X @ m 4.f.r.@.! ! ! K h 6 @ O O o O k O.a.r.$.[ ! ! T n r # o O O ",
"o 4 R %.r.4.{ [ 5.5.R u - O o O o - H $.r.w.| ) 1.9._ f 2 + o O o @ b o.w.r.@.^ O.y.o.n 6 @ o O o O y _ 4.r.$.[ } 9.1.G e # o O O ",
"o , S } 4.4.[ o.U.E. .t = O o O o & v [ %.4.} { V.^.q.h ; + o O o @ y ! $.4.o.) g.(.x.D 3 @ o O o O 0 L o.4.$.) 5.W.G.~ e # o O O ",
"o > M ) o...! O.^.[.:.r $ O o O o & g ! | o.! { I. Xd.h ; + o O o @ t T } @.[ ! M. XA.D 3 @ o O o O 7 G { o.} ! 6.}.W.^ 8 # o O O ",
"o > N ! ^ ! W #.~._.O.t * O o O o & v E ^ ! W } J.}.i.g ; + o O o @ y T ! ^ ! ^ M.|.V.D 3 @ o O o O 8 K ! ^ ! ! y.].Y.^ e # o O O ",
"o > N ! E [ 3.n.R.J.o.h ; O o O o & v W ! ! #.g.U.T.5.A 4 + o O o @ y T ! ! o.y.G.E.g.K 8 @ o O o O 8 K ! E } 6.Z.E.N.^ u - o O O ",
"o > N ! Q O.I._.H.r.| S 4 O o O o & v W Q { N._.T.g.@.L 0 @ o O o @ y T ! ! g.(.E.n.%.! s # o O o O 7 K ! ! 5.E.^.N.4.[ n > o O O ",
"o > N ! W o.G.!.m.*.} K 7 O o O o & v W Q { M.~.Z.4.| R t @ o O o @ y T ! ! s.E.J.r.@.! g & o O o O 8 K ! ! 3.T.T.h.$.[ M > o O O ",
"o > N ! ! { r.h.f.4.} G 4 O o O o & v E ! ) 4.h.h.w.o.T t @ o O o @ y T ! ! &.f.h.r.$.! a & o O o O 8 K ! ! ..s.h.r.%.[ M > o O O ",
"o > N ! ! [ $.r.r.4.| G 4 O o O o & v E ! ! @.e.r.w.o.T t @ o O o @ y T ! ! | 4.r.r.$.! a & o O o O 8 K ! ! } 4.r.r.%.[ M > o O O ",
"o > N ! ! [ %.r.r.4.| G 4 O o O o & v E ! ! @.r.r.w.o.T t @ o O o @ y T ! ! ..w.r.r.$.! a & o O o O 8 K ! ! } 4.r.r.%.[ M > o O O ",
"o > N ! ! ) o.%.r.4.| G 4 O o O o & v E ! ! | %.r.w.@.T t @ o O o @ y T ! ! } $.4.r.$.! a & o O o O 7 K ! ! [ O.4.r.%.[ M > o o O ",
"o > N ! ! ! ! } 4.4.| G 4 O o O o & v E ! ! ! [ %.w.@.T t @ o O o @ y T ! ! ! [ @.w.$.! a & o O o O 7 K ! ! ! ) o.4.4.[ M > o o O ",
"o > N ! ! ! W ! o.@.} G 7 O o O o & v E ! ! W ! | $.| T t @ o O o @ y T ! ! E ! } &.o.! a & o O o O 8 K ! ! ! ! [ @.@.[ M > o O O ",
"o > M ! ! ! ! ! ) [ ! G 7 O o O o & v E ! ! ! ! ! ) [ T t @ o O o @ y T ! ! ! ! ! ) [ E g & o O o O 8 K ! ! ! ! ! ) [ ! N > o O O ",
"o > N ! T T Q ! E ! ! K 7 O o O o & v W Q L Q ! E E ! T t @ o O o @ y T W L T E ! E ! E c & o O o O 0 K ! T T W ! E ! ! N > o O O ",
"o ; N T A A T ! ! ! ! K 7 O o O o & v Q G Z G E ! ! ! T t @ o O o @ y T K Z F W ! ! ! E c & o O o O 8 G T A S T ! ! ! ! N > o O O ",
"o , M G n j K ! ! E Q A 4 O o O o # a G Z j G E ! E Q G 0 + o O o @ t G A h A Q ! ! W K s @ o O o O 4 S F j n T ! ! E T v > o o O ",
"    j j f n K ! ! Q F d ; O o O o @ r n j j G E ! W G j 4 + o O o + 8 j j h S Q ! ! K n 0 @ o O o O > f n f Z T ! ! T A t & o     ",
"    f f f n K ! ! T A t - O o O o @ 3 r u j G E ! Q S d 3 + o O o O ; e u f S Q ! E G h 6 @ o O O O - 8 r d A T ! ! K n r - o     ",
"        f n K ! ! T A u - O o O O O @ - e h G E ! Q S d 3 + o O O O @ & 6 d S Q ! E G h 6 @ o O O O + # 3 u A T ! ! K n u         ",
"        f n K ! ! T A u - O o O O O o @ 6 h G E ! Q F d 3 + o O O O o O 3 d F Q ! E G h 6 @ o O O O o o - u A T ! ! K n f         "
};
