/* XPM */
static char *c07102eb76d44062e928c0b2b9bb570eXV0hCguVVRtnLYmk[] = {
/* columns rows colors chars-per-pixel */
"65 65 185 2 ",
"   c None",
".  c #0C1224",
"X  c #131324",
"o  c #1A1425",
"O  c #14152A",
"+  c #191729",
"@  c #1C1A2D",
"#  c #1C1E32",
"$  c #231526",
"%  c #2A1727",
"&  c #2E1728",
"*  c #23192B",
"=  c #331427",
"-  c #3C1528",
";  c #371829",
":  c #3D192A",
">  c #2A1D30",
",  c #1C233C",
"<  c #3F2127",
"1  c #202136",
"2  c #23253C",
"3  c #24283F",
"4  c #352B3F",
"5  c #3C3439",
"6  c #431A2B",
"7  c #591C2D",
"8  c #621E2D",
"9  c #6A1E2F",
"0  c #6B1F30",
"q  c #721F31",
"w  c #57362F",
"e  c #4A283F",
"r  c #5B2334",
"t  c #5C233B",
"y  c #522439",
"u  c #43353E",
"i  c #4D363D",
"p  c #5D333C",
"a  c #54353C",
"s  c #67202F",
"d  c #78222F",
"f  c #6A253A",
"g  c #602232",
"h  c #752131",
"j  c #7C2231",
"k  c #66393B",
"l  c #544936",
"z  c #594139",
"x  c #664738",
"c  c #754534",
"v  c #7D4533",
"b  c #625539",
"n  c #7F5136",
"m  c #1D2644",
"M  c #1F2945",
"N  c #202744",
"B  c #2D2741",
"V  c #252B44",
"C  c #2A2C43",
"Z  c #332E42",
"A  c #342740",
"S  c #2C3045",
"D  c #343344",
"F  c #3C3440",
"G  c #353846",
"H  c #393D48",
"J  c #3D434A",
"K  c #464B4B",
"L  c #454A4A",
"P  c #51534B",
"I  c #5A5A4C",
"U  c #685E49",
"Y  c #765F44",
"T  c #6C684E",
"R  c #7D7B52",
"E  c #747250",
"W  c #766648",
"Q  c #842333",
"!  c #8C2334",
"~  c #8C2C37",
"^  c #942535",
"/  c #9B2636",
"(  c #922A37",
")  c #9E2835",
"_  c #983531",
"`  c #B93F2F",
"'  c #A12636",
"]  c #A22B34",
"[  c #A92D34",
"{  c #A63133",
"}  c #AC3432",
"|  c #AD3E31",
" . c #B33B31",
".. c #BA3D30",
"X. c #B13532",
"o. c #854E35",
"O. c #954F30",
"+. c #8B5034",
"@. c #9C5531",
"#. c #905132",
"$. c #A8422A",
"%. c #BC422F",
"&. c #A8582E",
"*. c #B5522E",
"=. c #BF562D",
"-. c #B64331",
";. c #BE692F",
":. c #C0432F",
">. c #C5492D",
",. c #C94E2C",
"<. c #CE522B",
"1. c #D1542A",
"2. c #D65929",
"3. c #DB5D28",
"4. c #D85628",
"5. c #CF6229",
"6. c #DE6027",
"7. c #CB722F",
"8. c #D7732C",
"9. c #CB7C35",
"0. c #DA7731",
"q. c #E36326",
"w. c #EC6623",
"e. c #EC6B24",
"r. c #E86E28",
"t. c #F16C22",
"y. c #EE7126",
"u. c #E9752B",
"i. c #F57322",
"p. c #FB7C22",
"a. c #F87924",
"s. c #816946",
"d. c #83774D",
"f. c #907D4C",
"g. c #867F51",
"h. c #BA803E",
"j. c #FF811F",
"k. c #D98635",
"l. c #FC8125",
"z. c #FA8A2C",
"x. c #FA8328",
"c. c #E38833",
"v. c #F48F31",
"b. c #F59535",
"n. c #FA9332",
"m. c #FB9C36",
"M. c #F69B38",
"N. c #FDA339",
"B. c #FFAE3E",
"V. c #FFA236",
"C. c #97864F",
"Z. c #8B8553",
"A. c #808053",
"S. c #958E55",
"D. c #969155",
"F. c #9D9354",
"G. c #ABA157",
"H. c #C39C47",
"J. c #DA9941",
"K. c #C9A049",
"L. c #DDA145",
"P. c #DDA948",
"I. c #D8B24D",
"U. c #DCBB55",
"Y. c #D7B750",
"T. c #E5A645",
"R. c #FCAE41",
"E. c #E5B54C",
"W. c #FEB442",
"Q. c #FFBA45",
"!. c #FFBF48",
"~. c #E2BE51",
"^. c #D3C15B",
"/. c #FDC34C",
"(. c #FFCB4E",
"). c #E4C456",
"_. c #E4CC5B",
"`. c #FDCB51",
"'. c #EBD55E",
"]. c #F3DA5E",
"[. c #FFDE57",
"{. c #FEE35E",
"}. c #FFE95E",
"|. c #F7E05F",
" X c #FCE360",
/* pixels */
"                                                                                                                                  ",
"                                                                                                                                  ",
"                                                                                                                                  ",
"                                                                                                                                  ",
"                                                                                                                                  ",
"                                                                                                                                  ",
"                                )                                                       )                                         ",
"                                ) )                                                     ) )                                       ",
"                                ) ) )                                                   ) ) )                                     ",
"                                ) ) ) )                                                 ) ) ) )                                   ",
"                                ) ) ) ) )                                               ) ) ) ) )                                 ",
"                                ) ) ) ) ) )                                             ) ) ) ) ) )                               ",
"                                ) ) ) ) ) ) )                                           ) ) ) ) ) ) )                             ",
"                                  ) ) ) ) ) )                                             ) ) ) ) ) )                             ",
"                                    ) ) ) ) )                                               ) ) ) ) )                             ",
"                                    ) ) ) ) )                                               ) ) ) ) )                             ",
"                                    ) ) ) ) /                                               ) ) ) ) /                             ",
"                        ) )           ) ) ] ]                                   ) )           ) ) ] ]                             ",
"                        ) )           / [ >.1.                                  ) )           / ] %.1.                            ",
"                        ) )           / } q.p.                                  ) )           / { 3.p.                            ",
"                        ) ) )         / } q.p.                                  ) ) )         / { 6.p.                            ",
"                        ) ) ) )       / { 1.q.                                  ) ) ) )       / [ <.q.                            ",
"                        ) ) ) ) ) ) ) ) ] { }                   )               ) ) ) ) ) ) ) ) ) { }                             ",
"                        ] ) ) ) ) ) )  .%.] /                 ) )               ] ) ) ) ) ) )  .%.{ /                             ",
"                        / ) ] ] ) ) { 2.q. ./               ) ) )               / ) ] ] ) ) ] <.q.` /                             ",
"                      % j { >.:.] } <.e.e...Q ;           ) ) ) )             $ h [ >.>.] } ,.w.e.:.! 6                           ",
"                    . $ 9 } 3.2. .,.i.l.u.| 9 % X       ) ) ) ) )             o 7 { 2.3. .>.y.l.u.-.q & X                         ",
"                  o X $ 9 [  .>.2.w.p.B.P.c = o X $ s ) ] ) ) ) )         o X o 8 ]  .>.2.q.i.N.E.n = o X o                       ",
"                  o O * r ~ { ,.t.l.n.!.I.l O @ O $ s ) ] ) ) ) )         o O * y ~ { >.e.l.n.Q.~.b O + + o                       ",
"                  o # 2 B p =.t.i.N.`.B.0.z , 2 # $ 9 ) ] ) ) )           o @ 2 B a *.t.i.m.(.W.c.x , 2 # o                       ",
"                  o 1 V M F +.7.M.(.{.J.O.u V V , * h ) ) ) ) )           O 1 V M D o.7.b.(.{.L.@.i V V 2 +                       ",
"                    V V V C Z W ).}.'.d.D C V V M   / ) ) ) ) )               V V C B U U.{.].C.F C V V V                         ",
"                          V m L A.D.g.K M V         ' / ) ) )                     V m J R D.Z.P V m   V                           ",
"                            V C Z D S C V           { [ ] )           ) )           V C Z D S C V                                 ",
"                              e f t                 3.<.} )           ) )             e f t                                       ",
"                                ] ]                 p.e. ./           ) )               ] ]                                       ",
"                                ] ] ]               p.e. ./         ) ) )               ] ] ]                                     ",
"                                ) ) ) )             3.1.} /       ) ) ) )               ) ) ) )                                   ",
"                                ) ) ) ) )           { [ ] ) ) ) ) ) ) ) )               ) ) ) ) )                                 ",
"                                ) ) ) ) ) )         / ] %.%.] / ) ) / ) ]               ) ) ) ) ) )                               ",
"                                ) ) ) ) ) ) )       ^ } 6.q. .) ) ] ] ] /               ) ) ) ) ) ) )                             ",
"                                  ) ) ) ) ) ]     $ q X.q.i.3.%.] %.1. .Q ;               ) ) ) ) ) )                             ",
"                                    ) ) ) ) ^   . o 7 _ 0.z.p.2. .<.3...h % X               ) ) ) ) )                             ",
"                                    ) ) ) ] j & X o $ w K.Q.x.t.q.,. .[ j % X o             ) ) ) ) )                             ",
"                                    ) ) ) ' h % O @ O 5 H./.N.z.i.4. .~ r > O o :           ) ) ) ) )                             ",
"                        ) )           ) ) ] h % # 2 m u ;.V.`.W.a.i.5.k B V # o 8 )           ) ) ) )                             ",
"                        ) )           ) ] %.$.< , V V D c h.].[.R.9.+.u V V , * j )           / ] %.,.                            ",
"                        ) )           / } 6.a.    V V V V U ^. X_.d.C V V V M   ) )           / { 2.i.                            ",
"                        ) ) )         / } q.j.          m H T R E L V N         ] ) )         / { 6.p.                            ",
"                        ) ) ) )       / { 2.e.          V V V V V V V           ) ) ) )       / { 1.e.                            ",
"                        ) ) ) ) ) ) ) / ] }  .                                  ) ) ) ) ) ) ) ) ] }  .                            ",
"                        ] ) ) ) ) ) ) }  .] /                                   ] ) ) ) ) ) ) }  .] /                             ",
"                        ) ) ) ) ) ) ] <.6. ./                                   ) ) ) ) ) ) ] ,.q. ./                             ",
"                        j [ %.%.] { >.e.e...! :                                 j ] %.%.] { >.q.e.:.! 6                           ",
"                      $ 0 } 3.2.} >.y.p.r. .0 % X                             o 8 { 2.3. .%.e.p.y.-.h & X                         ",
"                  o X $ 9 [ %.,.1.q.p.N.L.v - o X o                         X o 8 [ ..,.<.q.i.V.T.o.- $ X o                       ",
"                  o O * g ( { >.e.p.z.!.Y.l O + o o                       o O @ r ( ] :.e.p.z.Q.~.b O + + o                       ",
"                  o @ 2 A k =.w.i.m./.W.k.z , 2 # o                       o @ 2 4 p *.w.i.n./.W.c.x , 2 # o                       ",
"                  o 1 V M F @.8.b.(.{.J.&.i V V 1 o                       o # V M D #.8.v.!.{.T.&.a V V 2 +                       ",
"                    3 V V C 5 s.).}.].f.u C V V V                           2 V V C 4 Y U.}.|.C.u B V V V                         ",
"                      V V V m K S.G.D.P M N V V                               V V V m J Z.G.F.I V m V V                           ",
"                            V C D G D S V                                           V C D G G S V                                 ",
"                                                                                                                                  ",
"                                                                                                                                  ",
"                                                                                                                                  "
};
