/* XPM */
static char *bf34727bcea2468585d4d11a0519ebef36Wp2eGg9MXagxTx[] = {
/* columns rows colors chars-per-pixel */
"64 64 177 2 ",
"   c #1E2434",
".  c #1F273A",
"X  c #1F2839",
"o  c #222635",
"O  c #242936",
"+  c #222739",
"@  c #252A3B",
"#  c #292D3C",
"$  c #2B303D",
"%  c #262D41",
"&  c #2A2E41",
"*  c #302E43",
"=  c #2C3244",
"-  c #2F3847",
";  c #2E344A",
":  c #313545",
">  c #383647",
",  c #333947",
"<  c #393846",
"1  c #31364A",
"2  c #39374C",
"3  c #343A4C",
"4  c #393C4D",
"5  c #303650",
"6  c #363C51",
"7  c #393E52",
"8  c #373E5A",
"9  c #383E58",
"0  c #413F4F",
"q  c #423F52",
"w  c #3A424F",
"e  c #374254",
"r  c #3C4255",
"t  c #3D445A",
"y  c #3F495C",
"u  c #3F4661",
"i  c #3F4A60",
"p  c #434355",
"a  c #404855",
"s  c #414659",
"d  c #494759",
"f  c #434A5D",
"g  c #4A4B5D",
"h  c #414761",
"j  c #454D62",
"k  c #4A4E62",
"l  c #464C68",
"z  c #484F6B",
"x  c #514E62",
"c  c #475061",
"v  c #4B5265",
"b  c #4D556A",
"n  c #4E596D",
"m  c #515466",
"M  c #51576A",
"N  c #5A576C",
"B  c #535A6D",
"V  c #595C6E",
"C  c #4D5672",
"Z  c #4F5A74",
"A  c #505772",
"S  c #555D72",
"D  c #595E72",
"F  c #545D7A",
"G  c #585F7B",
"H  c #615E73",
"J  c #566175",
"K  c #5A6275",
"L  c #57617B",
"P  c #5C657A",
"I  c #5E697E",
"U  c #62667A",
"Y  c #69677D",
"T  c #626A7D",
"R  c #6B697F",
"E  c #576282",
"W  c #5C6683",
"Q  c #5F6A80",
"!  c #5E6788",
"~  c #5F698A",
"^  c #636D83",
"/  c #6B6E83",
"(  c #626D8A",
")  c #667186",
"_  c #697185",
"`  c #677189",
"'  c #6B758B",
"]  c #6D788D",
"[  c #73768D",
"{  c #79778D",
"}  c #717A8D",
"|  c #667191",
" . c #6D7791",
".. c #6D7991",
"X. c #6F7A90",
"o. c #6F7992",
"O. c #6E7A92",
"+. c #6E7A92",
"@. c #707791",
"#. c #707B91",
"$. c #737B91",
"%. c #737B92",
"&. c #727D93",
"*. c #757D91",
"=. c #757D92",
"-. c #777F92",
";. c #717B94",
":. c #727C95",
">. c #737D96",
",. c #737F97",
"<. c #777F95",
"1. c #737D94",
"2. c #787E96",
"3. c #757F98",
"4. c #757E98",
"5. c #787F99",
"6. c #758096",
"7. c #768197",
"8. c #778296",
"9. c #768196",
"0. c #798195",
"q. c #7A8295",
"w. c #798196",
"e. c #788397",
"r. c #7B8396",
"t. c #798296",
"y. c #748098",
"u. c #768099",
"i. c #778298",
"p. c #77819A",
"a. c #76829A",
"s. c #78829B",
"d. c #78849A",
"f. c #7A859B",
"g. c #79839C",
"h. c #7A849D",
"j. c #7B869C",
"k. c #7B859E",
"l. c #7B879F",
"z. c #7C869F",
"x. c #7B849C",
"c. c #7D889E",
"v. c #7E899F",
"b. c #7D889C",
"n. c #7D87A0",
"m. c #7D86A0",
"M. c #7E88A1",
"N. c #7F89A2",
"B. c #7F89A2",
"V. c #818A9E",
"C. c #8087A1",
"Z. c #808BA1",
"A. c #808AA3",
"S. c #818CA2",
"D. c #818BA4",
"F. c #818DA5",
"G. c #838EA4",
"H. c #838DA6",
"J. c #838FA7",
"K. c #828CA4",
"L. c #838FA9",
"P. c #858FA8",
"I. c #888FAB",
"U. c #8591A6",
"Y. c #8890A7",
"T. c #8690A9",
"R. c #8490AA",
"E. c #8791AA",
"W. c #8594AB",
"Q. c #8691AA",
"!. c #8A94AC",
"~. c #8E99AF",
"^. c #8D96B0",
"/. c #8E99B1",
"(. c #929CB4",
"). c #959FB8",
"_. c #94A0BA",
/* pixels */
"Z.S.M.n.k.f.s.p.<.#.@.] ` _ ^ T T M b M 4 , _ <.w.w.w.w.7.w.w.w.-.} } ' _ ^ U U K K : r v b M M S S B B n v j r d.W.T.T.T.L.K.D.",
"c.c.z.k.p.7.p.>.#.}  .' _ ^ ^ P P K A M 1 v ] } } } } *.*.*.} } [ _ ^ ^ T T U U K K 4 = f j c v v v v v v c r f N.K.K.D.K.K.Z.M.",
"k.g.s.p.7.7.&.#.] ' ` ) ^ T I P S S M k 4 P T K P ' ' ' ' ' _ _ ^ ^ T T U P K K D D s O 7 f f f f f f f s t + S K.>.p.Z.c.M.k.k.",
"o.s.3.>.#.] ' ' ) ^ Q I I P P S S A M f s U U M K ^ ^ ^ / T T T T T U U P P K D D V d o + ; 7 r 4 4 2 ; = + + T k.p.p.k.f.f.k.o.",
"'  .' ' ` ) ^ ^ ^ Q I P M M K S S M b 7 v U P P U U U U U T T U U P P K K K V V M M s O o     + + + O O O O # T o.p.p.>.>.;.;.' ",
"' ` ` ` ) ) ^ ^ Q I I P v b S S A M k = M K K P P P U P P P P P P P K D D V V M m v 2 O # O o o O O O O O O   b ] ' o.o. .] '  .",
"` ` ) ^ ^ ^ ^ ^ I I P P S S S A M b 4 = B B D D K K K K P K K K K D D D V B M m v g # O O O @ # $ $ ; ; ; = O ; ^ ` ' o.] ] ' ' ",
") ) ^ ^ ^ T Q I P P P K S S S M b c # , M M M D D D D K K K D K V V V B M M v k k < O $ = , , , 3 4 r r r t 4 o j ) ^ ' ' ` ` ` ",
"^ ^ ^ ^ I I I I P K K K S A M b b 4 o < v M m M D V B B B B B B B B B M m k g k d # $ , 3 3 4 4 w r t r t s s 1 = P ^ ^ ` ) ) ) ",
"^ ^ ^ ^ I I P P P J S S A M M v 7 @ O : r g v k m D V B B D V V M M v v v g g d , O ; 3 4 r r t s s g s f j j j % r Q Q ^ ) ^ ^ ",
"^ Q I I I P P J J S S S M v t ; # @ O O = 7 s g v g V K M v m v k g k g g p 7 2 @ @ 2 6 r t s f f j c v v v v b f % b P I ^ ^ ^ ",
"I I I P P P L S S S A b t 1 & % + # : = @ & 2 7 d g v m g g g g f a p 4 2 2 > : O , r r t f f c v v b n n n M M B 4 6 M P I ^ I ",
"P P P K J J S K S v 9 1 ; = % @ = 4 r t t ; # > 2 4 p d p p 7 7 2 2 3 > , $ @ O # 3 r s f f c v n n A A S J K K K M = t n P J I ",
"I J S J K K S v r 1 ; ; = % # 3 t s f v v b s & # > 2 2 2 > > , : # # @ # # O O = r s f c b M M S J P P I I T T P P f = j M P P ",
"K ^ T P A j 9 ; ; ; 1 & % # 6 t g j v S S K K M 4 + @ $ # # @ # # ; ; 2 4 4 : O 3 s f v b S b S I I ^ ^ ^ ) ) ) ^ ^ P 3 6 y n S ",
"M I K t ; ; 5 ; ; ; = @ = 4 s j v b M P ^ ^ ^ ^ T c # O O @ : 3 4 r r r r t 3 O r f v M S K K T ^ ) ' ] ' ] ] ] ' ` ^ V = r t Z ",
"M S j = % ; ; ; = # @ = 4 t f v M J P I ' ] #.' ' U f = O = 3 7 r t s t 6 g 4 # t v n S K P ^ ) ' ] o.&.#.&.>.>.#.#.' _ t = r r ",
"r n r ; = ; ; = # O # 3 r g v M J P ^ ) ' s.s.p.7.^ j 4 @ , r t t f j j j v 4 # s b S K P ^ ) ] o.&.>.7.s.f.g.k.s.7.>.' T = 1 6 ",
"; 6 1 ; = = # o O O 2 f s j b S P ^ ` ] o.&.n.S.S.` b 6 # 4 t s g c b b b M 4 # s v S I ^ ` ' o.7.s.k.k.M.M.Z.M.M.k.>.o.' t + 2 ",
"; ; ; ; # + # , $ o 1 v t j b K I ` o.>.g.k.g.n.k.^ b 6 = t s f v v M S S b , # r f v S Q ' &.7.7.k.M.K.J.T.T.T.K.k.p.' F b = # ",
"= = @ + 3 b / } M + % r t c b S P ^ ' O.p.g.a.O.' Q b 6 ; a g c b M D D b g @ O , r j n S P ` 7.p.M.T.E.!.!.^.E.N.>.( F C n t o ",
"  + t T b.U.K.z.} r o 1 r f n J I ` ' O.a.a.a.a.o.L b 6 1 s g k v b b k g 2 O O @ 1 9 f n P I ` >.z.K.T.T.L.N.>.` W F F Z A r O ",
"j ] !.(.!.S.n.p.<.K # # 1 6 y j b F W ` O...| ( G C b = = 7 r r y y s s 2 @ O # # # = r j b F ( ' >.k.N.n.O.| ~ L Z E F F f   O ",
"/.(.^.E.K.M.k.<.#._ r o # ; 4 t j b A L W ( ( G C j 3 + # ; 1 2 6 r r 1 + + = , 3 4 = % 9 j l b L ( O.g.a.W ~ ~ W F E L t . y } ",
"/.!.T.K.M.k.w.#.] _ M @ O O O O # = ; 2 7 r 3 = + O o O O # $ $ # # @ o + = 3 7 t t r = @ , s b C Z L ( O.~ ~ ~ ~ ( F ; 6 ' ~.(.",
"J.k.K.M.k.7.*.] ` T K 4 o O O O O O @ @ O O @ @ # # @ # O O o O O O O O = 1 r s s r 6 1 #     ; j A F A W W ! ( W j = S S.(.^.E.",
"Z.g.c.f.7.&.] ` ^ P K s O $ = , > > 3 3 3 3 3 3 3 3 , = = # # + o O O O ; 7 t r r 7 , o % f v @   3 j A P L F g = @ _ K.K.T.P.K.",
"n.k.p.>.' ) ^ I P K V a @ : 4 4 4 4 7 7 7 7 7 7 4 4 3 , , ; = # @ o O O , 3 3 4 2 # % k ' b.b._ ,   + % 1 1 & % o r k.a.k.k.M.n.",
">.>.o.' ) ^ Q I P S M r $ 4 6 7 r r r t t t t t r r 7 4 2 1 ; = # #   O # ; , # + t ^ w.s.p.S.c.} ; O O = t b K c r <.3.3.3.>.>.",
"' ' ` ) ^ T I K J V v 4 = r r t t g g r g j c j f f t t r 7 3 ; = # O O @ @ o 2 K &.p.k.&.&.T.U.c.K   = s b P _ P t o.>.o.' #. .",
"` ` ^ ^ Q I P K S M k , 3 s f f k v c t v M b b b v k j f t r 2 1 = o o o $ v ' &.7.s.z.M.Z.P.E.U.} ; , j c ^ >._ s ` o.^ P ' ' ",
") ^ ^ Q I P K S M v s = 4 f v v M M M M B S S S M M M v v f s r 2 = o   3 U ] o.>.3.k.n.D.K.T.E.!.V.b = v K ' k.<.t ^ ' ^ P ` ` ",
"^ ^ T P K J S A M v r % r f k M S S K P P P P P K D S M b v j r 1 @   , U _ ' o.>.p.k.M.N.R.T.T.!.!._ ; f P ' z.#.6 I ) ) ) ^ ^ ",
"I I P K J S M j j s 3 # s f j v S P T T T ^ T T U P P D V b f 2 #   = K _ ` ' #.<.s.k.M.K.R.T.!.!.^.z.j r S ( >.P = K ^ ^ ^ ^ I ",
"P K K S S M c r r r # # s k v v b M P / / ^ ` / ^ ^ T U S f 6 % O O b ^ ) ' ] ;.p.k.n.N.K.J.T.!.!./.E.^ 3 j M S s % b S I I P P ",
"S S M b c s t t 6 = O = s v b b b b S K U _ [ [ [ _ ^ S f r = # o s ^ ^ ) ' ] ;.p.k.n.N.D.K.T.!.!.!.^.<.y 1 t s 3 + f b b S K S ",
"b v j f s t r ; # O O @ s j b M M M M A S P U ^ ^ P b g r = = + 2 U T ^ ) ' ] &.3.g.z.M.Z.K.P.T.!.!.(.Z.K # = = 3 = 3 j c j b M ",
"s t t t r 1 % @ + @ O O = j j j n S S S A S D K K A k r 1 1 % = D P Q ^ ) ' ] &.p.g.z.n.M.D.K.P.T.E.^.P.` 4 # f K ^ t 3 f f f j ",
"t t 6 ; % # @ @ ; r r 4 = % s b j b C S P K A S I j 6 2 3 = @ v P I Q ^ ^ ` ' #.<.s.g.z.C.Z.D.J.P.T.!.!.#.v ; b K _ ' 6 ; r s s ",
"1 = % # # @ # w t r f j g r = r b b j z C S G S A 6 ; 6 1 @ s D S P W ( P ^ '  .:.3.s.g.z.n.Z.D.K.J.P.!.7.I 3 f S T } T = = 3 4 ",
"# @ O o o o 3 s t r j v b M v 6 3 j n z l j z A b 9 9 6 @ 3 B M S K I T ^ ) _ ` ] &.<.w.s.x.z.C.Z.D.K.E.` I g r M P ^ ' v + # # ",
"o # 4 c v = = k c v M M S S S S f 3 r b b j u l j t 7 # = v b M S D P I ^ ^ ^ _ ' ] #.#.5.5.x.x.z.C.Z.J.^ I M 1 j b S P V ; + O ",
"s K } b.*.U 3 2 b S K P P I I P I S t ; t b j l h 7 = @ f v b M A S K P I T ^ ^ ) ' ] #.*.<.3.s.s.z.C.:.^ I P ; r j b b f r + = ",
"' 7.z.M.k.f.^ 3 6 S P ) ' ' ] ] ` ^ P b 3 ; t y 3 # o 4 v c v b v M S S P I I ^ ^ ) ` ' ] } #.<.<.#.( ^ ) P P 6 % 6 r 2 3 3 t D ",
"*.<.s.#.^ f.z.^ 3 t J ) >.s.s.<.#.&.' ^ P f + 4 n _ r 3 v j v j f n S S S P P I I Q ^ ` ' ] ' ^ I P ^ <.) J P t + # # = r b T ' ",
"] #.*.<.` w.Z.f.P ; i P o.f.n.] M.M.>.` P f = D ] &.P 3 c j c c v b M A S S K K P I ^ ^ T P K P Q ^ ^ I ^ P n t @ O 3 j K T ^ _ ",
"` ] [ %.2.s.s.k.s.M ; j L ;.3.( ^ P A l r 1 3 M K ^ U r f j j c v v b M M A S S S S J S S J P P J S n n S S j 9 + , k V K P ^ ^ ",
"^ ` ' ] #.:.<.s.>.o.t 3 j A  .z l u t r 6 % + r v M S t t j j j c c v b b M M M M M M n j b b j j j h y y y t = # t v M S K I ^ ",
"P ^ ^ ' ] ] ] ` ' ' ^ & r j A l l u 6 ; ; t c r 3 r f r r f f f f j c v b b b b b k j j 9 y h u h y y y t t 7 + , s s j n S J P ",
"S I I ^ ^ ^ ^ ^ ( ` _ t + 4 9 8 6 9 f S _ w.K.S.] j ; ; , g f r r j j f f f t t t t t t t t t y y y y t 6 3 # O 4 r 2 t b n S J ",
"S K P P P I Q ^ ^ ^ ^ f o O = 7 j M T ) ] >.s.S.!.!.T =   3 r 6 6 6 6 6 6 9 9 r r t t t t r r 7 2 3 = = % = @ o ; 7 4 g c b n A ",
"M M S P P P I I ^ ^ P t @ , a f v M J I ) ] 7.k.K.U.~.7.s   % 1 1 1 3 2 2 2 2 2 3 1 1 1 = & # # = ; 4 t k m t o + 2 r f k v b b ",
"b M S S J K P I P P P 6 = 4 3 4 j v M J P ^ #.7.z.c.K.P.c.V @ O # # @ # # & * : : : : : : @ # , 4 r j b M K U r   + 2 r s f v v ",
"j v b n M S S S S S b ; = 4 , 7 f v n S K P ) #.>.p.k.z.k.w.K # O O @ : > 0 q p p p p p 0 < # , 7 6 j J P ^ ^ ^ ;   @ 1 4 t f j ",
"r t f j j j j y t 9 6 = # 1 7 r s j b M S P I ) ] #.>.<.>.>.] K # # > 4 p p d g x x x x d 4 # 4 s c S T ) ] ' <.T @ o o + # = 2 ",
"% = = ; ; ; ; 1 3 3 3 @ + @ = 2 t f j b M S L P T ^ ` ' ' ' ) T r $ 4 p g m N D H H H N N d # 3 s v S T ` o.p.<.<.f o @ o + + @ ",
"@ + + + + @ @ @ @ O o o O O @ % ; 4 t f v M S S K P P I I I I P 4 > d x N H Y Y R R Y U H p @ = 2 t j A F Q ^ ( I b +   = = % # ",
"_ T P K B b k s t 3 3 = # # + + # = ; 3 7 s g f M S S S S M n j = < d x V U / { { { { R k > @ o % ; 6 r j j j j h 1 3 P *.&.} ' ",
"(./.^.!.!.Y.K.z.s.<.' _ T D M f 3 + # ; ; 3 6 7 r y t t r 6 1 = # > p g x N H Y / / / k 2 & ; v P ` ^ r X @ c v + t Z.!.).).(.(.",
"(././.^.!.!.E.J.K.M.V.b.s.2.` ^ P s # + # % = 1 1 1 ; = % % % @ o o + : 7 g m N D H g 2 : 6 } !././.!.V.P - v _ # T (._.).).).(.",
"^.!.!.E.T.J.K.Z.z.z.s.w.<.*.^ _ _ T v = o O O O o # ; r f v b n M v f r 3 : : 2 s k p > 1 _ c.c.M.Z.z.S.c.' s # = 7.(.(.(.(.E.!.",
"!.!.E.T.J.K.Z.n.z.s.w.<.*.} ] ` ^ ^ U M $ O O , B U } 0.r.b.b.b.b.r.0.} _ K v 7 : = 1 & S ' o.>.7.f.s.<.>.' T 4 t U././.(.T.#.V.",
"T.T.P.K.D.M.C.z.s.7.7.>.} ] ` ^ ^ T P D a   = _ V.V.S.K.K.K.K.V.' ' r.w.*.} ' / D 3 o f K P ) ) ' ^ ) ) I K K r S !.!.!.~.E.z.K.",
"J.K.K.M.M.z.g.s.7.<.&.] ] ` _ ^ ^ S M V a O m 0.f.j.c.c.V.b.z.w._ ^ %.#.' _ _ T T M # g M S J P P n S P J S M e ' !.!.T.W.W.!.I."
};
