/* XPM */
static char *_f95b390b6044198c524884eeaeba537RQap8NGkVf9ZNXui[] = {
/* columns rows colors chars-per-pixel */
"65 65 130 2 ",
"   c None",
".  c #1C1E26",
"X  c #1C2027",
"o  c #1C2129",
"O  c #1B2731",
"+  c #1A2A35",
"@  c #192E3B",
"#  c #19303E",
"$  c #22252C",
"%  c #25282F",
"&  c #272A31",
"*  c #2A2D33",
"=  c #2E3136",
"-  c #26353A",
";  c #2E353A",
":  c #2D383D",
">  c #323237",
",  c #35363A",
"<  c #38363B",
"1  c #37393D",
"2  c #38383C",
"3  c #183444",
"4  c #183748",
"5  c #173A4D",
"6  c #18384A",
"7  c #173E52",
"8  c #363D41",
"9  c #164156",
"0  c #15455C",
"q  c #2B4447",
"w  c #354245",
"e  c #334649",
"r  c #324A4D",
"t  c #314E50",
"y  c #2F5556",
"u  c #2F5758",
"i  c #2E5A5B",
"p  c #305254",
"a  c #144B64",
"s  c #1C4F67",
"d  c #134F6A",
"f  c #13516D",
"g  c #125673",
"h  c #125876",
"j  c #115B7B",
"k  c #2B6464",
"l  c #266868",
"z  c #296A6A",
"x  c #28706F",
"c  c #277473",
"v  c #257977",
"b  c #257D7B",
"n  c #23817E",
"m  c #115F81",
"M  c #0F678B",
"N  c #0F688D",
"B  c #106184",
"V  c #106488",
"C  c #0E6D94",
"Z  c #0D729B",
"A  c #0C76A2",
"S  c #0C7AA6",
"D  c #0B7DAB",
"F  c #1E8E8A",
"G  c #17918D",
"H  c #1E918D",
"J  c #0F9A95",
"K  c #159793",
"L  c #1D9691",
"P  c #139B96",
"I  c #1C9B95",
"U  c #1B9F99",
"Y  c #1B9F99",
"T  c #228380",
"R  c #238380",
"E  c #228582",
"W  c #208B87",
"Q  c #12A39D",
"!  c #1AA09A",
"~  c #19A49E",
"^  c #1AA29B",
"/  c #0B80AE",
"(  c #0A81B1",
")  c #0A82B1",
"_  c #0A82B2",
"`  c #0A83B3",
"'  c #0A84B4",
"]  c #0A84B5",
"[  c #0986B7",
"{  c #0A83B2",
"}  c #0987B9",
"|  c #098ABE",
" . c #18A7A0",
".. c #17ABA4",
"X. c #17ACA5",
"o. c #17ADA5",
"O. c #17ADA6",
"+. c #17AEA7",
"@. c #15ACA6",
"#. c #18A8A1",
"$. c #16AFA8",
"%. c #15B3AB",
"&. c #15B4AC",
"*. c #14B6AE",
"=. c #14B4AC",
"-. c #14B8AF",
";. c #0CBDB5",
":. c #13BBB3",
">. c #14B8B0",
",. c #14B9B0",
"<. c #13BCB3",
"1. c #12BDB4",
"2. c #13B9B1",
"3. c #0FC8BE",
"4. c #0FC9BF",
"5. c #11C1B8",
"6. c #10C4BB",
"7. c #10C6BD",
"8. c #11C1B8",
"9. c #088CC0",
"0. c #088FC3",
"q. c #0890C5",
"w. c #0792C8",
"e. c #0697D0",
"r. c #0699D2",
"t. c #059FDA",
"y. c #04A2DE",
"u. c #0ECEC4",
"i. c #08D7CC",
"p. c #08E1D5",
/* pixels */
"                                                            & * , 1 1                                                             ",
"                                                          o % , , 1 1 1                                                           ",
"                                                          o o , 1 1 1 1                                                           ",
"                                                          o o $ , 1 1 1                                                           ",
"                                                          o o o , 1 1 1 1                                                         ",
"                                                        o o o o , 1 1 1 1                                                         ",
"                                                        o o o o , 1 1 1 1                                                         ",
"                                                        o o o o , 1 1 1 1                                                         ",
"                                                        o o & % , 1 8 r 1                                                         ",
"                                                        . X $ o , 2 e v 1                                                         ",
"                                                        0 a . o , 2 u H e 1                                                       ",
"                                                      . 4 9.9 X , 1  .3.R <                                                       ",
"                                                      . + q.0 . , 1 o.H o.8                                                       ",
"                                                      . g y.M X = e 6.U >.t                                                       ",
"                                                      . a g j o * e z 8 k r                                                       ",
"                                                      o o o o o * 2 8 y < 1 1                                                     ",
"                                                      & $ o o o * 2 p  .8 1 1                                                     ",
"                                                    . * * . o o * 2 p ..8 1 1                                                     ",
"                                                    o $ s f . o * 2 u o.1 < 1                                                     ",
"                                                    . 3 0 ] 4 . * < b L e y 1                                                     ",
"                                                    . N 0 B j . * < v >.&.L <                                                     ",
"                                                    . j 7 h j $ , 1 w k z t 1                                                     ",
"                                                    o o o S a . * 1 1 < < < < 1                                                   ",
"                                                  o o . a / O . * 2 w k 1 e u 1                                                   ",
"                                                  o . 9 ] 7 . o * < c H 1 R o.8                                                   ",
"                                                  o . C f . o o * 1 ~ u u o.<.u                                                   ",
"                                                  o . V j . o o * 8 o.y L z I v                                                   ",
"                                                  o . @ 6 X o o * t I r n 8 v H                                                   ",
"                                                  o X . . o o o * 8 w 1 1 1 1 e 1                                                 ",
"                                                o o + O . . . o * 1 v r 1 8 c w 1                                                 ",
"                                                . O C ) j 9 6 o * 2 R n < t n 8 1                                                 ",
"                                                o o O 7 e.) g o * 2 p 1.r r k 1 1                                                 ",
"                                                o o . 7 ) + . o * 2 w &.I I H < 1                                                 ",
"                                                o o 0 ) d . o o * 2 r %.i k ~ 8 1                                                 ",
"                                                . 7 D a o o o o * 2 ! W < 8  .u , 1                                               ",
"                                              o o o o . . o o o * 1 v p 1 < k u < 1                                               ",
"                                              o . @ 4 7 @ o o o % 1 1 , 1 1 8 p 8 1                                               ",
"                                              . 5 D 5 6 Z a . o $ , k n 1 < y >.e 1                                               ",
"                                              X Z h . . a D o . & < p 1.u e x #.1 1                                               ",
"                                              @ ) @ . o O D 4 . * 1 1 U 3.o.7.v < 1 1                                             ",
"                                            . 4 ] + . . 7 ) + . $ 1 1 p 5.c :.r 1 1 1                                             ",
"                                            o o C B + @ D f . o $ 1 1 < H p.H < 1 1 1                                             ",
"                                            o . + 9 a 0 m o o o $ 1 1 1 t ! t 1 1 1 1                                             ",
"                                            o o . . o o . o o o $ 1 1 1 1 1 1 1 1 1 1                                             ",
"                                            o o . o o o o o o o $ 1 1 1 1 1 1 1 1 1 1                                             ",
"                                            o o @ . . . . o o o $ , 8 t 1 1 1 8 t 1 1 1                                           ",
"                                            . 7 9.m 5 7 Z a . o $ e ~ 5.u < 1 H u.z < 1                                           ",
"                                          o . 0 h C r.S C h X o % u ! F I < n o.z :.z <                                           ",
"                                          o o o . M ) o . o o o & 8 e r :.z &.u < u k ,                                           ",
"                                          o o o . ) r.+ . o o o $ < 1 < ! z r 1 1 < < ,                                           ",
"                                          o . . @ ] | j . o o o $ 1 1 , U k < 1 1 1 1 1                                           ",
"                                          o + O A j 4 } 5 . . o $ 1 1 < U k < 1 1 1 r 1 1                                         ",
"                                          . f ) Z o . a ) 0 3 . $ 1 1 , U z E u > v ~ 8 1                                         ",
"                                        o . @ j + . o . j w.9 . $ 1 2 ; @.k c -.F >.u 1 1                                         ",
"                                          o . . . o o X O 5 o . $ < 8 G J 8 < c :.y < 1 1                                         ",
"                                          > % o o o o o X . o o $ > l P - , 1 2 8 1 , ,                                           ",
"                                          2 = $ & o o o o o o o $ = : 8 1 1 , = > = * *                                           ",
"                                        $ % $ o % $ o o o o o o % = * = * * & $ * , 1 1 <                                         ",
"                                        a 3 . X o % o $ $ o & & * * * * = , , , 1 1 1 1 , >                                       ",
"                                        a B o o # o o o o o & $ * 1 < 2 < < 2 1 1 1 1 1 b F                                       ",
"                                      o C 7 . 6 A o o . o @ X o * 2 u i x E t 1 e F 8 1 &.I                                       ",
"                                      o Z 6 . 6 t.D 0 o M 9.7 . % , c u.$.I v < r o.8 2 i *.                                      ",
"                                      . A a . 5 D 4 + 3 C M D @ $ , q ;.u < 1 1 r o.w 1 , e                                       ",
"                                      4 9.Z o 5 t.f . 4 0 a @ o $ 1 = Q i < 1 1 r >.r < > i                                       ",
"                                      7 a o . a Z ) f 0 ] 9.V + $ < > H E < 1 1 z i.%.i w %.K                                     "
};
