/* XPM */
static char *c02040e267ed4009948aee735f75239cuIWgUb5RLReUKofM[] = {
/* columns rows colors chars-per-pixel */
"65 65 183 2 ",
"   c #33322D",
".  c #373E2C",
"X  c #383F2E",
"o  c #363632",
"O  c #383733",
"+  c #373831",
"@  c #3B3B35",
"#  c #3D3D3A",
"$  c #403F3B",
"%  c #3A452E",
"&  c #3C4236",
"*  c #3E4833",
"=  c #3E423B",
"-  c #414A36",
";  c #42423D",
":  c #454B3D",
">  c #455237",
",  c #46523B",
"<  c #49543C",
"1  c #4C593D",
"2  c #3D3F40",
"3  c #3E4140",
"4  c #444542",
"5  c #484744",
"6  c #464944",
"7  c #4A4A45",
"8  c #464949",
"9  c #4C4D4A",
"0  c #504F4C",
"q  c #475141",
"w  c #4D5344",
"e  c #4E5A43",
"r  c #4E524C",
"t  c #4F5B4C",
"y  c #505547",
"u  c #515C45",
"i  c #52524D",
"p  c #545C4C",
"a  c #4F4F50",
"s  c #514F51",
"d  c #4E5151",
"f  c #545552",
"g  c #585754",
"h  c #555A54",
"j  c #5A5A55",
"k  c #5A5758",
"l  c #565B59",
"z  c #5C5D5A",
"x  c #605F5B",
"c  c #536245",
"v  c #55624B",
"b  c #59634D",
"n  c #57694F",
"m  c #5B6B4C",
"M  c #566152",
"N  c #5A6355",
"B  c #5D6B54",
"V  c #5D625D",
"C  c #5E6B5B",
"Z  c #5D7255",
"A  c #5F735C",
"S  c #616B55",
"D  c #61625E",
"F  c #69675F",
"G  c #646D5C",
"H  c #6A6D5F",
"J  c #637454",
"K  c #627B57",
"L  c #64745C",
"P  c #69765E",
"I  c #66795E",
"U  c #5D5E61",
"Y  c #5D5F6E",
"T  c #605F61",
"R  c #5E6463",
"E  c #5E6964",
"W  c #5E6469",
"Q  c #5F6969",
"!  c #5F7361",
"~  c #5F6270",
"^  c #636563",
"/  c #696760",
"(  c #636A65",
")  c #6A6B65",
"_  c #62666B",
"`  c #686768",
"'  c #646C6B",
"]  c #6A6C6C",
"[  c #647363",
"{  c #6A7563",
"}  c #667964",
"|  c #6C7C64",
" . c #65716D",
".. c #6A726D",
"X. c #677868",
"o. c #6C7A6B",
"O. c #727267",
"+. c #72746D",
"@. c #727B6C",
"#. c #7A796D",
"$. c #636572",
"%. c #666D71",
"&. c #6A6D73",
"*. c #6C6D7A",
"=. c #667171",
"-. c #6C7473",
";. c #6D7974",
":. c #6E7479",
">. c #6F797A",
",. c #727573",
"<. c #787775",
"1. c #737A75",
"2. c #7A7C75",
"3. c #71757C",
"4. c #737B7B",
"5. c #7A7D7B",
"6. c #807F7A",
"7. c #6B825F",
"8. c #6F826D",
"9. c #6D8263",
"0. c #7A8D65",
"q. c #73846D",
"w. c #74896A",
"e. c #7A8A6C",
"r. c #778469",
"t. c #748274",
"y. c #7A8275",
"u. c #7B8B76",
"i. c #76817C",
"p. c #7B827D",
"a. c #7F897E",
"s. c #828376",
"d. c #828C76",
"f. c #83857D",
"g. c #848C7C",
"h. c #8C8B7E",
"j. c #849174",
"k. c #889377",
"l. c #86937A",
"z. c #8A947C",
"x. c #919A7F",
"c. c #747681",
"v. c #767C81",
"b. c #797E82",
"n. c #778280",
"m. c #7D8483",
"M. c #7F8982",
"N. c #7D828A",
"B. c #828683",
"V. c #848A84",
"C. c #8B8C83",
"Z. c #818589",
"A. c #858C8A",
"S. c #8B8E8A",
"D. c #869083",
"F. c #8C9284",
"G. c #8D918A",
"H. c #929385",
"J. c #959986",
"K. c #9A9987",
"L. c #93948C",
"P. c #98978E",
"I. c #939888",
"U. c #979A8B",
"Y. c #97998F",
"T. c #96998C",
"R. c #99998F",
"E. c #9B9C8C",
"W. c #8D8E92",
"Q. c #8E9391",
"!. c #919392",
"~. c #969591",
"^. c #939590",
"/. c #959992",
"(. c #969893",
"). c #9E9D92",
"_. c #9B9C93",
"`. c #A09E8F",
"'. c #A09F93",
"]. c #9CA089",
"[. c #9FA096",
"{. c #A3A293",
"}. c #A8A692",
/* pixels */
"8 9 9 8 8 4 4 4 = 4 4 6 9 7 7 7 7 7 9 r 8 4 4 $ @ @ @ ; $ # @ @ # 7 f i f 0 9 9 4 ; 7 7 7 : ; # # 5 9 5 # # 3 4 4 4 4 4 8 4 4 5 6 ",
"r l V ) ) ) ) O.) f 4 r h p p M b b j 7 7 9 f j D O.2.s.2.<.4 @ ) C.S.L.H.H.H.C.{ > S 2.y.y.#.O.+.s.C.+.4 f ' ..,.,.<.<.2.<.,.V 6 ",
"S.R.).).'.`.E.E.Y.( j g.k.k.j.j.0.0.y.i j S.R._.~.~.!.S.A.B.g 4 p.A.A.V.5.5.M.p.{ : y.I.I.U.U.H.G.Y./.i.8 <.G.F.G.G.L.).[._.(.m.d ",
"(.!.Q.W.W.Z.y.y.i.h N t.| | | } K K X.V D S.!.S.Z.Z.b.3.-.] j f B.A.B.5.-.3.4...R ; ..i.B.M.4.o...;.4.' 8 o.7.9.i.m.m.M.M.M.4.' 9 ",
"A.4.4.c.3.:.-.' E f j X.! [ } } L } o.f g 5.5.m.b.c.*.$._ ' N i 4.4.-.%.&.:...( R 7 ..' ..=.=.=.' E  .^ 7 { K } 4.4.:.-. .'  .V 9 ",
"Z.-.3.c.c.c.3.%.] f h [ } ;.q.q.o.;...i i ,.-.v.c.*.$.$.' ] j 7 ..' %.&.*.&.[ E ^ 7 ] R E =.1.v.-.' ' R 5 ' Q  .-.:.:.:.=. . .l 9 ",
"n.=.:.c.c.3.3.&.` i i [ ..1.@.1.1.;.] g i ..] -.*.*.*.&.] ` i 7 ' ] %.&.*.:.&.' ^ 7 R E E ' -.4.=.' ] z 4 R ' ' _ $.~ $.%.&.] k d ",
"] ( ( ` ] ] ] ` ( 9 r ' ` ( ^ ^ ( ^ V f 9 l D D x D ^ x z f 7 4 f R z z z T z z i 4 r l V R ^ ^ ^ D ^ f 4 k E R U U U U ^ D z i 8 ",
"f f 9 9 9 7 9 7 9 ; 7 j g f i i f j g f 7 4 7 7 9 i f i f d 8 4 4 4 4 = # # # = ; 3 4 4 4 = ; 4 4 4 4 3 2 4 8 8 8 9 9 9 9 9 9 9 9 ",
"C.V.f.@.V ; 7 j ) ] +.2.2.<.2.+.z k D D x j F +.6.<.z f ` 2.f.f.f.f.s.p...4 # N P 1.@.@.....( r 4 l ` ` ` ( ` ` ] +.k d 1.f.f.V.C.",
"Q.Q.Q.G.,.4 j L.'.{.{.}.}.}.{.L.( ] I.I.L.P.).)._.S.^ ` ^.C.M.M.m.m.M.M.4.d 9 y.q.Z.V.G.L.L.G.( g A.G.G.G.I.Y.L.G.G.' d A.Q.Q.Q.^.",
"n.n.5.4.( ; z A.G.V.M.V.G.G.V.<.g ` 5.1.4.Z.A.G.m.,.k ,.B.=.%.:.>.-.-.-. .f f 1.-.4.4.i.m.M.1.V V q.y.m.5.b.b.5.-.=.z d B.m.Z.m.b.",
"&.%.%.=.^ 5 z ;.1.4.-.4.;.1.=.V 7 N -.-.*.3.3.4.;.` i ( i.' %.:.c.-.>.>.] 9 f =.-.N.N.b.4...' g g t.i.m.4.3.v.b.4. .g d 5.-.:.:.-.",
":.&.=.=.^ 7 V 4.4.4.4.4.-.=.( V * v ( -.3.*.&.=.-.^ 7 V i.=.:.c.c.>.>.:.] 9 r '  .1.b.b.4.] ' h i ;.;.-.&.&.$.%.%.' f d 4.=.=.:.3.",
"&.' &.&.^ 7 ^ i.4.,.-.3.-.( N N 7 D C -.3.3.-.-.-.D w v o. .-.:.3.3.3.,.( 9 9 E Z Z X.-.=. .( u w X. .' _ Y Y W ' ' f d -. .] %.&.",
"( ( ( ^ j 7 l ..] ` ` ` G m c 1 : N ..-.&.( ^ ^ D j u c A ^ ^ ^ ^ D ^ z f 9 9 h c m V ^ D D S u w C V V R U U U R D 9 9 ( R ^ ( ( ",
"4 ; 4 4 ; 7 8 4 4 5 7 i v m c < - 7 g V z g i y w i p c v h g f r w w 8 9 9 9 8 4 4 4 7 9 w w w r r 7 7 9 9 9 9 9 7 4 4 9 9 8 8 7 ",
"# @ 8 f j D ^ D D D D ) N m B S G H O.2.2.2.2.) p ..@.y.a.f.f.y.| v w t h g h h d r w i 9 w w u h h r 9 f g f 9 f g j j f 9 8 4 4 ",
"z k L.L._._._.'.'.R.Y.V.B m j.J.U.U.J.E.{.{.).2.^ ^.G.G.V.B.M.u.w.Z e q.j.D.G.G.S.g.d.y.V w G g.z.H.H.F.C.S.,.f ] S.S.S.S.C.C.f.f.",
"k ^ S.A.A.A.A.S.S.A.V.@.v m d.V.V.a.y.L a.B.p.D z i.1.n.;.-.;.8.I v e q.| y.M.m.B.i.t.1.D w @.U.I.L.L.A.V.V.1.f 4.i.4.5.5.M.A.S.A.",
"g ( 5.=.-.4.1.4.5.4...` u b y.4.1.;.[ [ ..' ' f j o.} 4.;... .} B e e } A ;.m.m.b.>. . .V w 2.V.M.A.Z.m.n.i.] f ;.;.-.4.5.b.b.5.4.",
"i ^ -.( =.3.4.4.4.;.E ( i h 1.4.;.o.X.@.;.( ( j C .. .-. .( ( E B 1 e L A ;.m.m.b.4.-...z 9 <.5.5.m.m.b.5.;.( i ..-.5.Z.A.B.m.b.5.",
"7 M ..] ..,.3.4.4.-.( ` i g ;.;.X.[ L [ ( ] ] z ( -.' ' ' ' ' ( B 1 e A [ ;.:.3.:.-.] ] g 9 -.:.4.b.n.4.-. .^ 0 ' ;.4.i.m.m.p.p.<.",
"w u ( ` ` ` ) ) ) ` ) ^ i f ' ( G G G ( ( ( ( j g ( ( ( ( ` ( ^ b < , N  ...&.&.&.] ( ^ i 9 ( ] ' -.-.=.] ] D 9 V ' ] ..+.o.{ { G ",
": 6 9 7 7 w 7 7 7 9 i f 7 9 i i h j j j j i f 9 7 7 7 7 7 7 7 7 7 7 7 f j k z f 9 0 9 7 7 7 g g f f f f f g 0 4 7 9 i r w < < < , ",
"b S ` D h 6 ; r D D z j j j j j i 9 ^ ,.5.2.5.2.<.] f 4 f ) 2.2.2.2.2.2.2.` g 0 8 7 7 7 7 f g s 9 a g f g k f 9 4 4 4 : , u u c c ",
"k.z.G.G.V.V ; V.R.I.I.I.I.J.F.F.+.j L._._._._._.L.I.<.7 B.).).).).)././.(.V.g D f.h.h.h.C.H.L.p.g ( G.H.I._.~.L.S.B.] 7 S k.k.k.k.",
"D.V.M.M.i.V 4 f.....-.-.;.1.@.1.( z A.m.n.Z.Z.5.o.@.) i B.C.G.L.S.B.4.5.i.] 0 <.G.F.I.U.U.J.I.C.l ..V.V.A.A.A.B.V.V.,.7 G D.a.g.V.",
";...;.1...g ; ..E R Q _ ' ]  ...^ D M.;.4.b.n.i.1...V i p.B.A.a.1.4.b.m.b.^ 7 ] 5.m.m.m.m.m.i...i ..t.i.m.n.4.%.=.-.( 9 G o.X.X. .",
"X. .' ' ] f # ( ( ( ] %.' ]  ...^ ^ i.-.4.m.Z.M.i.-.j i 5.4.1.1.-.v.b.b.5.^ 9 ] 4.5.5.b.4.4.>...i ] ;.;.b.b.3.%.] =.D 9 C [ A C [ ",
"X.[ ' ( ] f # M  .( V V ' =.....S D 4.-.=.........' j j ;.....] -.:.3.3.-.z 9 ] ;.:.>.>.4.>.>.] f ] ;. .-.-.%.%.E ( D 9 V X.I L [ ",
") ) ) L L r @ w C C M N ' ] ' ' V g  .] ` ^ ( ` ( ( j f ' ..' ' ' ] ] ] ( j 9 ' -.>.>.:.:.-.] ( 9 ^ -. .&.&.&.%._ ' D 4 l ..[ G G ",
"7 7 y c e ; @ & % w i y y j f i 9 r g f i 0 7 7 5 7 7 9 i i i i i j g f i 9 9 z R k l z z z z k 9 d l l l g k k f 0 7 # 4 r r 7 : ",
"o @ = ; ; ; ; # X X = 6 r g g 9 g R k f 7 7 5 g z D / ) ) ) ^ r 7 j @.5.f.f.f.f.f.] 7 9 z ^ ( S ( ^ ^ ` ^ a f ^ D D ^ ` ) ] ) D h ",
"@ D B.h.C.C.C.C.s.@.p 5 2.G.G.L.L.L.L.A.D 7 ..L.L.L.S.V.V.V.p.C w ) G.F.g.y.p.a.p.1.9 ] G.G.V.g.F.G.G.G.B.f z L.A.G.L.L.G.C.F.F.V.",
"; 2._.L.C.f.V.S.C.p.j 9 g.I.I.L.L.L._.^.] i B.G.V.5.] ( _ _ ( C w ) i.;.' E ] =.' R 5 ] A.A.Z.m.m.m.5.-.( 8 R B.-.:.:.v.b.4.>.;.-.",
"7 { g.1.' ..-.3.-.( f 9 p.V.4.4.4.4.b.4.( i 5.1...' ' ' _ ( ( C w ..i.;.' ( =.-. .^ 4 ' Z.A.A.5.4.4.-.( E 8 ( i.=.-.:.3.v.4.;.=.' ",
"8 ..i.( V E ' &.-.] q 9 B.B.=.%.%.-.:.-.^ 7 ] ( ( ( =.( _ _ ( D i ..4.-.' ] =.=.] ^ ; R -.-.-.-.&.-.%.Q ( 9 ` 5.' ' %.:.:.-.' ' ' ",
"9 ' 1...] ..-.5.4.-.r 5 m.m.] %.%.&.-.-.^ 5 z ( ( ( ' ' ' ( ' D 7 ( -.' R ( ] =.=.^ ; k E E ' %.%.%.Q Q R 9 E -.E Q _ $._ Q ( ' ` ",
"9 R ' R V V G { ..' f 5 ..;.' ] ] %.&.-.^ ; 9 R ^ ( ^ ^ V z j 9 ; f V l l z ^ ( ( x ; 4 f h k z R ^ z z k 9 l ( R R U U U U V V z ",
"9 f d 9 7 5 7 9 7 5 4 4 r k j k k z z z f ; # ; 7 5 ; ; ; ; # # $ 4 7 ; $ @ ; 4 4 ; ; o o # ; 5 5 5 4 4 8 8 9 9 4 4 4 5 4 4 4 5 7 ",
"1.,.) z f f 7 7 7 7 7 8 9 f k D z 9 4 7 7 7 7 0 i 0 ; @ @ 4 f l D ( ( ( V h 5 ; i ) +.#.#.+.O.) l 6 i N M h h d r f g g 8 9 z ] <.",
"_./.L.L.I.C.f 7 <.C.C.C.C.S.L.L.V.l 7 2.H.H.H.H.U.I.f.9 # <.I.I.Y.R.Y.L.G.G.^ # ,.L.I.H.g.g.H.I.M.f 2.l.g.g.z.D.S.L.L.S.k ` _.L.L.",
"4.1.,.,.,.] f 7 5.p.p.2.,.=.] ' ..z f ^.S.5.2.a.A.V.5.f 4 B.V.M.i.4.i.B.M.i.V # ,.A.A.M.(  .i.i.4.h @.q.t.1.y.t.4.i.i.<.g ,.B.] -.",
"] ] ] &.^ ^ g 9 1.4.4.-.&.' R R ( j j S.p.' ( ..;...] i : y.i.4.1.-.4.5.1...f $ ..i.i.-.E  .5.4.' r X.8.t.;.t.o.-.5.4.` f +.,.' ] ",
"-.&.&.] ^ ^ g i -.,.3.:.&._ U R ( f j B.<.,.4.4.-.( ( u : o...;.4.b.b.4.-.;.h # ^ ( ' E ' '  .[ B w L } X.X.....-.4.-.V i ....] -.",
",.&.&.' ( ` j i ( _ _ _ _ W R R ( f l 5.;.-.&.&.] ( G u > B C ..4.m.N.5.4.4.j ; R ( ( ;.1.1.;.[ B < B C Z ! [ ' ' E R j i ` ' ' ] ",
"` ` ' _ ` ` f 9 V ^ ^ _ _ _ _ _ ` f f =.=.&.&.&.] G G c > c B [ ..1.4.4.1...i ; l ( ( ;.,.;.o.{ B q t n n B C ( R V V f 9 z ( ( ` ",
"0 0 9 7 7 9 7 7 i i i g g g z z j 7 5 f f f g f p v c 1 > > , 7 r 9 i i 7 ; ; $ 4 7 7 9 i f h p w * & - : w 7 7 7 4 4 7 8 9 r 0 0 ",
"7 7 5 5 7 9 9 f f i i i i 9 9 5 7 7 9 7 7 7 4 7 7 : p m J J G G ) j 4 @ O ; 7 7 9 7 4 ; # @ & * * & & & * 6 4 3 = @ # 4 9 9 8 9 9 ",
"( k f 2.C.C.C.H.H.H.H.S.B.^ 7 ] C.S.L.F.C.C.C.C.] i g.z.z.J.H.Y._.L.V @ j H.U.K.K.H.H.C.f.] ; 6 { | { { o.,.;...9 4 R ..<.2.,.] ] ",
"S.-.z ~.~.S.C.C.C.C.C.f.2.^ 7 5.L.L.L.G.B.4.;...` j C.G.C.V.B.m.n.m.( ; <.A.B.V.C.f.f.s.2.1.9 N F.F.F.F.G.G.G.V.f V G.F.G.G.G.z.I.",
"' ^ z L.S.,.&.-.] _ ( ` ` z 7 f.V.g.V.a.i...E ( ^ f p.4.-.-.3.m.Z.B.` 4 ,...' =.-.-.' _ E V 6 V A.m.p.4.4.-.4.-.r l 1.;.i.n.5.1...",
"( ^ j A.V.,.3.v.3.&.( ( ` j 0 2...o.q.t.;. .' ' ^ 9 ;.E ( &.4.A.A.m.( 5 ' ( R &.v.3.&.] ( V ; V i.4.b.b.-.' ;.-.r f -.-.-.;. .( ( ",
"` z g A.B.4.3.3.&.' ' ' ] z y @.L Z L [ [  . .] D 7 ..E ' 3.m.A.N.5.^ 7 R E E ' -.-.%.( E h = C X.=.b.b.3.Q ( ' i d ' ( ( ( C C ( ",
") z f 5.<.] ' _ _ _ ' ] ` j w L L S B G ) ( ^ ^ g 7 ( ' ( ( ' -.] ( z 4 f V R R ( &.] ' ` i & v ( ( 4.c.3.' Q ' f d ( ( ( G Z B G ",
"j f 9 h p u i f f f f f f w w v v v c v u y 7 7 4 4 9 i 0 7 7 9 7 7 7 ; ; 4 4 7 7 r r 7 7 ; O , h k ^ ^ U U z z 9 d f p p b b p p ",
"V z V V B j 9 7 7 9 i 9 9 r p p p u < e u p j z f g f 8 ; @ ; 9 r r f i f i 7 ; = , : @ o     + O @ @ # = 4 8 8 8 4 = = - , w y j ",
"H.J.R.P.L.G.' 4 g <.p.f.f.f.g.d.0.9.p P e.l.H.Y.L.L.A.-.4 g f.S.H.I.I.I.L.G.B.r 4 ..2.2.2.#.#.#.H 6 4 ..<.<.2.2.y.2...G w e e.g.H.",
"V.C.A.m.n.n.' 4 ,./._._.E.E.].x.u.e.v @.u.g.F.G.C.1.=.( ; V V.p.2.<.2.p.5.1...7 8 V.M.Z.Z.S.G.G.C.h f ^.A.S.C.C.F.H.F.V.C v F.V.V.",
"t.i.5.-.-.-.( 4 1.A.V.i.4.i.a.t.1.X.i 1.i.t.M.b.3.' _ ^ ; j ;.( ' =.-.4.4. .` 5 9 M.>.4.5.m.n.;.' f f 5.-.-.%.' =.1.4.;.N N g.i.i.",
";.:.-.%.%.] ( 5 ,.Z.4. . .;.;.-.-.` 0 1.1.-.-.-.&.' _ ^ ; g ' ( ;.4.4.4.-.[ ^ 5 9 i.;.4.5.b.b.-.( i i ..=.&.&.&.:.:.4.;.h V V.;.;.",
"=.=.] %.%.] ( 7 ` 4.....;.4.,...] ( 7 ..;.=.%.&.&._ _ ^ ; g ( ' 4.4.4.-.;.X.^ 7 i 1.' ] 3.b.b.-.( i r ..%.&.&.*.*.] L ) r V Z.;.-.",
"..] ] ] ] ] ^ 7 g ..[ ..,.,.-.] ] ` 9 ( -.=.] %.&.] ] D ; g ( ' ,.,.-...-.] ^ 7 i ;.( E  .4.;.' ( i 9 ' E %.*.3.*.L J G 9 f 1...=.",
"g j k k z x g 8 r l N D D z D D ^ j f R ] ( z g f i i 7 $ 7 g k k z z j j f i 4 9 ( ( C ( ` ( D V 9 9 V l V ^ ^ ^ B m j 8 5 g g g "
};
